/* XPM */
static char * close_active_xpm[] = {
"24 24 87 1",
" 	c None",
".	c #313133",
"+	c #4B5252",
"@	c #4B5151",
"#	c #4A5152",
"$	c #4A5151",
"%	c #4B5152",
"&	c #4A5051",
"*	c #495150",
"=	c #4A5050",
"-	c #495050",
";	c #546654",
">	c #7FB26C",
",	c #91CF74",
"'	c #92D174",
")	c #7EB16B",
"!	c #526555",
"~	c #494F50",
"{	c #49504F",
"]	c #6C9661",
"^	c #92D274",
"/	c #90CD6A",
"(	c #8CC763",
"_	c #94D275",
":	c #6C9662",
"<	c #484F4F",
"[	c #494F4F",
"}	c #93D274",
"|	c #8DC764",
"1	c #93D273",
"2	c #484F4E",
"3	c #484E4E",
"4	c #474F4E",
"5	c #536452",
"6	c #526454",
"7	c #484E4F",
"8	c #474D4E",
"9	c #474E4E",
"0	c #80B36B",
"a	c #8FCD6B",
"b	c #7DB06B",
"c	c #484D4E",
"d	c #474D4D",
"e	c #474E4D",
"f	c #91CF75",
"g	c #90CE73",
"h	c #464D4D",
"i	c #464D4C",
"j	c #474D4C",
"k	c #464C4C",
"l	c #464C4B",
"m	c #454C4C",
"n	c #90CF74",
"o	c #8FD074",
"p	c #454C4B",
"q	c #454B4B",
"r	c #7DB069",
"s	c #90CD6B",
"t	c #7DB068",
"u	c #444B4B",
"v	c #444A4A",
"w	c #444B4A",
"x	c #444A4B",
"y	c #4F614F",
"z	c #93D275",
"A	c #4D604F",
"B	c #444A49",
"C	c #69935E",
"D	c #93D272",
"E	c #6A925E",
"F	c #434A49",
"G	c #6A945F",
"H	c #90CE6A",
"I	c #434949",
"J	c #434948",
"K	c #4F614D",
"L	c #7CB069",
"M	c #8FCF74",
"N	c #92D173",
"O	c #4E604E",
"P	c #424949",
"Q	c #424848",
"R	c #424747",
"S	c #414847",
"T	c #414748",
"U	c #424748",
"V	c #414747",
"........................",
"++++++++++++++++++++++++",
"++++++++++++++++++++++++",
"++++++++++++++++++++++++",
"@+@@+@@+@+@+@+@+@+@+@+++",
"#$%#$#$%#$#$%##$%#$$%#@$",
"&&*&&&*&&*&&*&*&&*&&*&*$",
"=*-=**-*;>,'',)!*-**-*-&",
"~{{~{{{]^/((((/_:{-{{-~~",
"<<[<<<]}(((((((|1:[<[[[<",
"234235^(((((((((|_634<77",
"899890a((((((((((/b999c3",
"ddeddf((((((((((((gdeedd",
"hhdhh'(((((((((((('hdhij",
"kkikk^(((((((((((('kikik",
"lmmlmn((((((((((((ommkpq",
"qqqqqr/((((((((((stqqqqu",
"vwxvwy_|((((((((|zAwxuqv",
"vvBvvvC1|((((((|DEvvBvvv",
"FFBFFFBGz/((((HzEBIFBIIv",
"IJIIJJIIKLMNNMtOJIIJIIPI",
"PQQPQQQQQQQQQQQQQQQQQQQQ",
"RSTRSSTUSTUSTUTUSTUSTUQQ",
"VVVVVVVTVTVVTVVTVVTVVTRV"};
