/* XPM */
static char * close_active_xpm[] = {
"28 36 158 2",
"  	c #323A3F",
". 	c #3F4C53",
"+ 	c #3F4C52",
"@ 	c #3E4C53",
"# 	c #3F4B53",
"$ 	c #3E4C52",
"% 	c #3E4B52",
"& 	c #3F4B52",
"* 	c #3E4B53",
"= 	c #3E4A52",
"- 	c #3D4A52",
"; 	c #3D4B51",
"> 	c #3D4B52",
", 	c #3E4B51",
"' 	c #3E4A51",
") 	c #3F4A50",
"! 	c #404950",
"~ 	c #3F4951",
"{ 	c #3D4A51",
"] 	c #3E4950",
"^ 	c #414D50",
"/ 	c #5B8058",
"( 	c #71A260",
"_ 	c #7BB765",
": 	c #80BC67",
"< 	c #70A360",
"[ 	c #5B7F59",
"} 	c #5A7E57",
"| 	c #7DB666",
"1 	c #7BB762",
"2 	c #74B05A",
"3 	c #6EA953",
"4 	c #6CA650",
"5 	c #75B159",
"6 	c #7CB863",
"7 	c #7CB866",
"8 	c #5B7D58",
"9 	c #3D4A50",
"0 	c #3C4A51",
"a 	c #3D4951",
"b 	c #404B4F",
"c 	c #68985D",
"d 	c #80BB65",
"e 	c #70AC55",
"f 	c #6AA44E",
"g 	c #71AC56",
"h 	c #7FBB65",
"i 	c #69975E",
"j 	c #3C4951",
"k 	c #3C4950",
"l 	c #3E494F",
"m 	c #7CB963",
"n 	c #6CA651",
"o 	c #68975C",
"p 	c #3C4A50",
"q 	c #3D4950",
"r 	c #3D484F",
"s 	c #6CA750",
"t 	c #80BC66",
"u 	c #587B57",
"v 	c #3B4950",
"w 	c #3C494F",
"x 	c #404A4D",
"y 	c #7CB765",
"z 	c #71AB55",
"A 	c #7DB765",
"B 	c #3F4C4E",
"C 	c #3C4850",
"D 	c #3C484F",
"E 	c #5A7F57",
"F 	c #7BB862",
"G 	c #5A7D57",
"H 	c #3B494F",
"I 	c #3B4850",
"J 	c #3B484F",
"K 	c #3D474E",
"L 	c #74B059",
"M 	c #75B05A",
"N 	c #71A35F",
"O 	c #3C474E",
"P 	c #3D474D",
"Q 	c #7BB563",
"R 	c #6EAA53",
"S 	c #7BB565",
"T 	c #3A484F",
"U 	c #3C464D",
"V 	c #80BD67",
"W 	c #6CA64F",
"X 	c #81BC68",
"Y 	c #3B474F",
"Z 	c #3A484E",
"` 	c #3D474C",
" .	c #80BD66",
"..	c #3A474E",
"+.	c #3A474F",
"@.	c #3B474E",
"#.	c #3C464C",
"$.	c #3A474D",
"%.	c #3B464C",
"&.	c #6FA35F",
"*.	c #6FA15F",
"=.	c #39464E",
"-.	c #3B464D",
";.	c #5A7E56",
">.	c #7CB763",
",.	c #5A7C56",
"'.	c #39474E",
").	c #39464D",
"!.	c #3A464D",
"~.	c #39474D",
"{.	c #3E474B",
"].	c #72AD56",
"^.	c #3D494C",
"/.	c #3A454C",
"(.	c #597C55",
"_.	c #577955",
":.	c #39454D",
"<.	c #68965C",
"[.	c #38464D",
"}.	c #39454C",
"|.	c #38464C",
"1.	c #3C464B",
"2.	c #67965B",
"3.	c #67955B",
"4.	c #39464C",
"5.	c #38454C",
"6.	c #38454D",
"7.	c #39454B",
"8.	c #567A54",
"9.	c #74B159",
"0.	c #6FA953",
"a.	c #557A54",
"b.	c #3A454B",
"c.	c #39444B",
"d.	c #3C484B",
"e.	c #6FA25E",
"f.	c #7CB563",
"g.	c #6FA15E",
"h.	c #597B55",
"i.	c #3D464A",
"j.	c #37454C",
"k.	c #37444B",
"l.	c #37454B",
"m.	c #38444A",
"n.	c #39434A",
"o.	c #394349",
"p.	c #39444A",
"q.	c #38454B",
"r.	c #38444C",
"s.	c #37444C",
"t.	c #38444B",
"u.	c #37444A",
"v.	c #37434B",
"w.	c #37434A",
"x.	c #36444B",
"y.	c #36444A",
"z.	c #36434B",
"A.	c #36434A",
"                                                        ",
". . . . . . . . . . . . . . . . . . . . . . . . . . . . ",
". . . + . . . + . . . . . @ . # $ # . . + . . + . + . + ",
"# @ . . # @ . . % + & . @ & & & % $ . + # & & @ # & . . ",
"% + @ % % + @ % $ & % + & @ $ # % # . & % & @ & $ % $ + ",
"% % % % % % % % % % % % % % * % % % % % % % % % % % % % ",
"% % = = % % = = % = % - % % ; ; % = > % > = , % % % % , ",
", = ; > , = ; > ; - ' ) ! ! ! ! ~ ' - { ; - { { - % ; { ",
"- ' { { - ' { { ] ^ / ( _ : : _ < [ ^ ] - { ' { - { ; { ",
"{ { { { { { { ] } | 1 2 3 4 4 3 5 6 7 8 ] { { { { { { 9 ",
"0 a 9 9 0 a b c d e f f f f f f f f g h i b a { j { j j ",
"k { k k k l c m 4 f f f f f f f f f f n m o l p j q q j ",
"k j k k r } d n f f f f f f f f f f f f s t u r k q k k ",
"v w w w x y z f f f f f f f f f f f f f f g A B C C k C ",
"w D C D E 1 f f f f f f f f f f f f f f f f F G D H D I ",
"D w J K < L f f f f f f f f f f f f f f f f M N O J J J ",
"J J J P Q 3 f f f f f f f f f f f f f f f f R S P J J J ",
"J T T U V W f f f f f f f f f f f f f f f f 4 X U J J J ",
"Y Y Z `  .4 f f f f f f f f f f f f f f f f n : ` ..+.Z ",
"Z @...#.Q 3 f f f f f f f f f f f f f f f f R S #...Z @.",
"....$.%.&.5 f f f f f f f f f f f f f f f f 5 *.%.......",
"$...=.-.;.6 f f f f f f f f f f f f f f f f >.,.%...'.).",
"!.~.$.~.{._ g f f f f f f f f f f f f f f ].y ^.=.=.=.=.",
").).).)./.(.h s f f f f f f f f f f f f s h _./.).).).).",
").:.:.).)./.<.m s f f f f f f f f f f s m <./.:.).[.}.).",
"[.[.:.|.[.|.1.2.t g f f f f f f f f g h 3.1.4.[.5.5.[.6.",
"6.4.6.5.6.4.5.7.8.y F 9.0.n n R L >._ a.b.|.5.5.|.}.6.5.",
"5.5.5.5.5.5.5.5.c.d.(.e.f.: : f.g.h.i.c.5.5.5.5.5.5.5.5.",
"j.5.k.l.j.5.k.l.j.5.m.n.o.o.o.o.p.m.5.5.q.5.r.q.5.5.5.j.",
"s.l.j.5.s.l.j.5.j.5.q.t.5.r.l.5.j.t.l.5.s.k.5.l.k.t.k.s.",
"l.k.s.k.l.k.s.k.s.k.t.k.k.k.k.k.s.k.k.s.t.l.l.k.t.k.k.k.",
"k.k.k.k.k.k.k.k.k.k.k.k.u.k.k.v.k.u.k.k.v.w.k.u.k.k.k.v.",
"w.w.x.u.w.w.x.u.u.y.u.z.y.k.w.v.v.k.k.y.v.A.u.x.A.x.k.w.",
"x.A.w.y.x.A.w.y.v.v.w.z.A.x.z.w.u.z.z.A.A.x.y.A.w.k.A.A.",
"A.A.A.A.A.A.A.A.y.A.y.A.A.A.A.A.A.x.A.A.A.A.A.A.y.A.z.A.",
"A.A.A.A.A.A.A.A.A.A.A.A.A.A.A.A.A.A.A.A.A.A.A.A.A.A.A.A."};
