/* XPM */
static char * close_pressed_xpm[] = {
"24 24 104 2",
"  	c None",
". 	c #313133",
"+ 	c #4B5252",
"@ 	c #4B5151",
"# 	c #4A5152",
"$ 	c #4A5151",
"% 	c #4B5152",
"& 	c #4A5051",
"* 	c #495150",
"= 	c #4A5050",
"- 	c #495050",
"; 	c #505E52",
"> 	c #6D9A5D",
", 	c #79B062",
"' 	c #79B161",
") 	c #6C9A5D",
"! 	c #4E5F52",
"~ 	c #494F50",
"{ 	c #49504F",
"] 	c #618459",
"^ 	c #7AB362",
"/ 	c #70AB55",
"( 	c #6AA54E",
"_ 	c #6AA44E",
": 	c #70AB56",
"< 	c #7AB563",
"[ 	c #608258",
"} 	c #484F4F",
"| 	c #494F4F",
"1 	c #618458",
"2 	c #79B260",
"3 	c #6BA54E",
"4 	c #608257",
"5 	c #484F4E",
"6 	c #484E4E",
"7 	c #474F4E",
"8 	c #4F5C51",
"9 	c #7AAE61",
"0 	c #9BC288",
"a 	c #9CC289",
"b 	c #4E5D51",
"c 	c #484E4F",
"d 	c #474D4E",
"e 	c #474E4E",
"f 	c #6C995C",
"g 	c #71AB55",
"h 	c #FFFFFF",
"i 	c #B1D0A3",
"j 	c #484D4E",
"k 	c #474D4D",
"l 	c #474E4D",
"m 	c #77B162",
"n 	c #78B162",
"o 	c #464D4D",
"p 	c #78B262",
"q 	c #AECD9F",
"r 	c #B2D0A4",
"s 	c #79B160",
"t 	c #464D4C",
"u 	c #474D4C",
"v 	c #464C4C",
"w 	c #79B362",
"x 	c #AECE9F",
"y 	c #B3D1A5",
"z 	c #464C4B",
"A 	c #454C4C",
"B 	c #78B062",
"C 	c #454C4B",
"D 	c #454B4B",
"E 	c #6B995B",
"F 	c #70AA56",
"G 	c #71AA55",
"H 	c #444B4B",
"I 	c #444A4A",
"J 	c #444B4A",
"K 	c #444A4B",
"L 	c #4A5B4C",
"M 	c #7AB462",
"N 	c #4B594D",
"O 	c #444A49",
"P 	c #5F7F54",
"Q 	c #79B25E",
"R 	c #78B25F",
"S 	c #5D7F54",
"T 	c #434A49",
"U 	c #7AB562",
"V 	c #7AB561",
"W 	c #5D7F53",
"X 	c #434949",
"Y 	c #434948",
"Z 	c #4A594C",
"` 	c #6B985B",
" .	c #77B161",
"..	c #78B160",
"+.	c #77B061",
"@.	c #6A9A59",
"#.	c #495A4B",
"$.	c #424949",
"%.	c #424848",
"&.	c #424747",
"*.	c #414847",
"=.	c #414748",
"-.	c #424748",
";.	c #414747",
". . . . . . . . . . . . . . . . . . . . . . . . ",
"+ + + + + + + + + + + + + + + + + + + + + + + + ",
"+ + + + + + + + + + + + + + + + + + + + + + + + ",
"+ + + + + + + + + + + + + + + + + + + + + + + + ",
"@ + @ @ + @ @ + @ + @ + @ + @ + @ + @ + @ + + + ",
"# $ % # $ % # $ # $ # $ # $ # $ # $ # $ % # @ $ ",
"& & * & & * & & & & & & & & & & & & & & * & * $ ",
"= * - = * * - * ; > , ' ' , ) ! * - & * - * - & ",
"~ { { ~ { { { ] ^ / ( _ _ ( : < [ ~ ~ { { - ~ ~ ",
"} } | } } } 1 2 3 _ _ _ _ _ _ 3 2 4 } } | | | } ",
"5 6 7 5 6 8 ^ 3 9 0 _ _ _ _ a 9 3 < b 6 7 } c c ",
"d e e d e f g _ a h i _ _ i h a _ : f e e e j 6 ",
"k k l k k m ( _ _ i h i i h i _ _ ( n k l l k k ",
"o o k o o p _ _ _ _ q h h r _ _ _ _ s o k o t u ",
"v v t v v w _ _ _ _ x h h y _ _ _ _ s v t v t v ",
"z A A z A m ( _ _ x h r q h y _ _ ( B A A v C D ",
"D D D D D E F _ a h i _ _ i h a _ G E D D D D H ",
"I J K I J L < 3 9 0 _ _ _ _ 0 9 3 M N J K H D I ",
"I I O I I I P Q 3 _ _ _ _ _ _ 3 R S I I O I I I ",
"T T O T T T O S U F ( _ _ ( G V W X I T O X X I ",
"X Y X X Y Y X X Z `  .....+.@.#.X $.X Y X X $.X ",
"$.%.%.$.%.%.%.%.%.%.%.%.%.%.%.%.%.%.%.%.%.%.%.%.",
"&.*.=.&.*.=.&.*.&.*.&.*.&.*.&.*.&.*.&.*.=.-.%.%.",
";.;.;.;.;.;.;.;.;.;.;.;.;.;.;.;.;.;.;.;.;.=.&.;."};
