/* XPM */
static char * close_active_xpm[] = {
"28 36 101 2",
"  	c #323A3F",
". 	c #414B51",
"+ 	c #414B50",
"@ 	c #414A50",
"# 	c #404A50",
"$ 	c #404950",
"% 	c #3F494F",
"& 	c #435051",
"* 	c #73A365",
"= 	c #8AC671",
"- 	c #94D377",
"; 	c #96D67A",
"> 	c #8BC671",
", 	c #72A265",
"' 	c #72A164",
") 	c #95D378",
"! 	c #8ECC72",
"~ 	c #7EBA62",
"{ 	c #72AD56",
"] 	c #6EA852",
"^ 	c #7EBB61",
"/ 	c #8ECE72",
"( 	c #94D478",
"_ 	c #72A064",
": 	c #434D4F",
"< 	c #84BD6E",
"[ 	c #94D376",
"} 	c #76B35B",
"| 	c #6AA44E",
"1 	c #77B35B",
"2 	c #93D377",
"3 	c #83BD6E",
"4 	c #3E494E",
"5 	c #8FCE73",
"6 	c #90CF73",
"7 	c #83BC6D",
"8 	c #3E484E",
"9 	c #6EA952",
"0 	c #94D477",
"a 	c #709E63",
"b 	c #3D484D",
"c 	c #43504D",
"d 	c #93D378",
"e 	c #77B25A",
"f 	c #95D477",
"g 	c #41504F",
"h 	c #3D474D",
"i 	c #73A264",
"j 	c #3D474E",
"k 	c #8BC672",
"l 	c #7DBA61",
"m 	c #7EBB62",
"n 	c #8BC770",
"o 	c #93D276",
"p 	c #72AE57",
"q 	c #92D178",
"r 	c #3C464D",
"s 	c #96D679",
"t 	c #6EA751",
"u 	c #97D67A",
"v 	c #3D474C",
"w 	c #97D679",
"x 	c #6DA851",
"y 	c #3C464C",
"z 	c #93D277",
"A 	c #3B464B",
"B 	c #7EBC61",
"C 	c #8AC571",
"D 	c #3C454B",
"E 	c #72A163",
"F 	c #8FCE72",
"G 	c #71A163",
"H 	c #3B454B",
"I 	c #414D4B",
"J 	c #94D378",
"K 	c #78B45B",
"L 	c #3F4D4D",
"M 	c #719F62",
"N 	c #6E9C62",
"O 	c #83BD6D",
"P 	c #83BC6C",
"Q 	c #3A444A",
"R 	c #3F484A",
"S 	c #82BC6D",
"T 	c #78B35B",
"U 	c #83BB6D",
"V 	c #3A454A",
"W 	c #6F9D61",
"X 	c #73AD56",
"Y 	c #7DBB61",
"Z 	c #6E9B62",
"` 	c #3E4C4C",
" .	c #72A063",
"..	c #8BC670",
"+.	c #71A062",
"@.	c #404C4A",
"#.	c #394349",
"$.	c #394449",
"%.	c #384348",
"&.	c #394348",
"*.	c #384248",
"                                                        ",
". . . . . . . . . . . . . . . . . . . . . . . . . . . . ",
". . . . . . . . . . . . . . . . . . . . . . . . . . . . ",
"+ + + + + + + + + + + + + + + + + + + + + + + + + + + + ",
"@ @ @ @ @ @ @ @ @ @ @ @ @ @ @ @ @ @ @ @ @ @ @ @ @ @ @ @ ",
"# # # # # # # # # # # # # # # # # # # # # # # # # # # # ",
"# # # # # # # # # # # # # # # # # # # # # # # # # # # # ",
"$ $ $ $ $ $ $ $ $ $ $ $ $ $ $ $ $ $ $ $ $ $ $ $ $ $ $ $ ",
"% % % % % % % % % & * = - ; ; - > , & % % % % % % % % % ",
"% % % % % % % % ' ) ! ~ { ] ] { ^ / ( _ % % % % % % % % ",
"% % % % % % : < [ } | | | | | | | | 1 2 3 : % % % % % % ",
"4 4 4 4 4 4 < 5 ] | | | | | | | | | | ] 6 7 4 4 4 4 4 4 ",
"8 8 8 8 8 ' [ ] | | | | | | | | | | | | 9 0 a 8 8 8 8 8 ",
"b b b b c d e | | | | | | | | | | | | | | 1 f g b b b b ",
"h h h h i ! | | | | | | | | | | | | | | | | / _ h h h h ",
"j j j j k l | | | | | | | | | | | | | | | | m n j j j j ",
"h h h h o { | | | | | | | | | | | | | | | | p q h h h h ",
"r r r r s t | | | | | | | | | | | | | | | | ] u r r r r ",
"v v v v w x | | | | | | | | | | | | | | | | ] ; v v v v ",
"y y y y o { | | | | | | | | | | | | | | | | p z y y y y ",
"A A A A = ^ | | | | | | | | | | | | | | | | B C A A A A ",
"D D D D E / | | | | | | | | | | | | | | | | F G D D D D ",
"H H H H I J 1 | | | | | | | | | | | | | | K J L H H H H ",
"H H H H H M 2 9 | | | | | | | | | | | | 9 - N H H H H H ",
"H H H H H H O 6 9 | | | | | | | | | | 9 6 P H H H H H H ",
"Q Q Q Q Q Q R S 0 1 | | | | | | | | T - U R Q Q Q Q Q Q ",
"V V V V V V V V W d / m X ] ] p Y F J Z V V V V V V V V ",
"Q Q Q Q Q Q Q Q Q `  .n z ; ; z ..+.@.Q Q Q Q Q Q Q Q Q ",
"#.#.#.#.#.#.#.#.#.#.#.#.#.#.#.#.#.#.#.#.#.#.#.#.#.#.#.#.",
"$.$.$.$.$.$.$.$.$.$.$.$.$.$.$.$.$.$.$.$.$.$.$.$.$.$.$.$.",
"#.#.#.#.#.#.#.#.#.#.#.#.#.#.#.#.#.#.#.#.#.#.#.#.#.#.#.#.",
"#.#.#.#.#.#.#.#.#.#.#.#.#.#.#.#.#.#.#.#.#.#.#.#.#.#.#.#.",
"%.%.%.%.%.%.%.%.%.%.%.%.%.%.%.%.%.%.%.%.%.%.%.%.%.%.%.%.",
"&.&.&.&.&.&.&.&.&.&.&.&.&.&.&.&.&.&.&.&.&.&.&.&.&.&.&.&.",
"*.*.*.*.*.*.*.*.*.*.*.*.*.*.*.*.*.*.*.*.*.*.*.*.*.*.*.*.",
"*.*.*.*.*.*.*.*.*.*.*.*.*.*.*.*.*.*.*.*.*.*.*.*.*.*.*.*."};
