/* XPM */
static char * close_prelight_xpm[] = {
"28 36 169 2",
"  	c #323A3F",
". 	c #3F4C53",
"+ 	c #3F4C52",
"@ 	c #3E4C53",
"# 	c #3F4B53",
"$ 	c #3E4C52",
"% 	c #3E4B52",
"& 	c #3F4B52",
"* 	c #3E4B53",
"= 	c #3E4A52",
"- 	c #3D4A52",
"; 	c #3D4B51",
"> 	c #3D4B52",
", 	c #3E4B51",
"' 	c #3E4A51",
") 	c #3F4A50",
"! 	c #404950",
"~ 	c #3F4951",
"{ 	c #3D4A51",
"] 	c #3E4950",
"^ 	c #414D50",
"/ 	c #5B8058",
"( 	c #71A260",
"_ 	c #7BB765",
": 	c #80BC67",
"< 	c #70A360",
"[ 	c #5B7F59",
"} 	c #5A7E57",
"| 	c #7DB666",
"1 	c #7BB762",
"2 	c #74B05A",
"3 	c #6EA953",
"4 	c #6CA650",
"5 	c #75B159",
"6 	c #7CB863",
"7 	c #7CB866",
"8 	c #5B7D58",
"9 	c #3D4A50",
"0 	c #3C4A51",
"a 	c #3D4951",
"b 	c #404B4F",
"c 	c #68985D",
"d 	c #80BB65",
"e 	c #70AC55",
"f 	c #6AA44E",
"g 	c #71AC56",
"h 	c #7FBB65",
"i 	c #69975E",
"j 	c #3C4951",
"k 	c #3C4950",
"l 	c #3E494F",
"m 	c #7CB963",
"n 	c #6CA651",
"o 	c #68975C",
"p 	c #3C4A50",
"q 	c #3D4950",
"r 	c #3D484F",
"s 	c #6CA750",
"t 	c #80BC66",
"u 	c #587B57",
"v 	c #3B4950",
"w 	c #3C494F",
"x 	c #404A4D",
"y 	c #7CB765",
"z 	c #71AB55",
"A 	c #CEE1C5",
"B 	c #E2EDDC",
"C 	c #76AB5C",
"D 	c #7DB765",
"E 	c #3F4C4E",
"F 	c #3C4850",
"G 	c #3C484F",
"H 	c #5A7F57",
"I 	c #DDEAD7",
"J 	c #FFFFFF",
"K 	c #E4EEDE",
"L 	c #E1ECDB",
"M 	c #7BB862",
"N 	c #5A7D57",
"O 	c #3B494F",
"P 	c #3B4850",
"Q 	c #3B484F",
"R 	c #3D474E",
"S 	c #74B059",
"T 	c #74AA5A",
"U 	c #E1EDDC",
"V 	c #E4EFDF",
"W 	c #75B05A",
"X 	c #71A35F",
"Y 	c #3C474E",
"Z 	c #3D474D",
"` 	c #7BB563",
" .	c #6EAA53",
"..	c #7BB565",
"+.	c #3A484F",
"@.	c #3C464D",
"#.	c #80BD67",
"$.	c #6CA64F",
"%.	c #81BC68",
"&.	c #3B474F",
"*.	c #3A484E",
"=.	c #3D474C",
"-.	c #80BD66",
";.	c #3A474E",
">.	c #3A474F",
",.	c #3B474E",
"'.	c #3C464C",
").	c #3A474D",
"!.	c #3B464C",
"~.	c #6FA35F",
"{.	c #6FA15F",
"].	c #39464E",
"^.	c #3B464D",
"/.	c #5A7E56",
"(.	c #DEEBD7",
"_.	c #7CB763",
":.	c #5A7C56",
"<.	c #39474E",
"[.	c #39464D",
"}.	c #3A464D",
"|.	c #39474D",
"1.	c #3E474B",
"2.	c #72AD56",
"3.	c #3D494C",
"4.	c #3A454C",
"5.	c #597C55",
"6.	c #577955",
"7.	c #39454D",
"8.	c #68965C",
"9.	c #38464D",
"0.	c #39454C",
"a.	c #38464C",
"b.	c #3C464B",
"c.	c #67965B",
"d.	c #67955B",
"e.	c #39464C",
"f.	c #38454C",
"g.	c #38454D",
"h.	c #39454B",
"i.	c #567A54",
"j.	c #74B159",
"k.	c #6FA953",
"l.	c #557A54",
"m.	c #3A454B",
"n.	c #39444B",
"o.	c #3C484B",
"p.	c #6FA25E",
"q.	c #7CB563",
"r.	c #6FA15E",
"s.	c #597B55",
"t.	c #3D464A",
"u.	c #37454C",
"v.	c #37444B",
"w.	c #37454B",
"x.	c #38444A",
"y.	c #39434A",
"z.	c #394349",
"A.	c #39444A",
"B.	c #38454B",
"C.	c #38444C",
"D.	c #37444C",
"E.	c #38444B",
"F.	c #37444A",
"G.	c #37434B",
"H.	c #37434A",
"I.	c #36444B",
"J.	c #36444A",
"K.	c #36434B",
"L.	c #36434A",
"                                                        ",
". . . . . . . . . . . . . . . . . . . . . . . . . . . . ",
". . . + . . . + . . . . . @ . # $ # . . + . . + . + . + ",
"# @ . . # @ . . % + & . @ & & & % $ . + # & & @ # & . . ",
"% + @ % % + @ % $ & % + & @ $ # % # . & % & @ & $ % $ + ",
"% % % % % % % % % % % % % % * % % % % % % % % % % % % % ",
"% % = = % % = = % = % - % % ; ; % = > % > = , % % % % , ",
", = ; > , = ; > ; - ' ) ! ! ! ! ~ ' - { ; - { { - % ; { ",
"- ' { { - ' { { ] ^ / ( _ : : _ < [ ^ ] - { ' { - { ; { ",
"{ { { { { { { ] } | 1 2 3 4 4 3 5 6 7 8 ] { { { { { { 9 ",
"0 a 9 9 0 a b c d e f f f f f f f f g h i b a { j { j j ",
"k { k k k l c m 4 f f f f f f f f f f n m o l p j q q j ",
"k j k k r } d n f f f f f f f f f f f f s t u r k q k k ",
"v w w w x y z f f A B C f f f f C B A f f g D E F F k F ",
"w G F G H 1 f f f I J K C f f C K J L f f f M N G O G P ",
"G w Q R < S f f f T U J V C T U J K C f f f W X Y Q Q Q ",
"Q Q Q Z ` 3 f f f f C K J K K J K C f f f f  ...Z Q Q Q ",
"Q +.+.@.#.$.f f f f f T U J J K C f f f f f 4 %.@.Q Q Q ",
"&.&.*.=.-.4 f f f f f T U J J V C f f f f f n : =.;.>.*.",
"*.,.;.'.` 3 f f f f C K J K K J K C f f f f  ...'.;.*.,.",
";.;.).!.~.5 f f f T U J K C T U J V C f f f 5 {.!.;.;.;.",
").;.].^./.6 f f f (.J K C f f C K J L f f f _.:.!.;.<.[.",
"}.|.).|.1._ g f f A L C f f f f C L A f f 2.y 3.].].].].",
"[.[.[.[.4.5.h s f f f f f f f f f f f f s h 6.4.[.[.[.[.",
"[.7.7.[.[.4.8.m s f f f f f f f f f f s m 8.4.7.[.9.0.[.",
"9.9.7.a.9.a.b.c.t g f f f f f f f f g h d.b.e.9.f.f.9.g.",
"g.e.g.f.g.e.f.h.i.y M j.k.n n  .S _._ l.m.a.f.f.a.0.g.f.",
"f.f.f.f.f.f.f.f.n.o.5.p.q.: : q.r.s.t.n.f.f.f.f.f.f.f.f.",
"u.f.v.w.u.f.v.w.u.f.x.y.z.z.z.z.A.x.f.f.B.f.C.B.f.f.f.u.",
"D.w.u.f.D.w.u.f.u.f.B.E.f.C.w.f.u.E.w.f.D.v.f.w.v.E.v.D.",
"w.v.D.v.w.v.D.v.D.v.E.v.v.v.v.v.D.v.v.D.E.w.w.v.E.v.v.v.",
"v.v.v.v.v.v.v.v.v.v.v.v.F.v.v.G.v.F.v.v.G.H.v.F.v.v.v.G.",
"H.H.I.F.H.H.I.F.F.J.F.K.J.v.H.G.G.v.v.J.G.L.F.I.L.I.v.H.",
"I.L.H.J.I.L.H.J.G.G.H.K.L.I.K.H.F.K.K.L.L.I.J.L.H.v.L.L.",
"L.L.L.L.L.L.L.L.J.L.J.L.L.L.L.L.L.I.L.L.L.L.L.L.J.L.K.L.",
"L.L.L.L.L.L.L.L.L.L.L.L.L.L.L.L.L.L.L.L.L.L.L.L.L.L.L.L."};
