/* XPM */
static char * close_active_xpm[] = {
"24 24 93 2",
"  	c None",
". 	c #313133",
"+ 	c #4B5252",
"@ 	c #4B5151",
"# 	c #4A5152",
"$ 	c #4A5151",
"% 	c #4B5152",
"& 	c #4A5051",
"* 	c #495150",
"= 	c #4A5050",
"- 	c #495050",
"; 	c #526350",
"> 	c #76AE50",
", 	c #85C84F",
"' 	c #87CA4E",
") 	c #75AD50",
"! 	c #506550",
"~ 	c #494F50",
"{ 	c #49504F",
"] 	c #679250",
"^ 	c #87CD4D",
"/ 	c #82C43A",
"( 	c #7DBD33",
"_ 	c #7DBC32",
": 	c #87CD4E",
"< 	c #669150",
"[ 	c #484F4F",
"} 	c #494F4F",
"| 	c #67924F",
"1 	c #86CC4A",
"2 	c #7EBC33",
"3 	c #86CC49",
"4 	c #484F4E",
"5 	c #484E4E",
"6 	c #474F4E",
"7 	c #51624E",
"8 	c #50644F",
"9 	c #484E4F",
"0 	c #474D4E",
"a 	c #474E4E",
"b 	c #76AF50",
"c 	c #75AC4F",
"d 	c #484D4E",
"e 	c #474D4D",
"f 	c #474E4D",
"g 	c #86CA4F",
"h 	c #464D4D",
"i 	c #86CA4D",
"j 	c #464D4C",
"k 	c #474D4C",
"l 	c #464C4C",
"m 	c #87CB4E",
"n 	c #86CA4E",
"o 	c #464C4B",
"p 	c #454C4C",
"q 	c #84C84F",
"r 	c #454C4B",
"s 	c #454B4B",
"t 	c #74AD4E",
"u 	c #74AC4E",
"v 	c #444B4B",
"w 	c #444A4A",
"x 	c #444B4A",
"y 	c #444A4B",
"z 	c #4C614B",
"A 	c #86CD4E",
"B 	c #86CB4E",
"C 	c #4D604C",
"D 	c #444A49",
"E 	c #638E4B",
"F 	c #658F4B",
"G 	c #434A49",
"H 	c #648F4C",
"I 	c #86CD4D",
"J 	c #82C53B",
"K 	c #88CD4E",
"L 	c #648F4B",
"M 	c #434949",
"N 	c #434948",
"O 	c #4D5E4A",
"P 	c #74AC4D",
"Q 	c #85C94E",
"R 	c #85CA4D",
"S 	c #84C84E",
"T 	c #75AC4D",
"U 	c #4B604A",
"V 	c #424949",
"W 	c #424848",
"X 	c #424747",
"Y 	c #414847",
"Z 	c #414748",
"` 	c #424748",
" .	c #414747",
". . . . . . . . . . . . . . . . . . . . . . . . ",
"+ + + + + + + + + + + + + + + + + + + + + + + + ",
"+ + + + + + + + + + + + + + + + + + + + + + + + ",
"+ + + + + + + + + + + + + + + + + + + + + + + + ",
"@ + @ @ + @ @ + @ + @ + @ + @ + @ + @ + @ + + + ",
"# $ % # $ # $ % # $ # $ % # # $ % # $ $ % # @ $ ",
"& & * & & & * & * & & * & & * & & * & & * & * $ ",
"= * - = * * - * ; > , ' ' , ) ! * - * * - * - & ",
"~ { { ~ { { { ] ^ / ( _ _ ( / : < { - { { - ~ ~ ",
"[ [ } [ [ [ | 1 2 _ _ _ _ _ _ ( 3 < } [ } } } [ ",
"4 5 6 4 5 7 ^ 2 _ _ _ _ _ _ _ _ ( : 8 5 6 [ 9 9 ",
"0 a a 0 a b / _ _ _ _ _ _ _ _ _ _ / c a a a d 5 ",
"e e f e e g ( _ _ _ _ _ _ _ _ _ _ ( , e f f e e ",
"h h e h h i _ _ _ _ _ _ _ _ _ _ _ _ ' h e h j k ",
"l l j l l m _ _ _ _ _ _ _ _ _ _ _ _ n l j l j l ",
"o p p o p g ( _ _ _ _ _ _ _ _ _ _ ( q p p l r s ",
"s s s s s t / _ _ _ _ _ _ _ _ _ _ / u s s s s v ",
"w x y w x z A ( _ _ _ _ _ _ _ _ ( B C x y v s w ",
"w w D w w w E 3 ( _ _ _ _ _ _ ( 3 F w w D w w w ",
"G G D G G G D H I / ( _ _ ( J K L D M G D M M w ",
"M N M M N N M M O P Q R R S T U N M M N M M V M ",
"V W W V W W W W W W W W W W W W W W W W W W W W ",
"X Y Z X Y Y Z ` Z ` Y Z ` Y Z ` Y Z ` Y Z ` W W ",
" . . . . . . .Z  .Z  . .Z  . .Z  . .Z  . .Z X  ."};
