/* XPM */
static char * close_prelight_xpm[] = {
"24 24 101 2",
"  	c None",
". 	c #313133",
"+ 	c #4B5252",
"@ 	c #4B5151",
"# 	c #4A5152",
"$ 	c #4A5151",
"% 	c #4B5152",
"& 	c #4A5051",
"* 	c #495150",
"= 	c #4A5050",
"- 	c #495050",
"; 	c #526350",
"> 	c #76AE50",
", 	c #85C84F",
"' 	c #87CA4E",
") 	c #75AD50",
"! 	c #506550",
"~ 	c #494F50",
"{ 	c #49504F",
"] 	c #679250",
"^ 	c #87CD4D",
"/ 	c #82C43A",
"( 	c #7DBD33",
"_ 	c #7DBC32",
": 	c #87CD4E",
"< 	c #669150",
"[ 	c #484F4F",
"} 	c #494F4F",
"| 	c #67924F",
"1 	c #86CC4A",
"2 	c #7EBC33",
"3 	c #86CC49",
"4 	c #484F4E",
"5 	c #484E4E",
"6 	c #474F4E",
"7 	c #51624E",
"8 	c #8BC349",
"9 	c #A8D276",
"0 	c #50644F",
"a 	c #484E4F",
"b 	c #474D4E",
"c 	c #474E4E",
"d 	c #76AF50",
"e 	c #FFFFFF",
"f 	c #BBDC94",
"g 	c #75AC4F",
"h 	c #484D4E",
"i 	c #474D4D",
"j 	c #474E4D",
"k 	c #86CA4F",
"l 	c #464D4D",
"m 	c #86CA4D",
"n 	c #B8DA8F",
"o 	c #BCDD96",
"p 	c #464D4C",
"q 	c #474D4C",
"r 	c #464C4C",
"s 	c #87CB4E",
"t 	c #B9DB90",
"u 	c #BDDD96",
"v 	c #86CA4E",
"w 	c #464C4B",
"x 	c #454C4C",
"y 	c #84C84F",
"z 	c #454C4B",
"A 	c #454B4B",
"B 	c #74AD4E",
"C 	c #74AC4E",
"D 	c #444B4B",
"E 	c #444A4A",
"F 	c #444B4A",
"G 	c #444A4B",
"H 	c #4C614B",
"I 	c #86CD4E",
"J 	c #86CB4E",
"K 	c #4D604C",
"L 	c #444A49",
"M 	c #638E4B",
"N 	c #658F4B",
"O 	c #434A49",
"P 	c #648F4C",
"Q 	c #86CD4D",
"R 	c #82C53B",
"S 	c #88CD4E",
"T 	c #648F4B",
"U 	c #434949",
"V 	c #434948",
"W 	c #4D5E4A",
"X 	c #74AC4D",
"Y 	c #85C94E",
"Z 	c #85CA4D",
"` 	c #84C84E",
" .	c #75AC4D",
"..	c #4B604A",
"+.	c #424949",
"@.	c #424848",
"#.	c #424747",
"$.	c #414847",
"%.	c #414748",
"&.	c #424748",
"*.	c #414747",
". . . . . . . . . . . . . . . . . . . . . . . . ",
"+ + + + + + + + + + + + + + + + + + + + + + + + ",
"+ + + + + + + + + + + + + + + + + + + + + + + + ",
"+ + + + + + + + + + + + + + + + + + + + + + + + ",
"@ + @ @ + @ @ + @ + @ + @ + @ + @ + @ + @ + + + ",
"# $ % # $ # $ % # $ # $ % # # $ % # $ $ % # @ $ ",
"& & * & & & * & * & & * & & * & & * & & * & * $ ",
"= * - = * * - * ; > , ' ' , ) ! * - * * - * - & ",
"~ { { ~ { { { ] ^ / ( _ _ ( / : < { - { { - ~ ~ ",
"[ [ } [ [ [ | 1 2 _ _ _ _ _ _ ( 3 < } [ } } } [ ",
"4 5 6 4 5 7 ^ 2 8 9 _ _ _ _ 9 8 ( : 0 5 6 [ a a ",
"b c c b c d / _ 9 e f _ _ f e 9 _ / g c c c h 5 ",
"i i j i i k ( _ _ f e f f e f _ _ ( , i j j i i ",
"l l i l l m _ _ _ _ n e e o _ _ _ _ ' l i l p q ",
"r r p r r s _ _ _ _ t e e u _ _ _ _ v r p r p r ",
"w x x w x k ( _ _ t e o n e u _ _ ( y x x r z A ",
"A A A A A B / _ 9 e f _ _ f e 9 _ / C A A A A D ",
"E F G E F H I ( 8 9 _ _ _ _ 9 8 ( J K F G D A E ",
"E E L E E E M 3 ( _ _ _ _ _ _ ( 3 N E E L E E E ",
"O O L O O O L P Q / ( _ _ ( R S T L U O L U U E ",
"U V U U V V U U W X Y Z Z `  ...V U U V U U +.U ",
"+.@.@.+.@.@.@.@.@.@.@.@.@.@.@.@.@.@.@.@.@.@.@.@.",
"#.$.%.#.$.$.%.&.%.&.$.%.&.$.%.&.$.%.&.$.%.&.@.@.",
"*.*.*.*.*.*.*.%.*.%.*.*.%.*.*.%.*.*.%.*.*.%.#.*."};
