/* XPM */
static char * close_prelight_xpm[] = {
"24 24 95 2",
"  	c None",
". 	c #313133",
"+ 	c #4B5252",
"@ 	c #4B5151",
"# 	c #4A5152",
"$ 	c #4A5151",
"% 	c #4B5152",
"& 	c #4A5051",
"* 	c #495150",
"= 	c #4A5050",
"- 	c #495050",
"; 	c #546654",
"> 	c #7FB26C",
", 	c #91CF74",
"' 	c #92D174",
") 	c #7EB16B",
"! 	c #526555",
"~ 	c #494F50",
"{ 	c #49504F",
"] 	c #6C9661",
"^ 	c #92D274",
"/ 	c #90CD6A",
"( 	c #8CC763",
"_ 	c #94D275",
": 	c #6C9662",
"< 	c #484F4F",
"[ 	c #494F4F",
"} 	c #93D274",
"| 	c #8DC764",
"1 	c #93D273",
"2 	c #484F4E",
"3 	c #484E4E",
"4 	c #474F4E",
"5 	c #536452",
"6 	c #99CD74",
"7 	c #B2D996",
"8 	c #B2DA97",
"9 	c #526454",
"0 	c #484E4F",
"a 	c #474D4E",
"b 	c #474E4E",
"c 	c #80B36B",
"d 	c #8FCD6B",
"e 	c #FFFFFF",
"f 	c #C3E2AE",
"g 	c #7DB06B",
"h 	c #484D4E",
"i 	c #474D4D",
"j 	c #474E4D",
"k 	c #91CF75",
"l 	c #90CE73",
"m 	c #464D4D",
"n 	c #C0E0AA",
"o 	c #C4E2AF",
"p 	c #464D4C",
"q 	c #474D4C",
"r 	c #464C4C",
"s 	c #C1E1AB",
"t 	c #464C4B",
"u 	c #454C4C",
"v 	c #90CF74",
"w 	c #8FD074",
"x 	c #454C4B",
"y 	c #454B4B",
"z 	c #7DB069",
"A 	c #90CD6B",
"B 	c #7DB068",
"C 	c #444B4B",
"D 	c #444A4A",
"E 	c #444B4A",
"F 	c #444A4B",
"G 	c #4F614F",
"H 	c #93D275",
"I 	c #4D604F",
"J 	c #444A49",
"K 	c #69935E",
"L 	c #93D272",
"M 	c #6A925E",
"N 	c #434A49",
"O 	c #6A945F",
"P 	c #90CE6A",
"Q 	c #434949",
"R 	c #434948",
"S 	c #4F614D",
"T 	c #7CB069",
"U 	c #8FCF74",
"V 	c #92D173",
"W 	c #4E604E",
"X 	c #424949",
"Y 	c #424848",
"Z 	c #424747",
"` 	c #414847",
" .	c #414748",
"..	c #424748",
"+.	c #414747",
". . . . . . . . . . . . . . . . . . . . . . . . ",
"+ + + + + + + + + + + + + + + + + + + + + + + + ",
"+ + + + + + + + + + + + + + + + + + + + + + + + ",
"+ + + + + + + + + + + + + + + + + + + + + + + + ",
"@ + @ @ + @ @ + @ + @ + @ + @ + @ + @ + @ + + + ",
"# $ % # $ # $ % # $ # $ % # # $ % # $ $ % # @ $ ",
"& & * & & & * & & * & & * & * & & * & & * & * $ ",
"= * - = * * - * ; > , ' ' , ) ! * - * * - * - & ",
"~ { { ~ { { { ] ^ / ( ( ( ( / _ : { - { { - ~ ~ ",
"< < [ < < < ] } ( ( ( ( ( ( ( | 1 : [ < [ [ [ < ",
"2 3 4 2 3 5 ^ ( 6 7 ( ( ( ( 8 6 | _ 9 3 4 < 0 0 ",
"a b b a b c d ( 8 e f ( ( f e 8 ( / g b b b h 3 ",
"i i j i i k ( ( ( f e f f e f ( ( ( l i j j i i ",
"m m i m m ' ( ( ( ( n e e o ( ( ( ( ' m i m p q ",
"r r p r r ^ ( ( ( ( s e e o ( ( ( ( ' r p r p r ",
"t u u t u v ( ( ( s e o n e o ( ( ( w u u r x y ",
"y y y y y z / ( 8 e f ( ( f e 8 ( A B y y y y C ",
"D E F D E G _ | 6 7 ( ( ( ( 7 6 | H I E F C y D ",
"D D J D D D K 1 | ( ( ( ( ( ( | L M D D J D D D ",
"N N J N N N J O H / ( ( ( ( P H M J Q N J Q Q D ",
"Q R Q Q R R Q Q S T U V V U B W R Q Q R Q Q X Q ",
"X Y Y X Y Y Y Y Y Y Y Y Y Y Y Y Y Y Y Y Y Y Y Y ",
"Z `  .Z ` `  ...`  ...`  ... ...`  ...`  ...Y Y ",
"+.+.+.+.+.+.+. .+. .+.+. .+.+. .+.+. .+.+. .Z +."};
