/* XPM */
static char * close_active_xpm[] = {
"24 24 95 2",
"  	c None",
". 	c #313133",
"+ 	c #4B5252",
"@ 	c #4B5151",
"# 	c #4A5152",
"$ 	c #4A5151",
"% 	c #4B5152",
"& 	c #4A5051",
"* 	c #495150",
"= 	c #4A5050",
"- 	c #495050",
"; 	c #505E52",
"> 	c #6D9A5D",
", 	c #79B062",
"' 	c #79B161",
") 	c #6C9A5D",
"! 	c #4E5F52",
"~ 	c #494F50",
"{ 	c #49504F",
"] 	c #618459",
"^ 	c #7AB362",
"/ 	c #70AB55",
"( 	c #6AA54E",
"_ 	c #6AA44E",
": 	c #70AB56",
"< 	c #7AB563",
"[ 	c #608258",
"} 	c #484F4F",
"| 	c #494F4F",
"1 	c #618458",
"2 	c #79B260",
"3 	c #6BA54E",
"4 	c #608257",
"5 	c #484F4E",
"6 	c #484E4E",
"7 	c #474F4E",
"8 	c #4F5C51",
"9 	c #4E5D51",
"0 	c #484E4F",
"a 	c #474D4E",
"b 	c #474E4E",
"c 	c #6C995C",
"d 	c #71AB55",
"e 	c #484D4E",
"f 	c #474D4D",
"g 	c #474E4D",
"h 	c #77B162",
"i 	c #78B162",
"j 	c #464D4D",
"k 	c #78B262",
"l 	c #79B160",
"m 	c #464D4C",
"n 	c #474D4C",
"o 	c #464C4C",
"p 	c #79B362",
"q 	c #464C4B",
"r 	c #454C4C",
"s 	c #78B062",
"t 	c #454C4B",
"u 	c #454B4B",
"v 	c #6B995B",
"w 	c #70AA56",
"x 	c #71AA55",
"y 	c #444B4B",
"z 	c #444A4A",
"A 	c #444B4A",
"B 	c #444A4B",
"C 	c #4A5B4C",
"D 	c #7AB462",
"E 	c #4B594D",
"F 	c #444A49",
"G 	c #5F7F54",
"H 	c #79B25E",
"I 	c #78B25F",
"J 	c #5D7F54",
"K 	c #434A49",
"L 	c #7AB562",
"M 	c #7AB561",
"N 	c #5D7F53",
"O 	c #434949",
"P 	c #434948",
"Q 	c #4A594C",
"R 	c #6B985B",
"S 	c #77B161",
"T 	c #78B160",
"U 	c #77B061",
"V 	c #6A9A59",
"W 	c #495A4B",
"X 	c #424949",
"Y 	c #424848",
"Z 	c #424747",
"` 	c #414847",
" .	c #414748",
"..	c #424748",
"+.	c #414747",
". . . . . . . . . . . . . . . . . . . . . . . . ",
"+ + + + + + + + + + + + + + + + + + + + + + + + ",
"+ + + + + + + + + + + + + + + + + + + + + + + + ",
"+ + + + + + + + + + + + + + + + + + + + + + + + ",
"@ + @ @ + @ @ + @ + @ + @ + @ + @ + @ + @ + + + ",
"# $ % # $ % # $ # $ # $ # $ # $ # $ # $ % # @ $ ",
"& & * & & * & & & & & & & & & & & & & & * & * $ ",
"= * - = * * - * ; > , ' ' , ) ! * - & * - * - & ",
"~ { { ~ { { { ] ^ / ( _ _ ( : < [ ~ ~ { { - ~ ~ ",
"} } | } } } 1 2 3 _ _ _ _ _ _ 3 2 4 } } | | | } ",
"5 6 7 5 6 8 ^ 3 _ _ _ _ _ _ _ _ 3 < 9 6 7 } 0 0 ",
"a b b a b c d _ _ _ _ _ _ _ _ _ _ : c b b b e 6 ",
"f f g f f h ( _ _ _ _ _ _ _ _ _ _ ( i f g g f f ",
"j j f j j k _ _ _ _ _ _ _ _ _ _ _ _ l j f j m n ",
"o o m o o p _ _ _ _ _ _ _ _ _ _ _ _ l o m o m o ",
"q r r q r h ( _ _ _ _ _ _ _ _ _ _ ( s r r o t u ",
"u u u u u v w _ _ _ _ _ _ _ _ _ _ x v u u u u y ",
"z A B z A C < 3 _ _ _ _ _ _ _ _ 3 D E A B y u z ",
"z z F z z z G H 3 _ _ _ _ _ _ 3 I J z z F z z z ",
"K K F K K K F J L w ( _ _ ( x M N O z K F O O z ",
"O P O O P P O O Q R S T T U V W O X O P O O X O ",
"X Y Y X Y Y Y Y Y Y Y Y Y Y Y Y Y Y Y Y Y Y Y Y ",
"Z `  .Z `  .Z ` Z ` Z ` Z ` Z ` Z ` Z `  ...Y Y ",
"+.+.+.+.+.+.+.+.+.+.+.+.+.+.+.+.+.+.+.+.+. .Z +."};
