/* XPM */
static char * close_prelight_xpm[] = {
"28 36 112 2",
"  	c #323A3F",
". 	c #414B51",
"+ 	c #414B50",
"@ 	c #414A50",
"# 	c #404A50",
"$ 	c #404950",
"% 	c #3F494F",
"& 	c #435051",
"* 	c #73A365",
"= 	c #8AC671",
"- 	c #94D377",
"; 	c #96D67A",
"> 	c #8BC671",
", 	c #72A265",
"' 	c #72A164",
") 	c #95D378",
"! 	c #8ECC72",
"~ 	c #7EBA62",
"{ 	c #72AD56",
"] 	c #6EA852",
"^ 	c #7EBB61",
"/ 	c #8ECE72",
"( 	c #94D478",
"_ 	c #72A064",
": 	c #434D4F",
"< 	c #84BD6E",
"[ 	c #94D376",
"} 	c #76B35B",
"| 	c #6AA44E",
"1 	c #77B35B",
"2 	c #93D377",
"3 	c #83BD6E",
"4 	c #3E494E",
"5 	c #8FCE73",
"6 	c #90CF73",
"7 	c #83BC6D",
"8 	c #3E484E",
"9 	c #6EA952",
"0 	c #94D477",
"a 	c #709E63",
"b 	c #3D484D",
"c 	c #43504D",
"d 	c #93D378",
"e 	c #77B25A",
"f 	c #CEE1C5",
"g 	c #E2EDDC",
"h 	c #76AB5C",
"i 	c #95D477",
"j 	c #41504F",
"k 	c #3D474D",
"l 	c #73A264",
"m 	c #DDEAD7",
"n 	c #FFFFFF",
"o 	c #E4EEDE",
"p 	c #E1ECDB",
"q 	c #3D474E",
"r 	c #8BC672",
"s 	c #7DBA61",
"t 	c #74AA5A",
"u 	c #E1EDDC",
"v 	c #E4EFDF",
"w 	c #7EBB62",
"x 	c #8BC770",
"y 	c #93D276",
"z 	c #72AE57",
"A 	c #92D178",
"B 	c #3C464D",
"C 	c #96D679",
"D 	c #6EA751",
"E 	c #97D67A",
"F 	c #3D474C",
"G 	c #97D679",
"H 	c #6DA851",
"I 	c #3C464C",
"J 	c #93D277",
"K 	c #3B464B",
"L 	c #7EBC61",
"M 	c #8AC571",
"N 	c #3C454B",
"O 	c #72A163",
"P 	c #DEEBD7",
"Q 	c #8FCE72",
"R 	c #71A163",
"S 	c #3B454B",
"T 	c #414D4B",
"U 	c #94D378",
"V 	c #78B45B",
"W 	c #3F4D4D",
"X 	c #719F62",
"Y 	c #6E9C62",
"Z 	c #83BD6D",
"` 	c #83BC6C",
" .	c #3A444A",
"..	c #3F484A",
"+.	c #82BC6D",
"@.	c #78B35B",
"#.	c #83BB6D",
"$.	c #3A454A",
"%.	c #6F9D61",
"&.	c #73AD56",
"*.	c #7DBB61",
"=.	c #6E9B62",
"-.	c #3E4C4C",
";.	c #72A063",
">.	c #8BC670",
",.	c #71A062",
"'.	c #404C4A",
").	c #394349",
"!.	c #394449",
"~.	c #384348",
"{.	c #394348",
"].	c #384248",
"                                                        ",
". . . . . . . . . . . . . . . . . . . . . . . . . . . . ",
". . . . . . . . . . . . . . . . . . . . . . . . . . . . ",
"+ + + + + + + + + + + + + + + + + + + + + + + + + + + + ",
"@ @ @ @ @ @ @ @ @ @ @ @ @ @ @ @ @ @ @ @ @ @ @ @ @ @ @ @ ",
"# # # # # # # # # # # # # # # # # # # # # # # # # # # # ",
"# # # # # # # # # # # # # # # # # # # # # # # # # # # # ",
"$ $ $ $ $ $ $ $ $ $ $ $ $ $ $ $ $ $ $ $ $ $ $ $ $ $ $ $ ",
"% % % % % % % % % & * = - ; ; - > , & % % % % % % % % % ",
"% % % % % % % % ' ) ! ~ { ] ] { ^ / ( _ % % % % % % % % ",
"% % % % % % : < [ } | | | | | | | | 1 2 3 : % % % % % % ",
"4 4 4 4 4 4 < 5 ] | | | | | | | | | | ] 6 7 4 4 4 4 4 4 ",
"8 8 8 8 8 ' [ ] | | | | | | | | | | | | 9 0 a 8 8 8 8 8 ",
"b b b b c d e | | f g h | | | | h g f | | 1 i j b b b b ",
"k k k k l ! | | | m n o h | | h o n p | | | / _ k k k k ",
"q q q q r s | | | t u n v h t u n o h | | | w x q q q q ",
"k k k k y { | | | | h o n o o n o h | | | | z A k k k k ",
"B B B B C D | | | | | t u n n o h | | | | | ] E B B B B ",
"F F F F G H | | | | | t u n n v h | | | | | ] ; F F F F ",
"I I I I y { | | | | h o n o o n o h | | | | z J I I I I ",
"K K K K = ^ | | | t u n o h t u n v h | | | L M K K K K ",
"N N N N O / | | | P n o h | | h o n p | | | Q R N N N N ",
"S S S S T U 1 | | f p h | | | | h p f | | V U W S S S S ",
"S S S S S X 2 9 | | | | | | | | | | | | 9 - Y S S S S S ",
"S S S S S S Z 6 9 | | | | | | | | | | 9 6 ` S S S S S S ",
" . . . . . ...+.0 1 | | | | | | | | @.- #... . . . . . .",
"$.$.$.$.$.$.$.$.%.d / w &.] ] z *.Q U =.$.$.$.$.$.$.$.$.",
" . . . . . . . . .-.;.x J ; ; J >.,.'. . . . . . . . . .",
").).).).).).).).).).).).).).).).).).).).).).).).).).).).",
"!.!.!.!.!.!.!.!.!.!.!.!.!.!.!.!.!.!.!.!.!.!.!.!.!.!.!.!.",
").).).).).).).).).).).).).).).).).).).).).).).).).).).).",
").).).).).).).).).).).).).).).).).).).).).).).).).).).).",
"~.~.~.~.~.~.~.~.~.~.~.~.~.~.~.~.~.~.~.~.~.~.~.~.~.~.~.~.",
"{.{.{.{.{.{.{.{.{.{.{.{.{.{.{.{.{.{.{.{.{.{.{.{.{.{.{.{.",
"].].].].].].].].].].].].].].].].].].].].].].].].].].].].",
"].].].].].].].].].].].].].].].].].].].].].].].].].].].]."};
