/* XPM */
static char * hide_active_xpm[] = {
"24 24 93 2",
"  	c None",
". 	c #313133",
"+ 	c #4B5252",
"@ 	c #4B5151",
"# 	c #4A5152",
"$ 	c #4A5151",
"% 	c #4B5152",
"& 	c #4A5051",
"* 	c #495150",
"= 	c #4A5050",
"- 	c #495050",
"; 	c #4B5B4D",
"> 	c #568936",
", 	c #5B9A22",
"' 	c #5B9B1F",
") 	c #494F50",
"! 	c #49504F",
"~ 	c #517742",
"{ 	c #5A9C1C",
"] 	c #508E0F",
"^ 	c #4A860D",
"/ 	c #508F0F",
"( 	c #5B9D1D",
"_ 	c #527542",
": 	c #484F4F",
"< 	c #494F4F",
"[ 	c #517741",
"} 	c #599A19",
"| 	c #4B860D",
"1 	c #4A870D",
"2 	c #599B19",
"3 	c #484F4E",
"4 	c #484E4E",
"5 	c #474F4E",
"6 	c #4A5A4B",
"7 	c #5B9D1C",
"8 	c #4A594C",
"9 	c #484E4F",
"0 	c #474D4E",
"a 	c #474E4E",
"b 	c #558935",
"c 	c #558735",
"d 	c #484D4E",
"e 	c #474D4D",
"f 	c #474E4D",
"g 	c #5A9A21",
"h 	c #5A9B21",
"i 	c #464D4D",
"j 	c #5A9C1D",
"k 	c #5A9A1E",
"l 	c #464D4C",
"m 	c #474D4C",
"n 	c #464C4C",
"o 	c #5A9A1D",
"p 	c #464C4B",
"q 	c #454C4C",
"r 	c #454C4B",
"s 	c #454B4B",
"t 	c #558833",
"u 	c #508F0E",
"v 	c #518F0E",
"w 	c #548834",
"x 	c #444B4B",
"y 	c #444A4A",
"z 	c #444B4A",
"A 	c #444A4B",
"B 	c #475648",
"C 	c #5B9D1B",
"D 	c #5B9C1B",
"E 	c #465549",
"F 	c #444A49",
"G 	c #4E723D",
"H 	c #589918",
"I 	c #599918",
"J 	c #4E743D",
"K 	c #434A49",
"L 	c #5B9D1A",
"M 	c #4D743D",
"N 	c #434949",
"O 	c #434948",
"P 	c #455646",
"Q 	c #548732",
"R 	c #599A1F",
"S 	c #5A9A1C",
"T 	c #558732",
"U 	c #465547",
"V 	c #424949",
"W 	c #424848",
"X 	c #424747",
"Y 	c #414847",
"Z 	c #414748",
"` 	c #424748",
" .	c #414747",
". . . . . . . . . . . . . . . . . . . . . . . . ",
"+ + + + + + + + + + + + + + + + + + + + + + + + ",
"+ + + + + + + + + + + + + + + + + + + + + + + + ",
"+ + + + + + + + + + + + + + + + + + + + + + + + ",
"@ + @ @ + @ @ + @ + @ + @ + @ + @ + @ + @ + + + ",
"# $ % # $ # $ % # $ # $ % # # $ % # $ $ % # @ $ ",
"& & * & & & * & * & & * & & * & & * & & * & * $ ",
"= * - = * * - * ; > , ' ' , > ; * - * * - * - & ",
") ! ! ) ! ! ! ~ { ] ^ ^ ^ ^ / ( _ ! - ! ! - ) ) ",
": : < : : : [ } | ^ ^ ^ ^ ^ ^ 1 2 _ < : < < < : ",
"3 4 5 3 4 6 { | ^ ^ ^ ^ ^ ^ ^ ^ 1 7 8 4 5 : 9 9 ",
"0 a a 0 a b / ^ ^ ^ ^ ^ ^ ^ ^ ^ ^ / c a a a d 4 ",
"e e f e e g ^ ^ ^ ^ ^ ^ ^ ^ ^ ^ ^ ^ h e f f e e ",
"i i e i i j ^ ^ ^ ^ ^ ^ ^ ^ ^ ^ ^ ^ k i e i l m ",
"n n l n n o ^ ^ ^ ^ ^ ^ ^ ^ ^ ^ ^ ^ o n l n l n ",
"p q q p q g ^ ^ ^ ^ ^ ^ ^ ^ ^ ^ ^ ^ h q q n r s ",
"s s s s s t u ^ ^ ^ ^ ^ ^ ^ ^ ^ ^ v w s s s s x ",
"y z A y z B C 1 ^ ^ ^ ^ ^ ^ ^ ^ 1 D E z A x s y ",
"y y F y y y G H 1 ^ ^ ^ ^ ^ ^ 1 I J y y F y y y ",
"K K F K K K F G L u ^ ^ ^ ^ u C M F N K F N N y ",
"N O N N O O N N P Q R S S R T U O N N O N N V N ",
"V W W V W W W W W W W W W W W W W W W W W W W W ",
"X Y Z X Y Y Z ` Z ` Y Z ` Y Z ` Y Z ` Y Z ` W W ",
" . . . . . . .Z  .Z  . .Z  . .Z  . .Z  . .Z X  ."};
