/* XPM */
static char * hide_prelight_xpm[] = {
"24 24 99 2",
"  	c None",
". 	c #313133",
"+ 	c #4B5252",
"@ 	c #4B5151",
"# 	c #4A5152",
"$ 	c #4A5151",
"% 	c #4B5152",
"& 	c #4A5051",
"* 	c #495150",
"= 	c #4A5050",
"- 	c #495050",
"; 	c #4B5B4D",
"> 	c #568936",
", 	c #5B9A22",
"' 	c #5B9B1F",
") 	c #494F50",
"! 	c #49504F",
"~ 	c #517742",
"{ 	c #5A9C1C",
"] 	c #508E0F",
"^ 	c #4A860D",
"/ 	c #508F0F",
"( 	c #5B9D1D",
"_ 	c #527542",
": 	c #484F4F",
"< 	c #494F4F",
"[ 	c #517741",
"} 	c #599A19",
"| 	c #4B860D",
"1 	c #4A870D",
"2 	c #599B19",
"3 	c #484F4E",
"4 	c #484E4E",
"5 	c #474F4E",
"6 	c #4A5A4B",
"7 	c #5B9D1C",
"8 	c #4A594C",
"9 	c #484E4F",
"0 	c #474D4E",
"a 	c #474E4E",
"b 	c #558935",
"c 	c #558735",
"d 	c #484D4E",
"e 	c #474D4D",
"f 	c #474E4D",
"g 	c #5A9A21",
"h 	c #5A9B21",
"i 	c #464D4D",
"j 	c #5A9C1D",
"k 	c #89B061",
"l 	c #C9DBB7",
"m 	c #5A9A1E",
"n 	c #464D4C",
"o 	c #474D4C",
"p 	c #464C4C",
"q 	c #5A9A1D",
"r 	c #A5C386",
"s 	c #FFFFFF",
"t 	c #464C4B",
"u 	c #454C4C",
"v 	c #6E9E3D",
"w 	c #92B66E",
"x 	c #454C4B",
"y 	c #454B4B",
"z 	c #558833",
"A 	c #508F0E",
"B 	c #518F0E",
"C 	c #548834",
"D 	c #444B4B",
"E 	c #444A4A",
"F 	c #444B4A",
"G 	c #444A4B",
"H 	c #475648",
"I 	c #5B9D1B",
"J 	c #5B9C1B",
"K 	c #465549",
"L 	c #444A49",
"M 	c #4E723D",
"N 	c #589918",
"O 	c #599918",
"P 	c #4E743D",
"Q 	c #434A49",
"R 	c #5B9D1A",
"S 	c #4D743D",
"T 	c #434949",
"U 	c #434948",
"V 	c #455646",
"W 	c #548732",
"X 	c #599A1F",
"Y 	c #5A9A1C",
"Z 	c #558732",
"` 	c #465547",
" .	c #424949",
"..	c #424848",
"+.	c #424747",
"@.	c #414847",
"#.	c #414748",
"$.	c #424748",
"%.	c #414747",
". . . . . . . . . . . . . . . . . . . . . . . . ",
"+ + + + + + + + + + + + + + + + + + + + + + + + ",
"+ + + + + + + + + + + + + + + + + + + + + + + + ",
"+ + + + + + + + + + + + + + + + + + + + + + + + ",
"@ + @ @ + @ @ + @ + @ + @ + @ + @ + @ + @ + + + ",
"# $ % # $ # $ % # $ # $ % # # $ % # $ $ % # @ $ ",
"& & * & & & * & * & & * & & * & & * & & * & * $ ",
"= * - = * * - * ; > , ' ' , > ; * - * * - * - & ",
") ! ! ) ! ! ! ~ { ] ^ ^ ^ ^ / ( _ ! - ! ! - ) ) ",
": : < : : : [ } | ^ ^ ^ ^ ^ ^ 1 2 _ < : < < < : ",
"3 4 5 3 4 6 { | ^ ^ ^ ^ ^ ^ ^ ^ 1 7 8 4 5 : 9 9 ",
"0 a a 0 a b / ^ ^ ^ ^ ^ ^ ^ ^ ^ ^ / c a a a d 4 ",
"e e f e e g ^ ^ ^ ^ ^ ^ ^ ^ ^ ^ ^ ^ h e f f e e ",
"i i e i i j ^ ^ k l l l l l l k ^ ^ m i e i n o ",
"p p n p p q ^ ^ r s s s s s s r ^ ^ q p n p n p ",
"t u u t u g ^ ^ v w w w w w w v ^ ^ h u u p x y ",
"y y y y y z A ^ ^ ^ ^ ^ ^ ^ ^ ^ ^ B C y y y y D ",
"E F G E F H I 1 ^ ^ ^ ^ ^ ^ ^ ^ 1 J K F G D y E ",
"E E L E E E M N 1 ^ ^ ^ ^ ^ ^ 1 O P E E L E E E ",
"Q Q L Q Q Q L M R A ^ ^ ^ ^ A I S L T Q L T T E ",
"T U T T U U T T V W X Y Y X Z ` U T T U T T  .T ",
" ..... .........................................",
"+.@.#.+.@.@.#.$.#.$.@.#.$.@.#.$.@.#.$.@.#.$.....",
"%.%.%.%.%.%.%.#.%.#.%.%.#.%.%.#.%.%.#.%.%.#.+.%."};
