/* XPM */
static char * hide_prelight_xpm[] = {
"24 24 98 2",
"  	c None",
". 	c #313133",
"+ 	c #4B5252",
"@ 	c #4B5151",
"# 	c #4A5152",
"$ 	c #4A5151",
"% 	c #4B5152",
"& 	c #4A5051",
"* 	c #495150",
"= 	c #4A5050",
"- 	c #495050",
"; 	c #4C5A4F",
"> 	c #5D8547",
", 	c #649844",
"' 	c #659843",
") 	c #5D8648",
"! 	c #4B5B4F",
"~ 	c #494F50",
"{ 	c #49504F",
"] 	c #56724B",
"^ 	c #659944",
"/ 	c #649748",
"( 	c #61934A",
"_ 	c #61934B",
": 	c #649749",
"< 	c #659B43",
"[ 	c #55744A",
"} 	c #484F4F",
"| 	c #494F4F",
"1 	c #56724A",
"2 	c #659A44",
"3 	c #61944A",
"4 	c #55734A",
"5 	c #484F4E",
"6 	c #484E4E",
"7 	c #474F4E",
"8 	c #4B584D",
"9 	c #659943",
"0 	c #4A594E",
"a 	c #484E4F",
"b 	c #474D4E",
"c 	c #474E4E",
"d 	c #5D8546",
"e 	c #639648",
"f 	c #5C8547",
"g 	c #484D4E",
"h 	c #474D4D",
"i 	c #474E4D",
"j 	c #649742",
"k 	c #639844",
"l 	c #464D4D",
"m 	c #98B98A",
"n 	c #D0DFC9",
"o 	c #649843",
"p 	c #464D4C",
"q 	c #474D4C",
"r 	c #464C4C",
"s 	c #649942",
"t 	c #B0C9A5",
"u 	c #FFFFFF",
"v 	c #649842",
"w 	c #464C4B",
"x 	c #454C4C",
"y 	c #81A96F",
"z 	c #A0BE93",
"A 	c #649643",
"B 	c #454C4B",
"C 	c #454B4B",
"D 	c #5B8545",
"E 	c #5C8246",
"F 	c #444B4B",
"G 	c #444A4A",
"H 	c #444B4A",
"I 	c #444A4B",
"J 	c #475649",
"K 	c #659A42",
"L 	c #649A42",
"M 	c #47554A",
"N 	c #444A49",
"O 	c #537046",
"P 	c #547147",
"Q 	c #434A49",
"R 	c #527146",
"S 	c #537147",
"T 	c #434949",
"U 	c #434948",
"V 	c #475448",
"W 	c #5B8444",
"X 	c #649642",
"Y 	c #5A8345",
"Z 	c #465548",
"` 	c #424949",
" .	c #424848",
"..	c #424747",
"+.	c #414847",
"@.	c #414748",
"#.	c #424748",
"$.	c #414747",
". . . . . . . . . . . . . . . . . . . . . . . . ",
"+ + + + + + + + + + + + + + + + + + + + + + + + ",
"+ + + + + + + + + + + + + + + + + + + + + + + + ",
"+ + + + + + + + + + + + + + + + + + + + + + + + ",
"@ + @ @ + @ @ + @ + @ + @ + @ + @ + @ + @ + + + ",
"# $ % # $ # $ % # $ # $ % # # $ % # $ $ % # @ $ ",
"& & * & & & * & & * & & * & * & & * & & * & * $ ",
"= * - = * * - * ; > , ' ' , ) ! * - * * - * - & ",
"~ { { ~ { { { ] ^ / ( _ _ ( : < [ { - { { - ~ ~ ",
"} } | } } } 1 2 _ _ _ _ _ _ _ 3 2 4 | } | | | } ",
"5 6 7 5 6 8 9 _ _ _ _ _ _ _ _ _ 3 < 0 6 7 } a a ",
"b c c b c d e _ _ _ _ _ _ _ _ _ _ : f c c c g 6 ",
"h h i h h j ( _ _ _ _ _ _ _ _ _ _ ( k h i i h h ",
"l l h l l ' _ _ m n n n n n n m _ _ o l h l p q ",
"r r p r r s _ _ t u u u u u u t _ _ v r p r p r ",
"w x x w x j ( _ y z z z z z z y _ ( A x x r B C ",
"C C C C C D : _ _ _ _ _ _ _ _ _ _ e E C C C C F ",
"G H I G H J K 3 _ _ _ _ _ _ _ _ 3 L M H I F C G ",
"G G N G G G O ^ 3 _ _ _ _ _ _ 3 ^ P G G N G G G ",
"Q Q N Q Q Q N R K : ( _ _ ( / K S N T Q N T T G ",
"T U T T U U T T V W j j j X Y Z U T T U T T ` T ",
"`  . .`  . . . . . . . . . . . . . . . . . . . .",
"..+.@...+.+.@.#.+.@.#.+.@.#.@.#.+.@.#.+.@.#. . .",
"$.$.$.$.$.$.$.@.$.@.$.$.@.$.$.@.$.$.@.$.$.@...$."};
