/* XPM */
static char * maximize_prelight_xpm[] = {
"28 36 163 2",
"  	c #323A3F",
". 	c #3F4C53",
"+ 	c #3F4C52",
"@ 	c #3E4C53",
"# 	c #3F4B53",
"$ 	c #3E4C52",
"% 	c #3E4B52",
"& 	c #3F4B52",
"* 	c #3E4B53",
"= 	c #3E4A52",
"- 	c #3D4A52",
"; 	c #3D4B51",
"> 	c #3D4B52",
", 	c #3E4B51",
"' 	c #3E4A51",
") 	c #3F4A50",
"! 	c #404950",
"~ 	c #3F4951",
"{ 	c #3D4A51",
"] 	c #3E4950",
"^ 	c #414A50",
"/ 	c #58646F",
"( 	c #6C7887",
"_ 	c #758493",
": 	c #7A8997",
"< 	c #6B7986",
"[ 	c #59636E",
"} 	c #57646C",
"| 	c #768693",
"1 	c #748391",
"2 	c #697787",
"3 	c #606F7E",
"4 	c #5D6C7B",
"5 	c #687888",
"6 	c #748491",
"7 	c #758593",
"8 	c #58626D",
"9 	c #3D4A50",
"0 	c #3C4A51",
"a 	c #3D4951",
"b 	c #3F4B51",
"c 	c #65727E",
"d 	c #778796",
"e 	c #647382",
"f 	c #5A6978",
"g 	c #637282",
"h 	c #788796",
"i 	c #65717E",
"j 	c #3C4951",
"k 	c #3C4950",
"l 	c #3E494F",
"m 	c #64727E",
"n 	c #758392",
"o 	c #758492",
"p 	c #64727C",
"q 	c #3C4A50",
"r 	c #3D4950",
"s 	c #3D484F",
"t 	c #56636C",
"u 	c #788797",
"v 	c #56626B",
"w 	c #3B4950",
"x 	c #3C494F",
"y 	c #3D4A4F",
"z 	c #768493",
"A 	c #637281",
"B 	c #A7AFB7",
"C 	c #FFFFFF",
"D 	c #778693",
"E 	c #3F494E",
"F 	c #3C4850",
"G 	c #3C484F",
"H 	c #57636E",
"I 	c #748392",
"J 	c #3B494F",
"K 	c #3B4850",
"L 	c #3B484F",
"M 	c #3D474E",
"N 	c #697888",
"O 	c #6B7885",
"P 	c #3C474E",
"Q 	c #3D474D",
"R 	c #758393",
"S 	c #B2B9C0",
"T 	c #60707F",
"U 	c #3A484F",
"V 	c #3C464D",
"W 	c #7A8898",
"X 	c #3B474F",
"Y 	c #3A484E",
"Z 	c #3D474C",
"` 	c #7A8998",
" .	c #5C6B7B",
"..	c #7A8996",
"+.	c #3A474E",
"@.	c #3A474F",
"#.	c #3B474E",
"$.	c #3C464C",
"%.	c #ADB4BC",
"&.	c #3A474D",
"*.	c #3B464C",
"=.	c #697885",
"-.	c #697788",
";.	c #6B7784",
">.	c #39464E",
",.	c #3B464D",
"'.	c #57626C",
").	c #748492",
"!.	c #57616C",
"~.	c #39474E",
"{.	c #39464D",
"].	c #3A464D",
"^.	c #39474D",
"/.	c #3B474D",
"(.	c #657383",
"_.	c #768593",
":.	c #3D464C",
"<.	c #3A454C",
"[.	c #56606B",
"}.	c #54616A",
"|.	c #39454D",
"1.	c #64707D",
"2.	c #64707B",
"3.	c #38464D",
"4.	c #39454C",
"5.	c #38464C",
"6.	c #3A464C",
"7.	c #63707B",
"8.	c #63717B",
"9.	c #39464C",
"0.	c #38454C",
"a.	c #38454D",
"b.	c #39454B",
"c.	c #556069",
"d.	c #768492",
"e.	c #616F7E",
"f.	c #687887",
"g.	c #758491",
"h.	c #546068",
"i.	c #3A454B",
"j.	c #39444B",
"k.	c #3C454B",
"l.	c #55626B",
"m.	c #687785",
"n.	c #56616B",
"o.	c #37454C",
"p.	c #37444B",
"q.	c #37454B",
"r.	c #38444A",
"s.	c #39434A",
"t.	c #394349",
"u.	c #39444A",
"v.	c #38454B",
"w.	c #38444C",
"x.	c #37444C",
"y.	c #38444B",
"z.	c #37444A",
"A.	c #37434B",
"B.	c #37434A",
"C.	c #36444B",
"D.	c #36444A",
"E.	c #36434B",
"F.	c #36434A",
"                                                        ",
". . . . . . . . . . . . . . . . . . . . . . . . . . . . ",
". . . + . . . + . . . . . @ . # $ # . . + . . + . + . + ",
"# @ . . # @ . . % + & . @ & & & % $ . + # & & @ # & . . ",
"% + @ % % + @ % $ & % + & @ $ # % # . & % & @ & $ % $ + ",
"% % % % % % % % % % % % % % * % % % % % % % % % % % % % ",
"% % = = % % = = % = % - % % ; ; % = > % > = , % % % % , ",
", = ; > , = ; > ; - ' ) ! ! ! ! ~ ' - { ; - { { - % ; { ",
"- ' { { - ' { { ] ^ / ( _ : : _ < [ ^ ] - { ' { - { ; { ",
"{ { { { { { { ] } | 1 2 3 4 4 3 5 6 7 8 ] { { { { { { 9 ",
"0 a 9 9 0 a b c d e f f f f f f f f g h i , a { j { j j ",
"k { k k k l m n 4 f f f f f f f f f f 4 o p l q j r r j ",
"k j k k s t d 4 f f f f f f f f f f f f 4 u v s k r k k ",
"w x x x y z A f f f f f B C C C C C C f f e D E F F k F ",
"x G F G H 1 f f f f f f f B C C C C C f f f I t G J G K ",
"G x L M < 5 f f f f f f f f B C C C C f f f N O P L L L ",
"L L L Q R 3 f f f S f f f f f B C C C f f f T o Q L L L ",
"L U U V W 4 f f f C S f f f f f B C C f f f 4 : V L L L ",
"X X Y Z `  .f f f C C S f f f f f B C f f f 4 ..Z +.@.Y ",
"Y #.+.$.n 3 f f f C C C %.f f f f f %.f f f T 1 $.+.Y #.",
"+.+.&.*.=.5 f f f C C C C S f f f f f f f f -.;.*.+.+.+.",
"&.+.>.,.'.6 f f f C C C C C S f f f f f f f ).!.*.+.~.{.",
"].^.&.^./.o g f f C C C C C C S f f f f f (._.:.>.>.>.>.",
"{.{.{.{.<.[.h 4 f f f f f f f f f f f f 4 h }.<.{.{.{.{.",
"{.|.|.{.{.<.1.o 4 f f f f f f f f f f 4 o 2.<.|.{.3.4.{.",
"3.3.|.5.3.5.6.7.u e f f f f f f f f e h 8.6.9.3.0.0.3.a.",
"a.9.a.0.a.9.0.b.c.d.I N e.4 4 T f.).g.h.i.5.0.0.5.4.a.0.",
"0.0.0.0.0.0.0.0.j.k.l.m._ ...._ m.n.6.j.0.0.0.0.0.0.0.0.",
"o.0.p.q.o.0.p.q.o.0.r.s.t.t.t.t.u.r.0.0.v.0.w.v.0.0.0.o.",
"x.q.o.0.x.q.o.0.o.0.v.y.0.w.q.0.o.y.q.0.x.p.0.q.p.y.p.x.",
"q.p.x.p.q.p.x.p.x.p.y.p.p.p.p.p.x.p.p.x.y.q.q.p.y.p.p.p.",
"p.p.p.p.p.p.p.p.p.p.p.p.z.p.p.A.p.z.p.p.A.B.p.z.p.p.p.A.",
"B.B.C.z.B.B.C.z.z.D.z.E.D.p.B.A.A.p.p.D.A.F.z.C.F.C.p.B.",
"C.F.B.D.C.F.B.D.A.A.B.E.F.C.E.B.z.E.E.F.F.C.D.F.B.p.F.F.",
"F.F.F.F.F.F.F.F.D.F.D.F.F.F.F.F.F.C.F.F.F.F.F.F.D.F.E.F.",
"F.F.F.F.F.F.F.F.F.F.F.F.F.F.F.F.F.F.F.F.F.F.F.F.F.F.F.F."};
