/* XPM */
static char * maximize_prelight_xpm[] = {
"24 24 110 2",
"  	c None",
". 	c #313133",
"+ 	c #4B5252",
"@ 	c #4B5151",
"# 	c #4A5152",
"$ 	c #4A5151",
"% 	c #4B5152",
"& 	c #4A5051",
"* 	c #495150",
"= 	c #4A5050",
"- 	c #495050",
"; 	c #4B5B4D",
"> 	c #568936",
", 	c #5B9A22",
"' 	c #5B9B1F",
") 	c #494F50",
"! 	c #49504F",
"~ 	c #517742",
"{ 	c #5A9C1C",
"] 	c #508E0F",
"^ 	c #4A860D",
"/ 	c #508F0F",
"( 	c #5B9D1D",
"_ 	c #527542",
": 	c #484F4F",
"< 	c #494F4F",
"[ 	c #517741",
"} 	c #599A19",
"| 	c #4B860D",
"1 	c #4A870D",
"2 	c #599B19",
"3 	c #484F4E",
"4 	c #484E4E",
"5 	c #474F4E",
"6 	c #4A5A4B",
"7 	c #568E1D",
"8 	c #9EBE7D",
"9 	c #9EBE7E",
"0 	c #75A246",
"a 	c #5B9D1C",
"b 	c #4A594C",
"c 	c #484E4F",
"d 	c #474D4E",
"e 	c #474E4E",
"f 	c #558935",
"g 	c #90B56B",
"h 	c #FEFEFD",
"i 	c #FFFFFF",
"j 	c #A5C386",
"k 	c #558735",
"l 	c #484D4E",
"m 	c #474D4D",
"n 	c #474E4D",
"o 	c #5A9A21",
"p 	c #588F20",
"q 	c #5A9B21",
"r 	c #464D4D",
"s 	c #5A9C1D",
"t 	c #A4C286",
"u 	c #96B973",
"v 	c #5A9A1E",
"w 	c #464D4C",
"x 	c #474D4C",
"y 	c #464C4C",
"z 	c #5A9A1D",
"A 	c #FEFFFE",
"B 	c #A3C285",
"C 	c #464C4B",
"D 	c #454C4C",
"E 	c #454C4B",
"F 	c #454B4B",
"G 	c #558833",
"H 	c #508F0E",
"I 	c #518F0E",
"J 	c #548834",
"K 	c #444B4B",
"L 	c #444A4A",
"M 	c #444B4A",
"N 	c #444A4B",
"O 	c #475648",
"P 	c #5B9D1B",
"Q 	c #7AA64E",
"R 	c #ABC78E",
"S 	c #AAC68D",
"T 	c #5B9124",
"U 	c #5B9C1B",
"V 	c #465549",
"W 	c #444A49",
"X 	c #4E723D",
"Y 	c #589918",
"Z 	c #599918",
"` 	c #4E743D",
" .	c #434A49",
"..	c #5B9D1A",
"+.	c #4D743D",
"@.	c #434949",
"#.	c #434948",
"$.	c #455646",
"%.	c #548732",
"&.	c #599A1F",
"*.	c #5A9A1C",
"=.	c #558732",
"-.	c #465547",
";.	c #424949",
">.	c #424848",
",.	c #424747",
"'.	c #414847",
").	c #414748",
"!.	c #424748",
"~.	c #414747",
". . . . . . . . . . . . . . . . . . . . . . . . ",
"+ + + + + + + + + + + + + + + + + + + + + + + + ",
"+ + + + + + + + + + + + + + + + + + + + + + + + ",
"+ + + + + + + + + + + + + + + + + + + + + + + + ",
"@ + @ @ + @ @ + @ + @ + @ + @ + @ + @ + @ + + + ",
"# $ % # $ # $ % # $ # $ % # # $ % # $ $ % # @ $ ",
"& & * & & & * & * & & * & & * & & * & & * & * $ ",
"= * - = * * - * ; > , ' ' , > ; * - * * - * - & ",
") ! ! ) ! ! ! ~ { ] ^ ^ ^ ^ / ( _ ! - ! ! - ) ) ",
": : < : : : [ } | ^ ^ ^ ^ ^ ^ 1 2 _ < : < < < : ",
"3 4 5 3 4 6 { | ^ ^ 7 8 9 9 9 0 1 a b 4 5 : c c ",
"d e e d e f / ^ ^ ^ ^ g h i i j ^ / k e e e l 4 ",
"m m n m m o ^ ^ p ^ ^ ^ g h i j ^ ^ q m n n m m ",
"r r m r r s ^ ^ t u ^ ^ ^ g h j ^ ^ v r m r w x ",
"y y w y y z ^ ^ j A u ^ ^ ^ g B ^ ^ z y w y w y ",
"C D D C D o ^ ^ j i A u ^ ^ ^ p ^ ^ q D D y E F ",
"F F F F F G H ^ j i i A u ^ ^ ^ ^ I J F F F F K ",
"L M N L M O P 1 Q R R R S T ^ ^ 1 U V M N K F L ",
"L L W L L L X Y 1 ^ ^ ^ ^ ^ ^ 1 Z ` L L W L L L ",
" . .W  . . .W X ..H ^ ^ ^ ^ H P +.W @. .W @.@.L ",
"@.#.@.@.#.#.@.@.$.%.&.*.*.&.=.-.#.@.@.#.@.@.;.@.",
";.>.>.;.>.>.>.>.>.>.>.>.>.>.>.>.>.>.>.>.>.>.>.>.",
",.'.).,.'.'.).!.).!.'.).!.'.).!.'.).!.'.).!.>.>.",
"~.~.~.~.~.~.~.).~.).~.~.).~.~.).~.~.).~.~.).,.~."};
