/* XPM */
static char * maximize_active_xpm[] = {
"24 24 92 2",
"  	c None",
". 	c #313133",
"+ 	c #4B5252",
"@ 	c #4B5151",
"# 	c #4A5152",
"$ 	c #4A5151",
"% 	c #4B5152",
"& 	c #4A5051",
"* 	c #495150",
"= 	c #4A5050",
"- 	c #495050",
"; 	c #4C5A4F",
"> 	c #5D8547",
", 	c #649844",
"' 	c #659843",
") 	c #5D8648",
"! 	c #4B5B4F",
"~ 	c #494F50",
"{ 	c #49504F",
"] 	c #56724B",
"^ 	c #659944",
"/ 	c #649748",
"( 	c #61934A",
"_ 	c #61934B",
": 	c #649749",
"< 	c #659B43",
"[ 	c #55744A",
"} 	c #484F4F",
"| 	c #494F4F",
"1 	c #56724A",
"2 	c #659A44",
"3 	c #61944A",
"4 	c #55734A",
"5 	c #484F4E",
"6 	c #484E4E",
"7 	c #474F4E",
"8 	c #4B584D",
"9 	c #659943",
"0 	c #4A594E",
"a 	c #484E4F",
"b 	c #474D4E",
"c 	c #474E4E",
"d 	c #5D8546",
"e 	c #639648",
"f 	c #5C8547",
"g 	c #484D4E",
"h 	c #474D4D",
"i 	c #474E4D",
"j 	c #649742",
"k 	c #639844",
"l 	c #464D4D",
"m 	c #649843",
"n 	c #464D4C",
"o 	c #474D4C",
"p 	c #464C4C",
"q 	c #649942",
"r 	c #649842",
"s 	c #464C4B",
"t 	c #454C4C",
"u 	c #649643",
"v 	c #454C4B",
"w 	c #454B4B",
"x 	c #5B8545",
"y 	c #5C8246",
"z 	c #444B4B",
"A 	c #444A4A",
"B 	c #444B4A",
"C 	c #444A4B",
"D 	c #475649",
"E 	c #659A42",
"F 	c #649A42",
"G 	c #47554A",
"H 	c #444A49",
"I 	c #537046",
"J 	c #547147",
"K 	c #434A49",
"L 	c #527146",
"M 	c #537147",
"N 	c #434949",
"O 	c #434948",
"P 	c #475448",
"Q 	c #5B8444",
"R 	c #649642",
"S 	c #5A8345",
"T 	c #465548",
"U 	c #424949",
"V 	c #424848",
"W 	c #424747",
"X 	c #414847",
"Y 	c #414748",
"Z 	c #424748",
"` 	c #414747",
". . . . . . . . . . . . . . . . . . . . . . . . ",
"+ + + + + + + + + + + + + + + + + + + + + + + + ",
"+ + + + + + + + + + + + + + + + + + + + + + + + ",
"+ + + + + + + + + + + + + + + + + + + + + + + + ",
"@ + @ @ + @ @ + @ + @ + @ + @ + @ + @ + @ + + + ",
"# $ % # $ # $ % # $ # $ % # # $ % # $ $ % # @ $ ",
"& & * & & & * & & * & & * & * & & * & & * & * $ ",
"= * - = * * - * ; > , ' ' , ) ! * - * * - * - & ",
"~ { { ~ { { { ] ^ / ( _ _ ( : < [ { - { { - ~ ~ ",
"} } | } } } 1 2 _ _ _ _ _ _ _ 3 2 4 | } | | | } ",
"5 6 7 5 6 8 9 _ _ _ _ _ _ _ _ _ 3 < 0 6 7 } a a ",
"b c c b c d e _ _ _ _ _ _ _ _ _ _ : f c c c g 6 ",
"h h i h h j ( _ _ _ _ _ _ _ _ _ _ ( k h i i h h ",
"l l h l l ' _ _ _ _ _ _ _ _ _ _ _ _ m l h l n o ",
"p p n p p q _ _ _ _ _ _ _ _ _ _ _ _ r p n p n p ",
"s t t s t j ( _ _ _ _ _ _ _ _ _ _ ( u t t p v w ",
"w w w w w x : _ _ _ _ _ _ _ _ _ _ e y w w w w z ",
"A B C A B D E 3 _ _ _ _ _ _ _ _ 3 F G B C z w A ",
"A A H A A A I ^ 3 _ _ _ _ _ _ 3 ^ J A A H A A A ",
"K K H K K K H L E : ( _ _ ( / E M H N K H N N A ",
"N O N N O O N N P Q j j j R S T O N N O N N U N ",
"U V V U V V V V V V V V V V V V V V V V V V V V ",
"W X Y W X X Y Z X Y Z X Y Z Y Z X Y Z X Y Z V V ",
"` ` ` ` ` ` ` Y ` Y ` ` Y ` ` Y ` ` Y ` ` Y W ` "};
