/* XPM */
static char * maximize_pressed_xpm[] = {
"24 24 108 2",
"  	c None",
". 	c #313133",
"+ 	c #4B5252",
"@ 	c #4B5151",
"# 	c #4A5152",
"$ 	c #4A5151",
"% 	c #4B5152",
"& 	c #4A5051",
"* 	c #495150",
"= 	c #4A5050",
"- 	c #495050",
"; 	c #4C5A4F",
"> 	c #5D8547",
", 	c #649844",
"' 	c #659843",
") 	c #5D8648",
"! 	c #4B5B4F",
"~ 	c #494F50",
"{ 	c #49504F",
"] 	c #56724B",
"^ 	c #659944",
"/ 	c #649748",
"( 	c #61934A",
"_ 	c #61934B",
": 	c #649749",
"< 	c #659B43",
"[ 	c #55744A",
"} 	c #484F4F",
"| 	c #494F4F",
"1 	c #56724A",
"2 	c #659A44",
"3 	c #61944A",
"4 	c #55734A",
"5 	c #484F4E",
"6 	c #484E4E",
"7 	c #474F4E",
"8 	c #4B584D",
"9 	c #659943",
"0 	c #6C9A57",
"a 	c #AAC59E",
"b 	c #ABC59F",
"c 	c #86AC75",
"d 	c #4A594E",
"e 	c #484E4F",
"f 	c #474D4E",
"g 	c #474E4E",
"h 	c #5D8546",
"i 	c #639648",
"j 	c #9EBD91",
"k 	c #FEFEFE",
"l 	c #FFFFFF",
"m 	c #B0C9A5",
"n 	c #5C8547",
"o 	c #484D4E",
"p 	c #474D4D",
"q 	c #474E4D",
"r 	c #649742",
"s 	c #6D9B59",
"t 	c #639844",
"u 	c #464D4D",
"v 	c #A3C097",
"w 	c #649843",
"x 	c #464D4C",
"y 	c #474D4C",
"z 	c #464C4C",
"A 	c #649942",
"B 	c #FEFFFE",
"C 	c #AFC8A4",
"D 	c #649842",
"E 	c #464C4B",
"F 	c #454C4C",
"G 	c #649643",
"H 	c #454C4B",
"I 	c #454B4B",
"J 	c #5B8545",
"K 	c #5C8246",
"L 	c #444B4B",
"M 	c #444A4A",
"N 	c #444B4A",
"O 	c #444A4B",
"P 	c #475649",
"Q 	c #659A42",
"R 	c #8BB07B",
"S 	c #B5CDAB",
"T 	c #B5CCAA",
"U 	c #709D5C",
"V 	c #649A42",
"W 	c #47554A",
"X 	c #444A49",
"Y 	c #537046",
"Z 	c #547147",
"` 	c #434A49",
" .	c #527146",
"..	c #537147",
"+.	c #434949",
"@.	c #434948",
"#.	c #475448",
"$.	c #5B8444",
"%.	c #649642",
"&.	c #5A8345",
"*.	c #465548",
"=.	c #424949",
"-.	c #424848",
";.	c #424747",
">.	c #414847",
",.	c #414748",
"'.	c #424748",
").	c #414747",
". . . . . . . . . . . . . . . . . . . . . . . . ",
"+ + + + + + + + + + + + + + + + + + + + + + + + ",
"+ + + + + + + + + + + + + + + + + + + + + + + + ",
"+ + + + + + + + + + + + + + + + + + + + + + + + ",
"@ + @ @ + @ @ + @ + @ + @ + @ + @ + @ + @ + + + ",
"# $ % # $ # $ % # $ # $ % # # $ % # $ $ % # @ $ ",
"& & * & & & * & & * & & * & * & & * & & * & * $ ",
"= * - = * * - * ; > , ' ' , ) ! * - * * - * - & ",
"~ { { ~ { { { ] ^ / ( _ _ ( : < [ { - { { - ~ ~ ",
"} } | } } } 1 2 _ _ _ _ _ _ _ 3 2 4 | } | | | } ",
"5 6 7 5 6 8 9 _ _ _ 0 a b b b c 3 < d 6 7 } e e ",
"f g g f g h i _ _ _ _ j k l l m _ : n g g g o 6 ",
"p p q p p r ( _ s _ _ _ j k l m _ ( t p q q p p ",
"u u p u u ' _ _ m v _ _ _ j k m _ _ w u p u x y ",
"z z x z z A _ _ m B v _ _ _ j C _ _ D z x z x z ",
"E F F E F r ( _ m l B v _ _ _ s _ ( G F F z H I ",
"I I I I I J : _ m l l B v _ _ _ _ i K I I I I L ",
"M N O M N P Q 3 R S S S T U _ _ 3 V W N O L I M ",
"M M X M M M Y ^ 3 _ _ _ _ _ _ 3 ^ Z M M X M M M ",
"` ` X ` ` ` X  .Q : ( _ _ ( / Q ..X +.` X +.+.M ",
"+.@.+.+.@.@.+.+.#.$.r r r %.&.*.@.+.+.@.+.+.=.+.",
"=.-.-.=.-.-.-.-.-.-.-.-.-.-.-.-.-.-.-.-.-.-.-.-.",
";.>.,.;.>.>.,.'.>.,.'.>.,.'.,.'.>.,.'.>.,.'.-.-.",
").).).).).).).,.).,.).).,.).).,.).).,.).).,.;.)."};
