/* XPM */
static char * shade_toggled_pressed_xpm[] = {
"24 36 105 2",
"  	c #323A3F",
". 	c #3F4C53",
"+ 	c #3F4C52",
"@ 	c #3E4C53",
"# 	c #3F4B53",
"$ 	c #3E4C52",
"% 	c #3E4B52",
"& 	c #3F4B52",
"* 	c #3E4B53",
"= 	c #3E4A52",
"- 	c #404A50",
"; 	c #424848",
"> 	c #101010",
", 	c #0A0A0A",
"' 	c #3D4B51",
") 	c #0B0D0D",
"! 	c #0E1212",
"~ 	c #0F1313",
"{ 	c #3D4A51",
"] 	c #0F1010",
"^ 	c #101514",
"/ 	c #111514",
"( 	c #111414",
"_ 	c #101414",
": 	c #101415",
"< 	c #111515",
"[ 	c #3D4A50",
"} 	c #111415",
"| 	c #3C4950",
"1 	c #3D4950",
"2 	c #101515",
"3 	c #3C494F",
"4 	c #FFFFFF",
"5 	c #3C4850",
"6 	c #121616",
"7 	c #121515",
"8 	c #121516",
"9 	c #3B494F",
"0 	c #3B484F",
"a 	c #121716",
"b 	c #121717",
"c 	c #131716",
"d 	c #131616",
"e 	c #131817",
"f 	c #131717",
"g 	c #131718",
"h 	c #3A484F",
"i 	c #141818",
"j 	c #141718",
"k 	c #141817",
"l 	c #414242",
"m 	c #F6F6F6",
"n 	c #FCFCFC",
"o 	c #3A484E",
"p 	c #141819",
"q 	c #141919",
"r 	c #151918",
"s 	c #151919",
"t 	c #151819",
"u 	c #7A7A7A",
"v 	c #FBFBFB",
"w 	c #3A474E",
"x 	c #161919",
"y 	c #15191A",
"z 	c #A5A5A5",
"A 	c #3A474D",
"B 	c #161A1A",
"C 	c #CECECE",
"D 	c #39464E",
"E 	c #171B1B",
"F 	c #171A1B",
"G 	c #171C1B",
"H 	c #181B1B",
"I 	c #181C1C",
"J 	c #39464D",
"K 	c #39454D",
"L 	c #38464D",
"M 	c #181C1D",
"N 	c #191D1D",
"O 	c #181D1D",
"P 	c #38454C",
"Q 	c #38454D",
"R 	c #191C1C",
"S 	c #191C1D",
"T 	c #181D1C",
"U 	c #39454C",
"V 	c #0F0F0F",
"W 	c #161B1B",
"X 	c #37444B",
"Y 	c #394349",
"Z 	c #0E0F0F",
"` 	c #37454C",
" .	c #394449",
"..	c #38444B",
"+.	c #37444C",
"@.	c #545A5A",
"#.	c #5D6262",
"$.	c #5E6363",
"%.	c #37444A",
"&.	c #37434B",
"*.	c #37434A",
"=.	c #36444B",
"-.	c #36444A",
";.	c #36434B",
">.	c #36434A",
"                                                ",
". . . . . . . . . . . . . . . . . . . . . . . . ",
". + . . . + . . . . . @ . # $ # . . + . . + . + ",
". . # @ . . % + & . @ & & & % $ . + # & & @ # & ",
"@ % % + @ % $ & % + & @ $ # % # . & % & @ & $ % ",
"% % % % % % % % % % % % * % % % % % % % % % % % ",
"= - ; > , , , , , , , , , , , , , , , , > ; - % ",
"' ; ) ! ~ ~ ~ ~ ~ ~ ~ ~ ~ ~ ~ ~ ~ ~ ~ ~ ! ) ; % ",
"{ ] ^ / ( _ _ ( _ _ ( _ ( _ _ _ _ _ _ ( / ^ ] { ",
"{ , / : < _ _ < _ _ < _ < _ _ _ _ _ _ < : / , { ",
"[ , } ( ^ _ _ ^ _ _ ^ _ ^ _ _ _ _ _ _ ^ ( } , { ",
"| , _ ( _ _ _ _ _ _ _ _ _ _ _ _ _ _ _ _ ( _ , 1 ",
"| , : _ ( _ _ ( _ _ ( _ ( _ _ 2 2 _ _ ( _ : , 1 ",
"3 , < } } 2 / 4 4 4 4 4 4 4 4 4 4 / 2 } } < , 5 ",
"5 , 6 < 7 8 8 4 4 4 4 4 4 4 4 4 4 8 8 7 < 6 , 9 ",
"0 , a b 6 6 c 6 6 c 6 6 6 6 c d d c 6 6 b a , 0 ",
"0 , e f f g f f g f f g f g f f f f g f f e , 0 ",
"h , i j k i f l m n n n n n n m l f i k j i , 0 ",
"o , p q r s t r u v n n n n v u r t s r q p , w ",
"w , s x x x y x x z n n n n z y y y x x x s , w ",
"A , B B B B B B B B C n n C B B B B B B B B , w ",
"D , E F E E F E E F E n n E F B B F E E F E , w ",
"A , G G H I H H I H H I H I H H H H I H G G , D ",
"J , I I I I I I I I I I I I I I I I I I I I , J ",
"K , I I I I I I I I I I I I I I I I I I I I , L ",
"K , M N O M M O M M O M O M M M M M M O N M , P ",
"Q , R O S R R S R R S R S R R T T R R S O R , U ",
"P V W O O O O O O O O O O O O O O O O O O W V P ",
"X Y Z W O O O O O O O O O O O O O O O O W Z Y P ",
"`  . .] , , , , , , , , , , , , , , , , ]  . ...",
"+.Y Y @.#.$.$.$.$.$.$.$.$.$.$.$.$.$.$.#.@.Y Y X ",
"X X X X X X X X X X %.X X &.X %.X X &.*.X %.X X ",
"=.%.*.*.=.%.%.-.%.;.-.X *.&.&.X X -.&.>.%.=.>.=.",
"*.-.=.>.*.-.&.&.*.;.>.=.;.*.%.;.;.>.>.=.-.>.*.X ",
">.>.>.>.>.>.-.>.-.>.>.>.>.>.>.=.>.>.>.>.>.>.-.>.",
">.>.>.>.>.>.>.>.>.>.>.>.>.>.>.>.>.>.>.>.>.>.>.>."};
