/* XPM */
static char * shade_toggled_inactive_xpm[] = {
"24 36 88 1",
" 	c #323A3F",
".	c #3F4C53",
"+	c #3F4C52",
"@	c #3E4C53",
"#	c #3F4B53",
"$	c #3E4C52",
"%	c #3E4B52",
"&	c #3F4B52",
"*	c #3E4B53",
"=	c #3E4A52",
"-	c #404A50",
";	c #202323",
">	c #0F0F0F",
",	c #0A0A0A",
"'	c #3D4B51",
")	c #161818",
"!	c #323B41",
"~	c #3D4A51",
"{	c #263036",
"]	c #3D4A50",
"^	c #3C4950",
"/	c #263035",
"(	c #3D4950",
"_	c #252F35",
":	c #3C494F",
"<	c #242E33",
"[	c #909090",
"}	c #3C4850",
"|	c #242D32",
"1	c #3B494F",
"2	c #3B484F",
"3	c #232C31",
"4	c #222B30",
"5	c #232B30",
"6	c #3A484F",
"7	c #212A2F",
"8	c #2C3134",
"9	c #3A484E",
"0	c #20282E",
"a	c #434547",
"b	c #454748",
"c	c #3A474E",
"d	c #20272C",
"e	c #5D5E5E",
"f	c #5F6061",
"g	c #3A474D",
"h	c #1E262B",
"i	c #787878",
"j	c #7A7A7A",
"k	c #1F262A",
"l	c #39464E",
"m	c #1E2429",
"n	c #1E2428",
"o	c #878787",
"p	c #848585",
"q	c #1F2528",
"r	c #1D2428",
"s	c #39464D",
"t	c #1C2327",
"u	c #39454D",
"v	c #1C2226",
"w	c #38464D",
"x	c #1A2024",
"y	c #38454C",
"z	c #38454D",
"A	c #39454C",
"B	c #37444B",
"C	c #101212",
"D	c #171B1B",
"E	c #181D1D",
"F	c #37454C",
"G	c #394449",
"H	c #202424",
"I	c #101111",
"J	c #0B0C0C",
"K	c #38444B",
"L	c #37444C",
"M	c #394349",
"N	c #555B5B",
"O	c #5C6161",
"P	c #5E6363",
"Q	c #37444A",
"R	c #37434B",
"S	c #37434A",
"T	c #36444B",
"U	c #36444A",
"V	c #36434B",
"W	c #36434A",
"                        ",
"........................",
".+...+.....@.#$#..+..+.+",
"..#@..%+&.@&&&%$.+#&&@#&",
"@%%+@%$&%+&@$#%#.&%&@&$%",
"%%%%%%%%%%%%*%%%%%%%%%%%",
"=-;>,,,,,,,,,,,,,,,,>;-%",
"';)!!!!!!!!!!!!!!!!!!);%",
"~>{{{{{{{{{{{{{{{{{{{{>~",
"~,{{{{{{{{{{{{{{{{{{{{,~",
"],{{{{{{{{{{{{{{{{{{{{,~",
"^,////////////////////,(",
"^,____________________,(",
":,<<<<<[[[[[[[[[[<<<<<,}",
"},|||||[[[[[[[[[[|||||,1",
"2,33333333333333333333,2",
"2,44444444444555544444,2",
"6,777778[[[[[[[[877777,2",
"9,000000a[[[[[[b000000,c",
"c,ddddddde[[[[fddddddd,c",
"g,hhhhhhhhi[[jkhhhhhhh,c",
"l,mmmmmmmmnopqmmmmmmmm,c",
"g,rrrrrrrrrrrrrrrrrrrr,l",
"s,tttttttttttttttttttt,s",
"u,vvvvvvvvvvvvvvvvvvvv,w",
"u,xxxxxxxxxxxxxxxxxxxx,y",
"z,xxxxxxxxxxxxxxxxxxxx,A",
"y>xxxxxxxxxxxxxxxxxxxx>y",
"B;CDEEEEEEEEEEEEEEEEDC;y",
"FGHIJJJJJJJJJJJJJJJJIHGK",
"LMMNOPPPPPPPPPPPPPPONMMB",
"BBBBBBBBBBQBBRBQBBRSBQBB",
"TQSSTQQUQVUBSRRBBURWQTWT",
"SUTWSURRSVWTVSQVVWWTUWSB",
"WWWWWWUWUWWWWWWTWWWWWWUW",
"WWWWWWWWWWWWWWWWWWWWWWWW"};
