/* XPM */
static char * shade_prelight_xpm[] = {
"24 36 143 2",
"  	c #323A3F",
". 	c #3F4C53",
"+ 	c #3F4C52",
"@ 	c #3E4C53",
"# 	c #3F4B53",
"$ 	c #3E4C52",
"% 	c #3E4B52",
"& 	c #3F4B52",
"* 	c #3E4B53",
"= 	c #3E4A52",
"- 	c #404A50",
"; 	c #202323",
"> 	c #0F0F0F",
", 	c #0A0A0A",
"' 	c #3D4B51",
") 	c #161818",
"! 	c #4B555A",
"~ 	c #3D4A51",
"{ 	c #3C464C",
"] 	c #3D4A50",
"^ 	c #3A444A",
"/ 	c #3A434A",
"( 	c #3A4449",
"_ 	c #3C4950",
": 	c #384247",
"< 	c #384248",
"[ 	c #394248",
"} 	c #384147",
"| 	c #394247",
"1 	c #3D4950",
"2 	c #364046",
"3 	c #364045",
"4 	c #363F45",
"5 	c #373F45",
"6 	c #374046",
"7 	c #363F46",
"8 	c #3C494F",
"9 	c #343E43",
"0 	c #343D43",
"a 	c #FFFFFF",
"b 	c #3C4850",
"c 	c #323B41",
"d 	c #333B41",
"e 	c #323C40",
"f 	c #3B494F",
"g 	c #3B484F",
"h 	c #30393F",
"i 	c #31393F",
"j 	c #30393E",
"k 	c #31393E",
"l 	c #2E373D",
"m 	c #2F373C",
"n 	c #2E373C",
"o 	c #3A484F",
"p 	c #2C353A",
"q 	c #2D353A",
"r 	c #2C3539",
"s 	c #2C3437",
"t 	c #F5F5F5",
"u 	c #F3F3F3",
"v 	c #2C3438",
"w 	c #3A484E",
"x 	c #2B3338",
"y 	c #2A3338",
"z 	c #2B3337",
"A 	c #2B3236",
"B 	c #CBCCCC",
"C 	c #FCFCFC",
"D 	c #C8C8C8",
"E 	c #2B3336",
"F 	c #3A474E",
"G 	c #293036",
"H 	c #293035",
"I 	c #283036",
"J 	c #293135",
"K 	c #293134",
"L 	c #9E9FA0",
"M 	c #9C9D9D",
"N 	c #283035",
"O 	c #3A474D",
"P 	c #272E33",
"Q 	c #272F33",
"R 	c #272E34",
"S 	c #717273",
"T 	c #FBFBFB",
"U 	c #6F7171",
"V 	c #39464E",
"W 	c #252C31",
"X 	c #252D31",
"Y 	c #3C4041",
"Z 	c #EFEFEF",
"` 	c #F6F6F6",
" .	c #232B2E",
"..	c #232B2F",
"+.	c #232A2F",
"@.	c #39464D",
"#.	c #21282C",
"$.	c #21282D",
"%.	c #21292D",
"&.	c #22282C",
"*.	c #39454D",
"=.	c #1F262A",
"-.	c #1F262B",
";.	c #20262A",
">.	c #38464D",
",.	c #1D2328",
"'.	c #1D2428",
").	c #1E2428",
"!.	c #1D2427",
"~.	c #1E2427",
"{.	c #38454C",
"].	c #38454D",
"^.	c #1C2226",
"/.	c #1B2126",
"(.	c #1C2125",
"_.	c #1B2226",
":.	c #1B2125",
"<.	c #1C2225",
"[.	c #1B2225",
"}.	c #39454C",
"|.	c #1A2024",
"1.	c #37444B",
"2.	c #101212",
"3.	c #171B1B",
"4.	c #181D1D",
"5.	c #37454C",
"6.	c #394449",
"7.	c #202424",
"8.	c #101111",
"9.	c #0B0C0C",
"0.	c #38444B",
"a.	c #37444C",
"b.	c #394349",
"c.	c #545A5A",
"d.	c #5D6262",
"e.	c #5E6363",
"f.	c #37444A",
"g.	c #37434B",
"h.	c #37434A",
"i.	c #36444B",
"j.	c #36444A",
"k.	c #36434B",
"l.	c #36434A",
"                                                ",
". . . . . . . . . . . . . . . . . . . . . . . . ",
". + . . . + . . . . . @ . # $ # . . + . . + . + ",
". . # @ . . % + & . @ & & & % $ . + # & & @ # & ",
"@ % % + @ % $ & % + & @ $ # % # . & % & @ & $ % ",
"% % % % % % % % % % % % * % % % % % % % % % % % ",
"= - ; > , , , , , , , , , , , , , , , , > ; - % ",
"' ; ) ! ! ! ! ! ! ! ! ! ! ! ! ! ! ! ! ! ! ) ; % ",
"~ > { { { { { { { { { { { { { { { { { { { { > ~ ",
"~ , { { { { { { { { { { { { { { { { { { { { , ~ ",
"] , ^ ^ / / ^ ^ ^ ( ^ ^ ^ ( ^ ( ^ ^ / / ^ ^ , ~ ",
"_ , : < < [ : < < < } < | } < : : : [ < < : , 1 ",
"_ , 2 3 2 2 4 3 3 5 6 4 3 4 4 5 7 4 2 2 3 2 , 1 ",
"8 , 9 0 9 9 0 a a a a a a a a a a 0 9 9 0 9 , b ",
"b , c d e d c a a a a a a a a a a c d e d c , f ",
"g , h i i i j j i k j h j k i k j j i i i h , g ",
"g , l m n m m n m m n m m n m m m m m n m l , g ",
"o , p q q p r p r p s t u v r p r r p q q p , g ",
"w , x y x z z z z A B C C D E z z z z x y x , F ",
"F , G H H I J I K L C C C C M N J J I H H G , F ",
"O , P Q Q R R R S T C C C C T U R R R Q Q P , F ",
"V , W W W W X Y Z t t T C C C ` Y X W W W W , F ",
"O ,  ...+.+.+.+.+.+.+.+.+.+.+.+.+.+.+.+... ., V ",
"@., #.#.$.#.$.#.%.#.#.$.$.#.$.#.&.$.#.$.#.#., @.",
"*., =.-.=.;.-.=.=.;.;.-.=.-.-.=.=.-.;.=.-.=., >.",
"*., ,.'.'.).!.'.).'.,.).~.'.~.'.).!.).'.'.,., {.",
"]., ^./.^.(._.:.^.^.<.^./._.[.<._._.(.^./.^., }.",
"{.> |.|.|.|.|.|.|.|.|.|.|.|.|.|.|.|.|.|.|.|.> {.",
"1.; 2.3.4.4.4.4.4.4.4.4.4.4.4.4.4.4.4.4.3.2.; {.",
"5.6.7.8.9.9.9.9.9.9.9.9.9.9.9.9.9.9.9.9.8.7.6.0.",
"a.b.b.c.d.e.e.e.e.e.e.e.e.e.e.e.e.e.e.d.c.b.b.1.",
"1.1.1.1.1.1.1.1.1.1.f.1.1.g.1.f.1.1.g.h.1.f.1.1.",
"i.f.h.h.i.f.f.j.f.k.j.1.h.g.g.1.1.j.g.l.f.i.l.i.",
"h.j.i.l.h.j.g.g.h.k.l.i.k.h.f.k.k.l.l.i.j.l.h.1.",
"l.l.l.l.l.l.j.l.j.l.l.l.l.l.l.i.l.l.l.l.l.l.j.l.",
"l.l.l.l.l.l.l.l.l.l.l.l.l.l.l.l.l.l.l.l.l.l.l.l."};
