/* XPM */
static char * stick_inactive_xpm[] = {
"24 36 123 2",
"  	c #323A3F",
". 	c #3F4C53",
"+ 	c #3F4C52",
"@ 	c #3E4C53",
"# 	c #3F4B53",
"$ 	c #3E4C52",
"% 	c #3E4B52",
"& 	c #3F4B52",
"* 	c #3E4B53",
"= 	c #3E4A52",
"- 	c #404A50",
"; 	c #424848",
"> 	c #101010",
", 	c #0A0A0A",
"' 	c #3D4B51",
") 	c #0B0D0D",
"! 	c #0E1212",
"~ 	c #0F1313",
"{ 	c #3D4A51",
"] 	c #0F1010",
"^ 	c #101514",
"/ 	c #111514",
"( 	c #111414",
"_ 	c #101414",
": 	c #101415",
"< 	c #111515",
"[ 	c #3D4A50",
"} 	c #111415",
"| 	c #3C4950",
"1 	c #3D4950",
"2 	c #242626",
"3 	c #666666",
"4 	c #818181",
"5 	c #8E8E8E",
"6 	c #242727",
"7 	c #101515",
"8 	c #3C494F",
"9 	c #4C4C4D",
"0 	c #7D7D7D",
"a 	c #757575",
"b 	c #4F4F4F",
"c 	c #222525",
"d 	c #222425",
"e 	c #4E4F4F",
"f 	c #4C4D4D",
"g 	c #3C4850",
"h 	c #121616",
"i 	c #121515",
"j 	c #121516",
"k 	c #252728",
"l 	c #3B494F",
"m 	c #3B484F",
"n 	c #121716",
"o 	c #121717",
"p 	c #131716",
"q 	c #131616",
"r 	c #131817",
"s 	c #131717",
"t 	c #131718",
"u 	c #4F5050",
"v 	c #3A484F",
"w 	c #141818",
"x 	c #141718",
"y 	c #141817",
"z 	c #3A484E",
"A 	c #141819",
"B 	c #141919",
"C 	c #151918",
"D 	c #151919",
"E 	c #252726",
"F 	c #151819",
"G 	c #3A474E",
"H 	c #161919",
"I 	c #15191A",
"J 	c #3A474D",
"K 	c #161A1A",
"L 	c #666767",
"M 	c #757676",
"N 	c #39464E",
"O 	c #171B1B",
"P 	c #171A1B",
"Q 	c #282A2A",
"R 	c #7D7E7E",
"S 	c #171C1B",
"T 	c #181B1B",
"U 	c #181C1C",
"V 	c #4D4E4E",
"W 	c #7E7E7E",
"X 	c #505151",
"Y 	c #262929",
"Z 	c #262828",
"` 	c #39464D",
" .	c #292B2B",
"..	c #39454D",
"+.	c #38464D",
"@.	c #181C1D",
"#.	c #191D1D",
"$.	c #181D1D",
"%.	c #38454C",
"&.	c #38454D",
"*.	c #191C1C",
"=.	c #191C1D",
"-.	c #181D1C",
";.	c #39454C",
">.	c #0F0F0F",
",.	c #161B1B",
"'.	c #37444B",
").	c #394349",
"!.	c #0E0F0F",
"~.	c #37454C",
"{.	c #394449",
"].	c #38444B",
"^.	c #37444C",
"/.	c #545A5A",
"(.	c #5D6262",
"_.	c #5E6363",
":.	c #37444A",
"<.	c #37434B",
"[.	c #37434A",
"}.	c #36444B",
"|.	c #36444A",
"1.	c #36434B",
"2.	c #36434A",
"                                                ",
". . . . . . . . . . . . . . . . . . . . . . . . ",
". + . . . + . . . . . @ . # $ # . . + . . + . + ",
". . # @ . . % + & . @ & & & % $ . + # & & @ # & ",
"@ % % + @ % $ & % + & @ $ # % # . & % & @ & $ % ",
"% % % % % % % % % % % % * % % % % % % % % % % % ",
"= - ; > , , , , , , , , , , , , , , , , > ; - % ",
"' ; ) ! ~ ~ ~ ~ ~ ~ ~ ~ ~ ~ ~ ~ ~ ~ ~ ~ ! ) ; % ",
"{ ] ^ / ( _ _ ( _ _ ( _ ( _ _ _ _ _ _ ( / ^ ] { ",
"{ , / : < _ _ < _ _ < _ < _ _ _ _ _ _ < : / , { ",
"[ , } ( ^ _ _ ^ _ _ ^ _ ^ _ _ _ _ _ _ ^ ( } , { ",
"| , _ ( _ _ _ _ _ _ _ _ _ _ _ _ _ _ _ _ ( _ , 1 ",
"| , : _ ( _ _ ( 2 3 4 5 5 4 3 6 7 _ _ ( _ : , 1 ",
"8 , < } } 7 / 9 0 a b c d e a 0 f / 7 } } < , g ",
"g , h < i j k 0 3 j i j i j j 3 0 k j i < h , l ",
"m , n o h h 3 a h p h h h h p q a 3 h h o n , m ",
"m , r s s t 4 u t s s t s t s s u 4 t s s r , m ",
"v , w x y w 5 2 w s y w y w s w 2 5 w y x w , m ",
"z , A B C D 5 E D F C D C D F C E 5 D C B A , G ",
"G , D H H H 4 u H I H H H H I I u 4 H H H D , G ",
"J , K K K K L M K K K K K K K K M L K K K K , G ",
"N , O P O O Q R L P O O O O P L R Q O O P O , G ",
"J , S S T U T V W M X Y Z X M W V T U T S S , N ",
"` , U U U U U U  .L 4 5 5 4 L  .U U U U U U , ` ",
".., U U U U U U U U U U U U U U U U U U U U , +.",
".., @.#.$.@.@.$.@.@.$.@.$.@.@.@.@.@.@.$.#.@., %.",
"&., *.$.=.*.*.=.*.*.=.*.=.*.*.-.-.*.*.=.$.*., ;.",
"%.>.,.$.$.$.$.$.$.$.$.$.$.$.$.$.$.$.$.$.$.,.>.%.",
"'.).!.,.$.$.$.$.$.$.$.$.$.$.$.$.$.$.$.$.,.!.).%.",
"~.{.{.] , , , , , , , , , , , , , , , , ] {.{.].",
"^.).)./.(._._._._._._._._._._._._._._.(./.).).'.",
"'.'.'.'.'.'.'.'.'.'.:.'.'.<.'.:.'.'.<.[.'.:.'.'.",
"}.:.[.[.}.:.:.|.:.1.|.'.[.<.<.'.'.|.<.2.:.}.2.}.",
"[.|.}.2.[.|.<.<.[.1.2.}.1.[.:.1.1.2.2.}.|.2.[.'.",
"2.2.2.2.2.2.|.2.|.2.2.2.2.2.2.}.2.2.2.2.2.2.|.2.",
"2.2.2.2.2.2.2.2.2.2.2.2.2.2.2.2.2.2.2.2.2.2.2.2."};
