<?xml version="1.0" encoding="UTF-8" standalone="no"?>
<svg
   xmlns:dc="http://purl.org/dc/elements/1.1/"
   xmlns:cc="http://creativecommons.org/ns#"
   xmlns:rdf="http://www.w3.org/1999/02/22-rdf-syntax-ns#"
   xmlns:svg="http://www.w3.org/2000/svg"
   xmlns="http://www.w3.org/2000/svg"
   width="16"
   height="16"
   viewBox="0 0 4.2333332 4.2333332"
   version="1.1"
   id="svg8">
  <defs
     id="defs2" />
  <metadata
     id="metadata5">
    <rdf:RDF>
      <cc:Work
         rdf:about="">
        <dc:format>image/svg+xml</dc:format>
        <dc:type
           rdf:resource="http://purl.org/dc/dcmitype/StillImage" />
        <dc:title></dc:title>
      </cc:Work>
    </rdf:RDF>
  </metadata>
  <g
     id="layer1"
     transform="matrix(0.26458239,0,0,0.26458239,0,-74.347597)">
    <path
       id="rect815"
       transform="matrix(1.0000035,0,0,1.0000035,0,280.99979)"
       d="M 2.3417969 0 C 1.0444651 0 2.9605947e-16 1.0852485 0 2.4335938 L 0 13.566406 C 0 14.914751 1.0444651 16 2.3417969 16 L 13.658203 16 C 14.955536 16 16 14.914751 16 13.566406 L 16 2.4335938 C 16 1.0852485 14.955536 5.9211895e-16 13.658203 0 L 2.3417969 0 z M 12.714844 3.0058594 C 13.071255 2.9724744 13.417604 3.093305 13.667969 3.375 C 14.1687 3.9383903 14.095582 4.9280334 13.503906 5.59375 L 7.4101562 12.449219 C 7.238094 12.642813 7.0402814 12.779655 6.8359375 12.873047 C 6.7010881 12.944261 6.5584818 12.986595 6.40625 12.998047 C 6.3692522 13.001958 6.3316211 12.9994 6.2949219 13 C 6.2582416 12.9994 6.2225485 13.001978 6.1855469 12.998047 C 6.0333147 12.986553 5.888756 12.944257 5.7539062 12.873047 C 5.5495616 12.779651 5.3517505 12.642814 5.1796875 12.449219 L 2.4960938 9.4277344 C 1.9044183 8.7620186 1.8313003 7.7723748 2.3320312 7.2089844 C 2.8327618 6.645594 3.7110587 6.7288151 4.3027344 7.3945312 L 6.2949219 9.6367188 L 11.695312 3.5605469 C 11.99115 3.2276888 12.358431 3.0392439 12.714844 3.0058594 z "
       style="opacity:1;fill:#ff7611;fill-opacity:1;stroke:none;stroke-width:0.36973873;stroke-miterlimit:4;stroke-dasharray:none;stroke-opacity:1;paint-order:stroke fill markers" />
    <g
       id="g855"
       transform="translate(-0.02403434,0.19180125)" />
  </g>
</svg>
