<?xml version="1.0" encoding="UTF-8" standalone="no"?>
<svg
   xmlns:dc="http://purl.org/dc/elements/1.1/"
   xmlns:cc="http://creativecommons.org/ns#"
   xmlns:rdf="http://www.w3.org/1999/02/22-rdf-syntax-ns#"
   xmlns:svg="http://www.w3.org/2000/svg"
   xmlns="http://www.w3.org/2000/svg"
   width="16"
   height="16"
   viewBox="0 0 4.2333334 4.2333334"
   version="1.1"
   id="svg8">
  <defs
     id="defs2" />
  <metadata
     id="metadata5">
    <rdf:RDF>
      <cc:Work
         rdf:about="">
        <dc:format>image/svg+xml</dc:format>
        <dc:type
           rdf:resource="http://purl.org/dc/dcmitype/StillImage" />
        <dc:title></dc:title>
      </cc:Work>
    </rdf:RDF>
  </metadata>
  <g
     id="layer1"
     transform="matrix(1.1111111,0,0,1.1111111,1.8212526e-8,-325.76666)">
    <path
       id="path815"
       transform="matrix(0.23812501,0,0,0.23812501,-1.6391274e-8,293.19)"
       d="M 8 0 A 8.0000002 8.0000002 0 0 0 0 8 A 8.0000002 8.0000002 0 0 0 8 16 A 8.0000002 8.0000002 0 0 0 16 8 A 8.0000002 8.0000002 0 0 0 8 0 z M 8 2 A 6 6 0 0 1 14 8 A 6 6 0 0 1 8 14 A 6 6 0 0 1 2 8 A 6 6 0 0 1 8 2 z "
       style="opacity:1;fill:#ff7611;fill-opacity:1;stroke:none;stroke-width:0.84444439;stroke-linecap:round;stroke-linejoin:miter;stroke-miterlimit:4;stroke-dasharray:none;stroke-opacity:1;paint-order:markers fill stroke" />
    <circle
       style="opacity:1;fill:#ff7611;fill-opacity:1;stroke:none;stroke-width:0.10054167;stroke-linecap:round;stroke-linejoin:miter;stroke-miterlimit:4;stroke-dasharray:none;stroke-opacity:1;paint-order:markers fill stroke"
       id="path815-7-5"
       cx="1.905"
       cy="295.095"
       r="0.95250005" />
  </g>
</svg>
