/* XPM */
static char * close_active_xpm[] = {
"24 24 93 2",
"  	c None",
". 	c #313133",
"+ 	c #4B5252",
"@ 	c #4B5151",
"# 	c #4A5152",
"$ 	c #4A5151",
"% 	c #4B5152",
"& 	c #4A5051",
"* 	c #495150",
"= 	c #4A5050",
"- 	c #495050",
"; 	c #4A6C5B",
"> 	c #44C88C",
", 	c #42E89E",
"' 	c #42EB9F",
") 	c #45C78B",
"! 	c #496B5A",
"~ 	c #494F50",
"{ 	c #49504F",
"] 	c #46A578",
"^ 	c #42ECA1",
"/ 	c #42E190",
"( 	c #41D985",
"_ 	c #41E290",
": 	c #42EDA2",
"< 	c #47A578",
"[ 	c #484F4F",
"} 	c #494F4F",
"| 	c #45A578",
"1 	c #42EB9D",
"2 	c #41DA85",
"3 	c #41DA86",
"4 	c #484F4E",
"5 	c #484E4E",
"6 	c #474F4E",
"7 	c #486B5A",
"8 	c #42ECA0",
"9 	c #486959",
"0 	c #484E4F",
"a 	c #474D4E",
"b 	c #474E4E",
"c 	c #44C88B",
"d 	c #41E28F",
"e 	c #44C68C",
"f 	c #484D4E",
"g 	c #474D4D",
"h 	c #474E4D",
"i 	c #41E89F",
"j 	c #464D4D",
"k 	c #42EA9E",
"l 	c #464D4C",
"m 	c #474D4C",
"n 	c #464C4C",
"o 	c #42EA9F",
"p 	c #464C4B",
"q 	c #454C4C",
"r 	c #41E89E",
"s 	c #454C4B",
"t 	c #454B4B",
"u 	c #42C68A",
"v 	c #43C58A",
"w 	c #444B4B",
"x 	c #444A4A",
"y 	c #444B4A",
"z 	c #444A4B",
"A 	c #446656",
"B 	c #41EDA2",
"C 	c #40EDA0",
"D 	c #446657",
"E 	c #444A49",
"F 	c #44A375",
"G 	c #41EB9D",
"H 	c #43A276",
"I 	c #434A49",
"J 	c #43A476",
"K 	c #42E290",
"L 	c #41EDA0",
"M 	c #43A275",
"N 	c #434949",
"O 	c #434948",
"P 	c #436756",
"Q 	c #41C689",
"R 	c #40E89E",
"S 	c #41EA9F",
"T 	c #42C68B",
"U 	c #436654",
"V 	c #424949",
"W 	c #424848",
"X 	c #424747",
"Y 	c #414847",
"Z 	c #414748",
"` 	c #424748",
" .	c #414747",
". . . . . . . . . . . . . . . . . . . . . . . . ",
"+ + + + + + + + + + + + + + + + + + + + + + + + ",
"+ + + + + + + + + + + + + + + + + + + + + + + + ",
"+ + + + + + + + + + + + + + + + + + + + + + + + ",
"@ + @ @ + @ @ + @ + @ + @ + @ + @ + @ + @ + + + ",
"# $ % # $ # $ % # $ # $ % # # $ % # $ $ % # @ $ ",
"& & * & & & & * & & & & * & & & * & & & * & * $ ",
"= * - = * = * - ; > , ' ' , ) ! - = * * - * - & ",
"~ { { ~ { ~ { ] ^ / ( ( ( ( _ : < ~ { { { - ~ ~ ",
"[ [ } [ [ [ | 1 2 ( ( ( ( ( ( 3 1 ] [ [ } } } [ ",
"4 5 6 4 5 7 8 2 ( ( ( ( ( ( ( ( 3 : 9 5 6 [ 0 0 ",
"a b b a b c d ( ( ( ( ( ( ( ( ( ( _ e b b b f 5 ",
"g g h g g i ( ( ( ( ( ( ( ( ( ( ( ( , g h h g g ",
"j j g j j k ( ( ( ( ( ( ( ( ( ( ( ( ' j g j l m ",
"n n l n n ' ( ( ( ( ( ( ( ( ( ( ( ( o n l n l n ",
"p q q p q r ( ( ( ( ( ( ( ( ( ( ( ( , q q n s t ",
"t t t t t u _ ( ( ( ( ( ( ( ( ( ( _ v t t t t w ",
"x y z x y A B 3 ( ( ( ( ( ( ( ( 3 C D y z w t x ",
"x x E x x x F G 3 ( ( ( ( ( ( 3 G H x x E x x x ",
"I I E I I I I J B _ ( ( ( ( K L M I I I E N N x ",
"N O N N O N O N P Q R S S R T U N N O O N N V N ",
"V W W V W V W W V W V W W V V W W V W W W W W W ",
"X Y Z X Y X Y Z X Y X Y Z X X Y Z X Y Y Z ` W W ",
" . . . . . . . . . . . . . . . . . . . . .Z X  ."};
