/* XPM */
static char * close_active_xpm[] = {
"28 36 99 2",
"  	c None",
". 	c #323A3F",
"+ 	c #414B51",
"@ 	c #414B50",
"# 	c #414A50",
"$ 	c #404A50",
"% 	c #404950",
"& 	c #3F494F",
"* 	c #3F4D50",
"= 	c #388764",
"- 	c #2FAE77",
"; 	c #28C282",
"> 	c #26C984",
", 	c #2FAE78",
"' 	c #388665",
") 	c #398363",
"! 	c #28C382",
"~ 	c #27C483",
"{ 	c #26BE81",
"] 	c #27B77E",
"^ 	c #28B47D",
"/ 	c #26BE82",
"( 	c #26C483",
"_ 	c #398464",
": 	c #3F4B51",
"< 	c #32A171",
"[ 	c #27C884",
"} 	c #27BA7F",
"| 	c #28B27C",
"1 	c #26C885",
"2 	c #33A071",
"3 	c #3E494E",
"4 	c #32A170",
"5 	c #26C683",
"6 	c #32A16F",
"7 	c #3E484E",
"8 	c #388363",
"9 	c #26C884",
"0 	c #28B57D",
"a 	c #388263",
"b 	c #3D484D",
"c 	c #3D4A4F",
"d 	c #28C381",
"e 	c #3D4C4E",
"f 	c #3D474D",
"g 	c #368663",
"h 	c #378463",
"i 	c #3D474E",
"j 	c #2EAE78",
"k 	c #27BE82",
"l 	c #2EAE77",
"m 	c #28C281",
"n 	c #28B77E",
"o 	c #3C464D",
"p 	c #24C984",
"q 	c #25CA84",
"r 	c #3D474C",
"s 	c #25CA85",
"t 	c #3C464C",
"u 	c #27C280",
"v 	c #3B464B",
"w 	c #2DAE77",
"x 	c #27BF81",
"y 	c #2EAC75",
"z 	c #3C454B",
"A 	c #368563",
"B 	c #368363",
"C 	c #3B454B",
"D 	c #3B474D",
"E 	c #27C382",
"F 	c #27BB80",
"G 	c #27C381",
"H 	c #3B494C",
"I 	c #368362",
"J 	c #25C885",
"K 	c #25C884",
"L 	c #358061",
"M 	c #30A070",
"N 	c #26C583",
"O 	c #309F6F",
"P 	c #3A444A",
"Q 	c #3A464C",
"R 	c #30A06E",
"S 	c #309F6E",
"T 	c #3A454A",
"U 	c #358161",
"V 	c #27C281",
"W 	c #27C282",
"X 	c #357F60",
"Y 	c #3A484B",
"Z 	c #348461",
"` 	c #2EAC76",
" .	c #25C984",
"..	c #348262",
"+.	c #394349",
"@.	c #394449",
"#.	c #384348",
"$.	c #394348",
"%.	c #384248",
". . . . . . . . . . . . . . . . . . . . . . . . . . . . ",
"+ + + + + + + + + + + + + + + + + + + + + + + + + + + + ",
"+ + + + + + + + + + + + + + + + + + + + + + + + + + + + ",
"@ @ @ @ @ @ @ @ @ @ @ @ @ @ @ @ @ @ @ @ @ @ @ @ @ @ @ @ ",
"# # # # # # # # # # # # # # # # # # # # # # # # # # # # ",
"$ $ $ $ $ $ $ $ $ $ $ $ $ $ $ $ $ $ $ $ $ $ $ $ $ $ $ $ ",
"$ $ $ $ $ $ $ $ $ $ $ $ $ $ $ $ $ $ $ $ $ $ $ $ $ $ $ $ ",
"% % % % % % % % % % % % % % % % % % % % % % % % % % % % ",
"& & & & & & & & & * = - ; > > ; , ' * & & & & & & & & & ",
"& & & & & & & & ) ! ~ { ] ^ ^ ] / ( ! _ & & & & & & & & ",
"& & & & & & : < [ } | | | | | | | | } 1 2 : & & & & & & ",
"3 3 3 3 3 3 4 5 ^ | | | | | | | | | | ^ 5 6 3 3 3 3 3 3 ",
"7 7 7 7 7 8 9 ^ | | | | | | | | | | | | 0 9 a 7 7 7 7 7 ",
"b b b b c d } | | | | | | | | | | | | | | } d e b b b b ",
"f f f f g ~ | | | | | | | | | | | | | | | | ~ h f f f f ",
"i i i i j k | | | | | | | | | | | | | | | | / l i i i i ",
"f f f f m ] | | | | | | | | | | | | | | | | n m f f f f ",
"o o o o p ^ | | | | | | | | | | | | | | | | ^ q o o o o ",
"r r r r s ^ | | | | | | | | | | | | | | | | ^ > r r r r ",
"t t t t m ] | | | | | | | | | | | | | | | | n u t t t t ",
"v v v v w / | | | | | | | | | | | | | | | | x y v v v v ",
"z z z z A ( | | | | | | | | | | | | | | | | ~ B z z z z ",
"C C C C D E } | | | | | | | | | | | | | | F G H C C C C ",
"C C C C C I J 0 | | | | | | | | | | | | 0 K L C C C C C ",
"C C C C C C M N 0 | | | | | | | | | | 0 N O C C C C C C ",
"P P P P P P Q R K } | | | | | | | | } K S Q P P P P P P ",
"T T T T T T T T U V ( { ] ^ ^ n { ( W X T T T T T T T T ",
"P P P P P P P P P Y Z ` G  . .G ` ..Q P P P P P P P P P ",
"+.+.+.+.+.+.+.+.+.+.+.+.+.+.+.+.+.+.+.+.+.+.+.+.+.+.+.+.",
"@.@.@.@.@.@.@.@.@.@.@.@.@.@.@.@.@.@.@.@.@.@.@.@.@.@.@.@.",
"+.+.+.+.+.+.+.+.+.+.+.+.+.+.+.+.+.+.+.+.+.+.+.+.+.+.+.+.",
"+.+.+.+.+.+.+.+.+.+.+.+.+.+.+.+.+.+.+.+.+.+.+.+.+.+.+.+.",
"#.#.#.#.#.#.#.#.#.#.#.#.#.#.#.#.#.#.#.#.#.#.#.#.#.#.#.#.",
"$.$.$.$.$.$.$.$.$.$.$.$.$.$.$.$.$.$.$.$.$.$.$.$.$.$.$.$.",
"%.%.%.%.%.%.%.%.%.%.%.%.%.%.%.%.%.%.%.%.%.%.%.%.%.%.%.%.",
"%.%.%.%.%.%.%.%.%.%.%.%.%.%.%.%.%.%.%.%.%.%.%.%.%.%.%.%."};
