/* XPM */
static char * close_pressed_xpm[] = {
"28 36 132 2",
"  	c None",
". 	c #313133",
"+ 	c #4B5252",
"@ 	c #4B5251",
"# 	c #4A5251",
"$ 	c #4A5152",
"% 	c #4B5151",
"& 	c #4A5252",
"* 	c #4B5152",
"= 	c #4A5151",
"- 	c #495151",
"; 	c #4A5150",
"> 	c #495150",
", 	c #495050",
"' 	c #4A5051",
") 	c #4A5050",
"! 	c #495051",
"~ 	c #494F50",
"{ 	c #49504F",
"] 	c #495351",
"^ 	c #408965",
"/ 	c #34AF77",
"( 	c #2AC282",
"_ 	c #27C984",
": 	c #34AF78",
"< 	c #408966",
"[ 	c #495251",
"} 	c #484F4F",
"| 	c #494F4E",
"1 	c #408663",
"2 	c #29C382",
"3 	c #28C483",
"4 	c #26BE81",
"5 	c #27B77E",
"6 	c #28B47D",
"7 	c #26BE82",
"8 	c #27C483",
"9 	c #2AC382",
"0 	c #408664",
"a 	c #474F4F",
"b 	c #484E4E",
"c 	c #475151",
"d 	c #37A371",
"e 	c #27BA7F",
"f 	c #28B27C",
"g 	c #26C985",
"h 	c #38A171",
"i 	c #485151",
"j 	c #474E4E",
"k 	c #37A270",
"l 	c #27C683",
"m 	c #38A26F",
"n 	c #474D4E",
"o 	c #3F8563",
"p 	c #28B57D",
"q 	c #26C984",
"r 	c #3F8463",
"s 	c #474D4C",
"t 	c #464C4D",
"u 	c #464F4F",
"v 	c #2AC481",
"w 	c #B9E6D4",
"x 	c #CEEDE1",
"y 	c #39B886",
"z 	c #B8E6D4",
"A 	c #29C381",
"B 	c #47504D",
"C 	c #464D4D",
"D 	c #454C4C",
"E 	c #464C4C",
"F 	c #3D8863",
"G 	c #FFFFFF",
"H 	c #D7F1E7",
"I 	c #D3EFE4",
"J 	c #3D8662",
"K 	c #454C4B",
"L 	c #32AF77",
"M 	c #27BE82",
"N 	c #36B785",
"O 	c #D4F0E5",
"P 	c #D8F1E7",
"Q 	c #32AF76",
"R 	c #454B4B",
"S 	c #29C281",
"T 	c #DBF2E9",
"U 	c #28B77E",
"V 	c #2AC281",
"W 	c #444B4B",
"X 	c #444A4B",
"Y 	c #25C984",
"Z 	c #26CA84",
"` 	c #454B4A",
" .	c #444A4A",
"..	c #434A4A",
"+.	c #26CA85",
"@.	c #434A49",
"#.	c #DAF2E9",
"$.	c #29C280",
"%.	c #44494A",
"&.	c #434949",
"*.	c #31AE76",
"=.	c #27BF81",
"-.	c #32AC75",
";.	c #424948",
">.	c #424848",
",.	c #424849",
"'.	c #3B8662",
").	c #26C483",
"!.	c #CFEEE2",
"~.	c #3B8461",
"{.	c #424847",
"].	c #424A4A",
"^.	c #27BB80",
"/.	c #424C48",
"(.	c #414747",
"_.	c #424747",
":.	c #3A8360",
"<.	c #26C885",
"[.	c #26C884",
"}.	c #3A805F",
"|.	c #34A06F",
"1.	c #349F6E",
"2.	c #414949",
"3.	c #34A16D",
"4.	c #3A825F",
"5.	c #28C281",
"6.	c #3B805F",
"7.	c #414B48",
"8.	c #3A8460",
"9.	c #31AC76",
"0.	c #29C380",
"a.	c #3A8361",
". . . . . . . . . . . . . . . . . . . . . . . . . . . . ",
"+ + + + + + + + + + + + + + + + + + + + + + + + + + + + ",
"+ + + + + + + + + + + + + + + + + + + + + + + + + + + + ",
"+ + + + + + + + + + + + + + + + + + + + + + + + + + + + ",
"@ @ @ + # $ + @ % + % + @ & @ + # $ + @ @ @ @ @ * + @ @ ",
"% % % = * % @ $ $ = * # % = % = * % @ $ % = % = $ % % % ",
"- - - - ; > = , ' ' > ; ) ! - - ; > = , ; = = ; = = - - ",
"! ! ! , , ) , ! ) > , , , ) ! , , ) , ! ! , , , ) , ! ! ",
"~ ~ ~ { , ~ ~ ~ ~ ] ^ / ( _ _ ( : < [ ~ { , ~ ~ { , ~ ~ ",
"} } } | } } } } 1 2 3 4 5 6 6 5 7 8 9 0 | } } } | } } } ",
"a a a b } a c d _ e f f f f f f f f e g h i a a b } a a ",
"j j j j b j k l 6 f f f f f f f f f f 6 l m j j j b j j ",
"n n n n n o _ 6 f f f f f f f f f f f f p q r n n n n n ",
"s s s t u v e f f w x y f f f f y x z f f e A B t C s s ",
"D D D E F 8 f f f x G H y f f y H G I f f f 8 J E D D D ",
"K K K D L M f f f N O G P y N O G H y f f f 7 Q D D K K ",
"R R R R S 5 f f f f N O G T H G H y f f f f U V R W R R ",
"X X X W Y 6 f f f f f N H G G T y f f f f f 6 Z W ` X X ",
" . . ...+.6 f f f f f N H G G T y f f f f f 6 q .. . . .",
"......@.S 5 f f f f N O G #.H G P y f f f f U $.@.%.....",
"&.&.&.&.*.7 f f f N O G H y N O G P y f f f =.-.&.;.&.&.",
">.>.>.,.'.).f f f !.G H y f f y H G I f f f 8 ~.,.>.>.>.",
"{.{.{.>.].A e f f z I y f f f f y I z f f ^.A /.>.>.{.{.",
"(.(.(._._.:.<.p f f f f f f f f f f f f p [.}.(._._.(.(.",
"(.(.(.(.(.(.|.l p f f f f f f f f f f p l 1.(.(.(.(.(.(.",
"(.(.(.(.(.(.2.3.[.e f f f f f f f f e [.1.2.(.(.(.(.(.(.",
"(.(.(.(.(.(.(.(.4.5.8 4 5 6 6 U 4 8 S 6.(.(.(.(.(.(.(.(.",
"(.(.(.(.(.(.(.(.(.7.8.9.0.q q 0.9.a.2.(.(.(.(.(.(.(.(.(.",
"(.(.(.(.(.(.(.(.(.(.(.(.(.(.(.(.(.(.(.(.(.(.(.(.(.(.(.(.",
"(.(.(.(.(.(.(.(.(.(.(.(.(.(.(.(.(.(.(.(.(.(.(.(.(.(.(.(.",
"(.(.(.(.(.(.(.(.(.(.(.(.(.(.(.(.(.(.(.(.(.(.(.(.(.(.(.(.",
"(.(.(.(.(.(.(.(.(.(.(.(.(.(.(.(.(.(.(.(.(.(.(.(.(.(.(.(.",
"(.(.(.(.(.(.(.(.(.(.(.(.(.(.(.(.(.(.(.(.(.(.(.(.(.(.(.(.",
"(.(.(.(.(.(.(.(.(.(.(.(.(.(.(.(.(.(.(.(.(.(.(.(.(.(.(.(.",
"(.(.(.(.(.(.(.(.(.(.(.(.(.(.(.(.(.(.(.(.(.(.(.(.(.(.(.(.",
"(.(.(.(.(.(.(.(.(.(.(.(.(.(.(.(.(.(.(.(.(.(.(.(.(.(.(.(."};
