/* XPM */
static char * close_active_xpm[] = {
"28 36 158 2",
"  	c #323A3F",
". 	c #3F4C53",
"+ 	c #3F4C52",
"@ 	c #3E4C53",
"# 	c #3F4B53",
"$ 	c #3E4C52",
"% 	c #3E4B52",
"& 	c #3F4B52",
"* 	c #3E4B53",
"= 	c #3E4A52",
"- 	c #3D4A52",
"; 	c #3D4B51",
"> 	c #3D4B52",
", 	c #3E4B51",
"' 	c #3E4A51",
") 	c #3F4A50",
"! 	c #404950",
"~ 	c #3F4951",
"{ 	c #3D4A51",
"] 	c #3E4950",
"^ 	c #3F4D50",
"/ 	c #388764",
"( 	c #2FAE77",
"_ 	c #28C282",
": 	c #26C984",
"< 	c #2FAE78",
"[ 	c #388665",
"} 	c #398363",
"| 	c #28C382",
"1 	c #27C483",
"2 	c #26BE81",
"3 	c #27B77E",
"4 	c #28B47D",
"5 	c #26BE82",
"6 	c #26C483",
"7 	c #398464",
"8 	c #3D4A50",
"9 	c #3C4A51",
"0 	c #3D4951",
"a 	c #3F4B51",
"b 	c #32A171",
"c 	c #27C884",
"d 	c #27BA7F",
"e 	c #28B27C",
"f 	c #26C885",
"g 	c #33A071",
"h 	c #3C4951",
"i 	c #3C4950",
"j 	c #3E494F",
"k 	c #32A170",
"l 	c #26C683",
"m 	c #32A16F",
"n 	c #3C4A50",
"o 	c #3D4950",
"p 	c #3D484F",
"q 	c #388363",
"r 	c #26C884",
"s 	c #28B57D",
"t 	c #388263",
"u 	c #3B4950",
"v 	c #3C494F",
"w 	c #3D4A4F",
"x 	c #28C381",
"y 	c #3D4C4E",
"z 	c #3C4850",
"A 	c #3C484F",
"B 	c #368663",
"C 	c #378463",
"D 	c #3B494F",
"E 	c #3B4850",
"F 	c #3B484F",
"G 	c #3D474E",
"H 	c #2EAE78",
"I 	c #27BE82",
"J 	c #2EAE77",
"K 	c #3C474E",
"L 	c #3D474D",
"M 	c #28C281",
"N 	c #28B77E",
"O 	c #3A484F",
"P 	c #3C464D",
"Q 	c #24C984",
"R 	c #25CA84",
"S 	c #3B474F",
"T 	c #3A484E",
"U 	c #3D474C",
"V 	c #25CA85",
"W 	c #3A474E",
"X 	c #3A474F",
"Y 	c #3B474E",
"Z 	c #3C464C",
"` 	c #27C280",
" .	c #3A474D",
"..	c #3B464C",
"+.	c #2DAE77",
"@.	c #27BF81",
"#.	c #2EAC75",
"$.	c #39464E",
"%.	c #3B464D",
"&.	c #368563",
"*.	c #368363",
"=.	c #39474E",
"-.	c #39464D",
";.	c #3A464D",
">.	c #39474D",
",.	c #3B474D",
"'.	c #27C382",
").	c #27BB80",
"!.	c #27C381",
"~.	c #3B494C",
"{.	c #3A454C",
"].	c #368362",
"^.	c #25C885",
"/.	c #25C884",
"(.	c #358061",
"_.	c #39454D",
":.	c #30A070",
"<.	c #26C583",
"[.	c #309F6F",
"}.	c #38464D",
"|.	c #39454C",
"1.	c #38464C",
"2.	c #3A464C",
"3.	c #30A06E",
"4.	c #309F6E",
"5.	c #39464C",
"6.	c #38454C",
"7.	c #38454D",
"8.	c #39454B",
"9.	c #358161",
"0.	c #27C281",
"a.	c #27C282",
"b.	c #357F60",
"c.	c #3A454B",
"d.	c #39444B",
"e.	c #3A484B",
"f.	c #348461",
"g.	c #2EAC76",
"h.	c #25C984",
"i.	c #348262",
"j.	c #37454C",
"k.	c #37444B",
"l.	c #37454B",
"m.	c #38444A",
"n.	c #39434A",
"o.	c #394349",
"p.	c #39444A",
"q.	c #38454B",
"r.	c #38444C",
"s.	c #37444C",
"t.	c #38444B",
"u.	c #37444A",
"v.	c #37434B",
"w.	c #37434A",
"x.	c #36444B",
"y.	c #36444A",
"z.	c #36434B",
"A.	c #36434A",
"                                                        ",
". . . . . . . . . . . . . . . . . . . . . . . . . . . . ",
". . . + . . . + . . . . . @ . # $ # . . + . . + . + . + ",
"# @ . . # @ . . % + & . @ & & & % $ . + # & & @ # & . . ",
"% + @ % % + @ % $ & % + & @ $ # % # . & % & @ & $ % $ + ",
"% % % % % % % % % % % % % % * % % % % % % % % % % % % % ",
"% % = = % % = = % = % - % % ; ; % = > % > = , % % % % , ",
", = ; > , = ; > ; - ' ) ! ! ! ! ~ ' - { ; - { { - % ; { ",
"- ' { { - ' { { ] ^ / ( _ : : _ < [ ^ ] - { ' { - { ; { ",
"{ { { { { { { ] } | 1 2 3 4 4 3 5 6 | 7 ] { { { { { { 8 ",
"9 0 8 8 9 0 a b c d e e e e e e e e d f g , 0 { h { h h ",
"i { i i i j k l 4 e e e e e e e e e e 4 l m j n h o o h ",
"i h i i p q r 4 e e e e e e e e e e e e s r t p i o i i ",
"u v v v w x d e e e e e e e e e e e e e e d x y z z i z ",
"v A z A B 1 e e e e e e e e e e e e e e e e 1 C A D A E ",
"A v F G H I e e e e e e e e e e e e e e e e 5 J K F F F ",
"F F F L M 3 e e e e e e e e e e e e e e e e N M L F F F ",
"F O O P Q 4 e e e e e e e e e e e e e e e e 4 R P F F F ",
"S S T U V 4 e e e e e e e e e e e e e e e e 4 : U W X T ",
"T Y W Z M 3 e e e e e e e e e e e e e e e e N ` Z W T Y ",
"W W  ...+.5 e e e e e e e e e e e e e e e e @.#...W W W ",
" .W $.%.&.6 e e e e e e e e e e e e e e e e 1 *...W =.-.",
";.>. .>.,.'.d e e e e e e e e e e e e e e ).!.~.$.$.$.$.",
"-.-.-.-.{.].^.s e e e e e e e e e e e e s /.(.{.-.-.-.-.",
"-._._.-.-.{.:.<.s e e e e e e e e e e s <.[.{._.-.}.|.-.",
"}.}._.1.}.1.2.3./.d e e e e e e e e d /.4.2.5.}.6.6.}.7.",
"7.5.7.6.7.5.6.8.9.0.6 2 3 4 4 N 2 6 a.b.c.1.6.6.1.|.7.6.",
"6.6.6.6.6.6.6.6.d.e.f.g.!.h.h.!.g.i.2.d.6.6.6.6.6.6.6.6.",
"j.6.k.l.j.6.k.l.j.6.m.n.o.o.o.o.p.m.6.6.q.6.r.q.6.6.6.j.",
"s.l.j.6.s.l.j.6.j.6.q.t.6.r.l.6.j.t.l.6.s.k.6.l.k.t.k.s.",
"l.k.s.k.l.k.s.k.s.k.t.k.k.k.k.k.s.k.k.s.t.l.l.k.t.k.k.k.",
"k.k.k.k.k.k.k.k.k.k.k.k.u.k.k.v.k.u.k.k.v.w.k.u.k.k.k.v.",
"w.w.x.u.w.w.x.u.u.y.u.z.y.k.w.v.v.k.k.y.v.A.u.x.A.x.k.w.",
"x.A.w.y.x.A.w.y.v.v.w.z.A.x.z.w.u.z.z.A.A.x.y.A.w.k.A.A.",
"A.A.A.A.A.A.A.A.y.A.y.A.A.A.A.A.A.x.A.A.A.A.A.A.y.A.z.A.",
"A.A.A.A.A.A.A.A.A.A.A.A.A.A.A.A.A.A.A.A.A.A.A.A.A.A.A.A."};
