/* XPM */
static char * close_pressed_xpm[] = {
"28 36 110 2",
"  	c #323A3F",
". 	c #414B51",
"+ 	c #414B50",
"@ 	c #414A50",
"# 	c #404A50",
"$ 	c #404950",
"% 	c #3F494F",
"& 	c #3F5453",
"* 	c #3AAF7C",
"= 	c #37D892",
"- 	c #38E59C",
"; 	c #39E99F",
"> 	c #37D893",
", 	c #39AE7C",
"' 	c #3AAC7A",
") 	c #38E69C",
"! 	c #37DF99",
"~ 	c #30CB8C",
"{ 	c #2BBD82",
"] 	c #2AB77F",
"^ 	c #30CB8D",
"/ 	c #36DF98",
"( 	c #38E69D",
"_ 	c #39AC7A",
": 	c #3F4D53",
"< 	c #36CD8D",
"[ 	c #2DC286",
"} 	c #28B27C",
"| 	c #37E79D",
"1 	c #37CC8C",
"2 	c #3E494E",
"3 	c #36CD8C",
"4 	c #36E19A",
"5 	c #37E29A",
"6 	c #37CD8A",
"7 	c #3E484E",
"8 	c #38E79D",
"9 	c #39AA79",
"0 	c #3D484D",
"a 	c #3D5051",
"b 	c #39E79C",
"c 	c #BEE8D7",
"d 	c #D0EEE2",
"e 	c #39B886",
"f 	c #D5F0E5",
"g 	c #B9E6D4",
"h 	c #2EC386",
"i 	c #38E79B",
"j 	c #3D5351",
"k 	c #3D474D",
"l 	c #38AF7C",
"m 	c #CEEDE1",
"n 	c #FFFFFF",
"o 	c #D7F1E7",
"p 	c #D3EFE4",
"q 	c #36DF99",
"r 	c #38AC7A",
"s 	c #3D474E",
"t 	c #36D893",
"u 	c #36B785",
"v 	c #D4F0E5",
"w 	c #D8F1E7",
"x 	c #36D892",
"y 	c #38E49C",
"z 	c #2CBD83",
"A 	c #37E49B",
"B 	c #3C464D",
"C 	c #29B67E",
"D 	c #39EA9F",
"E 	c #3D474C",
"F 	c #3AEA9F",
"G 	c #29B77F",
"H 	c #3C464C",
"I 	c #37E59B",
"J 	c #3B464B",
"K 	c #30CC8C",
"L 	c #37D692",
"M 	c #3C454B",
"N 	c #37AE7B",
"O 	c #CFEEE2",
"P 	c #36E099",
"Q 	c #38AD7A",
"R 	c #3B454B",
"S 	c #3B4D4F",
"T 	c #38E79C",
"U 	c #B8E6D4",
"V 	c #2DC487",
"W 	c #3B5150",
"X 	c #37AC79",
"Y 	c #37A877",
"Z 	c #36CC8C",
"` 	c #36CC8B",
" .	c #3A444A",
"..	c #3A484E",
"+.	c #36CD8A",
"@.	c #35CB8A",
"#.	c #3A454A",
"$.	c #37AA78",
"%.	c #39E69C",
"&.	c #36A777",
"*.	c #3A504F",
"=.	c #36AC79",
"-.	c #36D692",
";.	c #37AC7A",
">.	c #3A4C4E",
",.	c #394349",
"'.	c #394449",
").	c #384348",
"!.	c #394348",
"~.	c #384248",
"                                                        ",
". . . . . . . . . . . . . . . . . . . . . . . . . . . . ",
". . . . . . . . . . . . . . . . . . . . . . . . . . . . ",
"+ + + + + + + + + + + + + + + + + + + + + + + + + + + + ",
"@ @ @ @ @ @ @ @ @ @ @ @ @ @ @ @ @ @ @ @ @ @ @ @ @ @ @ @ ",
"# # # # # # # # # # # # # # # # # # # # # # # # # # # # ",
"# # # # # # # # # # # # # # # # # # # # # # # # # # # # ",
"$ $ $ $ $ $ $ $ $ $ $ $ $ $ $ $ $ $ $ $ $ $ $ $ $ $ $ $ ",
"% % % % % % % % % & * = - ; ; - > , & % % % % % % % % % ",
"% % % % % % % % ' ) ! ~ { ] ] { ^ / ( _ % % % % % % % % ",
"% % % % % % : < ( [ } } } } } } } } [ | 1 : % % % % % % ",
"2 2 2 2 2 2 3 4 ] } } } } } } } } } } ] 5 6 2 2 2 2 2 2 ",
"7 7 7 7 7 _ ( ] } } } } } } } } } } } } ] 8 9 7 7 7 7 7 ",
"0 0 0 0 a b [ } } c d e } } } } e f g } } h i j 0 0 0 0 ",
"k k k k l ! } } } m n o e } } e o n p } } } q r k k k k ",
"s s s s t ~ } } } u v n w e u v n o e } } } ^ x s s s s ",
"k k k k y { } } } } e o n o o n o e } } } } z A k k k k ",
"B B B B ; C } } } } } u v n n o e } } } } } ] D B B B B ",
"E E E E F G } } } } } u v n n w e } } } } } ] ; E E E E ",
"H H H H y { } } } } e o n o o n o e } } } } z I H H H H ",
"J J J J > ^ } } } u v n o e u v n w e } } } K L J J J J ",
"M M M M N / } } } O n o e } } e o n p } } } P Q M M M M ",
"R R R R S T [ } } U p e } } } } e p U } } V b W R R R R ",
"R R R R R X | ] } } } } } } } } } } } } ] ) Y R R R R R ",
"R R R R R R Z 5 ] } } } } } } } } } } ] 5 ` R R R R R R ",
" . . . . . ...+.8 h } } } } } } } } h ) @... . . . . . .",
"#.#.#.#.#.#.#.#.$.%.q ~ z ] ] z ~ P - &.#.#.#.#.#.#.#.#.",
" . . . . . . . . .*.=.-.- ; ; - -.;.>. . . . . . . . . .",
",.,.,.,.,.,.,.,.,.,.,.,.,.,.,.,.,.,.,.,.,.,.,.,.,.,.,.,.",
"'.'.'.'.'.'.'.'.'.'.'.'.'.'.'.'.'.'.'.'.'.'.'.'.'.'.'.'.",
",.,.,.,.,.,.,.,.,.,.,.,.,.,.,.,.,.,.,.,.,.,.,.,.,.,.,.,.",
",.,.,.,.,.,.,.,.,.,.,.,.,.,.,.,.,.,.,.,.,.,.,.,.,.,.,.,.",
").).).).).).).).).).).).).).).).).).).).).).).).).).).).",
"!.!.!.!.!.!.!.!.!.!.!.!.!.!.!.!.!.!.!.!.!.!.!.!.!.!.!.!.",
"~.~.~.~.~.~.~.~.~.~.~.~.~.~.~.~.~.~.~.~.~.~.~.~.~.~.~.~.",
"~.~.~.~.~.~.~.~.~.~.~.~.~.~.~.~.~.~.~.~.~.~.~.~.~.~.~.~."};
