/* XPM */
static char * close_active_xpm[] = {
"24 24 93 2",
"  	c None",
". 	c #313133",
"+ 	c #4B5252",
"@ 	c #4B5151",
"# 	c #4A5152",
"$ 	c #4A5151",
"% 	c #4B5152",
"& 	c #4A5051",
"* 	c #495150",
"= 	c #4A5050",
"- 	c #495050",
"; 	c #476056",
"> 	c #39A572",
", 	c #2DBC7E",
"' 	c #2BBF80",
") 	c #38A472",
"! 	c #476256",
"~ 	c #494F50",
"{ 	c #49504F",
"] 	c #3F8C66",
"^ 	c #2AC081",
"/ 	c #27B87F",
"( 	c #28B37C",
"_ 	c #28B27C",
": 	c #26B87F",
"< 	c #2AC080",
"[ 	c #3F8A65",
"} 	c #484F4F",
"| 	c #494F4F",
"1 	c #3F8B65",
"2 	c #2ABF80",
"3 	c #28B37D",
"4 	c #2ABF81",
"5 	c #484F4E",
"6 	c #484E4E",
"7 	c #474F4E",
"8 	c #465F54",
"9 	c #466055",
"0 	c #484E4F",
"a 	c #474D4E",
"b 	c #474E4E",
"c 	c #37A573",
"d 	c #27B77F",
"e 	c #38A371",
"f 	c #484D4E",
"g 	c #474D4D",
"h 	c #474E4D",
"i 	c #2CBE7E",
"j 	c #2DBC7F",
"k 	c #464D4D",
"l 	c #2ABE80",
"m 	c #464D4C",
"n 	c #474D4C",
"o 	c #464C4C",
"p 	c #464C4B",
"q 	c #454C4C",
"r 	c #2CBC7D",
"s 	c #2CBC7E",
"t 	c #454C4B",
"u 	c #454B4B",
"v 	c #36A371",
"w 	c #36A171",
"x 	c #444B4B",
"y 	c #444A4A",
"z 	c #444B4A",
"A 	c #444A4B",
"B 	c #435E51",
"C 	c #29C080",
"D 	c #29BF80",
"E 	c #425C50",
"F 	c #444A49",
"G 	c #3C8762",
"H 	c #28BF80",
"I 	c #3C8763",
"J 	c #434A49",
"K 	c #3B8862",
"L 	c #27B880",
"M 	c #3B8663",
"N 	c #434949",
"O 	c #434948",
"P 	c #405B50",
"Q 	c #35A370",
"R 	c #2BBC7D",
"S 	c #2ABF7F",
"T 	c #35A270",
"U 	c #425D50",
"V 	c #424949",
"W 	c #424848",
"X 	c #424747",
"Y 	c #414847",
"Z 	c #414748",
"` 	c #424748",
" .	c #414747",
". . . . . . . . . . . . . . . . . . . . . . . . ",
"+ + + + + + + + + + + + + + + + + + + + + + + + ",
"+ + + + + + + + + + + + + + + + + + + + + + + + ",
"+ + + + + + + + + + + + + + + + + + + + + + + + ",
"@ + @ @ + @ @ + @ + @ + @ + @ + @ + @ + @ + + + ",
"# $ % # $ % # $ # $ # $ # $ # $ # $ # $ % # @ $ ",
"& & * & & * & & & & & & & & & & & & & & * & * $ ",
"= * - = * * - * ; > , ' ' , ) ! * - & * - * - & ",
"~ { { ~ { { { ] ^ / ( _ _ ( : < [ ~ ~ { { - ~ ~ ",
"} } | } } } 1 2 3 _ _ _ _ _ _ ( 4 [ } } | | | } ",
"5 6 7 5 6 8 ^ 3 _ _ _ _ _ _ _ _ ( < 9 6 7 } 0 0 ",
"a b b a b c d _ _ _ _ _ _ _ _ _ _ : e b b b f 6 ",
"g g h g g i ( _ _ _ _ _ _ _ _ _ _ ( j g h h g g ",
"k k g k k l _ _ _ _ _ _ _ _ _ _ _ _ ' k g k m n ",
"o o m o o ' _ _ _ _ _ _ _ _ _ _ _ _ ' o m o m o ",
"p q q p q r ( _ _ _ _ _ _ _ _ _ _ ( s q q o t u ",
"u u u u u v : _ _ _ _ _ _ _ _ _ _ / w u u u u x ",
"y z A y z B C ( _ _ _ _ _ _ _ _ ( D E z A x u y ",
"y y F y y y G D ( _ _ _ _ _ _ ( H I y y F y y y ",
"J J F J J J F K C : ( _ _ ( L C M N y J F N N y ",
"N O N N O O N N P Q R S S R T U N V N O N N V N ",
"V W W V W W W W W W W W W W W W W W W W W W W W ",
"X Y Z X Y Z X Y X Y X Y X Y X Y X Y X Y Z ` W W ",
" . . . . . . . . . . . . . . . . . . . . .Z X  ."};
