/* XPM */
static char * close_pressed_xpm[] = {
"24 24 102 2",
"  	c None",
". 	c #313133",
"+ 	c #4B5252",
"@ 	c #4B5151",
"# 	c #4A5152",
"$ 	c #4A5151",
"% 	c #4B5152",
"& 	c #4A5051",
"* 	c #495150",
"= 	c #4A5050",
"- 	c #495050",
"; 	c #476056",
"> 	c #39A572",
", 	c #2DBC7E",
"' 	c #2BBF80",
") 	c #38A472",
"! 	c #476256",
"~ 	c #494F50",
"{ 	c #49504F",
"] 	c #3F8C66",
"^ 	c #2AC081",
"/ 	c #27B87F",
"( 	c #28B37C",
"_ 	c #28B27C",
": 	c #26B87F",
"< 	c #2AC080",
"[ 	c #3F8A65",
"} 	c #484F4F",
"| 	c #494F4F",
"1 	c #3F8B65",
"2 	c #2ABF80",
"3 	c #28B37D",
"4 	c #2ABF81",
"5 	c #484F4E",
"6 	c #484E4E",
"7 	c #474F4E",
"8 	c #465F54",
"9 	c #40BA8A",
"0 	c #6FCBA7",
"a 	c #466055",
"b 	c #484E4F",
"c 	c #474D4E",
"d 	c #474E4E",
"e 	c #37A573",
"f 	c #27B77F",
"g 	c #70CCA8",
"h 	c #FFFFFF",
"i 	c #8FD7BB",
"j 	c #38A371",
"k 	c #484D4E",
"l 	c #474D4D",
"m 	c #474E4D",
"n 	c #2CBE7E",
"o 	c #8AD5B8",
"p 	c #91D8BC",
"q 	c #8BD5B8",
"r 	c #91D7BC",
"s 	c #2DBC7F",
"t 	c #464D4D",
"u 	c #2ABE80",
"v 	c #464D4C",
"w 	c #474D4C",
"x 	c #464C4C",
"y 	c #464C4B",
"z 	c #454C4C",
"A 	c #2CBC7D",
"B 	c #2CBC7E",
"C 	c #454C4B",
"D 	c #454B4B",
"E 	c #36A371",
"F 	c #36A171",
"G 	c #444B4B",
"H 	c #444A4A",
"I 	c #444B4A",
"J 	c #444A4B",
"K 	c #435E51",
"L 	c #29C080",
"M 	c #29BF80",
"N 	c #425C50",
"O 	c #444A49",
"P 	c #3C8762",
"Q 	c #28BF80",
"R 	c #3C8763",
"S 	c #434A49",
"T 	c #3B8862",
"U 	c #27B880",
"V 	c #3B8663",
"W 	c #434949",
"X 	c #434948",
"Y 	c #405B50",
"Z 	c #35A370",
"` 	c #2BBC7D",
" .	c #2ABF7F",
"..	c #35A270",
"+.	c #425D50",
"@.	c #424949",
"#.	c #424848",
"$.	c #424747",
"%.	c #414847",
"&.	c #414748",
"*.	c #424748",
"=.	c #414747",
". . . . . . . . . . . . . . . . . . . . . . . . ",
"+ + + + + + + + + + + + + + + + + + + + + + + + ",
"+ + + + + + + + + + + + + + + + + + + + + + + + ",
"+ + + + + + + + + + + + + + + + + + + + + + + + ",
"@ + @ @ + @ @ + @ + @ + @ + @ + @ + @ + @ + + + ",
"# $ % # $ % # $ # $ # $ # $ # $ # $ # $ % # @ $ ",
"& & * & & * & & & & & & & & & & & & & & * & * $ ",
"= * - = * * - * ; > , ' ' , ) ! * - & * - * - & ",
"~ { { ~ { { { ] ^ / ( _ _ ( : < [ ~ ~ { { - ~ ~ ",
"} } | } } } 1 2 3 _ _ _ _ _ _ ( 4 [ } } | | | } ",
"5 6 7 5 6 8 ^ 3 9 0 _ _ _ _ 0 9 ( < a 6 7 } b b ",
"c d d c d e f _ g h i _ _ i h g _ : j d d d k 6 ",
"l l m l l n ( _ _ o h p q h r _ _ ( s l m m l l ",
"t t l t t u _ _ _ _ o h h r _ _ _ _ ' t l t v w ",
"x x v x x ' _ _ _ _ q h h p _ _ _ _ ' x v x v x ",
"y z z y z A ( _ _ q h r o h p _ _ ( B z z x C D ",
"D D D D D E : _ g h i _ _ i h g _ / F D D D D G ",
"H I J H I K L ( 9 0 _ _ _ _ 0 9 ( M N I J G D H ",
"H H O H H H P M ( _ _ _ _ _ _ ( Q R H H O H H H ",
"S S O S S S O T L : ( _ _ ( U L V W H S O W W H ",
"W X W W X X W W Y Z `  . .` ..+.W @.W X W W @.W ",
"@.#.#.@.#.#.#.#.#.#.#.#.#.#.#.#.#.#.#.#.#.#.#.#.",
"$.%.&.$.%.&.$.%.$.%.$.%.$.%.$.%.$.%.$.%.&.*.#.#.",
"=.=.=.=.=.=.=.=.=.=.=.=.=.=.=.=.=.=.=.=.=.&.$.=."};
