/* XPM */
static char * close_pressed_xpm[] = {
"28 36 112 2",
"  	c None",
". 	c #323A3F",
"+ 	c #414B51",
"@ 	c #414B50",
"# 	c #414A50",
"$ 	c #404A50",
"% 	c #404950",
"& 	c #3F494F",
"* 	c #3F4D50",
"= 	c #388764",
"- 	c #2FAE77",
"; 	c #28C282",
"> 	c #26C984",
", 	c #2FAE78",
"' 	c #388665",
") 	c #398363",
"! 	c #28C382",
"~ 	c #27C483",
"{ 	c #26BE81",
"] 	c #27B77E",
"^ 	c #28B47D",
"/ 	c #26BE82",
"( 	c #26C483",
"_ 	c #398464",
": 	c #3F4B51",
"< 	c #32A171",
"[ 	c #27C884",
"} 	c #27BA7F",
"| 	c #28B27C",
"1 	c #26C885",
"2 	c #33A071",
"3 	c #3E494E",
"4 	c #32A170",
"5 	c #26C683",
"6 	c #32A16F",
"7 	c #3E484E",
"8 	c #388363",
"9 	c #26C884",
"0 	c #28B57D",
"a 	c #388263",
"b 	c #3D484D",
"c 	c #3D4A4F",
"d 	c #28C381",
"e 	c #B9E6D4",
"f 	c #CEEDE1",
"g 	c #39B886",
"h 	c #B8E6D4",
"i 	c #3D4C4E",
"j 	c #3D474D",
"k 	c #368663",
"l 	c #FFFFFF",
"m 	c #D7F1E7",
"n 	c #D3EFE4",
"o 	c #378463",
"p 	c #3D474E",
"q 	c #2EAE78",
"r 	c #27BE82",
"s 	c #36B785",
"t 	c #D4F0E5",
"u 	c #D8F1E7",
"v 	c #2EAE77",
"w 	c #28C281",
"x 	c #DBF2E9",
"y 	c #28B77E",
"z 	c #3C464D",
"A 	c #24C984",
"B 	c #25CA84",
"C 	c #3D474C",
"D 	c #25CA85",
"E 	c #3C464C",
"F 	c #DAF2E9",
"G 	c #27C280",
"H 	c #3B464B",
"I 	c #2DAE77",
"J 	c #27BF81",
"K 	c #2EAC75",
"L 	c #3C454B",
"M 	c #368563",
"N 	c #CFEEE2",
"O 	c #368363",
"P 	c #3B454B",
"Q 	c #3B474D",
"R 	c #27C382",
"S 	c #27BB80",
"T 	c #27C381",
"U 	c #3B494C",
"V 	c #368362",
"W 	c #25C885",
"X 	c #25C884",
"Y 	c #358061",
"Z 	c #30A070",
"` 	c #26C583",
" .	c #309F6F",
"..	c #3A444A",
"+.	c #3A464C",
"@.	c #30A06E",
"#.	c #309F6E",
"$.	c #3A454A",
"%.	c #358161",
"&.	c #27C281",
"*.	c #27C282",
"=.	c #357F60",
"-.	c #3A484B",
";.	c #348461",
">.	c #2EAC76",
",.	c #25C984",
"'.	c #348262",
").	c #394349",
"!.	c #394449",
"~.	c #384348",
"{.	c #394348",
"].	c #384248",
". . . . . . . . . . . . . . . . . . . . . . . . . . . . ",
"+ + + + + + + + + + + + + + + + + + + + + + + + + + + + ",
"+ + + + + + + + + + + + + + + + + + + + + + + + + + + + ",
"@ @ @ @ @ @ @ @ @ @ @ @ @ @ @ @ @ @ @ @ @ @ @ @ @ @ @ @ ",
"# # # # # # # # # # # # # # # # # # # # # # # # # # # # ",
"$ $ $ $ $ $ $ $ $ $ $ $ $ $ $ $ $ $ $ $ $ $ $ $ $ $ $ $ ",
"$ $ $ $ $ $ $ $ $ $ $ $ $ $ $ $ $ $ $ $ $ $ $ $ $ $ $ $ ",
"% % % % % % % % % % % % % % % % % % % % % % % % % % % % ",
"& & & & & & & & & * = - ; > > ; , ' * & & & & & & & & & ",
"& & & & & & & & ) ! ~ { ] ^ ^ ] / ( ! _ & & & & & & & & ",
"& & & & & & : < [ } | | | | | | | | } 1 2 : & & & & & & ",
"3 3 3 3 3 3 4 5 ^ | | | | | | | | | | ^ 5 6 3 3 3 3 3 3 ",
"7 7 7 7 7 8 9 ^ | | | | | | | | | | | | 0 9 a 7 7 7 7 7 ",
"b b b b c d } | | e f g | | | | g f h | | } d i b b b b ",
"j j j j k ~ | | | f l m g | | g m l n | | | ~ o j j j j ",
"p p p p q r | | | s t l u g s t l m g | | | / v p p p p ",
"j j j j w ] | | | | s t l x m l m g | | | | y w j j j j ",
"z z z z A ^ | | | | | s m l l x g | | | | | ^ B z z z z ",
"C C C C D ^ | | | | | s m l l x g | | | | | ^ > C C C C ",
"E E E E w ] | | | | s t l F m l u g | | | | y G E E E E ",
"H H H H I / | | | s t l m g s t l u g | | | J K H H H H ",
"L L L L M ( | | | N l m g | | g m l n | | | ~ O L L L L ",
"P P P P Q R } | | h n g | | | | g n h | | S T U P P P P ",
"P P P P P V W 0 | | | | | | | | | | | | 0 X Y P P P P P ",
"P P P P P P Z ` 0 | | | | | | | | | | 0 `  .P P P P P P ",
"............+.@.X } | | | | | | | | } X #.+.............",
"$.$.$.$.$.$.$.$.%.&.( { ] ^ ^ y { ( *.=.$.$.$.$.$.$.$.$.",
"..................-.;.>.T ,.,.T >.'.+...................",
").).).).).).).).).).).).).).).).).).).).).).).).).).).).",
"!.!.!.!.!.!.!.!.!.!.!.!.!.!.!.!.!.!.!.!.!.!.!.!.!.!.!.!.",
").).).).).).).).).).).).).).).).).).).).).).).).).).).).",
").).).).).).).).).).).).).).).).).).).).).).).).).).).).",
"~.~.~.~.~.~.~.~.~.~.~.~.~.~.~.~.~.~.~.~.~.~.~.~.~.~.~.~.",
"{.{.{.{.{.{.{.{.{.{.{.{.{.{.{.{.{.{.{.{.{.{.{.{.{.{.{.{.",
"].].].].].].].].].].].].].].].].].].].].].].].].].].].].",
"].].].].].].].].].].].].].].].].].].].].].].].].].].].]."};
