/* XPM */
static char * close_pressed_xpm[] = {
"24 24 102 2",
"  	c None",
". 	c #313133",
"+ 	c #4B5252",
"@ 	c #4B5151",
"# 	c #4A5152",
"$ 	c #4A5151",
"% 	c #4B5152",
"& 	c #4A5051",
"* 	c #495150",
"= 	c #4A5050",
"- 	c #495050",
"; 	c #4A6C5B",
"> 	c #44C88C",
", 	c #42E89E",
"' 	c #42EB9F",
") 	c #45C78B",
"! 	c #496B5A",
"~ 	c #494F50",
"{ 	c #49504F",
"] 	c #46A578",
"^ 	c #42ECA1",
"/ 	c #42E190",
"( 	c #41D985",
"_ 	c #41E290",
": 	c #42EDA2",
"< 	c #47A578",
"[ 	c #484F4F",
"} 	c #494F4F",
"| 	c #45A578",
"1 	c #42EB9D",
"2 	c #41DA85",
"3 	c #41DA86",
"4 	c #484F4E",
"5 	c #484E4E",
"6 	c #474F4E",
"7 	c #486B5A",
"8 	c #42ECA0",
"9 	c #56DD92",
"0 	c #80E6AD",
"a 	c #486959",
"b 	c #484E4F",
"c 	c #474D4E",
"d 	c #474E4E",
"e 	c #44C88B",
"f 	c #41E28F",
"g 	c #80E6AE",
"h 	c #FFFFFF",
"i 	c #9CEBBF",
"j 	c #44C68C",
"k 	c #484D4E",
"l 	c #474D4D",
"m 	c #474E4D",
"n 	c #41E89F",
"o 	c #97EABC",
"p 	c #9EECC1",
"q 	c #98EABD",
"r 	c #9DEBC0",
"s 	c #464D4D",
"t 	c #42EA9E",
"u 	c #464D4C",
"v 	c #474D4C",
"w 	c #464C4C",
"x 	c #42EA9F",
"y 	c #464C4B",
"z 	c #454C4C",
"A 	c #41E89E",
"B 	c #454C4B",
"C 	c #454B4B",
"D 	c #42C68A",
"E 	c #43C58A",
"F 	c #444B4B",
"G 	c #444A4A",
"H 	c #444B4A",
"I 	c #444A4B",
"J 	c #446656",
"K 	c #41EDA2",
"L 	c #40EDA0",
"M 	c #446657",
"N 	c #444A49",
"O 	c #44A375",
"P 	c #41EB9D",
"Q 	c #43A276",
"R 	c #434A49",
"S 	c #43A476",
"T 	c #42E290",
"U 	c #41EDA0",
"V 	c #43A275",
"W 	c #434949",
"X 	c #434948",
"Y 	c #436756",
"Z 	c #41C689",
"` 	c #40E89E",
" .	c #41EA9F",
"..	c #42C68B",
"+.	c #436654",
"@.	c #424949",
"#.	c #424848",
"$.	c #424747",
"%.	c #414847",
"&.	c #414748",
"*.	c #424748",
"=.	c #414747",
". . . . . . . . . . . . . . . . . . . . . . . . ",
"+ + + + + + + + + + + + + + + + + + + + + + + + ",
"+ + + + + + + + + + + + + + + + + + + + + + + + ",
"+ + + + + + + + + + + + + + + + + + + + + + + + ",
"@ + @ @ + @ @ + @ + @ + @ + @ + @ + @ + @ + + + ",
"# $ % # $ # $ % # $ # $ % # # $ % # $ $ % # @ $ ",
"& & * & & & & * & & & & * & & & * & & & * & * $ ",
"= * - = * = * - ; > , ' ' , ) ! - = * * - * - & ",
"~ { { ~ { ~ { ] ^ / ( ( ( ( _ : < ~ { { { - ~ ~ ",
"[ [ } [ [ [ | 1 2 ( ( ( ( ( ( 3 1 ] [ [ } } } [ ",
"4 5 6 4 5 7 8 2 9 0 ( ( ( ( 0 9 3 : a 5 6 [ b b ",
"c d d c d e f ( g h i ( ( i h g ( _ j d d d k 5 ",
"l l m l l n ( ( ( o h p q h r ( ( ( , l m m l l ",
"s s l s s t ( ( ( ( o h h r ( ( ( ( ' s l s u v ",
"w w u w w ' ( ( ( ( q h h p ( ( ( ( x w u w u w ",
"y z z y z A ( ( ( q h r o h p ( ( ( , z z w B C ",
"C C C C C D _ ( g h i ( ( i h g ( _ E C C C C F ",
"G H I G H J K 3 9 0 ( ( ( ( 0 9 3 L M H I F C G ",
"G G N G G G O P 3 ( ( ( ( ( ( 3 P Q G G N G G G ",
"R R N R R R R S K _ ( ( ( ( T U V R R R N W W G ",
"W X W W X W X W Y Z `  . .` ..+.W W X X W W @.W ",
"@.#.#.@.#.@.#.#.@.#.@.#.#.@.@.#.#.@.#.#.#.#.#.#.",
"$.%.&.$.%.$.%.&.$.%.$.%.&.$.$.%.&.$.%.%.&.*.#.#.",
"=.=.=.=.=.=.=.=.=.=.=.=.=.=.=.=.=.=.=.=.=.&.$.=."};
