/* XPM */
static char * close_active_xpm[] = {
"28 36 96 2",
"  	c #323A3F",
". 	c #414B51",
"+ 	c #414B50",
"@ 	c #414A50",
"# 	c #404A50",
"$ 	c #404950",
"% 	c #3F494F",
"& 	c #3F5453",
"* 	c #3AAF7C",
"= 	c #37D892",
"- 	c #38E59C",
"; 	c #39E99F",
"> 	c #37D893",
", 	c #39AE7C",
"' 	c #3AAC7A",
") 	c #38E69C",
"! 	c #37DF99",
"~ 	c #30CB8C",
"{ 	c #2BBD82",
"] 	c #2AB77F",
"^ 	c #30CB8D",
"/ 	c #36DF98",
"( 	c #38E69D",
"_ 	c #39AC7A",
": 	c #3F4D53",
"< 	c #36CD8D",
"[ 	c #2DC286",
"} 	c #28B27C",
"| 	c #37E79D",
"1 	c #37CC8C",
"2 	c #3E494E",
"3 	c #36CD8C",
"4 	c #36E19A",
"5 	c #37E29A",
"6 	c #37CD8A",
"7 	c #3E484E",
"8 	c #38E79D",
"9 	c #39AA79",
"0 	c #3D484D",
"a 	c #3D5051",
"b 	c #39E79C",
"c 	c #2EC386",
"d 	c #38E79B",
"e 	c #3D5351",
"f 	c #3D474D",
"g 	c #38AF7C",
"h 	c #36DF99",
"i 	c #38AC7A",
"j 	c #3D474E",
"k 	c #36D893",
"l 	c #36D892",
"m 	c #38E49C",
"n 	c #2CBD83",
"o 	c #37E49B",
"p 	c #3C464D",
"q 	c #29B67E",
"r 	c #39EA9F",
"s 	c #3D474C",
"t 	c #3AEA9F",
"u 	c #29B77F",
"v 	c #3C464C",
"w 	c #37E59B",
"x 	c #3B464B",
"y 	c #30CC8C",
"z 	c #37D692",
"A 	c #3C454B",
"B 	c #37AE7B",
"C 	c #36E099",
"D 	c #38AD7A",
"E 	c #3B454B",
"F 	c #3B4D4F",
"G 	c #38E79C",
"H 	c #2DC487",
"I 	c #3B5150",
"J 	c #37AC79",
"K 	c #37A877",
"L 	c #36CC8C",
"M 	c #36CC8B",
"N 	c #3A444A",
"O 	c #3A484E",
"P 	c #36CD8A",
"Q 	c #35CB8A",
"R 	c #3A454A",
"S 	c #37AA78",
"T 	c #39E69C",
"U 	c #36A777",
"V 	c #3A504F",
"W 	c #36AC79",
"X 	c #36D692",
"Y 	c #37AC7A",
"Z 	c #3A4C4E",
"` 	c #394349",
" .	c #394449",
"..	c #384348",
"+.	c #394348",
"@.	c #384248",
"                                                        ",
". . . . . . . . . . . . . . . . . . . . . . . . . . . . ",
". . . . . . . . . . . . . . . . . . . . . . . . . . . . ",
"+ + + + + + + + + + + + + + + + + + + + + + + + + + + + ",
"@ @ @ @ @ @ @ @ @ @ @ @ @ @ @ @ @ @ @ @ @ @ @ @ @ @ @ @ ",
"# # # # # # # # # # # # # # # # # # # # # # # # # # # # ",
"# # # # # # # # # # # # # # # # # # # # # # # # # # # # ",
"$ $ $ $ $ $ $ $ $ $ $ $ $ $ $ $ $ $ $ $ $ $ $ $ $ $ $ $ ",
"% % % % % % % % % & * = - ; ; - > , & % % % % % % % % % ",
"% % % % % % % % ' ) ! ~ { ] ] { ^ / ( _ % % % % % % % % ",
"% % % % % % : < ( [ } } } } } } } } [ | 1 : % % % % % % ",
"2 2 2 2 2 2 3 4 ] } } } } } } } } } } ] 5 6 2 2 2 2 2 2 ",
"7 7 7 7 7 _ ( ] } } } } } } } } } } } } ] 8 9 7 7 7 7 7 ",
"0 0 0 0 a b [ } } } } } } } } } } } } } } c d e 0 0 0 0 ",
"f f f f g ! } } } } } } } } } } } } } } } } h i f f f f ",
"j j j j k ~ } } } } } } } } } } } } } } } } ^ l j j j j ",
"f f f f m { } } } } } } } } } } } } } } } } n o f f f f ",
"p p p p ; q } } } } } } } } } } } } } } } } ] r p p p p ",
"s s s s t u } } } } } } } } } } } } } } } } ] ; s s s s ",
"v v v v m { } } } } } } } } } } } } } } } } n w v v v v ",
"x x x x > ^ } } } } } } } } } } } } } } } } y z x x x x ",
"A A A A B / } } } } } } } } } } } } } } } } C D A A A A ",
"E E E E F G [ } } } } } } } } } } } } } } H b I E E E E ",
"E E E E E J | ] } } } } } } } } } } } } ] ) K E E E E E ",
"E E E E E E L 5 ] } } } } } } } } } } ] 5 M E E E E E E ",
"N N N N N N O P 8 c } } } } } } } } c ) Q O N N N N N N ",
"R R R R R R R R S T h ~ n ] ] n ~ C - U R R R R R R R R ",
"N N N N N N N N N V W X - ; ; - X Y Z N N N N N N N N N ",
"` ` ` ` ` ` ` ` ` ` ` ` ` ` ` ` ` ` ` ` ` ` ` ` ` ` ` ` ",
" . . . . . . . . . . . . . . . . . . . . . . . . . . . .",
"` ` ` ` ` ` ` ` ` ` ` ` ` ` ` ` ` ` ` ` ` ` ` ` ` ` ` ` ",
"` ` ` ` ` ` ` ` ` ` ` ` ` ` ` ` ` ` ` ` ` ` ` ` ` ` ` ` ",
"........................................................",
"+.+.+.+.+.+.+.+.+.+.+.+.+.+.+.+.+.+.+.+.+.+.+.+.+.+.+.+.",
"@.@.@.@.@.@.@.@.@.@.@.@.@.@.@.@.@.@.@.@.@.@.@.@.@.@.@.@.",
"@.@.@.@.@.@.@.@.@.@.@.@.@.@.@.@.@.@.@.@.@.@.@.@.@.@.@.@."};
