/* XPM */
static char * close_pressed_xpm[] = {
"28 36 171 2",
"  	c #323A3F",
". 	c #3F4C53",
"+ 	c #3F4C52",
"@ 	c #3E4C53",
"# 	c #3F4B53",
"$ 	c #3E4C52",
"% 	c #3E4B52",
"& 	c #3F4B52",
"* 	c #3E4B53",
"= 	c #3E4A52",
"- 	c #3D4A52",
"; 	c #3D4B51",
"> 	c #3D4B52",
", 	c #3E4B51",
"' 	c #3E4A51",
") 	c #3F4A50",
"! 	c #404950",
"~ 	c #3F4951",
"{ 	c #3D4A51",
"] 	c #3E4950",
"^ 	c #3F4D50",
"/ 	c #388764",
"( 	c #2FAE77",
"_ 	c #28C282",
": 	c #26C984",
"< 	c #2FAE78",
"[ 	c #388665",
"} 	c #398363",
"| 	c #28C382",
"1 	c #27C483",
"2 	c #26BE81",
"3 	c #27B77E",
"4 	c #28B47D",
"5 	c #26BE82",
"6 	c #26C483",
"7 	c #398464",
"8 	c #3D4A50",
"9 	c #3C4A51",
"0 	c #3D4951",
"a 	c #3F4B51",
"b 	c #32A171",
"c 	c #27C884",
"d 	c #27BA7F",
"e 	c #28B27C",
"f 	c #26C885",
"g 	c #33A071",
"h 	c #3C4951",
"i 	c #3C4950",
"j 	c #3E494F",
"k 	c #32A170",
"l 	c #26C683",
"m 	c #32A16F",
"n 	c #3C4A50",
"o 	c #3D4950",
"p 	c #3D484F",
"q 	c #388363",
"r 	c #26C884",
"s 	c #28B57D",
"t 	c #388263",
"u 	c #3B4950",
"v 	c #3C494F",
"w 	c #3D4A4F",
"x 	c #28C381",
"y 	c #B9E6D4",
"z 	c #CEEDE1",
"A 	c #39B886",
"B 	c #B8E6D4",
"C 	c #3D4C4E",
"D 	c #3C4850",
"E 	c #3C484F",
"F 	c #368663",
"G 	c #FFFFFF",
"H 	c #D7F1E7",
"I 	c #D3EFE4",
"J 	c #378463",
"K 	c #3B494F",
"L 	c #3B4850",
"M 	c #3B484F",
"N 	c #3D474E",
"O 	c #2EAE78",
"P 	c #27BE82",
"Q 	c #36B785",
"R 	c #D4F0E5",
"S 	c #D8F1E7",
"T 	c #2EAE77",
"U 	c #3C474E",
"V 	c #3D474D",
"W 	c #28C281",
"X 	c #DBF2E9",
"Y 	c #28B77E",
"Z 	c #3A484F",
"` 	c #3C464D",
" .	c #24C984",
"..	c #25CA84",
"+.	c #3B474F",
"@.	c #3A484E",
"#.	c #3D474C",
"$.	c #25CA85",
"%.	c #3A474E",
"&.	c #3A474F",
"*.	c #3B474E",
"=.	c #3C464C",
"-.	c #DAF2E9",
";.	c #27C280",
">.	c #3A474D",
",.	c #3B464C",
"'.	c #2DAE77",
").	c #27BF81",
"!.	c #2EAC75",
"~.	c #39464E",
"{.	c #3B464D",
"].	c #368563",
"^.	c #CFEEE2",
"/.	c #368363",
"(.	c #39474E",
"_.	c #39464D",
":.	c #3A464D",
"<.	c #39474D",
"[.	c #3B474D",
"}.	c #27C382",
"|.	c #27BB80",
"1.	c #27C381",
"2.	c #3B494C",
"3.	c #3A454C",
"4.	c #368362",
"5.	c #25C885",
"6.	c #25C884",
"7.	c #358061",
"8.	c #39454D",
"9.	c #30A070",
"0.	c #26C583",
"a.	c #309F6F",
"b.	c #38464D",
"c.	c #39454C",
"d.	c #38464C",
"e.	c #3A464C",
"f.	c #30A06E",
"g.	c #309F6E",
"h.	c #39464C",
"i.	c #38454C",
"j.	c #38454D",
"k.	c #39454B",
"l.	c #358161",
"m.	c #27C281",
"n.	c #27C282",
"o.	c #357F60",
"p.	c #3A454B",
"q.	c #39444B",
"r.	c #3A484B",
"s.	c #348461",
"t.	c #2EAC76",
"u.	c #25C984",
"v.	c #348262",
"w.	c #37454C",
"x.	c #37444B",
"y.	c #37454B",
"z.	c #38444A",
"A.	c #39434A",
"B.	c #394349",
"C.	c #39444A",
"D.	c #38454B",
"E.	c #38444C",
"F.	c #37444C",
"G.	c #38444B",
"H.	c #37444A",
"I.	c #37434B",
"J.	c #37434A",
"K.	c #36444B",
"L.	c #36444A",
"M.	c #36434B",
"N.	c #36434A",
"                                                        ",
". . . . . . . . . . . . . . . . . . . . . . . . . . . . ",
". . . + . . . + . . . . . @ . # $ # . . + . . + . + . + ",
"# @ . . # @ . . % + & . @ & & & % $ . + # & & @ # & . . ",
"% + @ % % + @ % $ & % + & @ $ # % # . & % & @ & $ % $ + ",
"% % % % % % % % % % % % % % * % % % % % % % % % % % % % ",
"% % = = % % = = % = % - % % ; ; % = > % > = , % % % % , ",
", = ; > , = ; > ; - ' ) ! ! ! ! ~ ' - { ; - { { - % ; { ",
"- ' { { - ' { { ] ^ / ( _ : : _ < [ ^ ] - { ' { - { ; { ",
"{ { { { { { { ] } | 1 2 3 4 4 3 5 6 | 7 ] { { { { { { 8 ",
"9 0 8 8 9 0 a b c d e e e e e e e e d f g , 0 { h { h h ",
"i { i i i j k l 4 e e e e e e e e e e 4 l m j n h o o h ",
"i h i i p q r 4 e e e e e e e e e e e e s r t p i o i i ",
"u v v v w x d e e y z A e e e e A z B e e d x C D D i D ",
"v E D E F 1 e e e z G H A e e A H G I e e e 1 J E K E L ",
"E v M N O P e e e Q R G S A Q R G H A e e e 5 T U M M M ",
"M M M V W 3 e e e e Q R G X H G H A e e e e Y W V M M M ",
"M Z Z `  .4 e e e e e Q H G G X A e e e e e 4 ..` M M M ",
"+.+.@.#.$.4 e e e e e Q H G G X A e e e e e 4 : #.%.&.@.",
"@.*.%.=.W 3 e e e e Q R G -.H G S A e e e e Y ;.=.%.@.*.",
"%.%.>.,.'.5 e e e Q R G H A Q R G S A e e e ).!.,.%.%.%.",
">.%.~.{.].6 e e e ^.G H A e e A H G I e e e 1 /.,.%.(._.",
":.<.>.<.[.}.d e e B I A e e e e A I B e e |.1.2.~.~.~.~.",
"_._._._.3.4.5.s e e e e e e e e e e e e s 6.7.3._._._._.",
"_.8.8._._.3.9.0.s e e e e e e e e e e s 0.a.3.8._.b.c._.",
"b.b.8.d.b.d.e.f.6.d e e e e e e e e d 6.g.e.h.b.i.i.b.j.",
"j.h.j.i.j.h.i.k.l.m.6 2 3 4 4 Y 2 6 n.o.p.d.i.i.d.c.j.i.",
"i.i.i.i.i.i.i.i.q.r.s.t.1.u.u.1.t.v.e.q.i.i.i.i.i.i.i.i.",
"w.i.x.y.w.i.x.y.w.i.z.A.B.B.B.B.C.z.i.i.D.i.E.D.i.i.i.w.",
"F.y.w.i.F.y.w.i.w.i.D.G.i.E.y.i.w.G.y.i.F.x.i.y.x.G.x.F.",
"y.x.F.x.y.x.F.x.F.x.G.x.x.x.x.x.F.x.x.F.G.y.y.x.G.x.x.x.",
"x.x.x.x.x.x.x.x.x.x.x.x.H.x.x.I.x.H.x.x.I.J.x.H.x.x.x.I.",
"J.J.K.H.J.J.K.H.H.L.H.M.L.x.J.I.I.x.x.L.I.N.H.K.N.K.x.J.",
"K.N.J.L.K.N.J.L.I.I.J.M.N.K.M.J.H.M.M.N.N.K.L.N.J.x.N.N.",
"N.N.N.N.N.N.N.N.L.N.L.N.N.N.N.N.N.K.N.N.N.N.N.N.L.N.M.N.",
"N.N.N.N.N.N.N.N.N.N.N.N.N.N.N.N.N.N.N.N.N.N.N.N.N.N.N.N."};
