/* XPM */
static char * close_active_xpm[] = {
"28 36 119 2",
"  	c None",
". 	c #313133",
"+ 	c #4B5252",
"@ 	c #4B5251",
"# 	c #4A5251",
"$ 	c #4A5152",
"% 	c #4B5151",
"& 	c #4A5252",
"* 	c #4B5152",
"= 	c #4A5151",
"- 	c #495151",
"; 	c #4A5150",
"> 	c #495150",
", 	c #495050",
"' 	c #4A5051",
") 	c #4A5050",
"! 	c #495051",
"~ 	c #494F50",
"{ 	c #49504F",
"] 	c #495351",
"^ 	c #408965",
"/ 	c #34AF77",
"( 	c #2AC282",
"_ 	c #27C984",
": 	c #34AF78",
"< 	c #408966",
"[ 	c #495251",
"} 	c #484F4F",
"| 	c #494F4E",
"1 	c #408663",
"2 	c #29C382",
"3 	c #28C483",
"4 	c #26BE81",
"5 	c #27B77E",
"6 	c #28B47D",
"7 	c #26BE82",
"8 	c #27C483",
"9 	c #2AC382",
"0 	c #408664",
"a 	c #474F4F",
"b 	c #484E4E",
"c 	c #475151",
"d 	c #37A371",
"e 	c #27BA7F",
"f 	c #28B27C",
"g 	c #26C985",
"h 	c #38A171",
"i 	c #485151",
"j 	c #474E4E",
"k 	c #37A270",
"l 	c #27C683",
"m 	c #38A26F",
"n 	c #474D4E",
"o 	c #3F8563",
"p 	c #28B57D",
"q 	c #26C984",
"r 	c #3F8463",
"s 	c #474D4C",
"t 	c #464C4D",
"u 	c #464F4F",
"v 	c #2AC481",
"w 	c #29C381",
"x 	c #47504D",
"y 	c #464D4D",
"z 	c #454C4C",
"A 	c #464C4C",
"B 	c #3D8863",
"C 	c #3D8662",
"D 	c #454C4B",
"E 	c #32AF77",
"F 	c #27BE82",
"G 	c #32AF76",
"H 	c #454B4B",
"I 	c #29C281",
"J 	c #28B77E",
"K 	c #2AC281",
"L 	c #444B4B",
"M 	c #444A4B",
"N 	c #25C984",
"O 	c #26CA84",
"P 	c #454B4A",
"Q 	c #444A4A",
"R 	c #434A4A",
"S 	c #26CA85",
"T 	c #434A49",
"U 	c #29C280",
"V 	c #44494A",
"W 	c #434949",
"X 	c #31AE76",
"Y 	c #27BF81",
"Z 	c #32AC75",
"` 	c #424948",
" .	c #424848",
"..	c #424849",
"+.	c #3B8662",
"@.	c #26C483",
"#.	c #3B8461",
"$.	c #424847",
"%.	c #424A4A",
"&.	c #27BB80",
"*.	c #424C48",
"=.	c #414747",
"-.	c #424747",
";.	c #3A8360",
">.	c #26C885",
",.	c #26C884",
"'.	c #3A805F",
").	c #34A06F",
"!.	c #349F6E",
"~.	c #414949",
"{.	c #34A16D",
"].	c #3A825F",
"^.	c #28C281",
"/.	c #3B805F",
"(.	c #414B48",
"_.	c #3A8460",
":.	c #31AC76",
"<.	c #29C380",
"[.	c #3A8361",
". . . . . . . . . . . . . . . . . . . . . . . . . . . . ",
"+ + + + + + + + + + + + + + + + + + + + + + + + + + + + ",
"+ + + + + + + + + + + + + + + + + + + + + + + + + + + + ",
"+ + + + + + + + + + + + + + + + + + + + + + + + + + + + ",
"@ @ @ + # $ + @ % + % + @ & @ + # $ + @ @ @ @ @ * + @ @ ",
"% % % = * % @ $ $ = * # % = % = * % @ $ % = % = $ % % % ",
"- - - - ; > = , ' ' > ; ) ! - - ; > = , ; = = ; = = - - ",
"! ! ! , , ) , ! ) > , , , ) ! , , ) , ! ! , , , ) , ! ! ",
"~ ~ ~ { , ~ ~ ~ ~ ] ^ / ( _ _ ( : < [ ~ { , ~ ~ { , ~ ~ ",
"} } } | } } } } 1 2 3 4 5 6 6 5 7 8 9 0 | } } } | } } } ",
"a a a b } a c d _ e f f f f f f f f e g h i a a b } a a ",
"j j j j b j k l 6 f f f f f f f f f f 6 l m j j j b j j ",
"n n n n n o _ 6 f f f f f f f f f f f f p q r n n n n n ",
"s s s t u v e f f f f f f f f f f f f f f e w x t y s s ",
"z z z A B 8 f f f f f f f f f f f f f f f f 8 C A z z z ",
"D D D z E F f f f f f f f f f f f f f f f f 7 G z z D D ",
"H H H H I 5 f f f f f f f f f f f f f f f f J K H L H H ",
"M M M L N 6 f f f f f f f f f f f f f f f f 6 O L P M M ",
"Q Q Q R S 6 f f f f f f f f f f f f f f f f 6 q R Q Q Q ",
"R R R T I 5 f f f f f f f f f f f f f f f f J U T V R R ",
"W W W W X 7 f f f f f f f f f f f f f f f f Y Z W ` W W ",
" . . ...+.@.f f f f f f f f f f f f f f f f 8 #... . . .",
"$.$.$. .%.w e f f f f f f f f f f f f f f &.w *. . .$.$.",
"=.=.=.-.-.;.>.p f f f f f f f f f f f f p ,.'.=.-.-.=.=.",
"=.=.=.=.=.=.).l p f f f f f f f f f f p l !.=.=.=.=.=.=.",
"=.=.=.=.=.=.~.{.,.e f f f f f f f f e ,.!.~.=.=.=.=.=.=.",
"=.=.=.=.=.=.=.=.].^.8 4 5 6 6 J 4 8 I /.=.=.=.=.=.=.=.=.",
"=.=.=.=.=.=.=.=.=.(._.:.<.q q <.:.[.~.=.=.=.=.=.=.=.=.=.",
"=.=.=.=.=.=.=.=.=.=.=.=.=.=.=.=.=.=.=.=.=.=.=.=.=.=.=.=.",
"=.=.=.=.=.=.=.=.=.=.=.=.=.=.=.=.=.=.=.=.=.=.=.=.=.=.=.=.",
"=.=.=.=.=.=.=.=.=.=.=.=.=.=.=.=.=.=.=.=.=.=.=.=.=.=.=.=.",
"=.=.=.=.=.=.=.=.=.=.=.=.=.=.=.=.=.=.=.=.=.=.=.=.=.=.=.=.",
"=.=.=.=.=.=.=.=.=.=.=.=.=.=.=.=.=.=.=.=.=.=.=.=.=.=.=.=.",
"=.=.=.=.=.=.=.=.=.=.=.=.=.=.=.=.=.=.=.=.=.=.=.=.=.=.=.=.",
"=.=.=.=.=.=.=.=.=.=.=.=.=.=.=.=.=.=.=.=.=.=.=.=.=.=.=.=.",
"=.=.=.=.=.=.=.=.=.=.=.=.=.=.=.=.=.=.=.=.=.=.=.=.=.=.=.=."};
