/* XPM */
static char * hide_active_xpm[] = {
"24 24 94 2",
"  	c None",
". 	c #313133",
"+ 	c #4B5252",
"@ 	c #4B5151",
"# 	c #4A5152",
"$ 	c #4A5151",
"% 	c #4B5152",
"& 	c #4A5051",
"* 	c #495150",
"= 	c #4A5050",
"- 	c #495050",
"; 	c #475E54",
"> 	c #309362",
", 	c #1BA76A",
"' 	c #17A768",
") 	c #309163",
"! 	c #465D53",
"~ 	c #494F50",
"{ 	c #49504F",
"] 	c #3B7D5B",
"^ 	c #14A969",
"/ 	c #029857",
"( 	c #008E4D",
"_ 	c #15A969",
": 	c #484F4F",
"< 	c #494F4F",
"[ 	c #3A7D5B",
"} 	c #10A565",
"| 	c #008F4D",
"1 	c #008F4E",
"2 	c #10A665",
"3 	c #484F4E",
"4 	c #484E4E",
"5 	c #474F4E",
"6 	c #455D52",
"7 	c #14A968",
"8 	c #455B51",
"9 	c #484E4F",
"0 	c #474D4E",
"a 	c #474E4E",
"b 	c #2E9362",
"c 	c #029957",
"d 	c #2F9161",
"e 	c #484D4E",
"f 	c #474D4D",
"g 	c #474E4D",
"h 	c #1AA76A",
"i 	c #1AA769",
"j 	c #464D4D",
"k 	c #15A768",
"l 	c #464D4C",
"m 	c #474D4C",
"n 	c #464C4C",
"o 	c #464C4B",
"p 	c #454C4C",
"q 	c #19A769",
"r 	c #19A668",
"s 	c #454C4B",
"t 	c #454B4B",
"u 	c #2D9061",
"v 	c #029958",
"w 	c #2E8F61",
"x 	c #444B4B",
"y 	c #444A4A",
"z 	c #444B4A",
"A 	c #444A4B",
"B 	c #42584E",
"C 	c #13A969",
"D 	c #13A869",
"E 	c #42574E",
"F 	c #444A49",
"G 	c #377C59",
"H 	c #0EA565",
"I 	c #387B58",
"J 	c #434A49",
"K 	c #377B58",
"L 	c #12A869",
"M 	c #019857",
"N 	c #019957",
"O 	c #434949",
"P 	c #434948",
"Q 	c #40594E",
"R 	c #2B9060",
"S 	c #18A769",
"T 	c #14A667",
"U 	c #2C9060",
"V 	c #41574C",
"W 	c #424949",
"X 	c #424848",
"Y 	c #424747",
"Z 	c #414847",
"` 	c #414748",
" .	c #424748",
"..	c #414747",
". . . . . . . . . . . . . . . . . . . . . . . . ",
"+ + + + + + + + + + + + + + + + + + + + + + + + ",
"+ + + + + + + + + + + + + + + + + + + + + + + + ",
"+ + + + + + + + + + + + + + + + + + + + + + + + ",
"@ + @ @ + @ @ + @ + @ + @ + @ + @ + @ + @ + + + ",
"# $ % # $ # $ % # $ # $ % # # $ % # $ $ % # @ $ ",
"& & * & & & & * & & & & * & & & * & & & * & * $ ",
"= * - = * = * - ; > , ' ' , ) ! - = * * - * - & ",
"~ { { ~ { ~ { ] ^ / ( ( ( ( / _ ] ~ { { { - ~ ~ ",
": : < : : : [ } | ( ( ( ( ( ( 1 2 ] : : < < < : ",
"3 4 5 3 4 6 7 | ( ( ( ( ( ( ( ( 1 ^ 8 4 5 : 9 9 ",
"0 a a 0 a b c ( ( ( ( ( ( ( ( ( ( / d a a a e 4 ",
"f f g f f h ( ( ( ( ( ( ( ( ( ( ( ( i f g g f f ",
"j j f j j k ( ( ( ( ( ( ( ( ( ( ( ( k j f j l m ",
"n n l n n k ( ( ( ( ( ( ( ( ( ( ( ( k n l n l n ",
"o p p o p q ( ( ( ( ( ( ( ( ( ( ( ( r p p n s t ",
"t t t t t u / ( ( ( ( ( ( ( ( ( ( v w t t t t x ",
"y z A y z B C 1 ( ( ( ( ( ( ( ( 1 D E z A x t y ",
"y y F y y y G H 1 ( ( ( ( ( ( 1 H I y y F y y y ",
"J J F J J J J K L M ( ( ( ( N L I J J J F O O y ",
"O P O O P O P O Q R S T T S U V O O P P O O W O ",
"W X X W X W X X W X W X X W W X X W X X X X X X ",
"Y Z ` Y Z Y Z ` Y Z Y Z ` Y Y Z ` Y Z Z `  .X X ",
"..........................................` Y .."};
