/* XPM */
static char * hide_pressed_xpm[] = {
"24 24 100 2",
"  	c None",
". 	c #313133",
"+ 	c #4B5252",
"@ 	c #4B5151",
"# 	c #4A5152",
"$ 	c #4A5151",
"% 	c #4B5152",
"& 	c #4A5051",
"* 	c #495150",
"= 	c #4A5050",
"- 	c #495050",
"; 	c #475E54",
"> 	c #309362",
", 	c #1BA76A",
"' 	c #17A768",
") 	c #309163",
"! 	c #465D53",
"~ 	c #494F50",
"{ 	c #49504F",
"] 	c #3B7D5B",
"^ 	c #14A969",
"/ 	c #029857",
"( 	c #008E4D",
"_ 	c #15A969",
": 	c #484F4F",
"< 	c #494F4F",
"[ 	c #3A7D5B",
"} 	c #10A565",
"| 	c #008F4D",
"1 	c #008F4E",
"2 	c #10A665",
"3 	c #484F4E",
"4 	c #484E4E",
"5 	c #474F4E",
"6 	c #455D52",
"7 	c #14A968",
"8 	c #455B51",
"9 	c #484E4F",
"0 	c #474D4E",
"a 	c #474E4E",
"b 	c #2E9362",
"c 	c #029957",
"d 	c #2F9161",
"e 	c #484D4E",
"f 	c #474D4D",
"g 	c #474E4D",
"h 	c #1AA76A",
"i 	c #1AA769",
"j 	c #464D4D",
"k 	c #15A768",
"l 	c #59B58B",
"m 	c #B3DDCA",
"n 	c #464D4C",
"o 	c #474D4C",
"p 	c #464C4C",
"q 	c #80C7A6",
"r 	c #FFFFFF",
"s 	c #464C4B",
"t 	c #454C4C",
"u 	c #19A769",
"v 	c #33A571",
"w 	c #66BB94",
"x 	c #19A668",
"y 	c #454C4B",
"z 	c #454B4B",
"A 	c #2D9061",
"B 	c #029958",
"C 	c #2E8F61",
"D 	c #444B4B",
"E 	c #444A4A",
"F 	c #444B4A",
"G 	c #444A4B",
"H 	c #42584E",
"I 	c #13A969",
"J 	c #13A869",
"K 	c #42574E",
"L 	c #444A49",
"M 	c #377C59",
"N 	c #0EA565",
"O 	c #387B58",
"P 	c #434A49",
"Q 	c #377B58",
"R 	c #12A869",
"S 	c #019857",
"T 	c #019957",
"U 	c #434949",
"V 	c #434948",
"W 	c #40594E",
"X 	c #2B9060",
"Y 	c #18A769",
"Z 	c #14A667",
"` 	c #2C9060",
" .	c #41574C",
"..	c #424949",
"+.	c #424848",
"@.	c #424747",
"#.	c #414847",
"$.	c #414748",
"%.	c #424748",
"&.	c #414747",
". . . . . . . . . . . . . . . . . . . . . . . . ",
"+ + + + + + + + + + + + + + + + + + + + + + + + ",
"+ + + + + + + + + + + + + + + + + + + + + + + + ",
"+ + + + + + + + + + + + + + + + + + + + + + + + ",
"@ + @ @ + @ @ + @ + @ + @ + @ + @ + @ + @ + + + ",
"# $ % # $ # $ % # $ # $ % # # $ % # $ $ % # @ $ ",
"& & * & & & & * & & & & * & & & * & & & * & * $ ",
"= * - = * = * - ; > , ' ' , ) ! - = * * - * - & ",
"~ { { ~ { ~ { ] ^ / ( ( ( ( / _ ] ~ { { { - ~ ~ ",
": : < : : : [ } | ( ( ( ( ( ( 1 2 ] : : < < < : ",
"3 4 5 3 4 6 7 | ( ( ( ( ( ( ( ( 1 ^ 8 4 5 : 9 9 ",
"0 a a 0 a b c ( ( ( ( ( ( ( ( ( ( / d a a a e 4 ",
"f f g f f h ( ( ( ( ( ( ( ( ( ( ( ( i f g g f f ",
"j j f j j k ( ( l m m m m m m l ( ( k j f j n o ",
"p p n p p k ( ( q r r r r r r q ( ( k p n p n p ",
"s t t s t u ( ( v w w w w w w v ( ( x t t p y z ",
"z z z z z A / ( ( ( ( ( ( ( ( ( ( B C z z z z D ",
"E F G E F H I 1 ( ( ( ( ( ( ( ( 1 J K F G D z E ",
"E E L E E E M N 1 ( ( ( ( ( ( 1 N O E E L E E E ",
"P P L P P P P Q R S ( ( ( ( T R O P P P L U U E ",
"U V U U V U V U W X Y Z Z Y `  .U U V V U U ..U ",
"..+.+...+...+.+...+...+.+.....+.+...+.+.+.+.+.+.",
"@.#.$.@.#.@.#.$.@.#.@.#.$.@.@.#.$.@.#.#.$.%.+.+.",
"&.&.&.&.&.&.&.&.&.&.&.&.&.&.&.&.&.&.&.&.&.$.@.&."};
