/* XPM */
static char * maximize_pressed_xpm[] = {
"24 24 111 2",
"  	c None",
". 	c #313133",
"+ 	c #4B5252",
"@ 	c #4B5151",
"# 	c #4A5152",
"$ 	c #4A5151",
"% 	c #4B5152",
"& 	c #4A5051",
"* 	c #495150",
"= 	c #4A5050",
"- 	c #495050",
"; 	c #475E54",
"> 	c #309362",
", 	c #1BA76A",
"' 	c #17A768",
") 	c #309163",
"! 	c #465D53",
"~ 	c #494F50",
"{ 	c #49504F",
"] 	c #3B7D5B",
"^ 	c #14A969",
"/ 	c #029857",
"( 	c #008E4D",
"_ 	c #15A969",
": 	c #484F4F",
"< 	c #494F4F",
"[ 	c #3A7D5B",
"} 	c #10A565",
"| 	c #008F4D",
"1 	c #008F4E",
"2 	c #10A665",
"3 	c #484F4E",
"4 	c #484E4E",
"5 	c #474F4E",
"6 	c #455D52",
"7 	c #14A968",
"8 	c #119659",
"9 	c #76C29F",
"0 	c #77C3A0",
"a 	c #3CA977",
"b 	c #455B51",
"c 	c #484E4F",
"d 	c #474D4E",
"e 	c #474E4E",
"f 	c #2E9362",
"g 	c #029957",
"h 	c #63BA92",
"i 	c #FDFEFE",
"j 	c #FFFFFF",
"k 	c #80C7A6",
"l 	c #2F9161",
"m 	c #484D4E",
"n 	c #474D4D",
"o 	c #474E4D",
"p 	c #1AA76A",
"q 	c #14975B",
"r 	c #1AA769",
"s 	c #464D4D",
"t 	c #15A768",
"u 	c #7FC6A6",
"v 	c #6BBD98",
"w 	c #464D4C",
"x 	c #474D4C",
"y 	c #464C4C",
"z 	c #FEFFFE",
"A 	c #7EC6A5",
"B 	c #464C4B",
"C 	c #454C4C",
"D 	c #19A769",
"E 	c #19A668",
"F 	c #454C4B",
"G 	c #454B4B",
"H 	c #2D9061",
"I 	c #029958",
"J 	c #2E8F61",
"K 	c #444B4B",
"L 	c #444A4A",
"M 	c #444B4A",
"N 	c #444A4B",
"O 	c #42584E",
"P 	c #13A969",
"Q 	c #44AC7C",
"R 	c #88CAAC",
"S 	c #87CAAB",
"T 	c #18995E",
"U 	c #13A869",
"V 	c #42574E",
"W 	c #444A49",
"X 	c #377C59",
"Y 	c #0EA565",
"Z 	c #387B58",
"` 	c #434A49",
" .	c #377B58",
"..	c #12A869",
"+.	c #019857",
"@.	c #019957",
"#.	c #434949",
"$.	c #434948",
"%.	c #40594E",
"&.	c #2B9060",
"*.	c #18A769",
"=.	c #14A667",
"-.	c #2C9060",
";.	c #41574C",
">.	c #424949",
",.	c #424848",
"'.	c #424747",
").	c #414847",
"!.	c #414748",
"~.	c #424748",
"{.	c #414747",
". . . . . . . . . . . . . . . . . . . . . . . . ",
"+ + + + + + + + + + + + + + + + + + + + + + + + ",
"+ + + + + + + + + + + + + + + + + + + + + + + + ",
"+ + + + + + + + + + + + + + + + + + + + + + + + ",
"@ + @ @ + @ @ + @ + @ + @ + @ + @ + @ + @ + + + ",
"# $ % # $ # $ % # $ # $ % # # $ % # $ $ % # @ $ ",
"& & * & & & & * & & & & * & & & * & & & * & * $ ",
"= * - = * = * - ; > , ' ' , ) ! - = * * - * - & ",
"~ { { ~ { ~ { ] ^ / ( ( ( ( / _ ] ~ { { { - ~ ~ ",
": : < : : : [ } | ( ( ( ( ( ( 1 2 ] : : < < < : ",
"3 4 5 3 4 6 7 | ( ( 8 9 0 0 0 a 1 ^ b 4 5 : c c ",
"d e e d e f g ( ( ( ( h i j j k ( / l e e e m 4 ",
"n n o n n p ( ( q ( ( ( h i j k ( ( r n o o n n ",
"s s n s s t ( ( u v ( ( ( h i k ( ( t s n s w x ",
"y y w y y t ( ( k z v ( ( ( h A ( ( t y w y w y ",
"B C C B C D ( ( k j z v ( ( ( q ( ( E C C y F G ",
"G G G G G H / ( k j j z v ( ( ( ( I J G G G G K ",
"L M N L M O P 1 Q R R R S T ( ( 1 U V M N K G L ",
"L L W L L L X Y 1 ( ( ( ( ( ( 1 Y Z L L W L L L ",
"` ` W ` ` ` `  ...+.( ( ( ( @...Z ` ` ` W #.#.L ",
"#.$.#.#.$.#.$.#.%.&.*.=.=.*.-.;.#.#.$.$.#.#.>.#.",
">.,.,.>.,.>.,.,.>.,.>.,.,.>.>.,.,.>.,.,.,.,.,.,.",
"'.).!.'.).'.).!.'.).'.).!.'.'.).!.'.).).!.~.,.,.",
"{.{.{.{.{.{.{.{.{.{.{.{.{.{.{.{.{.{.{.{.{.!.'.{."};
