/* XPM */
static char * shade_inactive_xpm[] = {
"24 36 89 1",
" 	c #323A3F",
".	c #3F4C53",
"+	c #3F4C52",
"@	c #3E4C53",
"#	c #3F4B53",
"$	c #3E4C52",
"%	c #3E4B52",
"&	c #3F4B52",
"*	c #3E4B53",
"=	c #3E4A52",
"-	c #404A50",
";	c #202323",
">	c #0F0F0F",
",	c #0A0A0A",
"'	c #3D4B51",
")	c #161818",
"!	c #323B41",
"~	c #3D4A51",
"{	c #263036",
"]	c #3D4A50",
"^	c #3C4950",
"/	c #263035",
"(	c #3D4950",
"_	c #252F35",
":	c #3C494F",
"<	c #242E33",
"[	c #909090",
"}	c #3C4850",
"|	c #242D32",
"1	c #3B494F",
"2	c #3B484F",
"3	c #232C31",
"4	c #222B30",
"5	c #3A484F",
"6	c #212A2F",
"7	c #222A2F",
"8	c #848485",
"9	c #828383",
"0	c #3A484E",
"a	c #20282E",
"b	c #757676",
"c	c #747475",
"d	c #3A474E",
"e	c #20272C",
"f	c #5C5D5E",
"g	c #5A5C5C",
"h	c #3A474D",
"i	c #1E262B",
"j	c #434647",
"k	c #414445",
"l	c #39464E",
"m	c #1E2429",
"n	c #272B2E",
"o	c #838383",
"p	c #868686",
"q	c #878788",
"r	c #262B2D",
"s	c #1D2428",
"t	c #39464D",
"u	c #1C2327",
"v	c #39454D",
"w	c #1C2226",
"x	c #38464D",
"y	c #1A2024",
"z	c #38454C",
"A	c #38454D",
"B	c #39454C",
"C	c #37444B",
"D	c #101212",
"E	c #171B1B",
"F	c #181D1D",
"G	c #37454C",
"H	c #394449",
"I	c #202424",
"J	c #101111",
"K	c #0B0C0C",
"L	c #38444B",
"M	c #37444C",
"N	c #394349",
"O	c #555B5B",
"P	c #5C6161",
"Q	c #5E6363",
"R	c #37444A",
"S	c #37434B",
"T	c #37434A",
"U	c #36444B",
"V	c #36444A",
"W	c #36434B",
"X	c #36434A",
"                        ",
"........................",
".+...+.....@.#$#..+..+.+",
"..#@..%+&.@&&&%$.+#&&@#&",
"@%%+@%$&%+&@$#%#.&%&@&$%",
"%%%%%%%%%%%%*%%%%%%%%%%%",
"=-;>,,,,,,,,,,,,,,,,>;-%",
"';)!!!!!!!!!!!!!!!!!!);%",
"~>{{{{{{{{{{{{{{{{{{{{>~",
"~,{{{{{{{{{{{{{{{{{{{{,~",
"],{{{{{{{{{{{{{{{{{{{{,~",
"^,////////////////////,(",
"^,____________________,(",
":,<<<<<[[[[[[[[[[<<<<<,}",
"},|||||[[[[[[[[[[|||||,1",
"2,33333333333333333333,2",
"2,44444444444444444444,2",
"5,66666666789766666666,2",
"0,aaaaaaaab[[caaaaaaaa,d",
"d,eeeeeeef[[[[geeeeeee,d",
"h,iiiiiij[[[[[[kiiiiii,d",
"l,mmmmmnoopqqqqqrmmmmm,d",
"h,ssssssssssssssssssss,l",
"t,uuuuuuuuuuuuuuuuuuuu,t",
"v,wwwwwwwwwwwwwwwwwwww,x",
"v,yyyyyyyyyyyyyyyyyyyy,z",
"A,yyyyyyyyyyyyyyyyyyyy,B",
"z>yyyyyyyyyyyyyyyyyyyy>z",
"C;DEFFFFFFFFFFFFFFFFED;z",
"GHIJKKKKKKKKKKKKKKKKJIHL",
"MNNOPQQQQQQQQQQQQQQPONNC",
"CCCCCCCCCCRCCSCRCCSTCRCC",
"URTTURRVRWVCTSSCCVSXRUXU",
"TVUXTVSSTWXUWTRWWXXUVXTC",
"XXXXXXVXVXXXXXXUXXXXXXVX",
"XXXXXXXXXXXXXXXXXXXXXXXX"};
