/* XPM */
static char * shade_toggled_prelight_xpm[] = {
"24 36 138 2",
"  	c #323A3F",
". 	c #3F4C53",
"+ 	c #3F4C52",
"@ 	c #3E4C53",
"# 	c #3F4B53",
"$ 	c #3E4C52",
"% 	c #3E4B52",
"& 	c #3F4B52",
"* 	c #3E4B53",
"= 	c #3E4A52",
"- 	c #404A50",
"; 	c #363B3B",
"> 	c #191B1B",
", 	c #0C0C0C",
"' 	c #0A0A0A",
") 	c #3D4B51",
"! 	c #121414",
"~ 	c #3A4143",
"{ 	c #42494C",
"] 	c #444C4F",
"^ 	c #3D4A51",
"/ 	c #31373B",
"( 	c #3D4548",
"_ 	c #3A4144",
": 	c #3D4447",
"< 	c #3D4A50",
"[ 	c #3B4246",
"} 	c #3B4245",
"| 	c #3C4950",
"1 	c #394043",
"2 	c #394044",
"3 	c #3A4044",
"4 	c #3A4043",
"5 	c #3D4950",
"6 	c #373E41",
"7 	c #373E42",
"8 	c #373D41",
"9 	c #383D41",
"0 	c #3C494F",
"a 	c #353C3F",
"b 	c #353B3F",
"c 	c #FFFFFF",
"d 	c #3C4850",
"e 	c #333A3D",
"f 	c #33393D",
"g 	c #333A3C",
"h 	c #33393C",
"i 	c #3B494F",
"j 	c #3B484F",
"k 	c #31373A",
"l 	c #2F3539",
"m 	c #2F3538",
"n 	c #3A484F",
"o 	c #2D3336",
"p 	c #2C3336",
"q 	c #474A4C",
"r 	c #F6F6F6",
"s 	c #FCFCFC",
"t 	c #464A4C",
"u 	c #3A484E",
"v 	c #2A3134",
"w 	c #2B3133",
"x 	c #2B3134",
"y 	c #2A3133",
"z 	c #787A7B",
"A 	c #FBFBFB",
"B 	c #787A7A",
"C 	c #3A474E",
"D 	c #292F32",
"E 	c #292F31",
"F 	c #282F31",
"G 	c #A3A5A5",
"H 	c #A3A4A4",
"I 	c #3A474D",
"J 	c #262D2F",
"K 	c #272D2F",
"L 	c #272C30",
"M 	c #272D30",
"N 	c #272D2E",
"O 	c #CECECE",
"P 	c #39464E",
"Q 	c #242A2D",
"R 	c #242B2D",
"S 	c #232A2B",
"T 	c #F9F9F9",
"U 	c #242A2B",
"V 	c #22292A",
"W 	c #22292B",
"X 	c #22282B",
"Y 	c #39464D",
"Z 	c #202628",
"` 	c #202629",
" .	c #39454D",
"..	c #1E2426",
"+.	c #1E2427",
"@.	c #1F2426",
"#.	c #38464D",
"$.	c #1C2124",
"%.	c #1C2224",
"&.	c #1D2224",
"*.	c #1C2223",
"=.	c #1D2223",
"-.	c #38454C",
";.	c #38454D",
">.	c #0B0C0C",
",.	c #1A2022",
"'.	c #1B2023",
").	c #1B2123",
"!.	c #1B2022",
"~.	c #1B2122",
"{.	c #39454C",
"].	c #161A1C",
"^.	c #1A1F21",
"/.	c #37444B",
"(.	c #30383C",
"_.	c #0E0F0F",
":.	c #141818",
"<.	c #171C1C",
"[.	c #191E1E",
"}.	c #37454C",
"|.	c #394449",
"1.	c #30393C",
"2.	c #1B1C1C",
"3.	c #0C0D0D",
"4.	c #0A0B0B",
"5.	c #38444B",
"6.	c #37444C",
"7.	c #394349",
"8.	c #545A5A",
"9.	c #5D6262",
"0.	c #5E6363",
"a.	c #37444A",
"b.	c #37434B",
"c.	c #37434A",
"d.	c #36444B",
"e.	c #36444A",
"f.	c #36434B",
"g.	c #36434A",
"                                                ",
". . . . . . . . . . . . . . . . . . . . . . . . ",
". + . . . + . . . . . @ . # $ # . . + . . + . + ",
". . # @ . . % + & . @ & & & % $ . + # & & @ # & ",
"@ % % + @ % $ & % + & @ $ # % # . & % & @ & $ % ",
"% % % % % % % % % % % % * % % % % % % % % % % % ",
"= - ; > , ' ' ' ' ' ' ' ' ' ' ' ' ' ' , > ; - % ",
") ; ! ~ { ] ] ] ] ] ] ] ] ] ] ] ] ] ] { ~ ! ; % ",
"^ > / ( ( ( ( ( ( ( ( ( ( ( ( ( ( ( ( ( ( / > ^ ",
"^ , _ : : : : : : : : : : : : : : : : : : _ , ^ ",
"< ' [ [ [ [ [ [ [ } [ [ [ } [ } [ [ [ [ [ [ ' ^ ",
"| ' 1 2 2 3 1 2 2 2 1 2 4 1 2 1 1 1 3 2 2 1 ' 5 ",
"| ' 6 6 7 6 8 6 6 9 6 8 6 8 8 8 8 8 6 7 6 6 ' 5 ",
"0 ' a b a a b c c c c c c c c c c b a a b a ' d ",
"d ' e f g f h c c c c c c c c c c h f g f e ' i ",
"j ' k k / k k k k k k k k k / k k k k / k k ' j ",
"j ' l m m m m l m m m m m m m m m m m m m l ' j ",
"n ' o p o o o q r s s s s s s r t o o o p o ' j ",
"u ' v v v w x y z A s s s s A B y x w v v v ' C ",
"C ' D E F D F D E G s s s s H E E F D F E D ' C ",
"I ' J J K L M J K N O s s O N J J M L K J J ' C ",
"P ' Q Q Q Q R Q Q Q S s T U Q Q R R Q Q Q Q ' C ",
"I ' V W X X X V W X X X V W X X X X X X W V ' P ",
"Y ' Z Z ` Z ` Z Z ` Z ` Z Z ` Z ` ` Z ` Z Z ' Y ",
" .' ..+...@.+.......@.........@.+.+.@...+...' #.",
" .' $.%.%.&.*.%.&.%.$.&.=.%.=.%.&.*.&.%.%.$.' -.",
";.>.,.'.).!.).!.).).~.).'.).~.~.).).!.).'.,.>.{.",
"-.> ].^.^.^.^.^.^.^.^.^.^.^.^.^.^.^.^.^.^.].> -.",
"/.(._.:.<.[.[.[.[.[.[.[.[.[.[.[.[.[.[.<.:._.(.-.",
"}.|.1.2.3.4.4.4.4.4.4.4.4.4.4.4.4.4.4.3.2.1.|.5.",
"6.7.7.8.9.0.0.0.0.0.0.0.0.0.0.0.0.0.0.9.8.7.7./.",
"/./././././././././.a././.b./.a././.b.c./.a././.",
"d.a.c.c.d.a.a.e.a.f.e./.c.b.b././.e.b.g.a.d.g.d.",
"c.e.d.g.c.e.b.b.c.f.g.d.f.c.a.f.f.g.g.d.e.g.c./.",
"g.g.g.g.g.g.e.g.e.g.g.g.g.g.g.d.g.g.g.g.g.g.e.g.",
"g.g.g.g.g.g.g.g.g.g.g.g.g.g.g.g.g.g.g.g.g.g.g.g."};
