/* XPM */
static char * shade_toggled_active_xpm[] = {
"24 36 118 2",
"  	c #323A3F",
". 	c #3F4C53",
"+ 	c #3F4C52",
"@ 	c #3E4C53",
"# 	c #3F4B53",
"$ 	c #3E4C52",
"% 	c #3E4B52",
"& 	c #3F4B52",
"* 	c #3E4B53",
"= 	c #3E4A52",
"- 	c #404A50",
"; 	c #2F3434",
"> 	c #141515",
", 	c #0B0B0B",
"' 	c #0A0A0A",
") 	c #3D4B51",
"! 	c #313737",
"~ 	c #131414",
"{ 	c #2A3135",
"] 	c #2F373A",
"^ 	c #31393C",
"/ 	c #3D4A51",
"( 	c #151616",
"_ 	c #222A2D",
": 	c #2A3236",
"< 	c #283034",
"[ 	c #3D4A50",
"} 	c #2A3235",
"| 	c #3C4950",
"1 	c #3D4950",
"2 	c #2A3134",
"3 	c #293135",
"4 	c #3C494F",
"5 	c #283033",
"6 	c #293033",
"7 	c #FFFFFF",
"8 	c #3C4850",
"9 	c #282F31",
"0 	c #282E32",
"a 	c #272E31",
"b 	c #272E32",
"c 	c #272F31",
"d 	c #3B494F",
"e 	c #3B484F",
"f 	c #262D30",
"g 	c #252C2F",
"h 	c #252D2F",
"i 	c #262C2F",
"j 	c #262D2F",
"k 	c #3A484F",
"l 	c #232A2E",
"m 	c #242B2E",
"n 	c #242B2D",
"o 	c #414445",
"p 	c #F6F6F6",
"q 	c #FCFCFC",
"r 	c #3A484E",
"s 	c #22292C",
"t 	c #22292D",
"u 	c #23292D",
"v 	c #727374",
"w 	c #FBFBFB",
"x 	c #747575",
"y 	c #3A474E",
"z 	c #22282B",
"A 	c #22282A",
"B 	c #22272B",
"C 	c #9E9F9F",
"D 	c #A0A0A1",
"E 	c #3A474D",
"F 	c #202629",
"G 	c #20262A",
"H 	c #202729",
"I 	c #C9CACA",
"J 	c #CBCCCC",
"K 	c #39464E",
"L 	c #1F2527",
"M 	c #1F2528",
"N 	c #F4F4F4",
"O 	c #F1F2F2",
"P 	c #1E2426",
"Q 	c #39464D",
"R 	c #1D2325",
"S 	c #1C2325",
"T 	c #39454D",
"U 	c #1C2224",
"V 	c #38464D",
"W 	c #1A2022",
"X 	c #38454C",
"Y 	c #38454D",
"Z 	c #191F21",
"` 	c #39454C",
" .	c #151515",
"..	c #171B1E",
"+.	c #1A1F21",
"@.	c #37444B",
"#.	c #2E3538",
"$.	c #0E0F0F",
"%.	c #151818",
"&.	c #181C1C",
"*.	c #181D1D",
"=.	c #37454C",
"-.	c #394449",
";.	c #2E3639",
">.	c #0B0C0C",
",.	c #38444B",
"'.	c #37444C",
").	c #394349",
"!.	c #555B5B",
"~.	c #5C6161",
"{.	c #5E6363",
"].	c #37444A",
"^.	c #37434B",
"/.	c #37434A",
"(.	c #36444B",
"_.	c #36444A",
":.	c #36434B",
"<.	c #36434A",
"                                                ",
". . . . . . . . . . . . . . . . . . . . . . . . ",
". + . . . + . . . . . @ . # $ # . . + . . + . + ",
". . # @ . . % + & . @ & & & % $ . + # & & @ # & ",
"@ % % + @ % $ & % + & @ $ # % # . & % & @ & $ % ",
"% % % % % % % % % % % % * % % % % % % % % % % % ",
"= - ; > , ' ' ' ' ' ' ' ' ' ' ' ' ' ' , > ; - % ",
") ! ~ { ] ^ ^ ^ ^ ^ ^ ^ ^ ^ ^ ^ ^ ^ ^ ] { ~ ! % ",
"/ ( _ : : : : : : : : : : : : : : : : : : _ ( / ",
"/ , < : : : : : : : : : : : : : : : : : : < , / ",
"[ ' } } } } } } } } } } } } } } } } } } } } ' / ",
"| ' } } } } } } } } } } } } } } } } } } } } ' 1 ",
"| ' 2 2 3 { 2 3 3 2 3 3 2 3 3 3 3 2 { 3 2 2 ' 1 ",
"4 ' 5 6 5 5 5 7 7 7 7 7 7 7 7 7 7 5 5 5 6 5 ' 8 ",
"8 ' 9 0 a b c 7 7 7 7 7 7 7 7 7 7 c b a 0 9 ' d ",
"e ' f f f f f f f f f f f f f f f f f f f f ' e ",
"e ' g g g g g g g g g g h i j j i g g g g g ' e ",
"k ' l m n m m o p q q q q q q p o m m n m l ' e ",
"r ' s t t u t s v w q q q q w x s t u t t s ' y ",
"y ' z z z z z A B C q q q q D z A z z z z z ' y ",
"E ' F F G F H F F H I q q J H F F H F G F F ' y ",
"K ' L M M M M M M M L N O L M M M M M M M L ' y ",
"E ' P P P P P P P P P P P P P P P P P P P P ' K ",
"Q ' R R R R R R S R R S R R S S R R R R R R ' Q ",
"T ' U U U U U U U U U U U U U U U U U U U U ' V ",
"T ' W W W W W W W W W W W W W W W W W W W W ' X ",
"Y , Z W W W W W W W W W W W W W W W W W W Z , ` ",
"X  ...+.+.+.+.+.+.+.+.+.+.+.+.+.+.+.+.+.+... .X ",
"@.#.$.%.&.*.*.*.*.*.*.*.*.*.*.*.*.*.*.&.%.$.#.X ",
"=.-.;.( >., , , , , , , , , , , , , , >.( ;.-.,.",
"'.).).!.~.{.{.{.{.{.{.{.{.{.{.{.{.{.{.~.!.).).@.",
"@.@.@.@.@.@.@.@.@.@.].@.@.^.@.].@.@.^./.@.].@.@.",
"(.]././.(.].]._.].:._.@./.^.^.@.@._.^.<.].(.<.(.",
"/._.(.<./._.^.^./.:.<.(.:./.].:.:.<.<.(._.<./.@.",
"<.<.<.<.<.<._.<._.<.<.<.<.<.<.(.<.<.<.<.<.<._.<.",
"<.<.<.<.<.<.<.<.<.<.<.<.<.<.<.<.<.<.<.<.<.<.<.<."};
