/* XPM */
static char * title_4_active_xpm[] = {
"24 36 65 1",
" 	c #323A3F",
".	c #3F4C53",
"+	c #3F4C52",
"@	c #3E4C53",
"#	c #3F4B53",
"$	c #3E4C52",
"%	c #3E4B52",
"&	c #3F4B52",
"*	c #3E4B53",
"=	c #3E4A52",
"-	c #3D4A52",
";	c #3D4B51",
">	c #3D4B52",
",	c #3E4B51",
"'	c #3D4A51",
")	c #3E4A51",
"!	c #3C4A51",
"~	c #3D4A50",
"{	c #3D4951",
"]	c #3C4951",
"^	c #3C4A50",
"/	c #3C4950",
"(	c #3D4950",
"_	c #3B4950",
":	c #3C494F",
"<	c #3C4850",
"[	c #3B4850",
"}	c #3C484F",
"|	c #3B484F",
"1	c #3B494F",
"2	c #3A484F",
"3	c #3B474F",
"4	c #3A484E",
"5	c #3B484E",
"6	c #3A474E",
"7	c #3B474E",
"8	c #3A474F",
"9	c #3A474D",
"0	c #39474E",
"a	c #39464E",
"b	c #3A464E",
"c	c #3A464D",
"d	c #39474D",
"e	c #39464D",
"f	c #39454D",
"g	c #38464D",
"h	c #39464C",
"i	c #38454D",
"j	c #39454C",
"k	c #38464C",
"l	c #38454C",
"m	c #37454C",
"n	c #37444B",
"o	c #37454B",
"p	c #38444B",
"q	c #38444C",
"r	c #38454B",
"s	c #37444C",
"t	c #37444A",
"u	c #37434B",
"v	c #37434A",
"w	c #36444B",
"x	c #36444A",
"y	c #36434B",
"z	c #36434A",
"                        ",
"........................",
"...+.....@.#$#..+..+.+.+",
"#@..%+&.@&&&%$.+#&&@#&..",
"%+@%$&%+&@$#%#.&%&@&$%$+",
"%%%%%%%%%%*%%%%%%%%%%%%%",
"%%==%=%-%%;;%=>%>=,%%%%,",
",=;>;->,'>',=--';-''-%;'",
"-)'''')>>-''';''-')'-';'",
"'''''!'''~'''''!'''''''~",
"!{~~'{]~^^]^''!'^/{']']]",
"/'//'/(~/^/]]^!(~^(^]((]",
"/]//]////////////////(//",
"_:::/_///////_//:<[/<</<",
":}</</|:/:<}|}<|::_1<1}[",
"}:|}<[|1}<||||11||||||||",
"||||||||[|||||||||||||||",
"|223|3454||||56232|32|||",
"334|53477444|45388288684",
"476466666667674662637647",
"669669666066666696666666",
"96abc6bdbb9bcdb096d9c60e",
"cd9dceccdecaaddeea06aaaa",
"eeeedeeeeeeaeeeaeeeeeeee",
"effefeghiefgefeeeeffegje",
"ggfkfkiiigigjlljliegllgi",
"ihilhijelklklflijkllkjil",
"llllllllllmlllllllllllll",
"mlnomlopmqorlrllrlqrlllm",
"somlmlrplqolmpolsnlonpns",
"onsnsnpnnnnnsnnspoonpnnn",
"nnnnnnnntnnuntnnuvntnnnu",
"vvwttxtyxnvuunnxuztwzwnv",
"wzvxuuvyzwyvtyyzzwxzvnzz",
"zzzzxzxzzzzzzwzzzzzzxzyz",
"zzzzzzzzzzzzzzzzzzzzzzzz"};
