<?xml version="1.0" encoding="UTF-8" standalone="no"?>
<svg
   xmlns:dc="http://purl.org/dc/elements/1.1/"
   xmlns:cc="http://creativecommons.org/ns#"
   xmlns:rdf="http://www.w3.org/1999/02/22-rdf-syntax-ns#"
   xmlns:svg="http://www.w3.org/2000/svg"
   xmlns="http://www.w3.org/2000/svg"
   width="16"
   height="16"
   viewBox="0 0 4.2333334 4.2333334"
   version="1.1"
   id="svg8">
  <defs
     id="defs2" />
  <metadata
     id="metadata5">
    <rdf:RDF>
      <cc:Work
         rdf:about="">
        <dc:format>image/svg+xml</dc:format>
        <dc:type
           rdf:resource="http://purl.org/dc/dcmitype/StillImage" />
        <dc:title></dc:title>
      </cc:Work>
    </rdf:RDF>
  </metadata>
  <path
     transform="scale(0.26458334)"
     d="M 8 0 C 3.5817221 2.0873752e-07 2.0873752e-07 3.5817221 0 8 C 2.0873752e-07 12.418278 3.5817221 16 8 16 C 12.418278 16 16 12.418278 16 8 C 16 3.5817221 12.418278 2.0873752e-07 8 0 z M 8 2 C 11.436438 1.9999998 14 4.5635614 14 8 C 14 11.436439 11.436439 14 8 14 C 4.5635618 14 2 11.436439 2 8 C 2.0000002 4.5635614 4.5635618 2 8 2 z M 3 7 L 3 9 L 13 9 L 13 7 L 3 7 z "
     style="opacity:1;fill:#5175ff;fill-opacity:1;stroke:none;stroke-width:0.548854;stroke-linejoin:round;stroke-miterlimit:4;stroke-dasharray:none;stroke-dashoffset:0;stroke-opacity:1;paint-order:stroke fill markers"
     id="path816-3" />
</svg>
