/* XPM */
static char * close_prelight_xpm[] = {
"28 36 106 2",
"  	c None",
". 	c #323A3F",
"+ 	c #414B51",
"@ 	c #414B50",
"# 	c #414A50",
"$ 	c #404A50",
"% 	c #404950",
"& 	c #3F494F",
"* 	c #484A50",
"= 	c #9F5558",
"- 	c #D55D5E",
"; 	c #F16263",
"> 	c #F96565",
", 	c #D65C5D",
"' 	c #9E5457",
") 	c #9C5457",
"! 	c #F26364",
"~ 	c #F75E5E",
"{ 	c #F74E4E",
"] 	c #F34343",
"^ 	c #F13F3F",
"/ 	c #F74F4F",
"( 	c #9B5458",
"_ 	c #41494F",
": 	c #C4595C",
"< 	c #F96262",
"[ 	c #F44848",
"} 	c #F03C3C",
"| 	c #F44949",
"1 	c #F96363",
"2 	c #C3595C",
"3 	c #3E494E",
"4 	c #C4595B",
"5 	c #F75F5F",
"6 	c #F14040",
"7 	c #C35A5C",
"8 	c #3E484E",
"9 	c #9C5357",
"0 	c #995357",
"a 	c #3D484D",
"b 	c #44484D",
"c 	c #FAC0C0",
"d 	c #FCD3D3",
"e 	c #F14B4B",
"f 	c #FABFBF",
"g 	c #F36364",
"h 	c #46494E",
"i 	c #3D474D",
"j 	c #9F5357",
"k 	c #FFFFFF",
"l 	c #FCDBDB",
"m 	c #FCD7D7",
"n 	c #9D5357",
"o 	c #3D474E",
"p 	c #D75C5E",
"q 	c #F14949",
"r 	c #FCD8D8",
"s 	c #FCDCDC",
"t 	c #D55D5F",
"u 	c #F16363",
"v 	c #FCDEDE",
"w 	c #F34444",
"x 	c #F16162",
"y 	c #3C464D",
"z 	c #FA6666",
"A 	c #3D474C",
"B 	c #FA6565",
"C 	c #FCDFDF",
"D 	c #3C464C",
"E 	c #FCDDDD",
"F 	c #F06262",
"G 	c #3B464B",
"H 	c #D55B5C",
"I 	c #F64F4F",
"J 	c #D35B5C",
"K 	c #3C454B",
"L 	c #9E5155",
"M 	c #9C5155",
"N 	c #3B454B",
"O 	c #42454B",
"P 	c #F26363",
"Q 	c #F26464",
"R 	c #45464C",
"S 	c #9A5255",
"T 	c #985054",
"U 	c #C3585A",
"V 	c #C2585A",
"W 	c #3A444A",
"X 	c #3D444A",
"Y 	c #C3585B",
"Z 	c #C1595B",
"` 	c #3A454A",
" .	c #995154",
"..	c #F64E4E",
"+.	c #975154",
"@.	c #44454B",
"#.	c #9D5255",
"$.	c #D35B5D",
"%.	c #F16262",
"&.	c #9C5154",
"*.	c #41444A",
"=.	c #394349",
"-.	c #394449",
";.	c #384348",
">.	c #394348",
",.	c #384248",
". . . . . . . . . . . . . . . . . . . . . . . . . . . . ",
"+ + + + + + + + + + + + + + + + + + + + + + + + + + + + ",
"+ + + + + + + + + + + + + + + + + + + + + + + + + + + + ",
"@ @ @ @ @ @ @ @ @ @ @ @ @ @ @ @ @ @ @ @ @ @ @ @ @ @ @ @ ",
"# # # # # # # # # # # # # # # # # # # # # # # # # # # # ",
"$ $ $ $ $ $ $ $ $ $ $ $ $ $ $ $ $ $ $ $ $ $ $ $ $ $ $ $ ",
"$ $ $ $ $ $ $ $ $ $ $ $ $ $ $ $ $ $ $ $ $ $ $ $ $ $ $ $ ",
"% % % % % % % % % % % % % % % % % % % % % % % % % % % % ",
"& & & & & & & & & * = - ; > > ; , ' * & & & & & & & & & ",
"& & & & & & & & ) ! ~ { ] ^ ^ ] / ~ ! ( & & & & & & & & ",
"& & & & & & _ : < [ } } } } } } } } | 1 2 _ & & & & & & ",
"3 3 3 3 3 3 4 5 ^ } } } } } } } } } } 6 5 7 3 3 3 3 3 3 ",
"8 8 8 8 8 9 < 6 } } } } } } } } } } } } 6 1 0 8 8 8 8 8 ",
"a a a a b ! [ } } c d e } } } } e d f } } [ g h a a a a ",
"i i i i j ~ } } } d k l e } } e l k m } } } 5 n i i i i ",
"o o o o p { } } } q r k s e q r k l e } } } { t o o o o ",
"i i i i u ] } } } } q r k v l k l e } } } } w x i i i i ",
"y y y y z ^ } } } } } q l k k v e } } } } } ^ z y y y y ",
"A A A A B 6 } } } } } q l k k C e } } } } } 6 > A A A A ",
"D D D D u ] } } } } q r k E l k s e } } } } w F D D D D ",
"G G G G H / } } } q r k l e q r k s e } } } I J G G G G ",
"K K K K L ~ } } } d k l e } } e l k m } } } 5 M K K K K ",
"N N N N O P | } } f m e } } } } e m f } } | Q R N N N N ",
"N N N N N S 1 6 } } } } } } } } } } } } 6 1 T N N N N N ",
"N N N N N N U 5 6 } } } } } } } } } } 6 5 V N N N N N N ",
"W W W W W W X Y 1 [ } } } } } } } } | 1 Z X W W W W W W ",
"` ` ` ` ` ` ` `  .u 5 / w 6 6 w ..5 u +.` ` ` ` ` ` ` ` ",
"W W W W W W W W W @.#.$.%.> > %.$.&.*.W W W W W W W W W ",
"=.=.=.=.=.=.=.=.=.=.=.=.=.=.=.=.=.=.=.=.=.=.=.=.=.=.=.=.",
"-.-.-.-.-.-.-.-.-.-.-.-.-.-.-.-.-.-.-.-.-.-.-.-.-.-.-.-.",
"=.=.=.=.=.=.=.=.=.=.=.=.=.=.=.=.=.=.=.=.=.=.=.=.=.=.=.=.",
"=.=.=.=.=.=.=.=.=.=.=.=.=.=.=.=.=.=.=.=.=.=.=.=.=.=.=.=.",
";.;.;.;.;.;.;.;.;.;.;.;.;.;.;.;.;.;.;.;.;.;.;.;.;.;.;.;.",
">.>.>.>.>.>.>.>.>.>.>.>.>.>.>.>.>.>.>.>.>.>.>.>.>.>.>.>.",
",.,.,.,.,.,.,.,.,.,.,.,.,.,.,.,.,.,.,.,.,.,.,.,.,.,.,.,.",
",.,.,.,.,.,.,.,.,.,.,.,.,.,.,.,.,.,.,.,.,.,.,.,.,.,.,.,."};
