/* XPM */
static char * close_prelight_xpm[] = {
"24 24 96 2",
"  	c None",
". 	c #313133",
"+ 	c #4B5252",
"@ 	c #4B5151",
"# 	c #4A5152",
"$ 	c #4A5151",
"% 	c #4B5152",
"& 	c #4A5051",
"* 	c #495150",
"= 	c #4A5050",
"- 	c #495050",
"; 	c #685252",
"> 	c #C95C5B",
", 	c #EC5F5F",
"' 	c #EF5D5D",
") 	c #C95B5B",
"! 	c #665252",
"~ 	c #494F50",
"{ 	c #49504F",
"] 	c #A55757",
"^ 	c #F15D5E",
"/ 	c #F34848",
"( 	c #F03D3D",
"_ 	c #F03C3C",
": 	c #F34747",
"< 	c #F15F5F",
"[ 	c #A45756",
"} 	c #484F4F",
"| 	c #494F4F",
"1 	c #F35A5A",
"2 	c #F35959",
"3 	c #A35656",
"4 	c #484F4E",
"5 	c #484E4E",
"6 	c #474F4E",
"7 	c #675151",
"8 	c #F15D5D",
"9 	c #F25151",
"0 	c #F57C7C",
"a 	c #655050",
"b 	c #484E4F",
"c 	c #474D4E",
"d 	c #474E4E",
"e 	c #C95A5B",
"f 	c #F57D7D",
"g 	c #FFFFFF",
"h 	c #F79999",
"i 	c #C85A5A",
"j 	c #484D4E",
"k 	c #474D4D",
"l 	c #474E4D",
"m 	c #EB5F5F",
"n 	c #F79595",
"o 	c #F79C9C",
"p 	c #F79B9B",
"q 	c #464D4D",
"r 	c #EF5C5C",
"s 	c #EE5D5D",
"t 	c #464D4C",
"u 	c #474D4C",
"v 	c #464C4C",
"w 	c #464C4B",
"x 	c #454C4C",
"y 	c #EB5E5E",
"z 	c #EC5E5E",
"A 	c #454C4B",
"B 	c #454B4B",
"C 	c #C85959",
"D 	c #C65A5A",
"E 	c #444B4B",
"F 	c #444A4A",
"G 	c #444B4A",
"H 	c #444A4B",
"I 	c #634C4C",
"J 	c #F05F5F",
"K 	c #614D4D",
"L 	c #444A49",
"M 	c #A25252",
"N 	c #A15353",
"O 	c #434A49",
"P 	c #A25353",
"Q 	c #A15352",
"R 	c #434949",
"S 	c #434948",
"T 	c #644C4C",
"U 	c #C85858",
"V 	c #EE5D5C",
"W 	c #C75959",
"X 	c #624B4A",
"Y 	c #424949",
"Z 	c #424848",
"` 	c #424747",
" .	c #414847",
"..	c #414748",
"+.	c #424748",
"@.	c #414747",
". . . . . . . . . . . . . . . . . . . . . . . . ",
"+ + + + + + + + + + + + + + + + + + + + + + + + ",
"+ + + + + + + + + + + + + + + + + + + + + + + + ",
"+ + + + + + + + + + + + + + + + + + + + + + + + ",
"@ + @ @ + @ @ + @ + @ + @ + @ + @ + @ + @ + + + ",
"# $ % # $ # $ % # $ # $ % # # $ % # $ $ % # @ $ ",
"& & * & & & & * & & & & * & & & * & & & * & * $ ",
"= * - = * = * - ; > , ' ' , ) ! - = * * - * - & ",
"~ { { ~ { ~ { ] ^ / ( _ _ ( : < [ ~ { { { - ~ ~ ",
"} } | } } } ] 1 ( _ _ _ _ _ _ ( 2 3 } } | | | } ",
"4 5 6 4 5 7 8 ( 9 0 _ _ _ _ 0 9 ( < a 5 6 } b b ",
"c d d c d e / _ f g h _ _ h g f _ : i d d d j 5 ",
"k k l k k m ( _ _ n g o n g p _ _ ( m k l l k k ",
"q q k q q r _ _ _ _ n g g p _ _ _ _ s q k q t u ",
"v v t v v ' _ _ _ _ n g g o _ _ _ _ s v t v t v ",
"w x x w x y ( _ _ n g p n g o _ _ ( z x x v A B ",
"B B B B B C : _ f g h _ _ h g f _ / D B B B B E ",
"F G H F G I < ( 9 0 _ _ _ _ 0 9 ( J K G H E B F ",
"F F L F F F M 2 ( _ _ _ _ _ _ ( 2 N F F L F F F ",
"O O L O O O O P < : ( _ _ ( / < Q O O O L R R F ",
"R S R R S R S R T U y V s y W X R R S S R R Y R ",
"Y Z Z Y Z Y Z Z Y Z Y Z Z Y Y Z Z Y Z Z Z Z Z Z ",
"`  ...`  .`  ...`  .`  ...` `  ...`  . ...+.Z Z ",
"@.@.@.@.@.@.@.@.@.@.@.@.@.@.@.@.@.@.@.@.@...` @."};
