/* XPM */
static char * close_pressed_xpm[] = {
"28 36 121 2",
"  	c None",
". 	c #313133",
"+ 	c #4B5252",
"@ 	c #4B5251",
"# 	c #4A5251",
"$ 	c #4A5152",
"% 	c #4B5151",
"& 	c #4A5252",
"* 	c #4B5152",
"= 	c #4A5151",
"- 	c #495151",
"; 	c #4A5150",
"> 	c #495150",
", 	c #495050",
"' 	c #4A5051",
") 	c #4A5050",
"! 	c #495051",
"~ 	c #494F50",
"{ 	c #49504F",
"] 	c #515151",
"^ 	c #A25859",
"/ 	c #D65E5F",
"( 	c #F16363",
"_ 	c #F96565",
": 	c #D75E5D",
"< 	c #A15858",
"[ 	c #515051",
"} 	c #484F4F",
"| 	c #494F4E",
"1 	c #9E5757",
"2 	c #F36464",
"3 	c #F75E5E",
"4 	c #F74E4E",
"5 	c #F34343",
"6 	c #F13F3F",
"7 	c #F74F4F",
"8 	c #F26464",
"9 	c #9E5858",
"0 	c #474F4F",
"a 	c #484E4E",
"b 	c #494F4F",
"c 	c #C55C5C",
"d 	c #F96262",
"e 	c #F44848",
"f 	c #F03C3C",
"g 	c #F44949",
"h 	c #F96363",
"i 	c #C45B5B",
"j 	c #4A4F4F",
"k 	c #474E4E",
"l 	c #C55B5B",
"m 	c #F75F5F",
"n 	c #F14040",
"o 	c #474D4E",
"p 	c #9E5657",
"q 	c #9C5657",
"r 	c #474D4C",
"s 	c #464C4D",
"t 	c #4C4C4D",
"u 	c #FAC0C0",
"v 	c #FCD3D3",
"w 	c #F14B4B",
"x 	c #FABFBF",
"y 	c #4F4E4D",
"z 	c #464D4D",
"A 	c #454C4C",
"B 	c #464C4C",
"C 	c #A15656",
"D 	c #FFFFFF",
"E 	c #FCDBDB",
"F 	c #FCD7D7",
"G 	c #9F5656",
"H 	c #454C4B",
"I 	c #D75E5E",
"J 	c #F14949",
"K 	c #FCD8D8",
"L 	c #FCDCDC",
"M 	c #D55E5E",
"N 	c #454B4B",
"O 	c #FCDEDE",
"P 	c #F34444",
"Q 	c #F16161",
"R 	c #444B4B",
"S 	c #444A4B",
"T 	c #FA6666",
"U 	c #454B4A",
"V 	c #444A4A",
"W 	c #434A4A",
"X 	c #FA6565",
"Y 	c #FCDFDF",
"Z 	c #434A49",
"` 	c #FCDDDD",
" .	c #F06262",
"..	c #44494A",
"+.	c #434949",
"@.	c #D55C5C",
"#.	c #F64F4F",
"$.	c #D45C5C",
"%.	c #424948",
"&.	c #424848",
"*.	c #424849",
"=.	c #9F5354",
"-.	c #9E5353",
";.	c #424847",
">.	c #484848",
",.	c #F26363",
"'.	c #4A4948",
").	c #414747",
"!.	c #424747",
"~.	c #9C5353",
"{.	c #995252",
"].	c #C35959",
"^.	c #434747",
"/.	c #C45A5A",
"(.	c #C25A5A",
"_.	c #9A5252",
":.	c #F64E4E",
"<.	c #4A4848",
"[.	c #F16262",
"}.	c #9D5252",
"|.	c #484747",
". . . . . . . . . . . . . . . . . . . . . . . . . . . . ",
"+ + + + + + + + + + + + + + + + + + + + + + + + + + + + ",
"+ + + + + + + + + + + + + + + + + + + + + + + + + + + + ",
"+ + + + + + + + + + + + + + + + + + + + + + + + + + + + ",
"@ @ @ + # $ + @ % + % + @ & @ + # $ + @ @ @ @ @ * + @ @ ",
"% % % = * % @ $ $ = * # % = % = * % @ $ % = % = $ % % % ",
"- - - - ; > = , ' ' > ; ) ! - - ; > = , ; = = ; = = - - ",
"! ! ! , ) , ! ! ! , ! ! ) , ! ! ) , ! ! ) , ! ! ) , ! ! ",
"~ ~ ~ { { , ~ ~ ~ ] ^ / ( _ _ ( : < [ ~ { , ~ ~ { , ~ ~ ",
"} } } | | } } } 1 2 3 4 5 6 6 5 7 3 8 9 | } } } | } } } ",
"0 0 0 a a } b c d e f f f f f f f f g h i j 0 0 a } 0 0 ",
"k k k k k a l m 6 f f f f f f f f f f n m c k k k a k k ",
"o o o o o p d n f f f f f f f f f f f f n h q o o o o o ",
"r r r s t 2 e f f u v w f f f f w v x f f e 2 y s z r r ",
"A A A B C 3 f f f v D E w f f w E D F f f f m G B A A A ",
"H H H A I 4 f f f J K D L w J K D E w f f f 4 M A A H H ",
"N N N N ( 5 f f f f J K D O E D E w f f f f P Q N R N N ",
"S S S R T 6 f f f f f J E D D O w f f f f f 6 T R U S S ",
"V V V W X n f f f f f J E D D Y w f f f f f n _ W V V V ",
"W W W Z ( 5 f f f f J K D ` E D L w f f f f P  .Z ..W W ",
"+.+.+.+.@.7 f f f J K D E w J K D L w f f f #.$.+.%.+.+.",
"&.&.&.*.=.3 f f f v D E w f f w E D F f f f m -.*.&.&.&.",
";.;.;.&.>.,.g f f x F w f f f f w F x f f g 2 '.&.&.;.;.",
").).).!.!.~.h n f f f f f f f f f f f f n h {.).!.!.).).",
").).).).).).].m n f f f f f f f f f f n m ].).).).).).).",
").).).).).).^./.h e f f f f f f f f g h (.^.).).).).).).",
").).).).).).).)._.,.m 7 P n n P :.m ( {.).).).).).).).).",
").).).).).).).).).<.-.$.[._ _ [.$.}.|.).).).).).).).).).",
").).).).).).).).).).).).).).).).).).).).).).).).).).).).",
").).).).).).).).).).).).).).).).).).).).).).).).).).).).",
").).).).).).).).).).).).).).).).).).).).).).).).).).).).",
").).).).).).).).).).).).).).).).).).).).).).).).).).).).",
").).).).).).).).).).).).).).).).).).).).).).).).).).).).",
").).).).).).).).).).).).).).).).).).).).).).).).).).).).",
").).).).).).).).).).).).).).).).).).).).).).).).).).).).",
").).).).).).).).).).).).).).).).).).).).).).).).).).).)."};
