/* XPM */
static char * close_pressed_xpm[] = {
"24 24 96 2",
"  	c None",
". 	c #313133",
"+ 	c #4B5252",
"@ 	c #4B5151",
"# 	c #4A5152",
"$ 	c #4A5151",
"% 	c #4B5152",
"& 	c #4A5051",
"* 	c #495150",
"= 	c #4A5050",
"- 	c #495050",
"; 	c #675252",
"> 	c #C95B5C",
", 	c #EC5F5F",
"' 	c #EF5D5D",
") 	c #EC5F60",
"! 	c #C85B5B",
"~ 	c #665252",
"{ 	c #494F50",
"] 	c #49504F",
"^ 	c #A55757",
"/ 	c #F15D5E",
"( 	c #F34848",
"_ 	c #F03D3D",
": 	c #F03C3C",
"< 	c #F34747",
"[ 	c #F15F5F",
"} 	c #A45757",
"| 	c #484F4F",
"1 	c #494F4F",
"2 	c #F35A5A",
"3 	c #F35959",
"4 	c #A45656",
"5 	c #484F4E",
"6 	c #484E4E",
"7 	c #474F4E",
"8 	c #675151",
"9 	c #F15D5D",
"0 	c #F25151",
"a 	c #F57C7C",
"b 	c #655051",
"c 	c #484E4F",
"d 	c #474D4E",
"e 	c #474E4E",
"f 	c #C95B5B",
"g 	c #F57D7D",
"h 	c #FFFFFF",
"i 	c #F79999",
"j 	c #C85A5A",
"k 	c #484D4E",
"l 	c #474D4D",
"m 	c #474E4D",
"n 	c #EB5F5F",
"o 	c #F79595",
"p 	c #F79C9C",
"q 	c #F79B9B",
"r 	c #464D4D",
"s 	c #EF5C5C",
"t 	c #464D4C",
"u 	c #474D4C",
"v 	c #464C4C",
"w 	c #EE5D5D",
"x 	c #464C4B",
"y 	c #454C4C",
"z 	c #EB5E5E",
"A 	c #EC5E5E",
"B 	c #454C4B",
"C 	c #454B4B",
"D 	c #C85959",
"E 	c #C65A5A",
"F 	c #444B4B",
"G 	c #444A4A",
"H 	c #444B4A",
"I 	c #444A4B",
"J 	c #634D4C",
"K 	c #F05F5F",
"L 	c #614D4D",
"M 	c #444A49",
"N 	c #A25252",
"O 	c #A15353",
"P 	c #434A49",
"Q 	c #A25353",
"R 	c #A15252",
"S 	c #434949",
"T 	c #434948",
"U 	c #634C4C",
"V 	c #C85858",
"W 	c #C75958",
"X 	c #624B4B",
"Y 	c #424949",
"Z 	c #424848",
"` 	c #424747",
" .	c #414847",
"..	c #414748",
"+.	c #424748",
"@.	c #414747",
". . . . . . . . . . . . . . . . . . . . . . . . ",
"+ + + + + + + + + + + + + + + + + + + + + + + + ",
"+ + + + + + + + + + + + + + + + + + + + + + + + ",
"+ + + + + + + + + + + + + + + + + + + + + + + + ",
"@ + @ @ + @ @ + @ + @ + @ + @ + @ + @ + @ + + + ",
"# $ % # $ % # $ # $ # $ # $ # $ # $ # $ % # @ $ ",
"& & * & & * & & & & & & & & & & & & & & * & * $ ",
"= * - = * * - * ; > , ' ' ) ! ~ * - & * - * - & ",
"{ ] ] { ] ] ] ^ / ( _ : : _ < [ } { { ] ] - { { ",
"| | 1 | | | ^ 2 _ : : : : : : _ 3 4 | | 1 1 1 | ",
"5 6 7 5 6 8 9 _ 0 a : : : : a 0 _ [ b 6 7 | c c ",
"d e e d e f ( : g h i : : i h g : < j e e e k 6 ",
"l l m l l n _ : : o h p o h q : : _ n l m m l l ",
"r r l r r s : : : : o h h q : : : : ' r l r t u ",
"v v t v v ' : : : : o h h p : : : : w v t v t v ",
"x y y x y z _ : : o h q o h p : : _ A y y v B C ",
"C C C C C D < : g h i : : i h g : ( E C C C C F ",
"G H I G H J [ _ 0 a : : : : a 0 _ K L H I F C G ",
"G G M G G G N 3 _ : : : : : : _ 3 O G G M G G G ",
"P P M P P P M Q [ < _ : : _ ( [ R S G P M S S G ",
"S T S S T T S S U V z w w z W X S Y S T S S Y S ",
"Y Z Z Y Z Z Z Z Z Z Z Z Z Z Z Z Z Z Z Z Z Z Z Z ",
"`  ...`  ...`  .`  .`  .`  .`  .`  .`  ...+.Z Z ",
"@.@.@.@.@.@.@.@.@.@.@.@.@.@.@.@.@.@.@.@.@...` @."};
