/* XPM */
static char * close_prelight_xpm[] = {
"28 36 165 2",
"  	c #323A3F",
". 	c #3F4C53",
"+ 	c #3F4C52",
"@ 	c #3E4C53",
"# 	c #3F4B53",
"$ 	c #3E4C52",
"% 	c #3E4B52",
"& 	c #3F4B52",
"* 	c #3E4B53",
"= 	c #3E4A52",
"- 	c #3D4A52",
"; 	c #3D4B51",
"> 	c #3D4B52",
", 	c #3E4B51",
"' 	c #3E4A51",
") 	c #3F4A50",
"! 	c #404950",
"~ 	c #3F4951",
"{ 	c #3D4A51",
"] 	c #3E4950",
"^ 	c #474A50",
"/ 	c #9F5558",
"( 	c #D55D5E",
"_ 	c #F16263",
": 	c #F96565",
"< 	c #D65C5D",
"[ 	c #9E5457",
"} 	c #9C5457",
"| 	c #F26364",
"1 	c #F75E5E",
"2 	c #F74E4E",
"3 	c #F34343",
"4 	c #F13F3F",
"5 	c #F74F4F",
"6 	c #9B5458",
"7 	c #3D4A50",
"8 	c #3C4A51",
"9 	c #3D4951",
"0 	c #40494F",
"a 	c #C4595C",
"b 	c #F96262",
"c 	c #F44848",
"d 	c #F03C3C",
"e 	c #F44949",
"f 	c #F96363",
"g 	c #C3595C",
"h 	c #3C4951",
"i 	c #3C4950",
"j 	c #3E494F",
"k 	c #C4595B",
"l 	c #F75F5F",
"m 	c #F14040",
"n 	c #C35A5C",
"o 	c #3C4A50",
"p 	c #3D4950",
"q 	c #3D484F",
"r 	c #9C5357",
"s 	c #995357",
"t 	c #3B4950",
"u 	c #3C494F",
"v 	c #43484D",
"w 	c #FAC0C0",
"x 	c #FCD3D3",
"y 	c #F14B4B",
"z 	c #FABFBF",
"A 	c #F36364",
"B 	c #45494E",
"C 	c #3C4850",
"D 	c #3C484F",
"E 	c #9F5357",
"F 	c #FFFFFF",
"G 	c #FCDBDB",
"H 	c #FCD7D7",
"I 	c #9D5357",
"J 	c #3B494F",
"K 	c #3B4850",
"L 	c #3B484F",
"M 	c #3D474E",
"N 	c #D75C5E",
"O 	c #F14949",
"P 	c #FCD8D8",
"Q 	c #FCDCDC",
"R 	c #D55D5F",
"S 	c #3C474E",
"T 	c #3D474D",
"U 	c #F16363",
"V 	c #FCDEDE",
"W 	c #F34444",
"X 	c #F16162",
"Y 	c #3A484F",
"Z 	c #3C464D",
"` 	c #FA6666",
" .	c #3B474F",
"..	c #3A484E",
"+.	c #3D474C",
"@.	c #FA6565",
"#.	c #FCDFDF",
"$.	c #3A474E",
"%.	c #3A474F",
"&.	c #3B474E",
"*.	c #3C464C",
"=.	c #FCDDDD",
"-.	c #F06262",
";.	c #3A474D",
">.	c #3B464C",
",.	c #D55B5C",
"'.	c #F64F4F",
").	c #D35B5C",
"!.	c #39464E",
"~.	c #3B464D",
"{.	c #9E5155",
"].	c #9C5155",
"^.	c #39474E",
"/.	c #39464D",
"(.	c #3A464D",
"_.	c #39474D",
":.	c #41454B",
"<.	c #F26363",
"[.	c #F26464",
"}.	c #44464C",
"|.	c #3A454C",
"1.	c #9A5255",
"2.	c #985054",
"3.	c #39454D",
"4.	c #C3585A",
"5.	c #C2585A",
"6.	c #38464D",
"7.	c #39454C",
"8.	c #38464C",
"9.	c #3C444B",
"0.	c #C3585B",
"a.	c #C1595B",
"b.	c #39464C",
"c.	c #38454C",
"d.	c #38454D",
"e.	c #39454B",
"f.	c #995154",
"g.	c #F64E4E",
"h.	c #975154",
"i.	c #3A454B",
"j.	c #39444B",
"k.	c #43454B",
"l.	c #9D5255",
"m.	c #D35B5D",
"n.	c #F16262",
"o.	c #9C5154",
"p.	c #40444A",
"q.	c #37454C",
"r.	c #37444B",
"s.	c #37454B",
"t.	c #38444A",
"u.	c #39434A",
"v.	c #394349",
"w.	c #39444A",
"x.	c #38454B",
"y.	c #38444C",
"z.	c #37444C",
"A.	c #38444B",
"B.	c #37444A",
"C.	c #37434B",
"D.	c #37434A",
"E.	c #36444B",
"F.	c #36444A",
"G.	c #36434B",
"H.	c #36434A",
"                                                        ",
". . . . . . . . . . . . . . . . . . . . . . . . . . . . ",
". . . + . . . + . . . . . @ . # $ # . . + . . + . + . + ",
"# @ . . # @ . . % + & . @ & & & % $ . + # & & @ # & . . ",
"% + @ % % + @ % $ & % + & @ $ # % # . & % & @ & $ % $ + ",
"% % % % % % % % % % % % % % * % % % % % % % % % % % % % ",
"% % = = % % = = % = % - % % ; ; % = > % > = , % % % % , ",
", = ; > , = ; > ; - ' ) ! ! ! ! ~ ' - { ; - { { - % ; { ",
"- ' { { - ' { { ] ^ / ( _ : : _ < [ ^ ] - { ' { - { ; { ",
"{ { { { { { { ] } | 1 2 3 4 4 3 5 1 | 6 ] { { { { { { 7 ",
"8 9 7 7 8 9 0 a b c d d d d d d d d e f g 0 9 { h { h h ",
"i { i i i j k l 4 d d d d d d d d d d m l n j o h p p h ",
"i h i i q r b m d d d d d d d d d d d d m f s q i p i i ",
"t u u u v | c d d w x y d d d d y x z d d c A B C C i C ",
"u D C D E 1 d d d x F G y d d y G F H d d d l I D J D K ",
"D u L M N 2 d d d O P F Q y O P F G y d d d 2 R S L L L ",
"L L L T U 3 d d d d O P F V G F G y d d d d W X T L L L ",
"L Y Y Z ` 4 d d d d d O G F F V y d d d d d 4 ` Z L L L ",
" . ...+.@.m d d d d d O G F F #.y d d d d d m : +.$.%...",
"..&.$.*.U 3 d d d d O P F =.G F Q y d d d d W -.*.$...&.",
"$.$.;.>.,.5 d d d O P F G y O P F Q y d d d '.).>.$.$.$.",
";.$.!.~.{.1 d d d x F G y d d y G F H d d d l ].>.$.^./.",
"(._.;._.:.<.e d d z H y d d d d y H z d d e [.}.!.!.!.!.",
"/./././.|.1.f m d d d d d d d d d d d d m f 2.|././././.",
"/.3.3././.|.4.l m d d d d d d d d d d m l 5.|.3./.6.7./.",
"6.6.3.8.6.8.9.0.f c d d d d d d d d e f a.9.b.6.c.c.6.d.",
"d.b.d.c.d.b.c.e.f.U l 5 W m m W g.l U h.i.8.c.c.8.7.d.c.",
"c.c.c.c.c.c.c.c.j.k.l.m.n.: : n.m.o.p.j.c.c.c.c.c.c.c.c.",
"q.c.r.s.q.c.r.s.q.c.t.u.v.v.v.v.w.t.c.c.x.c.y.x.c.c.c.q.",
"z.s.q.c.z.s.q.c.q.c.x.A.c.y.s.c.q.A.s.c.z.r.c.s.r.A.r.z.",
"s.r.z.r.s.r.z.r.z.r.A.r.r.r.r.r.z.r.r.z.A.s.s.r.A.r.r.r.",
"r.r.r.r.r.r.r.r.r.r.r.r.B.r.r.C.r.B.r.r.C.D.r.B.r.r.r.C.",
"D.D.E.B.D.D.E.B.B.F.B.G.F.r.D.C.C.r.r.F.C.H.B.E.H.E.r.D.",
"E.H.D.F.E.H.D.F.C.C.D.G.H.E.G.D.B.G.G.H.H.E.F.H.D.r.H.H.",
"H.H.H.H.H.H.H.H.F.H.F.H.H.H.H.H.H.E.H.H.H.H.H.H.F.H.G.H.",
"H.H.H.H.H.H.H.H.H.H.H.H.H.H.H.H.H.H.H.H.H.H.H.H.H.H.H.H."};
