/* XPM */
static char * close_active_xpm[] = {
"24 24 88 1",
" 	c None",
".	c #313133",
"+	c #4B5252",
"@	c #4B5151",
"#	c #4A5152",
"$	c #4A5151",
"%	c #4B5152",
"&	c #4A5051",
"*	c #495150",
"=	c #4A5050",
"-	c #495050",
";	c #685252",
">	c #C95C5B",
",	c #EC5F5F",
"'	c #EF5D5D",
")	c #C95B5B",
"!	c #665252",
"~	c #494F50",
"{	c #49504F",
"]	c #A55757",
"^	c #F15D5E",
"/	c #F34848",
"(	c #F03D3D",
"_	c #F03C3C",
":	c #F34747",
"<	c #F15F5F",
"[	c #A45756",
"}	c #484F4F",
"|	c #494F4F",
"1	c #F35A5A",
"2	c #F35959",
"3	c #A35656",
"4	c #484F4E",
"5	c #484E4E",
"6	c #474F4E",
"7	c #675151",
"8	c #F15D5D",
"9	c #655050",
"0	c #484E4F",
"a	c #474D4E",
"b	c #474E4E",
"c	c #C95A5B",
"d	c #C85A5A",
"e	c #484D4E",
"f	c #474D4D",
"g	c #474E4D",
"h	c #EB5F5F",
"i	c #464D4D",
"j	c #EF5C5C",
"k	c #EE5D5D",
"l	c #464D4C",
"m	c #474D4C",
"n	c #464C4C",
"o	c #464C4B",
"p	c #454C4C",
"q	c #EB5E5E",
"r	c #EC5E5E",
"s	c #454C4B",
"t	c #454B4B",
"u	c #C85959",
"v	c #C65A5A",
"w	c #444B4B",
"x	c #444A4A",
"y	c #444B4A",
"z	c #444A4B",
"A	c #634C4C",
"B	c #F05F5F",
"C	c #614D4D",
"D	c #444A49",
"E	c #A25252",
"F	c #A15353",
"G	c #434A49",
"H	c #A25353",
"I	c #A15352",
"J	c #434949",
"K	c #434948",
"L	c #644C4C",
"M	c #C85858",
"N	c #EE5D5C",
"O	c #C75959",
"P	c #624B4A",
"Q	c #424949",
"R	c #424848",
"S	c #424747",
"T	c #414847",
"U	c #414748",
"V	c #424748",
"W	c #414747",
"........................",
"++++++++++++++++++++++++",
"++++++++++++++++++++++++",
"++++++++++++++++++++++++",
"@+@@+@@+@+@+@+@+@+@+@+++",
"#$%#$#$%#$#$%##$%#$$%#@$",
"&&*&&&&*&&&&*&&&*&&&*&*$",
"=*-=*=*-;>,'',)!-=**-*-&",
"~{{~{~{]^/(__(:<[~{{{-~~",
"}}|}}}]1(______(23}}|||}",
"4564578(________(<956}00",
"abbabc/__________:dbbbe5",
"ffgffh(__________(hfggff",
"iifiij____________kifilm",
"nnlnn'____________knlnln",
"oppopq(__________(rppnst",
"tttttu:__________/vttttw",
"xyzxyA<(________(BCyzwtx",
"xxDxxxE2(______(2FxxDxxx",
"GGDGGGGH<:(__(/<IGGGDJJx",
"JKJJKJKJLMqNkqOPJJKKJJQJ",
"QRRQRQRRQRQRRQQRRQRRRRRR",
"STUSTSTUSTSTUSSTUSTTUVRR",
"WWWWWWWWWWWWWWWWWWWWWUSW"};
