/* XPM */
static char * close_active_xpm[] = {
"28 36 85 1",
" 	c #323A3F",
".	c #414B51",
"+	c #414B50",
"@	c #414A50",
"#	c #404A50",
"$	c #404950",
"%	c #3F494F",
"&	c #504B51",
"*	c #C46A6C",
"=	c #F07A7A",
"-	c #FD8383",
";	c #FE8787",
">	c #F27A7B",
",	c #C3696B",
"'	c #C1696B",
")	c #FD8585",
"!	c #FC7A7A",
"~	c #F75D5D",
"{	c #F34A4A",
"]	c #F14242",
"^	c #F75E5E",
"/	c #FC7B7B",
"(	c #C0686A",
"_	c #434B51",
":	c #E57576",
"<	c #FE8383",
"[	c #F45252",
"}	c #F03C3C",
"|	c #FE8484",
"1	c #E47475",
"2	c #3E494E",
"3	c #FC7C7C",
"4	c #F14343",
"5	c #E57676",
"6	c #3E484E",
"7	c #BE676A",
"8	c #3D484D",
"9	c #4A4A4F",
"0	c #F45151",
"a	c #F45353",
"b	c #FE8586",
"c	c #4E4A4F",
"d	c #3D474D",
"e	c #C4696B",
"f	c #C2696B",
"g	c #3D474E",
"h	c #F27B7B",
"i	c #F07B7B",
"j	c #F34B4B",
"k	c #FC8282",
"l	c #3C464D",
"m	c #FE8888",
"n	c #FF8888",
"o	c #3D474C",
"p	c #FF8989",
"q	c #3C464C",
"r	c #3B464B",
"s	c #F65E5E",
"t	c #EF7979",
"u	c #3C454B",
"v	c #C36769",
"w	c #C16769",
"x	c #3B454B",
"y	c #48474D",
"z	c #FE8585",
"A	c #4D474D",
"B	c #BF6769",
"C	c #FD8484",
"D	c #BD6669",
"E	c #E57475",
"F	c #3A444A",
"G	c #3F464C",
"H	c #E37676",
"I	c #3A454A",
"J	c #BE6668",
"K	c #BC6667",
"L	c #4C464C",
"M	c #C2696A",
"N	c #EF7A7A",
"O	c #48464C",
"P	c #394349",
"Q	c #394449",
"R	c #384348",
"S	c #394348",
"T	c #384248",
"                            ",
"............................",
"............................",
"++++++++++++++++++++++++++++",
"@@@@@@@@@@@@@@@@@@@@@@@@@@@@",
"############################",
"############################",
"$$$$$$$$$$$$$$$$$$$$$$$$$$$$",
"%%%%%%%%%&*=-;;->,&%%%%%%%%%",
"%%%%%%%%')!~{]]{^/)(%%%%%%%%",
"%%%%%%_:<[}}}}}}}}[|1_%%%%%%",
"222222:3]}}}}}}}}}}435222222",
"66666'<4}}}}}}}}}}}}4|766666",
"88889|0}}}}}}}}}}}}}}abc8888",
"dddde!}}}}}}}}}}}}}}}}/fdddd",
"ggggh~}}}}}}}}}}}}}}}}^igggg",
"dddd-{}}}}}}}}}}}}}}}}jkdddd",
"llllm]}}}}}}}}}}}}}}}}]nllll",
"oooop]}}}}}}}}}}}}}}}}4;oooo",
"qqqq-{}}}}}}}}}}}}}}}}jkqqqq",
"rrrr=^}}}}}}}}}}}}}}}}strrrr",
"uuuuv/}}}}}}}}}}}}}}}}3wuuuu",
"xxxxy|[}}}}}}}}}}}}}}azAxxxx",
"xxxxxB|4}}}}}}}}}}}}4CDxxxxx",
"xxxxxx134}}}}}}}}}}43Exxxxxx",
"FFFFFFG:|a}}}}}}}}aCHGFFFFFF",
"IIIIIIIIJC/^{44js3CKIIIIIIII",
"FFFFFFFFFLMNk;;kNwOFFFFFFFFF",
"PPPPPPPPPPPPPPPPPPPPPPPPPPPP",
"QQQQQQQQQQQQQQQQQQQQQQQQQQQQ",
"PPPPPPPPPPPPPPPPPPPPPPPPPPPP",
"PPPPPPPPPPPPPPPPPPPPPPPPPPPP",
"RRRRRRRRRRRRRRRRRRRRRRRRRRRR",
"SSSSSSSSSSSSSSSSSSSSSSSSSSSS",
"TTTTTTTTTTTTTTTTTTTTTTTTTTTT",
"TTTTTTTTTTTTTTTTTTTTTTTTTTTT"};
