/* XPM */
static char * close_active_xpm[] = {
"24 24 88 1",
" 	c None",
".	c #313133",
"+	c #4B5252",
"@	c #4B5151",
"#	c #4A5152",
"$	c #4A5151",
"%	c #4B5152",
"&	c #4A5051",
"*	c #495150",
"=	c #4A5050",
"-	c #495050",
";	c #675252",
">	c #C95B5C",
",	c #EC5F5F",
"'	c #EF5D5D",
")	c #EC5F60",
"!	c #C85B5B",
"~	c #665252",
"{	c #494F50",
"]	c #49504F",
"^	c #A55757",
"/	c #F15D5E",
"(	c #F34848",
"_	c #F03D3D",
":	c #F03C3C",
"<	c #F34747",
"[	c #F15F5F",
"}	c #A45757",
"|	c #484F4F",
"1	c #494F4F",
"2	c #F35A5A",
"3	c #F35959",
"4	c #A45656",
"5	c #484F4E",
"6	c #484E4E",
"7	c #474F4E",
"8	c #675151",
"9	c #F15D5D",
"0	c #655051",
"a	c #484E4F",
"b	c #474D4E",
"c	c #474E4E",
"d	c #C95B5B",
"e	c #C85A5A",
"f	c #484D4E",
"g	c #474D4D",
"h	c #474E4D",
"i	c #EB5F5F",
"j	c #464D4D",
"k	c #EF5C5C",
"l	c #464D4C",
"m	c #474D4C",
"n	c #464C4C",
"o	c #EE5D5D",
"p	c #464C4B",
"q	c #454C4C",
"r	c #EB5E5E",
"s	c #EC5E5E",
"t	c #454C4B",
"u	c #454B4B",
"v	c #C85959",
"w	c #C65A5A",
"x	c #444B4B",
"y	c #444A4A",
"z	c #444B4A",
"A	c #444A4B",
"B	c #634D4C",
"C	c #F05F5F",
"D	c #614D4D",
"E	c #444A49",
"F	c #A25252",
"G	c #A15353",
"H	c #434A49",
"I	c #A25353",
"J	c #A15252",
"K	c #434949",
"L	c #434948",
"M	c #634C4C",
"N	c #C85858",
"O	c #C75958",
"P	c #624B4B",
"Q	c #424949",
"R	c #424848",
"S	c #424747",
"T	c #414847",
"U	c #414748",
"V	c #424748",
"W	c #414747",
"........................",
"++++++++++++++++++++++++",
"++++++++++++++++++++++++",
"++++++++++++++++++++++++",
"@+@@+@@+@+@+@+@+@+@+@+++",
"#$%#$%#$#$#$#$#$#$#$%#@$",
"&&*&&*&&&&&&&&&&&&&&*&*$",
"=*-=**-*;>,'')!~*-&*-*-&",
"{]]{]]]^/(_::_<[}{{]]-{{",
"||1|||^2_::::::_34||111|",
"5675689_::::::::_[067|aa",
"bccbcd(::::::::::<ecccf6",
"gghggi_::::::::::_ighhgg",
"jjgjjk::::::::::::'jgjlm",
"nnlnn'::::::::::::onlnln",
"pqqpqr_::::::::::_sqqntu",
"uuuuuv<::::::::::(wuuuux",
"yzAyzB[_::::::::_CDzAxuy",
"yyEyyyF3_::::::_3GyyEyyy",
"HHEHHHEI[<_::_([JKyHEKKy",
"KLKKLLKKMNroorOPKQKLKKQK",
"QRRQRRRRRRRRRRRRRRRRRRRR",
"STUSTUSTSTSTSTSTSTSTUVRR",
"WWWWWWWWWWWWWWWWWWWWWUSW"};
