/* XPM */
static char * close_active_xpm[] = {
"28 36 93 2",
"  	c None",
". 	c #323A3F",
"+ 	c #414B51",
"@ 	c #414B50",
"# 	c #414A50",
"$ 	c #404A50",
"% 	c #404950",
"& 	c #3F494F",
"* 	c #484A50",
"= 	c #9F5558",
"- 	c #D55D5E",
"; 	c #F16263",
"> 	c #F96565",
", 	c #D65C5D",
"' 	c #9E5457",
") 	c #9C5457",
"! 	c #F26364",
"~ 	c #F75E5E",
"{ 	c #F74E4E",
"] 	c #F34343",
"^ 	c #F13F3F",
"/ 	c #F74F4F",
"( 	c #9B5458",
"_ 	c #41494F",
": 	c #C4595C",
"< 	c #F96262",
"[ 	c #F44848",
"} 	c #F03C3C",
"| 	c #F44949",
"1 	c #F96363",
"2 	c #C3595C",
"3 	c #3E494E",
"4 	c #C4595B",
"5 	c #F75F5F",
"6 	c #F14040",
"7 	c #C35A5C",
"8 	c #3E484E",
"9 	c #9C5357",
"0 	c #995357",
"a 	c #3D484D",
"b 	c #44484D",
"c 	c #F36364",
"d 	c #46494E",
"e 	c #3D474D",
"f 	c #9F5357",
"g 	c #9D5357",
"h 	c #3D474E",
"i 	c #D75C5E",
"j 	c #D55D5F",
"k 	c #F16363",
"l 	c #F34444",
"m 	c #F16162",
"n 	c #3C464D",
"o 	c #FA6666",
"p 	c #3D474C",
"q 	c #FA6565",
"r 	c #3C464C",
"s 	c #F06262",
"t 	c #3B464B",
"u 	c #D55B5C",
"v 	c #F64F4F",
"w 	c #D35B5C",
"x 	c #3C454B",
"y 	c #9E5155",
"z 	c #9C5155",
"A 	c #3B454B",
"B 	c #42454B",
"C 	c #F26363",
"D 	c #F26464",
"E 	c #45464C",
"F 	c #9A5255",
"G 	c #985054",
"H 	c #C3585A",
"I 	c #C2585A",
"J 	c #3A444A",
"K 	c #3D444A",
"L 	c #C3585B",
"M 	c #C1595B",
"N 	c #3A454A",
"O 	c #995154",
"P 	c #F64E4E",
"Q 	c #975154",
"R 	c #44454B",
"S 	c #9D5255",
"T 	c #D35B5D",
"U 	c #F16262",
"V 	c #9C5154",
"W 	c #41444A",
"X 	c #394349",
"Y 	c #394449",
"Z 	c #384348",
"` 	c #394348",
" .	c #384248",
". . . . . . . . . . . . . . . . . . . . . . . . . . . . ",
"+ + + + + + + + + + + + + + + + + + + + + + + + + + + + ",
"+ + + + + + + + + + + + + + + + + + + + + + + + + + + + ",
"@ @ @ @ @ @ @ @ @ @ @ @ @ @ @ @ @ @ @ @ @ @ @ @ @ @ @ @ ",
"# # # # # # # # # # # # # # # # # # # # # # # # # # # # ",
"$ $ $ $ $ $ $ $ $ $ $ $ $ $ $ $ $ $ $ $ $ $ $ $ $ $ $ $ ",
"$ $ $ $ $ $ $ $ $ $ $ $ $ $ $ $ $ $ $ $ $ $ $ $ $ $ $ $ ",
"% % % % % % % % % % % % % % % % % % % % % % % % % % % % ",
"& & & & & & & & & * = - ; > > ; , ' * & & & & & & & & & ",
"& & & & & & & & ) ! ~ { ] ^ ^ ] / ~ ! ( & & & & & & & & ",
"& & & & & & _ : < [ } } } } } } } } | 1 2 _ & & & & & & ",
"3 3 3 3 3 3 4 5 ^ } } } } } } } } } } 6 5 7 3 3 3 3 3 3 ",
"8 8 8 8 8 9 < 6 } } } } } } } } } } } } 6 1 0 8 8 8 8 8 ",
"a a a a b ! [ } } } } } } } } } } } } } } [ c d a a a a ",
"e e e e f ~ } } } } } } } } } } } } } } } } 5 g e e e e ",
"h h h h i { } } } } } } } } } } } } } } } } { j h h h h ",
"e e e e k ] } } } } } } } } } } } } } } } } l m e e e e ",
"n n n n o ^ } } } } } } } } } } } } } } } } ^ o n n n n ",
"p p p p q 6 } } } } } } } } } } } } } } } } 6 > p p p p ",
"r r r r k ] } } } } } } } } } } } } } } } } l s r r r r ",
"t t t t u / } } } } } } } } } } } } } } } } v w t t t t ",
"x x x x y ~ } } } } } } } } } } } } } } } } 5 z x x x x ",
"A A A A B C | } } } } } } } } } } } } } } | D E A A A A ",
"A A A A A F 1 6 } } } } } } } } } } } } 6 1 G A A A A A ",
"A A A A A A H 5 6 } } } } } } } } } } 6 5 I A A A A A A ",
"J J J J J J K L 1 [ } } } } } } } } | 1 M K J J J J J J ",
"N N N N N N N N O k 5 / l 6 6 l P 5 k Q N N N N N N N N ",
"J J J J J J J J J R S T U > > U T V W J J J J J J J J J ",
"X X X X X X X X X X X X X X X X X X X X X X X X X X X X ",
"Y Y Y Y Y Y Y Y Y Y Y Y Y Y Y Y Y Y Y Y Y Y Y Y Y Y Y Y ",
"X X X X X X X X X X X X X X X X X X X X X X X X X X X X ",
"X X X X X X X X X X X X X X X X X X X X X X X X X X X X ",
"Z Z Z Z Z Z Z Z Z Z Z Z Z Z Z Z Z Z Z Z Z Z Z Z Z Z Z Z ",
"` ` ` ` ` ` ` ` ` ` ` ` ` ` ` ` ` ` ` ` ` ` ` ` ` ` ` ` ",
" . . . . . . . . . . . . . . . . . . . . . . . . . . . .",
" . . . . . . . . . . . . . . . . . . . . . . . . . . . ."};
