/* XPM */
static char * close_active_xpm[] = {
"28 36 152 2",
"  	c #323A3F",
". 	c #3F4C53",
"+ 	c #3F4C52",
"@ 	c #3E4C53",
"# 	c #3F4B53",
"$ 	c #3E4C52",
"% 	c #3E4B52",
"& 	c #3F4B52",
"* 	c #3E4B53",
"= 	c #3E4A52",
"- 	c #3D4A52",
"; 	c #3D4B51",
"> 	c #3D4B52",
", 	c #3E4B51",
"' 	c #3E4A51",
") 	c #3F4A50",
"! 	c #404950",
"~ 	c #3F4951",
"{ 	c #3D4A51",
"] 	c #3E4950",
"^ 	c #474A50",
"/ 	c #9F5558",
"( 	c #D55D5E",
"_ 	c #F16263",
": 	c #F96565",
"< 	c #D65C5D",
"[ 	c #9E5457",
"} 	c #9C5457",
"| 	c #F26364",
"1 	c #F75E5E",
"2 	c #F74E4E",
"3 	c #F34343",
"4 	c #F13F3F",
"5 	c #F74F4F",
"6 	c #9B5458",
"7 	c #3D4A50",
"8 	c #3C4A51",
"9 	c #3D4951",
"0 	c #40494F",
"a 	c #C4595C",
"b 	c #F96262",
"c 	c #F44848",
"d 	c #F03C3C",
"e 	c #F44949",
"f 	c #F96363",
"g 	c #C3595C",
"h 	c #3C4951",
"i 	c #3C4950",
"j 	c #3E494F",
"k 	c #C4595B",
"l 	c #F75F5F",
"m 	c #F14040",
"n 	c #C35A5C",
"o 	c #3C4A50",
"p 	c #3D4950",
"q 	c #3D484F",
"r 	c #9C5357",
"s 	c #995357",
"t 	c #3B4950",
"u 	c #3C494F",
"v 	c #43484D",
"w 	c #F36364",
"x 	c #45494E",
"y 	c #3C4850",
"z 	c #3C484F",
"A 	c #9F5357",
"B 	c #9D5357",
"C 	c #3B494F",
"D 	c #3B4850",
"E 	c #3B484F",
"F 	c #3D474E",
"G 	c #D75C5E",
"H 	c #D55D5F",
"I 	c #3C474E",
"J 	c #3D474D",
"K 	c #F16363",
"L 	c #F34444",
"M 	c #F16162",
"N 	c #3A484F",
"O 	c #3C464D",
"P 	c #FA6666",
"Q 	c #3B474F",
"R 	c #3A484E",
"S 	c #3D474C",
"T 	c #FA6565",
"U 	c #3A474E",
"V 	c #3A474F",
"W 	c #3B474E",
"X 	c #3C464C",
"Y 	c #F06262",
"Z 	c #3A474D",
"` 	c #3B464C",
" .	c #D55B5C",
"..	c #F64F4F",
"+.	c #D35B5C",
"@.	c #39464E",
"#.	c #3B464D",
"$.	c #9E5155",
"%.	c #9C5155",
"&.	c #39474E",
"*.	c #39464D",
"=.	c #3A464D",
"-.	c #39474D",
";.	c #41454B",
">.	c #F26363",
",.	c #F26464",
"'.	c #44464C",
").	c #3A454C",
"!.	c #9A5255",
"~.	c #985054",
"{.	c #39454D",
"].	c #C3585A",
"^.	c #C2585A",
"/.	c #38464D",
"(.	c #39454C",
"_.	c #38464C",
":.	c #3C444B",
"<.	c #C3585B",
"[.	c #C1595B",
"}.	c #39464C",
"|.	c #38454C",
"1.	c #38454D",
"2.	c #39454B",
"3.	c #995154",
"4.	c #F64E4E",
"5.	c #975154",
"6.	c #3A454B",
"7.	c #39444B",
"8.	c #43454B",
"9.	c #9D5255",
"0.	c #D35B5D",
"a.	c #F16262",
"b.	c #9C5154",
"c.	c #40444A",
"d.	c #37454C",
"e.	c #37444B",
"f.	c #37454B",
"g.	c #38444A",
"h.	c #39434A",
"i.	c #394349",
"j.	c #39444A",
"k.	c #38454B",
"l.	c #38444C",
"m.	c #37444C",
"n.	c #38444B",
"o.	c #37444A",
"p.	c #37434B",
"q.	c #37434A",
"r.	c #36444B",
"s.	c #36444A",
"t.	c #36434B",
"u.	c #36434A",
"                                                        ",
". . . . . . . . . . . . . . . . . . . . . . . . . . . . ",
". . . + . . . + . . . . . @ . # $ # . . + . . + . + . + ",
"# @ . . # @ . . % + & . @ & & & % $ . + # & & @ # & . . ",
"% + @ % % + @ % $ & % + & @ $ # % # . & % & @ & $ % $ + ",
"% % % % % % % % % % % % % % * % % % % % % % % % % % % % ",
"% % = = % % = = % = % - % % ; ; % = > % > = , % % % % , ",
", = ; > , = ; > ; - ' ) ! ! ! ! ~ ' - { ; - { { - % ; { ",
"- ' { { - ' { { ] ^ / ( _ : : _ < [ ^ ] - { ' { - { ; { ",
"{ { { { { { { ] } | 1 2 3 4 4 3 5 1 | 6 ] { { { { { { 7 ",
"8 9 7 7 8 9 0 a b c d d d d d d d d e f g 0 9 { h { h h ",
"i { i i i j k l 4 d d d d d d d d d d m l n j o h p p h ",
"i h i i q r b m d d d d d d d d d d d d m f s q i p i i ",
"t u u u v | c d d d d d d d d d d d d d d c w x y y i y ",
"u z y z A 1 d d d d d d d d d d d d d d d d l B z C z D ",
"z u E F G 2 d d d d d d d d d d d d d d d d 2 H I E E E ",
"E E E J K 3 d d d d d d d d d d d d d d d d L M J E E E ",
"E N N O P 4 d d d d d d d d d d d d d d d d 4 P O E E E ",
"Q Q R S T m d d d d d d d d d d d d d d d d m : S U V R ",
"R W U X K 3 d d d d d d d d d d d d d d d d L Y X U R W ",
"U U Z `  .5 d d d d d d d d d d d d d d d d ..+.` U U U ",
"Z U @.#.$.1 d d d d d d d d d d d d d d d d l %.` U &.*.",
"=.-.Z -.;.>.e d d d d d d d d d d d d d d e ,.'.@.@.@.@.",
"*.*.*.*.).!.f m d d d d d d d d d d d d m f ~.).*.*.*.*.",
"*.{.{.*.*.).].l m d d d d d d d d d d m l ^.).{.*./.(.*.",
"/./.{._./._.:.<.f c d d d d d d d d e f [.:.}./.|.|./.1.",
"1.}.1.|.1.}.|.2.3.K l 5 L m m L 4.l K 5.6._.|.|._.(.1.|.",
"|.|.|.|.|.|.|.|.7.8.9.0.a.: : a.0.b.c.7.|.|.|.|.|.|.|.|.",
"d.|.e.f.d.|.e.f.d.|.g.h.i.i.i.i.j.g.|.|.k.|.l.k.|.|.|.d.",
"m.f.d.|.m.f.d.|.d.|.k.n.|.l.f.|.d.n.f.|.m.e.|.f.e.n.e.m.",
"f.e.m.e.f.e.m.e.m.e.n.e.e.e.e.e.m.e.e.m.n.f.f.e.n.e.e.e.",
"e.e.e.e.e.e.e.e.e.e.e.e.o.e.e.p.e.o.e.e.p.q.e.o.e.e.e.p.",
"q.q.r.o.q.q.r.o.o.s.o.t.s.e.q.p.p.e.e.s.p.u.o.r.u.r.e.q.",
"r.u.q.s.r.u.q.s.p.p.q.t.u.r.t.q.o.t.t.u.u.r.s.u.q.e.u.u.",
"u.u.u.u.u.u.u.u.s.u.s.u.u.u.u.u.u.r.u.u.u.u.u.u.s.u.t.u.",
"u.u.u.u.u.u.u.u.u.u.u.u.u.u.u.u.u.u.u.u.u.u.u.u.u.u.u.u."};
