/* XPM */
static char * close_active_xpm[] = {
"28 36 108 2",
"  	c None",
". 	c #313133",
"+ 	c #4B5252",
"@ 	c #4B5251",
"# 	c #4A5251",
"$ 	c #4A5152",
"% 	c #4B5151",
"& 	c #4A5252",
"* 	c #4B5152",
"= 	c #4A5151",
"- 	c #495151",
"; 	c #4A5150",
"> 	c #495150",
", 	c #495050",
"' 	c #4A5051",
") 	c #4A5050",
"! 	c #495051",
"~ 	c #494F50",
"{ 	c #49504F",
"] 	c #515151",
"^ 	c #A25859",
"/ 	c #D65E5F",
"( 	c #F16363",
"_ 	c #F96565",
": 	c #D75E5D",
"< 	c #A15858",
"[ 	c #515051",
"} 	c #484F4F",
"| 	c #494F4E",
"1 	c #9E5757",
"2 	c #F36464",
"3 	c #F75E5E",
"4 	c #F74E4E",
"5 	c #F34343",
"6 	c #F13F3F",
"7 	c #F74F4F",
"8 	c #F26464",
"9 	c #9E5858",
"0 	c #474F4F",
"a 	c #484E4E",
"b 	c #494F4F",
"c 	c #C55C5C",
"d 	c #F96262",
"e 	c #F44848",
"f 	c #F03C3C",
"g 	c #F44949",
"h 	c #F96363",
"i 	c #C45B5B",
"j 	c #4A4F4F",
"k 	c #474E4E",
"l 	c #C55B5B",
"m 	c #F75F5F",
"n 	c #F14040",
"o 	c #474D4E",
"p 	c #9E5657",
"q 	c #9C5657",
"r 	c #474D4C",
"s 	c #464C4D",
"t 	c #4C4C4D",
"u 	c #4F4E4D",
"v 	c #464D4D",
"w 	c #454C4C",
"x 	c #464C4C",
"y 	c #A15656",
"z 	c #9F5656",
"A 	c #454C4B",
"B 	c #D75E5E",
"C 	c #D55E5E",
"D 	c #454B4B",
"E 	c #F34444",
"F 	c #F16161",
"G 	c #444B4B",
"H 	c #444A4B",
"I 	c #FA6666",
"J 	c #454B4A",
"K 	c #444A4A",
"L 	c #434A4A",
"M 	c #FA6565",
"N 	c #434A49",
"O 	c #F06262",
"P 	c #44494A",
"Q 	c #434949",
"R 	c #D55C5C",
"S 	c #F64F4F",
"T 	c #D45C5C",
"U 	c #424948",
"V 	c #424848",
"W 	c #424849",
"X 	c #9F5354",
"Y 	c #9E5353",
"Z 	c #424847",
"` 	c #484848",
" .	c #F26363",
"..	c #4A4948",
"+.	c #414747",
"@.	c #424747",
"#.	c #9C5353",
"$.	c #995252",
"%.	c #C35959",
"&.	c #434747",
"*.	c #C45A5A",
"=.	c #C25A5A",
"-.	c #9A5252",
";.	c #F64E4E",
">.	c #4A4848",
",.	c #F16262",
"'.	c #9D5252",
").	c #484747",
". . . . . . . . . . . . . . . . . . . . . . . . . . . . ",
"+ + + + + + + + + + + + + + + + + + + + + + + + + + + + ",
"+ + + + + + + + + + + + + + + + + + + + + + + + + + + + ",
"+ + + + + + + + + + + + + + + + + + + + + + + + + + + + ",
"@ @ @ + # $ + @ % + % + @ & @ + # $ + @ @ @ @ @ * + @ @ ",
"% % % = * % @ $ $ = * # % = % = * % @ $ % = % = $ % % % ",
"- - - - ; > = , ' ' > ; ) ! - - ; > = , ; = = ; = = - - ",
"! ! ! , ) , ! ! ! , ! ! ) , ! ! ) , ! ! ) , ! ! ) , ! ! ",
"~ ~ ~ { { , ~ ~ ~ ] ^ / ( _ _ ( : < [ ~ { , ~ ~ { , ~ ~ ",
"} } } | | } } } 1 2 3 4 5 6 6 5 7 3 8 9 | } } } | } } } ",
"0 0 0 a a } b c d e f f f f f f f f g h i j 0 0 a } 0 0 ",
"k k k k k a l m 6 f f f f f f f f f f n m c k k k a k k ",
"o o o o o p d n f f f f f f f f f f f f n h q o o o o o ",
"r r r s t 2 e f f f f f f f f f f f f f f e 2 u s v r r ",
"w w w x y 3 f f f f f f f f f f f f f f f f m z x w w w ",
"A A A w B 4 f f f f f f f f f f f f f f f f 4 C w w A A ",
"D D D D ( 5 f f f f f f f f f f f f f f f f E F D G D D ",
"H H H G I 6 f f f f f f f f f f f f f f f f 6 I G J H H ",
"K K K L M n f f f f f f f f f f f f f f f f n _ L K K K ",
"L L L N ( 5 f f f f f f f f f f f f f f f f E O N P L L ",
"Q Q Q Q R 7 f f f f f f f f f f f f f f f f S T Q U Q Q ",
"V V V W X 3 f f f f f f f f f f f f f f f f m Y W V V V ",
"Z Z Z V `  .g f f f f f f f f f f f f f f g 2 ..V V Z Z ",
"+.+.+.@.@.#.h n f f f f f f f f f f f f n h $.+.@.@.+.+.",
"+.+.+.+.+.+.%.m n f f f f f f f f f f n m %.+.+.+.+.+.+.",
"+.+.+.+.+.+.&.*.h e f f f f f f f f g h =.&.+.+.+.+.+.+.",
"+.+.+.+.+.+.+.+.-. .m 7 E n n E ;.m ( $.+.+.+.+.+.+.+.+.",
"+.+.+.+.+.+.+.+.+.>.Y T ,._ _ ,.T '.).+.+.+.+.+.+.+.+.+.",
"+.+.+.+.+.+.+.+.+.+.+.+.+.+.+.+.+.+.+.+.+.+.+.+.+.+.+.+.",
"+.+.+.+.+.+.+.+.+.+.+.+.+.+.+.+.+.+.+.+.+.+.+.+.+.+.+.+.",
"+.+.+.+.+.+.+.+.+.+.+.+.+.+.+.+.+.+.+.+.+.+.+.+.+.+.+.+.",
"+.+.+.+.+.+.+.+.+.+.+.+.+.+.+.+.+.+.+.+.+.+.+.+.+.+.+.+.",
"+.+.+.+.+.+.+.+.+.+.+.+.+.+.+.+.+.+.+.+.+.+.+.+.+.+.+.+.",
"+.+.+.+.+.+.+.+.+.+.+.+.+.+.+.+.+.+.+.+.+.+.+.+.+.+.+.+.",
"+.+.+.+.+.+.+.+.+.+.+.+.+.+.+.+.+.+.+.+.+.+.+.+.+.+.+.+.",
"+.+.+.+.+.+.+.+.+.+.+.+.+.+.+.+.+.+.+.+.+.+.+.+.+.+.+.+."};
