/* XPM */
static char * close_prelight_xpm[] = {
"28 36 98 2",
"  	c #323A3F",
". 	c #414B51",
"+ 	c #414B50",
"@ 	c #414A50",
"# 	c #404A50",
"$ 	c #404950",
"% 	c #3F494F",
"& 	c #504B51",
"* 	c #C46A6C",
"= 	c #F07A7A",
"- 	c #FD8383",
"; 	c #FE8787",
"> 	c #F27A7B",
", 	c #C3696B",
"' 	c #C1696B",
") 	c #FD8585",
"! 	c #FC7A7A",
"~ 	c #F75D5D",
"{ 	c #F34A4A",
"] 	c #F14242",
"^ 	c #F75E5E",
"/ 	c #FC7B7B",
"( 	c #C0686A",
"_ 	c #434B51",
": 	c #E57576",
"< 	c #FE8383",
"[ 	c #F45252",
"} 	c #F03C3C",
"| 	c #FE8484",
"1 	c #E47475",
"2 	c #3E494E",
"3 	c #FC7C7C",
"4 	c #F14343",
"5 	c #E57676",
"6 	c #3E484E",
"7 	c #BE676A",
"8 	c #3D484D",
"9 	c #4A4A4F",
"0 	c #F45151",
"a 	c #FAC4C4",
"b 	c #FCD4D4",
"c 	c #F14B4B",
"d 	c #FCD9D9",
"e 	c #FAC0C0",
"f 	c #F45353",
"g 	c #FE8586",
"h 	c #4E4A4F",
"i 	c #3D474D",
"j 	c #C4696B",
"k 	c #FCD3D3",
"l 	c #FFFFFF",
"m 	c #FCDBDB",
"n 	c #FCD7D7",
"o 	c #C2696B",
"p 	c #3D474E",
"q 	c #F27B7B",
"r 	c #F14949",
"s 	c #FCD8D8",
"t 	c #FCDCDC",
"u 	c #F07B7B",
"v 	c #F34B4B",
"w 	c #FC8282",
"x 	c #3C464D",
"y 	c #FE8888",
"z 	c #FF8888",
"A 	c #3D474C",
"B 	c #FF8989",
"C 	c #3C464C",
"D 	c #3B464B",
"E 	c #F65E5E",
"F 	c #EF7979",
"G 	c #3C454B",
"H 	c #C36769",
"I 	c #C16769",
"J 	c #3B454B",
"K 	c #48474D",
"L 	c #FABFBF",
"M 	c #FE8585",
"N 	c #4D474D",
"O 	c #BF6769",
"P 	c #FD8484",
"Q 	c #BD6669",
"R 	c #E57475",
"S 	c #3A444A",
"T 	c #3F464C",
"U 	c #E37676",
"V 	c #3A454A",
"W 	c #BE6668",
"X 	c #BC6667",
"Y 	c #4C464C",
"Z 	c #C2696A",
"` 	c #EF7A7A",
" .	c #48464C",
"..	c #394349",
"+.	c #394449",
"@.	c #384348",
"#.	c #394348",
"$.	c #384248",
"                                                        ",
". . . . . . . . . . . . . . . . . . . . . . . . . . . . ",
". . . . . . . . . . . . . . . . . . . . . . . . . . . . ",
"+ + + + + + + + + + + + + + + + + + + + + + + + + + + + ",
"@ @ @ @ @ @ @ @ @ @ @ @ @ @ @ @ @ @ @ @ @ @ @ @ @ @ @ @ ",
"# # # # # # # # # # # # # # # # # # # # # # # # # # # # ",
"# # # # # # # # # # # # # # # # # # # # # # # # # # # # ",
"$ $ $ $ $ $ $ $ $ $ $ $ $ $ $ $ $ $ $ $ $ $ $ $ $ $ $ $ ",
"% % % % % % % % % & * = - ; ; - > , & % % % % % % % % % ",
"% % % % % % % % ' ) ! ~ { ] ] { ^ / ) ( % % % % % % % % ",
"% % % % % % _ : < [ } } } } } } } } [ | 1 _ % % % % % % ",
"2 2 2 2 2 2 : 3 ] } } } } } } } } } } 4 3 5 2 2 2 2 2 2 ",
"6 6 6 6 6 ' < 4 } } } } } } } } } } } } 4 | 7 6 6 6 6 6 ",
"8 8 8 8 9 | 0 } } a b c } } } } c d e } } f g h 8 8 8 8 ",
"i i i i j ! } } } k l m c } } c m l n } } } / o i i i i ",
"p p p p q ~ } } } r s l t c r s l m c } } } ^ u p p p p ",
"i i i i - { } } } } c m l m m l m c } } } } v w i i i i ",
"x x x x y ] } } } } } r s l l m c } } } } } ] z x x x x ",
"A A A A B ] } } } } } r s l l t c } } } } } 4 ; A A A A ",
"C C C C - { } } } } c m l m m l m c } } } } v w C C C C ",
"D D D D = ^ } } } r s l m c r s l t c } } } E F D D D D ",
"G G G G H / } } } k l m c } } c m l n } } } 3 I G G G G ",
"J J J J K | [ } } L n c } } } } c n L } } f M N J J J J ",
"J J J J J O | 4 } } } } } } } } } } } } 4 P Q J J J J J ",
"J J J J J J 1 3 4 } } } } } } } } } } 4 3 R J J J J J J ",
"S S S S S S T : | f } } } } } } } } f P U T S S S S S S ",
"V V V V V V V V W P / ^ { 4 4 v E 3 P X V V V V V V V V ",
"S S S S S S S S S Y Z ` w ; ; w ` I  .S S S S S S S S S ",
"........................................................",
"+.+.+.+.+.+.+.+.+.+.+.+.+.+.+.+.+.+.+.+.+.+.+.+.+.+.+.+.",
"........................................................",
"........................................................",
"@.@.@.@.@.@.@.@.@.@.@.@.@.@.@.@.@.@.@.@.@.@.@.@.@.@.@.@.",
"#.#.#.#.#.#.#.#.#.#.#.#.#.#.#.#.#.#.#.#.#.#.#.#.#.#.#.#.",
"$.$.$.$.$.$.$.$.$.$.$.$.$.$.$.$.$.$.$.$.$.$.$.$.$.$.$.$.",
"$.$.$.$.$.$.$.$.$.$.$.$.$.$.$.$.$.$.$.$.$.$.$.$.$.$.$.$."};
