/* XPM */
static char * hide_active_xpm[] = {
"24 24 89 1",
" 	c None",
".	c #313133",
"+	c #4B5252",
"@	c #4B5151",
"#	c #4A5152",
"$	c #4A5151",
"%	c #4B5152",
"&	c #4A5051",
"*	c #495150",
"=	c #4A5050",
"-	c #495050",
";	c #5F4E4E",
">	c #AD4140",
",	c #C73434",
"'	c #C93333",
")	c #AC4040",
"!	c #60504F",
"~	c #494F50",
"{	c #49504F",
"]	c #904746",
"^	c #CC3232",
"/	c #BD2121",
"(	c #B51A1A",
"_	c #B41A1A",
":	c #CA3232",
"<	c #8F4746",
"[	c #484F4F",
"}	c #494F4F",
"|	c #904646",
"1	c #C92F2F",
"2	c #C92E2E",
"3	c #8E4646",
"4	c #484F4E",
"5	c #484E4E",
"6	c #474F4E",
"7	c #5D4D4D",
"8	c #5F4D4D",
"9	c #484E4F",
"0	c #474D4E",
"a	c #474E4E",
"b	c #AC3F3F",
"c	c #AB3F3F",
"d	c #484D4E",
"e	c #474D4D",
"f	c #474E4D",
"g	c #C83434",
"h	c #464D4D",
"i	c #C93131",
"j	c #C93232",
"k	c #464D4C",
"l	c #474D4C",
"m	c #464C4C",
"n	c #464C4B",
"o	c #454C4C",
"p	c #C73535",
"q	c #454C4B",
"r	c #454B4B",
"s	c #AC3E3E",
"t	c #BF2121",
"u	c #AB3D3D",
"v	c #444B4B",
"w	c #444A4A",
"x	c #444B4A",
"y	c #444A4B",
"z	c #5C4949",
"A	c #CA3131",
"B	c #5B4948",
"C	c #444A49",
"D	c #8D4343",
"E	c #C82D2D",
"F	c #434A49",
"G	c #8D4342",
"H	c #BF2222",
"I	c #CB3232",
"J	c #434949",
"K	c #434948",
"L	c #5A4848",
"M	c #AB3C3C",
"N	c #C73333",
"O	c #C93231",
"P	c #C63333",
"Q	c #5C4847",
"R	c #424949",
"S	c #424848",
"T	c #424747",
"U	c #414847",
"V	c #414748",
"W	c #424748",
"X	c #414747",
"........................",
"++++++++++++++++++++++++",
"++++++++++++++++++++++++",
"++++++++++++++++++++++++",
"@+@@+@@+@+@+@+@+@+@+@+++",
"#$%#$#$%#$#$%##$%#$$%#@$",
"&&*&&&&*&&&&*&&&*&&&*&*$",
"=*-=*=*-;>,'',)!-=**-*-&",
"~{{~{~{]^/(__(/:<~{{{-~~",
"[[}[[[|1_______(23[[}}}[",
"456457^_________(:856[99",
"0aa0ab/__________/caaad5",
"eefeeg(__________(,effee",
"hhehhi____________jhehkl",
"mmkmmj____________jmkmkm",
"noono,(__________(poomqr",
"rrrrrs/__________turrrrv",
"wxywxzA(________(ABxyvrw",
"wwCwwwDE(______(EDwwCwww",
"FFCFFFFGA/(__(HIGFFFCJJw",
"JKJJKJKJLMNOjPuQJJKKJJRJ",
"RSSRSRSSRSRSSRRSSRSSSSSS",
"TUVTUTUVTUTUVTTUVTUUVWSS",
"XXXXXXXXXXXXXXXXXXXXXVTX"};
