/* XPM */
static char * hide_prelight_xpm[] = {
"24 24 95 2",
"  	c None",
". 	c #313133",
"+ 	c #4B5252",
"@ 	c #4B5151",
"# 	c #4A5152",
"$ 	c #4A5151",
"% 	c #4B5152",
"& 	c #4A5051",
"* 	c #495150",
"= 	c #4A5050",
"- 	c #495050",
"; 	c #5F4E4E",
"> 	c #AD4140",
", 	c #C73434",
"' 	c #C93333",
") 	c #AC4040",
"! 	c #60504F",
"~ 	c #494F50",
"{ 	c #49504F",
"] 	c #904746",
"^ 	c #CC3232",
"/ 	c #BD2121",
"( 	c #B51A1A",
"_ 	c #B41A1A",
": 	c #CA3232",
"< 	c #8F4746",
"[ 	c #484F4F",
"} 	c #494F4F",
"| 	c #904646",
"1 	c #C92F2F",
"2 	c #C92E2E",
"3 	c #8E4646",
"4 	c #484F4E",
"5 	c #484E4E",
"6 	c #474F4E",
"7 	c #5D4D4D",
"8 	c #5F4D4D",
"9 	c #484E4F",
"0 	c #474D4E",
"a 	c #474E4E",
"b 	c #AC3F3F",
"c 	c #AB3F3F",
"d 	c #484D4E",
"e 	c #474D4D",
"f 	c #474E4D",
"g 	c #C83434",
"h 	c #464D4D",
"i 	c #C93131",
"j 	c #CE6A6A",
"k 	c #E9BBBB",
"l 	c #C93232",
"m 	c #464D4C",
"n 	c #474D4C",
"o 	c #464C4C",
"p 	c #DA8D8D",
"q 	c #FFFFFF",
"r 	c #464C4B",
"s 	c #454C4C",
"t 	c #C34848",
"u 	c #D27676",
"v 	c #C73535",
"w 	c #454C4B",
"x 	c #454B4B",
"y 	c #AC3E3E",
"z 	c #BF2121",
"A 	c #AB3D3D",
"B 	c #444B4B",
"C 	c #444A4A",
"D 	c #444B4A",
"E 	c #444A4B",
"F 	c #5C4949",
"G 	c #CA3131",
"H 	c #5B4948",
"I 	c #444A49",
"J 	c #8D4343",
"K 	c #C82D2D",
"L 	c #434A49",
"M 	c #8D4342",
"N 	c #BF2222",
"O 	c #CB3232",
"P 	c #434949",
"Q 	c #434948",
"R 	c #5A4848",
"S 	c #AB3C3C",
"T 	c #C73333",
"U 	c #C93231",
"V 	c #C63333",
"W 	c #5C4847",
"X 	c #424949",
"Y 	c #424848",
"Z 	c #424747",
"` 	c #414847",
" .	c #414748",
"..	c #424748",
"+.	c #414747",
". . . . . . . . . . . . . . . . . . . . . . . . ",
"+ + + + + + + + + + + + + + + + + + + + + + + + ",
"+ + + + + + + + + + + + + + + + + + + + + + + + ",
"+ + + + + + + + + + + + + + + + + + + + + + + + ",
"@ + @ @ + @ @ + @ + @ + @ + @ + @ + @ + @ + + + ",
"# $ % # $ # $ % # $ # $ % # # $ % # $ $ % # @ $ ",
"& & * & & & & * & & & & * & & & * & & & * & * $ ",
"= * - = * = * - ; > , ' ' , ) ! - = * * - * - & ",
"~ { { ~ { ~ { ] ^ / ( _ _ ( / : < ~ { { { - ~ ~ ",
"[ [ } [ [ [ | 1 _ _ _ _ _ _ _ ( 2 3 [ [ } } } [ ",
"4 5 6 4 5 7 ^ _ _ _ _ _ _ _ _ _ ( : 8 5 6 [ 9 9 ",
"0 a a 0 a b / _ _ _ _ _ _ _ _ _ _ / c a a a d 5 ",
"e e f e e g ( _ _ _ _ _ _ _ _ _ _ ( , e f f e e ",
"h h e h h i _ _ j k k k k k k j _ _ l h e h m n ",
"o o m o o l _ _ p q q q q q q p _ _ l o m o m o ",
"r s s r s , ( _ t u u u u u u t _ ( v s s o w x ",
"x x x x x y / _ _ _ _ _ _ _ _ _ _ z A x x x x B ",
"C D E C D F G ( _ _ _ _ _ _ _ _ ( G H D E B x C ",
"C C I C C C J K ( _ _ _ _ _ _ ( K J C C I C C C ",
"L L I L L L L M G / ( _ _ ( N O M L L L I P P C ",
"P Q P P Q P Q P R S T U l V A W P P Q Q P P X P ",
"X Y Y X Y X Y Y X Y X Y Y X X Y Y X Y Y Y Y Y Y ",
"Z `  .Z ` Z `  .Z ` Z `  .Z Z `  .Z ` `  ...Y Y ",
"+.+.+.+.+.+.+.+.+.+.+.+.+.+.+.+.+.+.+.+.+. .Z +."};
