/* XPM */
static char * maximize_prelight_xpm[] = {
"24 24 106 2",
"  	c None",
". 	c #313133",
"+ 	c #4B5252",
"@ 	c #4B5151",
"# 	c #4A5152",
"$ 	c #4A5151",
"% 	c #4B5152",
"& 	c #4A5051",
"* 	c #495150",
"= 	c #4A5050",
"- 	c #495050",
"; 	c #5F4E4E",
"> 	c #AD4140",
", 	c #C73434",
"' 	c #C93333",
") 	c #AC4040",
"! 	c #60504F",
"~ 	c #494F50",
"{ 	c #49504F",
"] 	c #904746",
"^ 	c #CC3232",
"/ 	c #BD2121",
"( 	c #B51A1A",
"_ 	c #B41A1A",
": 	c #CA3232",
"< 	c #8F4746",
"[ 	c #484F4F",
"} 	c #494F4F",
"| 	c #904646",
"1 	c #C92F2F",
"2 	c #C92E2E",
"3 	c #8E4646",
"4 	c #484F4E",
"5 	c #484E4E",
"6 	c #474F4E",
"7 	c #5D4D4D",
"8 	c #B92929",
"9 	c #D78484",
"0 	c #D78585",
"a 	c #C65050",
"b 	c #5F4D4D",
"c 	c #484E4F",
"d 	c #474D4E",
"e 	c #474E4E",
"f 	c #AC3F3F",
"g 	c #D17373",
"h 	c #FEFDFD",
"i 	c #FFFFFF",
"j 	c #DA8D8D",
"k 	c #AB3F3F",
"l 	c #484D4E",
"m 	c #474D4D",
"n 	c #474E4D",
"o 	c #C83434",
"p 	c #BA2C2C",
"q 	c #464D4D",
"r 	c #C93131",
"s 	c #D98C8C",
"t 	c #D37A7A",
"u 	c #C93232",
"v 	c #464D4C",
"w 	c #474D4C",
"x 	c #464C4C",
"y 	c #FFFEFE",
"z 	c #D98B8B",
"A 	c #464C4B",
"B 	c #454C4C",
"C 	c #C73535",
"D 	c #454C4B",
"E 	c #454B4B",
"F 	c #AC3E3E",
"G 	c #BF2121",
"H 	c #AB3D3D",
"I 	c #444B4B",
"J 	c #444A4A",
"K 	c #444B4A",
"L 	c #444A4B",
"M 	c #5C4949",
"N 	c #CA3131",
"O 	c #C85757",
"P 	c #DC9494",
"Q 	c #DC9393",
"R 	c #BB3030",
"S 	c #5B4948",
"T 	c #444A49",
"U 	c #8D4343",
"V 	c #C82D2D",
"W 	c #434A49",
"X 	c #8D4342",
"Y 	c #BF2222",
"Z 	c #CB3232",
"` 	c #434949",
" .	c #434948",
"..	c #5A4848",
"+.	c #AB3C3C",
"@.	c #C73333",
"#.	c #C93231",
"$.	c #C63333",
"%.	c #5C4847",
"&.	c #424949",
"*.	c #424848",
"=.	c #424747",
"-.	c #414847",
";.	c #414748",
">.	c #424748",
",.	c #414747",
". . . . . . . . . . . . . . . . . . . . . . . . ",
"+ + + + + + + + + + + + + + + + + + + + + + + + ",
"+ + + + + + + + + + + + + + + + + + + + + + + + ",
"+ + + + + + + + + + + + + + + + + + + + + + + + ",
"@ + @ @ + @ @ + @ + @ + @ + @ + @ + @ + @ + + + ",
"# $ % # $ # $ % # $ # $ % # # $ % # $ $ % # @ $ ",
"& & * & & & & * & & & & * & & & * & & & * & * $ ",
"= * - = * = * - ; > , ' ' , ) ! - = * * - * - & ",
"~ { { ~ { ~ { ] ^ / ( _ _ ( / : < ~ { { { - ~ ~ ",
"[ [ } [ [ [ | 1 _ _ _ _ _ _ _ ( 2 3 [ [ } } } [ ",
"4 5 6 4 5 7 ^ _ _ _ 8 9 0 0 0 a ( : b 5 6 [ c c ",
"d e e d e f / _ _ _ _ g h i i j _ / k e e e l 5 ",
"m m n m m o ( _ p _ _ _ g h i j _ ( , m n n m m ",
"q q m q q r _ _ s t _ _ _ g h j _ _ u q m q v w ",
"x x v x x u _ _ j y t _ _ _ g z _ _ u x v x v x ",
"A B B A B , ( _ j i y t _ _ _ p _ ( C B B x D E ",
"E E E E E F / _ j i i y t _ _ _ _ G H E E E E I ",
"J K L J K M N ( O P P P Q R _ _ ( N S K L I E J ",
"J J T J J J U V ( _ _ _ _ _ _ ( V U J J T J J J ",
"W W T W W W W X N / ( _ _ ( Y Z X W W W T ` ` J ",
"`  .` `  .`  .` ..+.@.#.u $.H %.` `  . .` ` &.` ",
"&.*.*.&.*.&.*.*.&.*.&.*.*.&.&.*.*.&.*.*.*.*.*.*.",
"=.-.;.=.-.=.-.;.=.-.=.-.;.=.=.-.;.=.-.-.;.>.*.*.",
",.,.,.,.,.,.,.,.,.,.,.,.,.,.,.,.,.,.,.,.,.;.=.,."};
