/* XPM */
static char * menu_prelight_xpm[] = {
"24 36 113 2",
"  	c #323A3F",
". 	c #3F4C53",
"+ 	c #3F4C52",
"@ 	c #3E4C53",
"# 	c #3F4B53",
"$ 	c #3E4C52",
"% 	c #3E4B52",
"& 	c #3F4B52",
"* 	c #3E4B53",
"= 	c #3E4A52",
"- 	c #404A50",
"; 	c #202323",
"> 	c #0F0F0F",
", 	c #0A0A0A",
"' 	c #3D4B51",
") 	c #161818",
"! 	c #444D52",
"~ 	c #3D4A51",
"{ 	c #363F45",
"] 	c #3D4A50",
"^ 	c #343E44",
"/ 	c #343D44",
"( 	c #343E43",
"_ 	c #3C4950",
": 	c #333C41",
"< 	c #333C42",
"[ 	c #3D4950",
"} 	c #313B41",
"| 	c #313B40",
"1 	c #313A40",
"2 	c #323A40",
"3 	c #323B41",
"4 	c #313A41",
"5 	c #3C494F",
"6 	c #2F393E",
"7 	c #2F383E",
"8 	c #FFFFFF",
"9 	c #3C4850",
"0 	c #2E373C",
"a 	c #3B494F",
"b 	c #3B484F",
"c 	c #2C353B",
"d 	c #2D353B",
"e 	c #2C353A",
"f 	c #2D353A",
"g 	c #2A3339",
"h 	c #2B3338",
"i 	c #2A3338",
"j 	c #3A484F",
"k 	c #293236",
"l 	c #3A484E",
"m 	c #283035",
"n 	c #273035",
"o 	c #283034",
"p 	c #3A474E",
"q 	c #262D33",
"r 	c #262D32",
"s 	c #252D33",
"t 	c #262E32",
"u 	c #262E33",
"v 	c #3A474D",
"w 	c #242B30",
"x 	c #242C30",
"y 	c #242B31",
"z 	c #242C31",
"A 	c #232C30",
"B 	c #39464E",
"C 	c #23292E",
"D 	c #232A2E",
"E 	c #21292C",
"F 	c #21292D",
"G 	c #21282D",
"H 	c #39464D",
"I 	c #1F262A",
"J 	c #1F262B",
"K 	c #1F272B",
"L 	c #20262A",
"M 	c #39454D",
"N 	c #1E2529",
"O 	c #1F2529",
"P 	c #38464D",
"Q 	c #1C2227",
"R 	c #1C2327",
"S 	c #1D2327",
"T 	c #1C2326",
"U 	c #1D2326",
"V 	c #38454C",
"W 	c #38454D",
"X 	c #1B2125",
"Y 	c #39454C",
"Z 	c #1A2024",
"` 	c #37444B",
" .	c #101212",
"..	c #171B1B",
"+.	c #181D1D",
"@.	c #37454C",
"#.	c #394449",
"$.	c #202424",
"%.	c #101111",
"&.	c #0B0C0C",
"*.	c #38444B",
"=.	c #37444C",
"-.	c #394349",
";.	c #555B5B",
">.	c #5C6161",
",.	c #5E6363",
"'.	c #37444A",
").	c #37434B",
"!.	c #37434A",
"~.	c #36444B",
"{.	c #36444A",
"].	c #36434B",
"^.	c #36434A",
"                                                ",
". . . . . . . . . . . . . . . . . . . . . . . . ",
". + . . . + . . . . . @ . # $ # . . + . . + . + ",
". . # @ . . % + & . @ & & & % $ . + # & & @ # & ",
"@ % % + @ % $ & % + & @ $ # % # . & % & @ & $ % ",
"% % % % % % % % % % % % * % % % % % % % % % % % ",
"= - ; > , , , , , , , , , , , , , , , , > ; - % ",
"' ; ) ! ! ! ! ! ! ! ! ! ! ! ! ! ! ! ! ! ! ) ; % ",
"~ > { { { { { { { { { { { { { { { { { { { { > ~ ",
"~ , { { { { { { { { { { { { { { { { { { { { , ~ ",
"] , ^ ^ / / ^ ^ ^ ( ^ ^ ^ ( ^ ( ^ ^ / / ^ ^ , ~ ",
"_ , : < < < : < < < : < : : < : : : < < < : , [ ",
"_ , } | } } 1 | | 2 3 1 | 1 1 2 4 1 } } | } , [ ",
"5 , 6 7 6 6 7 8 8 8 8 8 8 8 8 8 8 7 6 6 7 6 , 9 ",
"9 , 0 0 0 0 0 8 8 8 8 8 8 8 8 8 8 0 0 0 0 0 , a ",
"b , c d d d e e d f e c e f d f e e d d d c , b ",
"b , g h i h h i h h i h h i h h h h h i h g , b ",
"j , k k k k k 8 8 8 8 8 8 8 8 8 8 k k k k k , b ",
"l , m n m o o 8 8 8 8 8 8 8 8 8 8 o o m n m , p ",
"p , q r r s t r u s t q t r q s t t s r r q , p ",
"v , w x x y y x x x w y z x w A A y y x x w , p ",
"B , C C C C D 8 8 8 8 8 8 8 8 8 8 D C C C C , p ",
"v , E F G G G 8 8 8 8 8 8 8 8 8 8 G G G F E , B ",
"H , I I J I J I K I I J J I J I L J I J I I , H ",
"M , N N N O N N N O O N N N N N N N O N N N , P ",
"M , Q R R S T R S R Q S U R U R S T S R R Q , V ",
"W , X X X X X X X X X X X X X X X X X X X X , Y ",
"V > Z Z Z Z Z Z Z Z Z Z Z Z Z Z Z Z Z Z Z Z > V ",
"` ;  ...+.+.+.+.+.+.+.+.+.+.+.+.+.+.+.+... .; V ",
"@.#.$.%.&.&.&.&.&.&.&.&.&.&.&.&.&.&.&.&.%.$.#.*.",
"=.-.-.;.>.,.,.,.,.,.,.,.,.,.,.,.,.,.,.>.;.-.-.` ",
"` ` ` ` ` ` ` ` ` ` '.` ` ).` '.` ` ).!.` '.` ` ",
"~.'.!.!.~.'.'.{.'.].{.` !.).).` ` {.).^.'.~.^.~.",
"!.{.~.^.!.{.).).!.].^.~.].!.'.].].^.^.~.{.^.!.` ",
"^.^.^.^.^.^.{.^.{.^.^.^.^.^.^.~.^.^.^.^.^.^.{.^.",
"^.^.^.^.^.^.^.^.^.^.^.^.^.^.^.^.^.^.^.^.^.^.^.^."};
