/* XPM */
static char * stick_toggled_inactive_xpm[] = {
"24 36 127 2",
"  	c #323A3F",
". 	c #3F4C53",
"+ 	c #3F4C52",
"@ 	c #3E4C53",
"# 	c #3F4B53",
"$ 	c #3E4C52",
"% 	c #3E4B52",
"& 	c #3F4B52",
"* 	c #3E4B53",
"= 	c #3E4A52",
"- 	c #404A50",
"; 	c #424848",
"> 	c #101010",
", 	c #0A0A0A",
"' 	c #3D4B51",
") 	c #0B0D0D",
"! 	c #0E1212",
"~ 	c #0F1313",
"{ 	c #3D4A51",
"] 	c #0F1010",
"^ 	c #101514",
"/ 	c #111514",
"( 	c #111414",
"_ 	c #101414",
": 	c #101415",
"< 	c #111515",
"[ 	c #3D4A50",
"} 	c #111415",
"| 	c #3C4950",
"1 	c #3D4950",
"2 	c #242626",
"3 	c #666666",
"4 	c #818181",
"5 	c #8E8E8E",
"6 	c #242727",
"7 	c #101515",
"8 	c #3C494F",
"9 	c #4C4C4D",
"0 	c #7D7D7D",
"a 	c #757575",
"b 	c #4F4F4F",
"c 	c #222525",
"d 	c #222425",
"e 	c #4E4F4F",
"f 	c #4C4D4D",
"g 	c #3C4850",
"h 	c #121616",
"i 	c #121515",
"j 	c #121516",
"k 	c #252728",
"l 	c #3B494F",
"m 	c #3B484F",
"n 	c #121716",
"o 	c #121717",
"p 	c #383939",
"q 	c #707070",
"r 	c #8B8B8B",
"s 	c #131616",
"t 	c #131817",
"u 	c #131717",
"v 	c #131718",
"w 	c #4F5050",
"x 	c #909090",
"y 	c #3A484F",
"z 	c #141818",
"A 	c #141718",
"B 	c #141817",
"C 	c #3A484E",
"D 	c #141819",
"E 	c #141919",
"F 	c #151918",
"G 	c #151919",
"H 	c #252726",
"I 	c #3A474E",
"J 	c #161919",
"K 	c #707171",
"L 	c #15191A",
"M 	c #3A474D",
"N 	c #161A1A",
"O 	c #666767",
"P 	c #757676",
"Q 	c #393A3A",
"R 	c #39464E",
"S 	c #171B1B",
"T 	c #171A1B",
"U 	c #282A2A",
"V 	c #7D7E7E",
"W 	c #171C1B",
"X 	c #181B1B",
"Y 	c #181C1C",
"Z 	c #4D4E4E",
"` 	c #7E7E7E",
" .	c #505151",
"..	c #262929",
"+.	c #262828",
"@.	c #39464D",
"#.	c #292B2B",
"$.	c #39454D",
"%.	c #38464D",
"&.	c #181C1D",
"*.	c #191D1D",
"=.	c #181D1D",
"-.	c #38454C",
";.	c #38454D",
">.	c #191C1C",
",.	c #191C1D",
"'.	c #181D1C",
").	c #39454C",
"!.	c #0F0F0F",
"~.	c #161B1B",
"{.	c #37444B",
"].	c #394349",
"^.	c #0E0F0F",
"/.	c #37454C",
"(.	c #394449",
"_.	c #38444B",
":.	c #37444C",
"<.	c #545A5A",
"[.	c #5D6262",
"}.	c #5E6363",
"|.	c #37444A",
"1.	c #37434B",
"2.	c #37434A",
"3.	c #36444B",
"4.	c #36444A",
"5.	c #36434B",
"6.	c #36434A",
"                                                ",
". . . . . . . . . . . . . . . . . . . . . . . . ",
". + . . . + . . . . . @ . # $ # . . + . . + . + ",
". . # @ . . % + & . @ & & & % $ . + # & & @ # & ",
"@ % % + @ % $ & % + & @ $ # % # . & % & @ & $ % ",
"% % % % % % % % % % % % * % % % % % % % % % % % ",
"= - ; > , , , , , , , , , , , , , , , , > ; - % ",
"' ; ) ! ~ ~ ~ ~ ~ ~ ~ ~ ~ ~ ~ ~ ~ ~ ~ ~ ! ) ; % ",
"{ ] ^ / ( _ _ ( _ _ ( _ ( _ _ _ _ _ _ ( / ^ ] { ",
"{ , / : < _ _ < _ _ < _ < _ _ _ _ _ _ < : / , { ",
"[ , } ( ^ _ _ ^ _ _ ^ _ ^ _ _ _ _ _ _ ^ ( } , { ",
"| , _ ( _ _ _ _ _ _ _ _ _ _ _ _ _ _ _ _ ( _ , 1 ",
"| , : _ ( _ _ ( 2 3 4 5 5 4 3 6 7 _ _ ( _ : , 1 ",
"8 , < } } 7 / 9 0 a b c d e a 0 f / 7 } } < , g ",
"g , h < i j k 0 3 j i j i j j 3 0 k j i < h , l ",
"m , n o h h 3 a h p q r r q p s a 3 h h o n , m ",
"m , t u u v 4 w v q x x x x q u w 4 v u u t , m ",
"y , z A B z 5 2 z r x x x x r z 2 5 z B A z , m ",
"C , D E F G 5 H G r x x x x r F H 5 G F E D , I ",
"I , G J J J 4 w J K x x x x K L w 4 J J J G , I ",
"M , N N N N O P N Q K r r K Q N P O N N N N , I ",
"R , S T S S U V O T S S S S T O V U S S T S , I ",
"M , W W X Y X Z ` P  ...+. .P ` Z X Y X W W , R ",
"@., Y Y Y Y Y Y #.O 4 5 5 4 O #.Y Y Y Y Y Y , @.",
"$., Y Y Y Y Y Y Y Y Y Y Y Y Y Y Y Y Y Y Y Y , %.",
"$., &.*.=.&.&.=.&.&.=.&.=.&.&.&.&.&.&.=.*.&., -.",
";., >.=.,.>.>.,.>.>.,.>.,.>.>.'.'.>.>.,.=.>., ).",
"-.!.~.=.=.=.=.=.=.=.=.=.=.=.=.=.=.=.=.=.=.~.!.-.",
"{.].^.~.=.=.=.=.=.=.=.=.=.=.=.=.=.=.=.=.~.^.].-.",
"/.(.(.] , , , , , , , , , , , , , , , , ] (.(._.",
":.].].<.[.}.}.}.}.}.}.}.}.}.}.}.}.}.}.[.<.].].{.",
"{.{.{.{.{.{.{.{.{.{.|.{.{.1.{.|.{.{.1.2.{.|.{.{.",
"3.|.2.2.3.|.|.4.|.5.4.{.2.1.1.{.{.4.1.6.|.3.6.3.",
"2.4.3.6.2.4.1.1.2.5.6.3.5.2.|.5.5.6.6.3.4.6.2.{.",
"6.6.6.6.6.6.4.6.4.6.6.6.6.6.6.3.6.6.6.6.6.6.4.6.",
"6.6.6.6.6.6.6.6.6.6.6.6.6.6.6.6.6.6.6.6.6.6.6.6."};
