/* XPM */
static char * top_right_active_xpm[] = {
"5 36 39 1",
" 	c None",
".	c #323A3F",
"+	c #3F4C53",
"@	c #3F4C52",
"#	c #3F4B52",
"$	c #3E4B52",
"%	c #3E4C52",
"&	c #3E4B51",
"*	c #3D4B51",
"=	c #3D4A51",
"-	c #3D4A50",
";	c #3C4951",
">	c #3D4950",
",	c #3C4950",
"'	c #3C4850",
")	c #3B494F",
"!	c #3C484F",
"~	c #3B4850",
"{	c #3B484F",
"]	c #3A474E",
"^	c #3A474F",
"/	c #3A484E",
"(	c #3B474E",
"_	c #39474E",
":	c #39464D",
"<	c #39464E",
"[	c #38464D",
"}	c #39454C",
"|	c #38454C",
"1	c #38454D",
"2	c #37454C",
"3	c #38444B",
"4	c #37444B",
"5	c #37444C",
"6	c #37434B",
"7	c #36444B",
"8	c #37434A",
"9	c #36434A",
"0	c #36434B",
"...  ",
"+++. ",
"@@+@.",
"##++.",
"$$%@.",
"$$$$.",
"$$$&.",
"$$*=.",
"==*=.",
"===-.",
"==;;.",
">>>;.",
">>,,.",
"'','.",
"))!~.",
"{{{{.",
"{{{{.",
"{{{{.",
"]]^/.",
"]]/(.",
"]]]].",
"]]_:.",
"<<<<.",
"::::.",
"[[}:.",
"||[1.",
"}}1|.",
"||||.",
"|||2.",
"3345.",
"4444.",
"4446.",
"7748.",
"4499.",
"9909.",
"9999."};
