/* XPM */
static char * top_left_active_xpm[] = {
"5 36 45 1",
" 	c None",
".	c #323A3F",
"+	c #3F4C53",
"@	c #3F4B53",
"#	c #3E4C53",
"$	c #3E4B52",
"%	c #3F4C52",
"&	c #3E4A52",
"*	c #3E4B51",
"=	c #3D4B51",
"-	c #3D4A52",
";	c #3E4A51",
">	c #3D4A51",
",	c #3C4A51",
"'	c #3D4951",
")	c #3D4A50",
"!	c #3C4950",
"~	c #3C4951",
"{	c #3B4950",
"]	c #3C494F",
"^	c #3C484F",
"/	c #3C4850",
"(	c #3B484F",
"_	c #3A484F",
":	c #3B474F",
"<	c #3A484E",
"[	c #3B474E",
"}	c #3A474E",
"|	c #3A474D",
"1	c #39464E",
"2	c #3A464D",
"3	c #39474D",
"4	c #39464D",
"5	c #39454D",
"6	c #38464D",
"7	c #38454D",
"8	c #39464C",
"9	c #38454C",
"0	c #37454C",
"a	c #37444B",
"b	c #37444C",
"c	c #37454B",
"d	c #37434A",
"e	c #36444B",
"f	c #36434A",
"  ...",
" .+++",
".++++",
".@#++",
".$%##",
".$$$$",
".$$&&",
".*&==",
".-;>>",
".>>>>",
".,'))",
".!>!!",
".!~!!",
".{]]]",
".]^//",
".^]((",
".((((",
".(___",
".::<<",
".<[}}",
".}}||",
".|}11",
".23||",
".4444",
".4555",
".6655",
".7877",
".9999",
".09aa",
".bc00",
".cabb",
".aaaa",
".ddee",
".efdd",
".ffff",
".ffff"};
