/* XPM */
static char * close_active_xpm[] = {
"28 36 122 2",
"  	c None",
". 	c #313133",
"+ 	c #4B5252",
"@ 	c #4B5251",
"# 	c #4A5251",
"$ 	c #4A5152",
"% 	c #4B5151",
"& 	c #4A5252",
"* 	c #4B5152",
"= 	c #4A5151",
"- 	c #495151",
"; 	c #4A5150",
"> 	c #495150",
", 	c #495050",
"' 	c #4A5051",
") 	c #4A5050",
"! 	c #495051",
"~ 	c #494F50",
"{ 	c #49504F",
"] 	c #4D5357",
"^ 	c #798996",
"/ 	c #9AAFC1",
"( 	c #ACC3D8",
"_ 	c #B1CADF",
": 	c #99AFC0",
"< 	c #788994",
"[ 	c #4D5257",
"} 	c #484F4F",
"| 	c #494F4E",
"1 	c #778792",
"2 	c #ACC4D8",
"3 	c #ADC5DA",
"4 	c #A9C0D8",
"5 	c #A4B9D2",
"6 	c #A1B6D0",
"7 	c #ADC4DA",
"8 	c #ACC5D8",
"9 	c #768691",
"0 	c #474F4F",
"a 	c #484E4E",
"b 	c #90A3B3",
"c 	c #B1C9DF",
"d 	c #A6BBD4",
"e 	c #A0B4CE",
"f 	c #A6BCD4",
"g 	c #B1CADE",
"h 	c #8FA3B2",
"i 	c #474E4E",
"j 	c #90A2B2",
"k 	c #AEC8DC",
"l 	c #A2B6D0",
"m 	c #AFC7DD",
"n 	c #8FA3B0",
"o 	c #474D4E",
"p 	c #B0CADE",
"q 	c #75848F",
"r 	c #474D4C",
"s 	c #464C4D",
"t 	c #484F52",
"u 	c #ADC5D8",
"v 	c #A5BBD4",
"w 	c #ACC5D9",
"x 	c #4B5053",
"y 	c #464D4D",
"z 	c #454C4C",
"A 	c #464C4C",
"B 	c #788894",
"C 	c #ACC5DA",
"D 	c #768693",
"E 	c #454C4B",
"F 	c #9AB0C1",
"G 	c #AABFD8",
"H 	c #A9BFD7",
"I 	c #454B4B",
"J 	c #AAC2D8",
"K 	c #AAC3D8",
"L 	c #444B4B",
"M 	c #444A4B",
"N 	c #A2B6CF",
"O 	c #B1CBE0",
"P 	c #454B4A",
"Q 	c #444A4A",
"R 	c #434A4A",
"S 	c #B2CBDF",
"T 	c #434A49",
"U 	c #ABC3D6",
"V 	c #44494A",
"W 	c #434949",
"X 	c #98AEBF",
"Y 	c #A9C0D7",
"Z 	c #97AEBF",
"` 	c #424948",
" .	c #424848",
"..	c #424849",
"+.	c #768692",
"@.	c #758691",
"#.	c #424847",
"$.	c #444A4E",
"%.	c #ABC4D8",
"&.	c #ADC4D8",
"*.	c #464C4F",
"=.	c #414747",
"-.	c #424747",
";.	c #73838F",
">.	c #B1C9DE",
",.	c #B0C9DE",
"'.	c #72808C",
").	c #8DA1B1",
"!.	c #AFC6DD",
"~.	c #8CA1AF",
"{.	c #8DA1AF",
"].	c #8C9FB0",
"^.	c #73828D",
"/.	c #ABC3D7",
"(.	c #AAC0D8",
"_.	c #AAC3D7",
":.	c #71818B",
"<.	c #454B4F",
"[.	c #758491",
"}.	c #98AEBE",
"|.	c #758690",
"1.	c #43494D",
". . . . . . . . . . . . . . . . . . . . . . . . . . . . ",
"+ + + + + + + + + + + + + + + + + + + + + + + + + + + + ",
"+ + + + + + + + + + + + + + + + + + + + + + + + + + + + ",
"+ + + + + + + + + + + + + + + + + + + + + + + + + + + + ",
"@ @ @ + # $ + @ % + % + @ & @ + # $ + @ @ @ @ @ * + @ @ ",
"% % % = * % @ $ $ = * # % = % = * % @ $ % = % = $ % % % ",
"- - - - ; > = , ' ' > ; ) ! - - ; > = , ; = = ; = = - - ",
"! ! ! , , ) , ! ) > , , , ) ! , , ) , ! ! , , , ) , ! ! ",
"~ ~ ~ { , ~ ~ ~ ~ ] ^ / ( _ _ ( : < [ ~ { , ~ ~ { , ~ ~ ",
"} } } | } } } } 1 2 3 4 5 6 6 5 4 7 8 9 | } } } | } } } ",
"0 0 0 a } 0 - b c d e e e e e e e e f g h = 0 0 a } 0 0 ",
"i i i i a i j k 6 e e e e e e e e e e l m n i i i a i i ",
"o o o o o 9 c l e e e e e e e e e e e e l p q o o o o o ",
"r r r s t u v e e e e e e e e e e e e e e d w x s y r r ",
"z z z A B C e e e e e e e e e e e e e e e e C D A z z z ",
"E E E z F G e e e e e e e e e e e e e e e e H : z z E E ",
"I I I I J 5 e e e e e e e e e e e e e e e e 5 K I L I I ",
"M M M L _ N e e e e e e e e e e e e e e e e 6 O L P M M ",
"Q Q Q R S 6 e e e e e e e e e e e e e e e e l _ R Q Q Q ",
"R R R T J 5 e e e e e e e e e e e e e e e e 5 U T V R R ",
"W W W W X 4 e e e e e e e e e e e e e e e e Y Z W ` W W ",
" . . ...+.7 e e e e e e e e e e e e e e e e 3 @... . . .",
"#.#.#. .$.%.f e e e e e e e e e e e e e e f &.*. . .#.#.",
"=.=.=.-.-.;.>.l e e e e e e e e e e e e l ,.'.=.-.-.=.=.",
"=.=.=.=.=.=.).!.l e e e e e e e e e e l !.~.=.=.=.=.=.=.",
"=.=.=.=.=.=.W {.,.d e e e e e e e e d ,.].W =.=.=.=.=.=.",
"=.=.=.=.=.=.=.=.^./.C (.5 l l 5 H 3 _.:.=.=.=.=.=.=.=.=.",
"=.=.=.=.=.=.=.=.=.<.[.}./._ _ /.}.|.1.=.=.=.=.=.=.=.=.=.",
"=.=.=.=.=.=.=.=.=.=.=.=.=.=.=.=.=.=.=.=.=.=.=.=.=.=.=.=.",
"=.=.=.=.=.=.=.=.=.=.=.=.=.=.=.=.=.=.=.=.=.=.=.=.=.=.=.=.",
"=.=.=.=.=.=.=.=.=.=.=.=.=.=.=.=.=.=.=.=.=.=.=.=.=.=.=.=.",
"=.=.=.=.=.=.=.=.=.=.=.=.=.=.=.=.=.=.=.=.=.=.=.=.=.=.=.=.",
"=.=.=.=.=.=.=.=.=.=.=.=.=.=.=.=.=.=.=.=.=.=.=.=.=.=.=.=.",
"=.=.=.=.=.=.=.=.=.=.=.=.=.=.=.=.=.=.=.=.=.=.=.=.=.=.=.=.",
"=.=.=.=.=.=.=.=.=.=.=.=.=.=.=.=.=.=.=.=.=.=.=.=.=.=.=.=.",
"=.=.=.=.=.=.=.=.=.=.=.=.=.=.=.=.=.=.=.=.=.=.=.=.=.=.=.=."};
