/* XPM */
static char * close_active_xpm[] = {
"28 36 155 2",
"  	c #323A3F",
". 	c #3F4C53",
"+ 	c #3F4C52",
"@ 	c #3E4C53",
"# 	c #3F4B53",
"$ 	c #3E4C52",
"% 	c #3E4B52",
"& 	c #3F4B52",
"* 	c #3E4B53",
"= 	c #3E4A52",
"- 	c #3D4A52",
"; 	c #3D4B51",
"> 	c #3D4B52",
", 	c #3E4B51",
"' 	c #3E4A51",
") 	c #3F4A50",
"! 	c #404950",
"~ 	c #3F4951",
"{ 	c #3D4A51",
"] 	c #3E4950",
"^ 	c #444D56",
"/ 	c #768795",
"( 	c #99AFC1",
"_ 	c #ABC3D8",
": 	c #B1CADF",
"< 	c #98AEC0",
"[ 	c #758694",
"} 	c #738592",
"| 	c #ABC4D8",
"1 	c #ACC5DA",
"2 	c #A9C0D8",
"3 	c #A4B9D2",
"4 	c #A1B6D0",
"5 	c #ADC4DA",
"6 	c #ACC5D8",
"7 	c #728491",
"8 	c #3D4A50",
"9 	c #3C4A51",
"0 	c #3D4951",
"a 	c #404B51",
"b 	c #8EA1B3",
"c 	c #B1C8DF",
"d 	c #A6BBD4",
"e 	c #A0B4CE",
"f 	c #A6BCD4",
"g 	c #B1C9DE",
"h 	c #8DA2B2",
"i 	c #3C4951",
"j 	c #3C4950",
"k 	c #3E494F",
"l 	c #8EA1B2",
"m 	c #AEC7DC",
"n 	c #A2B6D0",
"o 	c #AFC7DD",
"p 	c #8DA2B0",
"q 	c #3C4A50",
"r 	c #3D4950",
"s 	c #3D484F",
"t 	c #738591",
"u 	c #B0C9DE",
"v 	c #72828F",
"w 	c #3B4950",
"x 	c #3C494F",
"y 	c #404A52",
"z 	c #ACC4D8",
"A 	c #A5BBD4",
"B 	c #ACC5D9",
"C 	c #424C54",
"D 	c #3C4850",
"E 	c #3C484F",
"F 	c #758695",
"G 	c #738493",
"H 	c #3B494F",
"I 	c #3B4850",
"J 	c #3B484F",
"K 	c #3D474E",
"L 	c #99B0C2",
"M 	c #AABFD8",
"N 	c #A9BFD7",
"O 	c #3C474E",
"P 	c #3D474D",
"Q 	c #AAC2D8",
"R 	c #AAC3D8",
"S 	c #3A484F",
"T 	c #3C464D",
"U 	c #A2B6CF",
"V 	c #B1CBE0",
"W 	c #3B474F",
"X 	c #3A484E",
"Y 	c #3D474C",
"Z 	c #B2CBDF",
"` 	c #3A474E",
" .	c #3A474F",
"..	c #3B474E",
"+.	c #3C464C",
"@.	c #ABC3D6",
"#.	c #3A474D",
"$.	c #3B464C",
"%.	c #A9C0D7",
"&.	c #96AEBF",
"*.	c #39464E",
"=.	c #3B464D",
"-.	c #748593",
";.	c #ADC5DA",
">.	c #39474E",
",.	c #39464D",
"'.	c #3A464D",
").	c #39474D",
"!.	c #3E4751",
"~.	c #404952",
"{.	c #3A454C",
"].	c #718390",
"^.	c #70808D",
"/.	c #39454D",
"(.	c #8CA1B2",
"_.	c #AFC6DD",
":.	c #8BA0AF",
"<.	c #38464D",
"[.	c #39454C",
"}.	c #38464C",
"|.	c #8CA1B0",
"1.	c #8B9FB1",
"2.	c #39464C",
"3.	c #38454C",
"4.	c #38454D",
"5.	c #39454B",
"6.	c #71818E",
"7.	c #AAC3D7",
"8.	c #AAC0D8",
"9.	c #6F818C",
"0.	c #3A454B",
"a.	c #39444B",
"b.	c #3F4851",
"c.	c #728492",
"d.	c #98AEBF",
"e.	c #ABC3D7",
"f.	c #3D4650",
"g.	c #37454C",
"h.	c #37444B",
"i.	c #37454B",
"j.	c #38444A",
"k.	c #39434A",
"l.	c #394349",
"m.	c #39444A",
"n.	c #38454B",
"o.	c #38444C",
"p.	c #37444C",
"q.	c #38444B",
"r.	c #37444A",
"s.	c #37434B",
"t.	c #37434A",
"u.	c #36444B",
"v.	c #36444A",
"w.	c #36434B",
"x.	c #36434A",
"                                                        ",
". . . . . . . . . . . . . . . . . . . . . . . . . . . . ",
". . . + . . . + . . . . . @ . # $ # . . + . . + . + . + ",
"# @ . . # @ . . % + & . @ & & & % $ . + # & & @ # & . . ",
"% + @ % % + @ % $ & % + & @ $ # % # . & % & @ & $ % $ + ",
"% % % % % % % % % % % % % % * % % % % % % % % % % % % % ",
"% % = = % % = = % = % - % % ; ; % = > % > = , % % % % , ",
", = ; > , = ; > ; - ' ) ! ! ! ! ~ ' - { ; - { { - % ; { ",
"- ' { { - ' { { ] ^ / ( _ : : _ < [ ^ ] - { ' { - { ; { ",
"{ { { { { { { ] } | 1 2 3 4 4 3 2 5 6 7 ] { { { { { { 8 ",
"9 0 8 8 9 0 a b c d e e e e e e e e f g h a 0 { i { i i ",
"j { j j j k l m 4 e e e e e e e e e e n o p k q i r r i ",
"j i j j s t c n e e e e e e e e e e e e n u v s j r j j ",
"w x x x y z A e e e e e e e e e e e e e e d B C D D j D ",
"x E D E F 1 e e e e e e e e e e e e e e e e 1 G E H E I ",
"E x J K L M e e e e e e e e e e e e e e e e N < O J J J ",
"J J J P Q 3 e e e e e e e e e e e e e e e e 3 R P J J J ",
"J S S T : U e e e e e e e e e e e e e e e e 4 V T J J J ",
"W W X Y Z 4 e e e e e e e e e e e e e e e e n : Y `  .X ",
"X ..` +.Q 3 e e e e e e e e e e e e e e e e 3 @.+.` X ..",
"` ` #.$.< 2 e e e e e e e e e e e e e e e e %.&.$.` ` ` ",
"#.` *.=.-.5 e e e e e e e e e e e e e e e e ;.} $.` >.,.",
"'.).#.).!.| f e e e e e e e e e e e e e e f z ~.*.*.*.*.",
",.,.,.,.{.].g n e e e e e e e e e e e e n u ^.{.,.,.,.,.",
",././.,.,.{.(._.n e e e e e e e e e e n _.:.{./.,.<.[.,.",
"<.<./.}.<.}.+.|.u d e e e e e e e e d u 1.+.2.<.3.3.<.4.",
"4.2.4.3.4.2.3.5.6.7.1 8.3 n n 3 N ;.7.9.0.}.3.3.}.[.4.3.",
"3.3.3.3.3.3.3.3.a.b.c.d.e.: : e.d.t f.a.3.3.3.3.3.3.3.3.",
"g.3.h.i.g.3.h.i.g.3.j.k.l.l.l.l.m.j.3.3.n.3.o.n.3.3.3.g.",
"p.i.g.3.p.i.g.3.g.3.n.q.3.o.i.3.g.q.i.3.p.h.3.i.h.q.h.p.",
"i.h.p.h.i.h.p.h.p.h.q.h.h.h.h.h.p.h.h.p.q.i.i.h.q.h.h.h.",
"h.h.h.h.h.h.h.h.h.h.h.h.r.h.h.s.h.r.h.h.s.t.h.r.h.h.h.s.",
"t.t.u.r.t.t.u.r.r.v.r.w.v.h.t.s.s.h.h.v.s.x.r.u.x.u.h.t.",
"u.x.t.v.u.x.t.v.s.s.t.w.x.u.w.t.r.w.w.x.x.u.v.x.t.h.x.x.",
"x.x.x.x.x.x.x.x.v.x.v.x.x.x.x.x.x.u.x.x.x.x.x.x.v.x.w.x.",
"x.x.x.x.x.x.x.x.x.x.x.x.x.x.x.x.x.x.x.x.x.x.x.x.x.x.x.x."};
