/* XPM */
static char * close_active_xpm[] = {
"24 24 88 1",
" 	c None",
".	c #313133",
"+	c #4B5252",
"@	c #4B5151",
"#	c #4A5152",
"$	c #4A5151",
"%	c #4B5152",
"&	c #4A5051",
"*	c #495150",
"=	c #4A5050",
"-	c #495050",
";	c #5B6669",
">	c #A1B2BE",
",	c #BACDDC",
"'	c #BCD1E0",
")	c #A1B1BD",
"!	c #5A6567",
"~	c #494F50",
"{	c #49504F",
"]	c #88949C",
"^	c #BED2E2",
"/	c #B8CEDE",
"(	c #B4C8DA",
"_	c #B3C8DA",
":	c #B7CEDF",
"<	c #BED1E1",
"[	c #86969C",
"}	c #484F4F",
"|	c #494F4F",
"1	c #BDD1E3",
"2	c #B3C8DB",
"3	c #B4C8DB",
"4	c #BDD2E2",
"5	c #484F4E",
"6	c #484E4E",
"7	c #474F4E",
"8	c #5B6467",
"9	c #596366",
"0	c #484E4F",
"a	c #474D4E",
"b	c #474E4E",
"c	c #A0B3BF",
"d	c #A0B0BC",
"e	c #484D4E",
"f	c #474D4D",
"g	c #474E4D",
"h	c #BBCDDD",
"i	c #BACDDD",
"j	c #464D4D",
"k	c #BBD0DF",
"l	c #464D4C",
"m	c #474D4C",
"n	c #464C4C",
"o	c #BCCFE0",
"p	c #464C4B",
"q	c #454C4C",
"r	c #BBCDDC",
"s	c #BACEDC",
"t	c #454C4B",
"u	c #454B4B",
"v	c #B8CEDF",
"w	c #9EB0BC",
"x	c #444B4B",
"y	c #444A4A",
"z	c #444B4A",
"A	c #444A4B",
"B	c #566163",
"C	c #586062",
"D	c #444A49",
"E	c #84939A",
"F	c #BDD1E1",
"G	c #BDD1E0",
"H	c #83929B",
"I	c #434A49",
"J	c #84949B",
"K	c #434949",
"L	c #434948",
"M	c #576164",
"N	c #9FB0BC",
"O	c #9FB0BD",
"P	c #566062",
"Q	c #424949",
"R	c #424848",
"S	c #424747",
"T	c #414847",
"U	c #414748",
"V	c #424748",
"W	c #414747",
"........................",
"++++++++++++++++++++++++",
"++++++++++++++++++++++++",
"++++++++++++++++++++++++",
"@+@@+@@+@+@+@+@+@+@+@+++",
"#$%#$#$%#$#$%##$%#$$%#@$",
"&&*&&&*&&&*&&*&&*&&&*&*$",
"=*-=**-=;>,'',)!-=**-*-&",
"~{{~{{{]^/(__(:<[~{{{-~~",
"}}|}}}]12______34[}}|||}",
"56756842________3<967}00",
"abbabc/__________:dbbbe6",
"ffgffh(__________(ifggff",
"jjfjjk____________'jfjlm",
"nnlnn'____________onlnln",
"pqqpqr(__________(sqqntu",
"uuuuud:__________vwuuuux",
"yzAyzB<3________3<CzAxuy",
"yyDyyyEF3______3GHyyDyyy",
"IIDIIIDJ<:(__(v<HIIIDKKy",
"KLKKLLKKMN,oo,OPKKLLKKQK",
"QRRQRRRQRRRQRRQRRQRRRRRR",
"STUSTSTUSTSTUSSTUSTTUVRR",
"WWWWWWWWWWWWWWWWWWWWWUSW"};
