/* XPM */
static char * close_prelight_xpm[] = {
"24 24 96 2",
"  	c None",
". 	c #313133",
"+ 	c #4B5252",
"@ 	c #4B5151",
"# 	c #4A5152",
"$ 	c #4A5151",
"% 	c #4B5152",
"& 	c #4A5051",
"* 	c #495150",
"= 	c #4A5050",
"- 	c #495050",
"; 	c #5B6669",
"> 	c #A1B2BE",
", 	c #BACDDC",
"' 	c #BCD1E0",
") 	c #A0B1BD",
"! 	c #5A6467",
"~ 	c #494F50",
"{ 	c #49504F",
"] 	c #88949C",
"^ 	c #BED2E2",
"/ 	c #B8CEDE",
"( 	c #B4C8DA",
"_ 	c #B3C8DA",
": 	c #B7CEDF",
"< 	c #BED1E1",
"[ 	c #86969D",
"} 	c #484F4F",
"| 	c #494F4F",
"1 	c #BDD1E3",
"2 	c #B3C8DB",
"3 	c #B4C8DB",
"4 	c #BDD2E2",
"5 	c #86969C",
"6 	c #484F4E",
"7 	c #484E4E",
"8 	c #474F4E",
"9 	c #5B6467",
"0 	c #BBCEDE",
"a 	c #CCDAE6",
"b 	c #596367",
"c 	c #484E4F",
"d 	c #474D4E",
"e 	c #474E4E",
"f 	c #A0B3BF",
"g 	c #FFFFFF",
"h 	c #D7E2EC",
"i 	c #A1B0BC",
"j 	c #484D4E",
"k 	c #474D4D",
"l 	c #474E4D",
"m 	c #BBCDDD",
"n 	c #D6E1EB",
"o 	c #D8E3EC",
"p 	c #BACDDD",
"q 	c #464D4D",
"r 	c #BBD0DF",
"s 	c #464D4C",
"t 	c #474D4C",
"u 	c #464C4C",
"v 	c #BCCFE0",
"w 	c #464C4B",
"x 	c #454C4C",
"y 	c #BBCDDC",
"z 	c #BACEDC",
"A 	c #454C4B",
"B 	c #454B4B",
"C 	c #A0B0BC",
"D 	c #B8CEDF",
"E 	c #9EB0BC",
"F 	c #444B4B",
"G 	c #444A4A",
"H 	c #444B4A",
"I 	c #444A4B",
"J 	c #566163",
"K 	c #585F62",
"L 	c #444A49",
"M 	c #84939A",
"N 	c #BDD1E1",
"O 	c #BDD1E0",
"P 	c #83929B",
"Q 	c #434A49",
"R 	c #84949B",
"S 	c #434949",
"T 	c #434948",
"U 	c #566164",
"V 	c #9FB0BC",
"W 	c #9FB0BD",
"X 	c #566063",
"Y 	c #424949",
"Z 	c #424848",
"` 	c #424747",
" .	c #414847",
"..	c #414748",
"+.	c #424748",
"@.	c #414747",
". . . . . . . . . . . . . . . . . . . . . . . . ",
"+ + + + + + + + + + + + + + + + + + + + + + + + ",
"+ + + + + + + + + + + + + + + + + + + + + + + + ",
"+ + + + + + + + + + + + + + + + + + + + + + + + ",
"@ + @ @ + @ @ + @ + @ + @ + @ + @ + @ + @ + + + ",
"# $ % # $ # $ % # $ # $ % # # $ % # $ $ % # @ $ ",
"& & * & & & & * & & & & * & & & * & & & * & * $ ",
"= * - = * * - * ; > , ' ' , ) ! * - & * - * - & ",
"~ { { ~ { { { ] ^ / ( _ _ ( : < [ ~ ~ { { - ~ ~ ",
"} } | } } } ] 1 2 _ _ _ _ _ _ 3 4 5 } } | | | } ",
"6 7 8 6 7 9 4 2 0 a _ _ _ _ a 0 3 < b 7 8 } c c ",
"d e e d e f / _ a g h _ _ h g a _ : i e e e j 7 ",
"k k l k k m ( _ _ n g o n g o _ _ ( p k l l k k ",
"q q k q q r _ _ _ _ n g g o _ _ _ _ ' q k q s t ",
"u u s u u ' _ _ _ _ n g g o _ _ _ _ v u s u s u ",
"w x x w x y ( _ _ n g o n g o _ _ ( z x x u A B ",
"B B B B B C : _ a g h _ _ h g a _ D E B B B B F ",
"G H I G H J < 3 0 a _ _ _ _ a 0 3 < K H I F B G ",
"G G L G G G M N 3 _ _ _ _ _ _ 3 O P G G L G G G ",
"Q Q L Q Q Q L R < : ( _ _ ( D < P S G Q L S S G ",
"S T S S T T S S U V , v v , W X S Y S T S S Y S ",
"Y Z Z Y Z Z Z Z Z Z Z Z Z Z Z Z Z Z Z Z Z Z Z Z ",
"`  ...`  .`  ...`  .`  ...` `  ...`  . ...+.Z Z ",
"@.@.@.@.@.@.@.@.@.@.@.@.@.@.@.@.@.@.@.@.@...` @."};
