/* XPM */
static char * close_pressed_xpm[] = {
"28 36 166 2",
"  	c #323A3F",
". 	c #3F4C53",
"+ 	c #3F4C52",
"@ 	c #3E4C53",
"# 	c #3F4B53",
"$ 	c #3E4C52",
"% 	c #3E4B52",
"& 	c #3F4B52",
"* 	c #3E4B53",
"= 	c #3E4A52",
"- 	c #3D4A52",
"; 	c #3D4B51",
"> 	c #3D4B52",
", 	c #3E4B51",
"' 	c #3E4A51",
") 	c #3F4A50",
"! 	c #404950",
"~ 	c #3F4951",
"{ 	c #3D4A51",
"] 	c #3E4950",
"^ 	c #444D56",
"/ 	c #768795",
"( 	c #99AFC1",
"_ 	c #ABC3D8",
": 	c #B1CADF",
"< 	c #98AEC0",
"[ 	c #758694",
"} 	c #738592",
"| 	c #ABC4D8",
"1 	c #ACC5DA",
"2 	c #A9C0D8",
"3 	c #A4B9D2",
"4 	c #A1B6D0",
"5 	c #ADC4DA",
"6 	c #ACC5D8",
"7 	c #728491",
"8 	c #3D4A50",
"9 	c #3C4A51",
"0 	c #3D4951",
"a 	c #404B51",
"b 	c #8EA1B3",
"c 	c #B1C8DF",
"d 	c #A6BBD4",
"e 	c #A0B4CE",
"f 	c #A6BCD4",
"g 	c #B1C9DE",
"h 	c #8DA2B2",
"i 	c #3C4951",
"j 	c #3C4950",
"k 	c #3E494F",
"l 	c #8EA1B2",
"m 	c #AEC7DC",
"n 	c #A2B6D0",
"o 	c #AFC7DD",
"p 	c #8DA2B0",
"q 	c #3C4A50",
"r 	c #3D4950",
"s 	c #3D484F",
"t 	c #738591",
"u 	c #B0C9DE",
"v 	c #72828F",
"w 	c #3B4950",
"x 	c #3C494F",
"y 	c #404A52",
"z 	c #ACC4D8",
"A 	c #A5BBD4",
"B 	c #E0E7EF",
"C 	c #E9EEF4",
"D 	c #A7BAD2",
"E 	c #E0E6EF",
"F 	c #ACC5D9",
"G 	c #424C54",
"H 	c #3C4850",
"I 	c #3C484F",
"J 	c #758695",
"K 	c #FFFFFF",
"L 	c #EDF1F6",
"M 	c #ECF0F5",
"N 	c #738493",
"O 	c #3B494F",
"P 	c #3B4850",
"Q 	c #3B484F",
"R 	c #3D474E",
"S 	c #99B0C2",
"T 	c #AABFD8",
"U 	c #A6B9D1",
"V 	c #EEF1F6",
"W 	c #A9BFD7",
"X 	c #3C474E",
"Y 	c #3D474D",
"Z 	c #AAC2D8",
"` 	c #EFF2F7",
" .	c #AAC3D8",
"..	c #3A484F",
"+.	c #3C464D",
"@.	c #A2B6CF",
"#.	c #B1CBE0",
"$.	c #3B474F",
"%.	c #3A484E",
"&.	c #3D474C",
"*.	c #B2CBDF",
"=.	c #3A474E",
"-.	c #3A474F",
";.	c #3B474E",
">.	c #3C464C",
",.	c #ABC3D6",
"'.	c #3A474D",
").	c #3B464C",
"!.	c #A9C0D7",
"~.	c #96AEBF",
"{.	c #39464E",
"].	c #3B464D",
"^.	c #748593",
"/.	c #EAEEF4",
"(.	c #ADC5DA",
"_.	c #39474E",
":.	c #39464D",
"<.	c #3A464D",
"[.	c #39474D",
"}.	c #3E4751",
"|.	c #404952",
"1.	c #3A454C",
"2.	c #718390",
"3.	c #70808D",
"4.	c #39454D",
"5.	c #8CA1B2",
"6.	c #AFC6DD",
"7.	c #8BA0AF",
"8.	c #38464D",
"9.	c #39454C",
"0.	c #38464C",
"a.	c #8CA1B0",
"b.	c #8B9FB1",
"c.	c #39464C",
"d.	c #38454C",
"e.	c #38454D",
"f.	c #39454B",
"g.	c #71818E",
"h.	c #AAC3D7",
"i.	c #AAC0D8",
"j.	c #6F818C",
"k.	c #3A454B",
"l.	c #39444B",
"m.	c #3F4851",
"n.	c #728492",
"o.	c #98AEBF",
"p.	c #ABC3D7",
"q.	c #3D4650",
"r.	c #37454C",
"s.	c #37444B",
"t.	c #37454B",
"u.	c #38444A",
"v.	c #39434A",
"w.	c #394349",
"x.	c #39444A",
"y.	c #38454B",
"z.	c #38444C",
"A.	c #37444C",
"B.	c #38444B",
"C.	c #37444A",
"D.	c #37434B",
"E.	c #37434A",
"F.	c #36444B",
"G.	c #36444A",
"H.	c #36434B",
"I.	c #36434A",
"                                                        ",
". . . . . . . . . . . . . . . . . . . . . . . . . . . . ",
". . . + . . . + . . . . . @ . # $ # . . + . . + . + . + ",
"# @ . . # @ . . % + & . @ & & & % $ . + # & & @ # & . . ",
"% + @ % % + @ % $ & % + & @ $ # % # . & % & @ & $ % $ + ",
"% % % % % % % % % % % % % % * % % % % % % % % % % % % % ",
"% % = = % % = = % = % - % % ; ; % = > % > = , % % % % , ",
", = ; > , = ; > ; - ' ) ! ! ! ! ~ ' - { ; - { { - % ; { ",
"- ' { { - ' { { ] ^ / ( _ : : _ < [ ^ ] - { ' { - { ; { ",
"{ { { { { { { ] } | 1 2 3 4 4 3 2 5 6 7 ] { { { { { { 8 ",
"9 0 8 8 9 0 a b c d e e e e e e e e f g h a 0 { i { i i ",
"j { j j j k l m 4 e e e e e e e e e e n o p k q i r r i ",
"j i j j s t c n e e e e e e e e e e e e n u v s j r j j ",
"w x x x y z A e e B C D e e e e D C E e e d F G H H j H ",
"x I H I J 1 e e e C K L D e e D L K M e e e 1 N I O I P ",
"I x Q R S T e e e U M K V D U M K L D e e e W < X Q Q Q ",
"Q Q Q Y Z 3 e e e e U M K ` L K L D e e e e 3  .Y Q Q Q ",
"Q ....+.: @.e e e e e U L K K ` D e e e e e 4 #.+.Q Q Q ",
"$.$.%.&.*.4 e e e e e U L K K ` D e e e e e n : &.=.-.%.",
"%.;.=.>.Z 3 e e e e U M K ` L K V D e e e e 3 ,.>.=.%.;.",
"=.=.'.).< 2 e e e U M K L D U M K V D e e e !.~.).=.=.=.",
"'.=.{.].^.5 e e e /.K L D e e D L K M e e e (.} ).=._.:.",
"<.[.'.[.}.| f e e E M D e e e e D M E e e f z |.{.{.{.{.",
":.:.:.:.1.2.g n e e e e e e e e e e e e n u 3.1.:.:.:.:.",
":.4.4.:.:.1.5.6.n e e e e e e e e e e n 6.7.1.4.:.8.9.:.",
"8.8.4.0.8.0.>.a.u d e e e e e e e e d u b.>.c.8.d.d.8.e.",
"e.c.e.d.e.c.d.f.g.h.1 i.3 n n 3 W (.h.j.k.0.d.d.0.9.e.d.",
"d.d.d.d.d.d.d.d.l.m.n.o.p.: : p.o.t q.l.d.d.d.d.d.d.d.d.",
"r.d.s.t.r.d.s.t.r.d.u.v.w.w.w.w.x.u.d.d.y.d.z.y.d.d.d.r.",
"A.t.r.d.A.t.r.d.r.d.y.B.d.z.t.d.r.B.t.d.A.s.d.t.s.B.s.A.",
"t.s.A.s.t.s.A.s.A.s.B.s.s.s.s.s.A.s.s.A.B.t.t.s.B.s.s.s.",
"s.s.s.s.s.s.s.s.s.s.s.s.C.s.s.D.s.C.s.s.D.E.s.C.s.s.s.D.",
"E.E.F.C.E.E.F.C.C.G.C.H.G.s.E.D.D.s.s.G.D.I.C.F.I.F.s.E.",
"F.I.E.G.F.I.E.G.D.D.E.H.I.F.H.E.C.H.H.I.I.F.G.I.E.s.I.I.",
"I.I.I.I.I.I.I.I.G.I.G.I.I.I.I.I.I.F.I.I.I.I.I.I.G.I.H.I.",
"I.I.I.I.I.I.I.I.I.I.I.I.I.I.I.I.I.I.I.I.I.I.I.I.I.I.I.I."};
