/* XPM */
static char * close_active_xpm[] = {
"28 36 92 2",
"  	c #323A3F",
". 	c #414B51",
"+ 	c #414B50",
"@ 	c #414A50",
"# 	c #404A50",
"$ 	c #404950",
"% 	c #3F494F",
"& 	c #48505C",
"* 	c #95A8B6",
"= 	c #B7CCDE",
"- 	c #C1D5E9",
"; 	c #C4D8EA",
"> 	c #95A7B5",
", 	c #92A4B4",
"' 	c #C2D7E9",
") 	c #BCD1E4",
"! 	c #AAC0D8",
"~ 	c #9DB5CE",
"{ 	c #98B0CA",
"] 	c #A9C0D7",
"^ 	c #93A4B3",
"/ 	c #434D53",
"( 	c #ADC2D4",
"_ 	c #C0D6E9",
": 	c #A2B8D1",
"< 	c #94ACC7",
"[ 	c #A2B9D1",
"} 	c #C1D6E9",
"| 	c #ADC2D2",
"1 	c #3E494E",
"2 	c #ADC2D3",
"3 	c #BCD2E6",
"4 	c #98B0CB",
"5 	c #BDD3E6",
"6 	c #AEC1D2",
"7 	c #3E484E",
"8 	c #92A4B3",
"9 	c #91A3B1",
"0 	c #3D484D",
"a 	c #435057",
"b 	c #C1D7EA",
"c 	c #A2B9D2",
"d 	c #C2D7EA",
"e 	c #46505A",
"f 	c #3D474D",
"g 	c #95A7B6",
"h 	c #93A5B4",
"i 	c #3D474E",
"j 	c #B8CCDF",
"k 	c #AAC1D7",
"l 	c #B7CBDD",
"m 	c #C0D5E7",
"n 	c #9EB4CE",
"o 	c #3C464D",
"p 	c #C4D9EB",
"q 	c #98AFCA",
"r 	c #3D474C",
"s 	c #C5D8EA",
"t 	c #3C464C",
"u 	c #C1D6E8",
"v 	c #3B464B",
"w 	c #ABC0D7",
"x 	c #B5CADD",
"y 	c #3C454B",
"z 	c #95A6B5",
"A 	c #BCD1E5",
"B 	c #3B454B",
"C 	c #414D56",
"D 	c #C1D6EA",
"E 	c #A3B9D2",
"F 	c #C1D8EA",
"G 	c #444D59",
"H 	c #92A3B3",
"I 	c #C2D6E9",
"J 	c #8FA1AF",
"K 	c #ACC2D2",
"L 	c #BDD2E6",
"M 	c #ACC0D2",
"N 	c #3A444A",
"O 	c #3F484E",
"P 	c #A3BAD2",
"Q 	c #3A454A",
"R 	c #91A2B1",
"S 	c #C1D7E9",
"T 	c #8EA1AE",
"U 	c #444C58",
"V 	c #404C55",
"W 	c #394349",
"X 	c #394449",
"Y 	c #384348",
"Z 	c #394348",
"` 	c #384248",
"                                                        ",
". . . . . . . . . . . . . . . . . . . . . . . . . . . . ",
". . . . . . . . . . . . . . . . . . . . . . . . . . . . ",
"+ + + + + + + + + + + + + + + + + + + + + + + + + + + + ",
"@ @ @ @ @ @ @ @ @ @ @ @ @ @ @ @ @ @ @ @ @ @ @ @ @ @ @ @ ",
"# # # # # # # # # # # # # # # # # # # # # # # # # # # # ",
"# # # # # # # # # # # # # # # # # # # # # # # # # # # # ",
"$ $ $ $ $ $ $ $ $ $ $ $ $ $ $ $ $ $ $ $ $ $ $ $ $ $ $ $ ",
"% % % % % % % % % & * = - ; ; - = > & % % % % % % % % % ",
"% % % % % % % % , ' ) ! ~ { { ~ ] ) ' ^ % % % % % % % % ",
"% % % % % % / ( _ : < < < < < < < < [ } | / % % % % % % ",
"1 1 1 1 1 1 2 3 { < < < < < < < < < < 4 5 6 1 1 1 1 1 1 ",
"7 7 7 7 7 8 _ 4 < < < < < < < < < < < < { } 9 7 7 7 7 7 ",
"0 0 0 0 a b : < < < < < < < < < < < < < < c d e 0 0 0 0 ",
"f f f f g ) < < < < < < < < < < < < < < < < ) h f f f f ",
"i i i i j ] < < < < < < < < < < < < < < < < k l i i i i ",
"f f f f m ~ < < < < < < < < < < < < < < < < n m f f f f ",
"o o o o p q < < < < < < < < < < < < < < < < { p o o o o ",
"r r r r s q < < < < < < < < < < < < < < < < 4 ; r r r r ",
"t t t t m ~ < < < < < < < < < < < < < < < < n u t t t t ",
"v v v v = ] < < < < < < < < < < < < < < < < w x v v v v ",
"y y y y z ) < < < < < < < < < < < < < < < < A h y y y y ",
"B B B B C D [ < < < < < < < < < < < < < < E F G B B B B ",
"B B B B B H } { < < < < < < < < < < < < { I J B B B B B ",
"B B B B B B K L { < < < < < < < < < < { L M B B B B B B ",
"N N N N N N O 6 } c < < < < < < < < P I M O N N N N N N ",
"Q Q Q Q Q Q Q Q R S ) k ~ 4 4 n k A } T Q Q Q Q Q Q Q Q ",
"N N N N N N N N N U h l } ; ; } l h V N N N N N N N N N ",
"W W W W W W W W W W W W W W W W W W W W W W W W W W W W ",
"X X X X X X X X X X X X X X X X X X X X X X X X X X X X ",
"W W W W W W W W W W W W W W W W W W W W W W W W W W W W ",
"W W W W W W W W W W W W W W W W W W W W W W W W W W W W ",
"Y Y Y Y Y Y Y Y Y Y Y Y Y Y Y Y Y Y Y Y Y Y Y Y Y Y Y Y ",
"Z Z Z Z Z Z Z Z Z Z Z Z Z Z Z Z Z Z Z Z Z Z Z Z Z Z Z Z ",
"` ` ` ` ` ` ` ` ` ` ` ` ` ` ` ` ` ` ` ` ` ` ` ` ` ` ` ` ",
"` ` ` ` ` ` ` ` ` ` ` ` ` ` ` ` ` ` ` ` ` ` ` ` ` ` ` ` "};
