/* XPM */
static char * close_inactive_xpm[] = {
"28 36 151 2",
"  	c #323A3F",
". 	c #3F4C53",
"+ 	c #3F4C52",
"@ 	c #3E4C53",
"# 	c #3F4B53",
"$ 	c #3E4C52",
"% 	c #3E4B52",
"& 	c #3F4B52",
"* 	c #3E4B53",
"= 	c #3E4A52",
"- 	c #3D4A52",
"; 	c #3D4B51",
"> 	c #3D4B52",
", 	c #3E4B51",
"' 	c #3E4A51",
") 	c #3F4A50",
"! 	c #404950",
"~ 	c #3F4951",
"{ 	c #3D4A51",
"] 	c #3E4950",
"^ 	c #3F4950",
"/ 	c #454E56",
"( 	c #49545C",
"_ 	c #4C5661",
": 	c #4E5863",
"< 	c #4A555D",
"[ 	c #454F56",
"} 	c #4D5762",
"| 	c #4B545F",
"1 	c #444E59",
"2 	c #3F4A54",
"3 	c #3D4852",
"4 	c #454F58",
"5 	c #4D5761",
"6 	c #454E55",
"7 	c #3D4A50",
"8 	c #3C4A51",
"9 	c #3D4951",
"0 	c #3F494F",
"a 	c #48515A",
"b 	c #4C5761",
"c 	c #424B55",
"d 	c #3C4650",
"e 	c #424C55",
"f 	c #3E494F",
"g 	c #3C4951",
"h 	c #3C4950",
"i 	c #47515A",
"j 	c #4B555F",
"k 	c #3E4751",
"l 	c #4B5660",
"m 	c #47525A",
"n 	c #3C4A50",
"o 	c #3D4950",
"p 	c #3D484F",
"q 	c #444E56",
"r 	c #3E4852",
"s 	c #4D5861",
"t 	c #444E55",
"u 	c #3B4950",
"v 	c #3C494F",
"w 	c #3D484D",
"x 	c #414B56",
"y 	c #4E5762",
"z 	c #3D484E",
"A 	c #3C4850",
"B 	c #3C484F",
"C 	c #444D55",
"D 	c #434E55",
"E 	c #3B494F",
"F 	c #3B4850",
"G 	c #3B484F",
"H 	c #3D474E",
"I 	c #49545D",
"J 	c #444E58",
"K 	c #49535C",
"L 	c #3C474E",
"M 	c #3D474D",
"N 	c #4D5661",
"O 	c #404A53",
"P 	c #3A484F",
"Q 	c #3C464D",
"R 	c #4E5962",
"S 	c #4F5863",
"T 	c #3B474F",
"U 	c #3A484E",
"V 	c #3D474C",
"W 	c #3E4851",
"X 	c #3A474E",
"Y 	c #3A474F",
"Z 	c #3B474E",
"` 	c #3C464C",
" .	c #4C5660",
"..	c #3A474D",
"+.	c #3B464C",
"@.	c #454E58",
"#.	c #49545B",
"$.	c #39464E",
"%.	c #3B464D",
"&.	c #434C54",
"*.	c #424C53",
"=.	c #39474E",
"-.	c #39464D",
";.	c #3A464D",
">.	c #39474D",
",.	c #3B454B",
"'.	c #4D5760",
").	c #3B454C",
"!.	c #3A454C",
"~.	c #434B53",
"{.	c #424B53",
"].	c #39454D",
"^.	c #465059",
"/.	c #465058",
"(.	c #38464D",
"_.	c #39454C",
":.	c #38464C",
"<.	c #3A444B",
"[.	c #455058",
"}.	c #424C56",
"|.	c #475059",
"1.	c #39464C",
"2.	c #38454C",
"3.	c #38454D",
"4.	c #39454B",
"5.	c #414C53",
"6.	c #3F4954",
"7.	c #3A454B",
"8.	c #39444B",
"9.	c #48525A",
"0.	c #4D575F",
"a.	c #414B53",
"b.	c #3A444A",
"c.	c #37454C",
"d.	c #37444B",
"e.	c #37454B",
"f.	c #38444A",
"g.	c #39434A",
"h.	c #394349",
"i.	c #39444A",
"j.	c #38454B",
"k.	c #38444C",
"l.	c #37444C",
"m.	c #38444B",
"n.	c #37444A",
"o.	c #37434B",
"p.	c #37434A",
"q.	c #36444B",
"r.	c #36444A",
"s.	c #36434B",
"t.	c #36434A",
"                                                        ",
". . . . . . . . . . . . . . . . . . . . . . . . . . . . ",
". . . + . . . + . . . . . @ . # $ # . . + . . + . + . + ",
"# @ . . # @ . . % + & . @ & & & % $ . + # & & @ # & . . ",
"% + @ % % + @ % $ & % + & @ $ # % # . & % & @ & $ % $ + ",
"% % % % % % % % % % % % % % * % % % % % % % % % % % % % ",
"% % = = % % = = % = % - % % ; ; % = > % > = , % % % % , ",
", = ; > , = ; > ; - ' ) ! ! ! ! ~ ' - { ; - { { - % ; { ",
"- ' { { - ' { { ] ^ / ( _ : : _ < [ ^ ] - { ' { - { ; { ",
"{ { { { { { { ] [ } | 1 2 3 3 2 4 | 5 6 ] { { { { { { 7 ",
"8 9 7 7 8 9 0 a b c d d d d d d d d e 5 a f 9 { g { g g ",
"h { h h h f i j 3 d d d d d d d d d d k l m f n g o o g ",
"h g h h p q b k d d d d d d d d d d d d r s t p h o h h ",
"u v v v w 5 x d d d d d d d d d d d d d d c y z A A h A ",
"v B A B C | d d d d d d d d d d d d d d d d j D B E B F ",
"B v G H I J d d d d d d d d d d d d d d d d 1 K L G G G ",
"G G G M N 2 d d d d d d d d d d d d d d d d O 5 M G G G ",
"G P P Q R k d d d d d d d d d d d d d d d d 3 S Q G G G ",
"T T U V : W d d d d d d d d d d d d d d d d k : V X Y U ",
"U Z X ` N 2 d d d d d d d d d d d d d d d d O  .` X U Z ",
"X X ..+.( 4 d d d d d d d d d d d d d d d d @.#.+.X X X ",
"..X $.%.&.| d d d d d d d d d d d d d d d d | *.+.X =.-.",
";.>...>.,.N e d d d d d d d d d d d d d d c '.).$.$.$.$.",
"-.-.-.-.!.~.5 r d d d d d d d d d d d d r 5 {.!.-.-.-.-.",
"-.].].-.-.!.^.l r d d d d d d d d d d r l /.!.].-.(._.-.",
"(.(.].:.(.:.<.[.s c d d d d d d d d }.5 |.<.1.(.2.2.(.3.",
"3.1.3.2.3.1.2.4.5.5 j @.6.k k O J | N 5.7.:.2.2.:._.3.2.",
"2.2.2.2.2.2.2.2.8.<.5.9.0.: : 0.9.a.b.8.2.2.2.2.2.2.2.2.",
"c.2.d.e.c.2.d.e.c.2.f.g.h.h.h.h.i.f.2.2.j.2.k.j.2.2.2.c.",
"l.e.c.2.l.e.c.2.c.2.j.m.2.k.e.2.c.m.e.2.l.d.2.e.d.m.d.l.",
"e.d.l.d.e.d.l.d.l.d.m.d.d.d.d.d.l.d.d.l.m.e.e.d.m.d.d.d.",
"d.d.d.d.d.d.d.d.d.d.d.d.n.d.d.o.d.n.d.d.o.p.d.n.d.d.d.o.",
"p.p.q.n.p.p.q.n.n.r.n.s.r.d.p.o.o.d.d.r.o.t.n.q.t.q.d.p.",
"q.t.p.r.q.t.p.r.o.o.p.s.t.q.s.p.n.s.s.t.t.q.r.t.p.d.t.t.",
"t.t.t.t.t.t.t.t.r.t.r.t.t.t.t.t.t.q.t.t.t.t.t.t.r.t.s.t.",
"t.t.t.t.t.t.t.t.t.t.t.t.t.t.t.t.t.t.t.t.t.t.t.t.t.t.t.t."};
