/* XPM */
static char * close_prelight_xpm[] = {
"28 36 104 2",
"  	c #323A3F",
". 	c #414B51",
"+ 	c #414B50",
"@ 	c #414A50",
"# 	c #404A50",
"$ 	c #404950",
"% 	c #3F494F",
"& 	c #48505C",
"* 	c #95A8B6",
"= 	c #B7CCDE",
"- 	c #C1D5E9",
"; 	c #C4D8EA",
"> 	c #95A7B5",
", 	c #92A4B4",
"' 	c #C2D7E9",
") 	c #BCD1E4",
"! 	c #AAC0D8",
"~ 	c #9DB5CE",
"{ 	c #98B0CA",
"] 	c #A9C0D7",
"^ 	c #93A4B3",
"/ 	c #434D53",
"( 	c #ADC2D4",
"_ 	c #C0D6E9",
": 	c #A2B8D1",
"< 	c #94ACC7",
"[ 	c #A2B9D1",
"} 	c #C1D6E9",
"| 	c #ADC2D2",
"1 	c #3E494E",
"2 	c #ADC2D3",
"3 	c #BCD2E6",
"4 	c #98B0CB",
"5 	c #BDD3E6",
"6 	c #AEC1D2",
"7 	c #3E484E",
"8 	c #92A4B3",
"9 	c #91A3B1",
"0 	c #3D484D",
"a 	c #435057",
"b 	c #C1D7EA",
"c 	c #DFE6EE",
"d 	c #E7EDF3",
"e 	c #9CB3CB",
"f 	c #EAEFF4",
"g 	c #DCE4ED",
"h 	c #A2B9D2",
"i 	c #C2D7EA",
"j 	c #46505A",
"k 	c #3D474D",
"l 	c #95A7B6",
"m 	c #E7ECF2",
"n 	c #FFFFFF",
"o 	c #EBF0F5",
"p 	c #E9EEF4",
"q 	c #93A5B4",
"r 	c #3D474E",
"s 	c #B8CCDF",
"t 	c #9BB2CB",
"u 	c #EAEEF4",
"v 	c #ECF0F5",
"w 	c #AAC1D7",
"x 	c #B7CBDD",
"y 	c #C0D5E7",
"z 	c #9EB4CE",
"A 	c #3C464D",
"B 	c #C4D9EB",
"C 	c #98AFCA",
"D 	c #3D474C",
"E 	c #C5D8EA",
"F 	c #3C464C",
"G 	c #C1D6E8",
"H 	c #3B464B",
"I 	c #ABC0D7",
"J 	c #B5CADD",
"K 	c #3C454B",
"L 	c #95A6B5",
"M 	c #BCD1E5",
"N 	c #3B454B",
"O 	c #414D56",
"P 	c #C1D6EA",
"Q 	c #A3B9D2",
"R 	c #C1D8EA",
"S 	c #444D59",
"T 	c #92A3B3",
"U 	c #C2D6E9",
"V 	c #8FA1AF",
"W 	c #ACC2D2",
"X 	c #BDD2E6",
"Y 	c #ACC0D2",
"Z 	c #3A444A",
"` 	c #3F484E",
" .	c #A3BAD2",
"..	c #3A454A",
"+.	c #91A2B1",
"@.	c #C1D7E9",
"#.	c #8EA1AE",
"$.	c #444C58",
"%.	c #404C55",
"&.	c #394349",
"*.	c #394449",
"=.	c #384348",
"-.	c #394348",
";.	c #384248",
"                                                        ",
". . . . . . . . . . . . . . . . . . . . . . . . . . . . ",
". . . . . . . . . . . . . . . . . . . . . . . . . . . . ",
"+ + + + + + + + + + + + + + + + + + + + + + + + + + + + ",
"@ @ @ @ @ @ @ @ @ @ @ @ @ @ @ @ @ @ @ @ @ @ @ @ @ @ @ @ ",
"# # # # # # # # # # # # # # # # # # # # # # # # # # # # ",
"# # # # # # # # # # # # # # # # # # # # # # # # # # # # ",
"$ $ $ $ $ $ $ $ $ $ $ $ $ $ $ $ $ $ $ $ $ $ $ $ $ $ $ $ ",
"% % % % % % % % % & * = - ; ; - = > & % % % % % % % % % ",
"% % % % % % % % , ' ) ! ~ { { ~ ] ) ' ^ % % % % % % % % ",
"% % % % % % / ( _ : < < < < < < < < [ } | / % % % % % % ",
"1 1 1 1 1 1 2 3 { < < < < < < < < < < 4 5 6 1 1 1 1 1 1 ",
"7 7 7 7 7 8 _ 4 < < < < < < < < < < < < { } 9 7 7 7 7 7 ",
"0 0 0 0 a b : < < c d e < < < < e f g < < h i j 0 0 0 0 ",
"k k k k l ) < < < m n o e < < e o n p < < < ) q k k k k ",
"r r r r s ] < < < t u n v e t u n o e < < < w x r r r r ",
"k k k k y ~ < < < < e o n o o n o e < < < < z y k k k k ",
"A A A A B C < < < < < t u n n o e < < < < < { B A A A A ",
"D D D D E C < < < < < t u n n v e < < < < < 4 ; D D D D ",
"F F F F y ~ < < < < e o n o o n o e < < < < z G F F F F ",
"H H H H = ] < < < t u n o e t u n v e < < < I J H H H H ",
"K K K K L ) < < < m n o e < < e o n p < < < M q K K K K ",
"N N N N O P [ < < g p e < < < < e p g < < Q R S N N N N ",
"N N N N N T } { < < < < < < < < < < < < { U V N N N N N ",
"N N N N N N W X { < < < < < < < < < < { X Y N N N N N N ",
"Z Z Z Z Z Z ` 6 } h < < < < < < < <  .U Y ` Z Z Z Z Z Z ",
"................+.@.) w ~ 4 4 z w M } #.................",
"Z Z Z Z Z Z Z Z Z $.q x } ; ; } x q %.Z Z Z Z Z Z Z Z Z ",
"&.&.&.&.&.&.&.&.&.&.&.&.&.&.&.&.&.&.&.&.&.&.&.&.&.&.&.&.",
"*.*.*.*.*.*.*.*.*.*.*.*.*.*.*.*.*.*.*.*.*.*.*.*.*.*.*.*.",
"&.&.&.&.&.&.&.&.&.&.&.&.&.&.&.&.&.&.&.&.&.&.&.&.&.&.&.&.",
"&.&.&.&.&.&.&.&.&.&.&.&.&.&.&.&.&.&.&.&.&.&.&.&.&.&.&.&.",
"=.=.=.=.=.=.=.=.=.=.=.=.=.=.=.=.=.=.=.=.=.=.=.=.=.=.=.=.",
"-.-.-.-.-.-.-.-.-.-.-.-.-.-.-.-.-.-.-.-.-.-.-.-.-.-.-.-.",
";.;.;.;.;.;.;.;.;.;.;.;.;.;.;.;.;.;.;.;.;.;.;.;.;.;.;.;.",
";.;.;.;.;.;.;.;.;.;.;.;.;.;.;.;.;.;.;.;.;.;.;.;.;.;.;.;."};
