/* XPM */
static char * close_prelight_xpm[] = {
"28 36 107 2",
"  	c None",
". 	c #323A3F",
"+ 	c #414B51",
"@ 	c #414B50",
"# 	c #414A50",
"$ 	c #404A50",
"% 	c #404950",
"& 	c #3F494F",
"* 	c #444D56",
"= 	c #768795",
"- 	c #99AFC1",
"; 	c #ABC3D8",
"> 	c #B1CADF",
", 	c #98AEC0",
"' 	c #758694",
") 	c #738592",
"! 	c #ABC4D8",
"~ 	c #ACC5DA",
"{ 	c #A9C0D8",
"] 	c #A4B9D2",
"^ 	c #A1B6D0",
"/ 	c #ADC4DA",
"( 	c #ACC5D8",
"_ 	c #728491",
": 	c #8EA1B3",
"< 	c #B1C8DF",
"[ 	c #A6BBD4",
"} 	c #A0B4CE",
"| 	c #A6BCD4",
"1 	c #B1C9DE",
"2 	c #8DA2B2",
"3 	c #3E494E",
"4 	c #8EA1B2",
"5 	c #AEC7DC",
"6 	c #A2B6D0",
"7 	c #AFC7DD",
"8 	c #8DA2B0",
"9 	c #3E484E",
"0 	c #738591",
"a 	c #B0C9DE",
"b 	c #72828F",
"c 	c #3D484D",
"d 	c #404A52",
"e 	c #ACC4D8",
"f 	c #A5BBD4",
"g 	c #E0E7EF",
"h 	c #E9EEF4",
"i 	c #A7BAD2",
"j 	c #E0E6EF",
"k 	c #ACC5D9",
"l 	c #424C54",
"m 	c #3D474D",
"n 	c #758695",
"o 	c #FFFFFF",
"p 	c #EDF1F6",
"q 	c #ECF0F5",
"r 	c #738493",
"s 	c #3D474E",
"t 	c #99B0C2",
"u 	c #AABFD8",
"v 	c #A6B9D1",
"w 	c #EEF1F6",
"x 	c #A9BFD7",
"y 	c #AAC2D8",
"z 	c #EFF2F7",
"A 	c #AAC3D8",
"B 	c #3C464D",
"C 	c #A2B6CF",
"D 	c #B1CBE0",
"E 	c #3D474C",
"F 	c #B2CBDF",
"G 	c #3C464C",
"H 	c #ABC3D6",
"I 	c #3B464B",
"J 	c #A9C0D7",
"K 	c #96AEBF",
"L 	c #3C454B",
"M 	c #748593",
"N 	c #EAEEF4",
"O 	c #ADC5DA",
"P 	c #3B454B",
"Q 	c #3E4751",
"R 	c #404952",
"S 	c #718390",
"T 	c #70808D",
"U 	c #8CA1B2",
"V 	c #AFC6DD",
"W 	c #8BA0AF",
"X 	c #3A444A",
"Y 	c #3D464C",
"Z 	c #8CA1B0",
"` 	c #8B9FB1",
" .	c #3A454A",
"..	c #71818E",
"+.	c #AAC3D7",
"@.	c #AAC0D8",
"#.	c #6F818C",
"$.	c #3F4851",
"%.	c #728492",
"&.	c #98AEBF",
"*.	c #ABC3D7",
"=.	c #3D4650",
"-.	c #394349",
";.	c #394449",
">.	c #384348",
",.	c #394348",
"'.	c #384248",
". . . . . . . . . . . . . . . . . . . . . . . . . . . . ",
"+ + + + + + + + + + + + + + + + + + + + + + + + + + + + ",
"+ + + + + + + + + + + + + + + + + + + + + + + + + + + + ",
"@ @ @ @ @ @ @ @ @ @ @ @ @ @ @ @ @ @ @ @ @ @ @ @ @ @ @ @ ",
"# # # # # # # # # # # # # # # # # # # # # # # # # # # # ",
"$ $ $ $ $ $ $ $ $ $ $ $ $ $ $ $ $ $ $ $ $ $ $ $ $ $ $ $ ",
"$ $ $ $ $ $ $ $ $ $ $ $ $ $ $ $ $ $ $ $ $ $ $ $ $ $ $ $ ",
"% % % % % % % % % % % % % % % % % % % % % % % % % % % % ",
"& & & & & & & & & * = - ; > > ; , ' * & & & & & & & & & ",
"& & & & & & & & ) ! ~ { ] ^ ^ ] { / ( _ & & & & & & & & ",
"& & & & & & + : < [ } } } } } } } } | 1 2 + & & & & & & ",
"3 3 3 3 3 3 4 5 ^ } } } } } } } } } } 6 7 8 3 3 3 3 3 3 ",
"9 9 9 9 9 0 < 6 } } } } } } } } } } } } 6 a b 9 9 9 9 9 ",
"c c c c d e f } } g h i } } } } i h j } } [ k l c c c c ",
"m m m m n ~ } } } h o p i } } i p o q } } } ~ r m m m m ",
"s s s s t u } } } v q o w i v q o p i } } } x , s s s s ",
"m m m m y ] } } } } v q o z p o p i } } } } ] A m m m m ",
"B B B B > C } } } } } v p o o z i } } } } } ^ D B B B B ",
"E E E E F ^ } } } } } v p o o z i } } } } } 6 > E E E E ",
"G G G G y ] } } } } v q o z p o w i } } } } ] H G G G G ",
"I I I I , { } } } v q o p i v q o w i } } } J K I I I I ",
"L L L L M / } } } N o p i } } i p o q } } } O ) L L L L ",
"P P P P Q ! | } } j q i } } } } i q j } } | e R P P P P ",
"P P P P P S 1 6 } } } } } } } } } } } } 6 a T P P P P P ",
"P P P P P P U V 6 } } } } } } } } } } 6 V W P P P P P P ",
"X X X X X X Y Z a [ } } } } } } } } [ a ` Y X X X X X X ",
" . . . . . . . ...+.~ @.] 6 6 ] x O +.#. . . . . . . . .",
"X X X X X X X X X $.%.&.*.> > *.&.0 =.X X X X X X X X X ",
"-.-.-.-.-.-.-.-.-.-.-.-.-.-.-.-.-.-.-.-.-.-.-.-.-.-.-.-.",
";.;.;.;.;.;.;.;.;.;.;.;.;.;.;.;.;.;.;.;.;.;.;.;.;.;.;.;.",
"-.-.-.-.-.-.-.-.-.-.-.-.-.-.-.-.-.-.-.-.-.-.-.-.-.-.-.-.",
"-.-.-.-.-.-.-.-.-.-.-.-.-.-.-.-.-.-.-.-.-.-.-.-.-.-.-.-.",
">.>.>.>.>.>.>.>.>.>.>.>.>.>.>.>.>.>.>.>.>.>.>.>.>.>.>.>.",
",.,.,.,.,.,.,.,.,.,.,.,.,.,.,.,.,.,.,.,.,.,.,.,.,.,.,.,.",
"'.'.'.'.'.'.'.'.'.'.'.'.'.'.'.'.'.'.'.'.'.'.'.'.'.'.'.'.",
"'.'.'.'.'.'.'.'.'.'.'.'.'.'.'.'.'.'.'.'.'.'.'.'.'.'.'.'."};
