/* XPM */
static char * close_prelight_xpm[] = {
"28 36 133 2",
"  	c None",
". 	c #313133",
"+ 	c #4B5252",
"@ 	c #4B5251",
"# 	c #4A5251",
"$ 	c #4A5152",
"% 	c #4B5151",
"& 	c #4A5252",
"* 	c #4B5152",
"= 	c #4A5151",
"- 	c #495151",
"; 	c #4A5150",
"> 	c #495150",
", 	c #495050",
"' 	c #4A5051",
") 	c #4A5050",
"! 	c #495051",
"~ 	c #494F50",
"{ 	c #49504F",
"] 	c #4D5357",
"^ 	c #798996",
"/ 	c #9AAFC1",
"( 	c #ACC3D8",
"_ 	c #B1CADF",
": 	c #99AFC0",
"< 	c #788994",
"[ 	c #4D5257",
"} 	c #484F4F",
"| 	c #494F4E",
"1 	c #778792",
"2 	c #ACC4D8",
"3 	c #ADC5DA",
"4 	c #A9C0D8",
"5 	c #A4B9D2",
"6 	c #A1B6D0",
"7 	c #ADC4DA",
"8 	c #ACC5D8",
"9 	c #768691",
"0 	c #474F4F",
"a 	c #484E4E",
"b 	c #90A3B3",
"c 	c #B1C9DF",
"d 	c #A6BBD4",
"e 	c #A0B4CE",
"f 	c #A6BCD4",
"g 	c #B1CADE",
"h 	c #8FA3B2",
"i 	c #474E4E",
"j 	c #90A2B2",
"k 	c #AEC8DC",
"l 	c #A2B6D0",
"m 	c #AFC7DD",
"n 	c #8FA3B0",
"o 	c #474D4E",
"p 	c #B0CADE",
"q 	c #75848F",
"r 	c #474D4C",
"s 	c #464C4D",
"t 	c #484F52",
"u 	c #ADC5D8",
"v 	c #A5BBD4",
"w 	c #E0E7EF",
"x 	c #E9EEF4",
"y 	c #A7BAD2",
"z 	c #E0E6EF",
"A 	c #ACC5D9",
"B 	c #4B5053",
"C 	c #464D4D",
"D 	c #454C4C",
"E 	c #464C4C",
"F 	c #788894",
"G 	c #ACC5DA",
"H 	c #FFFFFF",
"I 	c #EDF1F6",
"J 	c #ECF0F5",
"K 	c #768693",
"L 	c #454C4B",
"M 	c #9AB0C1",
"N 	c #AABFD8",
"O 	c #A6B9D1",
"P 	c #EEF1F6",
"Q 	c #A9BFD7",
"R 	c #454B4B",
"S 	c #AAC2D8",
"T 	c #EFF2F7",
"U 	c #AAC3D8",
"V 	c #444B4B",
"W 	c #444A4B",
"X 	c #A2B6CF",
"Y 	c #B1CBE0",
"Z 	c #454B4A",
"` 	c #444A4A",
" .	c #434A4A",
"..	c #B2CBDF",
"+.	c #434A49",
"@.	c #ABC3D6",
"#.	c #44494A",
"$.	c #434949",
"%.	c #98AEBF",
"&.	c #A9C0D7",
"*.	c #97AEBF",
"=.	c #424948",
"-.	c #424848",
";.	c #424849",
">.	c #768692",
",.	c #EAEEF4",
"'.	c #758691",
").	c #424847",
"!.	c #444A4E",
"~.	c #ABC4D8",
"{.	c #ADC4D8",
"].	c #464C4F",
"^.	c #414747",
"/.	c #424747",
"(.	c #73838F",
"_.	c #B1C9DE",
":.	c #B0C9DE",
"<.	c #72808C",
"[.	c #8DA1B1",
"}.	c #AFC6DD",
"|.	c #8CA1AF",
"1.	c #8DA1AF",
"2.	c #8C9FB0",
"3.	c #73828D",
"4.	c #ABC3D7",
"5.	c #AAC0D8",
"6.	c #AAC3D7",
"7.	c #71818B",
"8.	c #454B4F",
"9.	c #758491",
"0.	c #98AEBE",
"a.	c #758690",
"b.	c #43494D",
". . . . . . . . . . . . . . . . . . . . . . . . . . . . ",
"+ + + + + + + + + + + + + + + + + + + + + + + + + + + + ",
"+ + + + + + + + + + + + + + + + + + + + + + + + + + + + ",
"+ + + + + + + + + + + + + + + + + + + + + + + + + + + + ",
"@ @ @ + # $ + @ % + % + @ & @ + # $ + @ @ @ @ @ * + @ @ ",
"% % % = * % @ $ $ = * # % = % = * % @ $ % = % = $ % % % ",
"- - - - ; > = , ' ' > ; ) ! - - ; > = , ; = = ; = = - - ",
"! ! ! , , ) , ! ) > , , , ) ! , , ) , ! ! , , , ) , ! ! ",
"~ ~ ~ { , ~ ~ ~ ~ ] ^ / ( _ _ ( : < [ ~ { , ~ ~ { , ~ ~ ",
"} } } | } } } } 1 2 3 4 5 6 6 5 4 7 8 9 | } } } | } } } ",
"0 0 0 a } 0 - b c d e e e e e e e e f g h = 0 0 a } 0 0 ",
"i i i i a i j k 6 e e e e e e e e e e l m n i i i a i i ",
"o o o o o 9 c l e e e e e e e e e e e e l p q o o o o o ",
"r r r s t u v e e w x y e e e e y x z e e d A B s C r r ",
"D D D E F G e e e x H I y e e y I H J e e e G K E D D D ",
"L L L D M N e e e O J H P y O J H I y e e e Q : D D L L ",
"R R R R S 5 e e e e O J H T I H I y e e e e 5 U R V R R ",
"W W W V _ X e e e e e O I H H T y e e e e e 6 Y V Z W W ",
"` ` `  ...6 e e e e e O I H H T y e e e e e l _  .` ` ` ",
" . . .+.S 5 e e e e O J H T I H P y e e e e 5 @.+.#. . .",
"$.$.$.$.%.4 e e e O J H I y O J H P y e e e &.*.$.=.$.$.",
"-.-.-.;.>.7 e e e ,.H I y e e y I H J e e e 3 '.;.-.-.-.",
").).).-.!.~.f e e z J y e e e e y J z e e f {.].-.-.).).",
"^.^.^././.(._.l e e e e e e e e e e e e l :.<.^././.^.^.",
"^.^.^.^.^.^.[.}.l e e e e e e e e e e l }.|.^.^.^.^.^.^.",
"^.^.^.^.^.^.$.1.:.d e e e e e e e e d :.2.$.^.^.^.^.^.^.",
"^.^.^.^.^.^.^.^.3.4.G 5.5 l l 5 Q 3 6.7.^.^.^.^.^.^.^.^.",
"^.^.^.^.^.^.^.^.^.8.9.0.4._ _ 4.0.a.b.^.^.^.^.^.^.^.^.^.",
"^.^.^.^.^.^.^.^.^.^.^.^.^.^.^.^.^.^.^.^.^.^.^.^.^.^.^.^.",
"^.^.^.^.^.^.^.^.^.^.^.^.^.^.^.^.^.^.^.^.^.^.^.^.^.^.^.^.",
"^.^.^.^.^.^.^.^.^.^.^.^.^.^.^.^.^.^.^.^.^.^.^.^.^.^.^.^.",
"^.^.^.^.^.^.^.^.^.^.^.^.^.^.^.^.^.^.^.^.^.^.^.^.^.^.^.^.",
"^.^.^.^.^.^.^.^.^.^.^.^.^.^.^.^.^.^.^.^.^.^.^.^.^.^.^.^.",
"^.^.^.^.^.^.^.^.^.^.^.^.^.^.^.^.^.^.^.^.^.^.^.^.^.^.^.^.",
"^.^.^.^.^.^.^.^.^.^.^.^.^.^.^.^.^.^.^.^.^.^.^.^.^.^.^.^.",
"^.^.^.^.^.^.^.^.^.^.^.^.^.^.^.^.^.^.^.^.^.^.^.^.^.^.^.^."};
