/* XPM */
static char * close_active_xpm[] = {
"28 36 96 2",
"  	c None",
". 	c #323A3F",
"+ 	c #414B51",
"@ 	c #414B50",
"# 	c #414A50",
"$ 	c #404A50",
"% 	c #404950",
"& 	c #3F494F",
"* 	c #444D56",
"= 	c #768795",
"- 	c #99AFC1",
"; 	c #ABC3D8",
"> 	c #B1CADF",
", 	c #98AEC0",
"' 	c #758694",
") 	c #738592",
"! 	c #ABC4D8",
"~ 	c #ACC5DA",
"{ 	c #A9C0D8",
"] 	c #A4B9D2",
"^ 	c #A1B6D0",
"/ 	c #ADC4DA",
"( 	c #ACC5D8",
"_ 	c #728491",
": 	c #8EA1B3",
"< 	c #B1C8DF",
"[ 	c #A6BBD4",
"} 	c #A0B4CE",
"| 	c #A6BCD4",
"1 	c #B1C9DE",
"2 	c #8DA2B2",
"3 	c #3E494E",
"4 	c #8EA1B2",
"5 	c #AEC7DC",
"6 	c #A2B6D0",
"7 	c #AFC7DD",
"8 	c #8DA2B0",
"9 	c #3E484E",
"0 	c #738591",
"a 	c #B0C9DE",
"b 	c #72828F",
"c 	c #3D484D",
"d 	c #404A52",
"e 	c #ACC4D8",
"f 	c #A5BBD4",
"g 	c #ACC5D9",
"h 	c #424C54",
"i 	c #3D474D",
"j 	c #758695",
"k 	c #738493",
"l 	c #3D474E",
"m 	c #99B0C2",
"n 	c #AABFD8",
"o 	c #A9BFD7",
"p 	c #AAC2D8",
"q 	c #AAC3D8",
"r 	c #3C464D",
"s 	c #A2B6CF",
"t 	c #B1CBE0",
"u 	c #3D474C",
"v 	c #B2CBDF",
"w 	c #3C464C",
"x 	c #ABC3D6",
"y 	c #3B464B",
"z 	c #A9C0D7",
"A 	c #96AEBF",
"B 	c #3C454B",
"C 	c #748593",
"D 	c #ADC5DA",
"E 	c #3B454B",
"F 	c #3E4751",
"G 	c #404952",
"H 	c #718390",
"I 	c #70808D",
"J 	c #8CA1B2",
"K 	c #AFC6DD",
"L 	c #8BA0AF",
"M 	c #3A444A",
"N 	c #3D464C",
"O 	c #8CA1B0",
"P 	c #8B9FB1",
"Q 	c #3A454A",
"R 	c #71818E",
"S 	c #AAC3D7",
"T 	c #AAC0D8",
"U 	c #6F818C",
"V 	c #3F4851",
"W 	c #728492",
"X 	c #98AEBF",
"Y 	c #ABC3D7",
"Z 	c #3D4650",
"` 	c #394349",
" .	c #394449",
"..	c #384348",
"+.	c #394348",
"@.	c #384248",
". . . . . . . . . . . . . . . . . . . . . . . . . . . . ",
"+ + + + + + + + + + + + + + + + + + + + + + + + + + + + ",
"+ + + + + + + + + + + + + + + + + + + + + + + + + + + + ",
"@ @ @ @ @ @ @ @ @ @ @ @ @ @ @ @ @ @ @ @ @ @ @ @ @ @ @ @ ",
"# # # # # # # # # # # # # # # # # # # # # # # # # # # # ",
"$ $ $ $ $ $ $ $ $ $ $ $ $ $ $ $ $ $ $ $ $ $ $ $ $ $ $ $ ",
"$ $ $ $ $ $ $ $ $ $ $ $ $ $ $ $ $ $ $ $ $ $ $ $ $ $ $ $ ",
"% % % % % % % % % % % % % % % % % % % % % % % % % % % % ",
"& & & & & & & & & * = - ; > > ; , ' * & & & & & & & & & ",
"& & & & & & & & ) ! ~ { ] ^ ^ ] { / ( _ & & & & & & & & ",
"& & & & & & + : < [ } } } } } } } } | 1 2 + & & & & & & ",
"3 3 3 3 3 3 4 5 ^ } } } } } } } } } } 6 7 8 3 3 3 3 3 3 ",
"9 9 9 9 9 0 < 6 } } } } } } } } } } } } 6 a b 9 9 9 9 9 ",
"c c c c d e f } } } } } } } } } } } } } } [ g h c c c c ",
"i i i i j ~ } } } } } } } } } } } } } } } } ~ k i i i i ",
"l l l l m n } } } } } } } } } } } } } } } } o , l l l l ",
"i i i i p ] } } } } } } } } } } } } } } } } ] q i i i i ",
"r r r r > s } } } } } } } } } } } } } } } } ^ t r r r r ",
"u u u u v ^ } } } } } } } } } } } } } } } } 6 > u u u u ",
"w w w w p ] } } } } } } } } } } } } } } } } ] x w w w w ",
"y y y y , { } } } } } } } } } } } } } } } } z A y y y y ",
"B B B B C / } } } } } } } } } } } } } } } } D ) B B B B ",
"E E E E F ! | } } } } } } } } } } } } } } | e G E E E E ",
"E E E E E H 1 6 } } } } } } } } } } } } 6 a I E E E E E ",
"E E E E E E J K 6 } } } } } } } } } } 6 K L E E E E E E ",
"M M M M M M N O a [ } } } } } } } } [ a P N M M M M M M ",
"Q Q Q Q Q Q Q Q R S ~ T ] 6 6 ] o D S U Q Q Q Q Q Q Q Q ",
"M M M M M M M M M V W X Y > > Y X 0 Z M M M M M M M M M ",
"` ` ` ` ` ` ` ` ` ` ` ` ` ` ` ` ` ` ` ` ` ` ` ` ` ` ` ` ",
" . . . . . . . . . . . . . . . . . . . . . . . . . . . .",
"` ` ` ` ` ` ` ` ` ` ` ` ` ` ` ` ` ` ` ` ` ` ` ` ` ` ` ` ",
"` ` ` ` ` ` ` ` ` ` ` ` ` ` ` ` ` ` ` ` ` ` ` ` ` ` ` ` ",
"........................................................",
"+.+.+.+.+.+.+.+.+.+.+.+.+.+.+.+.+.+.+.+.+.+.+.+.+.+.+.+.",
"@.@.@.@.@.@.@.@.@.@.@.@.@.@.@.@.@.@.@.@.@.@.@.@.@.@.@.@.",
"@.@.@.@.@.@.@.@.@.@.@.@.@.@.@.@.@.@.@.@.@.@.@.@.@.@.@.@."};
