/* XPM */
static char * hide_pressed_xpm[] = {
"24 24 95 2",
"  	c None",
". 	c #313133",
"+ 	c #4B5252",
"@ 	c #4B5151",
"# 	c #4A5152",
"$ 	c #4A5151",
"% 	c #4B5152",
"& 	c #4A5051",
"* 	c #495150",
"= 	c #4A5050",
"- 	c #495050",
"; 	c #525B5E",
"> 	c #768A9B",
", 	c #859DB3",
"' 	c #869EB5",
") 	c #758A9B",
"! 	c #505A5F",
"~ 	c #494F50",
"{ 	c #49504F",
"] 	c #677784",
"^ 	c #86A0B5",
"/ 	c #8098AE",
"( 	c #7A91AB",
"_ 	c #7A91AA",
": 	c #8097AF",
"< 	c #87A0B7",
"[ 	c #667784",
"} 	c #484F4F",
"| 	c #494F4F",
"1 	c #7B91AB",
"2 	c #7A92AB",
"3 	c #859FB5",
"4 	c #667683",
"5 	c #484F4E",
"6 	c #484E4E",
"7 	c #474F4E",
"8 	c #515A5C",
"9 	c #50595E",
"0 	c #484E4F",
"a 	c #474D4E",
"b 	c #474E4E",
"c 	c #768A9C",
"d 	c #758A99",
"e 	c #484D4E",
"f 	c #474D4D",
"g 	c #474E4D",
"h 	c #859DB1",
"i 	c #849CB1",
"j 	c #464D4D",
"k 	c #859EB4",
"l 	c #A8B7C8",
"m 	c #D7DEE6",
"n 	c #464D4C",
"o 	c #474D4C",
"p 	c #464C4C",
"q 	c #BDC8D5",
"r 	c #FFFFFF",
"s 	c #869EB4",
"t 	c #464C4B",
"u 	c #454C4C",
"v 	c #95A7BB",
"w 	c #AFBDCC",
"x 	c #849DB1",
"y 	c #454C4B",
"z 	c #454B4B",
"A 	c #74899A",
"B 	c #8098AF",
"C 	c #748899",
"D 	c #444B4B",
"E 	c #444A4A",
"F 	c #444B4A",
"G 	c #444A4B",
"H 	c #4C565B",
"I 	c #86A0B7",
"J 	c #859FB6",
"K 	c #4D5459",
"L 	c #444A49",
"M 	c #637582",
"N 	c #657482",
"O 	c #434A49",
"P 	c #647481",
"Q 	c #869FB6",
"R 	c #434949",
"S 	c #434948",
"T 	c #4C5659",
"U 	c #859EB3",
"V 	c #758899",
"W 	c #4B555A",
"X 	c #424949",
"Y 	c #424848",
"Z 	c #424747",
"` 	c #414847",
" .	c #414748",
"..	c #424748",
"+.	c #414747",
". . . . . . . . . . . . . . . . . . . . . . . . ",
"+ + + + + + + + + + + + + + + + + + + + + + + + ",
"+ + + + + + + + + + + + + + + + + + + + + + + + ",
"+ + + + + + + + + + + + + + + + + + + + + + + + ",
"@ + @ @ + @ @ + @ + @ + @ + @ + @ + @ + @ + + + ",
"# $ % # $ # $ % # $ # $ % # # $ % # $ $ % # @ $ ",
"& & * & & & & * & & & & * & & & * & & & * & * $ ",
"= * - = * * - * ; > , ' ' , ) ! * - & * - * - & ",
"~ { { ~ { { { ] ^ / ( _ _ ( : < [ ~ ~ { { - ~ ~ ",
"} } | } } } ] ' 1 _ _ _ _ _ _ 2 3 4 } } | | | } ",
"5 6 7 5 6 8 ^ 1 _ _ _ _ _ _ _ _ 2 < 9 6 7 } 0 0 ",
"a b b a b c : _ _ _ _ _ _ _ _ _ _ : d b b b e 6 ",
"f f g f f h ( _ _ _ _ _ _ _ _ _ _ ( i f g g f f ",
"j j f j j k _ _ l m m m m m m l _ _ ' j f j n o ",
"p p n p p ' _ _ q r r r r r r q _ _ s p n p n p ",
"t u u t u h ( _ v w w w w w w v _ ( x u u p y z ",
"z z z z z A : _ _ _ _ _ _ _ _ _ _ B C z z z z D ",
"E F G E F H I 2 _ _ _ _ _ _ _ _ 2 J K F G D z E ",
"E E L E E E M k 2 _ _ _ _ _ _ 2 3 N E E L E E E ",
"O O L O O O L P I : ( _ _ ( : Q P R E O L R R E ",
"R S R R S S R R T A x U U x V W R X R S R R X R ",
"X Y Y X Y Y Y Y Y Y Y Y Y Y Y Y Y Y Y Y Y Y Y Y ",
"Z `  .Z ` Z `  .Z ` Z `  .Z Z `  .Z ` `  ...Y Y ",
"+.+.+.+.+.+.+.+.+.+.+.+.+.+.+.+.+.+.+.+.+. .Z +."};
