/* XPM */
static char * maximize_active_xpm[] = {
"24 24 87 1",
" 	c None",
".	c #313133",
"+	c #4B5252",
"@	c #4B5151",
"#	c #4A5152",
"$	c #4A5151",
"%	c #4B5152",
"&	c #4A5051",
"*	c #495150",
"=	c #4A5050",
"-	c #495050",
";	c #525B5E",
">	c #768A9A",
",	c #859DB1",
"'	c #869EB4",
")	c #758A99",
"!	c #505A5F",
"~	c #494F50",
"{	c #49504F",
"]	c #677784",
"^	c #86A0B4",
"/	c #8098AE",
"(	c #7A91AB",
"_	c #7A91AA",
":	c #8097AF",
"<	c #87A0B6",
"[	c #667784",
"}	c #484F4F",
"|	c #494F4F",
"1	c #869EB5",
"2	c #7B91AB",
"3	c #7A92AB",
"4	c #859FB5",
"5	c #667683",
"6	c #484F4E",
"7	c #484E4E",
"8	c #474F4E",
"9	c #515A5C",
"0	c #50595E",
"a	c #484E4F",
"b	c #474D4E",
"c	c #474E4E",
"d	c #768A9B",
"e	c #484D4E",
"f	c #474D4D",
"g	c #474E4D",
"h	c #849CB1",
"i	c #464D4D",
"j	c #859EB3",
"k	c #464D4C",
"l	c #474D4C",
"m	c #464C4C",
"n	c #869EB3",
"o	c #464C4B",
"p	c #454C4C",
"q	c #849DB1",
"r	c #454C4B",
"s	c #454B4B",
"t	c #748999",
"u	c #748899",
"v	c #444B4B",
"w	c #444A4A",
"x	c #444B4A",
"y	c #444A4B",
"z	c #4C565B",
"A	c #86A0B6",
"B	c #4D5459",
"C	c #444A49",
"D	c #637580",
"E	c #859EB4",
"F	c #657482",
"G	c #434A49",
"H	c #647481",
"I	c #869FB6",
"J	c #434949",
"K	c #434948",
"L	c #4C5659",
"M	c #748998",
"N	c #758899",
"O	c #4B555A",
"P	c #424949",
"Q	c #424848",
"R	c #424747",
"S	c #414847",
"T	c #414748",
"U	c #424748",
"V	c #414747",
"........................",
"++++++++++++++++++++++++",
"++++++++++++++++++++++++",
"++++++++++++++++++++++++",
"@+@@+@@+@+@+@+@+@+@+@+++",
"#$%#$#$%#$#$%##$%#$$%#@$",
"&&*&&&&*&&&&*&&&*&&&*&*$",
"=*-=**-*;>,'',)!*-&*-*-&",
"~{{~{{{]^/(__(:<[~~{{-~~",
"}}|}}}]12______345}}|||}",
"678679^2________3<078}aa",
"bccbcd:__________:)ccce7",
"ffgff,(__________(hfggff",
"iifiij____________'ifikl",
"mmkmm'____________nmkmkm",
"oppop,(__________(qppmrs",
"ssssst:__________/ussssv",
"wxywxzA3________34Bxyvsw",
"wwCwwwDE3______34FwwCwww",
"GGCGGGCHA:(__(:IHJwGCJJw",
"JKJJKKJJLMqjjqNOJPJKJJPJ",
"PQQPQQQQQQQQQQQQQQQQQQQQ",
"RSTRSRSTRSRSTRRSTRSSTUQQ",
"VVVVVVVVVVVVVVVVVVVVVTRV"};
