/* XPM */
static char * maximize_pressed_xpm[] = {
"24 24 106 2",
"  	c None",
". 	c #313133",
"+ 	c #4B5252",
"@ 	c #4B5151",
"# 	c #4A5152",
"$ 	c #4A5151",
"% 	c #4B5152",
"& 	c #4A5051",
"* 	c #495150",
"= 	c #4A5050",
"- 	c #495050",
"; 	c #525B5E",
"> 	c #768A9B",
", 	c #859DB3",
"' 	c #869EB5",
") 	c #758A9B",
"! 	c #505A5F",
"~ 	c #494F50",
"{ 	c #49504F",
"] 	c #677784",
"^ 	c #86A0B5",
"/ 	c #8098AE",
"( 	c #7A91AB",
"_ 	c #7A91AA",
": 	c #8097AF",
"< 	c #87A0B7",
"[ 	c #667784",
"} 	c #484F4F",
"| 	c #494F4F",
"1 	c #7B91AB",
"2 	c #7A92AB",
"3 	c #859FB5",
"4 	c #667683",
"5 	c #484F4E",
"6 	c #484E4E",
"7 	c #474F4E",
"8 	c #515A5C",
"9 	c #8398B0",
"0 	c #B8C4D1",
"a 	c #B8C4D2",
"b 	c #99ABBE",
"c 	c #50595E",
"d 	c #484E4F",
"e 	c #474D4E",
"f 	c #474E4E",
"g 	c #768A9C",
"h 	c #AEBCCB",
"i 	c #FEFEFE",
"j 	c #FFFFFF",
"k 	c #BDC8D5",
"l 	c #758A99",
"m 	c #484D4E",
"n 	c #474D4D",
"o 	c #474E4D",
"p 	c #859DB1",
"q 	c #849AB1",
"r 	c #849CB1",
"s 	c #464D4D",
"t 	c #859EB4",
"u 	c #BCC8D4",
"v 	c #B2BFCE",
"w 	c #464D4C",
"x 	c #474D4C",
"y 	c #464C4C",
"z 	c #FEFFFF",
"A 	c #BCC7D4",
"B 	c #869EB4",
"C 	c #464C4B",
"D 	c #454C4C",
"E 	c #849DB1",
"F 	c #454C4B",
"G 	c #454B4B",
"H 	c #74899A",
"I 	c #8098AF",
"J 	c #748899",
"K 	c #444B4B",
"L 	c #444A4A",
"M 	c #444B4A",
"N 	c #444A4B",
"O 	c #4C565B",
"P 	c #86A0B7",
"Q 	c #9DAEC1",
"R 	c #C1CCD7",
"S 	c #C0CBD7",
"T 	c #879BB2",
"U 	c #859FB6",
"V 	c #4D5459",
"W 	c #444A49",
"X 	c #637582",
"Y 	c #657482",
"Z 	c #434A49",
"` 	c #647481",
" .	c #869FB6",
"..	c #434949",
"+.	c #434948",
"@.	c #4C5659",
"#.	c #859EB3",
"$.	c #758899",
"%.	c #4B555A",
"&.	c #424949",
"*.	c #424848",
"=.	c #424747",
"-.	c #414847",
";.	c #414748",
">.	c #424748",
",.	c #414747",
". . . . . . . . . . . . . . . . . . . . . . . . ",
"+ + + + + + + + + + + + + + + + + + + + + + + + ",
"+ + + + + + + + + + + + + + + + + + + + + + + + ",
"+ + + + + + + + + + + + + + + + + + + + + + + + ",
"@ + @ @ + @ @ + @ + @ + @ + @ + @ + @ + @ + + + ",
"# $ % # $ # $ % # $ # $ % # # $ % # $ $ % # @ $ ",
"& & * & & & & * & & & & * & & & * & & & * & * $ ",
"= * - = * * - * ; > , ' ' , ) ! * - & * - * - & ",
"~ { { ~ { { { ] ^ / ( _ _ ( : < [ ~ ~ { { - ~ ~ ",
"} } | } } } ] ' 1 _ _ _ _ _ _ 2 3 4 } } | | | } ",
"5 6 7 5 6 8 ^ 1 _ _ 9 0 a a a b 2 < c 6 7 } d d ",
"e f f e f g : _ _ _ _ h i j j k _ : l f f f m 6 ",
"n n o n n p ( _ q _ _ _ h i j k _ ( r n o o n n ",
"s s n s s t _ _ u v _ _ _ h i k _ _ ' s n s w x ",
"y y w y y ' _ _ k z v _ _ _ h A _ _ B y w y w y ",
"C D D C D p ( _ k j z v _ _ _ q _ ( E D D y F G ",
"G G G G G H : _ k j j z v _ _ _ _ I J G G G G K ",
"L M N L M O P 2 Q R R R S T _ _ 2 U V M N K G L ",
"L L W L L L X t 2 _ _ _ _ _ _ 2 3 Y L L W L L L ",
"Z Z W Z Z Z W ` P : ( _ _ ( :  .` ..L Z W ....L ",
"..+.....+.+.....@.H E #.#.E $.%...&...+.....&...",
"&.*.*.&.*.*.*.*.*.*.*.*.*.*.*.*.*.*.*.*.*.*.*.*.",
"=.-.;.=.-.=.-.;.=.-.=.-.;.=.=.-.;.=.-.-.;.>.*.*.",
",.,.,.,.,.,.,.,.,.,.,.,.,.,.,.,.,.,.,.,.,.;.=.,."};
