/* XPM */
static char * stick_prelight_xpm[] = {
"24 36 120 2",
"  	c #323A3F",
". 	c #3F4C53",
"+ 	c #3F4C52",
"@ 	c #3E4C53",
"# 	c #3F4B53",
"$ 	c #3E4C52",
"% 	c #3E4B52",
"& 	c #3F4B52",
"* 	c #3E4B53",
"= 	c #3E4A52",
"- 	c #404A50",
"; 	c #202323",
"> 	c #0F0F0F",
", 	c #0A0A0A",
"' 	c #3D4B51",
") 	c #161818",
"! 	c #404A4F",
"~ 	c #3D4A51",
"{ 	c #333C42",
"] 	c #3D4A50",
"^ 	c #313B41",
"/ 	c #313B40",
"( 	c #3C4950",
"_ 	c #303A3F",
": 	c #303A40",
"< 	c #313A40",
"[ 	c #30393F",
"} 	c #313A3F",
"| 	c #3D4950",
"1 	c #2F383E",
"2 	c #525555",
"3 	c #B9B9B9",
"4 	c #E6E6E6",
"5 	c #FCFCFC",
"6 	c #3C494F",
"7 	c #2D373C",
"8 	c #2D363C",
"9 	c #8E8F8F",
"0 	c #E0E0E0",
"a 	c #D2D2D2",
"b 	c #929494",
"c 	c #4D5050",
"d 	c #939394",
"e 	c #3C4850",
"f 	c #2C353A",
"g 	c #4F5252",
"h 	c #B8B9B9",
"i 	c #3B494F",
"j 	c #3B484F",
"k 	c #2A3339",
"l 	c #2B3339",
"m 	c #293237",
"n 	c #293236",
"o 	c #919292",
"p 	c #3A484F",
"q 	c #273035",
"r 	c #283035",
"s 	c #474B4B",
"t 	c #3A484E",
"u 	c #262E33",
"v 	c #252E33",
"w 	c #464A4A",
"x 	c #3A474E",
"y 	c #252C31",
"z 	c #242C31",
"A 	c #909191",
"B 	c #3A474D",
"C 	c #232A2F",
"D 	c #232B2F",
"E 	c #232A30",
"F 	c #B7B7B7",
"G 	c #D1D1D1",
"H 	c #39464E",
"I 	c #22282D",
"J 	c #474A4A",
"K 	c #DFDFDF",
"L 	c #20282B",
"M 	c #20282C",
"N 	c #20272C",
"O 	c #8A8B8B",
"P 	c #8F9090",
"Q 	c #424545",
"R 	c #39464D",
"S 	c #1F262A",
"T 	c #464748",
"U 	c #B6B7B7",
"V 	c #FBFCFC",
"W 	c #464848",
"X 	c #39454D",
"Y 	c #1E2428",
"Z 	c #1E2429",
"` 	c #38464D",
" .	c #1C2226",
"..	c #38454C",
"+.	c #38454D",
"@.	c #1B2125",
"#.	c #39454C",
"$.	c #1A2024",
"%.	c #37444B",
"&.	c #101212",
"*.	c #171B1B",
"=.	c #181D1D",
"-.	c #37454C",
";.	c #394449",
">.	c #202424",
",.	c #101111",
"'.	c #0B0C0C",
").	c #38444B",
"!.	c #37444C",
"~.	c #394349",
"{.	c #545A5A",
"].	c #5D6262",
"^.	c #5E6363",
"/.	c #37444A",
"(.	c #37434B",
"_.	c #37434A",
":.	c #36444B",
"<.	c #36444A",
"[.	c #36434B",
"}.	c #36434A",
"                                                ",
". . . . . . . . . . . . . . . . . . . . . . . . ",
". + . . . + . . . . . @ . # $ # . . + . . + . + ",
". . # @ . . % + & . @ & & & % $ . + # & & @ # & ",
"@ % % + @ % $ & % + & @ $ # % # . & % & @ & $ % ",
"% % % % % % % % % % % % * % % % % % % % % % % % ",
"= - ; > , , , , , , , , , , , , , , , , > ; - % ",
"' ; ) ! ! ! ! ! ! ! ! ! ! ! ! ! ! ! ! ! ! ) ; % ",
"~ > { { { { { { { { { { { { { { { { { { { { > ~ ",
"~ , { { { { { { { { { { { { { { { { { { { { , ~ ",
"] , ^ ^ ^ ^ ^ ^ ^ / ^ ^ ^ / ^ / ^ ^ ^ ^ ^ ^ , ~ ",
"( , _ : : < _ : : : [ : } [ : _ _ _ < : : _ , | ",
"( , 1 1 1 1 1 1 2 3 4 5 5 4 3 2 1 1 1 1 1 1 , | ",
"6 , 7 8 7 7 8 9 0 a b c c d a 0 9 8 7 7 8 7 , e ",
"e , f f f f g 0 h f f f f f f h 0 g f f f f , i ",
"j , k l l l h a l l l l l l l l a h l l l k , j ",
"j , m n n n 4 o n n n n n n n n o 4 n n n m , j ",
"p , q r r q 5 s r q r r q r r q s 5 q r r q , j ",
"t , u v u u 5 w u u v u u v u u w 5 u u v u , x ",
"x , y y y z 4 A y z y y z y y z A 4 z y y y , x ",
"B , C D D E F G D E D D E D D E G F E D D C , x ",
"H , I I I I J K F I I I I I I F K J I I I I , x ",
"B , L M N N N O K G P Q Q P G K O N N N M L , H ",
"R , S S S S S S T U 4 5 V 4 U W S S S S S S , R ",
"X , Y Z Y Y Z Y Y Y Y Z Y Z Z Y Y Z Y Y Z Y , ` ",
"X ,  . . . . . . . . . . . . . . . . . . . ., ..",
"+., @.@.@.@.@.@.@.@.@.@.@.@.@.@.@.@.@.@.@.@., #.",
"..> $.$.$.$.$.$.$.$.$.$.$.$.$.$.$.$.$.$.$.$.> ..",
"%.; &.*.=.=.=.=.=.=.=.=.=.=.=.=.=.=.=.=.*.&.; ..",
"-.;.>.,.'.'.'.'.'.'.'.'.'.'.'.'.'.'.'.'.,.>.;.).",
"!.~.~.{.].^.^.^.^.^.^.^.^.^.^.^.^.^.^.].{.~.~.%.",
"%.%.%.%.%.%.%.%.%.%./.%.%.(.%./.%.%.(._.%./.%.%.",
":./._._.:././.<./.[.<.%._.(.(.%.%.<.(.}./.:.}.:.",
"_.<.:.}._.<.(.(._.[.}.:.[._./.[.[.}.}.:.<.}._.%.",
"}.}.}.}.}.}.<.}.<.}.}.}.}.}.}.:.}.}.}.}.}.}.<.}.",
"}.}.}.}.}.}.}.}.}.}.}.}.}.}.}.}.}.}.}.}.}.}.}.}."};
