<?xml version="1.0" encoding="UTF-8" standalone="no"?>
<svg
   xmlns:dc="http://purl.org/dc/elements/1.1/"
   xmlns:cc="http://creativecommons.org/ns#"
   xmlns:rdf="http://www.w3.org/1999/02/22-rdf-syntax-ns#"
   xmlns:svg="http://www.w3.org/2000/svg"
   xmlns="http://www.w3.org/2000/svg"
   xmlns:sodipodi="http://sodipodi.sourceforge.net/DTD/sodipodi-0.dtd"
   xmlns:inkscape="http://www.inkscape.org/namespaces/inkscape"
   inkscape:version="1.0 (4035a4fb49, 2020-05-01)"
   sodipodi:docname="button_close_hover.svg"
   width="20"
   height="20"
   viewBox="0 0 5.2916668 5.2916668"
   version="1.1"
   id="svg8">
  <sodipodi:namedview
     inkscape:current-layer="layer1"
     inkscape:window-maximized="1"
     inkscape:window-y="32"
     inkscape:window-x="0"
     inkscape:cy="10"
     inkscape:cx="10"
     inkscape:zoom="42.8"
     showgrid="false"
     id="namedview8"
     inkscape:window-height="1010"
     inkscape:window-width="1920"
     inkscape:pageshadow="2"
     inkscape:pageopacity="0"
     guidetolerance="10"
     gridtolerance="10"
     objecttolerance="10"
     borderopacity="1"
     bordercolor="#666666"
     pagecolor="#ffffff" />
  <defs
     id="defs2" />
  <metadata
     id="metadata5">
    <rdf:RDF>
      <cc:Work
         rdf:about="">
        <dc:format>image/svg+xml</dc:format>
        <dc:type
           rdf:resource="http://purl.org/dc/dcmitype/StillImage" />
        <dc:title />
      </cc:Work>
    </rdf:RDF>
  </metadata>
  <g
     id="layer1"
     transform="translate(0,-291.70833)">
    <circle
       style="opacity:1;fill:#e27b20;fill-opacity:1;stroke:#ff9931;stroke-width:0.26458333;stroke-linecap:round;stroke-linejoin:miter;stroke-miterlimit:4;stroke-dasharray:none;stroke-opacity:1;paint-order:markers fill stroke"
       id="path815"
       cx="2.6458333"
       cy="294.35416"
       r="2.5065789" />
    <path
       style="opacity:1;fill:#ffffff;fill-opacity:1;stroke:none;stroke-width:0.33201277;stroke-linecap:round;stroke-linejoin:miter;stroke-miterlimit:4;stroke-dasharray:none;stroke-opacity:1;paint-order:markers fill stroke"
       d="m 1.585057,293.03211 c -0.061131,0.006 -0.1241048,0.0342 -0.1751831,0.0853 -0.1021871,0.10221 -0.1162639,0.25328 -0.031006,0.33848 l 0.8981364,0.89813 -0.8981364,0.89814 c -0.085153,0.0852 -0.071633,0.2358 0.030489,0.33796 0.1021921,0.1022 0.2532876,0.11631 0.3384806,0.031 l 0.8981364,-0.89814 0.8981364,0.89814 c 0.085217,0.0852 0.2357964,0.0716 0.3379639,-0.0305 0.1021872,-0.1022 0.116263,-0.25328 0.031006,-0.33848 L 3.0149438,294.354 3.9125634,293.45587 c 0.085143,-0.0852 0.071633,-0.23632 -0.030489,-0.33848 -0.1022022,-0.1022 -0.2527707,-0.11579 -0.3379639,-0.0305 l -0.8981364,0.89813 -0.8981364,-0.89813 c -0.042609,-0.0426 -0.1016497,-0.0603 -0.1627807,-0.0548 z"
       id="rect849-9-9" />
  </g>
</svg>
