/* XPM */
static char * close_active_xpm[] = {
"28 36 159 2",
"  	c #323A3F",
". 	c #3F4C53",
"+ 	c #3F4C52",
"@ 	c #3E4C53",
"# 	c #3F4B53",
"$ 	c #3E4C52",
"% 	c #3E4B52",
"& 	c #3F4B52",
"* 	c #3E4B53",
"= 	c #3E4A52",
"- 	c #3D4A52",
"; 	c #3D4B51",
"> 	c #3D4B52",
", 	c #3E4B51",
"' 	c #3E4A51",
") 	c #3F4A50",
"! 	c #404950",
"~ 	c #3F4951",
"{ 	c #3D4A51",
"] 	c #3E4950",
"^ 	c #414A56",
"/ 	c #50669E",
"( 	c #5F7CD1",
"_ 	c #6785E9",
": 	c #6A8BF2",
"< 	c #607BD0",
"[ 	c #51659F",
"} 	c #4F649C",
"| 	c #6787EA",
"1 	c #6586EB",
"2 	c #5D7EE6",
"3 	c #5777DF",
"4 	c #5574DB",
"5 	c #5E7EE6",
"6 	c #6887EA",
"7 	c #50649C",
"8 	c #3D4A50",
"9 	c #3C4A51",
"0 	c #3D4951",
"a 	c #3F4B51",
"b 	c #5B73C1",
"c 	c #6989F1",
"d 	c #5979E1",
"e 	c #5272D9",
"f 	c #597AE1",
"g 	c #6A8AF1",
"h 	c #5B72C0",
"i 	c #3C4951",
"j 	c #3C4950",
"k 	c #3E494F",
"l 	c #5A73C1",
"m 	c #6687ED",
"n 	c #5475DB",
"o 	c #6887EE",
"p 	c #5A73BE",
"q 	c #3C4A50",
"r 	c #3D4950",
"s 	c #3D484F",
"t 	c #4F639C",
"u 	c #5474DB",
"v 	c #4F639A",
"w 	c #3B4950",
"x 	c #3C494F",
"y 	c #6786EA",
"z 	c #5A7AE2",
"A 	c #3F4954",
"B 	c #3C4850",
"C 	c #3C484F",
"D 	c #4F659D",
"E 	c #6587EC",
"F 	c #4F639D",
"G 	c #3B494F",
"H 	c #3B4850",
"I 	c #3B484F",
"J 	c #3D474E",
"K 	c #5F7AD1",
"L 	c #5D7DE6",
"M 	c #5E7EE7",
"N 	c #5E7ACF",
"O 	c #3C474E",
"P 	c #3D474D",
"Q 	c #6887E9",
"R 	c #6785E8",
"S 	c #3A484F",
"T 	c #3C464D",
"U 	c #6A8BF3",
"V 	c #6A8CF2",
"W 	c #3B474F",
"X 	c #3A484E",
"Y 	c #3D474C",
"Z 	c #6B8BF3",
"` 	c #6A8BF1",
" .	c #3A474E",
"..	c #3A474F",
"+.	c #3B474E",
"@.	c #3C464C",
"#.	c #6787E8",
"$.	c #3A474D",
"%.	c #3B464C",
"&.	c #5F7BCE",
"*.	c #5D78CD",
"=.	c #39464E",
"-.	c #3B464D",
";.	c #50639E",
">.	c #6686EC",
",.	c #4F629C",
"'.	c #39474E",
").	c #39464D",
"!.	c #3A464D",
"~.	c #39474D",
"{.	c #3B4751",
"].	c #3D4652",
"^.	c #3A454C",
"/.	c #4E629B",
"(.	c #698AF1",
"_.	c #6A89F1",
":.	c #4E6198",
"<.	c #39454D",
"[.	c #5A71C0",
"}.	c #5971BD",
"|.	c #38464D",
"1.	c #39454C",
"2.	c #38464C",
"3.	c #3A464C",
"4.	c #5972BE",
"5.	c #5872BD",
"6.	c #39464C",
"7.	c #38454C",
"8.	c #38454D",
"9.	c #39454B",
"0.	c #4C6299",
"a.	c #6786E9",
"b.	c #5D7EE7",
"c.	c #4C6197",
"d.	c #3A454B",
"e.	c #39444B",
"f.	c #3C4551",
"g.	c #4E629C",
"h.	c #6786E8",
"i.	c #5E79CD",
"j.	c #3A4650",
"k.	c #37454C",
"l.	c #37444B",
"m.	c #37454B",
"n.	c #38444A",
"o.	c #39434A",
"p.	c #394349",
"q.	c #39444A",
"r.	c #38454B",
"s.	c #38444C",
"t.	c #37444C",
"u.	c #38444B",
"v.	c #37444A",
"w.	c #37434B",
"x.	c #37434A",
"y.	c #36444B",
"z.	c #36444A",
"A.	c #36434B",
"B.	c #36434A",
"                                                        ",
". . . . . . . . . . . . . . . . . . . . . . . . . . . . ",
". . . + . . . + . . . . . @ . # $ # . . + . . + . + . + ",
"# @ . . # @ . . % + & . @ & & & % $ . + # & & @ # & . . ",
"% + @ % % + @ % $ & % + & @ $ # % # . & % & @ & $ % $ + ",
"% % % % % % % % % % % % % % * % % % % % % % % % % % % % ",
"% % = = % % = = % = % - % % ; ; % = > % > = , % % % % , ",
", = ; > , = ; > ; - ' ) ! ! ! ! ~ ' - { ; - { { - % ; { ",
"- ' { { - ' { { ] ^ / ( _ : : _ < [ ^ ] - { ' { - { ; { ",
"{ { { { { { { ] } | 1 2 3 4 4 3 5 1 6 7 ] { { { { { { 8 ",
"9 0 8 8 9 0 a b c d e e e e e e e e f g h , 0 { i { i i ",
"j { j j j k l m 4 e e e e e e e e e e n o p k q i r r i ",
"j i j j s t c n e e e e e e e e e e e e u g v s j r j j ",
"w x x x - y f e e e e e e e e e e e e e e z 6 A B B j B ",
"x C B C D 1 e e e e e e e e e e e e e e e e E F C G C H ",
"C x I J K L e e e e e e e e e e e e e e e e M N O I I I ",
"I I I P Q 3 e e e e e e e e e e e e e e e e 3 R P I I I ",
"I S S T U u e e e e e e e e e e e e e e e e 4 V T I I I ",
"W W X Y Z n e e e e e e e e e e e e e e e e n ` Y  ...X ",
"X +. .@.Q 3 e e e e e e e e e e e e e e e e 3 #.@. .X +.",
" . .$.%.&.5 e e e e e e e e e e e e e e e e L *.%. . . .",
"$. .=.-.;.1 e e e e e e e e e e e e e e e e >.,.%. .'.).",
"!.~.$.~.{.Q f e e e e e e e e e e e e e e z Q ].=.=.=.=.",
").).).).^./.(.u e e e e e e e e e e e e u _.:.^.).).).).",
").<.<.).).^.[.o u e e e e e e e e e e u o }.^.<.).|.1.).",
"|.|.<.2.|.2.3.4.(.z e e e e e e e e z _.5.3.6.|.7.7.|.8.",
"8.6.8.7.8.6.7.9.0.a.E b.3 n n 3 2 >.Q c.d.2.7.7.2.1.8.7.",
"7.7.7.7.7.7.7.7.e.f.g.N h.: : h.i.g.j.e.7.7.7.7.7.7.7.7.",
"k.7.l.m.k.7.l.m.k.7.n.o.p.p.p.p.q.n.7.7.r.7.s.r.7.7.7.k.",
"t.m.k.7.t.m.k.7.k.7.r.u.7.s.m.7.k.u.m.7.t.l.7.m.l.u.l.t.",
"m.l.t.l.m.l.t.l.t.l.u.l.l.l.l.l.t.l.l.t.u.m.m.l.u.l.l.l.",
"l.l.l.l.l.l.l.l.l.l.l.l.v.l.l.w.l.v.l.l.w.x.l.v.l.l.l.w.",
"x.x.y.v.x.x.y.v.v.z.v.A.z.l.x.w.w.l.l.z.w.B.v.y.B.y.l.x.",
"y.B.x.z.y.B.x.z.w.w.x.A.B.y.A.x.v.A.A.B.B.y.z.B.x.l.B.B.",
"B.B.B.B.B.B.B.B.z.B.z.B.B.B.B.B.B.y.B.B.B.B.B.B.z.B.A.B.",
"B.B.B.B.B.B.B.B.B.B.B.B.B.B.B.B.B.B.B.B.B.B.B.B.B.B.B.B."};
