/* XPM */
static char * close_active_xpm[] = {
"28 36 101 2",
"  	c #323A3F",
". 	c #414B51",
"+ 	c #414B50",
"@ 	c #414A50",
"# 	c #404A50",
"$ 	c #404950",
"% 	c #3F494F",
"& 	c #434B5C",
"* 	c #627CC3",
"= 	c #7493EF",
"- 	c #7C99FB",
"; 	c #7E9BFD",
"> 	c #7592EF",
", 	c #637AC4",
"' 	c #6079C1",
") 	c #7795F6",
"! 	c #6686E9",
"~ 	c #5B7AE0",
"{ 	c #5675DC",
"] 	c #6685E9",
"^ 	c #7694F6",
"/ 	c #7D99FB",
"( 	c #6278C0",
"_ 	c #414D53",
": 	c #708AE4",
"< 	c #7B99FC",
"[ 	c #5F7EE3",
"} 	c #5272D9",
"| 	c #5E7EE3",
"1 	c #7B9AFC",
"2 	c #708AE3",
"3 	c #3E494E",
"4 	c #7794F8",
"5 	c #5676DC",
"6 	c #7895F9",
"7 	c #6F8AE2",
"8 	c #3E484E",
"9 	c #6078C1",
"0 	c #7C9AFC",
"a 	c #6177BE",
"b 	c #3D484D",
"c 	c #404C57",
"d 	c #5F7FE4",
"e 	c #7D9AFB",
"f 	c #414A5A",
"g 	c #3D474D",
"h 	c #617BC3",
"i 	c #7795F7",
"j 	c #6179C2",
"k 	c #3D474E",
"l 	c #7591F0",
"m 	c #6585E9",
"n 	c #6686EA",
"o 	c #7391EE",
"p 	c #7B98FA",
"q 	c #3C464D",
"r 	c #7E9BFE",
"s 	c #5575DC",
"t 	c #7F9CFD",
"u 	c #3D474C",
"v 	c #7F9CFE",
"w 	c #7E9BFC",
"x 	c #3C464C",
"y 	c #7B9AFA",
"z 	c #3B464B",
"A 	c #7592EE",
"B 	c #7390ED",
"C 	c #3C454B",
"D 	c #6279C3",
"E 	c #7794F7",
"F 	c #6279C1",
"G 	c #3B454B",
"H 	c #3E4956",
"I 	c #607EE4",
"J 	c #7E9AFB",
"K 	c #3F4759",
"L 	c #6177C0",
"M 	c #7C99FC",
"N 	c #5F77BD",
"O 	c #6F89E1",
"P 	c #3A444A",
"Q 	c #3D484E",
"R 	c #6E8BE1",
"S 	c #3A454A",
"T 	c #5F77BE",
"U 	c #7C9AFB",
"V 	c #5A79E0",
"W 	c #6586E9",
"X 	c #5F76BC",
"Y 	c #3E4658",
"Z 	c #6078C2",
"` 	c #7492EE",
" .	c #7B99FB",
"..	c #7490ED",
"+.	c #6179C1",
"@.	c #3D4855",
"#.	c #394349",
"$.	c #394449",
"%.	c #384348",
"&.	c #394348",
"*.	c #384248",
"                                                        ",
". . . . . . . . . . . . . . . . . . . . . . . . . . . . ",
". . . . . . . . . . . . . . . . . . . . . . . . . . . . ",
"+ + + + + + + + + + + + + + + + + + + + + + + + + + + + ",
"@ @ @ @ @ @ @ @ @ @ @ @ @ @ @ @ @ @ @ @ @ @ @ @ @ @ @ @ ",
"# # # # # # # # # # # # # # # # # # # # # # # # # # # # ",
"# # # # # # # # # # # # # # # # # # # # # # # # # # # # ",
"$ $ $ $ $ $ $ $ $ $ $ $ $ $ $ $ $ $ $ $ $ $ $ $ $ $ $ $ ",
"% % % % % % % % % & * = - ; ; - > , & % % % % % % % % % ",
"% % % % % % % % ' - ) ! ~ { { ~ ] ^ / ( % % % % % % % % ",
"% % % % % % _ : < [ } } } } } } } } | 1 2 _ % % % % % % ",
"3 3 3 3 3 3 : 4 { } } } } } } } } } } 5 6 7 3 3 3 3 3 3 ",
"8 8 8 8 8 9 < 5 } } } } } } } } } } } } 5 0 a 8 8 8 8 8 ",
"b b b b c 0 | } } } } } } } } } } } } } } d e f b b b b ",
"g g g g h ) } } } } } } } } } } } } } } } } i j g g g g ",
"k k k k l m } } } } } } } } } } } } } } } } n o k k k k ",
"g g g g - ~ } } } } } } } } } } } } } } } } ~ p g g g g ",
"q q q q r s } } } } } } } } } } } } } } } } { t q q q q ",
"u u u u v 5 } } } } } } } } } } } } } } } } 5 w u u u u ",
"x x x x - ~ } } } } } } } } } } } } } } } } ~ y x x x x ",
"z z z z A ] } } } } } } } } } } } } } } } } ] B z z z z ",
"C C C C D ^ } } } } } } } } } } } } } } } } E F C C C C ",
"G G G G H / | } } } } } } } } } } } } } } I J K G G G G ",
"G G G G G L 1 5 } } } } } } } } } } } } 5 M N G G G G G ",
"G G G G G G 2 6 5 } } } } } } } } } } 5 6 O G G G G G G ",
"P P P P P P Q 7 0 d } } } } } } } } I M R Q P P P P P P ",
"S S S S S S S S T U i n V 5 5 ~ W E / X S S S S S S S S ",
"P P P P P P P P P Y Z `  .; ;  ...+.@.P P P P P P P P P ",
"#.#.#.#.#.#.#.#.#.#.#.#.#.#.#.#.#.#.#.#.#.#.#.#.#.#.#.#.",
"$.$.$.$.$.$.$.$.$.$.$.$.$.$.$.$.$.$.$.$.$.$.$.$.$.$.$.$.",
"#.#.#.#.#.#.#.#.#.#.#.#.#.#.#.#.#.#.#.#.#.#.#.#.#.#.#.#.",
"#.#.#.#.#.#.#.#.#.#.#.#.#.#.#.#.#.#.#.#.#.#.#.#.#.#.#.#.",
"%.%.%.%.%.%.%.%.%.%.%.%.%.%.%.%.%.%.%.%.%.%.%.%.%.%.%.%.",
"&.&.&.&.&.&.&.&.&.&.&.&.&.&.&.&.&.&.&.&.&.&.&.&.&.&.&.&.",
"*.*.*.*.*.*.*.*.*.*.*.*.*.*.*.*.*.*.*.*.*.*.*.*.*.*.*.*.",
"*.*.*.*.*.*.*.*.*.*.*.*.*.*.*.*.*.*.*.*.*.*.*.*.*.*.*.*."};
