/* XPM */
static char * close_prelight_xpm[] = {
"28 36 136 2",
"  	c None",
". 	c #313133",
"+ 	c #4B5252",
"@ 	c #4B5251",
"# 	c #4A5251",
"$ 	c #4A5152",
"% 	c #4B5151",
"& 	c #4A5252",
"* 	c #4B5152",
"= 	c #4A5151",
"- 	c #495151",
"; 	c #4A5150",
"> 	c #495150",
", 	c #495050",
"' 	c #4A5051",
") 	c #4A5050",
"! 	c #495051",
"~ 	c #494F50",
"{ 	c #49504F",
"] 	c #4A5157",
"^ 	c #56689E",
"/ 	c #617DD1",
"( 	c #6886E9",
"_ 	c #6B8BF2",
": 	c #627CD0",
"< 	c #57689F",
"[ 	c #4A5057",
"} 	c #484F4F",
"| 	c #494F4E",
"1 	c #55679C",
"2 	c #6887EA",
"3 	c #6686EB",
"4 	c #5D7EE6",
"5 	c #5777DF",
"6 	c #5574DB",
"7 	c #5E7EE6",
"8 	c #6987EA",
"9 	c #474F4F",
"0 	c #484E4E",
"a 	c #475151",
"b 	c #5D75C1",
"c 	c #6989F1",
"d 	c #5979E1",
"e 	c #5272D9",
"f 	c #597AE1",
"g 	c #6A8AF1",
"h 	c #5E74C0",
"i 	c #485151",
"j 	c #474E4E",
"k 	c #5D74C1",
"l 	c #6687ED",
"m 	c #5475DB",
"n 	c #6887EE",
"o 	c #5D74BE",
"p 	c #474D4E",
"q 	c #54659C",
"r 	c #5474DB",
"s 	c #54669A",
"t 	c #474D4C",
"u 	c #464C4D",
"v 	c #464E52",
"w 	c #C7D1F3",
"x 	c #DDE3F8",
"y 	c #607DDC",
"z 	c #5A7AE2",
"A 	c #484E53",
"B 	c #464D4D",
"C 	c #454C4C",
"D 	c #464C4C",
"E 	c #54679D",
"F 	c #D8DFF6",
"G 	c #FFFFFF",
"H 	c #DFE5F8",
"I 	c #DCE2F7",
"J 	c #6687EC",
"K 	c #53669D",
"L 	c #454C4B",
"M 	c #607BD1",
"N 	c #5D7DE6",
"O 	c #5E7BDC",
"P 	c #DCE3F7",
"Q 	c #E0E6F8",
"R 	c #5E7EE7",
"S 	c #5F7BCE",
"T 	c #454B4B",
"U 	c #6887E9",
"V 	c #6785E8",
"W 	c #444B4B",
"X 	c #444A4B",
"Y 	c #6A8BF3",
"Z 	c #6B8CF2",
"` 	c #454B4A",
" .	c #444A4A",
"..	c #434A4A",
"+.	c #6C8BF3",
"@.	c #6B8BF1",
"#.	c #434A49",
"$.	c #6787E8",
"%.	c #44494A",
"&.	c #434949",
"*.	c #607BCE",
"=.	c #5F79CD",
"-.	c #424948",
";.	c #424848",
">.	c #424849",
",.	c #53649D",
"'.	c #D8DFF7",
").	c #6686EC",
"!.	c #52649B",
"~.	c #424847",
"{.	c #424A4E",
"].	c #C6D1F2",
"^.	c #44494F",
"/.	c #414747",
"(.	c #424747",
"_.	c #526399",
":.	c #6A89F1",
"<.	c #516297",
"[.	c #5C72BF",
"}.	c #5B72BD",
"|.	c #414949",
"1.	c #5B73BD",
"2.	c #5A73BD",
"3.	c #506398",
"4.	c #6786E9",
"5.	c #6587EC",
"6.	c #5D7EE7",
"7.	c #506296",
"8.	c #43484F",
"9.	c #51639C",
"0.	c #607ACF",
"a.	c #6886E8",
"b.	c #6A8BF2",
"c.	c #6079CD",
"d.	c #51639B",
"e.	c #41494D",
". . . . . . . . . . . . . . . . . . . . . . . . . . . . ",
"+ + + + + + + + + + + + + + + + + + + + + + + + + + + + ",
"+ + + + + + + + + + + + + + + + + + + + + + + + + + + + ",
"+ + + + + + + + + + + + + + + + + + + + + + + + + + + + ",
"@ @ @ + # $ + @ % + % + @ & @ + # $ + @ @ @ @ @ * + @ @ ",
"% % % = * % @ $ $ = * # % = % = * % @ $ % = % = $ % % % ",
"- - - - ; > = , ' ' > ; ) ! - - ; > = , ; = = ; = = - - ",
"! ! ! , ) , ! ! ) , ! ! ) , ! ! ) , ! ! ) , ! ! ) , ! ! ",
"~ ~ ~ { { , ~ ~ { ] ^ / ( _ _ ( : < [ ~ { , ~ ~ { , ~ ~ ",
"} } } | | } } } 1 2 3 4 5 6 6 5 7 3 8 1 | } } } | } } } ",
"9 9 9 0 0 } a b c d e e e e e e e e f g h i 9 9 0 } 9 9 ",
"j j j j j 0 k l 6 e e e e e e e e e e m n o j j j 0 j j ",
"p p p p p q c m e e e e e e e e e e e e r g s p p p p p ",
"t t t u v 2 f e e w x y e e e e y x w e e z 8 A u B t t ",
"C C C D E 3 e e e F G H y e e y H G I e e e J K D C C C ",
"L L L C M N e e e O P G Q y O P G H y e e e R S C C L L ",
"T T T T U 5 e e e e y H G H H G H y e e e e 5 V T W T T ",
"X X X W Y r e e e e e O P G G H y e e e e e 6 Z W ` X X ",
" . . ...+.m e e e e e O P G G Q y e e e e e m @... . . .",
"......#.U 5 e e e e y H G H H G H y e e e e 5 $.#.%.....",
"&.&.&.&.*.7 e e e O P G H y O P G Q y e e e N =.&.-.&.&.",
";.;.;.>.,.3 e e e '.G H y e e y H G I e e e ).!.>.;.;.;.",
"~.~.~.;.{.U f e e ].I y e e e e y I ].e e z U ^.;.;.~.~.",
"/././.(.(._.g r e e e e e e e e e e e e r :.<./.(.(././.",
"/./././././.[.n r e e e e e e e e e e r n }././././././.",
"/./././././.|.1.g z e e e e e e e e z :.2.|././././././.",
"/./././././././.3.4.5.6.5 m m 5 4 ).U 7././././././././.",
"/././././././././.8.9.0.a.b.b.a.c.d.e./././././././././.",
"/./././././././././././././././././././././././././././.",
"/./././././././././././././././././././././././././././.",
"/./././././././././././././././././././././././././././.",
"/./././././././././././././././././././././././././././.",
"/./././././././././././././././././././././././././././.",
"/./././././././././././././././././././././././././././.",
"/./././././././././././././././././././././././././././.",
"/./././././././././././././././././././././././././././."};
