/* XPM */
static char * close_active_xpm[] = {
"28 36 124 2",
"  	c None",
". 	c #313133",
"+ 	c #4B5252",
"@ 	c #4B5251",
"# 	c #4A5251",
"$ 	c #4A5152",
"% 	c #4B5151",
"& 	c #4A5252",
"* 	c #4B5152",
"= 	c #4A5151",
"- 	c #495151",
"; 	c #4A5150",
"> 	c #495150",
", 	c #495050",
"' 	c #4A5051",
") 	c #4A5050",
"! 	c #495051",
"~ 	c #494F50",
"{ 	c #49504F",
"] 	c #4A5157",
"^ 	c #56689E",
"/ 	c #617DD1",
"( 	c #6886E9",
"_ 	c #6B8BF2",
": 	c #627CD0",
"< 	c #57689F",
"[ 	c #4A5057",
"} 	c #484F4F",
"| 	c #494F4E",
"1 	c #55679C",
"2 	c #6887EA",
"3 	c #6686EB",
"4 	c #5D7EE6",
"5 	c #5777DF",
"6 	c #5574DB",
"7 	c #5E7EE6",
"8 	c #6987EA",
"9 	c #474F4F",
"0 	c #484E4E",
"a 	c #475151",
"b 	c #5D75C1",
"c 	c #6989F1",
"d 	c #5979E1",
"e 	c #5272D9",
"f 	c #597AE1",
"g 	c #6A8AF1",
"h 	c #5E74C0",
"i 	c #485151",
"j 	c #474E4E",
"k 	c #5D74C1",
"l 	c #6687ED",
"m 	c #5475DB",
"n 	c #6887EE",
"o 	c #5D74BE",
"p 	c #474D4E",
"q 	c #54659C",
"r 	c #5474DB",
"s 	c #54669A",
"t 	c #474D4C",
"u 	c #464C4D",
"v 	c #464E52",
"w 	c #5A7AE2",
"x 	c #484E53",
"y 	c #464D4D",
"z 	c #454C4C",
"A 	c #464C4C",
"B 	c #54679D",
"C 	c #6687EC",
"D 	c #53669D",
"E 	c #454C4B",
"F 	c #607BD1",
"G 	c #5D7DE6",
"H 	c #5E7EE7",
"I 	c #5F7BCE",
"J 	c #454B4B",
"K 	c #6887E9",
"L 	c #6785E8",
"M 	c #444B4B",
"N 	c #444A4B",
"O 	c #6A8BF3",
"P 	c #6B8CF2",
"Q 	c #454B4A",
"R 	c #444A4A",
"S 	c #434A4A",
"T 	c #6C8BF3",
"U 	c #6B8BF1",
"V 	c #434A49",
"W 	c #6787E8",
"X 	c #44494A",
"Y 	c #434949",
"Z 	c #607BCE",
"` 	c #5F79CD",
" .	c #424948",
"..	c #424848",
"+.	c #424849",
"@.	c #53649D",
"#.	c #6686EC",
"$.	c #52649B",
"%.	c #424847",
"&.	c #424A4E",
"*.	c #44494F",
"=.	c #414747",
"-.	c #424747",
";.	c #526399",
">.	c #6A89F1",
",.	c #516297",
"'.	c #5C72BF",
").	c #5B72BD",
"!.	c #414949",
"~.	c #5B73BD",
"{.	c #5A73BD",
"].	c #506398",
"^.	c #6786E9",
"/.	c #6587EC",
"(.	c #5D7EE7",
"_.	c #506296",
":.	c #43484F",
"<.	c #51639C",
"[.	c #607ACF",
"}.	c #6886E8",
"|.	c #6A8BF2",
"1.	c #6079CD",
"2.	c #51639B",
"3.	c #41494D",
". . . . . . . . . . . . . . . . . . . . . . . . . . . . ",
"+ + + + + + + + + + + + + + + + + + + + + + + + + + + + ",
"+ + + + + + + + + + + + + + + + + + + + + + + + + + + + ",
"+ + + + + + + + + + + + + + + + + + + + + + + + + + + + ",
"@ @ @ + # $ + @ % + % + @ & @ + # $ + @ @ @ @ @ * + @ @ ",
"% % % = * % @ $ $ = * # % = % = * % @ $ % = % = $ % % % ",
"- - - - ; > = , ' ' > ; ) ! - - ; > = , ; = = ; = = - - ",
"! ! ! , ) , ! ! ! , ! ! ) , ! ! ) , ! ! ) , ! ! ) , ! ! ",
"~ ~ ~ { { , ~ ~ { ] ^ / ( _ _ ( : < [ ~ { , ~ ~ { , ~ ~ ",
"} } } | | } } } 1 2 3 4 5 6 6 5 7 3 8 1 | } } } | } } } ",
"9 9 9 0 0 } a b c d e e e e e e e e f g h i 9 9 0 } 9 9 ",
"j j j j j 0 k l 6 e e e e e e e e e e m n o j j j 0 j j ",
"p p p p p q c m e e e e e e e e e e e e r g s p p p p p ",
"t t t u v 2 f e e e e e e e e e e e e e e w 8 x u y t t ",
"z z z A B 3 e e e e e e e e e e e e e e e e C D A z z z ",
"E E E z F G e e e e e e e e e e e e e e e e H I z z E E ",
"J J J J K 5 e e e e e e e e e e e e e e e e 5 L J M J J ",
"N N N M O r e e e e e e e e e e e e e e e e 6 P M Q N N ",
"R R R S T m e e e e e e e e e e e e e e e e m U S R R R ",
"S S S V K 5 e e e e e e e e e e e e e e e e 5 W V X S S ",
"Y Y Y Y Z 7 e e e e e e e e e e e e e e e e G ` Y  .Y Y ",
"......+.@.3 e e e e e e e e e e e e e e e e #.$.+.......",
"%.%.%...&.K f e e e e e e e e e e e e e e w K *.....%.%.",
"=.=.=.-.-.;.g r e e e e e e e e e e e e r >.,.=.-.-.=.=.",
"=.=.=.=.=.=.'.n r e e e e e e e e e e r n ).=.=.=.=.=.=.",
"=.=.=.=.=.=.!.~.g w e e e e e e e e w >.{.!.=.=.=.=.=.=.",
"=.=.=.=.=.=.=.=.].^./.(.5 m m 5 4 #.K _.=.=.=.=.=.=.=.=.",
"=.=.=.=.=.=.=.=.=.:.<.[.}.|.|.}.1.2.3.=.=.=.=.=.=.=.=.=.",
"=.=.=.=.=.=.=.=.=.=.=.=.=.=.=.=.=.=.=.=.=.=.=.=.=.=.=.=.",
"=.=.=.=.=.=.=.=.=.=.=.=.=.=.=.=.=.=.=.=.=.=.=.=.=.=.=.=.",
"=.=.=.=.=.=.=.=.=.=.=.=.=.=.=.=.=.=.=.=.=.=.=.=.=.=.=.=.",
"=.=.=.=.=.=.=.=.=.=.=.=.=.=.=.=.=.=.=.=.=.=.=.=.=.=.=.=.",
"=.=.=.=.=.=.=.=.=.=.=.=.=.=.=.=.=.=.=.=.=.=.=.=.=.=.=.=.",
"=.=.=.=.=.=.=.=.=.=.=.=.=.=.=.=.=.=.=.=.=.=.=.=.=.=.=.=.",
"=.=.=.=.=.=.=.=.=.=.=.=.=.=.=.=.=.=.=.=.=.=.=.=.=.=.=.=.",
"=.=.=.=.=.=.=.=.=.=.=.=.=.=.=.=.=.=.=.=.=.=.=.=.=.=.=.=."};
