/* XPM */
static char * close_pressed_xpm[] = {
"28 36 171 2",
"  	c #323A3F",
". 	c #3F4C53",
"+ 	c #3F4C52",
"@ 	c #3E4C53",
"# 	c #3F4B53",
"$ 	c #3E4C52",
"% 	c #3E4B52",
"& 	c #3F4B52",
"* 	c #3E4B53",
"= 	c #3E4A52",
"- 	c #3D4A52",
"; 	c #3D4B51",
"> 	c #3D4B52",
", 	c #3E4B51",
"' 	c #3E4A51",
") 	c #3F4A50",
"! 	c #404950",
"~ 	c #3F4951",
"{ 	c #3D4A51",
"] 	c #3E4950",
"^ 	c #414A56",
"/ 	c #50669E",
"( 	c #5F7CD1",
"_ 	c #6785E9",
": 	c #6A8BF2",
"< 	c #607BD0",
"[ 	c #51659F",
"} 	c #4F649C",
"| 	c #6787EA",
"1 	c #6586EB",
"2 	c #5D7EE6",
"3 	c #5777DF",
"4 	c #5574DB",
"5 	c #5E7EE6",
"6 	c #6887EA",
"7 	c #50649C",
"8 	c #3D4A50",
"9 	c #3C4A51",
"0 	c #3D4951",
"a 	c #3F4B51",
"b 	c #5B73C1",
"c 	c #6989F1",
"d 	c #5979E1",
"e 	c #5272D9",
"f 	c #597AE1",
"g 	c #6A8AF1",
"h 	c #5B72C0",
"i 	c #3C4951",
"j 	c #3C4950",
"k 	c #3E494F",
"l 	c #5A73C1",
"m 	c #6687ED",
"n 	c #5475DB",
"o 	c #6887EE",
"p 	c #5A73BE",
"q 	c #3C4A50",
"r 	c #3D4950",
"s 	c #3D484F",
"t 	c #4F639C",
"u 	c #5474DB",
"v 	c #4F639A",
"w 	c #3B4950",
"x 	c #3C494F",
"y 	c #6786EA",
"z 	c #C7D1F3",
"A 	c #DDE3F8",
"B 	c #607DDC",
"C 	c #5A7AE2",
"D 	c #3F4954",
"E 	c #3C4850",
"F 	c #3C484F",
"G 	c #4F659D",
"H 	c #D8DFF6",
"I 	c #FFFFFF",
"J 	c #DFE5F8",
"K 	c #DCE2F7",
"L 	c #6587EC",
"M 	c #4F639D",
"N 	c #3B494F",
"O 	c #3B4850",
"P 	c #3B484F",
"Q 	c #3D474E",
"R 	c #5F7AD1",
"S 	c #5D7DE6",
"T 	c #5E7BDC",
"U 	c #DCE3F7",
"V 	c #E0E6F8",
"W 	c #5E7EE7",
"X 	c #5E7ACF",
"Y 	c #3C474E",
"Z 	c #3D474D",
"` 	c #6887E9",
" .	c #6785E8",
"..	c #3A484F",
"+.	c #3C464D",
"@.	c #6A8BF3",
"#.	c #6A8CF2",
"$.	c #3B474F",
"%.	c #3A484E",
"&.	c #3D474C",
"*.	c #6B8BF3",
"=.	c #6A8BF1",
"-.	c #3A474E",
";.	c #3A474F",
">.	c #3B474E",
",.	c #3C464C",
"'.	c #6787E8",
").	c #3A474D",
"!.	c #3B464C",
"~.	c #5F7BCE",
"{.	c #5D78CD",
"].	c #39464E",
"^.	c #3B464D",
"/.	c #50639E",
"(.	c #D8DFF7",
"_.	c #6686EC",
":.	c #4F629C",
"<.	c #39474E",
"[.	c #39464D",
"}.	c #3A464D",
"|.	c #39474D",
"1.	c #3B4751",
"2.	c #C6D1F2",
"3.	c #3D4652",
"4.	c #3A454C",
"5.	c #4E629B",
"6.	c #698AF1",
"7.	c #6A89F1",
"8.	c #4E6198",
"9.	c #39454D",
"0.	c #5A71C0",
"a.	c #5971BD",
"b.	c #38464D",
"c.	c #39454C",
"d.	c #38464C",
"e.	c #3A464C",
"f.	c #5972BE",
"g.	c #5872BD",
"h.	c #39464C",
"i.	c #38454C",
"j.	c #38454D",
"k.	c #39454B",
"l.	c #4C6299",
"m.	c #6786E9",
"n.	c #5D7EE7",
"o.	c #4C6197",
"p.	c #3A454B",
"q.	c #39444B",
"r.	c #3C4551",
"s.	c #4E629C",
"t.	c #6786E8",
"u.	c #5E79CD",
"v.	c #3A4650",
"w.	c #37454C",
"x.	c #37444B",
"y.	c #37454B",
"z.	c #38444A",
"A.	c #39434A",
"B.	c #394349",
"C.	c #39444A",
"D.	c #38454B",
"E.	c #38444C",
"F.	c #37444C",
"G.	c #38444B",
"H.	c #37444A",
"I.	c #37434B",
"J.	c #37434A",
"K.	c #36444B",
"L.	c #36444A",
"M.	c #36434B",
"N.	c #36434A",
"                                                        ",
". . . . . . . . . . . . . . . . . . . . . . . . . . . . ",
". . . + . . . + . . . . . @ . # $ # . . + . . + . + . + ",
"# @ . . # @ . . % + & . @ & & & % $ . + # & & @ # & . . ",
"% + @ % % + @ % $ & % + & @ $ # % # . & % & @ & $ % $ + ",
"% % % % % % % % % % % % % % * % % % % % % % % % % % % % ",
"% % = = % % = = % = % - % % ; ; % = > % > = , % % % % , ",
", = ; > , = ; > ; - ' ) ! ! ! ! ~ ' - { ; - { { - % ; { ",
"- ' { { - ' { { ] ^ / ( _ : : _ < [ ^ ] - { ' { - { ; { ",
"{ { { { { { { ] } | 1 2 3 4 4 3 5 1 6 7 ] { { { { { { 8 ",
"9 0 8 8 9 0 a b c d e e e e e e e e f g h , 0 { i { i i ",
"j { j j j k l m 4 e e e e e e e e e e n o p k q i r r i ",
"j i j j s t c n e e e e e e e e e e e e u g v s j r j j ",
"w x x x - y f e e z A B e e e e B A z e e C 6 D E E j E ",
"x F E F G 1 e e e H I J B e e B J I K e e e L M F N F O ",
"F x P Q R S e e e T U I V B T U I J B e e e W X Y P P P ",
"P P P Z ` 3 e e e e B J I J J I J B e e e e 3  .Z P P P ",
"P ....+.@.u e e e e e T U I I J B e e e e e 4 #.+.P P P ",
"$.$.%.&.*.n e e e e e T U I I V B e e e e e n =.&.-.;.%.",
"%.>.-.,.` 3 e e e e B J I J J I J B e e e e 3 '.,.-.%.>.",
"-.-.).!.~.5 e e e T U I J B T U I V B e e e S {.!.-.-.-.",
").-.].^./.1 e e e (.I J B e e B J I K e e e _.:.!.-.<.[.",
"}.|.).|.1.` f e e 2.K B e e e e B K 2.e e C ` 3.].].].].",
"[.[.[.[.4.5.6.u e e e e e e e e e e e e u 7.8.4.[.[.[.[.",
"[.9.9.[.[.4.0.o u e e e e e e e e e e u o a.4.9.[.b.c.[.",
"b.b.9.d.b.d.e.f.6.C e e e e e e e e C 7.g.e.h.b.i.i.b.j.",
"j.h.j.i.j.h.i.k.l.m.L n.3 n n 3 2 _.` o.p.d.i.i.d.c.j.i.",
"i.i.i.i.i.i.i.i.q.r.s.X t.: : t.u.s.v.q.i.i.i.i.i.i.i.i.",
"w.i.x.y.w.i.x.y.w.i.z.A.B.B.B.B.C.z.i.i.D.i.E.D.i.i.i.w.",
"F.y.w.i.F.y.w.i.w.i.D.G.i.E.y.i.w.G.y.i.F.x.i.y.x.G.x.F.",
"y.x.F.x.y.x.F.x.F.x.G.x.x.x.x.x.F.x.x.F.G.y.y.x.G.x.x.x.",
"x.x.x.x.x.x.x.x.x.x.x.x.H.x.x.I.x.H.x.x.I.J.x.H.x.x.x.I.",
"J.J.K.H.J.J.K.H.H.L.H.M.L.x.J.I.I.x.x.L.I.N.H.K.N.K.x.J.",
"K.N.J.L.K.N.J.L.I.I.J.M.N.K.M.J.H.M.M.N.N.K.L.N.J.x.N.N.",
"N.N.N.N.N.N.N.N.L.N.L.N.N.N.N.N.N.K.N.N.N.N.N.N.L.N.M.N.",
"N.N.N.N.N.N.N.N.N.N.N.N.N.N.N.N.N.N.N.N.N.N.N.N.N.N.N.N."};
