/* XPM */
static char * close_active_xpm[] = {
"28 36 101 2",
"  	c None",
". 	c #323A3F",
"+ 	c #414B51",
"@ 	c #414B50",
"# 	c #414A50",
"$ 	c #404A50",
"% 	c #404950",
"& 	c #3F494F",
"* 	c #414A56",
"= 	c #50669E",
"- 	c #5F7CD1",
"; 	c #6785E9",
"> 	c #6A8BF2",
", 	c #607BD0",
"' 	c #51659F",
") 	c #4F649C",
"! 	c #6787EA",
"~ 	c #6586EB",
"{ 	c #5D7EE6",
"] 	c #5777DF",
"^ 	c #5574DB",
"/ 	c #5E7EE6",
"( 	c #6887EA",
"_ 	c #50649C",
": 	c #3F4B51",
"< 	c #5B73C1",
"[ 	c #6989F1",
"} 	c #5979E1",
"| 	c #5272D9",
"1 	c #597AE1",
"2 	c #6A8AF1",
"3 	c #5B72C0",
"4 	c #3E494E",
"5 	c #5A73C1",
"6 	c #6687ED",
"7 	c #5475DB",
"8 	c #6887EE",
"9 	c #5A73BE",
"0 	c #3E484E",
"a 	c #4F639C",
"b 	c #5474DB",
"c 	c #4F639A",
"d 	c #3D484D",
"e 	c #3D4A52",
"f 	c #6786EA",
"g 	c #5A7AE2",
"h 	c #3F4954",
"i 	c #3D474D",
"j 	c #4F659D",
"k 	c #6587EC",
"l 	c #4F639D",
"m 	c #3D474E",
"n 	c #5F7AD1",
"o 	c #5D7DE6",
"p 	c #5E7EE7",
"q 	c #5E7ACF",
"r 	c #6887E9",
"s 	c #6785E8",
"t 	c #3C464D",
"u 	c #6A8BF3",
"v 	c #6A8CF2",
"w 	c #3D474C",
"x 	c #6B8BF3",
"y 	c #6A8BF1",
"z 	c #3C464C",
"A 	c #6787E8",
"B 	c #3B464B",
"C 	c #5F7BCE",
"D 	c #5D78CD",
"E 	c #3C454B",
"F 	c #50639E",
"G 	c #6686EC",
"H 	c #4F629C",
"I 	c #3B454B",
"J 	c #3B4751",
"K 	c #3D4652",
"L 	c #4E629B",
"M 	c #698AF1",
"N 	c #6A89F1",
"O 	c #4E6198",
"P 	c #5A71C0",
"Q 	c #5971BD",
"R 	c #3A444A",
"S 	c #3A464C",
"T 	c #5972BE",
"U 	c #5872BD",
"V 	c #3A454A",
"W 	c #4C6299",
"X 	c #6786E9",
"Y 	c #5D7EE7",
"Z 	c #4C6197",
"` 	c #3C4551",
" .	c #4E629C",
"..	c #6786E8",
"+.	c #5E79CD",
"@.	c #3A4650",
"#.	c #394349",
"$.	c #394449",
"%.	c #384348",
"&.	c #394348",
"*.	c #384248",
". . . . . . . . . . . . . . . . . . . . . . . . . . . . ",
"+ + + + + + + + + + + + + + + + + + + + + + + + + + + + ",
"+ + + + + + + + + + + + + + + + + + + + + + + + + + + + ",
"@ @ @ @ @ @ @ @ @ @ @ @ @ @ @ @ @ @ @ @ @ @ @ @ @ @ @ @ ",
"# # # # # # # # # # # # # # # # # # # # # # # # # # # # ",
"$ $ $ $ $ $ $ $ $ $ $ $ $ $ $ $ $ $ $ $ $ $ $ $ $ $ $ $ ",
"$ $ $ $ $ $ $ $ $ $ $ $ $ $ $ $ $ $ $ $ $ $ $ $ $ $ $ $ ",
"% % % % % % % % % % % % % % % % % % % % % % % % % % % % ",
"& & & & & & & & & * = - ; > > ; , ' * & & & & & & & & & ",
"& & & & & & & & ) ! ~ { ] ^ ^ ] / ~ ( _ & & & & & & & & ",
"& & & & & & : < [ } | | | | | | | | 1 2 3 : & & & & & & ",
"4 4 4 4 4 4 5 6 ^ | | | | | | | | | | 7 8 9 4 4 4 4 4 4 ",
"0 0 0 0 0 a [ 7 | | | | | | | | | | | | b 2 c 0 0 0 0 0 ",
"d d d d e f 1 | | | | | | | | | | | | | | g ( h d d d d ",
"i i i i j ~ | | | | | | | | | | | | | | | | k l i i i i ",
"m m m m n o | | | | | | | | | | | | | | | | p q m m m m ",
"i i i i r ] | | | | | | | | | | | | | | | | ] s i i i i ",
"t t t t u b | | | | | | | | | | | | | | | | ^ v t t t t ",
"w w w w x 7 | | | | | | | | | | | | | | | | 7 y w w w w ",
"z z z z r ] | | | | | | | | | | | | | | | | ] A z z z z ",
"B B B B C / | | | | | | | | | | | | | | | | o D B B B B ",
"E E E E F ~ | | | | | | | | | | | | | | | | G H E E E E ",
"I I I I J r 1 | | | | | | | | | | | | | | g r K I I I I ",
"I I I I I L M b | | | | | | | | | | | | b N O I I I I I ",
"I I I I I I P 8 b | | | | | | | | | | b 8 Q I I I I I I ",
"R R R R R R S T M g | | | | | | | | g N U S R R R R R R ",
"V V V V V V V V W X k Y ] 7 7 ] { G r Z V V V V V V V V ",
"R R R R R R R R R `  .q ..> > ..+. .@.R R R R R R R R R ",
"#.#.#.#.#.#.#.#.#.#.#.#.#.#.#.#.#.#.#.#.#.#.#.#.#.#.#.#.",
"$.$.$.$.$.$.$.$.$.$.$.$.$.$.$.$.$.$.$.$.$.$.$.$.$.$.$.$.",
"#.#.#.#.#.#.#.#.#.#.#.#.#.#.#.#.#.#.#.#.#.#.#.#.#.#.#.#.",
"#.#.#.#.#.#.#.#.#.#.#.#.#.#.#.#.#.#.#.#.#.#.#.#.#.#.#.#.",
"%.%.%.%.%.%.%.%.%.%.%.%.%.%.%.%.%.%.%.%.%.%.%.%.%.%.%.%.",
"&.&.&.&.&.&.&.&.&.&.&.&.&.&.&.&.&.&.&.&.&.&.&.&.&.&.&.&.",
"*.*.*.*.*.*.*.*.*.*.*.*.*.*.*.*.*.*.*.*.*.*.*.*.*.*.*.*.",
"*.*.*.*.*.*.*.*.*.*.*.*.*.*.*.*.*.*.*.*.*.*.*.*.*.*.*.*."};
