/* XPM */
static char * close_pressed_xpm[] = {
"28 36 113 2",
"  	c #323A3F",
". 	c #414B51",
"+ 	c #414B50",
"@ 	c #414A50",
"# 	c #404A50",
"$ 	c #404950",
"% 	c #3F494F",
"& 	c #434B5C",
"* 	c #627CC3",
"= 	c #7493EF",
"- 	c #7C99FB",
"; 	c #7E9BFD",
"> 	c #7592EF",
", 	c #637AC4",
"' 	c #6079C1",
") 	c #7795F6",
"! 	c #6686E9",
"~ 	c #5B7AE0",
"{ 	c #5675DC",
"] 	c #6685E9",
"^ 	c #7694F6",
"/ 	c #7D99FB",
"( 	c #6278C0",
"_ 	c #414D53",
": 	c #708AE4",
"< 	c #7B99FC",
"[ 	c #5F7EE3",
"} 	c #5272D9",
"| 	c #5E7EE3",
"1 	c #7B9AFC",
"2 	c #708AE3",
"3 	c #3E494E",
"4 	c #7794F8",
"5 	c #5676DC",
"6 	c #7895F9",
"7 	c #6F8AE2",
"8 	c #3E484E",
"9 	c #6078C1",
"0 	c #7C9AFC",
"a 	c #6177BE",
"b 	c #3D484D",
"c 	c #404C57",
"d 	c #C7D1F3",
"e 	c #DDE3F8",
"f 	c #607DDC",
"g 	c #5F7FE4",
"h 	c #7D9AFB",
"i 	c #414A5A",
"j 	c #3D474D",
"k 	c #617BC3",
"l 	c #D8DFF6",
"m 	c #FFFFFF",
"n 	c #DFE5F8",
"o 	c #DCE2F7",
"p 	c #7795F7",
"q 	c #6179C2",
"r 	c #3D474E",
"s 	c #7591F0",
"t 	c #6585E9",
"u 	c #5E7BDC",
"v 	c #DCE3F7",
"w 	c #E0E6F8",
"x 	c #6686EA",
"y 	c #7391EE",
"z 	c #7B98FA",
"A 	c #3C464D",
"B 	c #7E9BFE",
"C 	c #5575DC",
"D 	c #7F9CFD",
"E 	c #3D474C",
"F 	c #7F9CFE",
"G 	c #7E9BFC",
"H 	c #3C464C",
"I 	c #7B9AFA",
"J 	c #3B464B",
"K 	c #7592EE",
"L 	c #7390ED",
"M 	c #3C454B",
"N 	c #6279C3",
"O 	c #D8DFF7",
"P 	c #7794F7",
"Q 	c #6279C1",
"R 	c #3B454B",
"S 	c #3E4956",
"T 	c #C6D1F2",
"U 	c #607EE4",
"V 	c #7E9AFB",
"W 	c #3F4759",
"X 	c #6177C0",
"Y 	c #7C99FC",
"Z 	c #5F77BD",
"` 	c #6F89E1",
" .	c #3A444A",
"..	c #3D484E",
"+.	c #6E8BE1",
"@.	c #3A454A",
"#.	c #5F77BE",
"$.	c #7C9AFB",
"%.	c #5A79E0",
"&.	c #6586E9",
"*.	c #5F76BC",
"=.	c #3E4658",
"-.	c #6078C2",
";.	c #7492EE",
">.	c #7B99FB",
",.	c #7490ED",
"'.	c #6179C1",
").	c #3D4855",
"!.	c #394349",
"~.	c #394449",
"{.	c #384348",
"].	c #394348",
"^.	c #384248",
"                                                        ",
". . . . . . . . . . . . . . . . . . . . . . . . . . . . ",
". . . . . . . . . . . . . . . . . . . . . . . . . . . . ",
"+ + + + + + + + + + + + + + + + + + + + + + + + + + + + ",
"@ @ @ @ @ @ @ @ @ @ @ @ @ @ @ @ @ @ @ @ @ @ @ @ @ @ @ @ ",
"# # # # # # # # # # # # # # # # # # # # # # # # # # # # ",
"# # # # # # # # # # # # # # # # # # # # # # # # # # # # ",
"$ $ $ $ $ $ $ $ $ $ $ $ $ $ $ $ $ $ $ $ $ $ $ $ $ $ $ $ ",
"% % % % % % % % % & * = - ; ; - > , & % % % % % % % % % ",
"% % % % % % % % ' - ) ! ~ { { ~ ] ^ / ( % % % % % % % % ",
"% % % % % % _ : < [ } } } } } } } } | 1 2 _ % % % % % % ",
"3 3 3 3 3 3 : 4 { } } } } } } } } } } 5 6 7 3 3 3 3 3 3 ",
"8 8 8 8 8 9 < 5 } } } } } } } } } } } } 5 0 a 8 8 8 8 8 ",
"b b b b c 0 | } } d e f } } } } f e d } } g h i b b b b ",
"j j j j k ) } } } l m n f } } f n m o } } } p q j j j j ",
"r r r r s t } } } u v m w f u v m n f } } } x y r r r r ",
"j j j j - ~ } } } } f n m n n m n f } } } } ~ z j j j j ",
"A A A A B C } } } } } u v m m n f } } } } } { D A A A A ",
"E E E E F 5 } } } } } u v m m w f } } } } } 5 G E E E E ",
"H H H H - ~ } } } } f n m n n m n f } } } } ~ I H H H H ",
"J J J J K ] } } } u v m n f u v m w f } } } ] L J J J J ",
"M M M M N ^ } } } O m n f } } f n m o } } } P Q M M M M ",
"R R R R S / | } } T o f } } } } f o T } } U V W R R R R ",
"R R R R R X 1 5 } } } } } } } } } } } } 5 Y Z R R R R R ",
"R R R R R R 2 6 5 } } } } } } } } } } 5 6 ` R R R R R R ",
" . . . . . ...7 0 g } } } } } } } } U Y +... . . . . . .",
"@.@.@.@.@.@.@.@.#.$.p x %.5 5 ~ &.P / *.@.@.@.@.@.@.@.@.",
" . . . . . . . . .=.-.;.>.; ; >.,.'.). . . . . . . . . .",
"!.!.!.!.!.!.!.!.!.!.!.!.!.!.!.!.!.!.!.!.!.!.!.!.!.!.!.!.",
"~.~.~.~.~.~.~.~.~.~.~.~.~.~.~.~.~.~.~.~.~.~.~.~.~.~.~.~.",
"!.!.!.!.!.!.!.!.!.!.!.!.!.!.!.!.!.!.!.!.!.!.!.!.!.!.!.!.",
"!.!.!.!.!.!.!.!.!.!.!.!.!.!.!.!.!.!.!.!.!.!.!.!.!.!.!.!.",
"{.{.{.{.{.{.{.{.{.{.{.{.{.{.{.{.{.{.{.{.{.{.{.{.{.{.{.{.",
"].].].].].].].].].].].].].].].].].].].].].].].].].].].].",
"^.^.^.^.^.^.^.^.^.^.^.^.^.^.^.^.^.^.^.^.^.^.^.^.^.^.^.^.",
"^.^.^.^.^.^.^.^.^.^.^.^.^.^.^.^.^.^.^.^.^.^.^.^.^.^.^.^."};
