/* XPM */
static char * close_pressed_xpm[] = {
"28 36 113 2",
"  	c None",
". 	c #323A3F",
"+ 	c #414B51",
"@ 	c #414B50",
"# 	c #414A50",
"$ 	c #404A50",
"% 	c #404950",
"& 	c #3F494F",
"* 	c #414A56",
"= 	c #50669E",
"- 	c #5F7CD1",
"; 	c #6785E9",
"> 	c #6A8BF2",
", 	c #607BD0",
"' 	c #51659F",
") 	c #4F649C",
"! 	c #6787EA",
"~ 	c #6586EB",
"{ 	c #5D7EE6",
"] 	c #5777DF",
"^ 	c #5574DB",
"/ 	c #5E7EE6",
"( 	c #6887EA",
"_ 	c #50649C",
": 	c #3F4B51",
"< 	c #5B73C1",
"[ 	c #6989F1",
"} 	c #5979E1",
"| 	c #5272D9",
"1 	c #597AE1",
"2 	c #6A8AF1",
"3 	c #5B72C0",
"4 	c #3E494E",
"5 	c #5A73C1",
"6 	c #6687ED",
"7 	c #5475DB",
"8 	c #6887EE",
"9 	c #5A73BE",
"0 	c #3E484E",
"a 	c #4F639C",
"b 	c #5474DB",
"c 	c #4F639A",
"d 	c #3D484D",
"e 	c #3D4A52",
"f 	c #6786EA",
"g 	c #C7D1F3",
"h 	c #DDE3F8",
"i 	c #607DDC",
"j 	c #5A7AE2",
"k 	c #3F4954",
"l 	c #3D474D",
"m 	c #4F659D",
"n 	c #D8DFF6",
"o 	c #FFFFFF",
"p 	c #DFE5F8",
"q 	c #DCE2F7",
"r 	c #6587EC",
"s 	c #4F639D",
"t 	c #3D474E",
"u 	c #5F7AD1",
"v 	c #5D7DE6",
"w 	c #5E7BDC",
"x 	c #DCE3F7",
"y 	c #E0E6F8",
"z 	c #5E7EE7",
"A 	c #5E7ACF",
"B 	c #6887E9",
"C 	c #6785E8",
"D 	c #3C464D",
"E 	c #6A8BF3",
"F 	c #6A8CF2",
"G 	c #3D474C",
"H 	c #6B8BF3",
"I 	c #6A8BF1",
"J 	c #3C464C",
"K 	c #6787E8",
"L 	c #3B464B",
"M 	c #5F7BCE",
"N 	c #5D78CD",
"O 	c #3C454B",
"P 	c #50639E",
"Q 	c #D8DFF7",
"R 	c #6686EC",
"S 	c #4F629C",
"T 	c #3B454B",
"U 	c #3B4751",
"V 	c #C6D1F2",
"W 	c #3D4652",
"X 	c #4E629B",
"Y 	c #698AF1",
"Z 	c #6A89F1",
"` 	c #4E6198",
" .	c #5A71C0",
"..	c #5971BD",
"+.	c #3A444A",
"@.	c #3A464C",
"#.	c #5972BE",
"$.	c #5872BD",
"%.	c #3A454A",
"&.	c #4C6299",
"*.	c #6786E9",
"=.	c #5D7EE7",
"-.	c #4C6197",
";.	c #3C4551",
">.	c #4E629C",
",.	c #6786E8",
"'.	c #5E79CD",
").	c #3A4650",
"!.	c #394349",
"~.	c #394449",
"{.	c #384348",
"].	c #394348",
"^.	c #384248",
". . . . . . . . . . . . . . . . . . . . . . . . . . . . ",
"+ + + + + + + + + + + + + + + + + + + + + + + + + + + + ",
"+ + + + + + + + + + + + + + + + + + + + + + + + + + + + ",
"@ @ @ @ @ @ @ @ @ @ @ @ @ @ @ @ @ @ @ @ @ @ @ @ @ @ @ @ ",
"# # # # # # # # # # # # # # # # # # # # # # # # # # # # ",
"$ $ $ $ $ $ $ $ $ $ $ $ $ $ $ $ $ $ $ $ $ $ $ $ $ $ $ $ ",
"$ $ $ $ $ $ $ $ $ $ $ $ $ $ $ $ $ $ $ $ $ $ $ $ $ $ $ $ ",
"% % % % % % % % % % % % % % % % % % % % % % % % % % % % ",
"& & & & & & & & & * = - ; > > ; , ' * & & & & & & & & & ",
"& & & & & & & & ) ! ~ { ] ^ ^ ] / ~ ( _ & & & & & & & & ",
"& & & & & & : < [ } | | | | | | | | 1 2 3 : & & & & & & ",
"4 4 4 4 4 4 5 6 ^ | | | | | | | | | | 7 8 9 4 4 4 4 4 4 ",
"0 0 0 0 0 a [ 7 | | | | | | | | | | | | b 2 c 0 0 0 0 0 ",
"d d d d e f 1 | | g h i | | | | i h g | | j ( k d d d d ",
"l l l l m ~ | | | n o p i | | i p o q | | | r s l l l l ",
"t t t t u v | | | w x o y i w x o p i | | | z A t t t t ",
"l l l l B ] | | | | i p o p p o p i | | | | ] C l l l l ",
"D D D D E b | | | | | w x o o p i | | | | | ^ F D D D D ",
"G G G G H 7 | | | | | w x o o y i | | | | | 7 I G G G G ",
"J J J J B ] | | | | i p o p p o p i | | | | ] K J J J J ",
"L L L L M / | | | w x o p i w x o y i | | | v N L L L L ",
"O O O O P ~ | | | Q o p i | | i p o q | | | R S O O O O ",
"T T T T U B 1 | | V q i | | | | i q V | | j B W T T T T ",
"T T T T T X Y b | | | | | | | | | | | | b Z ` T T T T T ",
"T T T T T T  .8 b | | | | | | | | | | b 8 ..T T T T T T ",
"+.+.+.+.+.+.@.#.Y j | | | | | | | | j Z $.@.+.+.+.+.+.+.",
"%.%.%.%.%.%.%.%.&.*.r =.] 7 7 ] { R B -.%.%.%.%.%.%.%.%.",
"+.+.+.+.+.+.+.+.+.;.>.A ,.> > ,.'.>.).+.+.+.+.+.+.+.+.+.",
"!.!.!.!.!.!.!.!.!.!.!.!.!.!.!.!.!.!.!.!.!.!.!.!.!.!.!.!.",
"~.~.~.~.~.~.~.~.~.~.~.~.~.~.~.~.~.~.~.~.~.~.~.~.~.~.~.~.",
"!.!.!.!.!.!.!.!.!.!.!.!.!.!.!.!.!.!.!.!.!.!.!.!.!.!.!.!.",
"!.!.!.!.!.!.!.!.!.!.!.!.!.!.!.!.!.!.!.!.!.!.!.!.!.!.!.!.",
"{.{.{.{.{.{.{.{.{.{.{.{.{.{.{.{.{.{.{.{.{.{.{.{.{.{.{.{.",
"].].].].].].].].].].].].].].].].].].].].].].].].].].].].",
"^.^.^.^.^.^.^.^.^.^.^.^.^.^.^.^.^.^.^.^.^.^.^.^.^.^.^.^.",
"^.^.^.^.^.^.^.^.^.^.^.^.^.^.^.^.^.^.^.^.^.^.^.^.^.^.^.^."};
