/* XPM */
static char * stick_toggled_prelight_xpm[] = {
"24 36 152 2",
"  	c #323A3F",
". 	c #3F4C53",
"+ 	c #3F4C52",
"@ 	c #3E4C53",
"# 	c #3F4B53",
"$ 	c #3E4C52",
"% 	c #3E4B52",
"& 	c #3F4B52",
"* 	c #3E4B53",
"= 	c #3E4A52",
"- 	c #404A50",
"; 	c #353A3A",
"> 	c #181A1A",
", 	c #0C0C0C",
"' 	c #0A0A0A",
") 	c #3D4B51",
"! 	c #131414",
"~ 	c #3C4346",
"{ 	c #434B4D",
"] 	c #454D50",
"^ 	c #3D4A51",
"/ 	c #32393D",
"( 	c #3D4548",
"_ 	c #3A4245",
": 	c #3D4448",
"< 	c #3D4A50",
"[ 	c #3B4246",
"} 	c #3B4245",
"| 	c #3C4950",
"1 	c #394043",
"2 	c #394044",
"3 	c #3A4044",
"4 	c #3A4043",
"5 	c #3D4950",
"6 	c #373E42",
"7 	c #373E41",
"8 	c #373D41",
"9 	c #525555",
"0 	c #B9B9B9",
"a 	c #E6E6E6",
"b 	c #FCFCFC",
"c 	c #373D42",
"d 	c #3C494F",
"e 	c #353C3F",
"f 	c #353B3F",
"g 	c #8E8F8F",
"h 	c #E0E0E0",
"i 	c #D2D2D2",
"j 	c #929494",
"k 	c #4D5050",
"l 	c #939394",
"m 	c #3C4850",
"n 	c #333A3D",
"o 	c #33393D",
"p 	c #333A3C",
"q 	c #4F5252",
"r 	c #B8B9B9",
"s 	c #3B494F",
"t 	c #3B484F",
"u 	c #31373B",
"v 	c #6A6C6D",
"w 	c #C7C7C7",
"x 	c #F4F4F4",
"y 	c #2F3539",
"z 	c #2F3538",
"A 	c #919292",
"B 	c #3A484F",
"C 	c #2D3336",
"D 	c #2C3337",
"E 	c #474B4B",
"F 	c #3A484E",
"G 	c #2A3135",
"H 	c #2A3134",
"I 	c #2B3134",
"J 	c #464A4A",
"K 	c #3A474E",
"L 	c #292F32",
"M 	c #282F32",
"N 	c #909191",
"O 	c #C6C7C7",
"P 	c #3A474D",
"Q 	c #262D30",
"R 	c #272D2F",
"S 	c #272C30",
"T 	c #B7B7B7",
"U 	c #D1D1D1",
"V 	c #272D30",
"W 	c #676969",
"X 	c #C6C7C6",
"Y 	c #C6C6C7",
"Z 	c #39464E",
"` 	c #242A2D",
" .	c #474A4A",
"..	c #DFDFDF",
"+.	c #242B2D",
"@.	c #22292B",
"#.	c #22282B",
"$.	c #8A8B8B",
"%.	c #8F9090",
"&.	c #424545",
"*.	c #39464D",
"=.	c #202629",
"-.	c #464748",
";.	c #B6B7B7",
">.	c #FBFCFC",
",.	c #464848",
"'.	c #212629",
").	c #39454D",
"!.	c #1E2427",
"~.	c #1F2426",
"{.	c #1E2426",
"].	c #1F2427",
"^.	c #38464D",
"/.	c #1C2125",
"(.	c #1C2225",
"_.	c #1D2224",
":.	c #1C2224",
"<.	c #1D2225",
"[.	c #38454C",
"}.	c #38454D",
"|.	c #0B0C0C",
"1.	c #1A2022",
"2.	c #1B2023",
"3.	c #1B2123",
"4.	c #39454C",
"5.	c #171B1D",
"6.	c #1A1F22",
"7.	c #37444B",
"8.	c #2F363A",
"9.	c #0E0F0F",
"0.	c #151818",
"a.	c #171C1C",
"b.	c #191E1E",
"c.	c #37454C",
"d.	c #394449",
"e.	c #2F373A",
"f.	c #1A1B1B",
"g.	c #0C0D0D",
"h.	c #0B0B0B",
"i.	c #38444B",
"j.	c #37444C",
"k.	c #394349",
"l.	c #545A5A",
"m.	c #5D6262",
"n.	c #5E6363",
"o.	c #37444A",
"p.	c #37434B",
"q.	c #37434A",
"r.	c #36444B",
"s.	c #36444A",
"t.	c #36434B",
"u.	c #36434A",
"                                                ",
". . . . . . . . . . . . . . . . . . . . . . . . ",
". + . . . + . . . . . @ . # $ # . . + . . + . + ",
". . # @ . . % + & . @ & & & % $ . + # & & @ # & ",
"@ % % + @ % $ & % + & @ $ # % # . & % & @ & $ % ",
"% % % % % % % % % % % % * % % % % % % % % % % % ",
"= - ; > , ' ' ' ' ' ' ' ' ' ' ' ' ' ' , > ; - % ",
") ; ! ~ { ] ] ] ] ] ] ] ] ] ] ] ] ] ] { ~ ! ; % ",
"^ > / ( ( ( ( ( ( ( ( ( ( ( ( ( ( ( ( ( ( / > ^ ",
"^ , _ : : : : : : : : : : : : : : : : : : _ , ^ ",
"< ' [ [ [ [ [ [ [ } [ [ [ } [ } [ [ [ [ [ [ ' ^ ",
"| ' 1 2 2 3 1 2 2 2 1 2 4 1 2 1 1 1 3 2 2 1 ' 5 ",
"| ' 6 7 6 6 8 7 9 0 a b b a 0 9 c 8 6 6 7 6 ' 5 ",
"d ' e f e e f g h i j k k l i h g f e e f e ' m ",
"m ' n o p o q h r o o o p o p r h q o p o n ' s ",
"t ' u u u u r i u v w x x w v u i r u u u u ' t ",
"t ' y y y z a A z w b b b b w y A a z y y y ' t ",
"B ' C D C C b E C x b b b b x D E b C C D C ' t ",
"F ' G H H I b J I x b b b b x H J b I H H G ' K ",
"K ' L L M L a N L O b b b b O L N a L M L L ' K ",
"P ' Q Q R S T U V W X x x Y W Q U T S R Q Q ' K ",
"Z ' ` ` ` `  ...T ` +.` ` ` ` T .. .` ` ` ` ' K ",
"P ' @.@.#.#.#.$...U %.&.&.%.U ..$.#.#.#.@.@.' Z ",
"*.' =.=.=.=.=.=.-.;.a b >.a ;.,.'.=.=.=.=.=.' *.",
").' !.!.!.~.!.!.{.].].!.!.!.!.!.!.!.~.!.!.!.' ^.",
").' /.(.(._.:.(._.:./._._.:._.(.<.:._.(.(./.' [.",
"}.|.1.2.3.2.3.2.3.3.3.3.2.3.3.3.3.3.2.3.2.1.|.4.",
"[.> 5.6.6.6.6.6.6.6.6.6.6.6.6.6.6.6.6.6.6.5.> [.",
"7.8.9.0.a.b.b.b.b.b.b.b.b.b.b.b.b.b.b.a.0.9.8.[.",
"c.d.e.f.g.h.h.h.h.h.h.h.h.h.h.h.h.h.h.g.f.e.d.i.",
"j.k.k.l.m.n.n.n.n.n.n.n.n.n.n.n.n.n.n.m.l.k.k.7.",
"7.7.7.7.7.7.7.7.7.7.o.7.7.p.7.o.7.7.p.q.7.o.7.7.",
"r.o.q.q.r.o.o.s.o.t.s.7.q.p.p.7.7.s.p.u.o.r.u.r.",
"q.s.r.u.q.s.p.p.q.t.u.r.t.q.o.t.t.u.u.r.s.u.q.7.",
"u.u.u.u.u.u.s.u.s.u.u.u.u.u.u.r.u.u.u.u.u.u.s.u.",
"u.u.u.u.u.u.u.u.u.u.u.u.u.u.u.u.u.u.u.u.u.u.u.u."};
