/* XPM */
static char * close_prelight_xpm[] = {
"28 36 148 2",
"  	c None",
". 	c #313133",
"+ 	c #4B5252",
"@ 	c #4B5251",
"# 	c #4A5251",
"$ 	c #4A5152",
"% 	c #4B5151",
"& 	c #4A5252",
"* 	c #4B5152",
"= 	c #4A5151",
"- 	c #495151",
"; 	c #4A5150",
"> 	c #495150",
", 	c #495050",
"' 	c #4A5051",
") 	c #4A5050",
"! 	c #495051",
"~ 	c #494F50",
"{ 	c #49504F",
"] 	c #515150",
"^ 	c #A26D48",
"/ 	c #D6843D",
"( 	c #F19236",
"_ 	c #F99532",
": 	c #D6853C",
"< 	c #A16D48",
"[ 	c #515050",
"} 	c #484F4F",
"| 	c #494F4E",
"1 	c #9E6C48",
"2 	c #F29235",
"3 	c #F48F2F",
"4 	c #EE8927",
"5 	c #E78023",
"6 	c #E47D21",
"7 	c #EF8828",
"8 	c #F19234",
"9 	c #9E6C47",
"0 	c #474F4F",
"a 	c #484E4E",
"b 	c #49514F",
"c 	c #C57E41",
"d 	c #F89431",
"e 	c #EA8324",
"f 	c #E27B20",
"g 	c #F89432",
"h 	c #C47C40",
"i 	c #4A514F",
"j 	c #474E4E",
"k 	c #C57D40",
"l 	c #F69130",
"m 	c #E47E21",
"n 	c #F69230",
"o 	c #C57B40",
"p 	c #474D4E",
"q 	c #9E6B47",
"r 	c #9C6A47",
"s 	c #474D4C",
"t 	c #464C4D",
"u 	c #4C4F4D",
"v 	c #F29135",
"w 	c #F6D4B6",
"x 	c #F8E1CC",
"y 	c #E48531",
"z 	c #F5D4B6",
"A 	c #EA8325",
"B 	c #F29234",
"C 	c #4F4E4C",
"D 	c #464D4D",
"E 	c #454C4C",
"F 	c #464C4C",
"G 	c #A16C45",
"H 	c #FFFFFF",
"I 	c #FAE7D6",
"J 	c #F9E4D2",
"K 	c #F4912F",
"L 	c #9F6C45",
"M 	c #454C4B",
"N 	c #D7853B",
"O 	c #EE8827",
"P 	c #E4842F",
"Q 	c #F9E5D2",
"R 	c #FAE7D7",
"S 	c #EF8827",
"T 	c #D5833B",
"U 	c #454B4B",
"V 	c #F09134",
"W 	c #FAE9DA",
"X 	c #F08F34",
"Y 	c #444B4B",
"Z 	c #444A4B",
"` 	c #FA9632",
" .	c #F9E7D5",
"..	c #FAE9D9",
"+.	c #FA9532",
"@.	c #454B4A",
"#.	c #444A4A",
"$.	c #434A4A",
"%.	c #F99731",
"&.	c #E47D22",
"*.	c #FAE6D5",
"=.	c #F99432",
"-.	c #434A49",
";.	c #F09034",
">.	c #FAE8D9",
",.	c #F9E7D6",
"'.	c #EF9034",
").	c #44494A",
"!.	c #434949",
"~.	c #D58439",
"{.	c #D4823A",
"].	c #424948",
"^.	c #424848",
"/.	c #424849",
"(.	c #9F6942",
"_.	c #F9E1CD",
":.	c #F49130",
"<.	c #9E6942",
"[.	c #424847",
"}.	c #484A48",
"|.	c #F19133",
"1.	c #EB8425",
"2.	c #F29132",
"3.	c #4A4947",
"4.	c #414747",
"5.	c #424747",
"6.	c #9C6841",
"7.	c #996642",
"8.	c #C37B3C",
"9.	c #F5922F",
"0.	c #C3793C",
"a.	c #434947",
"b.	c #C4793C",
"c.	c #EA8425",
"d.	c #C2793B",
"e.	c #9A6842",
"f.	c #F19132",
"g.	c #EF8927",
"h.	c #E78123",
"i.	c #F09133",
"j.	c #996742",
"k.	c #4A4847",
"l.	c #9E6941",
"m.	c #D48339",
"n.	c #F19033",
"o.	c #F99431",
"p.	c #9D6841",
"q.	c #484947",
". . . . . . . . . . . . . . . . . . . . . . . . . . . . ",
"+ + + + + + + + + + + + + + + + + + + + + + + + + + + + ",
"+ + + + + + + + + + + + + + + + + + + + + + + + + + + + ",
"+ + + + + + + + + + + + + + + + + + + + + + + + + + + + ",
"@ @ @ + # $ + @ % + % + @ & @ + # $ + @ @ @ @ @ * + @ @ ",
"% % % = * % @ $ $ = * # % = % = * % @ $ % = % = $ % % % ",
"- - - - ; > = , ' ' > ; ) ! - - ; > = , ; = = ; = = - - ",
"! ! ! , , ) , ! ) > , , , ) ! , , ) , ! ! , , , ) , ! ! ",
"~ ~ ~ { , ~ ~ ~ ~ ] ^ / ( _ _ ( : < [ ~ { , ~ ~ { , ~ ~ ",
"} } } | } } } } 1 2 3 4 5 6 6 5 7 3 8 9 | } } } | } } } ",
"0 0 0 a } 0 b c d e f f f f f f f f e g h i 0 0 a } 0 0 ",
"j j j j a j k l 6 f f f f f f f f f f m n o j j j a j j ",
"p p p p p q d m f f f f f f f f f f f f 6 g r p p p p p ",
"s s s t u v e f f w x y f f f f y x z f f A B C t D s s ",
"E E E F G 3 f f f x H I y f f y I H J f f f K L F E E E ",
"M M M E N O f f f P Q H R y P Q H I y f f f S T E E M M ",
"U U U U V 5 f f f f P Q H W I H I y f f f f 5 X U Y U U ",
"Z Z Z Y ` 6 f f f f f P  .H H ..y f f f f f 6 +.Y @.Z Z ",
"#.#.#.$.%.&.f f f f f P *.H H W y f f f f f m =.$.#.#.#.",
"$.$.$.-.;.5 f f f f P Q H >.,.H R y f f f f 5 '.-.).$.$.",
"!.!.!.!.~.7 f f f P Q H I y P Q H R y f f f O {.!.].!.!.",
"^.^.^./.(.3 f f f _.H I y f f y I H J f f f :.<./.^.^.^.",
"[.[.[.^.}.|.e f f z J y f f f f y J z f f 1.2.3.^.^.[.[.",
"4.4.4.5.5.6.d 6 f f f f f f f f f f f f 6 d 7.4.5.5.4.4.",
"4.4.4.4.4.4.8.9.6 f f f f f f f f f f 6 9.0.4.4.4.4.4.4.",
"4.4.4.4.4.4.a.b.d A f f f f f f f f c.d d.a.4.4.4.4.4.4.",
"4.4.4.4.4.4.4.4.e.f.K g.h.m m 5 O :.i.j.4.4.4.4.4.4.4.4.",
"4.4.4.4.4.4.4.4.4.k.l.m.n.o.o.n.m.p.q.4.4.4.4.4.4.4.4.4.",
"4.4.4.4.4.4.4.4.4.4.4.4.4.4.4.4.4.4.4.4.4.4.4.4.4.4.4.4.",
"4.4.4.4.4.4.4.4.4.4.4.4.4.4.4.4.4.4.4.4.4.4.4.4.4.4.4.4.",
"4.4.4.4.4.4.4.4.4.4.4.4.4.4.4.4.4.4.4.4.4.4.4.4.4.4.4.4.",
"4.4.4.4.4.4.4.4.4.4.4.4.4.4.4.4.4.4.4.4.4.4.4.4.4.4.4.4.",
"4.4.4.4.4.4.4.4.4.4.4.4.4.4.4.4.4.4.4.4.4.4.4.4.4.4.4.4.",
"4.4.4.4.4.4.4.4.4.4.4.4.4.4.4.4.4.4.4.4.4.4.4.4.4.4.4.4.",
"4.4.4.4.4.4.4.4.4.4.4.4.4.4.4.4.4.4.4.4.4.4.4.4.4.4.4.4.",
"4.4.4.4.4.4.4.4.4.4.4.4.4.4.4.4.4.4.4.4.4.4.4.4.4.4.4.4."};
