/* XPM */
static char * close_active_xpm[] = {
"28 36 131 2",
"  	c None",
". 	c #313133",
"+ 	c #4B5252",
"@ 	c #4B5251",
"# 	c #4A5251",
"$ 	c #4A5152",
"% 	c #4B5151",
"& 	c #4A5252",
"* 	c #4B5152",
"= 	c #4A5151",
"- 	c #495151",
"; 	c #4A5150",
"> 	c #495150",
", 	c #495050",
"' 	c #4A5051",
") 	c #4A5050",
"! 	c #495051",
"~ 	c #494F50",
"{ 	c #49504F",
"] 	c #515150",
"^ 	c #A26D48",
"/ 	c #D6843D",
"( 	c #F19236",
"_ 	c #F99532",
": 	c #D6853C",
"< 	c #A16D48",
"[ 	c #515050",
"} 	c #484F4F",
"| 	c #494F4E",
"1 	c #9E6C48",
"2 	c #F29235",
"3 	c #F48F2F",
"4 	c #EE8927",
"5 	c #E78023",
"6 	c #E47D21",
"7 	c #EF8828",
"8 	c #F19234",
"9 	c #9E6C47",
"0 	c #474F4F",
"a 	c #484E4E",
"b 	c #49514F",
"c 	c #C57E41",
"d 	c #F89431",
"e 	c #EA8324",
"f 	c #E27B20",
"g 	c #F89432",
"h 	c #C47C40",
"i 	c #4A514F",
"j 	c #474E4E",
"k 	c #C57D40",
"l 	c #F69130",
"m 	c #E47E21",
"n 	c #F69230",
"o 	c #C57B40",
"p 	c #474D4E",
"q 	c #9E6B47",
"r 	c #9C6A47",
"s 	c #474D4C",
"t 	c #464C4D",
"u 	c #4C4F4D",
"v 	c #F29135",
"w 	c #EA8325",
"x 	c #F29234",
"y 	c #4F4E4C",
"z 	c #464D4D",
"A 	c #454C4C",
"B 	c #464C4C",
"C 	c #A16C45",
"D 	c #F4912F",
"E 	c #9F6C45",
"F 	c #454C4B",
"G 	c #D7853B",
"H 	c #EE8827",
"I 	c #EF8827",
"J 	c #D5833B",
"K 	c #454B4B",
"L 	c #F09134",
"M 	c #F08F34",
"N 	c #444B4B",
"O 	c #444A4B",
"P 	c #FA9632",
"Q 	c #FA9532",
"R 	c #454B4A",
"S 	c #444A4A",
"T 	c #434A4A",
"U 	c #F99731",
"V 	c #E47D22",
"W 	c #F99432",
"X 	c #434A49",
"Y 	c #F09034",
"Z 	c #EF9034",
"` 	c #44494A",
" .	c #434949",
"..	c #D58439",
"+.	c #D4823A",
"@.	c #424948",
"#.	c #424848",
"$.	c #424849",
"%.	c #9F6942",
"&.	c #F49130",
"*.	c #9E6942",
"=.	c #424847",
"-.	c #484A48",
";.	c #F19133",
">.	c #EB8425",
",.	c #F29132",
"'.	c #4A4947",
").	c #414747",
"!.	c #424747",
"~.	c #9C6841",
"{.	c #996642",
"].	c #C37B3C",
"^.	c #F5922F",
"/.	c #C3793C",
"(.	c #434947",
"_.	c #C4793C",
":.	c #EA8425",
"<.	c #C2793B",
"[.	c #9A6842",
"}.	c #F19132",
"|.	c #EF8927",
"1.	c #E78123",
"2.	c #F09133",
"3.	c #996742",
"4.	c #4A4847",
"5.	c #9E6941",
"6.	c #D48339",
"7.	c #F19033",
"8.	c #F99431",
"9.	c #9D6841",
"0.	c #484947",
". . . . . . . . . . . . . . . . . . . . . . . . . . . . ",
"+ + + + + + + + + + + + + + + + + + + + + + + + + + + + ",
"+ + + + + + + + + + + + + + + + + + + + + + + + + + + + ",
"+ + + + + + + + + + + + + + + + + + + + + + + + + + + + ",
"@ @ @ + # $ + @ % + % + @ & @ + # $ + @ @ @ @ @ * + @ @ ",
"% % % = * % @ $ $ = * # % = % = * % @ $ % = % = $ % % % ",
"- - - - ; > = , ' ' > ; ) ! - - ; > = , ; = = ; = = - - ",
"! ! ! , , ) , ! ) > , , , ) ! , , ) , ! ! , , , ) , ! ! ",
"~ ~ ~ { , ~ ~ ~ ~ ] ^ / ( _ _ ( : < [ ~ { , ~ ~ { , ~ ~ ",
"} } } | } } } } 1 2 3 4 5 6 6 5 7 3 8 9 | } } } | } } } ",
"0 0 0 a } 0 b c d e f f f f f f f f e g h i 0 0 a } 0 0 ",
"j j j j a j k l 6 f f f f f f f f f f m n o j j j a j j ",
"p p p p p q d m f f f f f f f f f f f f 6 g r p p p p p ",
"s s s t u v e f f f f f f f f f f f f f f w x y t z s s ",
"A A A B C 3 f f f f f f f f f f f f f f f f D E B A A A ",
"F F F A G H f f f f f f f f f f f f f f f f I J A A F F ",
"K K K K L 5 f f f f f f f f f f f f f f f f 5 M K N K K ",
"O O O N P 6 f f f f f f f f f f f f f f f f 6 Q N R O O ",
"S S S T U V f f f f f f f f f f f f f f f f m W T S S S ",
"T T T X Y 5 f f f f f f f f f f f f f f f f 5 Z X ` T T ",
" . . . ...7 f f f f f f f f f f f f f f f f H +. .@. . .",
"#.#.#.$.%.3 f f f f f f f f f f f f f f f f &.*.$.#.#.#.",
"=.=.=.#.-.;.e f f f f f f f f f f f f f f >.,.'.#.#.=.=.",
").).).!.!.~.d 6 f f f f f f f f f f f f 6 d {.).!.!.).).",
").).).).).).].^.6 f f f f f f f f f f 6 ^./.).).).).).).",
").).).).).).(._.d w f f f f f f f f :.d <.(.).).).).).).",
").).).).).).).).[.}.D |.1.m m 5 H &.2.3.).).).).).).).).",
").).).).).).).).).4.5.6.7.8.8.7.6.9.0.).).).).).).).).).",
").).).).).).).).).).).).).).).).).).).).).).).).).).).).",
").).).).).).).).).).).).).).).).).).).).).).).).).).).).",
").).).).).).).).).).).).).).).).).).).).).).).).).).).).",
").).).).).).).).).).).).).).).).).).).).).).).).).).).).",
").).).).).).).).).).).).).).).).).).).).).).).).).).).).",
").).).).).).).).).).).).).).).).).).).).).).).).).).).).",
").).).).).).).).).).).).).).).).).).).).).).).).).).).).",
").).).).).).).).).).).).).).).).).).).).).).).).).).).)."};
