/* XPM */
static char * close_prelight_xpm[] = {
"28 36 180 2",
"  	c #323A3F",
". 	c #3F4C53",
"+ 	c #3F4C52",
"@ 	c #3E4C53",
"# 	c #3F4B53",
"$ 	c #3E4C52",
"% 	c #3E4B52",
"& 	c #3F4B52",
"* 	c #3E4B53",
"= 	c #3E4A52",
"- 	c #3D4A52",
"; 	c #3D4B51",
"> 	c #3D4B52",
", 	c #3E4B51",
"' 	c #3E4A51",
") 	c #3F4A50",
"! 	c #404950",
"~ 	c #3F4951",
"{ 	c #3D4A51",
"] 	c #3E4950",
"^ 	c #474A4F",
"/ 	c #9F6B47",
"( 	c #D5833D",
"_ 	c #F19136",
": 	c #F99432",
"< 	c #D5843C",
"[ 	c #9E6A47",
"} 	c #9C6A48",
"| 	c #F19235",
"1 	c #F48F2F",
"2 	c #EE8927",
"3 	c #E78023",
"4 	c #E47D21",
"5 	c #EF8828",
"6 	c #F19234",
"7 	c #9B6947",
"8 	c #3D4A50",
"9 	c #3C4A51",
"0 	c #3D4951",
"a 	c #404B4F",
"b 	c #C47C41",
"c 	c #F89431",
"d 	c #EA8324",
"e 	c #E27B20",
"f 	c #F89432",
"g 	c #C37B41",
"h 	c #3C4951",
"i 	c #3C4950",
"j 	c #3E494F",
"k 	c #C47C40",
"l 	c #F59130",
"m 	c #E47E21",
"n 	c #F59230",
"o 	c #C37940",
"p 	c #3C4A50",
"q 	c #3D4950",
"r 	c #3D484F",
"s 	c #9C6947",
"t 	c #996847",
"u 	c #3B4950",
"v 	c #3C494F",
"w 	c #434A4D",
"x 	c #F19135",
"y 	c #F6D4B6",
"z 	c #F8E1CC",
"A 	c #E48531",
"B 	c #F5D4B6",
"C 	c #EA8325",
"D 	c #F29234",
"E 	c #45494D",
"F 	c #3C4850",
"G 	c #3C484F",
"H 	c #9F6A45",
"I 	c #FFFFFF",
"J 	c #FAE7D6",
"K 	c #F9E4D2",
"L 	c #F4912F",
"M 	c #9D6946",
"N 	c #3B494F",
"O 	c #3B4850",
"P 	c #3B484F",
"Q 	c #3D474E",
"R 	c #D7843C",
"S 	c #EE8827",
"T 	c #E4842F",
"U 	c #F9E5D2",
"V 	c #FAE7D7",
"W 	c #EF8827",
"X 	c #D5823D",
"Y 	c #3C474E",
"Z 	c #3D474D",
"` 	c #F09034",
" .	c #FAE9DA",
"..	c #F08F35",
"+.	c #3A484F",
"@.	c #3C464D",
"#.	c #FA9632",
"$.	c #F9E7D5",
"%.	c #FAE9D9",
"&.	c #FA9532",
"*.	c #3B474F",
"=.	c #3A484E",
"-.	c #3D474C",
";.	c #F99732",
">.	c #E47D22",
",.	c #FAE6D5",
"'.	c #3A474E",
").	c #3A474F",
"!.	c #3B474E",
"~.	c #3C464C",
"{.	c #FAE8D9",
"].	c #F9E7D6",
"^.	c #EF9034",
"/.	c #3A474D",
"(.	c #3B464C",
"_.	c #D5833A",
":.	c #D3823B",
"<.	c #39464E",
"[.	c #3B464D",
"}.	c #9E6844",
"|.	c #F9E1CD",
"1.	c #F49130",
"2.	c #9C6745",
"3.	c #39474E",
"4.	c #39464D",
"5.	c #3A464D",
"6.	c #39474D",
"7.	c #41474B",
"8.	c #F19134",
"9.	c #EB8425",
"0.	c #F19133",
"a.	c #44464B",
"b.	c #3A454C",
"c.	c #9A6744",
"d.	c #986545",
"e.	c #39454D",
"f.	c #C37A3F",
"g.	c #C2793F",
"h.	c #38464D",
"i.	c #39454C",
"j.	c #38464C",
"k.	c #3C464B",
"l.	c #C3783E",
"m.	c #EA8425",
"n.	c #C1783D",
"o.	c #39464C",
"p.	c #38454C",
"q.	c #38454D",
"r.	c #39454B",
"s.	c #996744",
"t.	c #F09133",
"u.	c #EF8927",
"v.	c #E78123",
"w.	c #F09134",
"x.	c #976644",
"y.	c #3A454B",
"z.	c #39444B",
"A.	c #43454A",
"B.	c #9D6843",
"C.	c #F19034",
"D.	c #9C6744",
"E.	c #40464A",
"F.	c #37454C",
"G.	c #37444B",
"H.	c #37454B",
"I.	c #38444A",
"J.	c #39434A",
"K.	c #394349",
"L.	c #39444A",
"M.	c #38454B",
"N.	c #38444C",
"O.	c #37444C",
"P.	c #38444B",
"Q.	c #37444A",
"R.	c #37434B",
"S.	c #37434A",
"T.	c #36444B",
"U.	c #36444A",
"V.	c #36434B",
"W.	c #36434A",
"                                                        ",
". . . . . . . . . . . . . . . . . . . . . . . . . . . . ",
". . . + . . . + . . . . . @ . # $ # . . + . . + . + . + ",
"# @ . . # @ . . % + & . @ & & & % $ . + # & & @ # & . . ",
"% + @ % % + @ % $ & % + & @ $ # % # . & % & @ & $ % $ + ",
"% % % % % % % % % % % % % % * % % % % % % % % % % % % % ",
"% % = = % % = = % = % - % % ; ; % = > % > = , % % % % , ",
", = ; > , = ; > ; - ' ) ! ! ! ! ~ ' - { ; - { { - % ; { ",
"- ' { { - ' { { ] ^ / ( _ : : _ < [ ^ ] - { ' { - { ; { ",
"{ { { { { { { ] } | 1 2 3 4 4 3 5 1 6 7 ] { { { { { { 8 ",
"9 0 8 8 9 0 a b c d e e e e e e e e d f g a 0 { h { h h ",
"i { i i i j k l 4 e e e e e e e e e e m n o j p h q q h ",
"i h i i r s c m e e e e e e e e e e e e 4 f t r i q i i ",
"u v v v w x d e e y z A e e e e A z B e e C D E F F i F ",
"v G F G H 1 e e e z I J A e e A J I K e e e L M G N G O ",
"G v P Q R S e e e T U I V A T U I J A e e e W X Y P P P ",
"P P P Z ` 3 e e e e T U I  .J I J A e e e e 3 ..Z P P P ",
"P +.+.@.#.4 e e e e e T $.I I %.A e e e e e 4 &.@.P P P ",
"*.*.=.-.;.>.e e e e e T ,.I I  .A e e e e e m : -.'.).=.",
"=.!.'.~.` 3 e e e e T U I {.].I V A e e e e 3 ^.~.'.=.!.",
"'.'./.(._.5 e e e T U I J A T U I V A e e e S :.(.'.'.'.",
"/.'.<.[.}.1 e e e |.I J A e e A J I K e e e 1.2.(.'.3.4.",
"5.6./.6.7.8.d e e B K A e e e e A K B e e 9.0.a.<.<.<.<.",
"4.4.4.4.b.c.f 4 e e e e e e e e e e e e 4 c d.b.4.4.4.4.",
"4.e.e.4.4.b.f.n 4 e e e e e e e e e e 4 n g.b.e.4.h.i.4.",
"h.h.e.j.h.j.k.l.c C e e e e e e e e m.c n.k.o.h.p.p.h.q.",
"q.o.q.p.q.o.p.r.s.t.L u.v.m m 3 S 1.w.x.y.j.p.p.j.i.q.p.",
"p.p.p.p.p.p.p.p.z.A.B.:.C.: : C.:.D.E.z.p.p.p.p.p.p.p.p.",
"F.p.G.H.F.p.G.H.F.p.I.J.K.K.K.K.L.I.p.p.M.p.N.M.p.p.p.F.",
"O.H.F.p.O.H.F.p.F.p.M.P.p.N.H.p.F.P.H.p.O.G.p.H.G.P.G.O.",
"H.G.O.G.H.G.O.G.O.G.P.G.G.G.G.G.O.G.G.O.P.H.H.G.P.G.G.G.",
"G.G.G.G.G.G.G.G.G.G.G.G.Q.G.G.R.G.Q.G.G.R.S.G.Q.G.G.G.R.",
"S.S.T.Q.S.S.T.Q.Q.U.Q.V.U.G.S.R.R.G.G.U.R.W.Q.T.W.T.G.S.",
"T.W.S.U.T.W.S.U.R.R.S.V.W.T.V.S.Q.V.V.W.W.T.U.W.S.G.W.W.",
"W.W.W.W.W.W.W.W.U.W.U.W.W.W.W.W.W.T.W.W.W.W.W.W.U.W.V.W.",
"W.W.W.W.W.W.W.W.W.W.W.W.W.W.W.W.W.W.W.W.W.W.W.W.W.W.W.W."};
