/* XPM */
static char * close_prelight_xpm[] = {
"28 36 114 2",
"  	c #323A3F",
". 	c #414B51",
"+ 	c #414B50",
"@ 	c #414A50",
"# 	c #404A50",
"$ 	c #404950",
"% 	c #3F494F",
"& 	c #504E4F",
"* 	c #C48743",
"= 	c #F0A13A",
"- 	c #FDAA38",
"; 	c #FEAD38",
"> 	c #F0A239",
", 	c #C38643",
"' 	c #C18544",
") 	c #FCAB38",
"! 	c #F9A434",
"~ 	c #EE932B",
"{ 	c #E78424",
"] 	c #E47F21",
"^ 	c #EF922B",
"/ 	c #F9A534",
"( 	c #FCAB37",
"_ 	c #C08443",
": 	c #434D4F",
"< 	c #E59A3C",
"[ 	c #FDAA36",
"} 	c #EA8A26",
"| 	c #E27B20",
"1 	c #EA8A27",
"2 	c #FDAB37",
"3 	c #E4993C",
"4 	c #3E494E",
"5 	c #FAA634",
"6 	c #E48022",
"7 	c #FAA734",
"8 	c #E5983B",
"9 	c #3E484E",
"0 	c #C18443",
"a 	c #E47F22",
"b 	c #BE8343",
"c 	c #3D484D",
"d 	c #4A4C4D",
"e 	c #FDAC38",
"f 	c #EA8926",
"g 	c #F6D7BC",
"h 	c #F9E2CE",
"i 	c #E48531",
"j 	c #F9E5D3",
"k 	c #F6D4B6",
"l 	c #4E4D4D",
"m 	c #3D474D",
"n 	c #C48642",
"o 	c #F8E1CC",
"p 	c #FFFFFF",
"q 	c #FAE7D6",
"r 	c #F9E4D2",
"s 	c #F9A535",
"t 	c #C28442",
"u 	c #3D474E",
"v 	c #F2A239",
"w 	c #EE922A",
"x 	c #E4842F",
"y 	c #F9E5D2",
"z 	c #FAE7D7",
"A 	c #EF932A",
"B 	c #F0A03A",
"C 	c #FCAA38",
"D 	c #E78525",
"E 	c #FBAA38",
"F 	c #3C464D",
"G 	c #FEAF38",
"H 	c #E47E22",
"I 	c #FFAE39",
"J 	c #3D474C",
"K 	c #3C464C",
"L 	c #FBAA37",
"M 	c #3B464B",
"N 	c #F0A238",
"O 	c #EE922B",
"P 	c #EFA139",
"Q 	c #3C454B",
"R 	c #C38541",
"S 	c #F9E1CD",
"T 	c #C18341",
"U 	c #3B454B",
"V 	c #48494B",
"W 	c #F5D4B6",
"X 	c #EB8B28",
"Y 	c #4D4A4B",
"Z 	c #BF8241",
"` 	c #BD8042",
" .	c #E4993B",
"..	c #3A444A",
"+.	c #3F484A",
"@.	c #E5983A",
"#.	c #EA8B27",
"$.	c #E39739",
"%.	c #3A454A",
"&.	c #BE8241",
"*.	c #FCAC37",
"=.	c #E78524",
"-.	c #EE932A",
";.	c #FCAC38",
">.	c #BC8041",
",.	c #4C494A",
"'.	c #C28440",
").	c #EFA038",
"!.	c #48484A",
"~.	c #394349",
"{.	c #394449",
"].	c #384348",
"^.	c #394348",
"/.	c #384248",
"                                                        ",
". . . . . . . . . . . . . . . . . . . . . . . . . . . . ",
". . . . . . . . . . . . . . . . . . . . . . . . . . . . ",
"+ + + + + + + + + + + + + + + + + + + + + + + + + + + + ",
"@ @ @ @ @ @ @ @ @ @ @ @ @ @ @ @ @ @ @ @ @ @ @ @ @ @ @ @ ",
"# # # # # # # # # # # # # # # # # # # # # # # # # # # # ",
"# # # # # # # # # # # # # # # # # # # # # # # # # # # # ",
"$ $ $ $ $ $ $ $ $ $ $ $ $ $ $ $ $ $ $ $ $ $ $ $ $ $ $ $ ",
"% % % % % % % % % & * = - ; ; - > , & % % % % % % % % % ",
"% % % % % % % % ' ) ! ~ { ] ] { ^ / ( _ % % % % % % % % ",
"% % % % % % : < [ } | | | | | | | | 1 2 3 : % % % % % % ",
"4 4 4 4 4 4 < 5 ] | | | | | | | | | | 6 7 8 4 4 4 4 4 4 ",
"9 9 9 9 9 0 [ 6 | | | | | | | | | | | | a 2 b 9 9 9 9 9 ",
"c c c c d e f | | g h i | | | | i j k | | 1 2 l c c c c ",
"m m m m n ! | | | o p q i | | i q p r | | | s t m m m m ",
"u u u u v w | | | x y p z i x y p q i | | | A B u u u u ",
"m m m m C { | | | | i q p q q p q i | | | | D E m m m m ",
"F F F F G H | | | | | x y p p q i | | | | | ] I F F F F ",
"J J J J G a | | | | | x y p p z i | | | | | 6 ; J J J J ",
"K K K K C { | | | | i q p q q p q i | | | | D L K K K K ",
"M M M M N ^ | | | x y p q i x y p z i | | | O P M M M M ",
"Q Q Q Q R / | | | S p q i | | i q p r | | | s T Q Q Q Q ",
"U U U U V e 1 | | W r i | | | | i r W | | X 2 Y U U U U ",
"U U U U U Z 2 a | | | | | | | | | | | | a ( ` U U U U U ",
"U U U U U U  .7 a | | | | | | | | | | a 7 8 U U U U U U ",
"............+.@.2 1 | | | | | | | | #.( $.+.............",
"%.%.%.%.%.%.%.%.&.*.s A =.6 6 D -.s ;.>.%.%.%.%.%.%.%.%.",
"..................,.'.).) ; ; ) ).T !...................",
"~.~.~.~.~.~.~.~.~.~.~.~.~.~.~.~.~.~.~.~.~.~.~.~.~.~.~.~.",
"{.{.{.{.{.{.{.{.{.{.{.{.{.{.{.{.{.{.{.{.{.{.{.{.{.{.{.{.",
"~.~.~.~.~.~.~.~.~.~.~.~.~.~.~.~.~.~.~.~.~.~.~.~.~.~.~.~.",
"~.~.~.~.~.~.~.~.~.~.~.~.~.~.~.~.~.~.~.~.~.~.~.~.~.~.~.~.",
"].].].].].].].].].].].].].].].].].].].].].].].].].].].].",
"^.^.^.^.^.^.^.^.^.^.^.^.^.^.^.^.^.^.^.^.^.^.^.^.^.^.^.^.",
"/./././././././././././././././././././././././././././.",
"/./././././././././././././././././././././././././././."};
