/* XPM */
static char * close_pressed_xpm[] = {
"24 24 104 2",
"  	c None",
". 	c #313133",
"+ 	c #4B5252",
"@ 	c #4B5151",
"# 	c #4A5152",
"$ 	c #4A5151",
"% 	c #4B5152",
"& 	c #4A5051",
"* 	c #495150",
"= 	c #4A5050",
"- 	c #495050",
"; 	c #67574E",
"> 	c #C87D40",
", 	c #E98D35",
"' 	c #EC8C34",
") 	c #C77E40",
"! 	c #66584E",
"~ 	c #494F50",
"{ 	c #49504F",
"] 	c #A56D47",
"^ 	c #EE8F33",
"/ 	c #E88325",
"( 	c #E27B20",
"_ 	c #E88326",
": 	c #EF8E33",
"< 	c #A46E47",
"[ 	c #484F4F",
"} 	c #494F4F",
"| 	c #A56C46",
"1 	c #EE8C2F",
"2 	c #E37C20",
"3 	c #EE8B2F",
"4 	c #A46D46",
"5 	c #484F4E",
"6 	c #484E4E",
"7 	c #474F4E",
"8 	c #67564D",
"9 	c #E58938",
"0 	c #ECA669",
"a 	c #65574D",
"b 	c #484E4F",
"c 	c #474D4E",
"d 	c #474E4E",
"e 	c #C77C3E",
"f 	c #ECA76A",
"g 	c #FFFFFF",
"h 	c #F0BA8B",
"i 	c #C67C3F",
"j 	c #484D4E",
"k 	c #474D4D",
"l 	c #474E4D",
"m 	c #EA8C34",
"n 	c #EFB785",
"o 	c #F0BC8D",
"p 	c #EFB886",
"q 	c #F0BB8C",
"r 	c #E88D35",
"s 	c #464D4D",
"t 	c #EC8C33",
"u 	c #464D4C",
"v 	c #474D4C",
"w 	c #464C4C",
"x 	c #EC8C32",
"y 	c #464C4B",
"z 	c #454C4C",
"A 	c #E98B34",
"B 	c #E98B35",
"C 	c #454C4B",
"D 	c #454B4B",
"E 	c #C67C3D",
"F 	c #E98324",
"G 	c #C57B3D",
"H 	c #444B4B",
"I 	c #444A4A",
"J 	c #444B4A",
"K 	c #444A4B",
"L 	c #635448",
"M 	c #EF8E32",
"N 	c #ED8E32",
"O 	c #615248",
"P 	c #444A49",
"Q 	c #A26A42",
"R 	c #EE8C2E",
"S 	c #EE8B2E",
"T 	c #A16C43",
"U 	c #434A49",
"V 	c #A26B42",
"W 	c #EF8D32",
"X 	c #A16C42",
"Y 	c #434949",
"Z 	c #434948",
"` 	c #635248",
" .	c #C67C3C",
"..	c #E98B33",
"+.	c #EC8B32",
"@.	c #C57B3C",
"#.	c #625247",
"$.	c #424949",
"%.	c #424848",
"&.	c #424747",
"*.	c #414847",
"=.	c #414748",
"-.	c #424748",
";.	c #414747",
". . . . . . . . . . . . . . . . . . . . . . . . ",
"+ + + + + + + + + + + + + + + + + + + + + + + + ",
"+ + + + + + + + + + + + + + + + + + + + + + + + ",
"+ + + + + + + + + + + + + + + + + + + + + + + + ",
"@ + @ @ + @ @ + @ + @ + @ + @ + @ + @ + @ + + + ",
"# $ % # $ # $ % # $ # $ % # # $ % # $ $ % # @ $ ",
"& & * & & & & * & & & & * & & & * & & & * & * $ ",
"= * - = * * - * ; > , ' ' , ) ! * - & * - * - & ",
"~ { { ~ { { { ] ^ / ( ( ( ( _ : < ~ ~ { { - ~ ~ ",
"[ [ } [ [ [ | 1 2 ( ( ( ( ( ( 2 3 4 [ [ } } } [ ",
"5 6 7 5 6 8 ^ 2 9 0 ( ( ( ( 0 9 2 : a 6 7 [ b b ",
"c d d c d e _ ( f g h ( ( h g f ( _ i d d d j 6 ",
"k k l k k m ( ( ( n g o p g q ( ( ( r k l l k k ",
"s s k s s t ( ( ( ( n g g q ( ( ( ( t s k s u v ",
"w w u w w t ( ( ( ( p g g o ( ( ( ( x w u w u w ",
"y z z y z A ( ( ( p g q n g o ( ( ( B z z w C D ",
"D D D D D E / ( f g h ( ( h g f ( F G D D D D H ",
"I J K I J L M 2 9 0 ( ( ( ( 0 9 2 N O J K H D I ",
"I I P I I I Q R 2 ( ( ( ( ( ( 2 S T I I P I I I ",
"U U P U U U P V M / ( ( ( ( F W X Y I U P Y Y I ",
"Y Z Y Y Z Z Y Y `  ...+.+...@.#.Y $.Y Z Y Y $.Y ",
"$.%.%.$.%.%.%.%.%.%.%.%.%.%.%.%.%.%.%.%.%.%.%.%.",
"&.*.=.&.*.&.*.=.&.*.&.*.=.&.&.*.=.&.*.*.=.-.%.%.",
";.;.;.;.;.;.;.;.;.;.;.;.;.;.;.;.;.;.;.;.;.=.&.;."};
