/* XPM */
static char * close_active_xpm[] = {
"28 36 100 2",
"  	c #323A3F",
". 	c #414B51",
"+ 	c #414B50",
"@ 	c #414A50",
"# 	c #404A50",
"$ 	c #404950",
"% 	c #3F494F",
"& 	c #504E4F",
"* 	c #C48743",
"= 	c #F0A13A",
"- 	c #FDAA38",
"; 	c #FEAD38",
"> 	c #F0A239",
", 	c #C38643",
"' 	c #C18544",
") 	c #FCAB38",
"! 	c #F9A434",
"~ 	c #EE932B",
"{ 	c #E78424",
"] 	c #E47F21",
"^ 	c #EF922B",
"/ 	c #F9A534",
"( 	c #FCAB37",
"_ 	c #C08443",
": 	c #434D4F",
"< 	c #E59A3C",
"[ 	c #FDAA36",
"} 	c #EA8A26",
"| 	c #E27B20",
"1 	c #EA8A27",
"2 	c #FDAB37",
"3 	c #E4993C",
"4 	c #3E494E",
"5 	c #FAA634",
"6 	c #E48022",
"7 	c #FAA734",
"8 	c #E5983B",
"9 	c #3E484E",
"0 	c #C18443",
"a 	c #E47F22",
"b 	c #BE8343",
"c 	c #3D484D",
"d 	c #4A4C4D",
"e 	c #FDAC38",
"f 	c #EA8926",
"g 	c #4E4D4D",
"h 	c #3D474D",
"i 	c #C48642",
"j 	c #F9A535",
"k 	c #C28442",
"l 	c #3D474E",
"m 	c #F2A239",
"n 	c #EE922A",
"o 	c #EF932A",
"p 	c #F0A03A",
"q 	c #FCAA38",
"r 	c #E78525",
"s 	c #FBAA38",
"t 	c #3C464D",
"u 	c #FEAF38",
"v 	c #E47E22",
"w 	c #FFAE39",
"x 	c #3D474C",
"y 	c #3C464C",
"z 	c #FBAA37",
"A 	c #3B464B",
"B 	c #F0A238",
"C 	c #EE922B",
"D 	c #EFA139",
"E 	c #3C454B",
"F 	c #C38541",
"G 	c #C18341",
"H 	c #3B454B",
"I 	c #48494B",
"J 	c #EB8B28",
"K 	c #4D4A4B",
"L 	c #BF8241",
"M 	c #BD8042",
"N 	c #E4993B",
"O 	c #3A444A",
"P 	c #3F484A",
"Q 	c #E5983A",
"R 	c #EA8B27",
"S 	c #E39739",
"T 	c #3A454A",
"U 	c #BE8241",
"V 	c #FCAC37",
"W 	c #E78524",
"X 	c #EE932A",
"Y 	c #FCAC38",
"Z 	c #BC8041",
"` 	c #4C494A",
" .	c #C28440",
"..	c #EFA038",
"+.	c #48484A",
"@.	c #394349",
"#.	c #394449",
"$.	c #384348",
"%.	c #394348",
"&.	c #384248",
"                                                        ",
". . . . . . . . . . . . . . . . . . . . . . . . . . . . ",
". . . . . . . . . . . . . . . . . . . . . . . . . . . . ",
"+ + + + + + + + + + + + + + + + + + + + + + + + + + + + ",
"@ @ @ @ @ @ @ @ @ @ @ @ @ @ @ @ @ @ @ @ @ @ @ @ @ @ @ @ ",
"# # # # # # # # # # # # # # # # # # # # # # # # # # # # ",
"# # # # # # # # # # # # # # # # # # # # # # # # # # # # ",
"$ $ $ $ $ $ $ $ $ $ $ $ $ $ $ $ $ $ $ $ $ $ $ $ $ $ $ $ ",
"% % % % % % % % % & * = - ; ; - > , & % % % % % % % % % ",
"% % % % % % % % ' ) ! ~ { ] ] { ^ / ( _ % % % % % % % % ",
"% % % % % % : < [ } | | | | | | | | 1 2 3 : % % % % % % ",
"4 4 4 4 4 4 < 5 ] | | | | | | | | | | 6 7 8 4 4 4 4 4 4 ",
"9 9 9 9 9 0 [ 6 | | | | | | | | | | | | a 2 b 9 9 9 9 9 ",
"c c c c d e f | | | | | | | | | | | | | | 1 2 g c c c c ",
"h h h h i ! | | | | | | | | | | | | | | | | j k h h h h ",
"l l l l m n | | | | | | | | | | | | | | | | o p l l l l ",
"h h h h q { | | | | | | | | | | | | | | | | r s h h h h ",
"t t t t u v | | | | | | | | | | | | | | | | ] w t t t t ",
"x x x x u a | | | | | | | | | | | | | | | | 6 ; x x x x ",
"y y y y q { | | | | | | | | | | | | | | | | r z y y y y ",
"A A A A B ^ | | | | | | | | | | | | | | | | C D A A A A ",
"E E E E F / | | | | | | | | | | | | | | | | j G E E E E ",
"H H H H I e 1 | | | | | | | | | | | | | | J 2 K H H H H ",
"H H H H H L 2 a | | | | | | | | | | | | a ( M H H H H H ",
"H H H H H H N 7 a | | | | | | | | | | a 7 8 H H H H H H ",
"O O O O O O P Q 2 1 | | | | | | | | R ( S P O O O O O O ",
"T T T T T T T T U V j o W 6 6 r X j Y Z T T T T T T T T ",
"O O O O O O O O O `  ...) ; ; ) ..G +.O O O O O O O O O ",
"@.@.@.@.@.@.@.@.@.@.@.@.@.@.@.@.@.@.@.@.@.@.@.@.@.@.@.@.",
"#.#.#.#.#.#.#.#.#.#.#.#.#.#.#.#.#.#.#.#.#.#.#.#.#.#.#.#.",
"@.@.@.@.@.@.@.@.@.@.@.@.@.@.@.@.@.@.@.@.@.@.@.@.@.@.@.@.",
"@.@.@.@.@.@.@.@.@.@.@.@.@.@.@.@.@.@.@.@.@.@.@.@.@.@.@.@.",
"$.$.$.$.$.$.$.$.$.$.$.$.$.$.$.$.$.$.$.$.$.$.$.$.$.$.$.$.",
"%.%.%.%.%.%.%.%.%.%.%.%.%.%.%.%.%.%.%.%.%.%.%.%.%.%.%.%.",
"&.&.&.&.&.&.&.&.&.&.&.&.&.&.&.&.&.&.&.&.&.&.&.&.&.&.&.&.",
"&.&.&.&.&.&.&.&.&.&.&.&.&.&.&.&.&.&.&.&.&.&.&.&.&.&.&.&."};
