/* XPM */
static char * close_active_xpm[] = {
"24 24 95 2",
"  	c None",
". 	c #313133",
"+ 	c #4B5252",
"@ 	c #4B5151",
"# 	c #4A5152",
"$ 	c #4A5151",
"% 	c #4B5152",
"& 	c #4A5051",
"* 	c #495150",
"= 	c #4A5050",
"- 	c #495050",
"; 	c #67574E",
"> 	c #C87D40",
", 	c #E98D35",
"' 	c #EC8C34",
") 	c #C77E40",
"! 	c #66584E",
"~ 	c #494F50",
"{ 	c #49504F",
"] 	c #A56D47",
"^ 	c #EE8F33",
"/ 	c #E88325",
"( 	c #E27B20",
"_ 	c #E88326",
": 	c #EF8E33",
"< 	c #A46E47",
"[ 	c #484F4F",
"} 	c #494F4F",
"| 	c #A56C46",
"1 	c #EE8C2F",
"2 	c #E37C20",
"3 	c #EE8B2F",
"4 	c #A46D46",
"5 	c #484F4E",
"6 	c #484E4E",
"7 	c #474F4E",
"8 	c #67564D",
"9 	c #65574D",
"0 	c #484E4F",
"a 	c #474D4E",
"b 	c #474E4E",
"c 	c #C77C3E",
"d 	c #C67C3F",
"e 	c #484D4E",
"f 	c #474D4D",
"g 	c #474E4D",
"h 	c #EA8C34",
"i 	c #E88D35",
"j 	c #464D4D",
"k 	c #EC8C33",
"l 	c #464D4C",
"m 	c #474D4C",
"n 	c #464C4C",
"o 	c #EC8C32",
"p 	c #464C4B",
"q 	c #454C4C",
"r 	c #E98B34",
"s 	c #E98B35",
"t 	c #454C4B",
"u 	c #454B4B",
"v 	c #C67C3D",
"w 	c #E98324",
"x 	c #C57B3D",
"y 	c #444B4B",
"z 	c #444A4A",
"A 	c #444B4A",
"B 	c #444A4B",
"C 	c #635448",
"D 	c #EF8E32",
"E 	c #ED8E32",
"F 	c #615248",
"G 	c #444A49",
"H 	c #A26A42",
"I 	c #EE8C2E",
"J 	c #EE8B2E",
"K 	c #A16C43",
"L 	c #434A49",
"M 	c #A26B42",
"N 	c #EF8D32",
"O 	c #A16C42",
"P 	c #434949",
"Q 	c #434948",
"R 	c #635248",
"S 	c #C67C3C",
"T 	c #E98B33",
"U 	c #EC8B32",
"V 	c #C57B3C",
"W 	c #625247",
"X 	c #424949",
"Y 	c #424848",
"Z 	c #424747",
"` 	c #414847",
" .	c #414748",
"..	c #424748",
"+.	c #414747",
". . . . . . . . . . . . . . . . . . . . . . . . ",
"+ + + + + + + + + + + + + + + + + + + + + + + + ",
"+ + + + + + + + + + + + + + + + + + + + + + + + ",
"+ + + + + + + + + + + + + + + + + + + + + + + + ",
"@ + @ @ + @ @ + @ + @ + @ + @ + @ + @ + @ + + + ",
"# $ % # $ # $ % # $ # $ % # # $ % # $ $ % # @ $ ",
"& & * & & & & * & & & & * & & & * & & & * & * $ ",
"= * - = * * - * ; > , ' ' , ) ! * - & * - * - & ",
"~ { { ~ { { { ] ^ / ( ( ( ( _ : < ~ ~ { { - ~ ~ ",
"[ [ } [ [ [ | 1 2 ( ( ( ( ( ( 2 3 4 [ [ } } } [ ",
"5 6 7 5 6 8 ^ 2 ( ( ( ( ( ( ( ( 2 : 9 6 7 [ 0 0 ",
"a b b a b c _ ( ( ( ( ( ( ( ( ( ( _ d b b b e 6 ",
"f f g f f h ( ( ( ( ( ( ( ( ( ( ( ( i f g g f f ",
"j j f j j k ( ( ( ( ( ( ( ( ( ( ( ( k j f j l m ",
"n n l n n k ( ( ( ( ( ( ( ( ( ( ( ( o n l n l n ",
"p q q p q r ( ( ( ( ( ( ( ( ( ( ( ( s q q n t u ",
"u u u u u v / ( ( ( ( ( ( ( ( ( ( w x u u u u y ",
"z A B z A C D 2 ( ( ( ( ( ( ( ( 2 E F A B y u z ",
"z z G z z z H I 2 ( ( ( ( ( ( 2 J K z z G z z z ",
"L L G L L L G M D / ( ( ( ( w N O P z L G P P z ",
"P Q P P Q Q P P R S T U U T V W P X P Q P P X P ",
"X Y Y X Y Y Y Y Y Y Y Y Y Y Y Y Y Y Y Y Y Y Y Y ",
"Z `  .Z ` Z `  .Z ` Z `  .Z Z `  .Z ` `  ...Y Y ",
"+.+.+.+.+.+.+.+.+.+.+.+.+.+.+.+.+.+.+.+.+. .Z +."};
