/* XPM */
static char * close_active_xpm[] = {
"28 36 104 2",
"  	c None",
". 	c #323A3F",
"+ 	c #414B51",
"@ 	c #414B50",
"# 	c #414A50",
"$ 	c #404A50",
"% 	c #404950",
"& 	c #3F494F",
"* 	c #484A4F",
"= 	c #9F6B47",
"- 	c #D5833D",
"; 	c #F19136",
"> 	c #F99432",
", 	c #D5843C",
"' 	c #9E6A47",
") 	c #9C6A48",
"! 	c #F19235",
"~ 	c #F48F2F",
"{ 	c #EE8927",
"] 	c #E78023",
"^ 	c #E47D21",
"/ 	c #EF8828",
"( 	c #F19234",
"_ 	c #9B6947",
": 	c #414B4F",
"< 	c #C47C41",
"[ 	c #F89431",
"} 	c #EA8324",
"| 	c #E27B20",
"1 	c #F89432",
"2 	c #C37B41",
"3 	c #3E494E",
"4 	c #C47C40",
"5 	c #F59130",
"6 	c #E47E21",
"7 	c #F59230",
"8 	c #C37940",
"9 	c #3E484E",
"0 	c #9C6947",
"a 	c #996847",
"b 	c #3D484D",
"c 	c #444A4D",
"d 	c #F19135",
"e 	c #EA8325",
"f 	c #F29234",
"g 	c #46494D",
"h 	c #3D474D",
"i 	c #9F6A45",
"j 	c #F4912F",
"k 	c #9D6946",
"l 	c #3D474E",
"m 	c #D7843C",
"n 	c #EE8827",
"o 	c #EF8827",
"p 	c #D5823D",
"q 	c #F09034",
"r 	c #F08F35",
"s 	c #3C464D",
"t 	c #FA9632",
"u 	c #FA9532",
"v 	c #3D474C",
"w 	c #F99732",
"x 	c #E47D22",
"y 	c #3C464C",
"z 	c #EF9034",
"A 	c #3B464B",
"B 	c #D5833A",
"C 	c #D3823B",
"D 	c #3C454B",
"E 	c #9E6844",
"F 	c #F49130",
"G 	c #9C6745",
"H 	c #3B454B",
"I 	c #42474B",
"J 	c #F19134",
"K 	c #EB8425",
"L 	c #F19133",
"M 	c #45464B",
"N 	c #9A6744",
"O 	c #986545",
"P 	c #C37A3F",
"Q 	c #C2793F",
"R 	c #3A444A",
"S 	c #3D464A",
"T 	c #C3783E",
"U 	c #EA8425",
"V 	c #C1783D",
"W 	c #3A454A",
"X 	c #996744",
"Y 	c #F09133",
"Z 	c #EF8927",
"` 	c #E78123",
" .	c #F09134",
"..	c #976644",
"+.	c #44454A",
"@.	c #9D6843",
"#.	c #F19034",
"$.	c #9C6744",
"%.	c #41464A",
"&.	c #394349",
"*.	c #394449",
"=.	c #384348",
"-.	c #394348",
";.	c #384248",
". . . . . . . . . . . . . . . . . . . . . . . . . . . . ",
"+ + + + + + + + + + + + + + + + + + + + + + + + + + + + ",
"+ + + + + + + + + + + + + + + + + + + + + + + + + + + + ",
"@ @ @ @ @ @ @ @ @ @ @ @ @ @ @ @ @ @ @ @ @ @ @ @ @ @ @ @ ",
"# # # # # # # # # # # # # # # # # # # # # # # # # # # # ",
"$ $ $ $ $ $ $ $ $ $ $ $ $ $ $ $ $ $ $ $ $ $ $ $ $ $ $ $ ",
"$ $ $ $ $ $ $ $ $ $ $ $ $ $ $ $ $ $ $ $ $ $ $ $ $ $ $ $ ",
"% % % % % % % % % % % % % % % % % % % % % % % % % % % % ",
"& & & & & & & & & * = - ; > > ; , ' * & & & & & & & & & ",
"& & & & & & & & ) ! ~ { ] ^ ^ ] / ~ ( _ & & & & & & & & ",
"& & & & & & : < [ } | | | | | | | | } 1 2 : & & & & & & ",
"3 3 3 3 3 3 4 5 ^ | | | | | | | | | | 6 7 8 3 3 3 3 3 3 ",
"9 9 9 9 9 0 [ 6 | | | | | | | | | | | | ^ 1 a 9 9 9 9 9 ",
"b b b b c d } | | | | | | | | | | | | | | e f g b b b b ",
"h h h h i ~ | | | | | | | | | | | | | | | | j k h h h h ",
"l l l l m n | | | | | | | | | | | | | | | | o p l l l l ",
"h h h h q ] | | | | | | | | | | | | | | | | ] r h h h h ",
"s s s s t ^ | | | | | | | | | | | | | | | | ^ u s s s s ",
"v v v v w x | | | | | | | | | | | | | | | | 6 > v v v v ",
"y y y y q ] | | | | | | | | | | | | | | | | ] z y y y y ",
"A A A A B / | | | | | | | | | | | | | | | | n C A A A A ",
"D D D D E ~ | | | | | | | | | | | | | | | | F G D D D D ",
"H H H H I J } | | | | | | | | | | | | | | K L M H H H H ",
"H H H H H N 1 ^ | | | | | | | | | | | | ^ [ O H H H H H ",
"H H H H H H P 7 ^ | | | | | | | | | | ^ 7 Q H H H H H H ",
"R R R R R R S T [ e | | | | | | | | U [ V S R R R R R R ",
"W W W W W W W W X Y j Z ` 6 6 ] n F  ...W W W W W W W W ",
"R R R R R R R R R +.@.C #.> > #.C $.%.R R R R R R R R R ",
"&.&.&.&.&.&.&.&.&.&.&.&.&.&.&.&.&.&.&.&.&.&.&.&.&.&.&.&.",
"*.*.*.*.*.*.*.*.*.*.*.*.*.*.*.*.*.*.*.*.*.*.*.*.*.*.*.*.",
"&.&.&.&.&.&.&.&.&.&.&.&.&.&.&.&.&.&.&.&.&.&.&.&.&.&.&.&.",
"&.&.&.&.&.&.&.&.&.&.&.&.&.&.&.&.&.&.&.&.&.&.&.&.&.&.&.&.",
"=.=.=.=.=.=.=.=.=.=.=.=.=.=.=.=.=.=.=.=.=.=.=.=.=.=.=.=.",
"-.-.-.-.-.-.-.-.-.-.-.-.-.-.-.-.-.-.-.-.-.-.-.-.-.-.-.-.",
";.;.;.;.;.;.;.;.;.;.;.;.;.;.;.;.;.;.;.;.;.;.;.;.;.;.;.;.",
";.;.;.;.;.;.;.;.;.;.;.;.;.;.;.;.;.;.;.;.;.;.;.;.;.;.;.;."};
