/* XPM */
static char * close_active_xpm[] = {
"28 36 163 2",
"  	c #323A3F",
". 	c #3F4C53",
"+ 	c #3F4C52",
"@ 	c #3E4C53",
"# 	c #3F4B53",
"$ 	c #3E4C52",
"% 	c #3E4B52",
"& 	c #3F4B52",
"* 	c #3E4B53",
"= 	c #3E4A52",
"- 	c #3D4A52",
"; 	c #3D4B51",
"> 	c #3D4B52",
", 	c #3E4B51",
"' 	c #3E4A51",
") 	c #3F4A50",
"! 	c #404950",
"~ 	c #3F4951",
"{ 	c #3D4A51",
"] 	c #3E4950",
"^ 	c #474A4F",
"/ 	c #9F6B47",
"( 	c #D5833D",
"_ 	c #F19136",
": 	c #F99432",
"< 	c #D5843C",
"[ 	c #9E6A47",
"} 	c #9C6A48",
"| 	c #F19235",
"1 	c #F48F2F",
"2 	c #EE8927",
"3 	c #E78023",
"4 	c #E47D21",
"5 	c #EF8828",
"6 	c #F19234",
"7 	c #9B6947",
"8 	c #3D4A50",
"9 	c #3C4A51",
"0 	c #3D4951",
"a 	c #404B4F",
"b 	c #C47C41",
"c 	c #F89431",
"d 	c #EA8324",
"e 	c #E27B20",
"f 	c #F89432",
"g 	c #C37B41",
"h 	c #3C4951",
"i 	c #3C4950",
"j 	c #3E494F",
"k 	c #C47C40",
"l 	c #F59130",
"m 	c #E47E21",
"n 	c #F59230",
"o 	c #C37940",
"p 	c #3C4A50",
"q 	c #3D4950",
"r 	c #3D484F",
"s 	c #9C6947",
"t 	c #996847",
"u 	c #3B4950",
"v 	c #3C494F",
"w 	c #434A4D",
"x 	c #F19135",
"y 	c #EA8325",
"z 	c #F29234",
"A 	c #45494D",
"B 	c #3C4850",
"C 	c #3C484F",
"D 	c #9F6A45",
"E 	c #F4912F",
"F 	c #9D6946",
"G 	c #3B494F",
"H 	c #3B4850",
"I 	c #3B484F",
"J 	c #3D474E",
"K 	c #D7843C",
"L 	c #EE8827",
"M 	c #EF8827",
"N 	c #D5823D",
"O 	c #3C474E",
"P 	c #3D474D",
"Q 	c #F09034",
"R 	c #F08F35",
"S 	c #3A484F",
"T 	c #3C464D",
"U 	c #FA9632",
"V 	c #FA9532",
"W 	c #3B474F",
"X 	c #3A484E",
"Y 	c #3D474C",
"Z 	c #F99732",
"` 	c #E47D22",
" .	c #3A474E",
"..	c #3A474F",
"+.	c #3B474E",
"@.	c #3C464C",
"#.	c #EF9034",
"$.	c #3A474D",
"%.	c #3B464C",
"&.	c #D5833A",
"*.	c #D3823B",
"=.	c #39464E",
"-.	c #3B464D",
";.	c #9E6844",
">.	c #F49130",
",.	c #9C6745",
"'.	c #39474E",
").	c #39464D",
"!.	c #3A464D",
"~.	c #39474D",
"{.	c #41474B",
"].	c #F19134",
"^.	c #EB8425",
"/.	c #F19133",
"(.	c #44464B",
"_.	c #3A454C",
":.	c #9A6744",
"<.	c #986545",
"[.	c #39454D",
"}.	c #C37A3F",
"|.	c #C2793F",
"1.	c #38464D",
"2.	c #39454C",
"3.	c #38464C",
"4.	c #3C464B",
"5.	c #C3783E",
"6.	c #EA8425",
"7.	c #C1783D",
"8.	c #39464C",
"9.	c #38454C",
"0.	c #38454D",
"a.	c #39454B",
"b.	c #996744",
"c.	c #F09133",
"d.	c #EF8927",
"e.	c #E78123",
"f.	c #F09134",
"g.	c #976644",
"h.	c #3A454B",
"i.	c #39444B",
"j.	c #43454A",
"k.	c #9D6843",
"l.	c #F19034",
"m.	c #9C6744",
"n.	c #40464A",
"o.	c #37454C",
"p.	c #37444B",
"q.	c #37454B",
"r.	c #38444A",
"s.	c #39434A",
"t.	c #394349",
"u.	c #39444A",
"v.	c #38454B",
"w.	c #38444C",
"x.	c #37444C",
"y.	c #38444B",
"z.	c #37444A",
"A.	c #37434B",
"B.	c #37434A",
"C.	c #36444B",
"D.	c #36444A",
"E.	c #36434B",
"F.	c #36434A",
"                                                        ",
". . . . . . . . . . . . . . . . . . . . . . . . . . . . ",
". . . + . . . + . . . . . @ . # $ # . . + . . + . + . + ",
"# @ . . # @ . . % + & . @ & & & % $ . + # & & @ # & . . ",
"% + @ % % + @ % $ & % + & @ $ # % # . & % & @ & $ % $ + ",
"% % % % % % % % % % % % % % * % % % % % % % % % % % % % ",
"% % = = % % = = % = % - % % ; ; % = > % > = , % % % % , ",
", = ; > , = ; > ; - ' ) ! ! ! ! ~ ' - { ; - { { - % ; { ",
"- ' { { - ' { { ] ^ / ( _ : : _ < [ ^ ] - { ' { - { ; { ",
"{ { { { { { { ] } | 1 2 3 4 4 3 5 1 6 7 ] { { { { { { 8 ",
"9 0 8 8 9 0 a b c d e e e e e e e e d f g a 0 { h { h h ",
"i { i i i j k l 4 e e e e e e e e e e m n o j p h q q h ",
"i h i i r s c m e e e e e e e e e e e e 4 f t r i q i i ",
"u v v v w x d e e e e e e e e e e e e e e y z A B B i B ",
"v C B C D 1 e e e e e e e e e e e e e e e e E F C G C H ",
"C v I J K L e e e e e e e e e e e e e e e e M N O I I I ",
"I I I P Q 3 e e e e e e e e e e e e e e e e 3 R P I I I ",
"I S S T U 4 e e e e e e e e e e e e e e e e 4 V T I I I ",
"W W X Y Z ` e e e e e e e e e e e e e e e e m : Y  ...X ",
"X +. .@.Q 3 e e e e e e e e e e e e e e e e 3 #.@. .X +.",
" . .$.%.&.5 e e e e e e e e e e e e e e e e L *.%. . . .",
"$. .=.-.;.1 e e e e e e e e e e e e e e e e >.,.%. .'.).",
"!.~.$.~.{.].d e e e e e e e e e e e e e e ^./.(.=.=.=.=.",
").).).)._.:.f 4 e e e e e e e e e e e e 4 c <._.).).).).",
").[.[.).)._.}.n 4 e e e e e e e e e e 4 n |._.[.).1.2.).",
"1.1.[.3.1.3.4.5.c y e e e e e e e e 6.c 7.4.8.1.9.9.1.0.",
"0.8.0.9.0.8.9.a.b.c.E d.e.m m 3 L >.f.g.h.3.9.9.3.2.0.9.",
"9.9.9.9.9.9.9.9.i.j.k.*.l.: : l.*.m.n.i.9.9.9.9.9.9.9.9.",
"o.9.p.q.o.9.p.q.o.9.r.s.t.t.t.t.u.r.9.9.v.9.w.v.9.9.9.o.",
"x.q.o.9.x.q.o.9.o.9.v.y.9.w.q.9.o.y.q.9.x.p.9.q.p.y.p.x.",
"q.p.x.p.q.p.x.p.x.p.y.p.p.p.p.p.x.p.p.x.y.q.q.p.y.p.p.p.",
"p.p.p.p.p.p.p.p.p.p.p.p.z.p.p.A.p.z.p.p.A.B.p.z.p.p.p.A.",
"B.B.C.z.B.B.C.z.z.D.z.E.D.p.B.A.A.p.p.D.A.F.z.C.F.C.p.B.",
"C.F.B.D.C.F.B.D.A.A.B.E.F.C.E.B.z.E.E.F.F.C.D.F.B.p.F.F.",
"F.F.F.F.F.F.F.F.D.F.D.F.F.F.F.F.F.C.F.F.F.F.F.F.D.F.E.F.",
"F.F.F.F.F.F.F.F.F.F.F.F.F.F.F.F.F.F.F.F.F.F.F.F.F.F.F.F."};
