/* XPM */
static char * close_pressed_xpm[] = {
"28 36 121 2",
"  	c None",
". 	c #323A3F",
"+ 	c #414B51",
"@ 	c #414B50",
"# 	c #414A50",
"$ 	c #404A50",
"% 	c #404950",
"& 	c #3F494F",
"* 	c #484A4F",
"= 	c #9F6B47",
"- 	c #D5833D",
"; 	c #F19136",
"> 	c #F99432",
", 	c #D5843C",
"' 	c #9E6A47",
") 	c #9C6A48",
"! 	c #F19235",
"~ 	c #F48F2F",
"{ 	c #EE8927",
"] 	c #E78023",
"^ 	c #E47D21",
"/ 	c #EF8828",
"( 	c #F19234",
"_ 	c #9B6947",
": 	c #414B4F",
"< 	c #C47C41",
"[ 	c #F89431",
"} 	c #EA8324",
"| 	c #E27B20",
"1 	c #F89432",
"2 	c #C37B41",
"3 	c #3E494E",
"4 	c #C47C40",
"5 	c #F59130",
"6 	c #E47E21",
"7 	c #F59230",
"8 	c #C37940",
"9 	c #3E484E",
"0 	c #9C6947",
"a 	c #996847",
"b 	c #3D484D",
"c 	c #444A4D",
"d 	c #F19135",
"e 	c #F6D4B6",
"f 	c #F8E1CC",
"g 	c #E48531",
"h 	c #F5D4B6",
"i 	c #EA8325",
"j 	c #F29234",
"k 	c #46494D",
"l 	c #3D474D",
"m 	c #9F6A45",
"n 	c #FFFFFF",
"o 	c #FAE7D6",
"p 	c #F9E4D2",
"q 	c #F4912F",
"r 	c #9D6946",
"s 	c #3D474E",
"t 	c #D7843C",
"u 	c #EE8827",
"v 	c #E4842F",
"w 	c #F9E5D2",
"x 	c #FAE7D7",
"y 	c #EF8827",
"z 	c #D5823D",
"A 	c #F09034",
"B 	c #FAE9DA",
"C 	c #F08F35",
"D 	c #3C464D",
"E 	c #FA9632",
"F 	c #F9E7D5",
"G 	c #FAE9D9",
"H 	c #FA9532",
"I 	c #3D474C",
"J 	c #F99732",
"K 	c #E47D22",
"L 	c #FAE6D5",
"M 	c #3C464C",
"N 	c #FAE8D9",
"O 	c #F9E7D6",
"P 	c #EF9034",
"Q 	c #3B464B",
"R 	c #D5833A",
"S 	c #D3823B",
"T 	c #3C454B",
"U 	c #9E6844",
"V 	c #F9E1CD",
"W 	c #F49130",
"X 	c #9C6745",
"Y 	c #3B454B",
"Z 	c #42474B",
"` 	c #F19134",
" .	c #EB8425",
"..	c #F19133",
"+.	c #45464B",
"@.	c #9A6744",
"#.	c #986545",
"$.	c #C37A3F",
"%.	c #C2793F",
"&.	c #3A444A",
"*.	c #3D464A",
"=.	c #C3783E",
"-.	c #EA8425",
";.	c #C1783D",
">.	c #3A454A",
",.	c #996744",
"'.	c #F09133",
").	c #EF8927",
"!.	c #E78123",
"~.	c #F09134",
"{.	c #976644",
"].	c #44454A",
"^.	c #9D6843",
"/.	c #F19034",
"(.	c #9C6744",
"_.	c #41464A",
":.	c #394349",
"<.	c #394449",
"[.	c #384348",
"}.	c #394348",
"|.	c #384248",
". . . . . . . . . . . . . . . . . . . . . . . . . . . . ",
"+ + + + + + + + + + + + + + + + + + + + + + + + + + + + ",
"+ + + + + + + + + + + + + + + + + + + + + + + + + + + + ",
"@ @ @ @ @ @ @ @ @ @ @ @ @ @ @ @ @ @ @ @ @ @ @ @ @ @ @ @ ",
"# # # # # # # # # # # # # # # # # # # # # # # # # # # # ",
"$ $ $ $ $ $ $ $ $ $ $ $ $ $ $ $ $ $ $ $ $ $ $ $ $ $ $ $ ",
"$ $ $ $ $ $ $ $ $ $ $ $ $ $ $ $ $ $ $ $ $ $ $ $ $ $ $ $ ",
"% % % % % % % % % % % % % % % % % % % % % % % % % % % % ",
"& & & & & & & & & * = - ; > > ; , ' * & & & & & & & & & ",
"& & & & & & & & ) ! ~ { ] ^ ^ ] / ~ ( _ & & & & & & & & ",
"& & & & & & : < [ } | | | | | | | | } 1 2 : & & & & & & ",
"3 3 3 3 3 3 4 5 ^ | | | | | | | | | | 6 7 8 3 3 3 3 3 3 ",
"9 9 9 9 9 0 [ 6 | | | | | | | | | | | | ^ 1 a 9 9 9 9 9 ",
"b b b b c d } | | e f g | | | | g f h | | i j k b b b b ",
"l l l l m ~ | | | f n o g | | g o n p | | | q r l l l l ",
"s s s s t u | | | v w n x g v w n o g | | | y z s s s s ",
"l l l l A ] | | | | v w n B o n o g | | | | ] C l l l l ",
"D D D D E ^ | | | | | v F n n G g | | | | | ^ H D D D D ",
"I I I I J K | | | | | v L n n B g | | | | | 6 > I I I I ",
"M M M M A ] | | | | v w n N O n x g | | | | ] P M M M M ",
"Q Q Q Q R / | | | v w n o g v w n x g | | | u S Q Q Q Q ",
"T T T T U ~ | | | V n o g | | g o n p | | | W X T T T T ",
"Y Y Y Y Z ` } | | h p g | | | | g p h | |  ...+.Y Y Y Y ",
"Y Y Y Y Y @.1 ^ | | | | | | | | | | | | ^ [ #.Y Y Y Y Y ",
"Y Y Y Y Y Y $.7 ^ | | | | | | | | | | ^ 7 %.Y Y Y Y Y Y ",
"&.&.&.&.&.&.*.=.[ i | | | | | | | | -.[ ;.*.&.&.&.&.&.&.",
">.>.>.>.>.>.>.>.,.'.q ).!.6 6 ] u W ~.{.>.>.>.>.>.>.>.>.",
"&.&.&.&.&.&.&.&.&.].^.S /.> > /.S (._.&.&.&.&.&.&.&.&.&.",
":.:.:.:.:.:.:.:.:.:.:.:.:.:.:.:.:.:.:.:.:.:.:.:.:.:.:.:.",
"<.<.<.<.<.<.<.<.<.<.<.<.<.<.<.<.<.<.<.<.<.<.<.<.<.<.<.<.",
":.:.:.:.:.:.:.:.:.:.:.:.:.:.:.:.:.:.:.:.:.:.:.:.:.:.:.:.",
":.:.:.:.:.:.:.:.:.:.:.:.:.:.:.:.:.:.:.:.:.:.:.:.:.:.:.:.",
"[.[.[.[.[.[.[.[.[.[.[.[.[.[.[.[.[.[.[.[.[.[.[.[.[.[.[.[.",
"}.}.}.}.}.}.}.}.}.}.}.}.}.}.}.}.}.}.}.}.}.}.}.}.}.}.}.}.",
"|.|.|.|.|.|.|.|.|.|.|.|.|.|.|.|.|.|.|.|.|.|.|.|.|.|.|.|.",
"|.|.|.|.|.|.|.|.|.|.|.|.|.|.|.|.|.|.|.|.|.|.|.|.|.|.|.|."};
