/* XPM */
static char * close_active_xpm[] = {
"24 24 95 2",
"  	c None",
". 	c #313133",
"+ 	c #4B5252",
"@ 	c #4B5151",
"# 	c #4A5152",
"$ 	c #4A5151",
"% 	c #4B5152",
"& 	c #4A5051",
"* 	c #495150",
"= 	c #4A5050",
"- 	c #495050",
"; 	c #685B50",
"> 	c #C7914D",
", 	c #E9A44B",
"' 	c #ECA74A",
") 	c #665D4F",
"! 	c #494F50",
"~ 	c #49504F",
"{ 	c #A57C4D",
"] 	c #EEA74B",
"^ 	c #E89C3E",
"/ 	c #E2943A",
"( 	c #E29439",
"_ 	c #E89D3D",
": 	c #EFA84A",
"< 	c #A47C4E",
"[ 	c #484F4F",
"} 	c #494F4F",
"| 	c #A57B4D",
"1 	c #EEA549",
"2 	c #E3953A",
"3 	c #EEA648",
"4 	c #A37B4E",
"5 	c #484F4E",
"6 	c #484E4E",
"7 	c #474F4E",
"8 	c #675B4E",
"9 	c #EEA74A",
"0 	c #655B4E",
"a 	c #484E4F",
"b 	c #474D4E",
"c 	c #474E4E",
"d 	c #C7904C",
"e 	c #C6914C",
"f 	c #484D4E",
"g 	c #474D4D",
"h 	c #474E4D",
"i 	c #EAA54A",
"j 	c #E8A54B",
"k 	c #464D4D",
"l 	c #ECA64A",
"m 	c #464D4C",
"n 	c #474D4C",
"o 	c #464C4C",
"p 	c #ECA749",
"q 	c #ECA649",
"r 	c #464C4B",
"s 	c #454C4C",
"t 	c #E9A54A",
"u 	c #454C4B",
"v 	c #454B4B",
"w 	c #C6904B",
"x 	c #E99C3E",
"y 	c #C58F4B",
"z 	c #444B4B",
"A 	c #444A4A",
"B 	c #444B4A",
"C 	c #444A4B",
"D 	c #63584A",
"E 	c #EFA849",
"F 	c #EDA849",
"G 	c #61574A",
"H 	c #444A49",
"I 	c #A27A4A",
"J 	c #EEA548",
"K 	c #EEA547",
"L 	c #A1794A",
"M 	c #434A49",
"N 	c #A2794A",
"O 	c #A17949",
"P 	c #434949",
"Q 	c #434948",
"R 	c #64564A",
"S 	c #C68F4A",
"T 	c #ECA549",
"U 	c #E9A44A",
"V 	c #C5904B",
"W 	c #625748",
"X 	c #424949",
"Y 	c #424848",
"Z 	c #424747",
"` 	c #414847",
" .	c #414748",
"..	c #424748",
"+.	c #414747",
". . . . . . . . . . . . . . . . . . . . . . . . ",
"+ + + + + + + + + + + + + + + + + + + + + + + + ",
"+ + + + + + + + + + + + + + + + + + + + + + + + ",
"+ + + + + + + + + + + + + + + + + + + + + + + + ",
"@ + @ @ + @ @ + @ + @ + @ + @ + @ + @ + @ + + + ",
"# $ % # $ # $ % # $ # $ % # # $ % # $ $ % # @ $ ",
"& & * & & & & * & & & & * & & & * & & & * & * $ ",
"= * - = * = * - ; > , ' ' , > ) - = * * - * - & ",
"! ~ ~ ! ~ ! ~ { ] ^ / ( ( / _ : < ! ~ ~ ~ - ! ! ",
"[ [ } [ [ [ | 1 2 ( ( ( ( ( ( 2 3 4 [ [ } } } [ ",
"5 6 7 5 6 8 9 2 ( ( ( ( ( ( ( ( 2 : 0 6 7 [ a a ",
"b c c b c d ^ ( ( ( ( ( ( ( ( ( ( _ e c c c f 6 ",
"g g h g g i / ( ( ( ( ( ( ( ( ( ( / j g h h g g ",
"k k g k k l ( ( ( ( ( ( ( ( ( ( ( ( ' k g k m n ",
"o o m o o p ( ( ( ( ( ( ( ( ( ( ( ( q o m o m o ",
"r s s r s t / ( ( ( ( ( ( ( ( ( ( / t s s o u v ",
"v v v v v w _ ( ( ( ( ( ( ( ( ( ( x y v v v v z ",
"A B C A B D E 2 ( ( ( ( ( ( ( ( 2 F G B C z v A ",
"A A H A A A I J 2 ( ( ( ( ( ( 2 K L A A H A A A ",
"M M H M M M M N E _ / ( ( / x E O M M M H P P A ",
"P Q P P Q P Q P R S t T T U V W P P Q Q P P X P ",
"X Y Y X Y X Y Y X Y X Y Y X X Y Y X Y Y Y Y Y Y ",
"Z `  .Z ` Z `  .Z ` Z `  .Z Z `  .Z ` `  ...Y Y ",
"+.+.+.+.+.+.+.+.+.+.+.+.+.+.+.+.+.+.+.+.+. .Z +."};
