/* XPM */
static char * close_prelight_xpm[] = {
"24 24 104 2",
"  	c None",
". 	c #313133",
"+ 	c #4B5252",
"@ 	c #4B5151",
"# 	c #4A5152",
"$ 	c #4A5151",
"% 	c #4B5152",
"& 	c #4A5051",
"* 	c #495150",
"= 	c #4A5050",
"- 	c #495050",
"; 	c #685B50",
"> 	c #C7914D",
", 	c #E9A44B",
"' 	c #ECA74A",
") 	c #665D4F",
"! 	c #494F50",
"~ 	c #49504F",
"{ 	c #A57C4D",
"] 	c #EEA74B",
"^ 	c #E89C3E",
"/ 	c #E2943A",
"( 	c #E29439",
"_ 	c #E89D3D",
": 	c #EFA84A",
"< 	c #A47C4E",
"[ 	c #484F4F",
"} 	c #494F4F",
"| 	c #A57B4D",
"1 	c #EEA549",
"2 	c #E3953A",
"3 	c #EEA648",
"4 	c #A37B4E",
"5 	c #484F4E",
"6 	c #484E4E",
"7 	c #474F4E",
"8 	c #675B4E",
"9 	c #EEA74A",
"0 	c #E5A04F",
"a 	c #ECB77A",
"b 	c #655B4E",
"c 	c #484E4F",
"d 	c #474D4E",
"e 	c #474E4E",
"f 	c #C7904C",
"g 	c #ECB87B",
"h 	c #FFFFFF",
"i 	c #F0C798",
"j 	c #C6914C",
"k 	c #484D4E",
"l 	c #474D4D",
"m 	c #474E4D",
"n 	c #EAA54A",
"o 	c #EFC593",
"p 	c #F0C89A",
"q 	c #EFC594",
"r 	c #F0C899",
"s 	c #E8A54B",
"t 	c #464D4D",
"u 	c #ECA64A",
"v 	c #464D4C",
"w 	c #474D4C",
"x 	c #464C4C",
"y 	c #ECA749",
"z 	c #ECA649",
"A 	c #464C4B",
"B 	c #454C4C",
"C 	c #E9A54A",
"D 	c #454C4B",
"E 	c #454B4B",
"F 	c #C6904B",
"G 	c #E99C3E",
"H 	c #C58F4B",
"I 	c #444B4B",
"J 	c #444A4A",
"K 	c #444B4A",
"L 	c #444A4B",
"M 	c #63584A",
"N 	c #EFA849",
"O 	c #EDA849",
"P 	c #61574A",
"Q 	c #444A49",
"R 	c #A27A4A",
"S 	c #EEA548",
"T 	c #EEA547",
"U 	c #A1794A",
"V 	c #434A49",
"W 	c #A2794A",
"X 	c #A17949",
"Y 	c #434949",
"Z 	c #434948",
"` 	c #64564A",
" .	c #C68F4A",
"..	c #ECA549",
"+.	c #E9A44A",
"@.	c #C5904B",
"#.	c #625748",
"$.	c #424949",
"%.	c #424848",
"&.	c #424747",
"*.	c #414847",
"=.	c #414748",
"-.	c #424748",
";.	c #414747",
". . . . . . . . . . . . . . . . . . . . . . . . ",
"+ + + + + + + + + + + + + + + + + + + + + + + + ",
"+ + + + + + + + + + + + + + + + + + + + + + + + ",
"+ + + + + + + + + + + + + + + + + + + + + + + + ",
"@ + @ @ + @ @ + @ + @ + @ + @ + @ + @ + @ + + + ",
"# $ % # $ # $ % # $ # $ % # # $ % # $ $ % # @ $ ",
"& & * & & & & * & & & & * & & & * & & & * & * $ ",
"= * - = * = * - ; > , ' ' , > ) - = * * - * - & ",
"! ~ ~ ! ~ ! ~ { ] ^ / ( ( / _ : < ! ~ ~ ~ - ! ! ",
"[ [ } [ [ [ | 1 2 ( ( ( ( ( ( 2 3 4 [ [ } } } [ ",
"5 6 7 5 6 8 9 2 0 a ( ( ( ( a 0 2 : b 6 7 [ c c ",
"d e e d e f ^ ( g h i ( ( i h g ( _ j e e e k 6 ",
"l l m l l n / ( ( o h p q h r ( ( / s l m m l l ",
"t t l t t u ( ( ( ( o h h r ( ( ( ( ' t l t v w ",
"x x v x x y ( ( ( ( q h h p ( ( ( ( z x v x v x ",
"A B B A B C / ( ( q h r o h p ( ( / C B B x D E ",
"E E E E E F _ ( g h i ( ( i h g ( G H E E E E I ",
"J K L J K M N 2 0 a ( ( ( ( a 0 2 O P K L I E J ",
"J J Q J J J R S 2 ( ( ( ( ( ( 2 T U J J Q J J J ",
"V V Q V V V V W N _ / ( ( / G N X V V V Q Y Y J ",
"Y Z Y Y Z Y Z Y `  .C ....+.@.#.Y Y Z Z Y Y $.Y ",
"$.%.%.$.%.$.%.%.$.%.$.%.%.$.$.%.%.$.%.%.%.%.%.%.",
"&.*.=.&.*.&.*.=.&.*.&.*.=.&.&.*.=.&.*.*.=.-.%.%.",
";.;.;.;.;.;.;.;.;.;.;.;.;.;.;.;.;.;.;.;.;.=.&.;."};
