/* XPM */
static char * hide_pressed_xpm[] = {
"24 24 104 2",
"  	c None",
". 	c #313133",
"+ 	c #4B5252",
"@ 	c #4B5151",
"# 	c #4A5152",
"$ 	c #4A5151",
"% 	c #4B5152",
"& 	c #4A5051",
"* 	c #495150",
"= 	c #4A5050",
"- 	c #495050",
"; 	c #65564D",
"> 	c #B76C38",
", 	c #D57426",
"' 	c #D67423",
") 	c #B76B38",
"! 	c #63554E",
"~ 	c #494F50",
"{ 	c #49504F",
"] 	c #996342",
"^ 	c #D87421",
"/ 	c #C76009",
"( 	c #BC5400",
"_ 	c #BB5400",
": 	c #D97421",
"< 	c #976142",
"[ 	c #484F4F",
"} 	c #494F4F",
"| 	c #996242",
"1 	c #D6711C",
"2 	c #BC5501",
"3 	c #BD5501",
"4 	c #D6701C",
"5 	c #976042",
"6 	c #484F4E",
"7 	c #484E4E",
"8 	c #474F4E",
"9 	c #64554C",
"0 	c #D87420",
"a 	c #62534C",
"b 	c #484E4F",
"c 	c #474D4E",
"d 	c #474E4E",
"e 	c #B96B37",
"f 	c #B66B37",
"g 	c #484D4E",
"h 	c #474D4D",
"i 	c #474E4D",
"j 	c #D67425",
"k 	c #464D4D",
"l 	c #D77421",
"m 	c #D39059",
"n 	c #EBCCB3",
"o 	c #D67422",
"p 	c #464D4C",
"q 	c #474D4C",
"r 	c #464C4C",
"s 	c #DDAA80",
"t 	c #FFFFFF",
"u 	c #D67322",
"v 	c #464C4B",
"w 	c #454C4C",
"x 	c #D47425",
"y 	c #C97633",
"z 	c #D69866",
"A 	c #D57326",
"B 	c #454C4B",
"C 	c #454B4B",
"D 	c #B66935",
"E 	c #C86009",
"F 	c #B66936",
"G 	c #444B4B",
"H 	c #444A4A",
"I 	c #444B4A",
"J 	c #444A4B",
"K 	c #604F48",
"L 	c #5E5148",
"M 	c #444A49",
"N 	c #955E3E",
"O 	c #D56F1A",
"P 	c #D66F1B",
"Q 	c #945D3F",
"R 	c #434A49",
"S 	c #965E3E",
"T 	c #D8741F",
"U 	c #C86109",
"V 	c #D9741F",
"W 	c #945D3E",
"X 	c #434949",
"Y 	c #434948",
"Z 	c #605047",
"` 	c #B66933",
" .	c #D47424",
"..	c #D67220",
"+.	c #D67221",
"@.	c #B66A34",
"#.	c #5F4E46",
"$.	c #424949",
"%.	c #424848",
"&.	c #424747",
"*.	c #414847",
"=.	c #414748",
"-.	c #424748",
";.	c #414747",
". . . . . . . . . . . . . . . . . . . . . . . . ",
"+ + + + + + + + + + + + + + + + + + + + + + + + ",
"+ + + + + + + + + + + + + + + + + + + + + + + + ",
"+ + + + + + + + + + + + + + + + + + + + + + + + ",
"@ + @ @ + @ @ + @ + @ + @ + @ + @ + @ + @ + + + ",
"# $ % # $ # $ % # $ # $ % # # $ % # $ $ % # @ $ ",
"& & * & & & & * & & & & * & & & * & & & * & * $ ",
"= * - = * = * - ; > , ' ' , ) ! - = * * - * - & ",
"~ { { ~ { ~ { ] ^ / ( _ _ ( / : < ~ { { { - ~ ~ ",
"[ [ } [ [ [ | 1 2 _ _ _ _ _ _ 3 4 5 [ [ } } } [ ",
"6 7 8 6 7 9 0 2 _ _ _ _ _ _ _ _ 3 : a 7 8 [ b b ",
"c d d c d e / _ _ _ _ _ _ _ _ _ _ / f d d d g 7 ",
"h h i h h , ( _ _ _ _ _ _ _ _ _ _ ( j h i i h h ",
"k k h k k l _ _ m n n n n n n m _ _ o k h k p q ",
"r r p r r o _ _ s t t t t t t s _ _ u r p r p r ",
"v w w v w x ( _ y z z z z z z y _ ( A w w r B C ",
"C C C C C D / _ _ _ _ _ _ _ _ _ _ E F C C C C G ",
"H I J H I K 0 3 _ _ _ _ _ _ _ _ 3 0 L I J G C H ",
"H H M H H H N O 3 _ _ _ _ _ _ 3 P Q H H M H H H ",
"R R M R R R R S T / ( _ _ ( U V W R R R M X X H ",
"X Y X X Y X Y X Z `  ...+. .@.#.X X Y Y X X $.X ",
"$.%.%.$.%.$.%.%.$.%.$.%.%.$.$.%.%.$.%.%.%.%.%.%.",
"&.*.=.&.*.&.*.=.&.*.&.*.=.&.&.*.=.&.*.*.=.-.%.%.",
";.;.;.;.;.;.;.;.;.;.;.;.;.;.;.;.;.;.;.;.;.=.&.;."};
