/* XPM */
static char * maximize_active_xpm[] = {
"24 24 98 2",
"  	c None",
". 	c #313133",
"+ 	c #4B5252",
"@ 	c #4B5151",
"# 	c #4A5152",
"$ 	c #4A5151",
"% 	c #4B5152",
"& 	c #4A5051",
"* 	c #495150",
"= 	c #4A5050",
"- 	c #495050",
"; 	c #65564D",
"> 	c #B76C38",
", 	c #D57426",
"' 	c #D67423",
") 	c #B76B38",
"! 	c #63554E",
"~ 	c #494F50",
"{ 	c #49504F",
"] 	c #996342",
"^ 	c #D87421",
"/ 	c #C76009",
"( 	c #BC5400",
"_ 	c #BB5400",
": 	c #D97421",
"< 	c #976142",
"[ 	c #484F4F",
"} 	c #494F4F",
"| 	c #996242",
"1 	c #D6711C",
"2 	c #BC5501",
"3 	c #BD5501",
"4 	c #D6701C",
"5 	c #976042",
"6 	c #484F4E",
"7 	c #484E4E",
"8 	c #474F4E",
"9 	c #64554C",
"0 	c #D87420",
"a 	c #62534C",
"b 	c #484E4F",
"c 	c #474D4E",
"d 	c #474E4E",
"e 	c #B96B37",
"f 	c #B66B37",
"g 	c #484D4E",
"h 	c #474D4D",
"i 	c #474E4D",
"j 	c #D67425",
"k 	c #464D4D",
"l 	c #D77421",
"m 	c #D67422",
"n 	c #464D4C",
"o 	c #474D4C",
"p 	c #464C4C",
"q 	c #D67322",
"r 	c #464C4B",
"s 	c #454C4C",
"t 	c #D47425",
"u 	c #D57326",
"v 	c #454C4B",
"w 	c #454B4B",
"x 	c #B66935",
"y 	c #C86009",
"z 	c #B66936",
"A 	c #444B4B",
"B 	c #444A4A",
"C 	c #444B4A",
"D 	c #444A4B",
"E 	c #604F48",
"F 	c #5E5148",
"G 	c #444A49",
"H 	c #955E3E",
"I 	c #D56F1A",
"J 	c #D66F1B",
"K 	c #945D3F",
"L 	c #434A49",
"M 	c #965E3E",
"N 	c #D8741F",
"O 	c #C86109",
"P 	c #D9741F",
"Q 	c #945D3E",
"R 	c #434949",
"S 	c #434948",
"T 	c #605047",
"U 	c #B66933",
"V 	c #D47424",
"W 	c #D67220",
"X 	c #D67221",
"Y 	c #B66A34",
"Z 	c #5F4E46",
"` 	c #424949",
" .	c #424848",
"..	c #424747",
"+.	c #414847",
"@.	c #414748",
"#.	c #424748",
"$.	c #414747",
". . . . . . . . . . . . . . . . . . . . . . . . ",
"+ + + + + + + + + + + + + + + + + + + + + + + + ",
"+ + + + + + + + + + + + + + + + + + + + + + + + ",
"+ + + + + + + + + + + + + + + + + + + + + + + + ",
"@ + @ @ + @ @ + @ + @ + @ + @ + @ + @ + @ + + + ",
"# $ % # $ # $ % # $ # $ % # # $ % # $ $ % # @ $ ",
"& & * & & & & * & & & & * & & & * & & & * & * $ ",
"= * - = * = * - ; > , ' ' , ) ! - = * * - * - & ",
"~ { { ~ { ~ { ] ^ / ( _ _ ( / : < ~ { { { - ~ ~ ",
"[ [ } [ [ [ | 1 2 _ _ _ _ _ _ 3 4 5 [ [ } } } [ ",
"6 7 8 6 7 9 0 2 _ _ _ _ _ _ _ _ 3 : a 7 8 [ b b ",
"c d d c d e / _ _ _ _ _ _ _ _ _ _ / f d d d g 7 ",
"h h i h h , ( _ _ _ _ _ _ _ _ _ _ ( j h i i h h ",
"k k h k k l _ _ _ _ _ _ _ _ _ _ _ _ m k h k n o ",
"p p n p p m _ _ _ _ _ _ _ _ _ _ _ _ q p n p n p ",
"r s s r s t ( _ _ _ _ _ _ _ _ _ _ ( u s s p v w ",
"w w w w w x / _ _ _ _ _ _ _ _ _ _ y z w w w w A ",
"B C D B C E 0 3 _ _ _ _ _ _ _ _ 3 0 F C D A w B ",
"B B G B B B H I 3 _ _ _ _ _ _ 3 J K B B G B B B ",
"L L G L L L L M N / ( _ _ ( O P Q L L L G R R B ",
"R S R R S R S R T U V W X V Y Z R R S S R R ` R ",
"`  . .`  .`  . .`  .`  . .` `  . .`  . . . . . .",
"..+.@...+...+.@...+...+.@.....+.@...+.+.@.#. . .",
"$.$.$.$.$.$.$.$.$.$.$.$.$.$.$.$.$.$.$.$.$.@...$."};
