/* XPM */
static char * maximize_prelight_xpm[] = {
"24 24 115 2",
"  	c None",
". 	c #313133",
"+ 	c #4B5252",
"@ 	c #4B5151",
"# 	c #4A5152",
"$ 	c #4A5151",
"% 	c #4B5152",
"& 	c #4A5051",
"* 	c #495150",
"= 	c #4A5050",
"- 	c #495050",
"; 	c #65564D",
"> 	c #B76C38",
", 	c #D57426",
"' 	c #D67423",
") 	c #B76B38",
"! 	c #63554E",
"~ 	c #494F50",
"{ 	c #49504F",
"] 	c #996342",
"^ 	c #D87421",
"/ 	c #C76009",
"( 	c #BC5400",
"_ 	c #BB5400",
": 	c #D97421",
"< 	c #976142",
"[ 	c #484F4F",
"} 	c #494F4F",
"| 	c #996242",
"1 	c #D6711C",
"2 	c #BC5501",
"3 	c #BD5501",
"4 	c #D6701C",
"5 	c #976042",
"6 	c #484F4E",
"7 	c #484E4E",
"8 	c #474F4E",
"9 	c #64554C",
"0 	c #D87420",
"a 	c #C05F11",
"b 	c #DAA376",
"c 	c #DBA477",
"d 	c #CB7C3C",
"e 	c #62534C",
"f 	c #484E4F",
"g 	c #474D4E",
"h 	c #474E4E",
"i 	c #B96B37",
"j 	c #D59663",
"k 	c #FEFEFD",
"l 	c #FFFFFF",
"m 	c #DDAA80",
"n 	c #B66B37",
"o 	c #484D4E",
"p 	c #474D4D",
"q 	c #474E4D",
"r 	c #C06114",
"s 	c #D67425",
"t 	c #464D4D",
"u 	c #D77421",
"v 	c #DDA97F",
"w 	c #D89C6B",
"x 	c #D67422",
"y 	c #464D4C",
"z 	c #474D4C",
"A 	c #464C4C",
"B 	c #FFFEFE",
"C 	c #DDA87E",
"D 	c #D67322",
"E 	c #464C4B",
"F 	c #454C4C",
"G 	c #D47425",
"H 	c #D57326",
"I 	c #454C4B",
"J 	c #454B4B",
"K 	c #B66935",
"L 	c #C86009",
"M 	c #B66936",
"N 	c #444B4B",
"O 	c #444A4A",
"P 	c #444B4A",
"Q 	c #444A4B",
"R 	c #604F48",
"S 	c #CD8244",
"T 	c #DFAF88",
"U 	c #DFAF87",
"V 	c #C16418",
"W 	c #5E5148",
"X 	c #444A49",
"Y 	c #955E3E",
"Z 	c #D56F1A",
"` 	c #D66F1B",
" .	c #945D3F",
"..	c #434A49",
"+.	c #965E3E",
"@.	c #D8741F",
"#.	c #C86109",
"$.	c #D9741F",
"%.	c #945D3E",
"&.	c #434949",
"*.	c #434948",
"=.	c #605047",
"-.	c #B66933",
";.	c #D47424",
">.	c #D67220",
",.	c #D67221",
"'.	c #B66A34",
").	c #5F4E46",
"!.	c #424949",
"~.	c #424848",
"{.	c #424747",
"].	c #414847",
"^.	c #414748",
"/.	c #424748",
"(.	c #414747",
". . . . . . . . . . . . . . . . . . . . . . . . ",
"+ + + + + + + + + + + + + + + + + + + + + + + + ",
"+ + + + + + + + + + + + + + + + + + + + + + + + ",
"+ + + + + + + + + + + + + + + + + + + + + + + + ",
"@ + @ @ + @ @ + @ + @ + @ + @ + @ + @ + @ + + + ",
"# $ % # $ # $ % # $ # $ % # # $ % # $ $ % # @ $ ",
"& & * & & & & * & & & & * & & & * & & & * & * $ ",
"= * - = * = * - ; > , ' ' , ) ! - = * * - * - & ",
"~ { { ~ { ~ { ] ^ / ( _ _ ( / : < ~ { { { - ~ ~ ",
"[ [ } [ [ [ | 1 2 _ _ _ _ _ _ 3 4 5 [ [ } } } [ ",
"6 7 8 6 7 9 0 2 _ _ a b c c c d 3 : e 7 8 [ f f ",
"g h h g h i / _ _ _ _ j k l l m _ / n h h h o 7 ",
"p p q p p , ( _ r _ _ _ j k l m _ ( s p q q p p ",
"t t p t t u _ _ v w _ _ _ j k m _ _ x t p t y z ",
"A A y A A x _ _ m B w _ _ _ j C _ _ D A y A y A ",
"E F F E F G ( _ m l B w _ _ _ r _ ( H F F A I J ",
"J J J J J K / _ m l l B w _ _ _ _ L M J J J J N ",
"O P Q O P R 0 3 S T T T U V _ _ 3 0 W P Q N J O ",
"O O X O O O Y Z 3 _ _ _ _ _ _ 3 `  .O O X O O O ",
"....X ........+.@./ ( _ _ ( #.$.%.......X &.&.O ",
"&.*.&.&.*.&.*.&.=.-.;.>.,.;.'.).&.&.*.*.&.&.!.&.",
"!.~.~.!.~.!.~.~.!.~.!.~.~.!.!.~.~.!.~.~.~.~.~.~.",
"{.].^.{.].{.].^.{.].{.].^.{.{.].^.{.].].^./.~.~.",
"(.(.(.(.(.(.(.(.(.(.(.(.(.(.(.(.(.(.(.(.(.^.{.(."};
