/* XPM */
static char * stick_pressed_xpm[] = {
"24 36 117 2",
"  	c #323A3F",
". 	c #3F4C53",
"+ 	c #3F4C52",
"@ 	c #3E4C53",
"# 	c #3F4B53",
"$ 	c #3E4C52",
"% 	c #3E4B52",
"& 	c #3F4B52",
"* 	c #3E4B53",
"= 	c #3E4A52",
"- 	c #404A50",
"; 	c #424848",
"> 	c #101010",
", 	c #0A0A0A",
"' 	c #3D4B51",
") 	c #0B0D0D",
"! 	c #0E1212",
"~ 	c #0F1313",
"{ 	c #3D4A51",
"] 	c #0F1010",
"^ 	c #101514",
"/ 	c #111514",
"( 	c #111414",
"_ 	c #101414",
": 	c #101415",
"< 	c #111515",
"[ 	c #3D4A50",
"} 	c #111415",
"| 	c #3C4950",
"1 	c #3D4950",
"2 	c #404242",
"3 	c #B6B6B6",
"4 	c #E5E5E5",
"5 	c #FBFBFB",
"6 	c #101515",
"7 	c #3C494F",
"8 	c #888989",
"9 	c #DFDFDF",
"0 	c #D0D0D0",
"a 	c #8D8D8D",
"b 	c #3B3D3D",
"c 	c #3C3D3D",
"d 	c #3C4850",
"e 	c #121616",
"f 	c #121515",
"g 	c #121516",
"h 	c #414242",
"i 	c #3B494F",
"j 	c #3B484F",
"k 	c #121716",
"l 	c #121717",
"m 	c #D0D1D1",
"n 	c #131716",
"o 	c #131616",
"p 	c #131817",
"q 	c #131717",
"r 	c #131718",
"s 	c #8D8E8E",
"t 	c #3A484F",
"u 	c #141818",
"v 	c #141718",
"w 	c #141817",
"x 	c #3D3E3E",
"y 	c #3A484E",
"z 	c #141819",
"A 	c #141919",
"B 	c #151918",
"C 	c #151919",
"D 	c #151819",
"E 	c #3A474E",
"F 	c #161919",
"G 	c #8E8E8E",
"H 	c #15191A",
"I 	c #3A474D",
"J 	c #161A1A",
"K 	c #D1D1D1",
"L 	c #39464E",
"M 	c #171B1B",
"N 	c #171A1B",
"O 	c #424344",
"P 	c #171C1B",
"Q 	c #181B1B",
"R 	c #181C1C",
"S 	c #898989",
"T 	c #3E3F3F",
"U 	c #39464D",
"V 	c #434444",
"W 	c #39454D",
"X 	c #38464D",
"Y 	c #181C1D",
"Z 	c #191D1D",
"` 	c #181D1D",
" .	c #38454C",
"..	c #38454D",
"+.	c #191C1C",
"@.	c #191C1D",
"#.	c #181D1C",
"$.	c #39454C",
"%.	c #0F0F0F",
"&.	c #161B1B",
"*.	c #37444B",
"=.	c #394349",
"-.	c #0E0F0F",
";.	c #37454C",
">.	c #394449",
",.	c #38444B",
"'.	c #37444C",
").	c #545A5A",
"!.	c #5D6262",
"~.	c #5E6363",
"{.	c #37444A",
"].	c #37434B",
"^.	c #37434A",
"/.	c #36444B",
"(.	c #36444A",
"_.	c #36434B",
":.	c #36434A",
"                                                ",
". . . . . . . . . . . . . . . . . . . . . . . . ",
". + . . . + . . . . . @ . # $ # . . + . . + . + ",
". . # @ . . % + & . @ & & & % $ . + # & & @ # & ",
"@ % % + @ % $ & % + & @ $ # % # . & % & @ & $ % ",
"% % % % % % % % % % % % * % % % % % % % % % % % ",
"= - ; > , , , , , , , , , , , , , , , , > ; - % ",
"' ; ) ! ~ ~ ~ ~ ~ ~ ~ ~ ~ ~ ~ ~ ~ ~ ~ ~ ! ) ; % ",
"{ ] ^ / ( _ _ ( _ _ ( _ ( _ _ _ _ _ _ ( / ^ ] { ",
"{ , / : < _ _ < _ _ < _ < _ _ _ _ _ _ < : / , { ",
"[ , } ( ^ _ _ ^ _ _ ^ _ ^ _ _ _ _ _ _ ^ ( } , { ",
"| , _ ( _ _ _ _ _ _ _ _ _ _ _ _ _ _ _ _ ( _ , 1 ",
"| , : _ ( _ _ ( 2 3 4 5 5 4 3 2 6 _ _ ( _ : , 1 ",
"7 , < } } 6 / 8 9 0 a b c a 0 9 8 / 6 } } < , d ",
"d , e < f g h 9 3 g f g f g g 3 9 h g f < e , i ",
"j , k l e e 3 m e n e e e e n o m 3 e e l k , j ",
"j , p q q r 4 s r q q r q r q q s 4 r q q p , j ",
"t , u v w u 5 x u q w u w u q u x 5 u w v u , j ",
"y , z A B C 5 x C D B C B C D B x 5 C B A z , E ",
"E , C F F F 4 G F H F F F F H H s 4 F F F C , E ",
"I , J J J J 3 K J J J J J J J J K 3 J J J J , E ",
"L , M N M M O 9 3 N M M M M N 3 9 O M M N M , E ",
"I , P P Q R Q S 9 K G T T G K 9 S Q R Q P P , L ",
"U , R R R R R R V 3 4 5 5 4 3 V R R R R R R , U ",
"W , R R R R R R R R R R R R R R R R R R R R , X ",
"W , Y Z ` Y Y ` Y Y ` Y ` Y Y Y Y Y Y ` Z Y ,  .",
".., +.` @.+.+.@.+.+.@.+.@.+.+.#.#.+.+.@.` +., $.",
" .%.&.` ` ` ` ` ` ` ` ` ` ` ` ` ` ` ` ` ` &.%. .",
"*.=.-.&.` ` ` ` ` ` ` ` ` ` ` ` ` ` ` ` &.-.=. .",
";.>.>.] , , , , , , , , , , , , , , , , ] >.>.,.",
"'.=.=.).!.~.~.~.~.~.~.~.~.~.~.~.~.~.~.!.).=.=.*.",
"*.*.*.*.*.*.*.*.*.*.{.*.*.].*.{.*.*.].^.*.{.*.*.",
"/.{.^.^./.{.{.(.{._.(.*.^.].].*.*.(.].:.{./.:./.",
"^.(./.:.^.(.].].^._.:./._.^.{._._.:.:./.(.:.^.*.",
":.:.:.:.:.:.(.:.(.:.:.:.:.:.:./.:.:.:.:.:.:.(.:.",
":.:.:.:.:.:.:.:.:.:.:.:.:.:.:.:.:.:.:.:.:.:.:.:."};
