/* XPM */
static char * close_pressed_xpm[] = {
"28 36 145 2",
"  	c #313133",
". 	c #4B5252",
"+ 	c #4B5251",
"@ 	c #4A5251",
"# 	c #4A5152",
"$ 	c #4B5151",
"% 	c #4A5252",
"& 	c #4B5152",
"* 	c #4A5151",
"= 	c #495151",
"- 	c #4A5150",
"; 	c #495150",
"> 	c #495050",
", 	c #4A5051",
"' 	c #4A5050",
") 	c #495051",
"! 	c #494F50",
"~ 	c #484F4F",
"{ 	c #48504F",
"] 	c #49504F",
"^ 	c #47545C",
"/ 	c #3187C6",
"( 	c #15A0F0",
"_ 	c #03A9FB",
": 	c #00ABFD",
"< 	c #15A1F0",
"[ 	c #3286C6",
"} 	c #47545D",
"| 	c #485050",
"1 	c #494F4F",
"2 	c #3284C3",
"3 	c #02A9FB",
"4 	c #01A3F4",
"5 	c #0092E2",
"6 	c #0086D5",
"7 	c #0081D0",
"8 	c #0093E2",
"9 	c #01A2F4",
"0 	c #03AAFB",
"a 	c #3284C2",
"b 	c #494F4E",
"c 	c #474F4F",
"d 	c #484E4E",
"e 	c #484E4F",
"f 	c #485353",
"g 	c #1F98E6",
"h 	c #00A8FB",
"i 	c #008ADA",
"j 	c #007DCC",
"k 	c #008BDA",
"l 	c #2099E5",
"m 	c #474E4F",
"n 	c #474E4E",
"o 	c #474D4E",
"p 	c #00A4F6",
"q 	c #2097E4",
"r 	c #464D4E",
"s 	c #3084C3",
"t 	c #00A9FB",
"u 	c #3284C0",
"v 	c #474D4C",
"w 	c #464D4D",
"x 	c #475156",
"y 	c #03AAFC",
"z 	c #ACD5EE",
"A 	c #C5E1F3",
"B 	c #1487D0",
"C 	c #ABD4EE",
"D 	c #02AAFC",
"E 	c #445059",
"F 	c #464C4D",
"G 	c #454C4C",
"H 	c #464C4C",
"I 	c #3086C6",
"J 	c #FFFFFF",
"K 	c #D0E7F6",
"L 	c #CBE4F5",
"M 	c #2F85C4",
"N 	c #454C4B",
"O 	c #464C4B",
"P 	c #14A0F0",
"Q 	c #0093E1",
"R 	c #1186CF",
"S 	c #CCE5F5",
"T 	c #D1E8F6",
"U 	c #149FEE",
"V 	c #454B4B",
"W 	c #03A7FB",
"X 	c #D4EAF7",
"Y 	c #03A8FA",
"Z 	c #444B4B",
"` 	c #444A4B",
" .	c #444A4A",
"..	c #00ACFD",
"+.	c #0080D0",
"@.	c #CFE7F6",
"#.	c #D4E9F6",
"$.	c #00ABFE",
"%.	c #454B4A",
"&.	c #CFE7F5",
"*.	c #D5EAF7",
"=.	c #434A4A",
"-.	c #434A49",
";.	c #D3E9F6",
">.	c #03A7FA",
",.	c #44494A",
"'.	c #434949",
").	c #424949",
"!.	c #13A0F0",
"~.	c #14A0EF",
"{.	c #424948",
"].	c #424848",
"^.	c #2D84C5",
"/.	c #00A2F4",
"(.	c #C6E2F4",
"_.	c #00A3F6",
":.	c #2D85C3",
"<.	c #424849",
"[.	c #424847",
"}.	c #414C53",
"|.	c #02A8FC",
"1.	c #008BDB",
"2.	c #02A9FC",
"3.	c #404D57",
"4.	c #414747",
"5.	c #414748",
"6.	c #2E82C1",
"7.	c #00A9FA",
"8.	c #2E81BE",
"9.	c #424747",
"0.	c #1C98E5",
"a.	c #1D96E3",
"b.	c #414B4B",
"c.	c #1D97E4",
"d.	c #1D98E3",
"e.	c #2E82BF",
"f.	c #00A3F4",
"g.	c #0085D5",
"h.	c #02A8FB",
"i.	c #2E7FBD",
"j.	c #3F4C56",
"k.	c #2C84C4",
"l.	c #139FEF",
"m.	c #2D84C3",
"n.	c #414B52",
"                                                        ",
". . . . . . . . . . . . . . . . . . . . . . . . . . . . ",
". . . . . . . . . . . . . . . . . . . . . . . . . . . . ",
". . . . . . . . . . . . . . . . . . . . . . . . . . . . ",
"+ + + . @ # . + $ . $ . + % + . @ # . + + + + + & . + + ",
"$ $ $ * & $ + # # * & @ $ * $ * & $ + # $ * $ * # $ $ $ ",
"= = = = - ; * > , , ; - ' ) = = - ; * > - * * - * * = = ",
") ) ) > > ' > ) ' ; > > > ' ) > > ' > ) ) > > > ' > ) ) ",
"! ! ! ~ { ] > ! ! ^ / ( _ : : _ < [ } ! | { > ! ] > ! ! ",
"~ ~ ~ 1 ~ ~ ~ ~ 2 3 4 5 6 7 7 6 8 9 0 a 1 ~ ~ ~ b ~ ~ ~ ",
"c c c d e e f g h i j j j j j j j j k h l f m d d ~ c c ",
"n n n n o d g p 7 j j j j j j j j j j 7 p q o n n d n n ",
"o o o r o s h 7 j j j j j j j j j j j j 7 t u o o o o o ",
"v v v w x y i j j z A B j j j j B A C j j k D E F w v v ",
"G G G H I 4 j j j A J K B j j B K J L j j j 4 M H G G G ",
"N N N O P Q j j j R S J T B R S J K B j j j 8 U G G N N ",
"V V V V W 6 j j j j R S J X K J K B j j j j 6 Y V Z V V ",
"` ` `  ...+.j j j j j R @.J J #.B j j j j j 7 $.Z %.` ` ",
" . . . .: 7 j j j j j R &.J J *.B j j j j j 7 : =. . . .",
"=.=.=.-.W 6 j j j j R S J ;.K J T B j j j j 6 >.-.,.=.=.",
"'.'.'.).!.8 j j j R S J K B R S J T B j j j 8 ~.'.{.'.'.",
"].].].{.^./.j j j (.J K B j j B K J L j j j _.:.<.].].].",
"[.[.[.].}.|.k j j C L B j j j j B L C j j 1.2.3.].].[.[.",
"4.4.4.5.5.6.h 7 j j j j j j j j j j j j 7 7.8.4.9.9.4.4.",
"4.4.4.4.4.4.0.p 7 j j j j j j j j j j 7 p a.4.4.4.4.4.4.",
"4.4.4.4.4.4.b.c.t k j j j j j j j j 1.7.d.b.4.4.4.4.4.4.",
"4.4.4.4.4.4.4.4.e.3 f.8 g.7 7 6 5 _.h.i.4.4.4.4.4.4.4.4.",
"4.4.4.4.4.4.4.4.4.j.k.l.Y : : Y l.m.n.4.4.4.4.4.4.4.4.4.",
"4.4.4.4.4.4.4.4.4.4.4.4.4.4.4.4.4.4.4.4.4.4.4.4.4.4.4.4.",
"4.4.4.4.4.4.4.4.4.4.4.4.4.4.4.4.4.4.4.4.4.4.4.4.4.4.4.4.",
"4.4.4.4.4.4.4.4.4.4.4.4.4.4.4.4.4.4.4.4.4.4.4.4.4.4.4.4.",
"4.4.4.4.4.4.4.4.4.4.4.4.4.4.4.4.4.4.4.4.4.4.4.4.4.4.4.4.",
"4.4.4.4.4.4.4.4.4.4.4.4.4.4.4.4.4.4.4.4.4.4.4.4.4.4.4.4.",
"4.4.4.4.4.4.4.4.4.4.4.4.4.4.4.4.4.4.4.4.4.4.4.4.4.4.4.4.",
"4.4.4.4.4.4.4.4.4.4.4.4.4.4.4.4.4.4.4.4.4.4.4.4.4.4.4.4.",
"4.4.4.4.4.4.4.4.4.4.4.4.4.4.4.4.4.4.4.4.4.4.4.4.4.4.4.4."};
