/* XPM */
static char * close_prelight_xpm[] = {
"24 24 97 2",
"  	c None",
". 	c #313133",
"+ 	c #4B5252",
"@ 	c #4B5151",
"# 	c #4A5152",
"$ 	c #4A5151",
"% 	c #4B5152",
"& 	c #4A5051",
"* 	c #495150",
"= 	c #4A5050",
"- 	c #495050",
"; 	c #4B666C",
"> 	c #48B2CB",
", 	c #45CFEE",
"' 	c #41D1F2",
") 	c #45CDEE",
"! 	c #48B1CB",
"~ 	c #4A656A",
"{ 	c #494F50",
"] 	c #49504F",
"^ 	c #4996A8",
"/ 	c #42D2F3",
"( 	c #15CBFD",
"_ 	c #01C5FE",
": 	c #00C5FE",
"< 	c #16CCFD",
"[ 	c #4996A7",
"} 	c #484F4F",
"| 	c #494F4F",
"1 	c #4896A8",
"2 	c #39D2F7",
"3 	c #02C5FE",
"4 	c #4896A7",
"5 	c #484F4E",
"6 	c #484E4E",
"7 	c #474F4E",
"8 	c #49656A",
"9 	c #1CCBFE",
"0 	c #54D8FE",
"a 	c #496369",
"b 	c #484E4F",
"c 	c #474D4E",
"d 	c #474E4E",
"e 	c #47B1CB",
"f 	c #55D8FE",
"g 	c #FFFFFF",
"h 	c #7AE1FE",
"i 	c #46B0CA",
"j 	c #484D4E",
"k 	c #474D4D",
"l 	c #474E4D",
"m 	c #44CFEE",
"n 	c #74DFFE",
"o 	c #7DE1FE",
"p 	c #75E0FE",
"q 	c #7CE1FE",
"r 	c #45CEED",
"s 	c #464D4D",
"t 	c #41D1F1",
"u 	c #464D4C",
"v 	c #474D4C",
"w 	c #464C4C",
"x 	c #464C4B",
"y 	c #454C4C",
"z 	c #44CFED",
"A 	c #44CEED",
"B 	c #454C4B",
"C 	c #454B4B",
"D 	c #46B0C8",
"E 	c #444B4B",
"F 	c #444A4A",
"G 	c #444B4A",
"H 	c #444A4B",
"I 	c #456066",
"J 	c #41D2F3",
"K 	c #446065",
"L 	c #444A49",
"M 	c #4693A5",
"N 	c #38D1F7",
"O 	c #38D2F7",
"P 	c #4692A4",
"Q 	c #434A49",
"R 	c #4594A5",
"S 	c #17CCFD",
"T 	c #434949",
"U 	c #434948",
"V 	c #446167",
"W 	c #45B0CA",
"X 	c #40D1F1",
"Y 	c #45B0C9",
"Z 	c #424949",
"` 	c #424848",
" .	c #424747",
"..	c #414847",
"+.	c #414748",
"@.	c #424748",
"#.	c #414747",
". . . . . . . . . . . . . . . . . . . . . . . . ",
"+ + + + + + + + + + + + + + + + + + + + + + + + ",
"+ + + + + + + + + + + + + + + + + + + + + + + + ",
"+ + + + + + + + + + + + + + + + + + + + + + + + ",
"@ + @ @ + @ @ + @ + @ + @ + @ + @ + @ + @ + + + ",
"# $ % # $ # $ % # $ # $ % # # $ % # $ $ % # @ $ ",
"& & * & & & & * & & & & * & & & * & & & * & * $ ",
"= * - = * = * - ; > , ' ' ) ! ~ - = * * - * - & ",
"{ ] ] { ] { ] ^ / ( _ : : _ < / [ { ] ] ] - { { ",
"} } | } } } 1 2 3 : : : : : : 3 2 4 } } | | | } ",
"5 6 7 5 6 8 / 3 9 0 : : : : 0 9 3 / a 6 7 } b b ",
"c d d c d e < : f g h : : h g f : < i d d d j 6 ",
"k k l k k m _ : : n g o p g q : : _ r k l l k k ",
"s s k s s t : : : : n g g q : : : : ' s k s u v ",
"w w u w w t : : : : p g g o : : : : t w u w u w ",
"x y y x y z _ : : p g q n g o : : _ A y y w B C ",
"C C C C C i < : f g h : : h g f : < D C C C C E ",
"F G H F G I J 3 9 0 : : : : 0 9 3 J K G H E C F ",
"F F L F F F M N 3 : : : : : : 3 O P F F L F F F ",
"Q Q L Q Q Q Q R J < _ : : _ S / P Q Q Q L T T F ",
"T U T T U T U T V W z X X z Y K T T U U T T Z T ",
"Z ` ` Z ` Z ` ` Z ` Z ` ` Z Z ` ` Z ` ` ` ` ` ` ",
" ...+. ... ...+. ... ...+. . ...+. .....+.@.` ` ",
"#.#.#.#.#.#.#.#.#.#.#.#.#.#.#.#.#.#.#.#.#.+. .#."};
