/* XPM */
static char * close_active_xpm[] = {
"28 36 92 2",
"  	c #323A3F",
". 	c #414B51",
"+ 	c #414B50",
"@ 	c #414A50",
"# 	c #404A50",
"$ 	c #404950",
"% 	c #3F494F",
"& 	c #3D4E5C",
"* 	c #2A86C6",
"= 	c #11A0F0",
"- 	c #02A8FB",
"; 	c #00ABFD",
"> 	c #2B84C6",
", 	c #2B83C3",
"' 	c #02A9FB",
") 	c #00A3F4",
"! 	c #0092E2",
"~ 	c #0086D5",
"{ 	c #0081D0",
"] 	c #0093E2",
"^ 	c #00A2F4",
"/ 	c #02AAFB",
"( 	c #2C82C2",
"_ 	c #3F4D53",
": 	c #1B98E6",
"< 	c #00A8FB",
"[ 	c #008ADA",
"} 	c #007DCC",
"| 	c #008BDA",
"1 	c #1B99E5",
"2 	c #3E494E",
"3 	c #1A98E6",
"4 	c #00A4F6",
"5 	c #1B97E4",
"6 	c #3E484E",
"7 	c #00A9FB",
"8 	c #2B83C1",
"9 	c #3D484D",
"0 	c #3D4C57",
"a 	c #02A9FC",
"b 	c #02AAFC",
"c 	c #3D4D5A",
"d 	c #3D474D",
"e 	c #2985C6",
"f 	c #2984C4",
"g 	c #3D474E",
"h 	c #10A0F0",
"i 	c #0093E1",
"j 	c #119EEE",
"k 	c #02A7FB",
"l 	c #02A8FA",
"m 	c #3C464D",
"n 	c #00ACFD",
"o 	c #0080D0",
"p 	c #00ABFE",
"q 	c #3D474C",
"r 	c #3C464C",
"s 	c #02A7FA",
"t 	c #3B464B",
"u 	c #10A0EF",
"v 	c #3C454B",
"w 	c #2883C5",
"x 	c #00A3F6",
"y 	c #2984C3",
"z 	c #3B454B",
"A 	c #3B4956",
"B 	c #02A8FC",
"C 	c #008BDB",
"D 	c #3B4A59",
"E 	c #2881C1",
"F 	c #00A9FA",
"G 	c #2A80BF",
"H 	c #1998E5",
"I 	c #1A96E4",
"J 	c #3A444A",
"K 	c #3A484E",
"L 	c #1997E4",
"M 	c #1998E4",
"N 	c #3A454A",
"O 	c #2982C0",
"P 	c #0085D5",
"Q 	c #297FBE",
"R 	c #3A4958",
"S 	c #2783C4",
"T 	c #109FEF",
"U 	c #2784C3",
"V 	c #3A4855",
"W 	c #394349",
"X 	c #394449",
"Y 	c #384348",
"Z 	c #394348",
"` 	c #384248",
"                                                        ",
". . . . . . . . . . . . . . . . . . . . . . . . . . . . ",
". . . . . . . . . . . . . . . . . . . . . . . . . . . . ",
"+ + + + + + + + + + + + + + + + + + + + + + + + + + + + ",
"@ @ @ @ @ @ @ @ @ @ @ @ @ @ @ @ @ @ @ @ @ @ @ @ @ @ @ @ ",
"# # # # # # # # # # # # # # # # # # # # # # # # # # # # ",
"# # # # # # # # # # # # # # # # # # # # # # # # # # # # ",
"$ $ $ $ $ $ $ $ $ $ $ $ $ $ $ $ $ $ $ $ $ $ $ $ $ $ $ $ ",
"% % % % % % % % % & * = - ; ; - = > & % % % % % % % % % ",
"% % % % % % % % , ' ) ! ~ { { ~ ] ^ / ( % % % % % % % % ",
"% % % % % % _ : < [ } } } } } } } } | < 1 _ % % % % % % ",
"2 2 2 2 2 2 3 4 { } } } } } } } } } } { 4 5 2 2 2 2 2 2 ",
"6 6 6 6 6 , < { } } } } } } } } } } } } { 7 8 6 6 6 6 6 ",
"9 9 9 9 0 a [ } } } } } } } } } } } } } } | b c 9 9 9 9 ",
"d d d d e ) } } } } } } } } } } } } } } } } ) f d d d d ",
"g g g g h i } } } } } } } } } } } } } } } } ] j g g g g ",
"d d d d k ~ } } } } } } } } } } } } } } } } ~ l d d d d ",
"m m m m n o } } } } } } } } } } } } } } } } { p m m m m ",
"q q q q ; { } } } } } } } } } } } } } } } } { ; q q q q ",
"r r r r k ~ } } } } } } } } } } } } } } } } ~ s r r r r ",
"t t t t h ] } } } } } } } } } } } } } } } } ] u t t t t ",
"v v v v w ^ } } } } } } } } } } } } } } } } x y v v v v ",
"z z z z A B | } } } } } } } } } } } } } } C a D z z z z ",
"z z z z z E < { } } } } } } } } } } } } { F G z z z z z ",
"z z z z z z H 4 { } } } } } } } } } } { 4 I z z z z z z ",
"J J J J J J K L 7 | } } } } } } } } C F M K J J J J J J ",
"N N N N N N N N O ' ) ] P { { ~ ! x - Q N N N N N N N N ",
"J J J J J J J J J R S T l ; ; l T U V J J J J J J J J J ",
"W W W W W W W W W W W W W W W W W W W W W W W W W W W W ",
"X X X X X X X X X X X X X X X X X X X X X X X X X X X X ",
"W W W W W W W W W W W W W W W W W W W W W W W W W W W W ",
"W W W W W W W W W W W W W W W W W W W W W W W W W W W W ",
"Y Y Y Y Y Y Y Y Y Y Y Y Y Y Y Y Y Y Y Y Y Y Y Y Y Y Y Y ",
"Z Z Z Z Z Z Z Z Z Z Z Z Z Z Z Z Z Z Z Z Z Z Z Z Z Z Z Z ",
"` ` ` ` ` ` ` ` ` ` ` ` ` ` ` ` ` ` ` ` ` ` ` ` ` ` ` ` ",
"` ` ` ` ` ` ` ` ` ` ` ` ` ` ` ` ` ` ` ` ` ` ` ` ` ` ` ` "};
