/* XPM */
static char * close_active_xpm[] = {
"28 36 164 2",
"  	c #323A3F",
". 	c #3F4C53",
"+ 	c #3F4C52",
"@ 	c #3E4C53",
"# 	c #3F4B53",
"$ 	c #3E4C52",
"% 	c #3E4B52",
"& 	c #3F4B52",
"* 	c #3E4B53",
"= 	c #3E4A52",
"- 	c #3D4A52",
"; 	c #3D4B51",
"> 	c #3D4B52",
", 	c #3E4B51",
"' 	c #3E4A51",
") 	c #3F4A50",
"! 	c #404950",
"~ 	c #3F4951",
"{ 	c #3D4A51",
"] 	c #3E4950",
"^ 	c #3E4A56",
"/ 	c #346CA3",
"( 	c #2386D6",
"_ 	c #1293F0",
": 	c #0897F8",
"< 	c #2386D5",
"[ 	c #346BA3",
"} 	c #346AA0",
"| 	c #1094F1",
"1 	c #0893EF",
"2 	c #018BE2",
"3 	c #0083D5",
"4 	c #007FD0",
"5 	c #1195F0",
"6 	c #356AA0",
"7 	c #3D4A50",
"8 	c #3C4A51",
"9 	c #3D4951",
"0 	c #3F4B51",
"a 	c #2A7DC6",
"b 	c #0797F7",
"c 	c #0085DA",
"d 	c #007DCC",
"e 	c #0086DA",
"f 	c #0798F7",
"g 	c #2A7EC5",
"h 	c #3C4951",
"i 	c #3C4950",
"j 	c #3E494F",
"k 	c #297DC6",
"l 	c #0794F2",
"m 	c #0080D0",
"n 	c #2A7CC4",
"o 	c #3C4A50",
"p 	c #3D4950",
"q 	c #3D484F",
"r 	c #3469A0",
"s 	c #346A9E",
"t 	c #3B4950",
"u 	c #3C494F",
"v 	c #1095F1",
"w 	c #3D4954",
"x 	c #3C4850",
"y 	c #3C484F",
"z 	c #326BA3",
"A 	c #326BA1",
"B 	c #3B494F",
"C 	c #3B4850",
"D 	c #3B484F",
"E 	c #3D474E",
"F 	c #2186D6",
"G 	c #018BE1",
"H 	c #018CE2",
"I 	c #2284D4",
"J 	c #3C474E",
"K 	c #3D474D",
"L 	c #1192F0",
"M 	c #1193EF",
"N 	c #3A484F",
"O 	c #3C464D",
"P 	c #0699F9",
"Q 	c #0798F9",
"R 	c #3B474F",
"S 	c #3A484E",
"T 	c #3D474C",
"U 	c #0799F9",
"V 	c #0797F8",
"W 	c #3A474E",
"X 	c #3A474F",
"Y 	c #3B474E",
"Z 	c #3C464C",
"` 	c #1092F0",
" .	c #1192EF",
"..	c #3A474D",
"+.	c #3B464C",
"@.	c #2186D5",
"#.	c #2185D3",
"$.	c #39464E",
"%.	c #3B464D",
"&.	c #3169A1",
"*.	c #0893F1",
"=.	c #3269A0",
"-.	c #39474E",
";.	c #39464D",
">.	c #3A464D",
",.	c #39474D",
"'.	c #3B4751",
").	c #1093F0",
"!.	c #0086DB",
"~.	c #0F94F1",
"{.	c #3B4652",
"].	c #3A454C",
"^.	c #31689E",
"/.	c #0698F7",
"(.	c #0697F6",
"_.	c #32679C",
":.	c #39454D",
"<.	c #277DC5",
"[.	c #0694F2",
"}.	c #287AC3",
"|.	c #38464D",
"1.	c #39454C",
"2.	c #38464C",
"3.	c #3A464C",
"4.	c #277BC3",
"5.	c #0697F7",
"6.	c #0597F6",
"7.	c #39464C",
"8.	c #38454C",
"9.	c #38454D",
"0.	c #39454B",
"a.	c #31689D",
"b.	c #0F94F0",
"c.	c #0793EF",
"d.	c #0082D5",
"e.	c #0793F1",
"f.	c #0F93EF",
"g.	c #31669B",
"h.	c #3A454B",
"i.	c #39444B",
"j.	c #3A4551",
"k.	c #306AA0",
"l.	c #2084D4",
"m.	c #1093EF",
"n.	c #3069A0",
"o.	c #3A4650",
"p.	c #37454C",
"q.	c #37444B",
"r.	c #37454B",
"s.	c #38444A",
"t.	c #39434A",
"u.	c #394349",
"v.	c #39444A",
"w.	c #38454B",
"x.	c #38444C",
"y.	c #37444C",
"z.	c #38444B",
"A.	c #37444A",
"B.	c #37434B",
"C.	c #37434A",
"D.	c #36444B",
"E.	c #36444A",
"F.	c #36434B",
"G.	c #36434A",
"                                                        ",
". . . . . . . . . . . . . . . . . . . . . . . . . . . . ",
". . . + . . . + . . . . . @ . # $ # . . + . . + . + . + ",
"# @ . . # @ . . % + & . @ & & & % $ . + # & & @ # & . . ",
"% + @ % % + @ % $ & % + & @ $ # % # . & % & @ & $ % $ + ",
"% % % % % % % % % % % % % % * % % % % % % % % % % % % % ",
"% % = = % % = = % = % - % % ; ; % = > % > = , % % % % , ",
", = ; > , = ; > ; - ' ) ! ! ! ! ~ ' - { ; - { { - % ; { ",
"- ' { { - ' { { ] ^ / ( _ : : _ < [ ^ ] - { ' { - { ; { ",
"{ { { { { { { ] } | 1 2 3 4 4 3 2 1 5 6 ] { { { { { { 7 ",
"8 9 7 7 8 9 0 a b c d d d d d d d d e f g , 9 { h { h h ",
"i { i i i j k l 4 d d d d d d d d d d m l n j o h p p h ",
"i h i i q r b m d d d d d d d d d d d d 4 f s q i p i i ",
"t u u u - | e d d d d d d d d d d d d d d e v w x x i x ",
"u y x y z 1 d d d d d d d d d d d d d d d d 1 A y B y C ",
"y u D E F G d d d d d d d d d d d d d d d d H I J D D D ",
"D D D K L 3 d d d d d d d d d d d d d d d d 3 M K D D D ",
"D N N O P 4 d d d d d d d d d d d d d d d d 4 Q O D D D ",
"R R S T U m d d d d d d d d d d d d d d d d m V T W X S ",
"S Y W Z ` 3 d d d d d d d d d d d d d d d d 3  .Z W S Y ",
"W W ..+.@.2 d d d d d d d d d d d d d d d d 2 #.+.W W W ",
"..W $.%.&.1 d d d d d d d d d d d d d d d d *.=.+.W -.;.",
">.,...,.'.).e d d d d d d d d d d d d d d !.~.{.$.$.$.$.",
";.;.;.;.].^./.4 d d d d d d d d d d d d 4 (._.].;.;.;.;.",
";.:.:.;.;.].<.[.4 d d d d d d d d d d 4 [.}.].:.;.|.1.;.",
"|.|.:.2.|.2.3.4.5.e d d d d d d d d !.6.4.3.7.|.8.8.|.9.",
"9.7.9.8.9.7.8.0.a.b.c.2 d.m m 3 2 e.f.g.h.2.8.8.2.1.9.8.",
"8.8.8.8.8.8.8.8.i.j.k.l.m.V V m.l.n.o.i.8.8.8.8.8.8.8.8.",
"p.8.q.r.p.8.q.r.p.8.s.t.u.u.u.u.v.s.8.8.w.8.x.w.8.8.8.p.",
"y.r.p.8.y.r.p.8.p.8.w.z.8.x.r.8.p.z.r.8.y.q.8.r.q.z.q.y.",
"r.q.y.q.r.q.y.q.y.q.z.q.q.q.q.q.y.q.q.y.z.r.r.q.z.q.q.q.",
"q.q.q.q.q.q.q.q.q.q.q.q.A.q.q.B.q.A.q.q.B.C.q.A.q.q.q.B.",
"C.C.D.A.C.C.D.A.A.E.A.F.E.q.C.B.B.q.q.E.B.G.A.D.G.D.q.C.",
"D.G.C.E.D.G.C.E.B.B.C.F.G.D.F.C.A.F.F.G.G.D.E.G.C.q.G.G.",
"G.G.G.G.G.G.G.G.E.G.E.G.G.G.G.G.G.D.G.G.G.G.G.G.E.G.F.G.",
"G.G.G.G.G.G.G.G.G.G.G.G.G.G.G.G.G.G.G.G.G.G.G.G.G.G.G.G."};
