/* XPM */
static char * close_prelight_xpm[] = {
"24 24 103 2",
"  	c None",
". 	c #313133",
"+ 	c #4B5252",
"@ 	c #4B5151",
"# 	c #4A5152",
"$ 	c #4A5151",
"% 	c #4B5152",
"& 	c #4A5051",
"* 	c #495150",
"= 	c #4A5050",
"- 	c #495050",
"; 	c #47596C",
"> 	c #307FC6",
", 	c #1B8FE6",
"' 	c #1790E8",
") 	c #46596A",
"! 	c #494F50",
"~ 	c #49504F",
"{ 	c #3B6EA5",
"] 	c #1490EA",
"^ 	c #0285D9",
"/ 	c #007DCC",
"( 	c #1591EB",
"_ 	c #3B6FA5",
": 	c #484F4F",
"< 	c #494F4F",
"[ 	c #3A6DA5",
"} 	c #108DE8",
"| 	c #007ECD",
"1 	c #108EE8",
"2 	c #484F4E",
"3 	c #484E4E",
"4 	c #474F4E",
"5 	c #44596A",
"6 	c #1C8BD2",
"7 	c #54A8DD",
"8 	c #1491EB",
"9 	c #455769",
"0 	c #484E4F",
"a 	c #474D4E",
"b 	c #474E4E",
"c 	c #2E80C7",
"d 	c #55A8DD",
"e 	c #FFFFFF",
"f 	c #7ABBE4",
"g 	c #2F7DC5",
"h 	c #484D4E",
"i 	c #474D4D",
"j 	c #474E4D",
"k 	c #1A8EE7",
"l 	c #74B8E3",
"m 	c #7DBDE5",
"n 	c #75B9E3",
"o 	c #7CBCE5",
"p 	c #1A8FE7",
"q 	c #464D4D",
"r 	c #1590E9",
"s 	c #1590E8",
"t 	c #464D4C",
"u 	c #474D4C",
"v 	c #464C4C",
"w 	c #158FE8",
"x 	c #464C4B",
"y 	c #454C4C",
"z 	c #198EE7",
"A 	c #454C4B",
"B 	c #454B4B",
"C 	c #2D7EC5",
"D 	c #0286D9",
"E 	c #2E7DC5",
"F 	c #444B4B",
"G 	c #444A4A",
"H 	c #444B4A",
"I 	c #444A4B",
"J 	c #425367",
"K 	c #1391EB",
"L 	c #425265",
"M 	c #444A49",
"N 	c #376CA3",
"O 	c #0E8DE7",
"P 	c #0E8EE7",
"Q 	c #386CA2",
"R 	c #434A49",
"S 	c #366DA4",
"T 	c #1291EB",
"U 	c #0185D9",
"V 	c #376CA2",
"W 	c #434949",
"X 	c #434948",
"Y 	c #405467",
"Z 	c #2B7DC4",
"` 	c #188EE7",
" .	c #148FE8",
"..	c #188DE6",
"+.	c #2C7DC5",
"@.	c #415265",
"#.	c #424949",
"$.	c #424848",
"%.	c #424747",
"&.	c #414847",
"*.	c #414748",
"=.	c #424748",
"-.	c #414747",
". . . . . . . . . . . . . . . . . . . . . . . . ",
"+ + + + + + + + + + + + + + + + + + + + + + + + ",
"+ + + + + + + + + + + + + + + + + + + + + + + + ",
"+ + + + + + + + + + + + + + + + + + + + + + + + ",
"@ + @ @ + @ @ + @ + @ + @ + @ + @ + @ + @ + + + ",
"# $ % # $ % # $ # $ # $ # $ # $ # $ # $ % # @ $ ",
"& & * & & * & & & & & & & & & & & & & & * & * $ ",
"= * - = * - = * ; > , ' ' , > ) = * = * - * - & ",
"! ~ ~ ! ~ ~ ! { ] ^ / / / / ^ ( _ ~ ! ~ ~ - ! ! ",
": : < : : < [ } | / / / / / / | 1 _ : : < < < : ",
"2 3 4 2 3 5 ] | 6 7 / / / / 7 6 | 8 9 3 4 : 0 0 ",
"a b b a b c ^ / d e f / / f e d / ^ g b b b h 3 ",
"i i j i i k / / / l e m n e o / / / p i j j i i ",
"q q i q q r / / / / l e e o / / / / s q i q t u ",
"v v t v v s / / / / n e e m / / / / w v t v t v ",
"x y y x y z / / / n e o l e m / / / k y y v A B ",
"B B B B B C ^ / d e f / / f e d / D E B B B B F ",
"G H I G H J K | 6 7 / / / / 7 6 | K L H I F B G ",
"G G M G G M N O | / / / / / / | P Q G G M G G G ",
"R R M R R M R S T U / / / / U T V R R R M W W G ",
"W X W W X W W X Y Z `  . ...+.@.W X W X W W #.W ",
"#.$.$.#.$.$.#.$.#.$.#.$.#.$.#.$.#.$.#.$.$.$.$.$.",
"%.&.*.%.&.*.%.&.%.&.%.&.%.&.%.&.%.&.%.&.*.=.$.$.",
"-.-.-.-.-.-.-.-.-.-.-.-.-.-.-.-.-.-.-.-.-.*.%.-."};
