/* XPM */
static char * close_active_xpm[] = {
"24 24 94 2",
"  	c None",
". 	c #313133",
"+ 	c #4B5252",
"@ 	c #4B5151",
"# 	c #4A5152",
"$ 	c #4A5151",
"% 	c #4B5152",
"& 	c #4A5051",
"* 	c #495150",
"= 	c #4A5050",
"- 	c #495050",
"; 	c #47596C",
"> 	c #307FC6",
", 	c #1B8FE6",
"' 	c #1790E8",
") 	c #46596A",
"! 	c #494F50",
"~ 	c #49504F",
"{ 	c #3B6EA5",
"] 	c #1490EA",
"^ 	c #0285D9",
"/ 	c #007DCC",
"( 	c #1591EB",
"_ 	c #3B6FA5",
": 	c #484F4F",
"< 	c #494F4F",
"[ 	c #3A6DA5",
"} 	c #108DE8",
"| 	c #007ECD",
"1 	c #108EE8",
"2 	c #484F4E",
"3 	c #484E4E",
"4 	c #474F4E",
"5 	c #44596A",
"6 	c #1491EB",
"7 	c #455769",
"8 	c #484E4F",
"9 	c #474D4E",
"0 	c #474E4E",
"a 	c #2E80C7",
"b 	c #2F7DC5",
"c 	c #484D4E",
"d 	c #474D4D",
"e 	c #474E4D",
"f 	c #1A8EE7",
"g 	c #1A8FE7",
"h 	c #464D4D",
"i 	c #1590E9",
"j 	c #1590E8",
"k 	c #464D4C",
"l 	c #474D4C",
"m 	c #464C4C",
"n 	c #158FE8",
"o 	c #464C4B",
"p 	c #454C4C",
"q 	c #198EE7",
"r 	c #454C4B",
"s 	c #454B4B",
"t 	c #2D7EC5",
"u 	c #0286D9",
"v 	c #2E7DC5",
"w 	c #444B4B",
"x 	c #444A4A",
"y 	c #444B4A",
"z 	c #444A4B",
"A 	c #425367",
"B 	c #1391EB",
"C 	c #425265",
"D 	c #444A49",
"E 	c #376CA3",
"F 	c #0E8DE7",
"G 	c #0E8EE7",
"H 	c #386CA2",
"I 	c #434A49",
"J 	c #366DA4",
"K 	c #1291EB",
"L 	c #0185D9",
"M 	c #376CA2",
"N 	c #434949",
"O 	c #434948",
"P 	c #405467",
"Q 	c #2B7DC4",
"R 	c #188EE7",
"S 	c #148FE8",
"T 	c #188DE6",
"U 	c #2C7DC5",
"V 	c #415265",
"W 	c #424949",
"X 	c #424848",
"Y 	c #424747",
"Z 	c #414847",
"` 	c #414748",
" .	c #424748",
"..	c #414747",
". . . . . . . . . . . . . . . . . . . . . . . . ",
"+ + + + + + + + + + + + + + + + + + + + + + + + ",
"+ + + + + + + + + + + + + + + + + + + + + + + + ",
"+ + + + + + + + + + + + + + + + + + + + + + + + ",
"@ + @ @ + @ @ + @ + @ + @ + @ + @ + @ + @ + + + ",
"# $ % # $ % # $ # $ # $ # $ # $ # $ # $ % # @ $ ",
"& & * & & * & & & & & & & & & & & & & & * & * $ ",
"= * - = * - = * ; > , ' ' , > ) = * = * - * - & ",
"! ~ ~ ! ~ ~ ! { ] ^ / / / / ^ ( _ ~ ! ~ ~ - ! ! ",
": : < : : < [ } | / / / / / / | 1 _ : : < < < : ",
"2 3 4 2 3 5 ] | / / / / / / / / | 6 7 3 4 : 8 8 ",
"9 0 0 9 0 a ^ / / / / / / / / / / ^ b 0 0 0 c 3 ",
"d d e d d f / / / / / / / / / / / / g d e e d d ",
"h h d h h i / / / / / / / / / / / / j h d h k l ",
"m m k m m j / / / / / / / / / / / / n m k m k m ",
"o p p o p q / / / / / / / / / / / / f p p m r s ",
"s s s s s t ^ / / / / / / / / / / u v s s s s w ",
"x y z x y A B | / / / / / / / / | B C y z w s x ",
"x x D x x D E F | / / / / / / | G H x x D x x x ",
"I I D I I D I J K L / / / / L K M I I I D N N x ",
"N O N N O N N O P Q R S S T U V N O N O N N W N ",
"W X X W X X W X W X W X W X W X W X W X X X X X ",
"Y Z ` Y Z ` Y Z Y Z Y Z Y Z Y Z Y Z Y Z `  .X X ",
"..........................................` Y .."};
