/* XPM */
static char * close_prelight_xpm[] = {
"28 36 198 2",
"  	c #323A3F",
". 	c #3F4C53",
"+ 	c #3F4C52",
"@ 	c #3E4C53",
"# 	c #3F4B53",
"$ 	c #3E4C52",
"% 	c #3E4B52",
"& 	c #3F4B52",
"* 	c #3E4B53",
"= 	c #3E4A52",
"- 	c #3D4A52",
"; 	c #3D4B51",
"> 	c #3D4B52",
", 	c #3E4B51",
"' 	c #434D51",
") 	c #464F50",
"! 	c #484F50",
"~ 	c #4A5050",
"{ 	c #495051",
"] 	c #464E51",
"^ 	c #3D4A51",
"/ 	c #3E4A51",
"( 	c #444D50",
"_ 	c #475156",
": 	c #3C6FA3",
"< 	c #2987D6",
"[ 	c #1694F0",
"} 	c #0A97F8",
"| 	c #1594F0",
"1 	c #2987D5",
"2 	c #3D6EA3",
"3 	c #475157",
"4 	c #404B51",
"5 	c #454E50",
"6 	c #3C6CA0",
"7 	c #1494F1",
"8 	c #0B93EF",
"9 	c #018BE2",
"0 	c #0083D5",
"a 	c #007FD0",
"b 	c #1495F0",
"c 	c #3C6DA0",
"d 	c #464E50",
"e 	c #3D4A50",
"f 	c #3C4A51",
"g 	c #3D4951",
"h 	c #404A51",
"i 	c #464F51",
"j 	c #307EC6",
"k 	c #0997F7",
"l 	c #0085DA",
"m 	c #007DCC",
"n 	c #0086DA",
"o 	c #0998F7",
"p 	c #317FC5",
"q 	c #3C4951",
"r 	c #3C4950",
"s 	c #3D4950",
"t 	c #454D4F",
"u 	c #0994F2",
"v 	c #0080D0",
"w 	c #317DC4",
"x 	c #454C4F",
"y 	c #424B4F",
"z 	c #3A6BA0",
"A 	c #3C6C9D",
"B 	c #3B4950",
"C 	c #3C494F",
"D 	c #3D494F",
"E 	c #1495F1",
"F 	c #ACD5EE",
"G 	c #C5E1F3",
"H 	c #1487D0",
"I 	c #ABD4EE",
"J 	c #1395F1",
"K 	c #444D53",
"L 	c #3D4850",
"M 	c #3C4850",
"N 	c #3C484F",
"O 	c #414A4E",
"P 	c #3A6DA2",
"Q 	c #0A93EF",
"R 	c #FFFFFF",
"S 	c #D0E7F6",
"T 	c #CBE4F5",
"U 	c #396DA1",
"V 	c #3B494F",
"W 	c #3B4850",
"X 	c #3B484F",
"Y 	c #434B4C",
"Z 	c #2787D6",
"` 	c #018BE1",
" .	c #1186CF",
"..	c #CCE5F5",
"+.	c #D1E8F6",
"@.	c #018CE2",
"#.	c #2885D3",
"$.	c #424B4D",
"%.	c #444B4B",
"&.	c #1492EF",
"*.	c #D4EAF7",
"=.	c #1493EF",
"-.	c #3A484F",
";.	c #444A4A",
">.	c #0799F9",
",.	c #CFE7F6",
"'.	c #D4E9F6",
").	c #0998F9",
"!.	c #3B474F",
"~.	c #3A484E",
"{.	c #0899F8",
"].	c #CFE7F5",
"^.	c #D5EAF7",
"/.	c #0997F8",
"(.	c #434A4A",
"_.	c #3A474E",
":.	c #3A474F",
"<.	c #3B474E",
"[.	c #424A4A",
"}.	c #1392EF",
"|.	c #D3E9F6",
"1.	c #3A474D",
"2.	c #40484B",
"3.	c #2686D5",
"4.	c #2685D3",
"5.	c #39464E",
"6.	c #3E474B",
"7.	c #376BA1",
"8.	c #0993EF",
"9.	c #C6E2F4",
"0.	c #0993F1",
"a.	c #376B9F",
"b.	c #39474E",
"c.	c #39464D",
"d.	c #3A464D",
"e.	c #39474D",
"f.	c #1293F0",
"g.	c #0086DB",
"h.	c #1294F1",
"i.	c #414950",
"j.	c #3D474A",
"k.	c #37699D",
"l.	c #0898F6",
"m.	c #0797F6",
"n.	c #37689B",
"o.	c #39454D",
"p.	c #3F4649",
"q.	c #2C7DC4",
"r.	c #0794F2",
"s.	c #2C7AC2",
"t.	c #3A454D",
"u.	c #38464D",
"v.	c #39454C",
"w.	c #38464C",
"x.	c #3A464C",
"y.	c #3F484A",
"z.	c #2C7BC3",
"A.	c #0798F6",
"B.	c #2C7CC2",
"C.	c #3B464C",
"D.	c #38454C",
"E.	c #38454D",
"F.	c #39464C",
"G.	c #3F4648",
"H.	c #37699C",
"I.	c #1294F0",
"J.	c #0082D5",
"K.	c #1293EF",
"L.	c #37679A",
"M.	c #3A464B",
"N.	c #3D4649",
"O.	c #40484F",
"P.	c #366BA0",
"Q.	c #2584D4",
"R.	c #1393EF",
"S.	c #0897F8",
"T.	c #366A9F",
"U.	c #40494D",
"V.	c #37454C",
"W.	c #37444B",
"X.	c #37454B",
"Y.	c #3C4649",
"Z.	c #3E4648",
"`.	c #404748",
" +	c #414747",
".+	c #404747",
"++	c #3E4649",
"@+	c #38454B",
"#+	c #38444C",
"$+	c #37444C",
"%+	c #38444B",
"&+	c #37444A",
"*+	c #37434B",
"=+	c #37434A",
"-+	c #36444B",
";+	c #36444A",
">+	c #36434B",
",+	c #36434A",
"                                                        ",
". . . . . . . . . . . . . . . . . . . . . . . . . . . . ",
". . . + . . . + . . . . . @ . # $ # . . + . . + . + . + ",
"# @ . . # @ . . % + & . @ & & & % $ . + # & & @ # & . . ",
"% + @ % % + @ % $ & % + & @ $ # % # . & % & @ & $ % $ + ",
"% % % % % % % % % % % % % % * % % % % % % % % % % % % % ",
"% % = = % % = = % = % - % % ; ; % = > % > = , % % % % , ",
", = ; > , = ; > ; % ' ) ! ~ { ! ] ' % ^ ; - ^ ^ - % ; ^ ",
"- / ^ ^ - / ^ / ( _ : < [ } } | 1 2 3 ( = ^ / ^ - ^ ; ^ ",
"^ ^ ^ ^ ^ ^ 4 5 6 7 8 9 0 a a 0 9 8 b c d 4 ^ ^ ^ ^ ^ e ",
"f g e e f h i j k l m m m m m m m m n o p i h ^ q ^ q q ",
"r ^ r r s t j u a m m m m m m m m m m v u w x e q s s q ",
"r q r r y z k v m m m m m m m m m m m m a o A y r s r r ",
"B C C D i E n m m F G H m m m m H G I m m n J K L M r M ",
"C N M O P Q m m m G R S H m m H S R T m m m Q U O V N W ",
"N C X Y Z ` m m m  ...R +.H  ...R S H m m m @.#.$.X X X ",
"X X X %.&.0 m m m m  ...R *.S R S H m m m m 0 =.%.X X X ",
"X -.-.;.>.a m m m m m  .,.R R '.H m m m m m a ).%.X X X ",
"!.!.~.;.{.v m m m m m  .].R R ^.H m m m m m v /.(._.:.~.",
"~.<._.[.}.0 m m m m  ...R |.S R +.H m m m m 0 &.[._.~.<.",
"_._.1.2.3.9 m m m  ...R S H  ...R +.H m m m 9 4.2._._._.",
"1._.5.6.7.8.m m m 9.R S H m m H S R T m m m 0.a.6._.b.c.",
"d.e.1.1.O f.n m m I T H m m m m H T I m m g.h.i.d.5.5.5.",
"c.c.c.c.j.k.l.a m m m m m m m m m m m m a m.n.j.c.c.c.c.",
"c.o.o.c.d.p.q.r.a m m m m m m m m m m a r.s.p.t.c.u.v.c.",
"u.u.o.w.u.x.y.z.A.n m m m m m m m m g.m.B.y.C.u.D.D.u.E.",
"E.F.E.D.E.F.x.G.H.I.8.9 J.v v 0 9 0.K.L.G.M.D.D.w.v.E.D.",
"D.D.D.D.D.D.D.v.N.O.P.Q.R.S.S.R.Q.T.U.N.v.D.D.D.D.D.D.D.",
"V.D.W.X.V.D.W.X.V.v.Y.Z.`. + +.+++Y.v.D.@+D.#+@+D.D.D.V.",
"$+X.V.D.$+X.V.D.V.D.@+%+D.#+X.D.V.%+X.D.$+W.D.X.W.%+W.$+",
"X.W.$+W.X.W.$+W.$+W.%+W.W.W.W.W.$+W.W.$+%+X.X.W.%+W.W.W.",
"W.W.W.W.W.W.W.W.W.W.W.W.&+W.W.*+W.&+W.W.*+=+W.&+W.W.W.*+",
"=+=+-+&+=+=+-+&+&+;+&+>+;+W.=+*+*+W.W.;+*+,+&+-+,+-+W.=+",
"-+,+=+;+-+,+=+;+*+*+=+>+,+-+>+=+&+>+>+,+,+-+;+,+=+W.,+,+",
",+,+,+,+,+,+,+,+;+,+;+,+,+,+,+,+,+-+,+,+,+,+,+,+;+,+>+,+",
",+,+,+,+,+,+,+,+,+,+,+,+,+,+,+,+,+,+,+,+,+,+,+,+,+,+,+,+"};
