/* XPM */
static char * close_active_xpm[] = {
"24 24 88 1",
" 	c None",
".	c #313133",
"+	c #4B5252",
"@	c #4B5151",
"#	c #4A5152",
"$	c #4A5151",
"%	c #4B5152",
"&	c #4A5051",
"*	c #495150",
"=	c #4A5050",
"-	c #495050",
";	c #4B666C",
">	c #48B2CB",
",	c #45CFEE",
"'	c #41D1F2",
")	c #45CDEE",
"!	c #48B1CB",
"~	c #4A656A",
"{	c #494F50",
"]	c #49504F",
"^	c #4996A8",
"/	c #42D2F3",
"(	c #15CBFD",
"_	c #01C5FE",
":	c #00C5FE",
"<	c #16CCFD",
"[	c #4996A7",
"}	c #484F4F",
"|	c #494F4F",
"1	c #4896A8",
"2	c #39D2F7",
"3	c #02C5FE",
"4	c #4896A7",
"5	c #484F4E",
"6	c #484E4E",
"7	c #474F4E",
"8	c #49656A",
"9	c #496369",
"0	c #484E4F",
"a	c #474D4E",
"b	c #474E4E",
"c	c #47B1CB",
"d	c #46B0CA",
"e	c #484D4E",
"f	c #474D4D",
"g	c #474E4D",
"h	c #44CFEE",
"i	c #45CEED",
"j	c #464D4D",
"k	c #41D1F1",
"l	c #464D4C",
"m	c #474D4C",
"n	c #464C4C",
"o	c #464C4B",
"p	c #454C4C",
"q	c #44CFED",
"r	c #44CEED",
"s	c #454C4B",
"t	c #454B4B",
"u	c #46B0C8",
"v	c #444B4B",
"w	c #444A4A",
"x	c #444B4A",
"y	c #444A4B",
"z	c #456066",
"A	c #41D2F3",
"B	c #446065",
"C	c #444A49",
"D	c #4693A5",
"E	c #38D1F7",
"F	c #38D2F7",
"G	c #4692A4",
"H	c #434A49",
"I	c #4594A5",
"J	c #17CCFD",
"K	c #434949",
"L	c #434948",
"M	c #446167",
"N	c #45B0CA",
"O	c #40D1F1",
"P	c #45B0C9",
"Q	c #424949",
"R	c #424848",
"S	c #424747",
"T	c #414847",
"U	c #414748",
"V	c #424748",
"W	c #414747",
"........................",
"++++++++++++++++++++++++",
"++++++++++++++++++++++++",
"++++++++++++++++++++++++",
"@+@@+@@+@+@+@+@+@+@+@+++",
"#$%#$#$%#$#$%##$%#$$%#@$",
"&&*&&&&*&&&&*&&&*&&&*&*$",
"=*-=*=*-;>,'')!~-=**-*-&",
"{]]{]{]^/(_::_</[{]]]-{{",
"}}|}}}123::::::324}}|||}",
"567568/3::::::::3/967}00",
"abbabc<::::::::::<dbbbe6",
"ffgffh_::::::::::_ifggff",
"jjfjjk::::::::::::'jfjlm",
"nnlnnk::::::::::::knlnln",
"oppopq_::::::::::_rppnst",
"tttttd<::::::::::<uttttv",
"wxywxzA3::::::::3ABxyvtw",
"wwCwwwDE3::::::3FGwwCwww",
"HHCHHHHIA<_::_J/GHHHCKKw",
"KLKKLKLKMNqOOqPBKKLLKKQK",
"QRRQRQRRQRQRRQQRRQRRRRRR",
"STUSTSTUSTSTUSSTUSTTUVRR",
"WWWWWWWWWWWWWWWWWWWWWUSW"};
