/* XPM */
static char * hide_pressed_xpm[] = {
"24 24 99 2",
"  	c None",
". 	c #313133",
"+ 	c #4B5252",
"@ 	c #4B5151",
"# 	c #4A5152",
"$ 	c #4A5151",
"% 	c #4B5152",
"& 	c #4A5051",
"* 	c #495150",
"= 	c #4A5050",
"- 	c #495050",
"; 	c #47596C",
"> 	c #307FC6",
", 	c #1B8FE6",
"' 	c #1790E8",
") 	c #46596A",
"! 	c #494F50",
"~ 	c #49504F",
"{ 	c #3B6EA5",
"] 	c #1490EA",
"^ 	c #0285D9",
"/ 	c #007DCC",
"( 	c #1591EB",
"_ 	c #3B6FA5",
": 	c #484F4F",
"< 	c #494F4F",
"[ 	c #3A6DA5",
"} 	c #108DE8",
"| 	c #007ECD",
"1 	c #108EE8",
"2 	c #484F4E",
"3 	c #484E4E",
"4 	c #474F4E",
"5 	c #45596A",
"6 	c #1491EB",
"7 	c #455769",
"8 	c #484E4F",
"9 	c #474D4E",
"0 	c #474E4E",
"a 	c #2E80C7",
"b 	c #2F7DC5",
"c 	c #484D4E",
"d 	c #474D4D",
"e 	c #474E4D",
"f 	c #1A8EE7",
"g 	c #1A8FE7",
"h 	c #464D4D",
"i 	c #1590E9",
"j 	c #59AADE",
"k 	c #B3D8F0",
"l 	c #1590E8",
"m 	c #464D4C",
"n 	c #474D4C",
"o 	c #464C4C",
"p 	c #80BEE6",
"q 	c #FFFFFF",
"r 	c #158FE8",
"s 	c #464C4B",
"t 	c #454C4C",
"u 	c #198EE7",
"v 	c #3397D6",
"w 	c #66B1E0",
"x 	c #454C4B",
"y 	c #454B4B",
"z 	c #2D7EC5",
"A 	c #0286D9",
"B 	c #2E7DC5",
"C 	c #444B4B",
"D 	c #444A4A",
"E 	c #444B4A",
"F 	c #444A4B",
"G 	c #425366",
"H 	c #1391EB",
"I 	c #425365",
"J 	c #444A49",
"K 	c #376CA3",
"L 	c #0E8DE7",
"M 	c #0E8EE7",
"N 	c #386CA2",
"O 	c #434A49",
"P 	c #376DA4",
"Q 	c #1291EB",
"R 	c #0185D9",
"S 	c #434949",
"T 	c #434948",
"U 	c #405467",
"V 	c #2B7DC4",
"W 	c #188EE7",
"X 	c #148FE8",
"Y 	c #188DE6",
"Z 	c #2C7DC5",
"` 	c #415265",
" .	c #424949",
"..	c #424848",
"+.	c #424747",
"@.	c #414847",
"#.	c #414748",
"$.	c #424748",
"%.	c #414747",
". . . . . . . . . . . . . . . . . . . . . . . . ",
"+ + + + + + + + + + + + + + + + + + + + + + + + ",
"+ + + + + + + + + + + + + + + + + + + + + + + + ",
"+ + + + + + + + + + + + + + + + + + + + + + + + ",
"@ + @ @ + @ @ + @ + @ + @ + @ + @ + @ + @ + + + ",
"# $ % # $ # $ % # $ # $ % # # $ % # $ $ % # @ $ ",
"& & * & & & & * & & & & * & & & * & & & * & * $ ",
"= * - = * = * - ; > , ' ' , > ) - = * * - * - & ",
"! ~ ~ ! ~ ! ~ { ] ^ / / / / ^ ( _ ! ~ ~ ~ - ! ! ",
": : < : : : [ } | / / / / / / | 1 _ : : < < < : ",
"2 3 4 2 3 5 ] | / / / / / / / / | 6 7 3 4 : 8 8 ",
"9 0 0 9 0 a ^ / / / / / / / / / / ^ b 0 0 0 c 3 ",
"d d e d d f / / / / / / / / / / / / g d e e d d ",
"h h d h h i / / j k k k k k k j / / l h d h m n ",
"o o m o o l / / p q q q q q q p / / r o m o m o ",
"s t t s t u / / v w w w w w w v / / u t t o x y ",
"y y y y y z ^ / / / / / / / / / / A B y y y y C ",
"D E F D E G H | / / / / / / / / | H I E F C y D ",
"D D J D D D K L | / / / / / / | M N D D J D D D ",
"O O J O O O O P Q R / / / / R Q N O O O J S S D ",
"S T S S T S T S U V W X X Y Z ` S S T T S S  .S ",
" ..... ... ..... ... ..... . ..... .............",
"+.@.#.+.@.+.@.#.+.@.+.@.#.+.+.@.#.+.@.@.#.$.....",
"%.%.%.%.%.%.%.%.%.%.%.%.%.%.%.%.%.%.%.%.%.#.+.%."};
