/* XPM */
static char * hide_pressed_xpm[] = {
"28 36 160 2",
"  	c #323A3F",
". 	c #3F4C53",
"+ 	c #3F4C52",
"@ 	c #3E4C53",
"# 	c #3F4B53",
"$ 	c #3E4C52",
"% 	c #3E4B52",
"& 	c #3F4B52",
"* 	c #3E4B53",
"= 	c #3E4A52",
"- 	c #3D4A52",
"; 	c #3D4B51",
"> 	c #3D4B52",
", 	c #3E4B51",
"' 	c #3E4A51",
") 	c #3F4A50",
"! 	c #404950",
"~ 	c #3F4951",
"{ 	c #3D4A51",
"] 	c #3E4950",
"^ 	c #414A50",
"/ 	c #58646F",
"( 	c #6C7887",
"_ 	c #758493",
": 	c #7A8997",
"< 	c #6B7986",
"[ 	c #59636E",
"} 	c #57646C",
"| 	c #768693",
"1 	c #748391",
"2 	c #697787",
"3 	c #606F7E",
"4 	c #5D6C7B",
"5 	c #687888",
"6 	c #748491",
"7 	c #758593",
"8 	c #58626D",
"9 	c #3D4A50",
"0 	c #3C4A51",
"a 	c #3D4951",
"b 	c #3F4B51",
"c 	c #65727E",
"d 	c #778796",
"e 	c #647382",
"f 	c #5A6978",
"g 	c #637282",
"h 	c #788796",
"i 	c #65717E",
"j 	c #3C4951",
"k 	c #3C4950",
"l 	c #3E494F",
"m 	c #64727E",
"n 	c #758392",
"o 	c #758492",
"p 	c #64727C",
"q 	c #3C4A50",
"r 	c #3D4950",
"s 	c #3D484F",
"t 	c #56636C",
"u 	c #788797",
"v 	c #56626B",
"w 	c #3B4950",
"x 	c #3C494F",
"y 	c #3D4A4F",
"z 	c #768493",
"A 	c #637281",
"B 	c #778693",
"C 	c #3F494E",
"D 	c #3C4850",
"E 	c #3C484F",
"F 	c #57636E",
"G 	c #748392",
"H 	c #3B494F",
"I 	c #3B4850",
"J 	c #3B484F",
"K 	c #3D474E",
"L 	c #697888",
"M 	c #6B7885",
"N 	c #3C474E",
"O 	c #3D474D",
"P 	c #758393",
"Q 	c #60707F",
"R 	c #3A484F",
"S 	c #3C464D",
"T 	c #7A8898",
"U 	c #FFFFFF",
"V 	c #3B474F",
"W 	c #3A484E",
"X 	c #3D474C",
"Y 	c #7A8998",
"Z 	c #5C6B7B",
"` 	c #7A8996",
" .	c #3A474E",
"..	c #3A474F",
"+.	c #3B474E",
"@.	c #3C464C",
"#.	c #3A474D",
"$.	c #3B464C",
"%.	c #697885",
"&.	c #697788",
"*.	c #6B7784",
"=.	c #39464E",
"-.	c #3B464D",
";.	c #57626C",
">.	c #748492",
",.	c #57616C",
"'.	c #39474E",
").	c #39464D",
"!.	c #3A464D",
"~.	c #39474D",
"{.	c #3B474D",
"].	c #657383",
"^.	c #768593",
"/.	c #3D464C",
"(.	c #3A454C",
"_.	c #56606B",
":.	c #54616A",
"<.	c #39454D",
"[.	c #64707D",
"}.	c #64707B",
"|.	c #38464D",
"1.	c #39454C",
"2.	c #38464C",
"3.	c #3A464C",
"4.	c #63707B",
"5.	c #63717B",
"6.	c #39464C",
"7.	c #38454C",
"8.	c #38454D",
"9.	c #39454B",
"0.	c #556069",
"a.	c #768492",
"b.	c #616F7E",
"c.	c #687887",
"d.	c #758491",
"e.	c #546068",
"f.	c #3A454B",
"g.	c #39444B",
"h.	c #3C454B",
"i.	c #55626B",
"j.	c #687785",
"k.	c #56616B",
"l.	c #37454C",
"m.	c #37444B",
"n.	c #37454B",
"o.	c #38444A",
"p.	c #39434A",
"q.	c #394349",
"r.	c #39444A",
"s.	c #38454B",
"t.	c #38444C",
"u.	c #37444C",
"v.	c #38444B",
"w.	c #37444A",
"x.	c #37434B",
"y.	c #37434A",
"z.	c #36444B",
"A.	c #36444A",
"B.	c #36434B",
"C.	c #36434A",
"                                                        ",
". . . . . . . . . . . . . . . . . . . . . . . . . . . . ",
". . . + . . . + . . . . . @ . # $ # . . + . . + . + . + ",
"# @ . . # @ . . % + & . @ & & & % $ . + # & & @ # & . . ",
"% + @ % % + @ % $ & % + & @ $ # % # . & % & @ & $ % $ + ",
"% % % % % % % % % % % % % % * % % % % % % % % % % % % % ",
"% % = = % % = = % = % - % % ; ; % = > % > = , % % % % , ",
", = ; > , = ; > ; - ' ) ! ! ! ! ~ ' - { ; - { { - % ; { ",
"- ' { { - ' { { ] ^ / ( _ : : _ < [ ^ ] - { ' { - { ; { ",
"{ { { { { { { ] } | 1 2 3 4 4 3 5 6 7 8 ] { { { { { { 9 ",
"0 a 9 9 0 a b c d e f f f f f f f f g h i , a { j { j j ",
"k { k k k l m n 4 f f f f f f f f f f 4 o p l q j r r j ",
"k j k k s t d 4 f f f f f f f f f f f f 4 u v s k r k k ",
"w x x x y z A f f f f f f f f f f f f f f e B C D D k D ",
"x E D E F 1 f f f f f f f f f f f f f f f f G t E H E I ",
"E x J K < 5 f f f f f f f f f f f f f f f f L M N J J J ",
"J J J O P 3 f f f f f f f f f f f f f f f f Q o O J J J ",
"J R R S T 4 f f f U U U U U U U U U U f f f 4 : S J J J ",
"V V W X Y Z f f f U U U U U U U U U U f f f 4 ` X  ...W ",
"W +. .@.n 3 f f f U U U U U U U U U U f f f Q 1 @. .W +.",
" . .#.$.%.5 f f f f f f f f f f f f f f f f &.*.$. . . .",
"#. .=.-.;.6 f f f f f f f f f f f f f f f f >.,.$. .'.).",
"!.~.#.~.{.o g f f f f f f f f f f f f f f ].^./.=.=.=.=.",
").).).).(._.h 4 f f f f f f f f f f f f 4 h :.(.).).).).",
").<.<.).).(.[.o 4 f f f f f f f f f f 4 o }.(.<.).|.1.).",
"|.|.<.2.|.2.3.4.u e f f f f f f f f e h 5.3.6.|.7.7.|.8.",
"8.6.8.7.8.6.7.9.0.a.G L b.4 4 Q c.>.d.e.f.2.7.7.2.1.8.7.",
"7.7.7.7.7.7.7.7.g.h.i.j._ ` ` _ j.k.3.g.7.7.7.7.7.7.7.7.",
"l.7.m.n.l.7.m.n.l.7.o.p.q.q.q.q.r.o.7.7.s.7.t.s.7.7.7.l.",
"u.n.l.7.u.n.l.7.l.7.s.v.7.t.n.7.l.v.n.7.u.m.7.n.m.v.m.u.",
"n.m.u.m.n.m.u.m.u.m.v.m.m.m.m.m.u.m.m.u.v.n.n.m.v.m.m.m.",
"m.m.m.m.m.m.m.m.m.m.m.m.w.m.m.x.m.w.m.m.x.y.m.w.m.m.m.x.",
"y.y.z.w.y.y.z.w.w.A.w.B.A.m.y.x.x.m.m.A.x.C.w.z.C.z.m.y.",
"z.C.y.A.z.C.y.A.x.x.y.B.C.z.B.y.w.B.B.C.C.z.A.C.y.m.C.C.",
"C.C.C.C.C.C.C.C.A.C.A.C.C.C.C.C.C.z.C.C.C.C.C.C.A.C.B.C.",
"C.C.C.C.C.C.C.C.C.C.C.C.C.C.C.C.C.C.C.C.C.C.C.C.C.C.C.C."};
