/* XPM */
static char * maximize_prelight_xpm[] = {
"24 24 110 2",
"  	c None",
". 	c #313133",
"+ 	c #4B5252",
"@ 	c #4B5151",
"# 	c #4A5152",
"$ 	c #4A5151",
"% 	c #4B5152",
"& 	c #4A5051",
"* 	c #495150",
"= 	c #4A5050",
"- 	c #495050",
"; 	c #47596C",
"> 	c #307FC6",
", 	c #1B8FE6",
"' 	c #1790E8",
") 	c #46596A",
"! 	c #494F50",
"~ 	c #49504F",
"{ 	c #3B6EA5",
"] 	c #1490EA",
"^ 	c #0285D9",
"/ 	c #007DCC",
"( 	c #1591EB",
"_ 	c #3B6FA5",
": 	c #484F4F",
"< 	c #494F4F",
"[ 	c #3A6DA5",
"} 	c #108DE8",
"| 	c #007ECD",
"1 	c #108EE8",
"2 	c #484F4E",
"3 	c #484E4E",
"4 	c #474F4E",
"5 	c #45596A",
"6 	c #1186CF",
"7 	c #76B9E4",
"8 	c #77BAE4",
"9 	c #3C9CD8",
"0 	c #1491EB",
"a 	c #455769",
"b 	c #484E4F",
"c 	c #474D4E",
"d 	c #474E4E",
"e 	c #2E80C7",
"f 	c #63AFE0",
"g 	c #FDFEFF",
"h 	c #FFFFFF",
"i 	c #80BEE6",
"j 	c #2F7DC5",
"k 	c #484D4E",
"l 	c #474D4D",
"m 	c #474E4D",
"n 	c #1A8EE7",
"o 	c #1487D0",
"p 	c #1A8FE7",
"q 	c #464D4D",
"r 	c #1590E9",
"s 	c #7FBEE5",
"t 	c #6BB4E1",
"u 	c #1590E8",
"v 	c #464D4C",
"w 	c #474D4C",
"x 	c #464C4C",
"y 	c #FEFEFF",
"z 	c #7EBDE5",
"A 	c #158FE8",
"B 	c #464C4B",
"C 	c #454C4C",
"D 	c #198EE7",
"E 	c #454C4B",
"F 	c #454B4B",
"G 	c #2D7EC5",
"H 	c #0286D9",
"I 	c #2E7DC5",
"J 	c #444B4B",
"K 	c #444A4A",
"L 	c #444B4A",
"M 	c #444A4B",
"N 	c #425366",
"O 	c #1391EB",
"P 	c #44A0DA",
"Q 	c #88C2E7",
"R 	c #87C2E7",
"S 	c #1889D1",
"T 	c #425365",
"U 	c #444A49",
"V 	c #376CA3",
"W 	c #0E8DE7",
"X 	c #0E8EE7",
"Y 	c #386CA2",
"Z 	c #434A49",
"` 	c #376DA4",
" .	c #1291EB",
"..	c #0185D9",
"+.	c #434949",
"@.	c #434948",
"#.	c #405467",
"$.	c #2B7DC4",
"%.	c #188EE7",
"&.	c #148FE8",
"*.	c #188DE6",
"=.	c #2C7DC5",
"-.	c #415265",
";.	c #424949",
">.	c #424848",
",.	c #424747",
"'.	c #414847",
").	c #414748",
"!.	c #424748",
"~.	c #414747",
". . . . . . . . . . . . . . . . . . . . . . . . ",
"+ + + + + + + + + + + + + + + + + + + + + + + + ",
"+ + + + + + + + + + + + + + + + + + + + + + + + ",
"+ + + + + + + + + + + + + + + + + + + + + + + + ",
"@ + @ @ + @ @ + @ + @ + @ + @ + @ + @ + @ + + + ",
"# $ % # $ # $ % # $ # $ % # # $ % # $ $ % # @ $ ",
"& & * & & & & * & & & & * & & & * & & & * & * $ ",
"= * - = * = * - ; > , ' ' , > ) - = * * - * - & ",
"! ~ ~ ! ~ ! ~ { ] ^ / / / / ^ ( _ ! ~ ~ ~ - ! ! ",
": : < : : : [ } | / / / / / / | 1 _ : : < < < : ",
"2 3 4 2 3 5 ] | / / 6 7 8 8 8 9 | 0 a 3 4 : b b ",
"c d d c d e ^ / / / / f g h h i / ^ j d d d k 3 ",
"l l m l l n / / o / / / f g h i / / p l m m l l ",
"q q l q q r / / s t / / / f g i / / u q l q v w ",
"x x v x x u / / i y t / / / f z / / A x v x v x ",
"B C C B C D / / i h y t / / / o / / D C C x E F ",
"F F F F F G ^ / i h h y t / / / / H I F F F F J ",
"K L M K L N O | P Q Q Q R S / / | O T L M J F K ",
"K K U K K K V W | / / / / / / | X Y K K U K K K ",
"Z Z U Z Z Z Z `  .../ / / / .. .Y Z Z Z U +.+.K ",
"+.@.+.+.@.+.@.+.#.$.%.&.&.*.=.-.+.+.@.@.+.+.;.+.",
";.>.>.;.>.;.>.>.;.>.;.>.>.;.;.>.>.;.>.>.>.>.>.>.",
",.'.).,.'.,.'.).,.'.,.'.).,.,.'.).,.'.'.).!.>.>.",
"~.~.~.~.~.~.~.~.~.~.~.~.~.~.~.~.~.~.~.~.~.).,.~."};
