/* XPM */
static char * menu_inactive_xpm[] = {
"24 36 75 1",
" 	c #323A3F",
".	c #3F4C53",
"+	c #3F4C52",
"@	c #3E4C53",
"#	c #3F4B53",
"$	c #3E4C52",
"%	c #3E4B52",
"&	c #3F4B52",
"*	c #3E4B53",
"=	c #3E4A52",
"-	c #404A50",
";	c #202323",
">	c #0F0F0F",
",	c #0A0A0A",
"'	c #3D4B51",
")	c #161818",
"!	c #323B41",
"~	c #3D4A51",
"{	c #263036",
"]	c #3D4A50",
"^	c #3C4950",
"/	c #263035",
"(	c #3D4950",
"_	c #252F35",
":	c #3C494F",
"<	c #242E33",
"[	c #909090",
"}	c #3C4850",
"|	c #242D32",
"1	c #3B494F",
"2	c #3B484F",
"3	c #232C31",
"4	c #222B30",
"5	c #3A484F",
"6	c #212A2F",
"7	c #3A484E",
"8	c #20282E",
"9	c #3A474E",
"0	c #20272C",
"a	c #3A474D",
"b	c #1E262B",
"c	c #39464E",
"d	c #1E2429",
"e	c #1D2428",
"f	c #39464D",
"g	c #1C2327",
"h	c #39454D",
"i	c #1C2226",
"j	c #38464D",
"k	c #1A2024",
"l	c #38454C",
"m	c #38454D",
"n	c #39454C",
"o	c #37444B",
"p	c #101212",
"q	c #171B1B",
"r	c #181D1D",
"s	c #37454C",
"t	c #394449",
"u	c #202424",
"v	c #101111",
"w	c #0B0C0C",
"x	c #38444B",
"y	c #37444C",
"z	c #394349",
"A	c #555B5B",
"B	c #5C6161",
"C	c #5E6363",
"D	c #37444A",
"E	c #37434B",
"F	c #37434A",
"G	c #36444B",
"H	c #36444A",
"I	c #36434B",
"J	c #36434A",
"                        ",
"........................",
".+...+.....@.#$#..+..+.+",
"..#@..%+&.@&&&%$.+#&&@#&",
"@%%+@%$&%+&@$#%#.&%&@&$%",
"%%%%%%%%%%%%*%%%%%%%%%%%",
"=-;>,,,,,,,,,,,,,,,,>;-%",
"';)!!!!!!!!!!!!!!!!!!);%",
"~>{{{{{{{{{{{{{{{{{{{{>~",
"~,{{{{{{{{{{{{{{{{{{{{,~",
"],{{{{{{{{{{{{{{{{{{{{,~",
"^,////////////////////,(",
"^,____________________,(",
":,<<<<<[[[[[[[[[[<<<<<,}",
"},|||||[[[[[[[[[[|||||,1",
"2,33333333333333333333,2",
"2,44444444444444444444,2",
"5,66666[[[[[[[[[[66666,2",
"7,88888[[[[[[[[[[88888,9",
"9,00000000000000000000,9",
"a,bbbbbbbbbbbbbbbbbbbb,9",
"c,ddddd[[[[[[[[[[ddddd,9",
"a,eeeee[[[[[[[[[[eeeee,c",
"f,gggggggggggggggggggg,f",
"h,iiiiiiiiiiiiiiiiiiii,j",
"h,kkkkkkkkkkkkkkkkkkkk,l",
"m,kkkkkkkkkkkkkkkkkkkk,n",
"l>kkkkkkkkkkkkkkkkkkkk>l",
"o;pqrrrrrrrrrrrrrrrrqp;l",
"stuvwwwwwwwwwwwwwwwwvutx",
"yzzABCCCCCCCCCCCCCCBAzzo",
"ooooooooooDooEoDooEFoDoo",
"GDFFGDDHDIHoFEEooHEJDGJG",
"FHGJFHEEFIJGIFDIIJJGHJFo",
"JJJJJJHJHJJJJJJGJJJJJJHJ",
"JJJJJJJJJJJJJJJJJJJJJJJJ"};
