/* XPM */
static char * menu_pressed_xpm[] = {
"24 36 99 2",
"  	c #323A3F",
". 	c #3F4C53",
"+ 	c #3F4C52",
"@ 	c #3E4C53",
"# 	c #3F4B53",
"$ 	c #3E4C52",
"% 	c #3E4B52",
"& 	c #3F4B52",
"* 	c #3E4B53",
"= 	c #3E4A52",
"- 	c #404A50",
"; 	c #3C4242",
"> 	c #101010",
", 	c #0A0A0A",
"' 	c #3D4B51",
") 	c #3F4646",
"! 	c #0B0D0D",
"~ 	c #0E1212",
"{ 	c #0F1313",
"] 	c #3D4A51",
"^ 	c #0F1010",
"/ 	c #101514",
"( 	c #111514",
"_ 	c #111414",
": 	c #101414",
"< 	c #101415",
"[ 	c #111515",
"} 	c #3D4A50",
"| 	c #111415",
"1 	c #3C4950",
"2 	c #3D4950",
"3 	c #101515",
"4 	c #3C494F",
"5 	c #FFFFFF",
"6 	c #3C4850",
"7 	c #121616",
"8 	c #121515",
"9 	c #121516",
"0 	c #3B494F",
"a 	c #3B484F",
"b 	c #121716",
"c 	c #121717",
"d 	c #131716",
"e 	c #131616",
"f 	c #131817",
"g 	c #131717",
"h 	c #131718",
"i 	c #3A484F",
"j 	c #141818",
"k 	c #141718",
"l 	c #141817",
"m 	c #3A484E",
"n 	c #141819",
"o 	c #141919",
"p 	c #151918",
"q 	c #151919",
"r 	c #151819",
"s 	c #3A474E",
"t 	c #161919",
"u 	c #15191A",
"v 	c #3A474D",
"w 	c #161A1A",
"x 	c #39464E",
"y 	c #171B1B",
"z 	c #171A1B",
"A 	c #171C1B",
"B 	c #181B1B",
"C 	c #181C1C",
"D 	c #39464D",
"E 	c #39454D",
"F 	c #38464D",
"G 	c #181C1D",
"H 	c #191D1D",
"I 	c #181D1D",
"J 	c #38454C",
"K 	c #38454D",
"L 	c #191C1C",
"M 	c #191C1D",
"N 	c #181D1C",
"O 	c #39454C",
"P 	c #0F0F0F",
"Q 	c #161B1B",
"R 	c #37444B",
"S 	c #394349",
"T 	c #0E0F0F",
"U 	c #37454C",
"V 	c #394449",
"W 	c #38444B",
"X 	c #37444C",
"Y 	c #555B5B",
"Z 	c #5C6161",
"` 	c #5E6363",
" .	c #37444A",
"..	c #37434B",
"+.	c #37434A",
"@.	c #36444B",
"#.	c #36444A",
"$.	c #36434B",
"%.	c #36434A",
"                                                ",
". . . . . . . . . . . . . . . . . . . . . . . . ",
". + . . . + . . . . . @ . # $ # . . + . . + . + ",
". . # @ . . % + & . @ & & & % $ . + # & & @ # & ",
"@ % % + @ % $ & % + & @ $ # % # . & % & @ & $ % ",
"% % % % % % % % % % % % * % % % % % % % % % % % ",
"= - ; > , , , , , , , , , , , , , , , , > ; - % ",
"' ) ! ~ { { { { { { { { { { { { { { { { ~ ! ) % ",
"] ^ / ( _ : : _ : : _ : _ : : : : : : _ ( / ^ ] ",
"] , ( < [ : : [ : : [ : [ : : : : : : [ < ( , ] ",
"} , | _ / : : / : : / : / : : : : : : / _ | , ] ",
"1 , : _ : : : : : : : : : : : : : : : : _ : , 2 ",
"1 , < : _ : : _ : : _ : _ : : 3 3 : : _ : < , 2 ",
"4 , [ | | 3 ( 5 5 5 5 5 5 5 5 5 5 ( 3 | | [ , 6 ",
"6 , 7 [ 8 9 9 5 5 5 5 5 5 5 5 5 5 9 9 8 [ 7 , 0 ",
"a , b c 7 7 d 7 7 d 7 7 7 7 d e e d 7 7 c b , a ",
"a , f g g h g g h g g h g h g g g g h g g f , a ",
"i , j k l j g 5 5 5 5 5 5 5 5 5 5 g j l k j , a ",
"m , n o p q r 5 5 5 5 5 5 5 5 5 5 r q p o n , s ",
"s , q t t t u t t u t t t t u u u u t t t q , s ",
"v , w w w w w w w w w w w w w w w w w w w w , s ",
"x , y z y y z 5 5 5 5 5 5 5 5 5 5 z y y z y , s ",
"v , A A B C B 5 5 5 5 5 5 5 5 5 5 B C B A A , x ",
"D , C C C C C C C C C C C C C C C C C C C C , D ",
"E , C C C C C C C C C C C C C C C C C C C C , F ",
"E , G H I G G I G G I G I G G G G G G I H G , J ",
"K , L I M L L M L L M L M L L N N L L M I L , O ",
"J P Q I I I I I I I I I I I I I I I I I I Q P J ",
"R S T Q I I I I I I I I I I I I I I I I Q T S J ",
"U V V ^ , , , , , , , , , , , , , , , , ^ V V W ",
"X S S Y Z ` ` ` ` ` ` ` ` ` ` ` ` ` ` Z Y S S R ",
"R R R R R R R R R R  .R R ..R  .R R ..+.R  .R R ",
"@. .+.+.@. . .#. .$.#.R +.....R R #...%. .@.%.@.",
"+.#.@.%.+.#.....+.$.%.@.$.+. .$.$.%.%.@.#.%.+.R ",
"%.%.%.%.%.%.#.%.#.%.%.%.%.%.%.@.%.%.%.%.%.%.#.%.",
"%.%.%.%.%.%.%.%.%.%.%.%.%.%.%.%.%.%.%.%.%.%.%.%."};
