/* XPM */
static char * close_active_xpm[] = {
"28 36 99 2",
"  	c #323A3F",
". 	c #414B51",
"+ 	c #414B50",
"@ 	c #414A50",
"# 	c #404A50",
"$ 	c #404950",
"% 	c #3F494F",
"& 	c #3F5055",
"* 	c #3AA694",
"= 	c #36CCB4",
"- 	c #37D7BE",
"; 	c #39DAC1",
"> 	c #37CCB4",
", 	c #39A496",
"' 	c #3AA493",
") 	c #37D6BE",
"! 	c #33D1B8",
"~ 	c #26BDA6",
"{ 	c #1CB09A",
"] 	c #19AA95",
"^ 	c #26BEA7",
"/ 	c #39A394",
"( 	c #3F4D53",
"_ 	c #35C2AC",
": 	c #36D7BE",
"< 	c #20B59F",
"[ 	c #16A691",
"} 	c #36D6BF",
"| 	c #35C1AB",
"1 	c #3E494E",
"2 	c #35C2AB",
"3 	c #33D1B9",
"4 	c #34D2B9",
"5 	c #3E484E",
"6 	c #39A493",
"7 	c #19AB95",
"8 	c #39A291",
"9 	c #3D484D",
"0 	c #3D5051",
"a 	c #38D7BE",
"b 	c #20B59E",
"c 	c #21B59F",
"d 	c #3D5053",
"e 	c #3D474D",
"f 	c #38A694",
"g 	c #33D1BA",
"h 	c #38A594",
"i 	c #3D474E",
"j 	c #36CDB5",
"k 	c #25BDA7",
"l 	c #26BDA7",
"m 	c #35CAB4",
"n 	c #37D7BD",
"o 	c #1DB09A",
"p 	c #36D6BD",
"q 	c #3C464D",
"r 	c #18AA95",
"s 	c #39DAC2",
"t 	c #3D474C",
"u 	c #3ADAC1",
"v 	c #3C464C",
"w 	c #3B464B",
"x 	c #36CAB4",
"y 	c #26BEA8",
"z 	c #35C8B2",
"A 	c #3C454B",
"B 	c #37A495",
"C 	c #33D2BA",
"D 	c #38A593",
"E 	c #3B454B",
"F 	c #3B4D4F",
"G 	c #37D8BF",
"H 	c #21B6A0",
"I 	c #3B4D52",
"J 	c #37A293",
"K 	c #36D7BF",
"L 	c #37D6BF",
"M 	c #37A090",
"N 	c #34C1AB",
"O 	c #35C0AA",
"P 	c #3A444A",
"Q 	c #3A484E",
"R 	c #35C0AB",
"S 	c #34C0AA",
"T 	c #3A454A",
"U 	c #37A190",
"V 	c #36A090",
"W 	c #3A4C51",
"X 	c #36A494",
"Y 	c #35CBB4",
"Z 	c #37D6BD",
"` 	c #35C9B3",
" .	c #37A592",
"..	c #3A4C4E",
"+.	c #394349",
"@.	c #394449",
"#.	c #384348",
"$.	c #394348",
"%.	c #384248",
"                                                        ",
". . . . . . . . . . . . . . . . . . . . . . . . . . . . ",
". . . . . . . . . . . . . . . . . . . . . . . . . . . . ",
"+ + + + + + + + + + + + + + + + + + + + + + + + + + + + ",
"@ @ @ @ @ @ @ @ @ @ @ @ @ @ @ @ @ @ @ @ @ @ @ @ @ @ @ @ ",
"# # # # # # # # # # # # # # # # # # # # # # # # # # # # ",
"# # # # # # # # # # # # # # # # # # # # # # # # # # # # ",
"$ $ $ $ $ $ $ $ $ $ $ $ $ $ $ $ $ $ $ $ $ $ $ $ $ $ $ $ ",
"% % % % % % % % % & * = - ; ; - > , & % % % % % % % % % ",
"% % % % % % % % ' ) ! ~ { ] ] { ^ ! - / % % % % % % % % ",
"% % % % % % ( _ : < [ [ [ [ [ [ [ [ < } | ( % % % % % % ",
"1 1 1 1 1 1 2 3 ] [ [ [ [ [ [ [ [ [ [ ] 4 | 1 1 1 1 1 1 ",
"5 5 5 5 5 6 : ] [ [ [ [ [ [ [ [ [ [ [ [ 7 - 8 5 5 5 5 5 ",
"9 9 9 9 0 a b [ [ [ [ [ [ [ [ [ [ [ [ [ [ c - d 9 9 9 9 ",
"e e e e f ! [ [ [ [ [ [ [ [ [ [ [ [ [ [ [ [ g h e e e e ",
"i i i i j k [ [ [ [ [ [ [ [ [ [ [ [ [ [ [ [ l m i i i i ",
"e e e e n { [ [ [ [ [ [ [ [ [ [ [ [ [ [ [ [ o p e e e e ",
"q q q q ; r [ [ [ [ [ [ [ [ [ [ [ [ [ [ [ [ ] s q q q q ",
"t t t t u r [ [ [ [ [ [ [ [ [ [ [ [ [ [ [ [ ] ; t t t t ",
"v v v v n { [ [ [ [ [ [ [ [ [ [ [ [ [ [ [ [ o p v v v v ",
"w w w w x ^ [ [ [ [ [ [ [ [ [ [ [ [ [ [ [ [ y z w w w w ",
"A A A A B ! [ [ [ [ [ [ [ [ [ [ [ [ [ [ [ [ C D A A A A ",
"E E E E F G < [ [ [ [ [ [ [ [ [ [ [ [ [ [ H a I E E E E ",
"E E E E E J K 7 [ [ [ [ [ [ [ [ [ [ [ [ 7 L M E E E E E ",
"E E E E E E N 4 7 [ [ [ [ [ [ [ [ [ [ 7 4 O E E E E E E ",
"P P P P P P Q R - c [ [ [ [ [ [ [ [ c L S Q P P P P P P ",
"T T T T T T T T U a g ^ o ] ] o l C G V T T T T T T T T ",
"P P P P P P P P P W X Y Z ; ; Z `  ...P P P P P P P P P ",
"+.+.+.+.+.+.+.+.+.+.+.+.+.+.+.+.+.+.+.+.+.+.+.+.+.+.+.+.",
"@.@.@.@.@.@.@.@.@.@.@.@.@.@.@.@.@.@.@.@.@.@.@.@.@.@.@.@.",
"+.+.+.+.+.+.+.+.+.+.+.+.+.+.+.+.+.+.+.+.+.+.+.+.+.+.+.+.",
"+.+.+.+.+.+.+.+.+.+.+.+.+.+.+.+.+.+.+.+.+.+.+.+.+.+.+.+.",
"#.#.#.#.#.#.#.#.#.#.#.#.#.#.#.#.#.#.#.#.#.#.#.#.#.#.#.#.",
"$.$.$.$.$.$.$.$.$.$.$.$.$.$.$.$.$.$.$.$.$.$.$.$.$.$.$.$.",
"%.%.%.%.%.%.%.%.%.%.%.%.%.%.%.%.%.%.%.%.%.%.%.%.%.%.%.%.",
"%.%.%.%.%.%.%.%.%.%.%.%.%.%.%.%.%.%.%.%.%.%.%.%.%.%.%.%."};
