/* XPM */
static char * close_pressed_xpm[] = {
"28 36 113 2",
"  	c #323A3F",
". 	c #414B51",
"+ 	c #414B50",
"@ 	c #414A50",
"# 	c #404A50",
"$ 	c #404950",
"% 	c #3F494F",
"& 	c #3F5055",
"* 	c #3AA694",
"= 	c #36CCB4",
"- 	c #37D7BE",
"; 	c #39DAC1",
"> 	c #37CCB4",
", 	c #39A496",
"' 	c #3AA493",
") 	c #37D6BE",
"! 	c #33D1B8",
"~ 	c #26BDA6",
"{ 	c #1CB09A",
"] 	c #19AA95",
"^ 	c #26BEA7",
"/ 	c #39A394",
"( 	c #3F4D53",
"_ 	c #35C2AC",
": 	c #36D7BE",
"< 	c #20B59F",
"[ 	c #16A691",
"} 	c #36D6BF",
"| 	c #35C1AB",
"1 	c #3E494E",
"2 	c #35C2AB",
"3 	c #33D1B9",
"4 	c #34D2B9",
"5 	c #3E484E",
"6 	c #39A493",
"7 	c #19AB95",
"8 	c #39A291",
"9 	c #3D484D",
"0 	c #3D5051",
"a 	c #38D7BE",
"b 	c #20B59E",
"c 	c #B9E4DE",
"d 	c #CCEBE7",
"e 	c #28AD9A",
"f 	c #D1EEE9",
"g 	c #B3E2DB",
"h 	c #21B59F",
"i 	c #3D5053",
"j 	c #3D474D",
"k 	c #38A694",
"l 	c #CAEBE6",
"m 	c #FFFFFF",
"n 	c #D4EFEB",
"o 	c #CFEDE9",
"p 	c #33D1BA",
"q 	c #38A594",
"r 	c #3D474E",
"s 	c #36CDB5",
"t 	c #25BDA7",
"u 	c #26AC98",
"v 	c #D0EDE9",
"w 	c #D5EFEB",
"x 	c #26BDA7",
"y 	c #35CAB4",
"z 	c #37D7BD",
"A 	c #1DB09A",
"B 	c #36D6BD",
"C 	c #3C464D",
"D 	c #18AA95",
"E 	c #39DAC2",
"F 	c #3D474C",
"G 	c #3ADAC1",
"H 	c #3C464C",
"I 	c #3B464B",
"J 	c #36CAB4",
"K 	c #26BEA8",
"L 	c #35C8B2",
"M 	c #3C454B",
"N 	c #37A495",
"O 	c #CBEBE6",
"P 	c #33D2BA",
"Q 	c #38A593",
"R 	c #3B454B",
"S 	c #3B4D4F",
"T 	c #37D8BF",
"U 	c #B2E2DB",
"V 	c #21B6A0",
"W 	c #3B4D52",
"X 	c #37A293",
"Y 	c #36D7BF",
"Z 	c #37D6BF",
"` 	c #37A090",
" .	c #34C1AB",
"..	c #35C0AA",
"+.	c #3A444A",
"@.	c #3A484E",
"#.	c #35C0AB",
"$.	c #34C0AA",
"%.	c #3A454A",
"&.	c #37A190",
"*.	c #36A090",
"=.	c #3A4C51",
"-.	c #36A494",
";.	c #35CBB4",
">.	c #37D6BD",
",.	c #35C9B3",
"'.	c #37A592",
").	c #3A4C4E",
"!.	c #394349",
"~.	c #394449",
"{.	c #384348",
"].	c #394348",
"^.	c #384248",
"                                                        ",
". . . . . . . . . . . . . . . . . . . . . . . . . . . . ",
". . . . . . . . . . . . . . . . . . . . . . . . . . . . ",
"+ + + + + + + + + + + + + + + + + + + + + + + + + + + + ",
"@ @ @ @ @ @ @ @ @ @ @ @ @ @ @ @ @ @ @ @ @ @ @ @ @ @ @ @ ",
"# # # # # # # # # # # # # # # # # # # # # # # # # # # # ",
"# # # # # # # # # # # # # # # # # # # # # # # # # # # # ",
"$ $ $ $ $ $ $ $ $ $ $ $ $ $ $ $ $ $ $ $ $ $ $ $ $ $ $ $ ",
"% % % % % % % % % & * = - ; ; - > , & % % % % % % % % % ",
"% % % % % % % % ' ) ! ~ { ] ] { ^ ! - / % % % % % % % % ",
"% % % % % % ( _ : < [ [ [ [ [ [ [ [ < } | ( % % % % % % ",
"1 1 1 1 1 1 2 3 ] [ [ [ [ [ [ [ [ [ [ ] 4 | 1 1 1 1 1 1 ",
"5 5 5 5 5 6 : ] [ [ [ [ [ [ [ [ [ [ [ [ 7 - 8 5 5 5 5 5 ",
"9 9 9 9 0 a b [ [ c d e [ [ [ [ e f g [ [ h - i 9 9 9 9 ",
"j j j j k ! [ [ [ l m n e [ [ e n m o [ [ [ p q j j j j ",
"r r r r s t [ [ [ u v m w e u v m n e [ [ [ x y r r r r ",
"j j j j z { [ [ [ [ e n m n n m n e [ [ [ [ A B j j j j ",
"C C C C ; D [ [ [ [ [ u v m m n e [ [ [ [ [ ] E C C C C ",
"F F F F G D [ [ [ [ [ u v m m w e [ [ [ [ [ ] ; F F F F ",
"H H H H z { [ [ [ [ e n m n n m n e [ [ [ [ A B H H H H ",
"I I I I J ^ [ [ [ u v m n e u v m w e [ [ [ K L I I I I ",
"M M M M N ! [ [ [ O m n e [ [ e n m o [ [ [ P Q M M M M ",
"R R R R S T < [ [ U o e [ [ [ [ e o U [ [ V a W R R R R ",
"R R R R R X Y 7 [ [ [ [ [ [ [ [ [ [ [ [ 7 Z ` R R R R R ",
"R R R R R R  .4 7 [ [ [ [ [ [ [ [ [ [ 7 4 ..R R R R R R ",
"+.+.+.+.+.+.@.#.- h [ [ [ [ [ [ [ [ h Z $.@.+.+.+.+.+.+.",
"%.%.%.%.%.%.%.%.&.a p ^ A ] ] A x P T *.%.%.%.%.%.%.%.%.",
"+.+.+.+.+.+.+.+.+.=.-.;.>.; ; >.,.'.).+.+.+.+.+.+.+.+.+.",
"!.!.!.!.!.!.!.!.!.!.!.!.!.!.!.!.!.!.!.!.!.!.!.!.!.!.!.!.",
"~.~.~.~.~.~.~.~.~.~.~.~.~.~.~.~.~.~.~.~.~.~.~.~.~.~.~.~.",
"!.!.!.!.!.!.!.!.!.!.!.!.!.!.!.!.!.!.!.!.!.!.!.!.!.!.!.!.",
"!.!.!.!.!.!.!.!.!.!.!.!.!.!.!.!.!.!.!.!.!.!.!.!.!.!.!.!.",
"{.{.{.{.{.{.{.{.{.{.{.{.{.{.{.{.{.{.{.{.{.{.{.{.{.{.{.{.",
"].].].].].].].].].].].].].].].].].].].].].].].].].].].].",
"^.^.^.^.^.^.^.^.^.^.^.^.^.^.^.^.^.^.^.^.^.^.^.^.^.^.^.^.",
"^.^.^.^.^.^.^.^.^.^.^.^.^.^.^.^.^.^.^.^.^.^.^.^.^.^.^.^."};
