/* XPM */
static char * close_active_xpm[] = {
"28 36 98 2",
"  	c None",
". 	c #323A3F",
"+ 	c #414B51",
"@ 	c #414B50",
"# 	c #414A50",
"$ 	c #404A50",
"% 	c #404950",
"& 	c #3F494F",
"* 	c #3F4D52",
"= 	c #388478",
"- 	c #2FAA97",
"; 	c #27BDA7",
"> 	c #26C3AC",
", 	c #388279",
"' 	c #398176",
") 	c #27BEA7",
"! 	c #23BEA7",
"~ 	c #1CB59E",
"{ 	c #18AC96",
"] 	c #17A994",
"^ 	c #1CB59F",
"/ 	c #398177",
"( 	c #3F4B51",
"_ 	c #329D8C",
": 	c #24C3AA",
"< 	c #1AAF9A",
"[ 	c #16A691",
"} 	c #1AAF99",
"| 	c #3E494E",
"1 	c #319D8B",
"2 	c #23BFA6",
"3 	c #17A993",
"4 	c #23BFA7",
"5 	c #319D8C",
"6 	c #3E484E",
"7 	c #388176",
"8 	c #24C4AA",
"9 	c #388075",
"0 	c #3D484D",
"a 	c #3D4A4F",
"b 	c #27BFA7",
"c 	c #1AB099",
"d 	c #1AB09A",
"e 	c #3D4C50",
"f 	c #3D474D",
"g 	c #368377",
"h 	c #24BEA8",
"i 	c #378177",
"j 	c #3D474E",
"k 	c #2EAB97",
"l 	c #2EA995",
"m 	c #27BDA5",
"n 	c #19AC96",
"o 	c #3C464D",
"p 	c #24C5AC",
"q 	c #17A893",
"r 	c #25C3AC",
"s 	c #3D474C",
"t 	c #25C5AD",
"u 	c #3C464C",
"v 	c #26BDA6",
"w 	c #3B464B",
"x 	c #2DA996",
"y 	c #1DB69F",
"z 	c #2EA794",
"A 	c #3C454B",
"B 	c #368178",
"C 	c #24BEA7",
"D 	c #368176",
"E 	c #3B454B",
"F 	c #3B474D",
"G 	c #1BB09A",
"H 	c #27BEA6",
"I 	c #3B494F",
"J 	c #367F75",
"K 	c #23C4AA",
"L 	c #24C3AB",
"M 	c #357E74",
"N 	c #2F9C8B",
"O 	c #309B8A",
"P 	c #3A444A",
"Q 	c #3A464C",
"R 	c #3A454A",
"S 	c #357F73",
"T 	c #26BFA7",
"U 	c #18AC97",
"V 	c #26BDA7",
"W 	c #357D73",
"X 	c #3A484E",
"Y 	c #348076",
"Z 	c #27BDA6",
"` 	c #2DA795",
" .	c #348175",
"..	c #394349",
"+.	c #394449",
"@.	c #384348",
"#.	c #394348",
"$.	c #384248",
". . . . . . . . . . . . . . . . . . . . . . . . . . . . ",
"+ + + + + + + + + + + + + + + + + + + + + + + + + + + + ",
"+ + + + + + + + + + + + + + + + + + + + + + + + + + + + ",
"@ @ @ @ @ @ @ @ @ @ @ @ @ @ @ @ @ @ @ @ @ @ @ @ @ @ @ @ ",
"# # # # # # # # # # # # # # # # # # # # # # # # # # # # ",
"$ $ $ $ $ $ $ $ $ $ $ $ $ $ $ $ $ $ $ $ $ $ $ $ $ $ $ $ ",
"$ $ $ $ $ $ $ $ $ $ $ $ $ $ $ $ $ $ $ $ $ $ $ $ $ $ $ $ ",
"% % % % % % % % % % % % % % % % % % % % % % % % % % % % ",
"& & & & & & & & & * = - ; > > ; - , * & & & & & & & & & ",
"& & & & & & & & ' ) ! ~ { ] ] { ^ ! ) / & & & & & & & & ",
"& & & & & & ( _ : < [ [ [ [ [ [ [ [ } : _ ( & & & & & & ",
"| | | | | | 1 2 ] [ [ [ [ [ [ [ [ [ [ 3 4 5 | | | | | | ",
"6 6 6 6 6 7 : 3 [ [ [ [ [ [ [ [ [ [ [ [ 3 8 9 6 6 6 6 6 ",
"0 0 0 0 a b c [ [ [ [ [ [ [ [ [ [ [ [ [ [ d ) e 0 0 0 0 ",
"f f f f g ! [ [ [ [ [ [ [ [ [ [ [ [ [ [ [ [ h i f f f f ",
"j j j j k ~ [ [ [ [ [ [ [ [ [ [ [ [ [ [ [ [ ~ l j j j j ",
"f f f f m { [ [ [ [ [ [ [ [ [ [ [ [ [ [ [ [ n m f f f f ",
"o o o o p q [ [ [ [ [ [ [ [ [ [ [ [ [ [ [ [ ] r o o o o ",
"s s s s t 3 [ [ [ [ [ [ [ [ [ [ [ [ [ [ [ [ 3 > s s s s ",
"u u u u m { [ [ [ [ [ [ [ [ [ [ [ [ [ [ [ [ n v u u u u ",
"w w w w x ^ [ [ [ [ [ [ [ [ [ [ [ [ [ [ [ [ y z w w w w ",
"A A A A B ! [ [ [ [ [ [ [ [ [ [ [ [ [ [ [ [ C D A A A A ",
"E E E E F ; } [ [ [ [ [ [ [ [ [ [ [ [ [ [ G H I E E E E ",
"E E E E E J K 3 [ [ [ [ [ [ [ [ [ [ [ [ 3 L M E E E E E ",
"E E E E E E N 4 3 [ [ [ [ [ [ [ [ [ [ 3 4 O E E E E E E ",
"P P P P P P Q N K d [ [ [ [ [ [ [ [ c L O Q P P P P P P ",
"R R R R R R R R S T h ^ U 3 3 n ~ C V W R R R R R R R R ",
"P P P P P P P P P X Y x Z r r Z `  .Q P P P P P P P P P ",
"........................................................",
"+.+.+.+.+.+.+.+.+.+.+.+.+.+.+.+.+.+.+.+.+.+.+.+.+.+.+.+.",
"........................................................",
"........................................................",
"@.@.@.@.@.@.@.@.@.@.@.@.@.@.@.@.@.@.@.@.@.@.@.@.@.@.@.@.",
"#.#.#.#.#.#.#.#.#.#.#.#.#.#.#.#.#.#.#.#.#.#.#.#.#.#.#.#.",
"$.$.$.$.$.$.$.$.$.$.$.$.$.$.$.$.$.$.$.$.$.$.$.$.$.$.$.$.",
"$.$.$.$.$.$.$.$.$.$.$.$.$.$.$.$.$.$.$.$.$.$.$.$.$.$.$.$."};
