/* XPM */
static char * close_active_xpm[] = {
"28 36 155 2",
"  	c #323A3F",
". 	c #3F4C53",
"+ 	c #3F4C52",
"@ 	c #3E4C53",
"# 	c #3F4B53",
"$ 	c #3E4C52",
"% 	c #3E4B52",
"& 	c #3F4B52",
"* 	c #3E4B53",
"= 	c #3E4A52",
"- 	c #3D4A52",
"; 	c #3D4B51",
"> 	c #3D4B52",
", 	c #3E4B51",
"' 	c #3E4A51",
") 	c #3F4A50",
"! 	c #404950",
"~ 	c #3F4951",
"{ 	c #3D4A51",
"] 	c #3E4950",
"^ 	c #3F4D52",
"/ 	c #388478",
"( 	c #2FAA97",
"_ 	c #27BDA7",
": 	c #26C3AC",
"< 	c #388279",
"[ 	c #398176",
"} 	c #27BEA7",
"| 	c #23BEA7",
"1 	c #1CB59E",
"2 	c #18AC96",
"3 	c #17A994",
"4 	c #1CB59F",
"5 	c #398177",
"6 	c #3D4A50",
"7 	c #3C4A51",
"8 	c #3D4951",
"9 	c #3F4B51",
"0 	c #329D8C",
"a 	c #24C3AA",
"b 	c #1AAF9A",
"c 	c #16A691",
"d 	c #1AAF99",
"e 	c #3C4951",
"f 	c #3C4950",
"g 	c #3E494F",
"h 	c #319D8B",
"i 	c #23BFA6",
"j 	c #17A993",
"k 	c #23BFA7",
"l 	c #319D8C",
"m 	c #3C4A50",
"n 	c #3D4950",
"o 	c #3D484F",
"p 	c #388176",
"q 	c #24C4AA",
"r 	c #388075",
"s 	c #3B4950",
"t 	c #3C494F",
"u 	c #3D4A4F",
"v 	c #27BFA7",
"w 	c #1AB099",
"x 	c #1AB09A",
"y 	c #3D4C50",
"z 	c #3C4850",
"A 	c #3C484F",
"B 	c #368377",
"C 	c #24BEA8",
"D 	c #378177",
"E 	c #3B494F",
"F 	c #3B4850",
"G 	c #3B484F",
"H 	c #3D474E",
"I 	c #2EAB97",
"J 	c #2EA995",
"K 	c #3C474E",
"L 	c #3D474D",
"M 	c #27BDA5",
"N 	c #19AC96",
"O 	c #3A484F",
"P 	c #3C464D",
"Q 	c #24C5AC",
"R 	c #17A893",
"S 	c #25C3AC",
"T 	c #3B474F",
"U 	c #3A484E",
"V 	c #3D474C",
"W 	c #25C5AD",
"X 	c #3A474E",
"Y 	c #3A474F",
"Z 	c #3B474E",
"` 	c #3C464C",
" .	c #26BDA6",
"..	c #3A474D",
"+.	c #3B464C",
"@.	c #2DA996",
"#.	c #1DB69F",
"$.	c #2EA794",
"%.	c #39464E",
"&.	c #3B464D",
"*.	c #368178",
"=.	c #24BEA7",
"-.	c #368176",
";.	c #39474E",
">.	c #39464D",
",.	c #3A464D",
"'.	c #39474D",
").	c #3B474D",
"!.	c #1BB09A",
"~.	c #27BEA6",
"{.	c #3A454C",
"].	c #367F75",
"^.	c #23C4AA",
"/.	c #24C3AB",
"(.	c #357E74",
"_.	c #39454D",
":.	c #2F9C8B",
"<.	c #309B8A",
"[.	c #38464D",
"}.	c #39454C",
"|.	c #38464C",
"1.	c #3A464C",
"2.	c #39464C",
"3.	c #38454C",
"4.	c #38454D",
"5.	c #39454B",
"6.	c #357F73",
"7.	c #26BFA7",
"8.	c #18AC97",
"9.	c #26BDA7",
"0.	c #357D73",
"a.	c #3A454B",
"b.	c #39444B",
"c.	c #348076",
"d.	c #27BDA6",
"e.	c #2DA795",
"f.	c #348175",
"g.	c #37454C",
"h.	c #37444B",
"i.	c #37454B",
"j.	c #38444A",
"k.	c #39434A",
"l.	c #394349",
"m.	c #39444A",
"n.	c #38454B",
"o.	c #38444C",
"p.	c #37444C",
"q.	c #38444B",
"r.	c #37444A",
"s.	c #37434B",
"t.	c #37434A",
"u.	c #36444B",
"v.	c #36444A",
"w.	c #36434B",
"x.	c #36434A",
"                                                        ",
". . . . . . . . . . . . . . . . . . . . . . . . . . . . ",
". . . + . . . + . . . . . @ . # $ # . . + . . + . + . + ",
"# @ . . # @ . . % + & . @ & & & % $ . + # & & @ # & . . ",
"% + @ % % + @ % $ & % + & @ $ # % # . & % & @ & $ % $ + ",
"% % % % % % % % % % % % % % * % % % % % % % % % % % % % ",
"% % = = % % = = % = % - % % ; ; % = > % > = , % % % % , ",
", = ; > , = ; > ; - ' ) ! ! ! ! ~ ' - { ; - { { - % ; { ",
"- ' { { - ' { { ] ^ / ( _ : : _ ( < ^ ] - { ' { - { ; { ",
"{ { { { { { { ] [ } | 1 2 3 3 2 4 | } 5 ] { { { { { { 6 ",
"7 8 6 6 7 8 9 0 a b c c c c c c c c d a 0 , 8 { e { e e ",
"f { f f f g h i 3 c c c c c c c c c c j k l g m e n n e ",
"f e f f o p a j c c c c c c c c c c c c j q r o f n f f ",
"s t t t u v w c c c c c c c c c c c c c c x } y z z f z ",
"t A z A B | c c c c c c c c c c c c c c c c C D A E A F ",
"A t G H I 1 c c c c c c c c c c c c c c c c 1 J K G G G ",
"G G G L M 2 c c c c c c c c c c c c c c c c N M L G G G ",
"G O O P Q R c c c c c c c c c c c c c c c c 3 S P G G G ",
"T T U V W j c c c c c c c c c c c c c c c c j : V X Y U ",
"U Z X ` M 2 c c c c c c c c c c c c c c c c N  .` X U Z ",
"X X ..+.@.4 c c c c c c c c c c c c c c c c #.$.+.X X X ",
"..X %.&.*.| c c c c c c c c c c c c c c c c =.-.+.X ;.>.",
",.'...'.)._ d c c c c c c c c c c c c c c !.~.E %.%.%.%.",
">.>.>.>.{.].^.j c c c c c c c c c c c c j /.(.{.>.>.>.>.",
">._._.>.>.{.:.k j c c c c c c c c c c j k <.{._.>.[.}.>.",
"[.[._.|.[.|.1.:.^.x c c c c c c c c w /.<.1.2.[.3.3.[.4.",
"4.2.4.3.4.2.3.5.6.7.C 4 8.j j N 1 =.9.0.a.|.3.3.|.}.4.3.",
"3.3.3.3.3.3.3.3.b.U c.@.d.S S d.e.f.1.b.3.3.3.3.3.3.3.3.",
"g.3.h.i.g.3.h.i.g.3.j.k.l.l.l.l.m.j.3.3.n.3.o.n.3.3.3.g.",
"p.i.g.3.p.i.g.3.g.3.n.q.3.o.i.3.g.q.i.3.p.h.3.i.h.q.h.p.",
"i.h.p.h.i.h.p.h.p.h.q.h.h.h.h.h.p.h.h.p.q.i.i.h.q.h.h.h.",
"h.h.h.h.h.h.h.h.h.h.h.h.r.h.h.s.h.r.h.h.s.t.h.r.h.h.h.s.",
"t.t.u.r.t.t.u.r.r.v.r.w.v.h.t.s.s.h.h.v.s.x.r.u.x.u.h.t.",
"u.x.t.v.u.x.t.v.s.s.t.w.x.u.w.t.r.w.w.x.x.u.v.x.t.h.x.x.",
"x.x.x.x.x.x.x.x.v.x.v.x.x.x.x.x.x.u.x.x.x.x.x.x.v.x.w.x.",
"x.x.x.x.x.x.x.x.x.x.x.x.x.x.x.x.x.x.x.x.x.x.x.x.x.x.x.x."};
