/* XPM */
static char * close_prelight_xpm[] = {
"28 36 143 2",
"  	c None",
". 	c #313133",
"+ 	c #4B5252",
"@ 	c #4B5251",
"# 	c #4A5251",
"$ 	c #4A5152",
"% 	c #4B5151",
"& 	c #4A5252",
"* 	c #4B5152",
"= 	c #4A5151",
"- 	c #495151",
"; 	c #4A5150",
"> 	c #495150",
", 	c #495050",
"' 	c #4A5051",
") 	c #4A5050",
"! 	c #495051",
"~ 	c #494F50",
"{ 	c #49504F",
"] 	c #495353",
"^ 	c #408679",
"/ 	c #33AB97",
"( 	c #2ABDA7",
"_ 	c #27C3AC",
": 	c #34AB97",
"< 	c #40857A",
"[ 	c #495253",
"} 	c #484F4F",
"| 	c #494F4E",
"1 	c #418476",
"2 	c #29BEA7",
"3 	c #24BEA7",
"4 	c #1CB59E",
"5 	c #18AC96",
"6 	c #17A994",
"7 	c #1CB59F",
"8 	c #408377",
"9 	c #474F4F",
"0 	c #484E4E",
"a 	c #475151",
"b 	c #379E8C",
"c 	c #25C3AA",
"d 	c #1AAF9A",
"e 	c #16A691",
"f 	c #1AAF99",
"g 	c #24C3AA",
"h 	c #485151",
"i 	c #474E4E",
"j 	c #379E8B",
"k 	c #24BFA6",
"l 	c #17A993",
"m 	c #24BFA7",
"n 	c #389E8C",
"o 	c #474D4E",
"p 	c #3F8376",
"q 	c #24C4AA",
"r 	c #3F8275",
"s 	c #474D4C",
"t 	c #464C4D",
"u 	c #464E4F",
"v 	c #29BFA7",
"w 	c #1AB099",
"x 	c #B3E2DB",
"y 	c #CAEBE6",
"z 	c #28AD9A",
"A 	c #B2E2DB",
"B 	c #1AB09A",
"C 	c #475050",
"D 	c #464D4D",
"E 	c #454C4C",
"F 	c #464C4C",
"G 	c #3D8577",
"H 	c #FFFFFF",
"I 	c #D4EFEB",
"J 	c #CFEDE9",
"K 	c #25BEA8",
"L 	c #3D8277",
"M 	c #454C4B",
"N 	c #32AB96",
"O 	c #26AC98",
"P 	c #D0EDE9",
"Q 	c #D5EFEB",
"R 	c #32AA95",
"S 	c #454B4B",
"T 	c #29BEA5",
"U 	c #D8F0EC",
"V 	c #19AC96",
"W 	c #29BDA5",
"X 	c #444B4B",
"Y 	c #444A4B",
"Z 	c #25C5AC",
"` 	c #17A893",
" .	c #D3EEEA",
"..	c #D7F0EC",
"+.	c #26C3AC",
"@.	c #454B4A",
"#.	c #444A4A",
"$.	c #434A4A",
"%.	c #26C5AD",
"&.	c #D4EEEA",
"*.	c #D8F0ED",
"=.	c #434A49",
"-.	c #28BEA5",
";.	c #D4EEEB",
">.	c #28BDA5",
",.	c #44494A",
"'.	c #434949",
").	c #31A996",
"!.	c #1DB69F",
"~.	c #31A793",
"{.	c #424948",
"].	c #424848",
"^.	c #424849",
"/.	c #3B8277",
"(.	c #23BEA7",
"_.	c #CBEBE6",
":.	c #3B8275",
"<.	c #424847",
"[.	c #424A4A",
"}.	c #28BDA7",
"|.	c #1BB09A",
"1.	c #28BEA6",
"2.	c #424C4B",
"3.	c #414747",
"4.	c #424747",
"5.	c #3B8074",
"6.	c #25C3AB",
"7.	c #3A7F72",
"8.	c #339C8A",
"9.	c #23BFA7",
"0.	c #349B89",
"a.	c #414949",
"b.	c #3A8072",
"c.	c #28BFA7",
"d.	c #24BEA8",
"e.	c #18AC97",
"f.	c #3B7E71",
"g.	c #414B4B",
"h.	c #3A8175",
"i.	c #30A995",
"j.	c #28BDA6",
"k.	c #30A894",
"l.	c #3A8274",
". . . . . . . . . . . . . . . . . . . . . . . . . . . . ",
"+ + + + + + + + + + + + + + + + + + + + + + + + + + + + ",
"+ + + + + + + + + + + + + + + + + + + + + + + + + + + + ",
"+ + + + + + + + + + + + + + + + + + + + + + + + + + + + ",
"@ @ @ + # $ + @ % + % + @ & @ + # $ + @ @ @ @ @ * + @ @ ",
"% % % = * % @ $ $ = * # % = % = * % @ $ % = % = $ % % % ",
"- - - - ; > = , ' ' > ; ) ! - - ; > = , ; = = ; = = - - ",
"! ! ! , , ) , ! ) > , , , ) ! , , ) , ! ! , , , ) , ! ! ",
"~ ~ ~ { { , ~ ~ { ] ^ / ( _ _ ( : < [ ~ { , ~ ~ { , ~ ~ ",
"} } } | | } } } 1 2 3 4 5 6 6 5 7 3 2 8 | } } } | } } } ",
"9 9 9 0 0 } a b c d e e e e e e e e f g b h 9 9 0 } 9 9 ",
"i i i i i 0 j k 6 e e e e e e e e e e l m n i i i 0 i i ",
"o o o o o p g l e e e e e e e e e e e e l q r o o o o o ",
"s s s t u v w e e x y z e e e e z y A e e B 2 C t D s s ",
"E E E F G 3 e e e y H I z e e z I H J e e e K L F E E E ",
"M M M E N 4 e e e O P H Q z O P H I z e e e 4 R E E M M ",
"S S S S T 5 e e e e O P H U I H I z e e e e V W S X S S ",
"Y Y Y X Z ` e e e e e O  .H H ..z e e e e e 6 +.X @.Y Y ",
"#.#.#.$.%.l e e e e e O &.H H *.z e e e e e l +.$.#.#.#.",
"$.$.$.=.-.5 e e e e O P H ..;.H Q z e e e e V >.=.,.$.$.",
"'.'.'.'.).7 e e e O P H I z O P H Q z e e e !.~.'.{.'.'.",
"].].].^./.(.e e e _.H I z e e z I H J e e e 3 :.^.].].].",
"<.<.<.].[.}.f e e A J z e e e e z J A e e |.1.2.].].<.<.",
"3.3.3.4.4.5.q l e e e e e e e e e e e e l 6.7.3.4.4.3.3.",
"3.3.3.3.3.3.8.9.l e e e e e e e e e e l 9.0.3.3.3.3.3.3.",
"3.3.3.3.3.3.a.8.q B e e e e e e e e w 6.0.a.3.3.3.3.3.3.",
"3.3.3.3.3.3.3.3.b.c.d.7 e.l l V 4 3 }.f.3.3.3.3.3.3.3.3.",
"3.3.3.3.3.3.3.3.3.g.h.i.j.+.+.j.k.l.a.3.3.3.3.3.3.3.3.3.",
"3.3.3.3.3.3.3.3.3.3.3.3.3.3.3.3.3.3.3.3.3.3.3.3.3.3.3.3.",
"3.3.3.3.3.3.3.3.3.3.3.3.3.3.3.3.3.3.3.3.3.3.3.3.3.3.3.3.",
"3.3.3.3.3.3.3.3.3.3.3.3.3.3.3.3.3.3.3.3.3.3.3.3.3.3.3.3.",
"3.3.3.3.3.3.3.3.3.3.3.3.3.3.3.3.3.3.3.3.3.3.3.3.3.3.3.3.",
"3.3.3.3.3.3.3.3.3.3.3.3.3.3.3.3.3.3.3.3.3.3.3.3.3.3.3.3.",
"3.3.3.3.3.3.3.3.3.3.3.3.3.3.3.3.3.3.3.3.3.3.3.3.3.3.3.3.",
"3.3.3.3.3.3.3.3.3.3.3.3.3.3.3.3.3.3.3.3.3.3.3.3.3.3.3.3.",
"3.3.3.3.3.3.3.3.3.3.3.3.3.3.3.3.3.3.3.3.3.3.3.3.3.3.3.3."};
