/* XPM */
static char * close_prelight_xpm[] = {
"28 36 172 2",
"  	c #323A3F",
". 	c #3F4C53",
"+ 	c #3F4C52",
"@ 	c #3E4C53",
"# 	c #3F4B53",
"$ 	c #3E4C52",
"% 	c #3E4B52",
"& 	c #3F4B52",
"* 	c #3E4B53",
"= 	c #3E4A52",
"- 	c #3D4A52",
"; 	c #3D4B51",
"> 	c #3D4B52",
", 	c #3E4B51",
"' 	c #3E4A51",
") 	c #3F4A50",
"! 	c #404950",
"~ 	c #3F4951",
"{ 	c #3D4A51",
"] 	c #3E4950",
"^ 	c #3F4D52",
"/ 	c #388478",
"( 	c #2FAA97",
"_ 	c #27BDA7",
": 	c #26C3AC",
"< 	c #388279",
"[ 	c #398176",
"} 	c #27BEA7",
"| 	c #23BEA7",
"1 	c #1CB59E",
"2 	c #18AC96",
"3 	c #17A994",
"4 	c #1CB59F",
"5 	c #398177",
"6 	c #3D4A50",
"7 	c #3C4A51",
"8 	c #3D4951",
"9 	c #3F4B51",
"0 	c #329D8C",
"a 	c #24C3AA",
"b 	c #1AAF9A",
"c 	c #16A691",
"d 	c #1AAF99",
"e 	c #3C4951",
"f 	c #3C4950",
"g 	c #3E494F",
"h 	c #319D8B",
"i 	c #23BFA6",
"j 	c #17A993",
"k 	c #23BFA7",
"l 	c #319D8C",
"m 	c #3C4A50",
"n 	c #3D4950",
"o 	c #3D484F",
"p 	c #388176",
"q 	c #24C4AA",
"r 	c #388075",
"s 	c #3B4950",
"t 	c #3C494F",
"u 	c #3D4A4F",
"v 	c #27BFA7",
"w 	c #1AB099",
"x 	c #B3E2DB",
"y 	c #CAEBE6",
"z 	c #28AD9A",
"A 	c #B2E2DB",
"B 	c #1AB09A",
"C 	c #3D4C50",
"D 	c #3C4850",
"E 	c #3C484F",
"F 	c #368377",
"G 	c #FFFFFF",
"H 	c #D4EFEB",
"I 	c #CFEDE9",
"J 	c #24BEA8",
"K 	c #378177",
"L 	c #3B494F",
"M 	c #3B4850",
"N 	c #3B484F",
"O 	c #3D474E",
"P 	c #2EAB97",
"Q 	c #26AC98",
"R 	c #D0EDE9",
"S 	c #D5EFEB",
"T 	c #2EA995",
"U 	c #3C474E",
"V 	c #3D474D",
"W 	c #27BDA5",
"X 	c #D8F0EC",
"Y 	c #19AC96",
"Z 	c #3A484F",
"` 	c #3C464D",
" .	c #24C5AC",
"..	c #17A893",
"+.	c #D3EEEA",
"@.	c #D7F0EC",
"#.	c #25C3AC",
"$.	c #3B474F",
"%.	c #3A484E",
"&.	c #3D474C",
"*.	c #25C5AD",
"=.	c #D4EEEA",
"-.	c #D8F0ED",
";.	c #3A474E",
">.	c #3A474F",
",.	c #3B474E",
"'.	c #3C464C",
").	c #D4EEEB",
"!.	c #26BDA6",
"~.	c #3A474D",
"{.	c #3B464C",
"].	c #2DA996",
"^.	c #1DB69F",
"/.	c #2EA794",
"(.	c #39464E",
"_.	c #3B464D",
":.	c #368178",
"<.	c #CBEBE6",
"[.	c #24BEA7",
"}.	c #368176",
"|.	c #39474E",
"1.	c #39464D",
"2.	c #3A464D",
"3.	c #39474D",
"4.	c #3B474D",
"5.	c #1BB09A",
"6.	c #27BEA6",
"7.	c #3A454C",
"8.	c #367F75",
"9.	c #23C4AA",
"0.	c #24C3AB",
"a.	c #357E74",
"b.	c #39454D",
"c.	c #2F9C8B",
"d.	c #309B8A",
"e.	c #38464D",
"f.	c #39454C",
"g.	c #38464C",
"h.	c #3A464C",
"i.	c #39464C",
"j.	c #38454C",
"k.	c #38454D",
"l.	c #39454B",
"m.	c #357F73",
"n.	c #26BFA7",
"o.	c #18AC97",
"p.	c #26BDA7",
"q.	c #357D73",
"r.	c #3A454B",
"s.	c #39444B",
"t.	c #348076",
"u.	c #27BDA6",
"v.	c #2DA795",
"w.	c #348175",
"x.	c #37454C",
"y.	c #37444B",
"z.	c #37454B",
"A.	c #38444A",
"B.	c #39434A",
"C.	c #394349",
"D.	c #39444A",
"E.	c #38454B",
"F.	c #38444C",
"G.	c #37444C",
"H.	c #38444B",
"I.	c #37444A",
"J.	c #37434B",
"K.	c #37434A",
"L.	c #36444B",
"M.	c #36444A",
"N.	c #36434B",
"O.	c #36434A",
"                                                        ",
". . . . . . . . . . . . . . . . . . . . . . . . . . . . ",
". . . + . . . + . . . . . @ . # $ # . . + . . + . + . + ",
"# @ . . # @ . . % + & . @ & & & % $ . + # & & @ # & . . ",
"% + @ % % + @ % $ & % + & @ $ # % # . & % & @ & $ % $ + ",
"% % % % % % % % % % % % % % * % % % % % % % % % % % % % ",
"% % = = % % = = % = % - % % ; ; % = > % > = , % % % % , ",
", = ; > , = ; > ; - ' ) ! ! ! ! ~ ' - { ; - { { - % ; { ",
"- ' { { - ' { { ] ^ / ( _ : : _ ( < ^ ] - { ' { - { ; { ",
"{ { { { { { { ] [ } | 1 2 3 3 2 4 | } 5 ] { { { { { { 6 ",
"7 8 6 6 7 8 9 0 a b c c c c c c c c d a 0 , 8 { e { e e ",
"f { f f f g h i 3 c c c c c c c c c c j k l g m e n n e ",
"f e f f o p a j c c c c c c c c c c c c j q r o f n f f ",
"s t t t u v w c c x y z c c c c z y A c c B } C D D f D ",
"t E D E F | c c c y G H z c c z H G I c c c J K E L E M ",
"E t N O P 1 c c c Q R G S z Q R G H z c c c 1 T U N N N ",
"N N N V W 2 c c c c Q R G X H G H z c c c c Y W V N N N ",
"N Z Z `  ...c c c c c Q +.G G @.z c c c c c 3 #.` N N N ",
"$.$.%.&.*.j c c c c c Q =.G G -.z c c c c c j : &.;.>.%.",
"%.,.;.'.W 2 c c c c Q R G @.).G S z c c c c Y !.'.;.%.,.",
";.;.~.{.].4 c c c Q R G H z Q R G S z c c c ^./.{.;.;.;.",
"~.;.(._.:.| c c c <.G H z c c z H G I c c c [.}.{.;.|.1.",
"2.3.~.3.4._ d c c A I z c c c c z I A c c 5.6.L (.(.(.(.",
"1.1.1.1.7.8.9.j c c c c c c c c c c c c j 0.a.7.1.1.1.1.",
"1.b.b.1.1.7.c.k j c c c c c c c c c c j k d.7.b.1.e.f.1.",
"e.e.b.g.e.g.h.c.9.B c c c c c c c c w 0.d.h.i.e.j.j.e.k.",
"k.i.k.j.k.i.j.l.m.n.J 4 o.j j Y 1 [.p.q.r.g.j.j.g.f.k.j.",
"j.j.j.j.j.j.j.j.s.%.t.].u.#.#.u.v.w.h.s.j.j.j.j.j.j.j.j.",
"x.j.y.z.x.j.y.z.x.j.A.B.C.C.C.C.D.A.j.j.E.j.F.E.j.j.j.x.",
"G.z.x.j.G.z.x.j.x.j.E.H.j.F.z.j.x.H.z.j.G.y.j.z.y.H.y.G.",
"z.y.G.y.z.y.G.y.G.y.H.y.y.y.y.y.G.y.y.G.H.z.z.y.H.y.y.y.",
"y.y.y.y.y.y.y.y.y.y.y.y.I.y.y.J.y.I.y.y.J.K.y.I.y.y.y.J.",
"K.K.L.I.K.K.L.I.I.M.I.N.M.y.K.J.J.y.y.M.J.O.I.L.O.L.y.K.",
"L.O.K.M.L.O.K.M.J.J.K.N.O.L.N.K.I.N.N.O.O.L.M.O.K.y.O.O.",
"O.O.O.O.O.O.O.O.M.O.M.O.O.O.O.O.O.L.O.O.O.O.O.O.M.O.N.O.",
"O.O.O.O.O.O.O.O.O.O.O.O.O.O.O.O.O.O.O.O.O.O.O.O.O.O.O.O."};
