/* XPM */
static char * close_prelight_xpm[] = {
"28 36 115 2",
"  	c None",
". 	c #323A3F",
"+ 	c #414B51",
"@ 	c #414B50",
"# 	c #414A50",
"$ 	c #404A50",
"% 	c #404950",
"& 	c #3F494F",
"* 	c #3F4D52",
"= 	c #388478",
"- 	c #2FAA97",
"; 	c #27BDA7",
"> 	c #26C3AC",
", 	c #388279",
"' 	c #398176",
") 	c #27BEA7",
"! 	c #23BEA7",
"~ 	c #1CB59E",
"{ 	c #18AC96",
"] 	c #17A994",
"^ 	c #1CB59F",
"/ 	c #398177",
"( 	c #3F4B51",
"_ 	c #329D8C",
": 	c #24C3AA",
"< 	c #1AAF9A",
"[ 	c #16A691",
"} 	c #1AAF99",
"| 	c #3E494E",
"1 	c #319D8B",
"2 	c #23BFA6",
"3 	c #17A993",
"4 	c #23BFA7",
"5 	c #319D8C",
"6 	c #3E484E",
"7 	c #388176",
"8 	c #24C4AA",
"9 	c #388075",
"0 	c #3D484D",
"a 	c #3D4A4F",
"b 	c #27BFA7",
"c 	c #1AB099",
"d 	c #B3E2DB",
"e 	c #CAEBE6",
"f 	c #28AD9A",
"g 	c #B2E2DB",
"h 	c #1AB09A",
"i 	c #3D4C50",
"j 	c #3D474D",
"k 	c #368377",
"l 	c #FFFFFF",
"m 	c #D4EFEB",
"n 	c #CFEDE9",
"o 	c #24BEA8",
"p 	c #378177",
"q 	c #3D474E",
"r 	c #2EAB97",
"s 	c #26AC98",
"t 	c #D0EDE9",
"u 	c #D5EFEB",
"v 	c #2EA995",
"w 	c #27BDA5",
"x 	c #D8F0EC",
"y 	c #19AC96",
"z 	c #3C464D",
"A 	c #24C5AC",
"B 	c #17A893",
"C 	c #D3EEEA",
"D 	c #D7F0EC",
"E 	c #25C3AC",
"F 	c #3D474C",
"G 	c #25C5AD",
"H 	c #D4EEEA",
"I 	c #D8F0ED",
"J 	c #3C464C",
"K 	c #D4EEEB",
"L 	c #26BDA6",
"M 	c #3B464B",
"N 	c #2DA996",
"O 	c #1DB69F",
"P 	c #2EA794",
"Q 	c #3C454B",
"R 	c #368178",
"S 	c #CBEBE6",
"T 	c #24BEA7",
"U 	c #368176",
"V 	c #3B454B",
"W 	c #3B474D",
"X 	c #1BB09A",
"Y 	c #27BEA6",
"Z 	c #3B494F",
"` 	c #367F75",
" .	c #23C4AA",
"..	c #24C3AB",
"+.	c #357E74",
"@.	c #2F9C8B",
"#.	c #309B8A",
"$.	c #3A444A",
"%.	c #3A464C",
"&.	c #3A454A",
"*.	c #357F73",
"=.	c #26BFA7",
"-.	c #18AC97",
";.	c #26BDA7",
">.	c #357D73",
",.	c #3A484E",
"'.	c #348076",
").	c #27BDA6",
"!.	c #2DA795",
"~.	c #348175",
"{.	c #394349",
"].	c #394449",
"^.	c #384348",
"/.	c #394348",
"(.	c #384248",
". . . . . . . . . . . . . . . . . . . . . . . . . . . . ",
"+ + + + + + + + + + + + + + + + + + + + + + + + + + + + ",
"+ + + + + + + + + + + + + + + + + + + + + + + + + + + + ",
"@ @ @ @ @ @ @ @ @ @ @ @ @ @ @ @ @ @ @ @ @ @ @ @ @ @ @ @ ",
"# # # # # # # # # # # # # # # # # # # # # # # # # # # # ",
"$ $ $ $ $ $ $ $ $ $ $ $ $ $ $ $ $ $ $ $ $ $ $ $ $ $ $ $ ",
"$ $ $ $ $ $ $ $ $ $ $ $ $ $ $ $ $ $ $ $ $ $ $ $ $ $ $ $ ",
"% % % % % % % % % % % % % % % % % % % % % % % % % % % % ",
"& & & & & & & & & * = - ; > > ; - , * & & & & & & & & & ",
"& & & & & & & & ' ) ! ~ { ] ] { ^ ! ) / & & & & & & & & ",
"& & & & & & ( _ : < [ [ [ [ [ [ [ [ } : _ ( & & & & & & ",
"| | | | | | 1 2 ] [ [ [ [ [ [ [ [ [ [ 3 4 5 | | | | | | ",
"6 6 6 6 6 7 : 3 [ [ [ [ [ [ [ [ [ [ [ [ 3 8 9 6 6 6 6 6 ",
"0 0 0 0 a b c [ [ d e f [ [ [ [ f e g [ [ h ) i 0 0 0 0 ",
"j j j j k ! [ [ [ e l m f [ [ f m l n [ [ [ o p j j j j ",
"q q q q r ~ [ [ [ s t l u f s t l m f [ [ [ ~ v q q q q ",
"j j j j w { [ [ [ [ s t l x m l m f [ [ [ [ y w j j j j ",
"z z z z A B [ [ [ [ [ s C l l D f [ [ [ [ [ ] E z z z z ",
"F F F F G 3 [ [ [ [ [ s H l l I f [ [ [ [ [ 3 > F F F F ",
"J J J J w { [ [ [ [ s t l D K l u f [ [ [ [ y L J J J J ",
"M M M M N ^ [ [ [ s t l m f s t l u f [ [ [ O P M M M M ",
"Q Q Q Q R ! [ [ [ S l m f [ [ f m l n [ [ [ T U Q Q Q Q ",
"V V V V W ; } [ [ g n f [ [ [ [ f n g [ [ X Y Z V V V V ",
"V V V V V `  .3 [ [ [ [ [ [ [ [ [ [ [ [ 3 ..+.V V V V V ",
"V V V V V V @.4 3 [ [ [ [ [ [ [ [ [ [ 3 4 #.V V V V V V ",
"$.$.$.$.$.$.%.@. .h [ [ [ [ [ [ [ [ c ..#.%.$.$.$.$.$.$.",
"&.&.&.&.&.&.&.&.*.=.o ^ -.3 3 y ~ T ;.>.&.&.&.&.&.&.&.&.",
"$.$.$.$.$.$.$.$.$.,.'.N ).E E ).!.~.%.$.$.$.$.$.$.$.$.$.",
"{.{.{.{.{.{.{.{.{.{.{.{.{.{.{.{.{.{.{.{.{.{.{.{.{.{.{.{.",
"].].].].].].].].].].].].].].].].].].].].].].].].].].].].",
"{.{.{.{.{.{.{.{.{.{.{.{.{.{.{.{.{.{.{.{.{.{.{.{.{.{.{.{.",
"{.{.{.{.{.{.{.{.{.{.{.{.{.{.{.{.{.{.{.{.{.{.{.{.{.{.{.{.",
"^.^.^.^.^.^.^.^.^.^.^.^.^.^.^.^.^.^.^.^.^.^.^.^.^.^.^.^.",
"/./././././././././././././././././././././././././././.",
"(.(.(.(.(.(.(.(.(.(.(.(.(.(.(.(.(.(.(.(.(.(.(.(.(.(.(.(.",
"(.(.(.(.(.(.(.(.(.(.(.(.(.(.(.(.(.(.(.(.(.(.(.(.(.(.(.(."};
