/* XPM */
static char * close_active_xpm[] = {
"28 36 126 2",
"  	c None",
". 	c #313133",
"+ 	c #4B5252",
"@ 	c #4B5251",
"# 	c #4A5251",
"$ 	c #4A5152",
"% 	c #4B5151",
"& 	c #4A5252",
"* 	c #4B5152",
"= 	c #4A5151",
"- 	c #495151",
"; 	c #4A5150",
"> 	c #495150",
", 	c #495050",
"' 	c #4A5051",
") 	c #4A5050",
"! 	c #495051",
"~ 	c #494F50",
"{ 	c #49504F",
"] 	c #495353",
"^ 	c #408679",
"/ 	c #33AB97",
"( 	c #2ABDA7",
"_ 	c #27C3AC",
": 	c #34AB97",
"< 	c #40857A",
"[ 	c #495253",
"} 	c #484F4F",
"| 	c #494F4E",
"1 	c #418476",
"2 	c #29BEA7",
"3 	c #24BEA7",
"4 	c #1CB59E",
"5 	c #18AC96",
"6 	c #17A994",
"7 	c #1CB59F",
"8 	c #408377",
"9 	c #474F4F",
"0 	c #484E4E",
"a 	c #475151",
"b 	c #379E8C",
"c 	c #25C3AA",
"d 	c #1AAF9A",
"e 	c #16A691",
"f 	c #1AAF99",
"g 	c #24C3AA",
"h 	c #485151",
"i 	c #474E4E",
"j 	c #379E8B",
"k 	c #24BFA6",
"l 	c #17A993",
"m 	c #24BFA7",
"n 	c #389E8C",
"o 	c #474D4E",
"p 	c #3F8376",
"q 	c #24C4AA",
"r 	c #3F8275",
"s 	c #474D4C",
"t 	c #464C4D",
"u 	c #464E4F",
"v 	c #29BFA7",
"w 	c #1AB099",
"x 	c #1AB09A",
"y 	c #475050",
"z 	c #464D4D",
"A 	c #454C4C",
"B 	c #464C4C",
"C 	c #3D8577",
"D 	c #25BEA8",
"E 	c #3D8277",
"F 	c #454C4B",
"G 	c #32AB96",
"H 	c #32AA95",
"I 	c #454B4B",
"J 	c #29BEA5",
"K 	c #19AC96",
"L 	c #29BDA5",
"M 	c #444B4B",
"N 	c #444A4B",
"O 	c #25C5AC",
"P 	c #17A893",
"Q 	c #26C3AC",
"R 	c #454B4A",
"S 	c #444A4A",
"T 	c #434A4A",
"U 	c #26C5AD",
"V 	c #434A49",
"W 	c #28BEA5",
"X 	c #28BDA5",
"Y 	c #44494A",
"Z 	c #434949",
"` 	c #31A996",
" .	c #1DB69F",
"..	c #31A793",
"+.	c #424948",
"@.	c #424848",
"#.	c #424849",
"$.	c #3B8277",
"%.	c #23BEA7",
"&.	c #3B8275",
"*.	c #424847",
"=.	c #424A4A",
"-.	c #28BDA7",
";.	c #1BB09A",
">.	c #28BEA6",
",.	c #424C4B",
"'.	c #414747",
").	c #424747",
"!.	c #3B8074",
"~.	c #25C3AB",
"{.	c #3A7F72",
"].	c #339C8A",
"^.	c #23BFA7",
"/.	c #349B89",
"(.	c #414949",
"_.	c #3A8072",
":.	c #28BFA7",
"<.	c #24BEA8",
"[.	c #18AC97",
"}.	c #3B7E71",
"|.	c #414B4B",
"1.	c #3A8175",
"2.	c #30A995",
"3.	c #28BDA6",
"4.	c #30A894",
"5.	c #3A8274",
". . . . . . . . . . . . . . . . . . . . . . . . . . . . ",
"+ + + + + + + + + + + + + + + + + + + + + + + + + + + + ",
"+ + + + + + + + + + + + + + + + + + + + + + + + + + + + ",
"+ + + + + + + + + + + + + + + + + + + + + + + + + + + + ",
"@ @ @ + # $ + @ % + % + @ & @ + # $ + @ @ @ @ @ * + @ @ ",
"% % % = * % @ $ $ = * # % = % = * % @ $ % = % = $ % % % ",
"- - - - ; > = , ' ' > ; ) ! - - ; > = , ; = = ; = = - - ",
"! ! ! , ) , ! ! ) , ! ! ) , ! ! ) , ! ! ) , ! ! ) , ! ! ",
"~ ~ ~ { { , ~ ~ { ] ^ / ( _ _ ( : < [ ~ { , ~ ~ { , ~ ~ ",
"} } } | | } } } 1 2 3 4 5 6 6 5 7 3 2 8 | } } } | } } } ",
"9 9 9 0 0 } a b c d e e e e e e e e f g b h 9 9 0 } 9 9 ",
"i i i i i 0 j k 6 e e e e e e e e e e l m n i i i 0 i i ",
"o o o o o p g l e e e e e e e e e e e e l q r o o o o o ",
"s s s t u v w e e e e e e e e e e e e e e x 2 y t z s s ",
"A A A B C 3 e e e e e e e e e e e e e e e e D E B A A A ",
"F F F A G 4 e e e e e e e e e e e e e e e e 4 H A A F F ",
"I I I I J 5 e e e e e e e e e e e e e e e e K L I M I I ",
"N N N M O P e e e e e e e e e e e e e e e e 6 Q M R N N ",
"S S S T U l e e e e e e e e e e e e e e e e l Q T S S S ",
"T T T V W 5 e e e e e e e e e e e e e e e e K X V Y T T ",
"Z Z Z Z ` 7 e e e e e e e e e e e e e e e e  ...Z +.Z Z ",
"@.@.@.#.$.%.e e e e e e e e e e e e e e e e 3 &.#.@.@.@.",
"*.*.*.@.=.-.f e e e e e e e e e e e e e e ;.>.,.@.@.*.*.",
"'.'.'.).).!.q l e e e e e e e e e e e e l ~.{.'.).).'.'.",
"'.'.'.'.'.'.].^.l e e e e e e e e e e l ^./.'.'.'.'.'.'.",
"'.'.'.'.'.'.(.].q x e e e e e e e e w ~./.(.'.'.'.'.'.'.",
"'.'.'.'.'.'.'.'._.:.<.7 [.l l K 4 3 -.}.'.'.'.'.'.'.'.'.",
"'.'.'.'.'.'.'.'.'.|.1.2.3.Q Q 3.4.5.(.'.'.'.'.'.'.'.'.'.",
"'.'.'.'.'.'.'.'.'.'.'.'.'.'.'.'.'.'.'.'.'.'.'.'.'.'.'.'.",
"'.'.'.'.'.'.'.'.'.'.'.'.'.'.'.'.'.'.'.'.'.'.'.'.'.'.'.'.",
"'.'.'.'.'.'.'.'.'.'.'.'.'.'.'.'.'.'.'.'.'.'.'.'.'.'.'.'.",
"'.'.'.'.'.'.'.'.'.'.'.'.'.'.'.'.'.'.'.'.'.'.'.'.'.'.'.'.",
"'.'.'.'.'.'.'.'.'.'.'.'.'.'.'.'.'.'.'.'.'.'.'.'.'.'.'.'.",
"'.'.'.'.'.'.'.'.'.'.'.'.'.'.'.'.'.'.'.'.'.'.'.'.'.'.'.'.",
"'.'.'.'.'.'.'.'.'.'.'.'.'.'.'.'.'.'.'.'.'.'.'.'.'.'.'.'.",
"'.'.'.'.'.'.'.'.'.'.'.'.'.'.'.'.'.'.'.'.'.'.'.'.'.'.'.'."};
