/* XPM */
static char * hide_active_xpm[] = {
"28 36 159 2",
"  	c #323A3F",
". 	c #3F4C53",
"+ 	c #3F4C52",
"@ 	c #3E4C53",
"# 	c #3F4B53",
"$ 	c #3E4C52",
"% 	c #3E4B52",
"& 	c #3F4B52",
"* 	c #3E4B53",
"= 	c #3E4A52",
"- 	c #3D4A52",
"; 	c #3D4B51",
"> 	c #3D4B52",
", 	c #3E4B51",
"' 	c #3E4A51",
") 	c #3F4A50",
"! 	c #404950",
"~ 	c #3F4951",
"{ 	c #3D4A51",
"] 	c #3E4950",
"^ 	c #414A50",
"/ 	c #58646F",
"( 	c #6C7887",
"_ 	c #758493",
": 	c #7A8997",
"< 	c #6B7986",
"[ 	c #59636E",
"} 	c #57646C",
"| 	c #768693",
"1 	c #748391",
"2 	c #697787",
"3 	c #606F7E",
"4 	c #5D6C7B",
"5 	c #687888",
"6 	c #748491",
"7 	c #758593",
"8 	c #58626D",
"9 	c #3D4A50",
"0 	c #3C4A51",
"a 	c #3D4951",
"b 	c #3F4B51",
"c 	c #65727E",
"d 	c #778796",
"e 	c #647382",
"f 	c #5A6978",
"g 	c #637282",
"h 	c #788796",
"i 	c #65717E",
"j 	c #3C4951",
"k 	c #3C4950",
"l 	c #3E494F",
"m 	c #64727E",
"n 	c #758392",
"o 	c #758492",
"p 	c #64727C",
"q 	c #3C4A50",
"r 	c #3D4950",
"s 	c #3D484F",
"t 	c #56636C",
"u 	c #788797",
"v 	c #56626B",
"w 	c #3B4950",
"x 	c #3C494F",
"y 	c #3D4A4F",
"z 	c #768493",
"A 	c #637281",
"B 	c #778693",
"C 	c #3F494E",
"D 	c #3C4850",
"E 	c #3C484F",
"F 	c #57636E",
"G 	c #748392",
"H 	c #3B494F",
"I 	c #3B4850",
"J 	c #3B484F",
"K 	c #3D474E",
"L 	c #697888",
"M 	c #6B7885",
"N 	c #3C474E",
"O 	c #3D474D",
"P 	c #758393",
"Q 	c #60707F",
"R 	c #3A484F",
"S 	c #3C464D",
"T 	c #7A8898",
"U 	c #3B474F",
"V 	c #3A484E",
"W 	c #3D474C",
"X 	c #7A8998",
"Y 	c #5C6B7B",
"Z 	c #7A8996",
"` 	c #3A474E",
" .	c #3A474F",
"..	c #3B474E",
"+.	c #3C464C",
"@.	c #3A474D",
"#.	c #3B464C",
"$.	c #697885",
"%.	c #697788",
"&.	c #6B7784",
"*.	c #39464E",
"=.	c #3B464D",
"-.	c #57626C",
";.	c #748492",
">.	c #57616C",
",.	c #39474E",
"'.	c #39464D",
").	c #3A464D",
"!.	c #39474D",
"~.	c #3B474D",
"{.	c #657383",
"].	c #768593",
"^.	c #3D464C",
"/.	c #3A454C",
"(.	c #56606B",
"_.	c #54616A",
":.	c #39454D",
"<.	c #64707D",
"[.	c #64707B",
"}.	c #38464D",
"|.	c #39454C",
"1.	c #38464C",
"2.	c #3A464C",
"3.	c #63707B",
"4.	c #63717B",
"5.	c #39464C",
"6.	c #38454C",
"7.	c #38454D",
"8.	c #39454B",
"9.	c #556069",
"0.	c #768492",
"a.	c #616F7E",
"b.	c #687887",
"c.	c #758491",
"d.	c #546068",
"e.	c #3A454B",
"f.	c #39444B",
"g.	c #3C454B",
"h.	c #55626B",
"i.	c #687785",
"j.	c #56616B",
"k.	c #37454C",
"l.	c #37444B",
"m.	c #37454B",
"n.	c #38444A",
"o.	c #39434A",
"p.	c #394349",
"q.	c #39444A",
"r.	c #38454B",
"s.	c #38444C",
"t.	c #37444C",
"u.	c #38444B",
"v.	c #37444A",
"w.	c #37434B",
"x.	c #37434A",
"y.	c #36444B",
"z.	c #36444A",
"A.	c #36434B",
"B.	c #36434A",
"                                                        ",
". . . . . . . . . . . . . . . . . . . . . . . . . . . . ",
". . . + . . . + . . . . . @ . # $ # . . + . . + . + . + ",
"# @ . . # @ . . % + & . @ & & & % $ . + # & & @ # & . . ",
"% + @ % % + @ % $ & % + & @ $ # % # . & % & @ & $ % $ + ",
"% % % % % % % % % % % % % % * % % % % % % % % % % % % % ",
"% % = = % % = = % = % - % % ; ; % = > % > = , % % % % , ",
", = ; > , = ; > ; - ' ) ! ! ! ! ~ ' - { ; - { { - % ; { ",
"- ' { { - ' { { ] ^ / ( _ : : _ < [ ^ ] - { ' { - { ; { ",
"{ { { { { { { ] } | 1 2 3 4 4 3 5 6 7 8 ] { { { { { { 9 ",
"0 a 9 9 0 a b c d e f f f f f f f f g h i , a { j { j j ",
"k { k k k l m n 4 f f f f f f f f f f 4 o p l q j r r j ",
"k j k k s t d 4 f f f f f f f f f f f f 4 u v s k r k k ",
"w x x x y z A f f f f f f f f f f f f f f e B C D D k D ",
"x E D E F 1 f f f f f f f f f f f f f f f f G t E H E I ",
"E x J K < 5 f f f f f f f f f f f f f f f f L M N J J J ",
"J J J O P 3 f f f f f f f f f f f f f f f f Q o O J J J ",
"J R R S T 4 f f f f f f f f f f f f f f f f 4 : S J J J ",
"U U V W X Y f f f f f f f f f f f f f f f f 4 Z W `  .V ",
"V ..` +.n 3 f f f f f f f f f f f f f f f f Q 1 +.` V ..",
"` ` @.#.$.5 f f f f f f f f f f f f f f f f %.&.#.` ` ` ",
"@.` *.=.-.6 f f f f f f f f f f f f f f f f ;.>.#.` ,.'.",
").!.@.!.~.o g f f f f f f f f f f f f f f {.].^.*.*.*.*.",
"'.'.'.'./.(.h 4 f f f f f f f f f f f f 4 h _./.'.'.'.'.",
"'.:.:.'.'./.<.o 4 f f f f f f f f f f 4 o [./.:.'.}.|.'.",
"}.}.:.1.}.1.2.3.u e f f f f f f f f e h 4.2.5.}.6.6.}.7.",
"7.5.7.6.7.5.6.8.9.0.G L a.4 4 Q b.;.c.d.e.1.6.6.1.|.7.6.",
"6.6.6.6.6.6.6.6.f.g.h.i._ Z Z _ i.j.2.f.6.6.6.6.6.6.6.6.",
"k.6.l.m.k.6.l.m.k.6.n.o.p.p.p.p.q.n.6.6.r.6.s.r.6.6.6.k.",
"t.m.k.6.t.m.k.6.k.6.r.u.6.s.m.6.k.u.m.6.t.l.6.m.l.u.l.t.",
"m.l.t.l.m.l.t.l.t.l.u.l.l.l.l.l.t.l.l.t.u.m.m.l.u.l.l.l.",
"l.l.l.l.l.l.l.l.l.l.l.l.v.l.l.w.l.v.l.l.w.x.l.v.l.l.l.w.",
"x.x.y.v.x.x.y.v.v.z.v.A.z.l.x.w.w.l.l.z.w.B.v.y.B.y.l.x.",
"y.B.x.z.y.B.x.z.w.w.x.A.B.y.A.x.v.A.A.B.B.y.z.B.x.l.B.B.",
"B.B.B.B.B.B.B.B.z.B.z.B.B.B.B.B.B.y.B.B.B.B.B.B.z.B.A.B.",
"B.B.B.B.B.B.B.B.B.B.B.B.B.B.B.B.B.B.B.B.B.B.B.B.B.B.B.B."};
