/* XPM */
static char * shade_active_xpm[] = {
"24 36 92 2",
"  	c #323A3F",
". 	c #3F4C53",
"+ 	c #3F4C52",
"@ 	c #3E4C53",
"# 	c #3F4B53",
"$ 	c #3E4C52",
"% 	c #3E4B52",
"& 	c #3F4B52",
"* 	c #3E4B53",
"= 	c #3E4A52",
"- 	c #404A50",
"; 	c #202323",
"> 	c #0F0F0F",
", 	c #0A0A0A",
"' 	c #3D4B51",
") 	c #161818",
"! 	c #323B41",
"~ 	c #3D4A51",
"{ 	c #263036",
"] 	c #3D4A50",
"^ 	c #3C4950",
"/ 	c #263035",
"( 	c #3D4950",
"_ 	c #252F35",
": 	c #3C494F",
"< 	c #242E33",
"[ 	c #FFFFFF",
"} 	c #3C4850",
"| 	c #242D32",
"1 	c #3B494F",
"2 	c #3B484F",
"3 	c #232C31",
"4 	c #222B30",
"5 	c #3A484F",
"6 	c #212A2F",
"7 	c #222A2F",
"8 	c #E7E7E7",
"9 	c #E4E4E4",
"0 	c #3A484E",
"a 	c #20282E",
"b 	c #C1C1C1",
"c 	c #FCFCFC",
"d 	c #BEBEBF",
"e 	c #3A474E",
"f 	c #20272C",
"g 	c #959696",
"h 	c #929294",
"i 	c #3A474D",
"j 	c #1E262B",
"k 	c #6B6D6D",
"l 	c #FBFBFB",
"m 	c #676969",
"n 	c #39464E",
"o 	c #1E2429",
"p 	c #343839",
"q 	c #DFDFE0",
"r 	c #E5E5E5",
"s 	c #EAEAEA",
"t 	c #EDEDED",
"u 	c #323638",
"v 	c #1D2428",
"w 	c #39464D",
"x 	c #1C2327",
"y 	c #39454D",
"z 	c #1C2226",
"A 	c #38464D",
"B 	c #1A2024",
"C 	c #38454C",
"D 	c #38454D",
"E 	c #39454C",
"F 	c #37444B",
"G 	c #101212",
"H 	c #171B1B",
"I 	c #181D1D",
"J 	c #37454C",
"K 	c #394449",
"L 	c #202424",
"M 	c #101111",
"N 	c #0B0C0C",
"O 	c #38444B",
"P 	c #37444C",
"Q 	c #394349",
"R 	c #555B5B",
"S 	c #5C6161",
"T 	c #5E6363",
"U 	c #37444A",
"V 	c #37434B",
"W 	c #37434A",
"X 	c #36444B",
"Y 	c #36444A",
"Z 	c #36434B",
"` 	c #36434A",
"                                                ",
". . . . . . . . . . . . . . . . . . . . . . . . ",
". + . . . + . . . . . @ . # $ # . . + . . + . + ",
". . # @ . . % + & . @ & & & % $ . + # & & @ # & ",
"@ % % + @ % $ & % + & @ $ # % # . & % & @ & $ % ",
"% % % % % % % % % % % % * % % % % % % % % % % % ",
"= - ; > , , , , , , , , , , , , , , , , > ; - % ",
"' ; ) ! ! ! ! ! ! ! ! ! ! ! ! ! ! ! ! ! ! ) ; % ",
"~ > { { { { { { { { { { { { { { { { { { { { > ~ ",
"~ , { { { { { { { { { { { { { { { { { { { { , ~ ",
"] , { { { { { { { { { { { { { { { { { { { { , ~ ",
"^ , / / / / / / / / / / / / / / / / / / / / , ( ",
"^ , _ _ _ _ _ _ _ _ _ _ _ _ _ _ _ _ _ _ _ _ , ( ",
": , < < < < < [ [ [ [ [ [ [ [ [ [ < < < < < , } ",
"} , | | | | | [ [ [ [ [ [ [ [ [ [ | | | | | , 1 ",
"2 , 3 3 3 3 3 3 3 3 3 3 3 3 3 3 3 3 3 3 3 3 , 2 ",
"2 , 4 4 4 4 4 4 4 4 4 4 4 4 4 4 4 4 4 4 4 4 , 2 ",
"5 , 6 6 6 6 6 6 6 6 7 8 9 7 6 6 6 6 6 6 6 6 , 2 ",
"0 , a a a a a a a a b c c d a a a a a a a a , e ",
"e , f f f f f f f g c c c c h f f f f f f f , e ",
"i , j j j j j j k l c c c c l m j j j j j j , e ",
"n , o o o o o p q r s t t t t 8 u o o o o o , e ",
"i , v v v v v v v v v v v v v v v v v v v v , n ",
"w , x x x x x x x x x x x x x x x x x x x x , w ",
"y , z z z z z z z z z z z z z z z z z z z z , A ",
"y , B B B B B B B B B B B B B B B B B B B B , C ",
"D , B B B B B B B B B B B B B B B B B B B B , E ",
"C > B B B B B B B B B B B B B B B B B B B B > C ",
"F ; G H I I I I I I I I I I I I I I I I H G ; C ",
"J K L M N N N N N N N N N N N N N N N N M L K O ",
"P Q Q R S T T T T T T T T T T T T T T S R Q Q F ",
"F F F F F F F F F F U F F V F U F F V W F U F F ",
"X U W W X U U Y U Z Y F W V V F F Y V ` U X ` X ",
"W Y X ` W Y V V W Z ` X Z W U Z Z ` ` X Y ` W F ",
"` ` ` ` ` ` Y ` Y ` ` ` ` ` ` X ` ` ` ` ` ` Y ` ",
"` ` ` ` ` ` ` ` ` ` ` ` ` ` ` ` ` ` ` ` ` ` ` ` "};
