/* XPM */
static char * shade_pressed_xpm[] = {
"24 36 107 2",
"  	c #323A3F",
". 	c #3F4C53",
"+ 	c #3F4C52",
"@ 	c #3E4C53",
"# 	c #3F4B53",
"$ 	c #3E4C52",
"% 	c #3E4B52",
"& 	c #3F4B52",
"* 	c #3E4B53",
"= 	c #3E4A52",
"- 	c #404A50",
"; 	c #3C4242",
"> 	c #101010",
", 	c #0A0A0A",
"' 	c #3D4B51",
") 	c #3F4646",
"! 	c #0B0D0D",
"~ 	c #0E1212",
"{ 	c #0F1313",
"] 	c #3D4A51",
"^ 	c #0F1010",
"/ 	c #101514",
"( 	c #111514",
"_ 	c #111414",
": 	c #101414",
"< 	c #101415",
"[ 	c #111515",
"} 	c #3D4A50",
"| 	c #111415",
"1 	c #3C4950",
"2 	c #3D4950",
"3 	c #101515",
"4 	c #3C494F",
"5 	c #FFFFFF",
"6 	c #3C4850",
"7 	c #121616",
"8 	c #121515",
"9 	c #121516",
"0 	c #3B494F",
"a 	c #3B484F",
"b 	c #121716",
"c 	c #121717",
"d 	c #131716",
"e 	c #131616",
"f 	c #131817",
"g 	c #131717",
"h 	c #131718",
"i 	c #3A484F",
"j 	c #141818",
"k 	c #141718",
"l 	c #141817",
"m 	c #FCFCFC",
"n 	c #3A484E",
"o 	c #141819",
"p 	c #141919",
"q 	c #151918",
"r 	c #151919",
"s 	c #151819",
"t 	c #CECECE",
"u 	c #3A474E",
"v 	c #161919",
"w 	c #15191A",
"x 	c #A5A5A5",
"y 	c #3A474D",
"z 	c #161A1A",
"A 	c #7A7A7A",
"B 	c #FBFBFB",
"C 	c #39464E",
"D 	c #171B1B",
"E 	c #171A1B",
"F 	c #424343",
"G 	c #F6F6F6",
"H 	c #414343",
"I 	c #171C1B",
"J 	c #181B1B",
"K 	c #181C1C",
"L 	c #39464D",
"M 	c #39454D",
"N 	c #38464D",
"O 	c #181C1D",
"P 	c #191D1D",
"Q 	c #181D1D",
"R 	c #38454C",
"S 	c #38454D",
"T 	c #191C1C",
"U 	c #191C1D",
"V 	c #181D1C",
"W 	c #39454C",
"X 	c #0F0F0F",
"Y 	c #161B1B",
"Z 	c #37444B",
"` 	c #394349",
" .	c #0E0F0F",
"..	c #37454C",
"+.	c #394449",
"@.	c #38444B",
"#.	c #37444C",
"$.	c #555B5B",
"%.	c #5C6161",
"&.	c #5E6363",
"*.	c #37444A",
"=.	c #37434B",
"-.	c #37434A",
";.	c #36444B",
">.	c #36444A",
",.	c #36434B",
"'.	c #36434A",
"                                                ",
". . . . . . . . . . . . . . . . . . . . . . . . ",
". + . . . + . . . . . @ . # $ # . . + . . + . + ",
". . # @ . . % + & . @ & & & % $ . + # & & @ # & ",
"@ % % + @ % $ & % + & @ $ # % # . & % & @ & $ % ",
"% % % % % % % % % % % % * % % % % % % % % % % % ",
"= - ; > , , , , , , , , , , , , , , , , > ; - % ",
"' ) ! ~ { { { { { { { { { { { { { { { { ~ ! ) % ",
"] ^ / ( _ : : _ : : _ : _ : : : : : : _ ( / ^ ] ",
"] , ( < [ : : [ : : [ : [ : : : : : : [ < ( , ] ",
"} , | _ / : : / : : / : / : : : : : : / _ | , ] ",
"1 , : _ : : : : : : : : : : : : : : : : _ : , 2 ",
"1 , < : _ : : _ : : _ : _ : : 3 3 : : _ : < , 2 ",
"4 , [ | | 3 ( 5 5 5 5 5 5 5 5 5 5 ( 3 | | [ , 6 ",
"6 , 7 [ 8 9 9 5 5 5 5 5 5 5 5 5 5 9 9 8 [ 7 , 0 ",
"a , b c 7 7 d 7 7 d 7 7 7 7 d e e d 7 7 c b , a ",
"a , f g g h g g h g g h g h g g g g h g g f , a ",
"i , j k l j g l j g l m m j g j j g j l k j , a ",
"n , o p q r s q r s t m m t s q q s r q p o , u ",
"u , r v v v w v v x m m m m x w w w v v v r , u ",
"y , z z z z z z A B m m m m B A z z z z z z , u ",
"C , D E D D E F G m m m m m m G H E D D E D , u ",
"y , I I J K J J K J J K J K J J J J K J I I , C ",
"L , K K K K K K K K K K K K K K K K K K K K , L ",
"M , K K K K K K K K K K K K K K K K K K K K , N ",
"M , O P Q O O Q O O Q O Q O O O O O O Q P O , R ",
"S , T Q U T T U T T U T U T T V V T T U Q T , W ",
"R X Y Q Q Q Q Q Q Q Q Q Q Q Q Q Q Q Q Q Q Y X R ",
"Z `  .Y Q Q Q Q Q Q Q Q Q Q Q Q Q Q Q Q Y  .` R ",
"..+.+.^ , , , , , , , , , , , , , , , , ^ +.+.@.",
"#.` ` $.%.&.&.&.&.&.&.&.&.&.&.&.&.&.&.%.$.` ` Z ",
"Z Z Z Z Z Z Z Z Z Z *.Z Z =.Z *.Z Z =.-.Z *.Z Z ",
";.*.-.-.;.*.*.>.*.,.>.Z -.=.=.Z Z >.=.'.*.;.'.;.",
"-.>.;.'.-.>.=.=.-.,.'.;.,.-.*.,.,.'.'.;.>.'.-.Z ",
"'.'.'.'.'.'.>.'.>.'.'.'.'.'.'.;.'.'.'.'.'.'.>.'.",
"'.'.'.'.'.'.'.'.'.'.'.'.'.'.'.'.'.'.'.'.'.'.'.'."};
