/* XPM */
static char * close_pressed_xpm[] = {
"28 36 166 2",
"  	c #323A3F",
". 	c #3F4C53",
"+ 	c #3F4C52",
"@ 	c #3E4C53",
"# 	c #3F4B53",
"$ 	c #3E4C52",
"% 	c #3E4B52",
"& 	c #3F4B52",
"* 	c #3E4B53",
"= 	c #3E4A52",
"- 	c #3D4A52",
"; 	c #3D4B51",
"> 	c #3D4B52",
", 	c #3E4B51",
"' 	c #3E4A51",
") 	c #3F4A50",
"! 	c #404950",
"~ 	c #3F4951",
"{ 	c #3D4A51",
"] 	c #3E4950",
"^ 	c #444A56",
"/ 	c #84539E",
"( 	c #AD5ECE",
"_ 	c #C163E9",
": 	c #C966F0",
"< 	c #83549D",
"[ 	c #80549B",
"} 	c #C363E9",
"| 	c #C364E9",
"1 	c #BA63E2",
"2 	c #B161DA",
"3 	c #AE60D6",
"4 	c #81539A",
"5 	c #3D4A50",
"6 	c #3C4A51",
"7 	c #3D4951",
"8 	c #404951",
"9 	c #A05ABF",
"0 	c #C865EE",
"a 	c #B562DE",
"b 	c #AB60D4",
"c 	c #C765F0",
"d 	c #9F5BBF",
"e 	c #3C4951",
"f 	c #3C4950",
"g 	c #3E494F",
"h 	c #C464EB",
"i 	c #AE60D7",
"j 	c #C464EC",
"k 	c #9E5ABD",
"l 	c #3C4A50",
"m 	c #3D4950",
"n 	c #3D484F",
"o 	c #80539B",
"p 	c #AE61D7",
"q 	c #7F5298",
"r 	c #3B4950",
"s 	c #3C494F",
"t 	c #404852",
"u 	c #C264E8",
"v 	c #B461DD",
"w 	c #E4CBF1",
"x 	c #EFE0F7",
"y 	c #B26CD7",
"z 	c #B562DD",
"A 	c #C263E9",
"B 	c #424954",
"C 	c #3C4850",
"D 	c #3C484F",
"E 	c #83529D",
"F 	c #ECDBF5",
"G 	c #FFFFFF",
"H 	c #F0E2F7",
"I 	c #EEDFF6",
"J 	c #C365EA",
"K 	c #81539C",
"L 	c #3B494F",
"M 	c #3B4850",
"N 	c #3B484F",
"O 	c #3D474E",
"P 	c #AD5FCF",
"Q 	c #BA62E2",
"R 	c #B16BD7",
"S 	c #BA63E3",
"T 	c #AB5DCE",
"U 	c #3C474E",
"V 	c #3D474D",
"W 	c #C263E8",
"X 	c #C162E8",
"Y 	c #3A484F",
"Z 	c #3C464D",
"` 	c #C966F1",
" .	c #CA66F1",
"..	c #3B474F",
"+.	c #3A484E",
"@.	c #3D474C",
"#.	c #C965F2",
"$.	c #AD61D6",
"%.	c #3A474E",
"&.	c #3A474F",
"*.	c #3B474E",
"=.	c #3C464C",
"-.	c #C164E7",
";.	c #3A474D",
">.	c #3B464C",
",.	c #BB62E2",
"'.	c #AB5ECD",
").	c #39464E",
"!.	c #3B464D",
"~.	c #82519C",
"{.	c #C364EA",
"].	c #80519A",
"^.	c #39474E",
"/.	c #39464D",
"(.	c #3A464D",
"_.	c #39474D",
":.	c #3E4551",
"<.	c #E3CBF1",
"[.	c #B662DE",
"}.	c #C364E8",
"|.	c #404652",
"1.	c #3A454C",
"2.	c #805099",
"3.	c #C865EF",
"4.	c #7D5096",
"5.	c #39454D",
"6.	c #9E59BE",
"7.	c #9C59BC",
"8.	c #38464D",
"9.	c #39454C",
"0.	c #38464C",
"a.	c #3C444C",
"b.	c #9D58BD",
"c.	c #39464C",
"d.	c #38454C",
"e.	c #38454D",
"f.	c #39454B",
"g.	c #7E5097",
"h.	c #B162DA",
"i.	c #7C5195",
"j.	c #3A454B",
"k.	c #39444B",
"l.	c #3F4551",
"m.	c #81529B",
"n.	c #AB5DCD",
"o.	c #AB5BCD",
"p.	c #7F519A",
"q.	c #3D4450",
"r.	c #37454C",
"s.	c #37444B",
"t.	c #37454B",
"u.	c #38444A",
"v.	c #39434A",
"w.	c #394349",
"x.	c #39444A",
"y.	c #38454B",
"z.	c #38444C",
"A.	c #37444C",
"B.	c #38444B",
"C.	c #37444A",
"D.	c #37434B",
"E.	c #37434A",
"F.	c #36444B",
"G.	c #36444A",
"H.	c #36434B",
"I.	c #36434A",
"                                                        ",
". . . . . . . . . . . . . . . . . . . . . . . . . . . . ",
". . . + . . . + . . . . . @ . # $ # . . + . . + . + . + ",
"# @ . . # @ . . % + & . @ & & & % $ . + # & & @ # & . . ",
"% + @ % % + @ % $ & % + & @ $ # % # . & % & @ & $ % $ + ",
"% % % % % % % % % % % % % % * % % % % % % % % % % % % % ",
"% % = = % % = = % = % - % % ; ; % = > % > = , % % % % , ",
", = ; > , = ; > ; - ' ) ! ! ! ! ~ ' - { ; - { { - % ; { ",
"- ' { { - ' { { ] ^ / ( _ : : _ ( < ^ ] - { ' { - { ; { ",
"{ { { { { { { ] [ } | 1 2 3 3 2 1 | } 4 ] { { { { { { 5 ",
"6 7 5 5 6 7 8 9 0 a b b b b b b b b a c d 8 7 { e { e e ",
"f { f f f g 9 h 3 b b b b b b b b b b i j k g l e m m e ",
"f e f f n o 0 i b b b b b b b b b b b b p c q n f m f f ",
"r s s s t u v b b w x y b b b b y x w b b z A B C C f C ",
"s D C D E | b b b F G H y b b y H G I b b b J K D L D M ",
"D s N O P Q b b b R I G H y R I G H y b b b S T U N N N ",
"N N N V W 2 b b b b y H G H H G H y b b b b 2 X V N N N ",
"N Y Y Z ` 3 b b b b b R I G G H y b b b b b 3  .Z N N N ",
"....+.@.#.$.b b b b b R I G G H y b b b b b i : @.%.&.+.",
"+.*.%.=.W 2 b b b b y H G H H G H y b b b b 2 -.=.%.+.*.",
"%.%.;.>.T 1 b b b R I G H y R I G H y b b b ,.'.>.%.%.%.",
";.%.).!.~.| b b b F G H y b b y H G I b b b {.].>.%.^./.",
"(._.;._.:.u a b b <.I y b b b b y I <.b b [.}.|.).).).).",
"/./././.1.2.c p b b b b b b b b b b b b p 3.4.1././././.",
"/.5.5././.1.6.j p b b b b b b b b b b p j 7.1.5./.8.9./.",
"8.8.5.0.8.0.a.b.c z b b b b b b b b z 3.b.a.c.8.d.d.8.e.",
"e.c.e.d.e.c.d.f.g.W J S h.i i 2 Q {.W i.j.0.d.d.0.9.e.d.",
"d.d.d.d.d.d.d.d.k.l.m.n.W : : W o.p.q.k.d.d.d.d.d.d.d.d.",
"r.d.s.t.r.d.s.t.r.d.u.v.w.w.w.w.x.u.d.d.y.d.z.y.d.d.d.r.",
"A.t.r.d.A.t.r.d.r.d.y.B.d.z.t.d.r.B.t.d.A.s.d.t.s.B.s.A.",
"t.s.A.s.t.s.A.s.A.s.B.s.s.s.s.s.A.s.s.A.B.t.t.s.B.s.s.s.",
"s.s.s.s.s.s.s.s.s.s.s.s.C.s.s.D.s.C.s.s.D.E.s.C.s.s.s.D.",
"E.E.F.C.E.E.F.C.C.G.C.H.G.s.E.D.D.s.s.G.D.I.C.F.I.F.s.E.",
"F.I.E.G.F.I.E.G.D.D.E.H.I.F.H.E.C.H.H.I.I.F.G.I.E.s.I.I.",
"I.I.I.I.I.I.I.I.G.I.G.I.I.I.I.I.I.F.I.I.I.I.I.I.G.I.H.I.",
"I.I.I.I.I.I.I.I.I.I.I.I.I.I.I.I.I.I.I.I.I.I.I.I.I.I.I.I."};
