/* XPM */
static char * close_pressed_xpm[] = {
"28 36 107 2",
"  	c None",
". 	c #323A3F",
"+ 	c #414B51",
"@ 	c #414B50",
"# 	c #414A50",
"$ 	c #404A50",
"% 	c #404950",
"& 	c #3F494F",
"* 	c #444A56",
"= 	c #84539E",
"- 	c #AD5ECE",
"; 	c #C163E9",
"> 	c #C966F0",
", 	c #83549D",
"' 	c #80549B",
") 	c #C363E9",
"! 	c #C364E9",
"~ 	c #BA63E2",
"{ 	c #B161DA",
"] 	c #AE60D6",
"^ 	c #81539A",
"/ 	c #414951",
"( 	c #A05ABF",
"_ 	c #C865EE",
": 	c #B562DE",
"< 	c #AB60D4",
"[ 	c #C765F0",
"} 	c #9F5BBF",
"| 	c #3E494E",
"1 	c #C464EB",
"2 	c #AE60D7",
"3 	c #C464EC",
"4 	c #9E5ABD",
"5 	c #3E484E",
"6 	c #80539B",
"7 	c #AE61D7",
"8 	c #7F5298",
"9 	c #3D484D",
"0 	c #404852",
"a 	c #C264E8",
"b 	c #B461DD",
"c 	c #E4CBF1",
"d 	c #EFE0F7",
"e 	c #B26CD7",
"f 	c #B562DD",
"g 	c #C263E9",
"h 	c #424954",
"i 	c #3D474D",
"j 	c #83529D",
"k 	c #ECDBF5",
"l 	c #FFFFFF",
"m 	c #F0E2F7",
"n 	c #EEDFF6",
"o 	c #C365EA",
"p 	c #81539C",
"q 	c #3D474E",
"r 	c #AD5FCF",
"s 	c #BA62E2",
"t 	c #B16BD7",
"u 	c #BA63E3",
"v 	c #AB5DCE",
"w 	c #C263E8",
"x 	c #C162E8",
"y 	c #3C464D",
"z 	c #C966F1",
"A 	c #CA66F1",
"B 	c #3D474C",
"C 	c #C965F2",
"D 	c #AD61D6",
"E 	c #3C464C",
"F 	c #C164E7",
"G 	c #3B464B",
"H 	c #BB62E2",
"I 	c #AB5ECD",
"J 	c #3C454B",
"K 	c #82519C",
"L 	c #C364EA",
"M 	c #80519A",
"N 	c #3B454B",
"O 	c #3E4551",
"P 	c #E3CBF1",
"Q 	c #B662DE",
"R 	c #C364E8",
"S 	c #404652",
"T 	c #805099",
"U 	c #C865EF",
"V 	c #7D5096",
"W 	c #9E59BE",
"X 	c #9C59BC",
"Y 	c #3A444A",
"Z 	c #3D444C",
"` 	c #9D58BD",
" .	c #3A454A",
"..	c #7E5097",
"+.	c #B162DA",
"@.	c #7C5195",
"#.	c #3F4551",
"$.	c #81529B",
"%.	c #AB5DCD",
"&.	c #AB5BCD",
"*.	c #7F519A",
"=.	c #3D4450",
"-.	c #394349",
";.	c #394449",
">.	c #384348",
",.	c #394348",
"'.	c #384248",
". . . . . . . . . . . . . . . . . . . . . . . . . . . . ",
"+ + + + + + + + + + + + + + + + + + + + + + + + + + + + ",
"+ + + + + + + + + + + + + + + + + + + + + + + + + + + + ",
"@ @ @ @ @ @ @ @ @ @ @ @ @ @ @ @ @ @ @ @ @ @ @ @ @ @ @ @ ",
"# # # # # # # # # # # # # # # # # # # # # # # # # # # # ",
"$ $ $ $ $ $ $ $ $ $ $ $ $ $ $ $ $ $ $ $ $ $ $ $ $ $ $ $ ",
"$ $ $ $ $ $ $ $ $ $ $ $ $ $ $ $ $ $ $ $ $ $ $ $ $ $ $ $ ",
"% % % % % % % % % % % % % % % % % % % % % % % % % % % % ",
"& & & & & & & & & * = - ; > > ; - , * & & & & & & & & & ",
"& & & & & & & & ' ) ! ~ { ] ] { ~ ! ) ^ & & & & & & & & ",
"& & & & & & / ( _ : < < < < < < < < : [ } / & & & & & & ",
"| | | | | | ( 1 ] < < < < < < < < < < 2 3 4 | | | | | | ",
"5 5 5 5 5 6 _ 2 < < < < < < < < < < < < 7 [ 8 5 5 5 5 5 ",
"9 9 9 9 0 a b < < c d e < < < < e d c < < f g h 9 9 9 9 ",
"i i i i j ! < < < k l m e < < e m l n < < < o p i i i i ",
"q q q q r s < < < t n l m e t n l m e < < < u v q q q q ",
"i i i i w { < < < < e m l m m l m e < < < < { x i i i i ",
"y y y y z ] < < < < < t n l l m e < < < < < ] A y y y y ",
"B B B B C D < < < < < t n l l m e < < < < < 2 > B B B B ",
"E E E E w { < < < < e m l m m l m e < < < < { F E E E E ",
"G G G G v ~ < < < t n l m e t n l m e < < < H I G G G G ",
"J J J J K ! < < < k l m e < < e m l n < < < L M J J J J ",
"N N N N O a : < < P n e < < < < e n P < < Q R S N N N N ",
"N N N N N T [ 7 < < < < < < < < < < < < 7 U V N N N N N ",
"N N N N N N W 3 7 < < < < < < < < < < 7 3 X N N N N N N ",
"Y Y Y Y Y Y Z ` [ f < < < < < < < < f U ` Z Y Y Y Y Y Y ",
" . . . . . . . ...w o u +.2 2 { s L w @. . . . . . . . .",
"Y Y Y Y Y Y Y Y Y #.$.%.w > > w &.*.=.Y Y Y Y Y Y Y Y Y ",
"-.-.-.-.-.-.-.-.-.-.-.-.-.-.-.-.-.-.-.-.-.-.-.-.-.-.-.-.",
";.;.;.;.;.;.;.;.;.;.;.;.;.;.;.;.;.;.;.;.;.;.;.;.;.;.;.;.",
"-.-.-.-.-.-.-.-.-.-.-.-.-.-.-.-.-.-.-.-.-.-.-.-.-.-.-.-.",
"-.-.-.-.-.-.-.-.-.-.-.-.-.-.-.-.-.-.-.-.-.-.-.-.-.-.-.-.",
">.>.>.>.>.>.>.>.>.>.>.>.>.>.>.>.>.>.>.>.>.>.>.>.>.>.>.>.",
",.,.,.,.,.,.,.,.,.,.,.,.,.,.,.,.,.,.,.,.,.,.,.,.,.,.,.,.",
"'.'.'.'.'.'.'.'.'.'.'.'.'.'.'.'.'.'.'.'.'.'.'.'.'.'.'.'.",
"'.'.'.'.'.'.'.'.'.'.'.'.'.'.'.'.'.'.'.'.'.'.'.'.'.'.'.'."};
