/* XPM */
static char * close_prelight_xpm[] = {
"24 24 97 2",
"  	c None",
". 	c #313133",
"+ 	c #4B5252",
"@ 	c #4B5151",
"# 	c #4A5152",
"$ 	c #4A5151",
"% 	c #4B5152",
"& 	c #4A5051",
"* 	c #495150",
"= 	c #4A5050",
"- 	c #495050",
"; 	c #5B5269",
"> 	c #A25DC2",
", 	c #BB62E2",
"' 	c #BE64E4",
") 	c #BB62E1",
"! 	c #5D5267",
"~ 	c #494F50",
"{ 	c #49504F",
"] 	c #8859A0",
"^ 	c #B362DC",
"/ 	c #AC60D4",
"( 	c #AB60D4",
"_ 	c #B362DD",
": 	c #BF64E4",
"< 	c #484F4F",
"[ 	c #494F4F",
"} 	c #88589F",
"| 	c #BD63E3",
"1 	c #AC60D5",
"2 	c #484F4E",
"3 	c #484E4E",
"4 	c #474F4E",
"5 	c #5B5167",
"6 	c #B471D9",
"7 	c #C794E2",
"8 	c #C795E2",
"9 	c #5C5067",
"0 	c #484E4F",
"a 	c #474D4E",
"b 	c #474E4E",
"c 	c #A35DC2",
"d 	c #B262DD",
"e 	c #FFFFFF",
"f 	c #D3ACE9",
"g 	c #A15CC0",
"h 	c #484D4E",
"i 	c #474D4D",
"j 	c #474E4D",
"k 	c #BC62E2",
"l 	c #BA62E1",
"m 	c #464D4D",
"n 	c #BD62E3",
"o 	c #D1A8E8",
"p 	c #D4ADE9",
"q 	c #BE63E3",
"r 	c #464D4C",
"s 	c #474D4C",
"t 	c #464C4C",
"u 	c #D2A9E8",
"v 	c #D4AEE9",
"w 	c #BE62E2",
"x 	c #464C4B",
"y 	c #454C4C",
"z 	c #BB63E1",
"A 	c #454C4B",
"B 	c #454B4B",
"C 	c #A15BC1",
"D 	c #A05BC0",
"E 	c #444B4B",
"F 	c #444A4A",
"G 	c #444B4A",
"H 	c #444A4B",
"I 	c #594D63",
"J 	c #BF63E4",
"K 	c #BE63E4",
"L 	c #584D62",
"M 	c #444A49",
"N 	c #85559E",
"O 	c #85559D",
"P 	c #434A49",
"Q 	c #86559E",
"R 	c #BF63E5",
"S 	c #84559D",
"T 	c #434949",
"U 	c #434948",
"V 	c #564C64",
"W 	c #BA62E0",
"X 	c #A15AC0",
"Y 	c #594B63",
"Z 	c #424949",
"` 	c #424848",
" .	c #424747",
"..	c #414847",
"+.	c #414748",
"@.	c #424748",
"#.	c #414747",
". . . . . . . . . . . . . . . . . . . . . . . . ",
"+ + + + + + + + + + + + + + + + + + + + + + + + ",
"+ + + + + + + + + + + + + + + + + + + + + + + + ",
"+ + + + + + + + + + + + + + + + + + + + + + + + ",
"@ + @ @ + @ @ + @ + @ + @ + @ + @ + @ + @ + + + ",
"# $ % # $ % # $ # $ # $ # $ # $ # $ # $ % # @ $ ",
"& & * & & & * & * $ * & * $ & * & * $ & * & * $ ",
"= * - = * * - * ; > , ' ' ) > ! * - & * - * - & ",
"~ { { ~ { { { ] ' ^ / ( ( / _ : ] ~ ~ { { - ~ ~ ",
"< < [ < < < } | 1 ( ( ( ( ( ( 1 | ] < < [ [ [ < ",
"2 3 4 2 3 5 ' 1 6 7 ( ( ( ( 8 6 1 : 9 3 4 < 0 0 ",
"a b b a b c d ( 8 e f ( ( f e 8 ( _ g b b b h 3 ",
"i i j i i k / ( ( f e f f e f ( ( / l i j j i i ",
"m m i m m n ( ( ( ( o e e p ( ( ( ( q m i m r s ",
"t t r t t q ( ( ( ( u e e v ( ( ( ( w t r t r t ",
"x y y x y , / ( ( u e p o e v ( ( / z y y t A B ",
"B B B B B C _ ( 8 e f ( ( f e 8 ( _ D B B B B E ",
"F G H F G I J 1 6 7 ( ( ( ( 7 6 1 K L G H E B F ",
"F F M F F F N | 1 ( ( ( ( ( ( 1 n O F F M F F F ",
"P P M P P P M Q J _ / ( ( / _ R S T F P M T T F ",
"T U T T U U T T V C l w w W X Y T Z T U T T Z T ",
"Z ` ` Z ` ` ` ` ` ` ` ` ` ` ` ` ` ` ` ` ` ` ` ` ",
" ...+. ...+. ... ... ... ... ... ... ...+.@.` ` ",
"#.#.#.#.#.#.#.#.#.#.#.#.#.#.#.#.#.#.#.#.#.+. .#."};
