/* XPM */
static char * close_active_xpm[] = {
"28 36 122 2",
"  	c None",
". 	c #313133",
"+ 	c #4B5252",
"@ 	c #4B5251",
"# 	c #4A5251",
"$ 	c #4A5152",
"% 	c #4B5151",
"& 	c #4A5252",
"* 	c #4B5152",
"= 	c #4A5151",
"- 	c #495151",
"; 	c #4A5150",
"> 	c #495150",
", 	c #495050",
"' 	c #4A5051",
") 	c #4A5050",
"! 	c #495051",
"~ 	c #494F50",
"{ 	c #49504F",
"] 	c #4D5157",
"^ 	c #87579E",
"/ 	c #AE60CF",
"( 	c #C164E9",
"_ 	c #C966F0",
": 	c #AE60CE",
"< 	c #86589D",
"[ 	c #4D5057",
"} 	c #484F4F",
"| 	c #494F4E",
"1 	c #83579B",
"2 	c #C364E9",
"3 	c #BA63E2",
"4 	c #B161DA",
"5 	c #AE60D6",
"6 	c #84579A",
"7 	c #474F4F",
"8 	c #484E4E",
"9 	c #494F51",
"0 	c #A15CBF",
"a 	c #C865EE",
"b 	c #B562DE",
"c 	c #AB60D4",
"d 	c #C765F0",
"e 	c #A05CBF",
"f 	c #4A4F51",
"g 	c #474E4E",
"h 	c #C564EB",
"i 	c #AE60D7",
"j 	c #C564EC",
"k 	c #9F5CBD",
"l 	c #474D4E",
"m 	c #83569B",
"n 	c #AE61D7",
"o 	c #825598",
"p 	c #474D4C",
"q 	c #464C4D",
"r 	c #484C52",
"s 	c #C264E8",
"t 	c #B461DD",
"u 	c #B562DD",
"v 	c #C264E9",
"w 	c #4B4E53",
"x 	c #464D4D",
"y 	c #454C4C",
"z 	c #464C4C",
"A 	c #86559D",
"B 	c #C365EA",
"C 	c #84569B",
"D 	c #454C4B",
"E 	c #BA62E2",
"F 	c #BA63E3",
"G 	c #AC5ECE",
"H 	c #454B4B",
"I 	c #C263E8",
"J 	c #C262E8",
"K 	c #444B4B",
"L 	c #444A4B",
"M 	c #C966F1",
"N 	c #CA66F1",
"O 	c #454B4A",
"P 	c #444A4A",
"Q 	c #434A4A",
"R 	c #C965F2",
"S 	c #AD61D6",
"T 	c #434A49",
"U 	c #C164E7",
"V 	c #44494A",
"W 	c #434949",
"X 	c #AC5ECD",
"Y 	c #BB62E2",
"Z 	c #424948",
"` 	c #424848",
" .	c #424849",
"..	c #84539B",
"+.	c #C364EA",
"@.	c #82539A",
"#.	c #424847",
"$.	c #44484E",
"%.	c #B662DE",
"&.	c #C364E8",
"*.	c #46494F",
"=.	c #414747",
"-.	c #424747",
";.	c #825298",
">.	c #C865EF",
",.	c #7E5295",
"'.	c #9F5ABE",
").	c #C464EC",
"!.	c #9D5ABB",
"~.	c #434749",
"{.	c #9E5ABC",
"].	c #9E59BD",
"^.	c #805196",
"/.	c #B162DA",
"(.	c #7E5294",
"_.	c #45484F",
":.	c #83539A",
"<.	c #AC5DCD",
"[.	c #C363E8",
"}.	c #AC5CCC",
"|.	c #815299",
"1.	c #43474D",
". . . . . . . . . . . . . . . . . . . . . . . . . . . . ",
"+ + + + + + + + + + + + + + + + + + + + + + + + + + + + ",
"+ + + + + + + + + + + + + + + + + + + + + + + + + + + + ",
"+ + + + + + + + + + + + + + + + + + + + + + + + + + + + ",
"@ @ @ + # $ + @ % + % + @ & @ + # $ + @ @ @ @ @ * + @ @ ",
"% % % = * % @ $ $ = * # % = % = * % @ $ % = % = $ % % % ",
"- - - - ; > = , ' ' > ; ) ! - - ; > = , ; = = ; = = - - ",
"! ! ! , ) , ! ! ! , ! ! ) , ! ! ) , ! ! ) , ! ! ) , ! ! ",
"~ ~ ~ { { , ~ ~ ~ ] ^ / ( _ _ ( : < [ ~ { , ~ ~ { , ~ ~ ",
"} } } | | } } } 1 2 2 3 4 5 5 4 3 2 2 6 | } } } | } } } ",
"7 7 7 8 8 } 9 0 a b c c c c c c c c b d e f 7 7 8 } 7 7 ",
"g g g g g 8 0 h 5 c c c c c c c c c c i j k g g g 8 g g ",
"l l l l l m a i c c c c c c c c c c c c n d o l l l l l ",
"p p p q r s t c c c c c c c c c c c c c c u v w q x p p ",
"y y y z A 2 c c c c c c c c c c c c c c c c B C z y y y ",
"D D D y / E c c c c c c c c c c c c c c c c F G y y D D ",
"H H H H I 4 c c c c c c c c c c c c c c c c 4 J H K H H ",
"L L L K M 5 c c c c c c c c c c c c c c c c 5 N K O L L ",
"P P P Q R S c c c c c c c c c c c c c c c c i _ Q P P P ",
"Q Q Q T I 4 c c c c c c c c c c c c c c c c 4 U T V Q Q ",
"W W W W X 3 c c c c c c c c c c c c c c c c Y X W Z W W ",
"` ` `  ...2 c c c c c c c c c c c c c c c c +.@. .` ` ` ",
"#.#.#.` $.s b c c c c c c c c c c c c c c %.&.*.` ` #.#.",
"=.=.=.-.-.;.d n c c c c c c c c c c c c n >.,.=.-.-.=.=.",
"=.=.=.=.=.=.'.).n c c c c c c c c c c n ).!.=.=.=.=.=.=.",
"=.=.=.=.=.=.~.{.d u c c c c c c c c u >.].~.=.=.=.=.=.=.",
"=.=.=.=.=.=.=.=.^.I B F /.i i 4 E +.I (.=.=.=.=.=.=.=.=.",
"=.=.=.=.=.=.=.=.=._.:.<.[._ _ [.}.|.1.=.=.=.=.=.=.=.=.=.",
"=.=.=.=.=.=.=.=.=.=.=.=.=.=.=.=.=.=.=.=.=.=.=.=.=.=.=.=.",
"=.=.=.=.=.=.=.=.=.=.=.=.=.=.=.=.=.=.=.=.=.=.=.=.=.=.=.=.",
"=.=.=.=.=.=.=.=.=.=.=.=.=.=.=.=.=.=.=.=.=.=.=.=.=.=.=.=.",
"=.=.=.=.=.=.=.=.=.=.=.=.=.=.=.=.=.=.=.=.=.=.=.=.=.=.=.=.",
"=.=.=.=.=.=.=.=.=.=.=.=.=.=.=.=.=.=.=.=.=.=.=.=.=.=.=.=.",
"=.=.=.=.=.=.=.=.=.=.=.=.=.=.=.=.=.=.=.=.=.=.=.=.=.=.=.=.",
"=.=.=.=.=.=.=.=.=.=.=.=.=.=.=.=.=.=.=.=.=.=.=.=.=.=.=.=.",
"=.=.=.=.=.=.=.=.=.=.=.=.=.=.=.=.=.=.=.=.=.=.=.=.=.=.=.=."};
