/* XPM */
static char * close_prelight_xpm[] = {
"28 36 101 2",
"  	c #323A3F",
". 	c #414B51",
"+ 	c #414B50",
"@ 	c #414A50",
"# 	c #404A50",
"$ 	c #404950",
"% 	c #3F494F",
"& 	c #484B5C",
"* 	c #935CC3",
"= 	c #AE67F0",
"- 	c #B06BFD",
"; 	c #AF6CFE",
"> 	c #AD67F0",
", 	c #925DC2",
"' 	c #905CC0",
") 	c #B06AFD",
"! 	c #AB67FE",
"~ 	c #A35EFF",
"{ 	c #9D58FF",
"] 	c #9B56FF",
"^ 	c #A25FFF",
"/ 	c #AB68FE",
"( 	c #905CBF",
"_ 	c #434953",
": 	c #A764E4",
"< 	c #AE6BFE",
"[ 	c #9F5AFF",
"} 	c #9954FF",
"| 	c #9F5BFF",
"1 	c #AD6BFE",
"2 	c #A765E4",
"3 	c #3E494E",
"4 	c #AC69FE",
"5 	c #9A56FF",
"6 	c #A764E3",
"7 	c #3E484E",
"8 	c #905BC0",
"9 	c #8F5ABD",
"0 	c #3D484D",
"a 	c #434857",
"b 	c #DEC7FF",
"c 	c #EBDDFF",
"d 	c #A161FF",
"e 	c #464A5A",
"f 	c #3D474D",
"g 	c #935BC3",
"h 	c #E8D8FF",
"i 	c #FFFFFF",
"j 	c #ECDFFF",
"k 	c #EADCFF",
"l 	c #AC67FE",
"m 	c #925CC2",
"n 	c #3D474E",
"o 	c #A25EFF",
"p 	c #A05FFF",
"q 	c #EDE0FF",
"r 	c #A35FFF",
"s 	c #AE66F0",
"t 	c #B06BFC",
"u 	c #9D59FF",
"v 	c #B06AFC",
"w 	c #3C464D",
"x 	c #B06CFE",
"y 	c #3D474C",
"z 	c #B06DFE",
"A 	c #3C464C",
"B 	c #B16AFC",
"C 	c #3B464B",
"D 	c #AC67F0",
"E 	c #AC67EF",
"F 	c #3C454B",
"G 	c #915BC2",
"H 	c #E8D9FF",
"I 	c #AC68FE",
"J 	c #915BC0",
"K 	c #3B454B",
"L 	c #414556",
"M 	c #DDC7FF",
"N 	c #B16BFD",
"O 	c #444759",
"P 	c #8F5ABF",
"Q 	c #8D5ABC",
"R 	c #A664E4",
"S 	c #A664E2",
"T 	c #3A444A",
"U 	c #3F444E",
"V 	c #A763E3",
"W 	c #A662E3",
"X 	c #3A454A",
"Y 	c #8E59BD",
"Z 	c #8D5ABB",
"` 	c #444658",
" .	c #925BC1",
"..	c #AD67EF",
"+.	c #AD66EF",
"@.	c #404455",
"#.	c #394349",
"$.	c #394449",
"%.	c #384348",
"&.	c #394348",
"*.	c #384248",
"                                                        ",
". . . . . . . . . . . . . . . . . . . . . . . . . . . . ",
". . . . . . . . . . . . . . . . . . . . . . . . . . . . ",
"+ + + + + + + + + + + + + + + + + + + + + + + + + + + + ",
"@ @ @ @ @ @ @ @ @ @ @ @ @ @ @ @ @ @ @ @ @ @ @ @ @ @ @ @ ",
"# # # # # # # # # # # # # # # # # # # # # # # # # # # # ",
"# # # # # # # # # # # # # # # # # # # # # # # # # # # # ",
"$ $ $ $ $ $ $ $ $ $ $ $ $ $ $ $ $ $ $ $ $ $ $ $ $ $ $ $ ",
"% % % % % % % % % & * = - ; ; - > , & % % % % % % % % % ",
"% % % % % % % % ' ) ! ~ { ] ] { ^ / - ( % % % % % % % % ",
"% % % % % % _ : < [ } } } } } } } } | 1 2 _ % % % % % % ",
"3 3 3 3 3 3 : 4 ] } } } } } } } } } } 5 4 6 3 3 3 3 3 3 ",
"7 7 7 7 7 8 < 5 } } } } } } } } } } } } ] < 9 7 7 7 7 7 ",
"0 0 0 0 a ) | } } b c d } } } } d c b } } | - e 0 0 0 0 ",
"f f f f g ! } } } h i j d } } d j i k } } } l m f f f f ",
"n n n n = o } } } p c i q d p c i j d } } } r s n n n n ",
"f f f f t { } } } } d j i j j i j d } } } } u v f f f f ",
"w w w w x 5 } } } } } p c i i j d } } } } } ] ; w w w w ",
"y y y y z ] } } } } } p c i i q d } } } } } 5 ; y y y y ",
"A A A A t { } } } } d j i j j i j d } } } } u B A A A A ",
"C C C C D ^ } } } p c i j d p c i q d } } } o E C C C C ",
"F F F F G / } } } H i j d } } d j i k } } } I J F F F F ",
"K K K K L t | } } M k d } } } } d k M } } | N O K K K K ",
"K K K K K P 1 ] } } } } } } } } } } } } ] < Q K K K K K ",
"K K K K K K R 4 ] } } } } } } } } } } ] 4 S K K K K K K ",
"T T T T T T U V < | } } } } } } } } | < W U T T T T T T ",
"X X X X X X X X Y ) l ~ u 5 5 u r I t Z X X X X X X X X ",
"T T T T T T T T T `  ...t ; ; t +.8 @.T T T T T T T T T ",
"#.#.#.#.#.#.#.#.#.#.#.#.#.#.#.#.#.#.#.#.#.#.#.#.#.#.#.#.",
"$.$.$.$.$.$.$.$.$.$.$.$.$.$.$.$.$.$.$.$.$.$.$.$.$.$.$.$.",
"#.#.#.#.#.#.#.#.#.#.#.#.#.#.#.#.#.#.#.#.#.#.#.#.#.#.#.#.",
"#.#.#.#.#.#.#.#.#.#.#.#.#.#.#.#.#.#.#.#.#.#.#.#.#.#.#.#.",
"%.%.%.%.%.%.%.%.%.%.%.%.%.%.%.%.%.%.%.%.%.%.%.%.%.%.%.%.",
"&.&.&.&.&.&.&.&.&.&.&.&.&.&.&.&.&.&.&.&.&.&.&.&.&.&.&.&.",
"*.*.*.*.*.*.*.*.*.*.*.*.*.*.*.*.*.*.*.*.*.*.*.*.*.*.*.*.",
"*.*.*.*.*.*.*.*.*.*.*.*.*.*.*.*.*.*.*.*.*.*.*.*.*.*.*.*."};
