/* XPM */
static char * close_active_xpm[] = {
"28 36 98 2",
"  	c None",
". 	c #323A3F",
"+ 	c #414B51",
"@ 	c #414B50",
"# 	c #414A50",
"$ 	c #404A50",
"% 	c #404950",
"& 	c #3F494F",
"* 	c #444A56",
"= 	c #84539E",
"- 	c #AD5ECE",
"; 	c #C163E9",
"> 	c #C966F0",
", 	c #83549D",
"' 	c #80549B",
") 	c #C363E9",
"! 	c #C364E9",
"~ 	c #BA63E2",
"{ 	c #B161DA",
"] 	c #AE60D6",
"^ 	c #81539A",
"/ 	c #414951",
"( 	c #A05ABF",
"_ 	c #C865EE",
": 	c #B562DE",
"< 	c #AB60D4",
"[ 	c #C765F0",
"} 	c #9F5BBF",
"| 	c #3E494E",
"1 	c #C464EB",
"2 	c #AE60D7",
"3 	c #C464EC",
"4 	c #9E5ABD",
"5 	c #3E484E",
"6 	c #80539B",
"7 	c #AE61D7",
"8 	c #7F5298",
"9 	c #3D484D",
"0 	c #404852",
"a 	c #C264E8",
"b 	c #B461DD",
"c 	c #B562DD",
"d 	c #C263E9",
"e 	c #424954",
"f 	c #3D474D",
"g 	c #83529D",
"h 	c #C365EA",
"i 	c #81539C",
"j 	c #3D474E",
"k 	c #AD5FCF",
"l 	c #BA62E2",
"m 	c #BA63E3",
"n 	c #AB5DCE",
"o 	c #C263E8",
"p 	c #C162E8",
"q 	c #3C464D",
"r 	c #C966F1",
"s 	c #CA66F1",
"t 	c #3D474C",
"u 	c #C965F2",
"v 	c #AD61D6",
"w 	c #3C464C",
"x 	c #C164E7",
"y 	c #3B464B",
"z 	c #BB62E2",
"A 	c #AB5ECD",
"B 	c #3C454B",
"C 	c #82519C",
"D 	c #C364EA",
"E 	c #80519A",
"F 	c #3B454B",
"G 	c #3E4551",
"H 	c #B662DE",
"I 	c #C364E8",
"J 	c #404652",
"K 	c #805099",
"L 	c #C865EF",
"M 	c #7D5096",
"N 	c #9E59BE",
"O 	c #9C59BC",
"P 	c #3A444A",
"Q 	c #3D444C",
"R 	c #9D58BD",
"S 	c #3A454A",
"T 	c #7E5097",
"U 	c #B162DA",
"V 	c #7C5195",
"W 	c #3F4551",
"X 	c #81529B",
"Y 	c #AB5DCD",
"Z 	c #AB5BCD",
"` 	c #7F519A",
" .	c #3D4450",
"..	c #394349",
"+.	c #394449",
"@.	c #384348",
"#.	c #394348",
"$.	c #384248",
". . . . . . . . . . . . . . . . . . . . . . . . . . . . ",
"+ + + + + + + + + + + + + + + + + + + + + + + + + + + + ",
"+ + + + + + + + + + + + + + + + + + + + + + + + + + + + ",
"@ @ @ @ @ @ @ @ @ @ @ @ @ @ @ @ @ @ @ @ @ @ @ @ @ @ @ @ ",
"# # # # # # # # # # # # # # # # # # # # # # # # # # # # ",
"$ $ $ $ $ $ $ $ $ $ $ $ $ $ $ $ $ $ $ $ $ $ $ $ $ $ $ $ ",
"$ $ $ $ $ $ $ $ $ $ $ $ $ $ $ $ $ $ $ $ $ $ $ $ $ $ $ $ ",
"% % % % % % % % % % % % % % % % % % % % % % % % % % % % ",
"& & & & & & & & & * = - ; > > ; - , * & & & & & & & & & ",
"& & & & & & & & ' ) ! ~ { ] ] { ~ ! ) ^ & & & & & & & & ",
"& & & & & & / ( _ : < < < < < < < < : [ } / & & & & & & ",
"| | | | | | ( 1 ] < < < < < < < < < < 2 3 4 | | | | | | ",
"5 5 5 5 5 6 _ 2 < < < < < < < < < < < < 7 [ 8 5 5 5 5 5 ",
"9 9 9 9 0 a b < < < < < < < < < < < < < < c d e 9 9 9 9 ",
"f f f f g ! < < < < < < < < < < < < < < < < h i f f f f ",
"j j j j k l < < < < < < < < < < < < < < < < m n j j j j ",
"f f f f o { < < < < < < < < < < < < < < < < { p f f f f ",
"q q q q r ] < < < < < < < < < < < < < < < < ] s q q q q ",
"t t t t u v < < < < < < < < < < < < < < < < 2 > t t t t ",
"w w w w o { < < < < < < < < < < < < < < < < { x w w w w ",
"y y y y n ~ < < < < < < < < < < < < < < < < z A y y y y ",
"B B B B C ! < < < < < < < < < < < < < < < < D E B B B B ",
"F F F F G a : < < < < < < < < < < < < < < H I J F F F F ",
"F F F F F K [ 7 < < < < < < < < < < < < 7 L M F F F F F ",
"F F F F F F N 3 7 < < < < < < < < < < 7 3 O F F F F F F ",
"P P P P P P Q R [ c < < < < < < < < c L R Q P P P P P P ",
"S S S S S S S S T o h m U 2 2 { l D o V S S S S S S S S ",
"P P P P P P P P P W X Y o > > o Z `  .P P P P P P P P P ",
"........................................................",
"+.+.+.+.+.+.+.+.+.+.+.+.+.+.+.+.+.+.+.+.+.+.+.+.+.+.+.+.",
"........................................................",
"........................................................",
"@.@.@.@.@.@.@.@.@.@.@.@.@.@.@.@.@.@.@.@.@.@.@.@.@.@.@.@.",
"#.#.#.#.#.#.#.#.#.#.#.#.#.#.#.#.#.#.#.#.#.#.#.#.#.#.#.#.",
"$.$.$.$.$.$.$.$.$.$.$.$.$.$.$.$.$.$.$.$.$.$.$.$.$.$.$.$.",
"$.$.$.$.$.$.$.$.$.$.$.$.$.$.$.$.$.$.$.$.$.$.$.$.$.$.$.$."};
