/* XPM */
static char * close_pressed_xpm[] = {
"28 36 99 2",
"  	c #323A3F",
". 	c #414B51",
"+ 	c #414B50",
"@ 	c #414A50",
"# 	c #404A50",
"$ 	c #404950",
"% 	c #3F494F",
"& 	c #4C4C62",
"* 	c #A16AD8",
"= 	c #B678FA",
"- 	c #B97EFF",
"; 	c #BA80FF",
"> 	c #B577FA",
", 	c #A06BD7",
"' 	c #9F6AD5",
") 	c #B97FFF",
"! 	c #B478FF",
"~ 	c #A867FF",
"{ 	c #9F5CFF",
"] 	c #9C57FF",
"^ 	c #A868FF",
"/ 	c #B479FF",
"( 	c #9E6AD4",
"_ 	c #454B55",
": 	c #B274F3",
"< 	c #A360FF",
"[ 	c #9954FF",
"} 	c #A361FF",
"| 	c #B97DFF",
"1 	c #B175F3",
"2 	c #3E494E",
"3 	c #B679FF",
"4 	c #9B58FF",
"5 	c #B174F2",
"6 	c #3E484E",
"7 	c #9F69D5",
"8 	c #9C58FF",
"9 	c #9E67D3",
"0 	c #3D484D",
"a 	c #454A5C",
"b 	c #A261FF",
"c 	c #DEC7FF",
"d 	c #EBDDFF",
"e 	c #A161FF",
"f 	c #4A4B60",
"g 	c #3D474D",
"h 	c #E8D8FF",
"i 	c #FFFFFF",
"j 	c #ECDFFF",
"k 	c #EADCFF",
"l 	c #B578FF",
"m 	c #A16AD7",
"n 	c #3D474E",
"o 	c #A767FF",
"p 	c #A05FFF",
"q 	c #EDE0FF",
"r 	c #B777FA",
"s 	c #A05DFF",
"t 	c #3C464D",
"u 	c #BB81FF",
"v 	c #9B57FF",
"w 	c #BA81FF",
"x 	c #3D474C",
"y 	c #3C464C",
"z 	c #B87DFF",
"A 	c #3B464B",
"B 	c #B578FA",
"C 	c #3C454B",
"D 	c #A06AD7",
"E 	c #E8D9FF",
"F 	c #A06AD6",
"G 	c #3B454B",
"H 	c #43475B",
"I 	c #DDC7FF",
"J 	c #A362FF",
"K 	c #BA7FFF",
"L 	c #48485F",
"M 	c #9E69D4",
"N 	c #B87EFF",
"O 	c #9C68D2",
"P 	c #B175F2",
"Q 	c #3A444A",
"R 	c #414650",
"S 	c #B273F2",
"T 	c #3A454A",
"U 	c #9D66D3",
"V 	c #A967FF",
"W 	c #9F5DFF",
"X 	c #9C67D1",
"Y 	c #48475E",
"Z 	c #A169D7",
"` 	c #B677FA",
" .	c #9F6AD6",
"..	c #43465A",
"+.	c #394349",
"@.	c #394449",
"#.	c #384348",
"$.	c #394348",
"%.	c #384248",
"                                                        ",
". . . . . . . . . . . . . . . . . . . . . . . . . . . . ",
". . . . . . . . . . . . . . . . . . . . . . . . . . . . ",
"+ + + + + + + + + + + + + + + + + + + + + + + + + + + + ",
"@ @ @ @ @ @ @ @ @ @ @ @ @ @ @ @ @ @ @ @ @ @ @ @ @ @ @ @ ",
"# # # # # # # # # # # # # # # # # # # # # # # # # # # # ",
"# # # # # # # # # # # # # # # # # # # # # # # # # # # # ",
"$ $ $ $ $ $ $ $ $ $ $ $ $ $ $ $ $ $ $ $ $ $ $ $ $ $ $ $ ",
"% % % % % % % % % & * = - ; ; - > , & % % % % % % % % % ",
"% % % % % % % % ' ) ! ~ { ] ] { ^ / - ( % % % % % % % % ",
"% % % % % % _ : ) < [ [ [ [ [ [ [ [ } | 1 _ % % % % % % ",
"2 2 2 2 2 2 : 3 ] [ [ [ [ [ [ [ [ [ [ 4 3 5 2 2 2 2 2 2 ",
"6 6 6 6 6 7 ) 4 [ [ [ [ [ [ [ [ [ [ [ [ 8 ) 9 6 6 6 6 6 ",
"0 0 0 0 a ) b [ [ c d e [ [ [ [ e d c [ [ } ) f 0 0 0 0 ",
"g g g g * ! [ [ [ h i j e [ [ e j i k [ [ [ l m g g g g ",
"n n n n = o [ [ [ p d i q e p d i j e [ [ [ ^ r n n n n ",
"g g g g - { [ [ [ [ e j i j j i j e [ [ [ [ s - g g g g ",
"t t t t u v [ [ [ [ [ p d i i j e [ [ [ [ [ ] w t t t t ",
"x x x x u 8 [ [ [ [ [ p d i i q e [ [ [ [ [ 4 ; x x x x ",
"y y y y - { [ [ [ [ e j i j j i j e [ [ [ [ s z y y y y ",
"A A A A > ^ [ [ [ p d i j e p d i q e [ [ [ ^ B A A A A ",
"C C C C D / [ [ [ E i j e [ [ e j i k [ [ [ / F C C C C ",
"G G G G H - } [ [ I k e [ [ [ [ e k I [ [ J K L G G G G ",
"G G G G G M | 8 [ [ [ [ [ [ [ [ [ [ [ [ 8 N O G G G G G ",
"G G G G G G 1 3 8 [ [ [ [ [ [ [ [ [ [ 8 3 P G G G G G G ",
"Q Q Q Q Q Q R 5 ) } [ [ [ [ [ [ [ [ } N S R Q Q Q Q Q Q ",
"T T T T T T T T U ) l V W 4 4 s ^ / - X T T T T T T T T ",
"Q Q Q Q Q Q Q Q Q Y Z ` ) ; ; ) `  ...Q Q Q Q Q Q Q Q Q ",
"+.+.+.+.+.+.+.+.+.+.+.+.+.+.+.+.+.+.+.+.+.+.+.+.+.+.+.+.",
"@.@.@.@.@.@.@.@.@.@.@.@.@.@.@.@.@.@.@.@.@.@.@.@.@.@.@.@.",
"+.+.+.+.+.+.+.+.+.+.+.+.+.+.+.+.+.+.+.+.+.+.+.+.+.+.+.+.",
"+.+.+.+.+.+.+.+.+.+.+.+.+.+.+.+.+.+.+.+.+.+.+.+.+.+.+.+.",
"#.#.#.#.#.#.#.#.#.#.#.#.#.#.#.#.#.#.#.#.#.#.#.#.#.#.#.#.",
"$.$.$.$.$.$.$.$.$.$.$.$.$.$.$.$.$.$.$.$.$.$.$.$.$.$.$.$.",
"%.%.%.%.%.%.%.%.%.%.%.%.%.%.%.%.%.%.%.%.%.%.%.%.%.%.%.%.",
"%.%.%.%.%.%.%.%.%.%.%.%.%.%.%.%.%.%.%.%.%.%.%.%.%.%.%.%."};
