/* XPM */
static char * close_pressed_xpm[] = {
"24 24 97 2",
"  	c None",
". 	c #313133",
"+ 	c #4B5252",
"@ 	c #4B5151",
"# 	c #4A5152",
"$ 	c #4A5151",
"% 	c #4B5152",
"& 	c #4A5051",
"* 	c #495150",
"= 	c #4A5050",
"- 	c #495050",
"; 	c #5F596C",
"> 	c #AE82CB",
", 	c #C992EE",
"' 	c #CB91F2",
") 	c #C891EE",
"! 	c #AE81CB",
"~ 	c #60596A",
"{ 	c #494F50",
"] 	c #49504F",
"^ 	c #9071A8",
"/ 	c #CE92F4",
"( 	c #C583FE",
"_ 	c #BF78FF",
": 	c #BE78FF",
"< 	c #C683FE",
"[ 	c #CD93F3",
"} 	c #8F71A7",
"| 	c #484F4F",
"1 	c #494F4F",
"2 	c #9070A8",
"3 	c #CD90F7",
"4 	c #BE79FF",
"5 	c #BF79FF",
"6 	c #CD91F7",
"7 	c #8E70A7",
"8 	c #484F4E",
"9 	c #484E4E",
"0 	c #474F4E",
"a 	c #5D596A",
"b 	c #C587FF",
"c 	c #D3A4FF",
"d 	c #5F5769",
"e 	c #484E4F",
"f 	c #474D4E",
"g 	c #474E4E",
"h 	c #C582FE",
"i 	c #D4A5FF",
"j 	c #FFFFFF",
"k 	c #DDB9FF",
"l 	c #AC7FCA",
"m 	c #484D4E",
"n 	c #474D4D",
"o 	c #474E4D",
"p 	c #C991EE",
"q 	c #DCB5FF",
"r 	c #DEBAFF",
"s 	c #DCB6FF",
"t 	c #C891ED",
"u 	c #464D4D",
"v 	c #CA90F2",
"w 	c #464D4C",
"x 	c #474D4C",
"y 	c #464C4C",
"z 	c #CB91F1",
"A 	c #464C4B",
"B 	c #454C4C",
"C 	c #C991ED",
"D 	c #454C4B",
"E 	c #454B4B",
"F 	c #AD80CA",
"G 	c #AB80C8",
"H 	c #444B4B",
"I 	c #444A4A",
"J 	c #444B4A",
"K 	c #444A4B",
"L 	c #5C5366",
"M 	c #5B5565",
"N 	c #444A49",
"O 	c #8D6DA5",
"P 	c #CC90F7",
"Q 	c #8D70A4",
"R 	c #434A49",
"S 	c #8D6EA5",
"T 	c #434949",
"U 	c #434948",
"V 	c #5A5467",
"W 	c #AD7FCA",
"X 	c #AB7FC9",
"Y 	c #5C5265",
"Z 	c #424949",
"` 	c #424848",
" .	c #424747",
"..	c #414847",
"+.	c #414748",
"@.	c #424748",
"#.	c #414747",
". . . . . . . . . . . . . . . . . . . . . . . . ",
"+ + + + + + + + + + + + + + + + + + + + + + + + ",
"+ + + + + + + + + + + + + + + + + + + + + + + + ",
"+ + + + + + + + + + + + + + + + + + + + + + + + ",
"@ + @ @ + @ @ + @ + @ + @ + @ + @ + @ + @ + + + ",
"# $ % # $ # $ % # $ # $ % # # $ % # $ $ % # @ $ ",
"& & * & & & & * & & & & * & & & * & & & * & * $ ",
"= * - = * = * - ; > , ' ' ) ! ~ - = * * - * - & ",
"{ ] ] { ] { ] ^ / ( _ : : _ < [ } { ] ] ] - { { ",
"| | 1 | | | 2 3 4 : : : : : : 5 6 7 | | 1 1 1 | ",
"8 9 0 8 9 a / 4 b c : : : : c b 5 [ d 9 0 | e e ",
"f g g f g ! h : i j k : : k j i : < l g g g m 9 ",
"n n o n n p _ : : q j r s j r : : _ t n o o n n ",
"u u n u u v : : : : q j j r : : : : ' u n u w x ",
"y y w y y z : : : : s j j r : : : : z y w y w y ",
"A B B A B C _ : : s j r q j r : : _ t B B y D E ",
"E E E E E F < : i j k : : k j i : < G E E E E H ",
"I J K I J L [ 5 b c : : : : c b 5 [ M J K H E I ",
"I I N I I I O P 5 : : : : : : 5 P Q I I N I I I ",
"R R N R R R R S [ < _ : : _ < [ Q R R R N T T I ",
"T U T T U T U T V W C z z C X Y T T U U T T Z T ",
"Z ` ` Z ` Z ` ` Z ` Z ` ` Z Z ` ` Z ` ` ` ` ` ` ",
" ...+. ... ...+. ... ...+. . ...+. .....+.@.` ` ",
"#.#.#.#.#.#.#.#.#.#.#.#.#.#.#.#.#.#.#.#.#.+. .#."};
