/* XPM */
static char * close_active_xpm[] = {
"24 24 88 1",
" 	c None",
".	c #313133",
"+	c #4B5252",
"@	c #4B5151",
"#	c #4A5152",
"$	c #4A5151",
"%	c #4B5152",
"&	c #4A5051",
"*	c #495150",
"=	c #4A5050",
"-	c #495050",
";	c #5B5269",
">	c #A25DC2",
",	c #BB62E2",
"'	c #BE64E4",
")	c #BB62E1",
"!	c #5D5267",
"~	c #494F50",
"{	c #49504F",
"]	c #8859A0",
"^	c #B362DC",
"/	c #AC60D4",
"(	c #AB60D4",
"_	c #B362DD",
":	c #BF64E4",
"<	c #484F4F",
"[	c #494F4F",
"}	c #88589F",
"|	c #BD63E3",
"1	c #AC60D5",
"2	c #484F4E",
"3	c #484E4E",
"4	c #474F4E",
"5	c #5B5167",
"6	c #5C5067",
"7	c #484E4F",
"8	c #474D4E",
"9	c #474E4E",
"0	c #A35DC2",
"a	c #B262DD",
"b	c #A15CC0",
"c	c #484D4E",
"d	c #474D4D",
"e	c #474E4D",
"f	c #BC62E2",
"g	c #BA62E1",
"h	c #464D4D",
"i	c #BD62E3",
"j	c #BE63E3",
"k	c #464D4C",
"l	c #474D4C",
"m	c #464C4C",
"n	c #BE62E2",
"o	c #464C4B",
"p	c #454C4C",
"q	c #BB63E1",
"r	c #454C4B",
"s	c #454B4B",
"t	c #A15BC1",
"u	c #A05BC0",
"v	c #444B4B",
"w	c #444A4A",
"x	c #444B4A",
"y	c #444A4B",
"z	c #594D63",
"A	c #BF63E4",
"B	c #BE63E4",
"C	c #584D62",
"D	c #444A49",
"E	c #85559E",
"F	c #85559D",
"G	c #434A49",
"H	c #86559E",
"I	c #BF63E5",
"J	c #84559D",
"K	c #434949",
"L	c #434948",
"M	c #564C64",
"N	c #BA62E0",
"O	c #A15AC0",
"P	c #594B63",
"Q	c #424949",
"R	c #424848",
"S	c #424747",
"T	c #414847",
"U	c #414748",
"V	c #424748",
"W	c #414747",
"........................",
"++++++++++++++++++++++++",
"++++++++++++++++++++++++",
"++++++++++++++++++++++++",
"@+@@+@@+@+@+@+@+@+@+@+++",
"#$%#$%#$#$#$#$#$#$#$%#@$",
"&&*&&&*&*$*&*$&*&*$&*&*$",
"=*-=**-*;>,'')>!*-&*-*-&",
"~{{~{{{]'^/((/_:]~~{{-~~",
"<<[<<<}|1((((((1|]<<[[[<",
"234235'1((((((((1:634<77",
"899890a((((((((((_b999c3",
"ddeddf/((((((((((/gdeedd",
"hhdhhi((((((((((((jhdhkl",
"mmkmmj((((((((((((nmkmkm",
"oppop,/((((((((((/qppmrs",
"ssssst_((((((((((_ussssv",
"wxywxzA1((((((((1BCxyvsw",
"wwDwwwE|1((((((1iFwwDwww",
"GGDGGGDHA_/((/_IJKwGDKKw",
"KLKKLLKKMtgnnNOPKQKLKKQK",
"QRRQRRRRRRRRRRRRRRRRRRRR",
"STUSTUSTSTSTSTSTSTSTUVRR",
"WWWWWWWWWWWWWWWWWWWWWUSW"};
