/* XPM */
static char * close_active_xpm[] = {
"28 36 88 1",
" 	c #323A3F",
".	c #414B51",
"+	c #414B50",
"@	c #414A50",
"#	c #404A50",
"$	c #404950",
"%	c #3F494F",
"&	c #4C4C62",
"*	c #A16AD8",
"=	c #B678FA",
"-	c #B97EFF",
";	c #BA80FF",
">	c #B577FA",
",	c #A06BD7",
"'	c #9F6AD5",
")	c #B97FFF",
"!	c #B478FF",
"~	c #A867FF",
"{	c #9F5CFF",
"]	c #9C57FF",
"^	c #A868FF",
"/	c #B479FF",
"(	c #9E6AD4",
"_	c #454B55",
":	c #B274F3",
"<	c #A360FF",
"[	c #9954FF",
"}	c #A361FF",
"|	c #B97DFF",
"1	c #B175F3",
"2	c #3E494E",
"3	c #B679FF",
"4	c #9B58FF",
"5	c #B174F2",
"6	c #3E484E",
"7	c #9F69D5",
"8	c #9C58FF",
"9	c #9E67D3",
"0	c #3D484D",
"a	c #454A5C",
"b	c #A261FF",
"c	c #4A4B60",
"d	c #3D474D",
"e	c #B578FF",
"f	c #A16AD7",
"g	c #3D474E",
"h	c #A767FF",
"i	c #B777FA",
"j	c #A05DFF",
"k	c #3C464D",
"l	c #BB81FF",
"m	c #9B57FF",
"n	c #BA81FF",
"o	c #3D474C",
"p	c #3C464C",
"q	c #B87DFF",
"r	c #3B464B",
"s	c #B578FA",
"t	c #3C454B",
"u	c #A06AD7",
"v	c #A06AD6",
"w	c #3B454B",
"x	c #43475B",
"y	c #A362FF",
"z	c #BA7FFF",
"A	c #48485F",
"B	c #9E69D4",
"C	c #B87EFF",
"D	c #9C68D2",
"E	c #B175F2",
"F	c #3A444A",
"G	c #414650",
"H	c #B273F2",
"I	c #3A454A",
"J	c #9D66D3",
"K	c #A967FF",
"L	c #9F5DFF",
"M	c #9C67D1",
"N	c #48475E",
"O	c #A169D7",
"P	c #B677FA",
"Q	c #9F6AD6",
"R	c #43465A",
"S	c #394349",
"T	c #394449",
"U	c #384348",
"V	c #394348",
"W	c #384248",
"                            ",
"............................",
"............................",
"++++++++++++++++++++++++++++",
"@@@@@@@@@@@@@@@@@@@@@@@@@@@@",
"############################",
"############################",
"$$$$$$$$$$$$$$$$$$$$$$$$$$$$",
"%%%%%%%%%&*=-;;->,&%%%%%%%%%",
"%%%%%%%%')!~{]]{^/-(%%%%%%%%",
"%%%%%%_:)<[[[[[[[[}|1_%%%%%%",
"222222:3][[[[[[[[[[435222222",
"666667)4[[[[[[[[[[[[8)966666",
"0000a)b[[[[[[[[[[[[[[})c0000",
"dddd*![[[[[[[[[[[[[[[[efdddd",
"gggg=h[[[[[[[[[[[[[[[[^igggg",
"dddd-{[[[[[[[[[[[[[[[[j-dddd",
"kkkklm[[[[[[[[[[[[[[[[]nkkkk",
"ooool8[[[[[[[[[[[[[[[[4;oooo",
"pppp-{[[[[[[[[[[[[[[[[jqpppp",
"rrrr>^[[[[[[[[[[[[[[[[^srrrr",
"ttttu/[[[[[[[[[[[[[[[[/vtttt",
"wwwwx-}[[[[[[[[[[[[[[yzAwwww",
"wwwwwB|8[[[[[[[[[[[[8CDwwwww",
"wwwwww138[[[[[[[[[[83Ewwwwww",
"FFFFFFG5)}[[[[[[[[}CHGFFFFFF",
"IIIIIIIIJ)eKL44j^/-MIIIIIIII",
"FFFFFFFFFNOP);;)PQRFFFFFFFFF",
"SSSSSSSSSSSSSSSSSSSSSSSSSSSS",
"TTTTTTTTTTTTTTTTTTTTTTTTTTTT",
"SSSSSSSSSSSSSSSSSSSSSSSSSSSS",
"SSSSSSSSSSSSSSSSSSSSSSSSSSSS",
"UUUUUUUUUUUUUUUUUUUUUUUUUUUU",
"VVVVVVVVVVVVVVVVVVVVVVVVVVVV",
"WWWWWWWWWWWWWWWWWWWWWWWWWWWW",
"WWWWWWWWWWWWWWWWWWWWWWWWWWWW"};
