/* XPM */
static char * close_prelight_xpm[] = {
"28 36 131 2",
"  	c None",
". 	c #313133",
"+ 	c #4B5252",
"@ 	c #4B5251",
"# 	c #4A5251",
"$ 	c #4A5152",
"% 	c #4B5151",
"& 	c #4A5252",
"* 	c #4B5152",
"= 	c #4A5151",
"- 	c #495151",
"; 	c #4A5150",
"> 	c #495150",
", 	c #495050",
"' 	c #4A5051",
") 	c #4A5050",
"! 	c #495051",
"~ 	c #494F50",
"{ 	c #49504F",
"] 	c #4D5157",
"^ 	c #87579E",
"/ 	c #AE60CF",
"( 	c #C164E9",
"_ 	c #C966F0",
": 	c #AE60CE",
"< 	c #86589D",
"[ 	c #4D5057",
"} 	c #484F4F",
"| 	c #494F4E",
"1 	c #83579B",
"2 	c #C364E9",
"3 	c #BA63E2",
"4 	c #B161DA",
"5 	c #AE60D6",
"6 	c #84579A",
"7 	c #474F4F",
"8 	c #484E4E",
"9 	c #494F51",
"0 	c #A15CBF",
"a 	c #C865EE",
"b 	c #B562DE",
"c 	c #AB60D4",
"d 	c #C765F0",
"e 	c #A05CBF",
"f 	c #4A4F51",
"g 	c #474E4E",
"h 	c #C564EB",
"i 	c #AE60D7",
"j 	c #C564EC",
"k 	c #9F5CBD",
"l 	c #474D4E",
"m 	c #83569B",
"n 	c #AE61D7",
"o 	c #825598",
"p 	c #474D4C",
"q 	c #464C4D",
"r 	c #484C52",
"s 	c #C264E8",
"t 	c #B461DD",
"u 	c #E4CBF1",
"v 	c #EFE0F7",
"w 	c #B26CD7",
"x 	c #B562DD",
"y 	c #C264E9",
"z 	c #4B4E53",
"A 	c #464D4D",
"B 	c #454C4C",
"C 	c #464C4C",
"D 	c #86559D",
"E 	c #ECDBF5",
"F 	c #FFFFFF",
"G 	c #F0E2F7",
"H 	c #EEDFF6",
"I 	c #C365EA",
"J 	c #84569B",
"K 	c #454C4B",
"L 	c #BA62E2",
"M 	c #B16BD7",
"N 	c #BA63E3",
"O 	c #AC5ECE",
"P 	c #454B4B",
"Q 	c #C263E8",
"R 	c #C262E8",
"S 	c #444B4B",
"T 	c #444A4B",
"U 	c #C966F1",
"V 	c #CA66F1",
"W 	c #454B4A",
"X 	c #444A4A",
"Y 	c #434A4A",
"Z 	c #C965F2",
"` 	c #AD61D6",
" .	c #434A49",
"..	c #C164E7",
"+.	c #44494A",
"@.	c #434949",
"#.	c #AC5ECD",
"$.	c #BB62E2",
"%.	c #424948",
"&.	c #424848",
"*.	c #424849",
"=.	c #84539B",
"-.	c #C364EA",
";.	c #82539A",
">.	c #424847",
",.	c #44484E",
"'.	c #E3CBF1",
").	c #B662DE",
"!.	c #C364E8",
"~.	c #46494F",
"{.	c #414747",
"].	c #424747",
"^.	c #825298",
"/.	c #C865EF",
"(.	c #7E5295",
"_.	c #9F5ABE",
":.	c #C464EC",
"<.	c #9D5ABB",
"[.	c #434749",
"}.	c #9E5ABC",
"|.	c #9E59BD",
"1.	c #805196",
"2.	c #B162DA",
"3.	c #7E5294",
"4.	c #45484F",
"5.	c #83539A",
"6.	c #AC5DCD",
"7.	c #C363E8",
"8.	c #AC5CCC",
"9.	c #815299",
"0.	c #43474D",
". . . . . . . . . . . . . . . . . . . . . . . . . . . . ",
"+ + + + + + + + + + + + + + + + + + + + + + + + + + + + ",
"+ + + + + + + + + + + + + + + + + + + + + + + + + + + + ",
"+ + + + + + + + + + + + + + + + + + + + + + + + + + + + ",
"@ @ @ + # $ + @ % + % + @ & @ + # $ + @ @ @ @ @ * + @ @ ",
"% % % = * % @ $ $ = * # % = % = * % @ $ % = % = $ % % % ",
"- - - - ; > = , ' ' > ; ) ! - - ; > = , ; = = ; = = - - ",
"! ! ! , ) , ! ! ! , ! ! ) , ! ! ) , ! ! ) , ! ! ) , ! ! ",
"~ ~ ~ { { , ~ ~ ~ ] ^ / ( _ _ ( : < [ ~ { , ~ ~ { , ~ ~ ",
"} } } | | } } } 1 2 2 3 4 5 5 4 3 2 2 6 | } } } | } } } ",
"7 7 7 8 8 } 9 0 a b c c c c c c c c b d e f 7 7 8 } 7 7 ",
"g g g g g 8 0 h 5 c c c c c c c c c c i j k g g g 8 g g ",
"l l l l l m a i c c c c c c c c c c c c n d o l l l l l ",
"p p p q r s t c c u v w c c c c w v u c c x y z q A p p ",
"B B B C D 2 c c c E F G w c c w G F H c c c I J C B B B ",
"K K K B / L c c c M H F G w M H F G w c c c N O B B K K ",
"P P P P Q 4 c c c c w G F G G F G w c c c c 4 R P S P P ",
"T T T S U 5 c c c c c M H F F G w c c c c c 5 V S W T T ",
"X X X Y Z ` c c c c c M H F F G w c c c c c i _ Y X X X ",
"Y Y Y  .Q 4 c c c c w G F G G F G w c c c c 4 .. .+.Y Y ",
"@.@.@.@.#.3 c c c M H F G w M H F G w c c c $.#.@.%.@.@.",
"&.&.&.*.=.2 c c c E F G w c c w G F H c c c -.;.*.&.&.&.",
">.>.>.&.,.s b c c '.H w c c c c w H '.c c ).!.~.&.&.>.>.",
"{.{.{.].].^.d n c c c c c c c c c c c c n /.(.{.].].{.{.",
"{.{.{.{.{.{._.:.n c c c c c c c c c c n :.<.{.{.{.{.{.{.",
"{.{.{.{.{.{.[.}.d x c c c c c c c c x /.|.[.{.{.{.{.{.{.",
"{.{.{.{.{.{.{.{.1.Q I N 2.i i 4 L -.Q 3.{.{.{.{.{.{.{.{.",
"{.{.{.{.{.{.{.{.{.4.5.6.7._ _ 7.8.9.0.{.{.{.{.{.{.{.{.{.",
"{.{.{.{.{.{.{.{.{.{.{.{.{.{.{.{.{.{.{.{.{.{.{.{.{.{.{.{.",
"{.{.{.{.{.{.{.{.{.{.{.{.{.{.{.{.{.{.{.{.{.{.{.{.{.{.{.{.",
"{.{.{.{.{.{.{.{.{.{.{.{.{.{.{.{.{.{.{.{.{.{.{.{.{.{.{.{.",
"{.{.{.{.{.{.{.{.{.{.{.{.{.{.{.{.{.{.{.{.{.{.{.{.{.{.{.{.",
"{.{.{.{.{.{.{.{.{.{.{.{.{.{.{.{.{.{.{.{.{.{.{.{.{.{.{.{.",
"{.{.{.{.{.{.{.{.{.{.{.{.{.{.{.{.{.{.{.{.{.{.{.{.{.{.{.{.",
"{.{.{.{.{.{.{.{.{.{.{.{.{.{.{.{.{.{.{.{.{.{.{.{.{.{.{.{.",
"{.{.{.{.{.{.{.{.{.{.{.{.{.{.{.{.{.{.{.{.{.{.{.{.{.{.{.{."};
