/* XPM */
static char * close_active_xpm[] = {
"28 36 157 2",
"  	c #323A3F",
". 	c #3F4C53",
"+ 	c #3F4C52",
"@ 	c #3E4C53",
"# 	c #3F4B53",
"$ 	c #3E4C52",
"% 	c #3E4B52",
"& 	c #3F4B52",
"* 	c #3E4B53",
"= 	c #3E4A52",
"- 	c #3D4A52",
"; 	c #3D4B51",
"> 	c #3D4B52",
", 	c #3E4B51",
"' 	c #3E4A51",
") 	c #3F4A50",
"! 	c #404950",
"~ 	c #3F4951",
"{ 	c #3D4A51",
"] 	c #3E4950",
"^ 	c #444A56",
"/ 	c #84539E",
"( 	c #AD5ECE",
"_ 	c #C163E9",
": 	c #C966F0",
"< 	c #83549D",
"[ 	c #80549B",
"} 	c #C363E9",
"| 	c #C364E9",
"1 	c #BA63E2",
"2 	c #B161DA",
"3 	c #AE60D6",
"4 	c #81539A",
"5 	c #3D4A50",
"6 	c #3C4A51",
"7 	c #3D4951",
"8 	c #404951",
"9 	c #A05ABF",
"0 	c #C865EE",
"a 	c #B562DE",
"b 	c #AB60D4",
"c 	c #C765F0",
"d 	c #9F5BBF",
"e 	c #3C4951",
"f 	c #3C4950",
"g 	c #3E494F",
"h 	c #C464EB",
"i 	c #AE60D7",
"j 	c #C464EC",
"k 	c #9E5ABD",
"l 	c #3C4A50",
"m 	c #3D4950",
"n 	c #3D484F",
"o 	c #80539B",
"p 	c #AE61D7",
"q 	c #7F5298",
"r 	c #3B4950",
"s 	c #3C494F",
"t 	c #404852",
"u 	c #C264E8",
"v 	c #B461DD",
"w 	c #B562DD",
"x 	c #C263E9",
"y 	c #424954",
"z 	c #3C4850",
"A 	c #3C484F",
"B 	c #83529D",
"C 	c #C365EA",
"D 	c #81539C",
"E 	c #3B494F",
"F 	c #3B4850",
"G 	c #3B484F",
"H 	c #3D474E",
"I 	c #AD5FCF",
"J 	c #BA62E2",
"K 	c #BA63E3",
"L 	c #AB5DCE",
"M 	c #3C474E",
"N 	c #3D474D",
"O 	c #C263E8",
"P 	c #C162E8",
"Q 	c #3A484F",
"R 	c #3C464D",
"S 	c #C966F1",
"T 	c #CA66F1",
"U 	c #3B474F",
"V 	c #3A484E",
"W 	c #3D474C",
"X 	c #C965F2",
"Y 	c #AD61D6",
"Z 	c #3A474E",
"` 	c #3A474F",
" .	c #3B474E",
"..	c #3C464C",
"+.	c #C164E7",
"@.	c #3A474D",
"#.	c #3B464C",
"$.	c #BB62E2",
"%.	c #AB5ECD",
"&.	c #39464E",
"*.	c #3B464D",
"=.	c #82519C",
"-.	c #C364EA",
";.	c #80519A",
">.	c #39474E",
",.	c #39464D",
"'.	c #3A464D",
").	c #39474D",
"!.	c #3E4551",
"~.	c #B662DE",
"{.	c #C364E8",
"].	c #404652",
"^.	c #3A454C",
"/.	c #805099",
"(.	c #C865EF",
"_.	c #7D5096",
":.	c #39454D",
"<.	c #9E59BE",
"[.	c #9C59BC",
"}.	c #38464D",
"|.	c #39454C",
"1.	c #38464C",
"2.	c #3C444C",
"3.	c #9D58BD",
"4.	c #39464C",
"5.	c #38454C",
"6.	c #38454D",
"7.	c #39454B",
"8.	c #7E5097",
"9.	c #B162DA",
"0.	c #7C5195",
"a.	c #3A454B",
"b.	c #39444B",
"c.	c #3F4551",
"d.	c #81529B",
"e.	c #AB5DCD",
"f.	c #AB5BCD",
"g.	c #7F519A",
"h.	c #3D4450",
"i.	c #37454C",
"j.	c #37444B",
"k.	c #37454B",
"l.	c #38444A",
"m.	c #39434A",
"n.	c #394349",
"o.	c #39444A",
"p.	c #38454B",
"q.	c #38444C",
"r.	c #37444C",
"s.	c #38444B",
"t.	c #37444A",
"u.	c #37434B",
"v.	c #37434A",
"w.	c #36444B",
"x.	c #36444A",
"y.	c #36434B",
"z.	c #36434A",
"                                                        ",
". . . . . . . . . . . . . . . . . . . . . . . . . . . . ",
". . . + . . . + . . . . . @ . # $ # . . + . . + . + . + ",
"# @ . . # @ . . % + & . @ & & & % $ . + # & & @ # & . . ",
"% + @ % % + @ % $ & % + & @ $ # % # . & % & @ & $ % $ + ",
"% % % % % % % % % % % % % % * % % % % % % % % % % % % % ",
"% % = = % % = = % = % - % % ; ; % = > % > = , % % % % , ",
", = ; > , = ; > ; - ' ) ! ! ! ! ~ ' - { ; - { { - % ; { ",
"- ' { { - ' { { ] ^ / ( _ : : _ ( < ^ ] - { ' { - { ; { ",
"{ { { { { { { ] [ } | 1 2 3 3 2 1 | } 4 ] { { { { { { 5 ",
"6 7 5 5 6 7 8 9 0 a b b b b b b b b a c d 8 7 { e { e e ",
"f { f f f g 9 h 3 b b b b b b b b b b i j k g l e m m e ",
"f e f f n o 0 i b b b b b b b b b b b b p c q n f m f f ",
"r s s s t u v b b b b b b b b b b b b b b w x y z z f z ",
"s A z A B | b b b b b b b b b b b b b b b b C D A E A F ",
"A s G H I J b b b b b b b b b b b b b b b b K L M G G G ",
"G G G N O 2 b b b b b b b b b b b b b b b b 2 P N G G G ",
"G Q Q R S 3 b b b b b b b b b b b b b b b b 3 T R G G G ",
"U U V W X Y b b b b b b b b b b b b b b b b i : W Z ` V ",
"V  .Z ..O 2 b b b b b b b b b b b b b b b b 2 +...Z V  .",
"Z Z @.#.L 1 b b b b b b b b b b b b b b b b $.%.#.Z Z Z ",
"@.Z &.*.=.| b b b b b b b b b b b b b b b b -.;.#.Z >.,.",
"'.).@.).!.u a b b b b b b b b b b b b b b ~.{.].&.&.&.&.",
",.,.,.,.^./.c p b b b b b b b b b b b b p (._.^.,.,.,.,.",
",.:.:.,.,.^.<.j p b b b b b b b b b b p j [.^.:.,.}.|.,.",
"}.}.:.1.}.1.2.3.c w b b b b b b b b w (.3.2.4.}.5.5.}.6.",
"6.4.6.5.6.4.5.7.8.O C K 9.i i 2 J -.O 0.a.1.5.5.1.|.6.5.",
"5.5.5.5.5.5.5.5.b.c.d.e.O : : O f.g.h.b.5.5.5.5.5.5.5.5.",
"i.5.j.k.i.5.j.k.i.5.l.m.n.n.n.n.o.l.5.5.p.5.q.p.5.5.5.i.",
"r.k.i.5.r.k.i.5.i.5.p.s.5.q.k.5.i.s.k.5.r.j.5.k.j.s.j.r.",
"k.j.r.j.k.j.r.j.r.j.s.j.j.j.j.j.r.j.j.r.s.k.k.j.s.j.j.j.",
"j.j.j.j.j.j.j.j.j.j.j.j.t.j.j.u.j.t.j.j.u.v.j.t.j.j.j.u.",
"v.v.w.t.v.v.w.t.t.x.t.y.x.j.v.u.u.j.j.x.u.z.t.w.z.w.j.v.",
"w.z.v.x.w.z.v.x.u.u.v.y.z.w.y.v.t.y.y.z.z.w.x.z.v.j.z.z.",
"z.z.z.z.z.z.z.z.x.z.x.z.z.z.z.z.z.w.z.z.z.z.z.z.x.z.y.z.",
"z.z.z.z.z.z.z.z.z.z.z.z.z.z.z.z.z.z.z.z.z.z.z.z.z.z.z.z."};
