/* XPM */
static char * close_active_xpm[] = {
"24 24 89 1",
" 	c None",
".	c #313133",
"+	c #4B5252",
"@	c #4B5151",
"#	c #4A5152",
"$	c #4A5151",
"%	c #4B5152",
"&	c #4A5051",
"*	c #495150",
"=	c #4A5050",
"-	c #495050",
";	c #5F596C",
">	c #AE82CB",
",	c #C992EE",
"'	c #CB91F2",
")	c #C891EE",
"!	c #AE81CB",
"~	c #60596A",
"{	c #494F50",
"]	c #49504F",
"^	c #9071A8",
"/	c #CE92F4",
"(	c #C583FE",
"_	c #BF78FF",
":	c #BE78FF",
"<	c #C683FE",
"[	c #CD93F3",
"}	c #8F71A7",
"|	c #484F4F",
"1	c #494F4F",
"2	c #9070A8",
"3	c #CD90F7",
"4	c #BE79FF",
"5	c #BF79FF",
"6	c #CD91F7",
"7	c #8E70A7",
"8	c #484F4E",
"9	c #484E4E",
"0	c #474F4E",
"a	c #5D596A",
"b	c #5F5769",
"c	c #484E4F",
"d	c #474D4E",
"e	c #474E4E",
"f	c #C582FE",
"g	c #AC7FCA",
"h	c #484D4E",
"i	c #474D4D",
"j	c #474E4D",
"k	c #C991EE",
"l	c #C891ED",
"m	c #464D4D",
"n	c #CA90F2",
"o	c #464D4C",
"p	c #474D4C",
"q	c #464C4C",
"r	c #CB91F1",
"s	c #464C4B",
"t	c #454C4C",
"u	c #C991ED",
"v	c #454C4B",
"w	c #454B4B",
"x	c #AD80CA",
"y	c #AB80C8",
"z	c #444B4B",
"A	c #444A4A",
"B	c #444B4A",
"C	c #444A4B",
"D	c #5C5366",
"E	c #5B5565",
"F	c #444A49",
"G	c #8D6DA5",
"H	c #CC90F7",
"I	c #8D70A4",
"J	c #434A49",
"K	c #8D6EA5",
"L	c #434949",
"M	c #434948",
"N	c #5A5467",
"O	c #AD7FCA",
"P	c #AB7FC9",
"Q	c #5C5265",
"R	c #424949",
"S	c #424848",
"T	c #424747",
"U	c #414847",
"V	c #414748",
"W	c #424748",
"X	c #414747",
"........................",
"++++++++++++++++++++++++",
"++++++++++++++++++++++++",
"++++++++++++++++++++++++",
"@+@@+@@+@+@+@+@+@+@+@+++",
"#$%#$#$%#$#$%##$%#$$%#@$",
"&&*&&&&*&&&&*&&&*&&&*&*$",
"=*-=*=*-;>,'')!~-=**-*-&",
"{]]{]{]^/(_::_<[}{]]]-{{",
"||1|||234::::::567||111|",
"89089a/4::::::::5[b90|cc",
"deede!f::::::::::<geeeh9",
"iijiik_::::::::::_lijjii",
"mmimmn::::::::::::'mimop",
"qqoqqr::::::::::::rqoqoq",
"sttstu_::::::::::_lttqvw",
"wwwwwx<::::::::::<ywwwwz",
"ABCABD[5::::::::5[EBCzwA",
"AAFAAAGH5::::::5HIAAFAAA",
"JJFJJJJK[<_::_<[IJJJFLLA",
"LMLLMLMLNOurruPQLLMMLLRL",
"RSSRSRSSRSRSSRRSSRSSSSSS",
"TUVTUTUVTUTUVTTUVTUUVWSS",
"XXXXXXXXXXXXXXXXXXXXXVTX"};
