/* XPM */
static char * close_active_xpm[] = {
"28 36 90 1",
" 	c #323A3F",
".	c #414B51",
"+	c #414B50",
"@	c #414A50",
"#	c #404A50",
"$	c #404950",
"%	c #3F494F",
"&	c #484B5C",
"*	c #935CC3",
"=	c #AE67F0",
"-	c #B06BFD",
";	c #AF6CFE",
">	c #AD67F0",
",	c #925DC2",
"'	c #905CC0",
")	c #B06AFD",
"!	c #AB67FE",
"~	c #A35EFF",
"{	c #9D58FF",
"]	c #9B56FF",
"^	c #A25FFF",
"/	c #AB68FE",
"(	c #905CBF",
"_	c #434953",
":	c #A764E4",
"<	c #AE6BFE",
"[	c #9F5AFF",
"}	c #9954FF",
"|	c #9F5BFF",
"1	c #AD6BFE",
"2	c #A765E4",
"3	c #3E494E",
"4	c #AC69FE",
"5	c #9A56FF",
"6	c #A764E3",
"7	c #3E484E",
"8	c #905BC0",
"9	c #8F5ABD",
"0	c #3D484D",
"a	c #434857",
"b	c #464A5A",
"c	c #3D474D",
"d	c #935BC3",
"e	c #AC67FE",
"f	c #925CC2",
"g	c #3D474E",
"h	c #A25EFF",
"i	c #A35FFF",
"j	c #AE66F0",
"k	c #B06BFC",
"l	c #9D59FF",
"m	c #B06AFC",
"n	c #3C464D",
"o	c #B06CFE",
"p	c #3D474C",
"q	c #B06DFE",
"r	c #3C464C",
"s	c #B16AFC",
"t	c #3B464B",
"u	c #AC67F0",
"v	c #AC67EF",
"w	c #3C454B",
"x	c #915BC2",
"y	c #AC68FE",
"z	c #915BC0",
"A	c #3B454B",
"B	c #414556",
"C	c #B16BFD",
"D	c #444759",
"E	c #8F5ABF",
"F	c #8D5ABC",
"G	c #A664E4",
"H	c #A664E2",
"I	c #3A444A",
"J	c #3F444E",
"K	c #A763E3",
"L	c #A662E3",
"M	c #3A454A",
"N	c #8E59BD",
"O	c #8D5ABB",
"P	c #444658",
"Q	c #925BC1",
"R	c #AD67EF",
"S	c #AD66EF",
"T	c #404455",
"U	c #394349",
"V	c #394449",
"W	c #384348",
"X	c #394348",
"Y	c #384248",
"                            ",
"............................",
"............................",
"++++++++++++++++++++++++++++",
"@@@@@@@@@@@@@@@@@@@@@@@@@@@@",
"############################",
"############################",
"$$$$$$$$$$$$$$$$$$$$$$$$$$$$",
"%%%%%%%%%&*=-;;->,&%%%%%%%%%",
"%%%%%%%%')!~{]]{^/-(%%%%%%%%",
"%%%%%%_:<[}}}}}}}}|12_%%%%%%",
"333333:4]}}}}}}}}}}546333333",
"777778<5}}}}}}}}}}}}]<977777",
"0000a)|}}}}}}}}}}}}}}|-b0000",
"ccccd!}}}}}}}}}}}}}}}}efcccc",
"gggg=h}}}}}}}}}}}}}}}}ijgggg",
"cccck{}}}}}}}}}}}}}}}}lmcccc",
"nnnno5}}}}}}}}}}}}}}}}];nnnn",
"ppppq]}}}}}}}}}}}}}}}}5;pppp",
"rrrrk{}}}}}}}}}}}}}}}}lsrrrr",
"ttttu^}}}}}}}}}}}}}}}}hvtttt",
"wwwwx/}}}}}}}}}}}}}}}}yzwwww",
"AAAABk|}}}}}}}}}}}}}}|CDAAAA",
"AAAAAE1]}}}}}}}}}}}}]<FAAAAA",
"AAAAAAG4]}}}}}}}}}}]4HAAAAAA",
"IIIIIIJK<|}}}}}}}}|<LJIIIIII",
"MMMMMMMMN)e~l55liykOMMMMMMMM",
"IIIIIIIIIPQRk;;kS8TIIIIIIIII",
"UUUUUUUUUUUUUUUUUUUUUUUUUUUU",
"VVVVVVVVVVVVVVVVVVVVVVVVVVVV",
"UUUUUUUUUUUUUUUUUUUUUUUUUUUU",
"UUUUUUUUUUUUUUUUUUUUUUUUUUUU",
"WWWWWWWWWWWWWWWWWWWWWWWWWWWW",
"XXXXXXXXXXXXXXXXXXXXXXXXXXXX",
"YYYYYYYYYYYYYYYYYYYYYYYYYYYY",
"YYYYYYYYYYYYYYYYYYYYYYYYYYYY"};
