/* XPM */
static char * hide_prelight_xpm[] = {
"24 24 99 2",
"  	c None",
". 	c #313133",
"+ 	c #4B5252",
"@ 	c #4B5151",
"# 	c #4A5152",
"$ 	c #4A5151",
"% 	c #4B5152",
"& 	c #4A5051",
"* 	c #495150",
"= 	c #4A5050",
"- 	c #495050",
"; 	c #624F6C",
"> 	c #B049C6",
", 	c #CA45E6",
"' 	c #CB43E8",
") 	c #CA44E6",
"! 	c #AF4AC6",
"~ 	c #60506A",
"{ 	c #494F50",
"] 	c #49504F",
"^ 	c #924BA5",
"/ 	c #CE44EA",
"( 	c #B242D9",
"_ 	c #A442CC",
": 	c #A342CC",
"< 	c #B342D9",
"[ 	c #CF44EB",
"} 	c #904CA5",
"| 	c #484F4F",
"1 	c #494F4F",
"2 	c #924AA5",
"3 	c #C843E8",
"4 	c #A442CD",
"5 	c #904BA5",
"6 	c #484F4E",
"7 	c #484E4E",
"8 	c #474F4E",
"9 	c #604E6A",
"0 	c #CE43EA",
"a 	c #5F4E69",
"b 	c #484E4F",
"c 	c #474D4E",
"d 	c #474E4E",
"e 	c #B048C7",
"f 	c #AE48C5",
"g 	c #484D4E",
"h 	c #474D4D",
"i 	c #474E4D",
"j 	c #CB44E7",
"k 	c #464D4D",
"l 	c #CB43E9",
"m 	c #C384DE",
"n 	c #E4C7F0",
"o 	c #464D4C",
"p 	c #474D4C",
"q 	c #464C4C",
"r 	c #D1A1E6",
"s 	c #FFFFFF",
"t 	c #CB42E8",
"u 	c #464C4B",
"v 	c #454C4C",
"w 	c #B568D6",
"x 	c #C88EE0",
"y 	c #454C4B",
"z 	c #454B4B",
"A 	c #AE47C5",
"B 	c #B343D9",
"C 	c #AD46C5",
"D 	c #444B4B",
"E 	c #444A4A",
"F 	c #444B4A",
"G 	c #444A4B",
"H 	c #5C4A66",
"I 	c #CF43EB",
"J 	c #CE43EB",
"K 	c #5B4A65",
"L 	c #444A49",
"M 	c #9048A3",
"N 	c #C743E7",
"O 	c #C843E7",
"P 	c #8F48A2",
"Q 	c #434A49",
"R 	c #8F47A4",
"S 	c #CE42EB",
"T 	c #434949",
"U 	c #434948",
"V 	c #5D4967",
"W 	c #AE46C4",
"X 	c #CB43E7",
"Y 	c #CA43E6",
"Z 	c #AD45C5",
"` 	c #5C4965",
" .	c #424949",
"..	c #424848",
"+.	c #424747",
"@.	c #414847",
"#.	c #414748",
"$.	c #424748",
"%.	c #414747",
". . . . . . . . . . . . . . . . . . . . . . . . ",
"+ + + + + + + + + + + + + + + + + + + + + + + + ",
"+ + + + + + + + + + + + + + + + + + + + + + + + ",
"+ + + + + + + + + + + + + + + + + + + + + + + + ",
"@ + @ @ + @ @ + @ + @ + @ + @ + @ + @ + @ + + + ",
"# $ % # $ # $ % # $ # $ % # # $ % # $ $ % # @ $ ",
"& & * & & & & * & & & & * & & & * & & & * & * $ ",
"= * - = * = * - ; > , ' ' ) ! ~ - = * * - * - & ",
"{ ] ] { ] { ] ^ / ( _ : : _ < [ } { ] ] ] - { { ",
"| | 1 | | | 2 3 4 : : : : : : 4 3 5 | | 1 1 1 | ",
"6 7 8 6 7 9 0 4 : : : : : : : : 4 [ a 7 8 | b b ",
"c d d c d e ( : : : : : : : : : : < f d d d g 7 ",
"h h i h h j _ : : : : : : : : : : _ j h i i h h ",
"k k h k k l : : m n n n n n n m : : ' k h k o p ",
"q q o q q ' : : r s s s s s s r : : t q o q o q ",
"u v v u v j _ : w x x x x x x w : _ j v v q y z ",
"z z z z z A < : : : : : : : : : : B C z z z z D ",
"E F G E F H I 4 : : : : : : : : 4 J K F G D z E ",
"E E L E E E M N 4 : : : : : : 4 O P E E L E E E ",
"Q Q L Q Q Q Q R I < _ : : _ ( S P Q Q Q L T T E ",
"T U T T U T U T V W X t t Y Z ` T T U U T T  .T ",
" ..... ... ..... ... ..... . ..... .............",
"+.@.#.+.@.+.@.#.+.@.+.@.#.+.+.@.#.+.@.@.#.$.....",
"%.%.%.%.%.%.%.%.%.%.%.%.%.%.%.%.%.%.%.%.%.#.+.%."};
