/* XPM */
static char * hide_active_xpm[] = {
"24 24 93 2",
"  	c None",
". 	c #313133",
"+ 	c #4B5252",
"@ 	c #4B5151",
"# 	c #4A5152",
"$ 	c #4A5151",
"% 	c #4B5152",
"& 	c #4A5051",
"* 	c #495150",
"= 	c #4A5050",
"- 	c #495050",
"; 	c #624F6C",
"> 	c #B049C6",
", 	c #CA45E6",
"' 	c #CB43E8",
") 	c #CA44E6",
"! 	c #AF4AC6",
"~ 	c #60506A",
"{ 	c #494F50",
"] 	c #49504F",
"^ 	c #924BA5",
"/ 	c #CE44EA",
"( 	c #B242D9",
"_ 	c #A442CC",
": 	c #A342CC",
"< 	c #B342D9",
"[ 	c #CF44EB",
"} 	c #904CA5",
"| 	c #484F4F",
"1 	c #494F4F",
"2 	c #924AA5",
"3 	c #C843E8",
"4 	c #A442CD",
"5 	c #904BA5",
"6 	c #484F4E",
"7 	c #484E4E",
"8 	c #474F4E",
"9 	c #604E6A",
"0 	c #CE43EA",
"a 	c #5F4E69",
"b 	c #484E4F",
"c 	c #474D4E",
"d 	c #474E4E",
"e 	c #B048C7",
"f 	c #AE48C5",
"g 	c #484D4E",
"h 	c #474D4D",
"i 	c #474E4D",
"j 	c #CB44E7",
"k 	c #464D4D",
"l 	c #CB43E9",
"m 	c #464D4C",
"n 	c #474D4C",
"o 	c #464C4C",
"p 	c #CB42E8",
"q 	c #464C4B",
"r 	c #454C4C",
"s 	c #454C4B",
"t 	c #454B4B",
"u 	c #AE47C5",
"v 	c #B343D9",
"w 	c #AD46C5",
"x 	c #444B4B",
"y 	c #444A4A",
"z 	c #444B4A",
"A 	c #444A4B",
"B 	c #5C4A66",
"C 	c #CF43EB",
"D 	c #CE43EB",
"E 	c #5B4A65",
"F 	c #444A49",
"G 	c #9048A3",
"H 	c #C743E7",
"I 	c #C843E7",
"J 	c #8F48A2",
"K 	c #434A49",
"L 	c #8F47A4",
"M 	c #CE42EB",
"N 	c #434949",
"O 	c #434948",
"P 	c #5D4967",
"Q 	c #AE46C4",
"R 	c #CB43E7",
"S 	c #CA43E6",
"T 	c #AD45C5",
"U 	c #5C4965",
"V 	c #424949",
"W 	c #424848",
"X 	c #424747",
"Y 	c #414847",
"Z 	c #414748",
"` 	c #424748",
" .	c #414747",
". . . . . . . . . . . . . . . . . . . . . . . . ",
"+ + + + + + + + + + + + + + + + + + + + + + + + ",
"+ + + + + + + + + + + + + + + + + + + + + + + + ",
"+ + + + + + + + + + + + + + + + + + + + + + + + ",
"@ + @ @ + @ @ + @ + @ + @ + @ + @ + @ + @ + + + ",
"# $ % # $ # $ % # $ # $ % # # $ % # $ $ % # @ $ ",
"& & * & & & & * & & & & * & & & * & & & * & * $ ",
"= * - = * = * - ; > , ' ' ) ! ~ - = * * - * - & ",
"{ ] ] { ] { ] ^ / ( _ : : _ < [ } { ] ] ] - { { ",
"| | 1 | | | 2 3 4 : : : : : : 4 3 5 | | 1 1 1 | ",
"6 7 8 6 7 9 0 4 : : : : : : : : 4 [ a 7 8 | b b ",
"c d d c d e ( : : : : : : : : : : < f d d d g 7 ",
"h h i h h j _ : : : : : : : : : : _ j h i i h h ",
"k k h k k l : : : : : : : : : : : : ' k h k m n ",
"o o m o o ' : : : : : : : : : : : : p o m o m o ",
"q r r q r j _ : : : : : : : : : : _ j r r o s t ",
"t t t t t u < : : : : : : : : : : v w t t t t x ",
"y z A y z B C 4 : : : : : : : : 4 D E z A x t y ",
"y y F y y y G H 4 : : : : : : 4 I J y y F y y y ",
"K K F K K K K L C < _ : : _ ( M J K K K F N N y ",
"N O N N O N O N P Q R p p S T U N N O O N N V N ",
"V W W V W V W W V W V W W V V W W V W W W W W W ",
"X Y Z X Y X Y Z X Y X Y Z X X Y Z X Y Y Z ` W W ",
" . . . . . . . . . . . . . . . . . . . . .Z X  ."};
