/* XPM */
static char * maximize_pressed_xpm[] = {
"24 24 110 2",
"  	c None",
". 	c #313133",
"+ 	c #4B5252",
"@ 	c #4B5151",
"# 	c #4A5152",
"$ 	c #4A5151",
"% 	c #4B5152",
"& 	c #4A5051",
"* 	c #495150",
"= 	c #4A5050",
"- 	c #495050",
"; 	c #624F6C",
"> 	c #B049C6",
", 	c #CA45E6",
"' 	c #CB43E8",
") 	c #CA44E6",
"! 	c #AF4AC6",
"~ 	c #60506A",
"{ 	c #494F50",
"] 	c #49504F",
"^ 	c #924BA5",
"/ 	c #CE44EA",
"( 	c #B242D9",
"_ 	c #A442CC",
": 	c #A342CC",
"< 	c #B342D9",
"[ 	c #CF44EB",
"} 	c #904CA5",
"| 	c #484F4F",
"1 	c #494F4F",
"2 	c #924AA5",
"3 	c #C843E8",
"4 	c #A442CD",
"5 	c #904BA5",
"6 	c #484F4E",
"7 	c #484E4E",
"8 	c #474F4E",
"9 	c #604E6A",
"0 	c #CE43EA",
"a 	c #A94FCF",
"b 	c #CE99E4",
"c 	c #CE9AE4",
"d 	c #B96ED8",
"e 	c #5F4E69",
"f 	c #484E4F",
"g 	c #474D4E",
"h 	c #474E4E",
"i 	c #B048C7",
"j 	c #C78BE0",
"k 	c #FEFEFF",
"l 	c #FFFFFF",
"m 	c #D1A1E6",
"n 	c #AE48C5",
"o 	c #484D4E",
"p 	c #474D4D",
"q 	c #474E4D",
"r 	c #CB44E7",
"s 	c #AA51D0",
"t 	c #464D4D",
"u 	c #CB43E9",
"v 	c #D1A0E5",
"w 	c #CA91E1",
"x 	c #464D4C",
"y 	c #474D4C",
"z 	c #464C4C",
"A 	c #FFFEFF",
"B 	c #D09FE5",
"C 	c #CB42E8",
"D 	c #464C4B",
"E 	c #454C4C",
"F 	c #454C4B",
"G 	c #454B4B",
"H 	c #AE47C5",
"I 	c #B343D9",
"J 	c #AD46C5",
"K 	c #444B4B",
"L 	c #444A4A",
"M 	c #444B4A",
"N 	c #444A4B",
"O 	c #5C4A66",
"P 	c #CF43EB",
"Q 	c #BC74DA",
"R 	c #D4A7E7",
"S 	c #D4A6E7",
"T 	c #AC54D1",
"U 	c #CE43EB",
"V 	c #5B4A65",
"W 	c #444A49",
"X 	c #9048A3",
"Y 	c #C743E7",
"Z 	c #C843E7",
"` 	c #8F48A2",
" .	c #434A49",
"..	c #8F47A4",
"+.	c #CE42EB",
"@.	c #434949",
"#.	c #434948",
"$.	c #5D4967",
"%.	c #AE46C4",
"&.	c #CB43E7",
"*.	c #CA43E6",
"=.	c #AD45C5",
"-.	c #5C4965",
";.	c #424949",
">.	c #424848",
",.	c #424747",
"'.	c #414847",
").	c #414748",
"!.	c #424748",
"~.	c #414747",
". . . . . . . . . . . . . . . . . . . . . . . . ",
"+ + + + + + + + + + + + + + + + + + + + + + + + ",
"+ + + + + + + + + + + + + + + + + + + + + + + + ",
"+ + + + + + + + + + + + + + + + + + + + + + + + ",
"@ + @ @ + @ @ + @ + @ + @ + @ + @ + @ + @ + + + ",
"# $ % # $ # $ % # $ # $ % # # $ % # $ $ % # @ $ ",
"& & * & & & & * & & & & * & & & * & & & * & * $ ",
"= * - = * = * - ; > , ' ' ) ! ~ - = * * - * - & ",
"{ ] ] { ] { ] ^ / ( _ : : _ < [ } { ] ] ] - { { ",
"| | 1 | | | 2 3 4 : : : : : : 4 3 5 | | 1 1 1 | ",
"6 7 8 6 7 9 0 4 : : a b c c c d 4 [ e 7 8 | f f ",
"g h h g h i ( : : : : j k l l m : < n h h h o 7 ",
"p p q p p r _ : s : : : j k l m : _ r p q q p p ",
"t t p t t u : : v w : : : j k m : : ' t p t x y ",
"z z x z z ' : : m A w : : : j B : : C z x z x z ",
"D E E D E r _ : m l A w : : : s : _ r E E z F G ",
"G G G G G H < : m l l A w : : : : I J G G G G K ",
"L M N L M O P 4 Q R R R S T : : 4 U V M N K G L ",
"L L W L L L X Y 4 : : : : : : 4 Z ` L L W L L L ",
" . .W  . . . ...P < _ : : _ ( +.`  . . .W @.@.L ",
"@.#.@.@.#.@.#.@.$.%.&.C C *.=.-.@.@.#.#.@.@.;.@.",
";.>.>.;.>.;.>.>.;.>.;.>.>.;.;.>.>.;.>.>.>.>.>.>.",
",.'.).,.'.,.'.).,.'.,.'.).,.,.'.).,.'.'.).!.>.>.",
"~.~.~.~.~.~.~.~.~.~.~.~.~.~.~.~.~.~.~.~.~.).,.~."};
