/* XPM */
static char * stick_active_xpm[] = {
"24 36 100 2",
"  	c #323A3F",
". 	c #3F4C53",
"+ 	c #3F4C52",
"@ 	c #3E4C53",
"# 	c #3F4B53",
"$ 	c #3E4C52",
"% 	c #3E4B52",
"& 	c #3F4B52",
"* 	c #3E4B53",
"= 	c #3E4A52",
"- 	c #404A50",
"; 	c #202323",
"> 	c #0F0F0F",
", 	c #0A0A0A",
"' 	c #3D4B51",
") 	c #161818",
"! 	c #323B41",
"~ 	c #3D4A51",
"{ 	c #263036",
"] 	c #3D4A50",
"^ 	c #3C4950",
"/ 	c #263035",
"( 	c #3D4950",
"_ 	c #252F35",
": 	c #4C5050",
"< 	c #B8B8B8",
"[ 	c #E6E6E6",
"} 	c #FCFCFC",
"| 	c #3C494F",
"1 	c #242E33",
"2 	c #8C8D8D",
"3 	c #DFE0E0",
"4 	c #D2D2D2",
"5 	c #919292",
"6 	c #484B4B",
"7 	c #3C4850",
"8 	c #242D32",
"9 	c #4B4E4E",
"0 	c #DFDFDF",
"a 	c #B7B8B8",
"b 	c #3B494F",
"c 	c #3B484F",
"d 	c #232C31",
"e 	c #D1D2D2",
"f 	c #222B30",
"g 	c #909191",
"h 	c #3A484F",
"i 	c #212A2F",
"j 	c #454747",
"k 	c #3A484E",
"l 	c #20282E",
"m 	c #444646",
"n 	c #3A474E",
"o 	c #20272C",
"p 	c #8F9090",
"q 	c #3A474D",
"r 	c #1E262B",
"s 	c #B7B7B7",
"t 	c #D1D1D1",
"u 	c #39464E",
"v 	c #1E2429",
"w 	c #464848",
"x 	c #1D2428",
"y 	c #8A8B8B",
"z 	c #8F8F8F",
"A 	c #414443",
"B 	c #39464D",
"C 	c #1C2327",
"D 	c #B6B7B7",
"E 	c #E5E6E6",
"F 	c #FBFCFC",
"G 	c #39454D",
"H 	c #1C2226",
"I 	c #38464D",
"J 	c #1A2024",
"K 	c #38454C",
"L 	c #38454D",
"M 	c #39454C",
"N 	c #37444B",
"O 	c #101212",
"P 	c #171B1B",
"Q 	c #181D1D",
"R 	c #37454C",
"S 	c #394449",
"T 	c #202424",
"U 	c #101111",
"V 	c #0B0C0C",
"W 	c #38444B",
"X 	c #37444C",
"Y 	c #394349",
"Z 	c #555B5B",
"` 	c #5C6161",
" .	c #5E6363",
"..	c #37444A",
"+.	c #37434B",
"@.	c #37434A",
"#.	c #36444B",
"$.	c #36444A",
"%.	c #36434B",
"&.	c #36434A",
"                                                ",
". . . . . . . . . . . . . . . . . . . . . . . . ",
". + . . . + . . . . . @ . # $ # . . + . . + . + ",
". . # @ . . % + & . @ & & & % $ . + # & & @ # & ",
"@ % % + @ % $ & % + & @ $ # % # . & % & @ & $ % ",
"% % % % % % % % % % % % * % % % % % % % % % % % ",
"= - ; > , , , , , , , , , , , , , , , , > ; - % ",
"' ; ) ! ! ! ! ! ! ! ! ! ! ! ! ! ! ! ! ! ! ) ; % ",
"~ > { { { { { { { { { { { { { { { { { { { { > ~ ",
"~ , { { { { { { { { { { { { { { { { { { { { , ~ ",
"] , { { { { { { { { { { { { { { { { { { { { , ~ ",
"^ , / / / / / / / / / / / / / / / / / / / / , ( ",
"^ , _ _ _ _ _ _ : < [ } } [ < : _ _ _ _ _ _ , ( ",
"| , 1 1 1 1 1 2 3 4 5 6 6 5 4 3 2 1 1 1 1 1 , 7 ",
"7 , 8 8 8 8 9 0 a 8 8 8 8 8 8 a 0 9 8 8 8 8 , b ",
"c , d d d d a e d d d d d d d d e a d d d d , c ",
"c , f f f f [ g f f f f f f f f g [ f f f f , c ",
"h , i i i i } j i i i i i i i i j } i i i i , c ",
"k , l l l l } m l l l l l l l l m } l l l l , n ",
"n , o o o o [ p o o o o o o o o p [ o o o o , n ",
"q , r r r r s t r r r r r r r r t s r r r r , n ",
"u , v v v v w 0 s v v v v v v s 0 w v v v v , n ",
"q , x x x x x y 0 t z A A z t 0 y x x x x x , u ",
"B , C C C C C C j D E F F E D j C C C C C C , B ",
"G , H H H H H H H H H H H H H H H H H H H H , I ",
"G , J J J J J J J J J J J J J J J J J J J J , K ",
"L , J J J J J J J J J J J J J J J J J J J J , M ",
"K > J J J J J J J J J J J J J J J J J J J J > K ",
"N ; O P Q Q Q Q Q Q Q Q Q Q Q Q Q Q Q Q P O ; K ",
"R S T U V V V V V V V V V V V V V V V V U T S W ",
"X Y Y Z `  . . . . . . . . . . . . . .` Z Y Y N ",
"N N N N N N N N N N ..N N +.N ..N N +.@.N ..N N ",
"#...@.@.#.....$...%.$.N @.+.+.N N $.+.&...#.&.#.",
"@.$.#.&.@.$.+.+.@.%.&.#.%.@...%.%.&.&.#.$.&.@.N ",
"&.&.&.&.&.&.$.&.$.&.&.&.&.&.&.#.&.&.&.&.&.&.$.&.",
"&.&.&.&.&.&.&.&.&.&.&.&.&.&.&.&.&.&.&.&.&.&.&.&."};
