<?xml version="1.0" encoding="UTF-8" standalone="no"?>
<svg
   width="20"
   height="20"
   viewBox="0 0 5.2916667 5.2916667"
   version="1.1"
   id="svg8"
   xmlns="http://www.w3.org/2000/svg"
   xmlns:svg="http://www.w3.org/2000/svg"
   xmlns:rdf="http://www.w3.org/1999/02/22-rdf-syntax-ns#"
   xmlns:cc="http://creativecommons.org/ns#"
   xmlns:dc="http://purl.org/dc/elements/1.1/">
  <defs
     id="defs2" />
  <metadata
     id="metadata5">
    <rdf:RDF>
      <cc:Work
         rdf:about="">
        <dc:format>image/svg+xml</dc:format>
        <dc:type
           rdf:resource="http://purl.org/dc/dcmitype/StillImage" />
      </cc:Work>
    </rdf:RDF>
  </metadata>
  <g
     id="layer1"
     transform="translate(0,-291.70834)">
    <circle
       style="opacity:1;fill:#16a691;fill-opacity:1;stroke:#3bddc4;stroke-width:0.26458334;stroke-linecap:round;stroke-linejoin:miter;stroke-miterlimit:4;stroke-dasharray:none;stroke-opacity:1;paint-order:markers fill stroke"
       id="path815"
       cx="2.6458333"
       cy="294.35416"
       r="2.5065789" />
    <path
       id="rect849-9"
       style="opacity:1;fill:#ffffff;fill-opacity:1;stroke:none;stroke-width:1.25485;stroke-linecap:round;stroke-linejoin:miter;stroke-miterlimit:4;stroke-dasharray:none;stroke-opacity:1;paint-order:markers fill stroke"
       d="M 6.0332031 5 C 5.7890031 5.0104258 5.5332428 5.1211077 5.328125 5.3261719 C 4.9419064 5.7124774 4.8887025 6.283453 5.2109375 6.6054688 L 8.6054688 10 L 5.2109375 13.394531 C 4.8890729 13.716623 4.9401687 14.285758 5.3261719 14.671875 C 5.7124396 15.058143 6.283453 15.111456 6.6054688 14.789062 L 10 11.394531 L 13.394531 14.789062 C 13.71661 15.110927 14.28573 15.059831 14.671875 14.673828 C 15.058094 14.28756 15.111294 13.716547 14.789062 13.394531 L 11.394531 10 L 14.789062 6.6054688 C 15.110889 6.2833774 15.059831 5.7122884 14.673828 5.3261719 C 14.287523 4.9399042 13.716547 4.8885438 13.394531 5.2109375 L 10 8.6054688 L 6.6054688 5.2109375 C 6.4544939 5.0600812 6.2486738 4.9908007 6.0332031 5 z "
       transform="matrix(0.26458334,0,0,0.26458334,0,291.70834)" />
  </g>
</svg>
