/* XPM */
static char * close_active_xpm[] = {
"28 36 93 2",
"  	c #323A3F",
". 	c #414B51",
"+ 	c #414B50",
"@ 	c #414A50",
"# 	c #404A50",
"$ 	c #404950",
"% 	c #3F494F",
"& 	c #3E5362",
"* 	c #34B6DA",
"= 	c #24CFF8",
"- 	c #12D4FD",
"; 	c #08D5FD",
"> 	c #35B7DA",
", 	c #34B4D7",
"' 	c #11D3FD",
") 	c #08CCF6",
"! 	c #01B9E6",
"~ 	c #00ADDC",
"{ 	c #00A8D7",
"] 	c #01BAE6",
"^ 	c #08CDF6",
"/ 	c #11D4FD",
"( 	c #35B3D6",
"_ 	c #3F4F55",
": 	c #2ACAF3",
"< 	c #07D2FB",
"[ 	c #00B2E0",
"} 	c #00A4D4",
"| 	c #07D2FC",
"1 	c #2BCCF2",
"2 	c #3E494E",
"3 	c #07CEF7",
"4 	c #00A8D8",
"5 	c #07CEF8",
"6 	c #2CCBF2",
"7 	c #3E484E",
"8 	c #00A9D8",
"9 	c #07D3FC",
"0 	c #36B3D5",
"a 	c #3D484D",
"b 	c #3D555C",
"c 	c #00B1DF",
"d 	c #00B3E0",
"e 	c #3D5360",
"f 	c #3D474D",
"g 	c #08CCF7",
"h 	c #34B6D8",
"i 	c #3D474E",
"j 	c #24D0F8",
"k 	c #01BAE7",
"l 	c #12D3FC",
"m 	c #00AEDC",
"n 	c #3C464D",
"o 	c #07D5FD",
"p 	c #00A7D7",
"q 	c #08D5FE",
"r 	c #3D474C",
"s 	c #07D5FE",
"t 	c #3C464C",
"u 	c #13D4FC",
"v 	c #3B464B",
"w 	c #23CFF8",
"x 	c #01BBE6",
"y 	c #25CFF8",
"z 	c #3C454B",
"A 	c #34B7D9",
"B 	c #3B454B",
"C 	c #3B525B",
"D 	c #12D5FD",
"E 	c #00B3E1",
"F 	c #3B505F",
"G 	c #34B2D6",
"H 	c #06D2FB",
"I 	c #33B2D4",
"J 	c #2ACCF2",
"K 	c #2BCAF1",
"L 	c #3A444A",
"M 	c #3A4A50",
"N 	c #2BCBF2",
"O 	c #2ACAF1",
"P 	c #3A454A",
"Q 	c #34B3D5",
"R 	c #33B0D3",
"S 	c #3A505E",
"T 	c #33B6D8",
"U 	c #24D1F9",
"V 	c #13D4FD",
"W 	c #3A515A",
"X 	c #394349",
"Y 	c #394449",
"Z 	c #384348",
"` 	c #394348",
" .	c #384248",
"                                                        ",
". . . . . . . . . . . . . . . . . . . . . . . . . . . . ",
". . . . . . . . . . . . . . . . . . . . . . . . . . . . ",
"+ + + + + + + + + + + + + + + + + + + + + + + + + + + + ",
"@ @ @ @ @ @ @ @ @ @ @ @ @ @ @ @ @ @ @ @ @ @ @ @ @ @ @ @ ",
"# # # # # # # # # # # # # # # # # # # # # # # # # # # # ",
"# # # # # # # # # # # # # # # # # # # # # # # # # # # # ",
"$ $ $ $ $ $ $ $ $ $ $ $ $ $ $ $ $ $ $ $ $ $ $ $ $ $ $ $ ",
"% % % % % % % % % & * = - ; ; - = > & % % % % % % % % % ",
"% % % % % % % % , ' ) ! ~ { { ~ ] ^ / ( % % % % % % % % ",
"% % % % % % _ : < [ } } } } } } } } [ | 1 _ % % % % % % ",
"2 2 2 2 2 2 : 3 { } } } } } } } } } } 4 5 6 2 2 2 2 2 2 ",
"7 7 7 7 7 , < 4 } } } } } } } } } } } } 8 9 0 7 7 7 7 7 ",
"a a a a b - c } } } } } } } } } } } } } } d / e a a a a ",
"f f f f * ) } } } } } } } } } } } } } } } } g h f f f f ",
"i i i i j ] } } } } } } } } } } } } } } } } k = i i i i ",
"f f f f l ~ } } } } } } } } } } } } } } } } m l f f f f ",
"n n n n o p } } } } } } } } } } } } } } } } { q n n n n ",
"r r r r s { } } } } } } } } } } } } } } } } 4 ; r r r r ",
"t t t t l ~ } } } } } } } } } } } } } } } } m u t t t t ",
"v v v v w ] } } } } } } } } } } } } } } } } x y v v v v ",
"z z z z A ^ } } } } } } } } } } } } } } } } g , z z z z ",
"B B B B C D [ } } } } } } } } } } } } } } E - F B B B B ",
"B B B B B G | 8 } } } } } } } } } } } } 8 H I B B B B B ",
"B B B B B B J 5 8 } } } } } } } } } } 8 5 K B B B B B B ",
"L L L L L L M N 9 d } } } } } } } } d H O M L L L L L L ",
"P P P P P P P P Q - g k ~ 4 4 m ] g D R P P P P P P P P ",
"L L L L L L L L L S T U V ; ; V j , W L L L L L L L L L ",
"X X X X X X X X X X X X X X X X X X X X X X X X X X X X ",
"Y Y Y Y Y Y Y Y Y Y Y Y Y Y Y Y Y Y Y Y Y Y Y Y Y Y Y Y ",
"X X X X X X X X X X X X X X X X X X X X X X X X X X X X ",
"X X X X X X X X X X X X X X X X X X X X X X X X X X X X ",
"Z Z Z Z Z Z Z Z Z Z Z Z Z Z Z Z Z Z Z Z Z Z Z Z Z Z Z Z ",
"` ` ` ` ` ` ` ` ` ` ` ` ` ` ` ` ` ` ` ` ` ` ` ` ` ` ` ` ",
" . . . . . . . . . . . . . . . . . . . . . . . . . . . .",
" . . . . . . . . . . . . . . . . . . . . . . . . . . . ."};
