/* XPM */
static char * close_prelight_xpm[] = {
"28 36 142 2",
"  	c None",
". 	c #313133",
"+ 	c #4B5252",
"@ 	c #4B5251",
"# 	c #4A5251",
"$ 	c #4A5152",
"% 	c #4B5151",
"& 	c #4A5252",
"* 	c #4B5152",
"= 	c #4A5151",
"- 	c #495151",
"; 	c #4A5150",
"> 	c #495150",
", 	c #495050",
"' 	c #4A5051",
") 	c #4A5050",
"! 	c #495051",
"~ 	c #494F50",
"{ 	c #49504F",
"] 	c #495357",
"^ 	c #4687A4",
"/ 	c #44ADD6",
"( 	c #42C2F1",
"_ 	c #41C8F8",
": 	c #42C1F1",
"< 	c #43ADD5",
"[ 	c #4789A3",
"} 	c #495257",
"| 	c #484F4F",
"1 	c #494F4E",
"2 	c #4686A0",
"3 	c #41C1F2",
"4 	c #3FC0F1",
"5 	c #3BB5E6",
"6 	c #38ABDC",
"7 	c #38A7D7",
"8 	c #3BB6E6",
"9 	c #3FC1F1",
"0 	c #4685A0",
"a 	c #474F4F",
"b 	c #484E4E",
"c 	c #475151",
"d 	c #43A1C6",
"e 	c #40C7F7",
"f 	c #3AAFE0",
"g 	c #37A4D4",
"h 	c #41C6F8",
"i 	c #44A1C5",
"j 	c #485151",
"k 	c #474E4E",
"l 	c #40C3F3",
"m 	c #37A7D8",
"n 	c #3FC4F4",
"o 	c #44A0C4",
"p 	c #474D4E",
"q 	c #4585A0",
"r 	c #38A8D8",
"s 	c #41C7F8",
"t 	c #46849E",
"u 	c #474D4C",
"v 	c #464C4D",
"w 	c #464F52",
"x 	c #39AFDF",
"y 	c #BEE1F1",
"z 	c #D8EDF7",
"A 	c #47ABD7",
"B 	c #39B0E0",
"C 	c #41C2F1",
"D 	c #475053",
"E 	c #464D4D",
"F 	c #454C4C",
"G 	c #464C4C",
"H 	c #4386A2",
"I 	c #3EC0F1",
"J 	c #D2EAF5",
"K 	c #FFFFFF",
"L 	c #DAEEF7",
"M 	c #D6ECF6",
"N 	c #3FC1F2",
"O 	c #4486A1",
"P 	c #454C4B",
"Q 	c #42AED6",
"R 	c #44AAD7",
"S 	c #D7EDF6",
"T 	c #DBEFF7",
"U 	c #3BB6E7",
"V 	c #42ACD5",
"W 	c #454B4B",
"X 	c #41C0EF",
"Y 	c #39ACDC",
"Z 	c #41BFEF",
"` 	c #444B4B",
" .	c #444A4B",
"..	c #41C9F9",
"+.	c #38A6D7",
"@.	c #41C8F9",
"#.	c #454B4A",
"$.	c #444A4A",
"%.	c #434A4A",
"&.	c #434A49",
"*.	c #40C0EF",
"=.	c #44494A",
"-.	c #434949",
";.	c #41ACD5",
">.	c #42ABD3",
",.	c #424948",
"'.	c #424848",
").	c #424849",
"!.	c #4286A1",
"~.	c #3EC1F1",
"{.	c #D2EBF5",
"].	c #42849F",
"^.	c #424847",
"/.	c #424A4E",
"(.	c #41C1F0",
"_.	c #BDE1F1",
":.	c #3AB0E1",
"<.	c #40C2F1",
"[.	c #424C4F",
"}.	c #414747",
"|.	c #424747",
"1.	c #41829D",
"2.	c #41C6F7",
"3.	c #3FC6F7",
"4.	c #41809B",
"5.	c #40A0C4",
"6.	c #419EC2",
"7.	c #414949",
"8.	c #419FC3",
"9.	c #3AB0E0",
"0.	c #409EC2",
"a.	c #41829C",
"b.	c #3CB6E7",
"c.	c #39ABDC",
"d.	c #3FC1F0",
"e.	c #41809A",
"f.	c #414B4F",
"g.	c #4184A0",
"h.	c #41ACD4",
"i.	c #41AAD4",
"j.	c #41839F",
"k.	c #41494D",
". . . . . . . . . . . . . . . . . . . . . . . . . . . . ",
"+ + + + + + + + + + + + + + + + + + + + + + + + + + + + ",
"+ + + + + + + + + + + + + + + + + + + + + + + + + + + + ",
"+ + + + + + + + + + + + + + + + + + + + + + + + + + + + ",
"@ @ @ + # $ + @ % + % + @ & @ + # $ + @ @ @ @ @ * + @ @ ",
"% % % = * % @ $ $ = * # % = % = * % @ $ % = % = $ % % % ",
"- - - - ; > = , ' ' > ; ) ! - - ; > = , ; = = ; = = - - ",
"! ! ! , , ) , ! ) > , , , ) ! , , ) , ! ! , , , ) , ! ! ",
"~ ~ ~ { , ~ ~ ~ ~ ] ^ / ( _ _ : < [ } ~ { , ~ ~ { , ~ ~ ",
"| | | 1 | | | | 2 3 4 5 6 7 7 6 8 9 ( 0 1 | | | 1 | | | ",
"a a a b | a c d e f g g g g g g g g f h i j a a b | a a ",
"k k k k b k d l 7 g g g g g g g g g g m n o k k k b k k ",
"p p p p p q e m g g g g g g g g g g g g r s t p p p p p ",
"u u u v w ( x g g y z A g g g g A z y g g B C D v E u u ",
"F F F G H I g g g J K L A g g A L K M g g g N O G F F F ",
"P P P F Q 5 g g g R S K T A R S K L A g g g U V F F P P ",
"W W W W X 6 g g g g A L K L L K L A g g g g Y Z W ` W W ",
" . . .` ..+.g g g g g R S K K L A g g g g g 7 @.` #. . .",
"$.$.$.%.@.7 g g g g g R S K K T A g g g g g m _ %.$.$.$.",
"%.%.%.&.X 6 g g g g A L K L L K L A g g g g Y *.&.=.%.%.",
"-.-.-.-.;.8 g g g R S K L A R S K T A g g g 8 >.-.,.-.-.",
"'.'.'.).!.~.g g g {.K L A g g A L K M g g g N ].).'.'.'.",
"^.^.^.'./.(.f g g _.M A g g g g A M _.g g :.<.[.'.'.^.^.",
"}.}.}.|.|.1.2.r g g g g g g g g g g g g r 3.4.}.|.|.}.}.",
"}.}.}.}.}.}.5.n r g g g g g g g g g g r n 6.}.}.}.}.}.}.",
"}.}.}.}.}.}.7.8.2.B g g g g g g g g 9.3.0.7.}.}.}.}.}.}.",
"}.}.}.}.}.}.}.}.a.C N b.c.m m Y 8 N d.e.}.}.}.}.}.}.}.}.",
"}.}.}.}.}.}.}.}.}.f.g.h.(._ _ (.i.j.k.}.}.}.}.}.}.}.}.}.",
"}.}.}.}.}.}.}.}.}.}.}.}.}.}.}.}.}.}.}.}.}.}.}.}.}.}.}.}.",
"}.}.}.}.}.}.}.}.}.}.}.}.}.}.}.}.}.}.}.}.}.}.}.}.}.}.}.}.",
"}.}.}.}.}.}.}.}.}.}.}.}.}.}.}.}.}.}.}.}.}.}.}.}.}.}.}.}.",
"}.}.}.}.}.}.}.}.}.}.}.}.}.}.}.}.}.}.}.}.}.}.}.}.}.}.}.}.",
"}.}.}.}.}.}.}.}.}.}.}.}.}.}.}.}.}.}.}.}.}.}.}.}.}.}.}.}.",
"}.}.}.}.}.}.}.}.}.}.}.}.}.}.}.}.}.}.}.}.}.}.}.}.}.}.}.}.",
"}.}.}.}.}.}.}.}.}.}.}.}.}.}.}.}.}.}.}.}.}.}.}.}.}.}.}.}.",
"}.}.}.}.}.}.}.}.}.}.}.}.}.}.}.}.}.}.}.}.}.}.}.}.}.}.}.}."};
