/* XPM */
static char * close_prelight_xpm[] = {
"28 36 119 2",
"  	c None",
". 	c #323A3F",
"+ 	c #414B51",
"@ 	c #414B50",
"# 	c #414A50",
"$ 	c #404A50",
"% 	c #404950",
"& 	c #3F494F",
"* 	c #3F4D56",
"= 	c #3F85A3",
"- 	c #40ACD6",
"; 	c #41C1F1",
"> 	c #41C8F8",
", 	c #40ACD5",
"' 	c #4086A3",
") 	c #3F83A0",
"! 	c #40C1F2",
"~ 	c #3EC0F1",
"{ 	c #3BB5E6",
"] 	c #38ABDC",
"^ 	c #38A7D7",
"/ 	c #3BB6E6",
"( 	c #3EC1F1",
"_ 	c #41C2F1",
": 	c #4082A0",
"< 	c #3F4B51",
"[ 	c #3FA0C6",
"} 	c #40C7F7",
"| 	c #3AAFE0",
"1 	c #37A4D4",
"2 	c #41C6F8",
"3 	c #40A0C5",
"4 	c #3E494E",
"5 	c #40C3F3",
"6 	c #37A7D8",
"7 	c #3FC4F4",
"8 	c #409FC4",
"9 	c #3E484E",
"0 	c #38A8D8",
"a 	c #41C7F8",
"b 	c #3F829E",
"c 	c #3D484D",
"d 	c #3D4A52",
"e 	c #39AFDF",
"f 	c #BEE1F1",
"g 	c #D8EDF7",
"h 	c #47ABD7",
"i 	c #39B0E0",
"j 	c #40C2F1",
"k 	c #3D4C54",
"l 	c #3D474D",
"m 	c #3E85A3",
"n 	c #D2EAF5",
"o 	c #FFFFFF",
"p 	c #DAEEF7",
"q 	c #D6ECF6",
"r 	c #3FC1F2",
"s 	c #3E84A1",
"t 	c #3D474E",
"u 	c #40ADD6",
"v 	c #44AAD7",
"w 	c #D7EDF6",
"x 	c #DBEFF7",
"y 	c #3BB6E7",
"z 	c #3FACD5",
"A 	c #41C0F0",
"B 	c #39ACDC",
"C 	c #40BFEF",
"D 	c #3C464D",
"E 	c #41C9F9",
"F 	c #38A6D7",
"G 	c #41C8F9",
"H 	c #3D474C",
"I 	c #3C464C",
"J 	c #40C0F0",
"K 	c #40C0EF",
"L 	c #3B464B",
"M 	c #3EACD5",
"N 	c #3FAAD3",
"O 	c #3C454B",
"P 	c #3E85A1",
"Q 	c #D2EBF5",
"R 	c #3E83A0",
"S 	c #3B454B",
"T 	c #3B4751",
"U 	c #40C1F0",
"V 	c #BDE1F1",
"W 	c #3AB0E1",
"X 	c #3FC1F1",
"Y 	c #3B4952",
"Z 	c #3D819E",
"` 	c #41C5F8",
" .	c #3FC6F7",
"..	c #3C809C",
"+.	c #3EA0C5",
"@.	c #3E9EC3",
"#.	c #3A444A",
"$.	c #3A464C",
"%.	c #3E9FC3",
"&.	c #3AB0E0",
"*.	c #3D9DC3",
"=.	c #3A454A",
"-.	c #3C819D",
";.	c #40C1F1",
">.	c #3CB6E7",
",.	c #39ABDC",
"'.	c #3EC1F0",
").	c #3C7F9B",
"!.	c #3A4851",
"~.	c #3C84A0",
"{.	c #3FABD5",
"].	c #3FAAD4",
"^.	c #3D82A0",
"/.	c #3A4650",
"(.	c #394349",
"_.	c #394449",
":.	c #384348",
"<.	c #394348",
"[.	c #384248",
". . . . . . . . . . . . . . . . . . . . . . . . . . . . ",
"+ + + + + + + + + + + + + + + + + + + + + + + + + + + + ",
"+ + + + + + + + + + + + + + + + + + + + + + + + + + + + ",
"@ @ @ @ @ @ @ @ @ @ @ @ @ @ @ @ @ @ @ @ @ @ @ @ @ @ @ @ ",
"# # # # # # # # # # # # # # # # # # # # # # # # # # # # ",
"$ $ $ $ $ $ $ $ $ $ $ $ $ $ $ $ $ $ $ $ $ $ $ $ $ $ $ $ ",
"$ $ $ $ $ $ $ $ $ $ $ $ $ $ $ $ $ $ $ $ $ $ $ $ $ $ $ $ ",
"% % % % % % % % % % % % % % % % % % % % % % % % % % % % ",
"& & & & & & & & & * = - ; > > ; , ' * & & & & & & & & & ",
"& & & & & & & & ) ! ~ { ] ^ ^ ] / ( _ : & & & & & & & & ",
"& & & & & & < [ } | 1 1 1 1 1 1 1 1 | 2 3 < & & & & & & ",
"4 4 4 4 4 4 [ 5 ^ 1 1 1 1 1 1 1 1 1 1 6 7 8 4 4 4 4 4 4 ",
"9 9 9 9 9 ) } 6 1 1 1 1 1 1 1 1 1 1 1 1 0 a b 9 9 9 9 9 ",
"c c c c d _ e 1 1 f g h 1 1 1 1 h g f 1 1 i j k c c c c ",
"l l l l m ~ 1 1 1 n o p h 1 1 h p o q 1 1 1 r s l l l l ",
"t t t t u { 1 1 1 v w o x h v w o p h 1 1 1 y z t t t t ",
"l l l l A ] 1 1 1 1 h p o p p o p h 1 1 1 1 B C l l l l ",
"D D D D E F 1 1 1 1 1 v w o o p h 1 1 1 1 1 ^ G D D D D ",
"H H H H G ^ 1 1 1 1 1 v w o o x h 1 1 1 1 1 6 > H H H H ",
"I I I I J ] 1 1 1 1 h p o p p o p h 1 1 1 1 B K I I I I ",
"L L L L M / 1 1 1 v w o p h v w o x h 1 1 1 / N L L L L ",
"O O O O P ( 1 1 1 Q o p h 1 1 h p o q 1 1 1 r R O O O O ",
"S S S S T U | 1 1 V q h 1 1 1 1 h q V 1 1 W X Y S S S S ",
"S S S S S Z ` 0 1 1 1 1 1 1 1 1 1 1 1 1 0  ...S S S S S ",
"S S S S S S +.7 0 1 1 1 1 1 1 1 1 1 1 0 7 @.S S S S S S ",
"#.#.#.#.#.#.$.%.2 i 1 1 1 1 1 1 1 1 &. .*.$.#.#.#.#.#.#.",
"=.=.=.=.=.=.=.=.-.;.r >.,.6 6 B / r '.).=.=.=.=.=.=.=.=.",
"#.#.#.#.#.#.#.#.#.!.~.{.U > > U ].^./.#.#.#.#.#.#.#.#.#.",
"(.(.(.(.(.(.(.(.(.(.(.(.(.(.(.(.(.(.(.(.(.(.(.(.(.(.(.(.",
"_._._._._._._._._._._._._._._._._._._._._._._._._._._._.",
"(.(.(.(.(.(.(.(.(.(.(.(.(.(.(.(.(.(.(.(.(.(.(.(.(.(.(.(.",
"(.(.(.(.(.(.(.(.(.(.(.(.(.(.(.(.(.(.(.(.(.(.(.(.(.(.(.(.",
":.:.:.:.:.:.:.:.:.:.:.:.:.:.:.:.:.:.:.:.:.:.:.:.:.:.:.:.",
"<.<.<.<.<.<.<.<.<.<.<.<.<.<.<.<.<.<.<.<.<.<.<.<.<.<.<.<.",
"[.[.[.[.[.[.[.[.[.[.[.[.[.[.[.[.[.[.[.[.[.[.[.[.[.[.[.[.",
"[.[.[.[.[.[.[.[.[.[.[.[.[.[.[.[.[.[.[.[.[.[.[.[.[.[.[.[."};
