/* XPM */
static char * close_prelight_xpm[] = {
"28 36 105 2",
"  	c #323A3F",
". 	c #414B51",
"+ 	c #414B50",
"@ 	c #414A50",
"# 	c #404A50",
"$ 	c #404950",
"% 	c #3F494F",
"& 	c #3E5362",
"* 	c #34B6DA",
"= 	c #24CFF8",
"- 	c #12D4FD",
"; 	c #08D5FD",
"> 	c #35B7DA",
", 	c #34B4D7",
"' 	c #11D3FD",
") 	c #08CCF6",
"! 	c #01B9E6",
"~ 	c #00ADDC",
"{ 	c #00A8D7",
"] 	c #01BAE6",
"^ 	c #08CDF6",
"/ 	c #11D4FD",
"( 	c #35B3D6",
"_ 	c #3F4F55",
": 	c #2ACAF3",
"< 	c #07D2FB",
"[ 	c #00B2E0",
"} 	c #00A4D4",
"| 	c #07D2FC",
"1 	c #2BCCF2",
"2 	c #3E494E",
"3 	c #07CEF7",
"4 	c #00A8D8",
"5 	c #07CEF8",
"6 	c #2CCBF2",
"7 	c #3E484E",
"8 	c #00A9D8",
"9 	c #07D3FC",
"0 	c #36B3D5",
"a 	c #3D484D",
"b 	c #3D555C",
"c 	c #00B1DF",
"d 	c #ACE1F1",
"e 	c #CDEDF7",
"f 	c #14ABD7",
"g 	c #00B3E0",
"h 	c #3D5360",
"i 	c #3D474D",
"j 	c #C5EAF5",
"k 	c #FFFFFF",
"l 	c #D0EEF7",
"m 	c #CBECF6",
"n 	c #08CCF7",
"o 	c #34B6D8",
"p 	c #3D474E",
"q 	c #24D0F8",
"r 	c #11AAD7",
"s 	c #CCEDF6",
"t 	c #D1EFF7",
"u 	c #01BAE7",
"v 	c #12D3FC",
"w 	c #00AEDC",
"x 	c #3C464D",
"y 	c #07D5FD",
"z 	c #00A7D7",
"A 	c #08D5FE",
"B 	c #3D474C",
"C 	c #07D5FE",
"D 	c #3C464C",
"E 	c #13D4FC",
"F 	c #3B464B",
"G 	c #23CFF8",
"H 	c #01BBE6",
"I 	c #25CFF8",
"J 	c #3C454B",
"K 	c #34B7D9",
"L 	c #C6EBF5",
"M 	c #3B454B",
"N 	c #3B525B",
"O 	c #12D5FD",
"P 	c #ABE1F1",
"Q 	c #00B3E1",
"R 	c #3B505F",
"S 	c #34B2D6",
"T 	c #06D2FB",
"U 	c #33B2D4",
"V 	c #2ACCF2",
"W 	c #2BCAF1",
"X 	c #3A444A",
"Y 	c #3A4A50",
"Z 	c #2BCBF2",
"` 	c #2ACAF1",
" .	c #3A454A",
"..	c #34B3D5",
"+.	c #33B0D3",
"@.	c #3A505E",
"#.	c #33B6D8",
"$.	c #24D1F9",
"%.	c #13D4FD",
"&.	c #3A515A",
"*.	c #394349",
"=.	c #394449",
"-.	c #384348",
";.	c #394348",
">.	c #384248",
"                                                        ",
". . . . . . . . . . . . . . . . . . . . . . . . . . . . ",
". . . . . . . . . . . . . . . . . . . . . . . . . . . . ",
"+ + + + + + + + + + + + + + + + + + + + + + + + + + + + ",
"@ @ @ @ @ @ @ @ @ @ @ @ @ @ @ @ @ @ @ @ @ @ @ @ @ @ @ @ ",
"# # # # # # # # # # # # # # # # # # # # # # # # # # # # ",
"# # # # # # # # # # # # # # # # # # # # # # # # # # # # ",
"$ $ $ $ $ $ $ $ $ $ $ $ $ $ $ $ $ $ $ $ $ $ $ $ $ $ $ $ ",
"% % % % % % % % % & * = - ; ; - = > & % % % % % % % % % ",
"% % % % % % % % , ' ) ! ~ { { ~ ] ^ / ( % % % % % % % % ",
"% % % % % % _ : < [ } } } } } } } } [ | 1 _ % % % % % % ",
"2 2 2 2 2 2 : 3 { } } } } } } } } } } 4 5 6 2 2 2 2 2 2 ",
"7 7 7 7 7 , < 4 } } } } } } } } } } } } 8 9 0 7 7 7 7 7 ",
"a a a a b - c } } d e f } } } } f e d } } g / h a a a a ",
"i i i i * ) } } } j k l f } } f l k m } } } n o i i i i ",
"p p p p q ] } } } r s k t f r s k l f } } } u = p p p p ",
"i i i i v ~ } } } } f l k l l k l f } } } } w v i i i i ",
"x x x x y z } } } } } r s k k l f } } } } } { A x x x x ",
"B B B B C { } } } } } r s k k t f } } } } } 4 ; B B B B ",
"D D D D v ~ } } } } f l k l l k l f } } } } w E D D D D ",
"F F F F G ] } } } r s k l f r s k t f } } } H I F F F F ",
"J J J J K ^ } } } L k l f } } f l k m } } } n , J J J J ",
"M M M M N O [ } } P m f } } } } f m P } } Q - R M M M M ",
"M M M M M S | 8 } } } } } } } } } } } } 8 T U M M M M M ",
"M M M M M M V 5 8 } } } } } } } } } } 8 5 W M M M M M M ",
"X X X X X X Y Z 9 g } } } } } } } } g T ` Y X X X X X X ",
" . . . . . . . ...- n u ~ 4 4 w ] n O +. . . . . . . . .",
"X X X X X X X X X @.#.$.%.; ; %.q , &.X X X X X X X X X ",
"*.*.*.*.*.*.*.*.*.*.*.*.*.*.*.*.*.*.*.*.*.*.*.*.*.*.*.*.",
"=.=.=.=.=.=.=.=.=.=.=.=.=.=.=.=.=.=.=.=.=.=.=.=.=.=.=.=.",
"*.*.*.*.*.*.*.*.*.*.*.*.*.*.*.*.*.*.*.*.*.*.*.*.*.*.*.*.",
"*.*.*.*.*.*.*.*.*.*.*.*.*.*.*.*.*.*.*.*.*.*.*.*.*.*.*.*.",
"-.-.-.-.-.-.-.-.-.-.-.-.-.-.-.-.-.-.-.-.-.-.-.-.-.-.-.-.",
";.;.;.;.;.;.;.;.;.;.;.;.;.;.;.;.;.;.;.;.;.;.;.;.;.;.;.;.",
">.>.>.>.>.>.>.>.>.>.>.>.>.>.>.>.>.>.>.>.>.>.>.>.>.>.>.>.",
">.>.>.>.>.>.>.>.>.>.>.>.>.>.>.>.>.>.>.>.>.>.>.>.>.>.>.>."};
