/* XPM */
static char * close_active_xpm[] = {
"28 36 165 2",
"  	c #323A3F",
". 	c #3F4C53",
"+ 	c #3F4C52",
"@ 	c #3E4C53",
"# 	c #3F4B53",
"$ 	c #3E4C52",
"% 	c #3E4B52",
"& 	c #3F4B52",
"* 	c #3E4B53",
"= 	c #3E4A52",
"- 	c #3D4A52",
"; 	c #3D4B51",
"> 	c #3D4B52",
", 	c #3E4B51",
"' 	c #3E4A51",
") 	c #3F4A50",
"! 	c #404950",
"~ 	c #3F4951",
"{ 	c #3D4A51",
"] 	c #3E4950",
"^ 	c #3F4D56",
"/ 	c #3F85A3",
"( 	c #40ACD6",
"_ 	c #41C1F1",
": 	c #41C8F8",
"< 	c #40ACD5",
"[ 	c #4086A3",
"} 	c #3F83A0",
"| 	c #40C1F2",
"1 	c #3EC0F1",
"2 	c #3BB5E6",
"3 	c #38ABDC",
"4 	c #38A7D7",
"5 	c #3BB6E6",
"6 	c #3EC1F1",
"7 	c #41C2F1",
"8 	c #4082A0",
"9 	c #3D4A50",
"0 	c #3C4A51",
"a 	c #3D4951",
"b 	c #3F4B51",
"c 	c #3FA0C6",
"d 	c #40C7F7",
"e 	c #3AAFE0",
"f 	c #37A4D4",
"g 	c #41C6F8",
"h 	c #40A0C5",
"i 	c #3C4951",
"j 	c #3C4950",
"k 	c #3E494F",
"l 	c #40C3F3",
"m 	c #37A7D8",
"n 	c #3FC4F4",
"o 	c #409FC4",
"p 	c #3C4A50",
"q 	c #3D4950",
"r 	c #3D484F",
"s 	c #38A8D8",
"t 	c #41C7F8",
"u 	c #3F829E",
"v 	c #3B4950",
"w 	c #3C494F",
"x 	c #39AFDF",
"y 	c #39B0E0",
"z 	c #40C2F1",
"A 	c #3D4C54",
"B 	c #3C4850",
"C 	c #3C484F",
"D 	c #3E85A3",
"E 	c #3FC1F2",
"F 	c #3E84A1",
"G 	c #3B494F",
"H 	c #3B4850",
"I 	c #3B484F",
"J 	c #3D474E",
"K 	c #40ADD6",
"L 	c #3BB6E7",
"M 	c #3FACD5",
"N 	c #3C474E",
"O 	c #3D474D",
"P 	c #41C0F0",
"Q 	c #39ACDC",
"R 	c #40BFEF",
"S 	c #3A484F",
"T 	c #3C464D",
"U 	c #41C9F9",
"V 	c #38A6D7",
"W 	c #41C8F9",
"X 	c #3B474F",
"Y 	c #3A484E",
"Z 	c #3D474C",
"` 	c #3A474E",
" .	c #3A474F",
"..	c #3B474E",
"+.	c #3C464C",
"@.	c #40C0F0",
"#.	c #40C0EF",
"$.	c #3A474D",
"%.	c #3B464C",
"&.	c #3EACD5",
"*.	c #3FAAD3",
"=.	c #39464E",
"-.	c #3B464D",
";.	c #3E85A1",
">.	c #3E83A0",
",.	c #39474E",
"'.	c #39464D",
").	c #3A464D",
"!.	c #39474D",
"~.	c #3B4751",
"{.	c #40C1F0",
"].	c #3AB0E1",
"^.	c #3FC1F1",
"/.	c #3B4952",
"(.	c #3A454C",
"_.	c #3D819E",
":.	c #41C5F8",
"<.	c #3FC6F7",
"[.	c #3C809C",
"}.	c #39454D",
"|.	c #3EA0C5",
"1.	c #3E9EC3",
"2.	c #38464D",
"3.	c #39454C",
"4.	c #38464C",
"5.	c #3A464C",
"6.	c #3E9FC3",
"7.	c #3AB0E0",
"8.	c #3D9DC3",
"9.	c #39464C",
"0.	c #38454C",
"a.	c #38454D",
"b.	c #39454B",
"c.	c #3C819D",
"d.	c #40C1F1",
"e.	c #3CB6E7",
"f.	c #39ABDC",
"g.	c #3EC1F0",
"h.	c #3C7F9B",
"i.	c #3A454B",
"j.	c #39444B",
"k.	c #3A4851",
"l.	c #3C84A0",
"m.	c #3FABD5",
"n.	c #3FAAD4",
"o.	c #3D82A0",
"p.	c #3A4650",
"q.	c #37454C",
"r.	c #37444B",
"s.	c #37454B",
"t.	c #38444A",
"u.	c #39434A",
"v.	c #394349",
"w.	c #39444A",
"x.	c #38454B",
"y.	c #38444C",
"z.	c #37444C",
"A.	c #38444B",
"B.	c #37444A",
"C.	c #37434B",
"D.	c #37434A",
"E.	c #36444B",
"F.	c #36444A",
"G.	c #36434B",
"H.	c #36434A",
"                                                        ",
". . . . . . . . . . . . . . . . . . . . . . . . . . . . ",
". . . + . . . + . . . . . @ . # $ # . . + . . + . + . + ",
"# @ . . # @ . . % + & . @ & & & % $ . + # & & @ # & . . ",
"% + @ % % + @ % $ & % + & @ $ # % # . & % & @ & $ % $ + ",
"% % % % % % % % % % % % % % * % % % % % % % % % % % % % ",
"% % = = % % = = % = % - % % ; ; % = > % > = , % % % % , ",
", = ; > , = ; > ; - ' ) ! ! ! ! ~ ' - { ; - { { - % ; { ",
"- ' { { - ' { { ] ^ / ( _ : : _ < [ ^ ] - { ' { - { ; { ",
"{ { { { { { { ] } | 1 2 3 4 4 3 5 6 7 8 ] { { { { { { 9 ",
"0 a 9 9 0 a b c d e f f f f f f f f e g h , a { i { i i ",
"j { j j j k c l 4 f f f f f f f f f f m n o k p i q q i ",
"j i j j r } d m f f f f f f f f f f f f s t u r j q j j ",
"v w w w - 7 x f f f f f f f f f f f f f f y z A B B j B ",
"w C B C D 1 f f f f f f f f f f f f f f f f E F C G C H ",
"C w I J K 2 f f f f f f f f f f f f f f f f L M N I I I ",
"I I I O P 3 f f f f f f f f f f f f f f f f Q R O I I I ",
"I S S T U V f f f f f f f f f f f f f f f f 4 W T I I I ",
"X X Y Z W 4 f f f f f f f f f f f f f f f f m : Z `  .Y ",
"Y ..` +.@.3 f f f f f f f f f f f f f f f f Q #.+.` Y ..",
"` ` $.%.&.5 f f f f f f f f f f f f f f f f 5 *.%.` ` ` ",
"$.` =.-.;.6 f f f f f f f f f f f f f f f f E >.%.` ,.'.",
").!.$.!.~.{.e f f f f f f f f f f f f f f ].^./.=.=.=.=.",
"'.'.'.'.(._.:.s f f f f f f f f f f f f s <.[.(.'.'.'.'.",
"'.}.}.'.'.(.|.n s f f f f f f f f f f s n 1.(.}.'.2.3.'.",
"2.2.}.4.2.4.5.6.g y f f f f f f f f 7.<.8.5.9.2.0.0.2.a.",
"a.9.a.0.a.9.0.b.c.d.E e.f.m m Q 5 E g.h.i.4.0.0.4.3.a.0.",
"0.0.0.0.0.0.0.0.j.k.l.m.{.: : {.n.o.p.j.0.0.0.0.0.0.0.0.",
"q.0.r.s.q.0.r.s.q.0.t.u.v.v.v.v.w.t.0.0.x.0.y.x.0.0.0.q.",
"z.s.q.0.z.s.q.0.q.0.x.A.0.y.s.0.q.A.s.0.z.r.0.s.r.A.r.z.",
"s.r.z.r.s.r.z.r.z.r.A.r.r.r.r.r.z.r.r.z.A.s.s.r.A.r.r.r.",
"r.r.r.r.r.r.r.r.r.r.r.r.B.r.r.C.r.B.r.r.C.D.r.B.r.r.r.C.",
"D.D.E.B.D.D.E.B.B.F.B.G.F.r.D.C.C.r.r.F.C.H.B.E.H.E.r.D.",
"E.H.D.F.E.H.D.F.C.C.D.G.H.E.G.D.B.G.G.H.H.E.F.H.D.r.H.H.",
"H.H.H.H.H.H.H.H.F.H.F.H.H.H.H.H.H.E.H.H.H.H.H.H.F.H.G.H.",
"H.H.H.H.H.H.H.H.H.H.H.H.H.H.H.H.H.H.H.H.H.H.H.H.H.H.H.H."};
