/* XPM */
static char * close_active_xpm[] = {
"28 36 98 2",
"  	c #323A3F",
". 	c #414B51",
"+ 	c #414B50",
"@ 	c #414A50",
"# 	c #404A50",
"$ 	c #404950",
"% 	c #3F494F",
"& 	c #3F505C",
"* 	c #3FA4C6",
"= 	c #41C7F0",
"- 	c #41D2FC",
"; 	c #41D4FD",
"> 	c #40C7F0",
", 	c #40A5C6",
"' 	c #3FA2C3",
") 	c #40D1FC",
"! 	c #3ECBF6",
"~ 	c #3BB9E6",
"{ 	c #38ADDC",
"] 	c #38A8D7",
"^ 	c #3BBAE6",
"/ 	c #3ECCF6",
"( 	c #40A1C2",
"_ 	c #3F4D53",
": 	c #3FBEE6",
"< 	c #40D2FB",
"[ 	c #3AB2E0",
"} 	c #37A4D4",
"| 	c #41D1FC",
"1 	c #40BFE5",
"2 	c #3E494E",
"3 	c #40CEF7",
"4 	c #37A8D8",
"5 	c #3FCEF8",
"6 	c #41BEE4",
"7 	c #3E484E",
"8 	c #38A9D8",
"9 	c #41D3FC",
"0 	c #40A1C1",
"a 	c #3D484D",
"b 	c #3D5057",
"c 	c #39B1DF",
"d 	c #39B3E0",
"e 	c #40D2FC",
"f 	c #3D505A",
"g 	c #3D474D",
"h 	c #3FCBF7",
"i 	c #3FA4C4",
"j 	c #3D474E",
"k 	c #41C8F0",
"l 	c #3BBAE7",
"m 	c #41D1FB",
"n 	c #39AEDC",
"o 	c #40D1FA",
"p 	c #3C464D",
"q 	c #41D5FD",
"r 	c #38A7D7",
"s 	c #41D4FE",
"t 	c #3D474C",
"u 	c #3C464C",
"v 	c #40D2FA",
"w 	c #3B464B",
"x 	c #3FC7F0",
"y 	c #3BBBE6",
"z 	c #40C6EF",
"A 	c #3C454B",
"B 	c #3FA5C5",
"C 	c #3B454B",
"D 	c #3B4D56",
"E 	c #3AB3E1",
"F 	c #3B4D59",
"G 	c #3EA0C1",
"H 	c #3FD2FB",
"I 	c #3D9FBF",
"J 	c #3FBFE5",
"K 	c #40BDE4",
"L 	c #3A444A",
"M 	c #3A484E",
"N 	c #40BEE4",
"O 	c #3AB3E0",
"P 	c #3EBDE4",
"Q 	c #3A454A",
"R 	c #3EA1C0",
"S 	c #3CBAE7",
"T 	c #39ADDC",
"U 	c #3FD3FC",
"V 	c #3D9EBE",
"W 	c #3A4C58",
"X 	c #3EA4C4",
"Y 	c #40C8F0",
"Z 	c #41D2FB",
"` 	c #40C7EF",
" .	c #3A4C55",
"..	c #394349",
"+.	c #394449",
"@.	c #384348",
"#.	c #394348",
"$.	c #384248",
"                                                        ",
". . . . . . . . . . . . . . . . . . . . . . . . . . . . ",
". . . . . . . . . . . . . . . . . . . . . . . . . . . . ",
"+ + + + + + + + + + + + + + + + + + + + + + + + + + + + ",
"@ @ @ @ @ @ @ @ @ @ @ @ @ @ @ @ @ @ @ @ @ @ @ @ @ @ @ @ ",
"# # # # # # # # # # # # # # # # # # # # # # # # # # # # ",
"# # # # # # # # # # # # # # # # # # # # # # # # # # # # ",
"$ $ $ $ $ $ $ $ $ $ $ $ $ $ $ $ $ $ $ $ $ $ $ $ $ $ $ $ ",
"% % % % % % % % % & * = - ; ; - > , & % % % % % % % % % ",
"% % % % % % % % ' ) ! ~ { ] ] { ^ / - ( % % % % % % % % ",
"% % % % % % _ : < [ } } } } } } } } [ | 1 _ % % % % % % ",
"2 2 2 2 2 2 : 3 ] } } } } } } } } } } 4 5 6 2 2 2 2 2 2 ",
"7 7 7 7 7 ' < 4 } } } } } } } } } } } } 8 9 0 7 7 7 7 7 ",
"a a a a b - c } } } } } } } } } } } } } } d e f a a a a ",
"g g g g * ! } } } } } } } } } } } } } } } } h i g g g g ",
"j j j j k ^ } } } } } } } } } } } } } } } } l > j j j j ",
"g g g g m { } } } } } } } } } } } } } } } } n o g g g g ",
"p p p p q r } } } } } } } } } } } } } } } } ] s p p p p ",
"t t t t s ] } } } } } } } } } } } } } } } } 4 ; t t t t ",
"u u u u m { } } } } } } } } } } } } } } } } n v u u u u ",
"w w w w x ^ } } } } } } } } } } } } } } } } y z w w w w ",
"A A A A B / } } } } } } } } } } } } } } } } h ' A A A A ",
"C C C C D 9 [ } } } } } } } } } } } } } } E e F C C C C ",
"C C C C C G | 8 } } } } } } } } } } } } 8 H I C C C C C ",
"C C C C C C J 5 8 } } } } } } } } } } 8 5 K C C C C C C ",
"L L L L L L M N - d } } } } } } } } O H P M L L L L L L ",
"Q Q Q Q Q Q Q Q R - h S T 4 4 n ^ h U V Q Q Q Q Q Q Q Q ",
"L L L L L L L L L W X Y Z ; ; Z ` '  .L L L L L L L L L ",
"........................................................",
"+.+.+.+.+.+.+.+.+.+.+.+.+.+.+.+.+.+.+.+.+.+.+.+.+.+.+.+.",
"........................................................",
"........................................................",
"@.@.@.@.@.@.@.@.@.@.@.@.@.@.@.@.@.@.@.@.@.@.@.@.@.@.@.@.",
"#.#.#.#.#.#.#.#.#.#.#.#.#.#.#.#.#.#.#.#.#.#.#.#.#.#.#.#.",
"$.$.$.$.$.$.$.$.$.$.$.$.$.$.$.$.$.$.$.$.$.$.$.$.$.$.$.$.",
"$.$.$.$.$.$.$.$.$.$.$.$.$.$.$.$.$.$.$.$.$.$.$.$.$.$.$.$."};
