/* XPM */
static char * close_pressed_xpm[] = {
"24 24 97 2",
"  	c None",
". 	c #313133",
"+ 	c #4B5252",
"@ 	c #4B5151",
"# 	c #4A5152",
"$ 	c #4A5151",
"% 	c #4B5152",
"& 	c #4A5051",
"* 	c #495150",
"= 	c #4A5050",
"- 	c #495050",
"; 	c #4C696C",
"> 	c #60BBCC",
", 	c #66DAEE",
"' 	c #67DDF2",
") 	c #67DAEE",
"! 	c #5FBBCB",
"~ 	c #4D676A",
"{ 	c #494F50",
"] 	c #49504F",
"^ 	c #589BA8",
"/ 	c #68DFF4",
"( 	c #5EDEFE",
"_ 	c #57DBFF",
": 	c #5DDEFE",
"< 	c #69DFF3",
"[ 	c #579BA7",
"} 	c #484F4F",
"| 	c #494F4F",
"1 	c #66E0F7",
"2 	c #57DCFF",
"3 	c #58DCFF",
"4 	c #484F4E",
"5 	c #484E4E",
"6 	c #474F4E",
"7 	c #4B676A",
"8 	c #69DFFF",
"9 	c #8EE7FF",
"0 	c #69DEF3",
"a 	c #4C666A",
"b 	c #484E4F",
"c 	c #474D4E",
"d 	c #474E4E",
"e 	c #5FBDCB",
"f 	c #8FE7FF",
"g 	c #FFFFFF",
"h 	c #A7ECFF",
"i 	c #5FB9CA",
"j 	c #484D4E",
"k 	c #474D4D",
"l 	c #474E4D",
"m 	c #A3EBFF",
"n 	c #A9EDFF",
"o 	c #A4ECFF",
"p 	c #67DBED",
"q 	c #464D4D",
"r 	c #67DCF2",
"s 	c #67DDF1",
"t 	c #464D4C",
"u 	c #474D4C",
"v 	c #464C4C",
"w 	c #464C4B",
"x 	c #454C4C",
"y 	c #67D8ED",
"z 	c #68D9ED",
"A 	c #454C4B",
"B 	c #454B4B",
"C 	c #5EBACA",
"D 	c #5DB9C8",
"E 	c #444B4B",
"F 	c #444A4A",
"G 	c #444B4A",
"H 	c #444A4B",
"I 	c #486466",
"J 	c #68DEF3",
"K 	c #476265",
"L 	c #444A49",
"M 	c #5499A5",
"N 	c #5497A4",
"O 	c #434A49",
"P 	c #5399A5",
"Q 	c #5EDFFE",
"R 	c #68DFF3",
"S 	c #5397A4",
"T 	c #434949",
"U 	c #434948",
"V 	c #466467",
"W 	c #5DBACA",
"X 	c #5EBAC9",
"Y 	c #476366",
"Z 	c #424949",
"` 	c #424848",
" .	c #424747",
"..	c #414847",
"+.	c #414748",
"@.	c #424748",
"#.	c #414747",
". . . . . . . . . . . . . . . . . . . . . . . . ",
"+ + + + + + + + + + + + + + + + + + + + + + + + ",
"+ + + + + + + + + + + + + + + + + + + + + + + + ",
"+ + + + + + + + + + + + + + + + + + + + + + + + ",
"@ + @ @ + @ @ + @ + @ + @ + @ + @ + @ + @ + + + ",
"# $ % # $ # $ % # $ # $ % # # $ % # $ $ % # @ $ ",
"& & * & & & & * & & & & * & & & * & & & * & * $ ",
"= * - = * * - * ; > , ' ' ) ! ~ * - & * - * - & ",
"{ ] ] { ] ] ] ^ / ( _ _ _ _ : < [ { { ] ] - { { ",
"} } | } } } ^ 1 2 _ _ _ _ _ _ 3 1 [ } } | | | } ",
"4 5 6 4 5 7 / 2 8 9 _ _ _ _ 9 8 3 0 a 5 6 } b b ",
"c d d c d e ( _ f g h _ _ h g f _ : i d d d j 5 ",
"k k l k k ) _ _ _ m g n o g n _ _ _ p k l l k k ",
"q q k q q r _ _ _ _ m g g n _ _ _ _ s q k q t u ",
"v v t v v s _ _ _ _ o g g n _ _ _ _ s v t v t v ",
"w x x w x y _ _ _ o g n m g n _ _ _ z x x v A B ",
"B B B B B C : _ f g h _ _ h g f _ ( D B B B B E ",
"F G H F G I J 3 8 9 _ _ _ _ 9 8 3 0 K G H E B F ",
"F F L F F F M 1 3 _ _ _ _ _ _ 3 1 N F F L F F F ",
"O O L O O O L P J : _ _ _ _ Q R S T F O L T T F ",
"T U T T U U T T V W y s s y X Y T Z T U T T Z T ",
"Z ` ` Z ` ` ` ` ` ` ` ` ` ` ` ` ` ` ` ` ` ` ` ` ",
" ...+. .....+.@.` ` +.@.` ` ..+.@.` ` ..+.@.` ` ",
"#.#.#.#.#.#.#.#.#.#.#.#.#.#.#.#.#.#.#.#.#.+. .#."};
