/* XPM */
static char * close_active_xpm[] = {
"28 36 107 2",
"  	c None",
". 	c #323A3F",
"+ 	c #414B51",
"@ 	c #414B50",
"# 	c #414A50",
"$ 	c #404A50",
"% 	c #404950",
"& 	c #3F494F",
"* 	c #3F4D56",
"= 	c #3F85A3",
"- 	c #40ACD6",
"; 	c #41C1F1",
"> 	c #41C8F8",
", 	c #40ACD5",
"' 	c #4086A3",
") 	c #3F83A0",
"! 	c #40C1F2",
"~ 	c #3EC0F1",
"{ 	c #3BB5E6",
"] 	c #38ABDC",
"^ 	c #38A7D7",
"/ 	c #3BB6E6",
"( 	c #3EC1F1",
"_ 	c #41C2F1",
": 	c #4082A0",
"< 	c #3F4B51",
"[ 	c #3FA0C6",
"} 	c #40C7F7",
"| 	c #3AAFE0",
"1 	c #37A4D4",
"2 	c #41C6F8",
"3 	c #40A0C5",
"4 	c #3E494E",
"5 	c #40C3F3",
"6 	c #37A7D8",
"7 	c #3FC4F4",
"8 	c #409FC4",
"9 	c #3E484E",
"0 	c #38A8D8",
"a 	c #41C7F8",
"b 	c #3F829E",
"c 	c #3D484D",
"d 	c #3D4A52",
"e 	c #39AFDF",
"f 	c #39B0E0",
"g 	c #40C2F1",
"h 	c #3D4C54",
"i 	c #3D474D",
"j 	c #3E85A3",
"k 	c #3FC1F2",
"l 	c #3E84A1",
"m 	c #3D474E",
"n 	c #40ADD6",
"o 	c #3BB6E7",
"p 	c #3FACD5",
"q 	c #41C0F0",
"r 	c #39ACDC",
"s 	c #40BFEF",
"t 	c #3C464D",
"u 	c #41C9F9",
"v 	c #38A6D7",
"w 	c #41C8F9",
"x 	c #3D474C",
"y 	c #3C464C",
"z 	c #40C0F0",
"A 	c #40C0EF",
"B 	c #3B464B",
"C 	c #3EACD5",
"D 	c #3FAAD3",
"E 	c #3C454B",
"F 	c #3E85A1",
"G 	c #3E83A0",
"H 	c #3B454B",
"I 	c #3B4751",
"J 	c #40C1F0",
"K 	c #3AB0E1",
"L 	c #3FC1F1",
"M 	c #3B4952",
"N 	c #3D819E",
"O 	c #41C5F8",
"P 	c #3FC6F7",
"Q 	c #3C809C",
"R 	c #3EA0C5",
"S 	c #3E9EC3",
"T 	c #3A444A",
"U 	c #3A464C",
"V 	c #3E9FC3",
"W 	c #3AB0E0",
"X 	c #3D9DC3",
"Y 	c #3A454A",
"Z 	c #3C819D",
"` 	c #40C1F1",
" .	c #3CB6E7",
"..	c #39ABDC",
"+.	c #3EC1F0",
"@.	c #3C7F9B",
"#.	c #3A4851",
"$.	c #3C84A0",
"%.	c #3FABD5",
"&.	c #3FAAD4",
"*.	c #3D82A0",
"=.	c #3A4650",
"-.	c #394349",
";.	c #394449",
">.	c #384348",
",.	c #394348",
"'.	c #384248",
". . . . . . . . . . . . . . . . . . . . . . . . . . . . ",
"+ + + + + + + + + + + + + + + + + + + + + + + + + + + + ",
"+ + + + + + + + + + + + + + + + + + + + + + + + + + + + ",
"@ @ @ @ @ @ @ @ @ @ @ @ @ @ @ @ @ @ @ @ @ @ @ @ @ @ @ @ ",
"# # # # # # # # # # # # # # # # # # # # # # # # # # # # ",
"$ $ $ $ $ $ $ $ $ $ $ $ $ $ $ $ $ $ $ $ $ $ $ $ $ $ $ $ ",
"$ $ $ $ $ $ $ $ $ $ $ $ $ $ $ $ $ $ $ $ $ $ $ $ $ $ $ $ ",
"% % % % % % % % % % % % % % % % % % % % % % % % % % % % ",
"& & & & & & & & & * = - ; > > ; , ' * & & & & & & & & & ",
"& & & & & & & & ) ! ~ { ] ^ ^ ] / ( _ : & & & & & & & & ",
"& & & & & & < [ } | 1 1 1 1 1 1 1 1 | 2 3 < & & & & & & ",
"4 4 4 4 4 4 [ 5 ^ 1 1 1 1 1 1 1 1 1 1 6 7 8 4 4 4 4 4 4 ",
"9 9 9 9 9 ) } 6 1 1 1 1 1 1 1 1 1 1 1 1 0 a b 9 9 9 9 9 ",
"c c c c d _ e 1 1 1 1 1 1 1 1 1 1 1 1 1 1 f g h c c c c ",
"i i i i j ~ 1 1 1 1 1 1 1 1 1 1 1 1 1 1 1 1 k l i i i i ",
"m m m m n { 1 1 1 1 1 1 1 1 1 1 1 1 1 1 1 1 o p m m m m ",
"i i i i q ] 1 1 1 1 1 1 1 1 1 1 1 1 1 1 1 1 r s i i i i ",
"t t t t u v 1 1 1 1 1 1 1 1 1 1 1 1 1 1 1 1 ^ w t t t t ",
"x x x x w ^ 1 1 1 1 1 1 1 1 1 1 1 1 1 1 1 1 6 > x x x x ",
"y y y y z ] 1 1 1 1 1 1 1 1 1 1 1 1 1 1 1 1 r A y y y y ",
"B B B B C / 1 1 1 1 1 1 1 1 1 1 1 1 1 1 1 1 / D B B B B ",
"E E E E F ( 1 1 1 1 1 1 1 1 1 1 1 1 1 1 1 1 k G E E E E ",
"H H H H I J | 1 1 1 1 1 1 1 1 1 1 1 1 1 1 K L M H H H H ",
"H H H H H N O 0 1 1 1 1 1 1 1 1 1 1 1 1 0 P Q H H H H H ",
"H H H H H H R 7 0 1 1 1 1 1 1 1 1 1 1 0 7 S H H H H H H ",
"T T T T T T U V 2 f 1 1 1 1 1 1 1 1 W P X U T T T T T T ",
"Y Y Y Y Y Y Y Y Z ` k  ...6 6 r / k +.@.Y Y Y Y Y Y Y Y ",
"T T T T T T T T T #.$.%.J > > J &.*.=.T T T T T T T T T ",
"-.-.-.-.-.-.-.-.-.-.-.-.-.-.-.-.-.-.-.-.-.-.-.-.-.-.-.-.",
";.;.;.;.;.;.;.;.;.;.;.;.;.;.;.;.;.;.;.;.;.;.;.;.;.;.;.;.",
"-.-.-.-.-.-.-.-.-.-.-.-.-.-.-.-.-.-.-.-.-.-.-.-.-.-.-.-.",
"-.-.-.-.-.-.-.-.-.-.-.-.-.-.-.-.-.-.-.-.-.-.-.-.-.-.-.-.",
">.>.>.>.>.>.>.>.>.>.>.>.>.>.>.>.>.>.>.>.>.>.>.>.>.>.>.>.",
",.,.,.,.,.,.,.,.,.,.,.,.,.,.,.,.,.,.,.,.,.,.,.,.,.,.,.,.",
"'.'.'.'.'.'.'.'.'.'.'.'.'.'.'.'.'.'.'.'.'.'.'.'.'.'.'.'.",
"'.'.'.'.'.'.'.'.'.'.'.'.'.'.'.'.'.'.'.'.'.'.'.'.'.'.'.'."};
