/* XPM */
static char * close_active_xpm[] = {
"28 36 130 2",
"  	c None",
". 	c #313133",
"+ 	c #4B5252",
"@ 	c #4B5251",
"# 	c #4A5251",
"$ 	c #4A5152",
"% 	c #4B5151",
"& 	c #4A5252",
"* 	c #4B5152",
"= 	c #4A5151",
"- 	c #495151",
"; 	c #4A5150",
"> 	c #495150",
", 	c #495050",
"' 	c #4A5051",
") 	c #4A5050",
"! 	c #495051",
"~ 	c #494F50",
"{ 	c #49504F",
"] 	c #495357",
"^ 	c #4687A4",
"/ 	c #44ADD6",
"( 	c #42C2F1",
"_ 	c #41C8F8",
": 	c #42C1F1",
"< 	c #43ADD5",
"[ 	c #4789A3",
"} 	c #495257",
"| 	c #484F4F",
"1 	c #494F4E",
"2 	c #4686A0",
"3 	c #41C1F2",
"4 	c #3FC0F1",
"5 	c #3BB5E6",
"6 	c #38ABDC",
"7 	c #38A7D7",
"8 	c #3BB6E6",
"9 	c #3FC1F1",
"0 	c #4685A0",
"a 	c #474F4F",
"b 	c #484E4E",
"c 	c #475151",
"d 	c #43A1C6",
"e 	c #40C7F7",
"f 	c #3AAFE0",
"g 	c #37A4D4",
"h 	c #41C6F8",
"i 	c #44A1C5",
"j 	c #485151",
"k 	c #474E4E",
"l 	c #40C3F3",
"m 	c #37A7D8",
"n 	c #3FC4F4",
"o 	c #44A0C4",
"p 	c #474D4E",
"q 	c #4585A0",
"r 	c #38A8D8",
"s 	c #41C7F8",
"t 	c #46849E",
"u 	c #474D4C",
"v 	c #464C4D",
"w 	c #464F52",
"x 	c #39AFDF",
"y 	c #39B0E0",
"z 	c #41C2F1",
"A 	c #475053",
"B 	c #464D4D",
"C 	c #454C4C",
"D 	c #464C4C",
"E 	c #4386A2",
"F 	c #3EC0F1",
"G 	c #3FC1F2",
"H 	c #4486A1",
"I 	c #454C4B",
"J 	c #42AED6",
"K 	c #3BB6E7",
"L 	c #42ACD5",
"M 	c #454B4B",
"N 	c #41C0EF",
"O 	c #39ACDC",
"P 	c #41BFEF",
"Q 	c #444B4B",
"R 	c #444A4B",
"S 	c #41C9F9",
"T 	c #38A6D7",
"U 	c #41C8F9",
"V 	c #454B4A",
"W 	c #444A4A",
"X 	c #434A4A",
"Y 	c #434A49",
"Z 	c #40C0EF",
"` 	c #44494A",
" .	c #434949",
"..	c #41ACD5",
"+.	c #42ABD3",
"@.	c #424948",
"#.	c #424848",
"$.	c #424849",
"%.	c #4286A1",
"&.	c #3EC1F1",
"*.	c #42849F",
"=.	c #424847",
"-.	c #424A4E",
";.	c #41C1F0",
">.	c #3AB0E1",
",.	c #40C2F1",
"'.	c #424C4F",
").	c #414747",
"!.	c #424747",
"~.	c #41829D",
"{.	c #41C6F7",
"].	c #3FC6F7",
"^.	c #41809B",
"/.	c #40A0C4",
"(.	c #419EC2",
"_.	c #414949",
":.	c #419FC3",
"<.	c #3AB0E0",
"[.	c #409EC2",
"}.	c #41829C",
"|.	c #3CB6E7",
"1.	c #39ABDC",
"2.	c #3FC1F0",
"3.	c #41809A",
"4.	c #414B4F",
"5.	c #4184A0",
"6.	c #41ACD4",
"7.	c #41AAD4",
"8.	c #41839F",
"9.	c #41494D",
". . . . . . . . . . . . . . . . . . . . . . . . . . . . ",
"+ + + + + + + + + + + + + + + + + + + + + + + + + + + + ",
"+ + + + + + + + + + + + + + + + + + + + + + + + + + + + ",
"+ + + + + + + + + + + + + + + + + + + + + + + + + + + + ",
"@ @ @ + # $ + @ % + % + @ & @ + # $ + @ @ @ @ @ * + @ @ ",
"% % % = * % @ $ $ = * # % = % = * % @ $ % = % = $ % % % ",
"- - - - ; > = , ' ' > ; ) ! - - ; > = , ; = = ; = = - - ",
"! ! ! , , ) , ! ) > , , , ) ! , , ) , ! ! , , , ) , ! ! ",
"~ ~ ~ { , ~ ~ ~ ~ ] ^ / ( _ _ : < [ } ~ { , ~ ~ { , ~ ~ ",
"| | | 1 | | | | 2 3 4 5 6 7 7 6 8 9 ( 0 1 | | | 1 | | | ",
"a a a b | a c d e f g g g g g g g g f h i j a a b | a a ",
"k k k k b k d l 7 g g g g g g g g g g m n o k k k b k k ",
"p p p p p q e m g g g g g g g g g g g g r s t p p p p p ",
"u u u v w ( x g g g g g g g g g g g g g g y z A v B u u ",
"C C C D E F g g g g g g g g g g g g g g g g G H D C C C ",
"I I I C J 5 g g g g g g g g g g g g g g g g K L C C I I ",
"M M M M N 6 g g g g g g g g g g g g g g g g O P M Q M M ",
"R R R Q S T g g g g g g g g g g g g g g g g 7 U Q V R R ",
"W W W X U 7 g g g g g g g g g g g g g g g g m _ X W W W ",
"X X X Y N 6 g g g g g g g g g g g g g g g g O Z Y ` X X ",
" . . . ...8 g g g g g g g g g g g g g g g g 8 +. .@. . .",
"#.#.#.$.%.&.g g g g g g g g g g g g g g g g G *.$.#.#.#.",
"=.=.=.#.-.;.f g g g g g g g g g g g g g g >.,.'.#.#.=.=.",
").).).!.!.~.{.r g g g g g g g g g g g g r ].^.).!.!.).).",
").).).).).)./.n r g g g g g g g g g g r n (.).).).).).).",
").).).).).)._.:.{.y g g g g g g g g <.].[._.).).).).).).",
").).).).).).).).}.z G |.1.m m O 8 G 2.3.).).).).).).).).",
").).).).).).).).).4.5.6.;._ _ ;.7.8.9.).).).).).).).).).",
").).).).).).).).).).).).).).).).).).).).).).).).).).).).",
").).).).).).).).).).).).).).).).).).).).).).).).).).).).",
").).).).).).).).).).).).).).).).).).).).).).).).).).).).",
").).).).).).).).).).).).).).).).).).).).).).).).).).).).",
").).).).).).).).).).).).).).).).).).).).).).).).).).).).",
").).).).).).).).).).).).).).).).).).).).).).).).).).).).",
").).).).).).).).).).).).).).).).).).).).).).).).).).).).",
").).).).).).).).).).).).).).).).).).).).).).).).).).).)."};
