/* XPM */
static char * close_active_xpm[] = {
"24 24 89 1",
" 	c None",
".	c #313133",
"+	c #4B5252",
"@	c #4B5151",
"#	c #4A5152",
"$	c #4A5151",
"%	c #4B5152",
"&	c #4A5051",
"*	c #495150",
"=	c #4A5050",
"-	c #495050",
";	c #4C696C",
">	c #60BBCC",
",	c #66DAEE",
"'	c #67DDF2",
")	c #67DAEE",
"!	c #5FBBCB",
"~	c #4D676A",
"{	c #494F50",
"]	c #49504F",
"^	c #589BA8",
"/	c #68DFF4",
"(	c #5EDEFE",
"_	c #57DBFF",
":	c #5DDEFE",
"<	c #69DFF3",
"[	c #579BA7",
"}	c #484F4F",
"|	c #494F4F",
"1	c #66E0F7",
"2	c #57DCFF",
"3	c #58DCFF",
"4	c #484F4E",
"5	c #484E4E",
"6	c #474F4E",
"7	c #4B676A",
"8	c #69DEF3",
"9	c #4C666A",
"0	c #484E4F",
"a	c #474D4E",
"b	c #474E4E",
"c	c #5FBDCB",
"d	c #5FB9CA",
"e	c #484D4E",
"f	c #474D4D",
"g	c #474E4D",
"h	c #67DBED",
"i	c #464D4D",
"j	c #67DCF2",
"k	c #67DDF1",
"l	c #464D4C",
"m	c #474D4C",
"n	c #464C4C",
"o	c #464C4B",
"p	c #454C4C",
"q	c #67D8ED",
"r	c #68D9ED",
"s	c #454C4B",
"t	c #454B4B",
"u	c #5EBACA",
"v	c #5DB9C8",
"w	c #444B4B",
"x	c #444A4A",
"y	c #444B4A",
"z	c #444A4B",
"A	c #486466",
"B	c #68DEF3",
"C	c #476265",
"D	c #444A49",
"E	c #5499A5",
"F	c #5497A4",
"G	c #434A49",
"H	c #5399A5",
"I	c #5EDFFE",
"J	c #68DFF3",
"K	c #5397A4",
"L	c #434949",
"M	c #434948",
"N	c #466467",
"O	c #5DBACA",
"P	c #5EBAC9",
"Q	c #476366",
"R	c #424949",
"S	c #424848",
"T	c #424747",
"U	c #414847",
"V	c #414748",
"W	c #424748",
"X	c #414747",
"........................",
"++++++++++++++++++++++++",
"++++++++++++++++++++++++",
"++++++++++++++++++++++++",
"@+@@+@@+@+@+@+@+@+@+@+++",
"#$%#$#$%#$#$%##$%#$$%#@$",
"&&*&&&&*&&&&*&&&*&&&*&*$",
"=*-=**-*;>,'')!~*-&*-*-&",
"{]]{]]]^/(____:<[{{]]-{{",
"}}|}}}^12______31[}}|||}",
"456457/2________38956}00",
"abbabc(__________:dbbbe5",
"ffgff)____________hfggff",
"iifiij____________kifilm",
"nnlnnk____________knlnln",
"oppopq____________rppnst",
"tttttu:__________(vttttw",
"xyzxyAB3________38Cyzwtx",
"xxDxxxE13______31FxxDxxx",
"GGDGGGDHB:____IJKLxGDLLx",
"LMLLMMLLNOqkkqPQLRLMLLRL",
"RSSRSSSSSSSSSSSSSSSSSSSS",
"TUVTUUVWSSVWSSUVWSSUVWSS",
"XXXXXXXXXXXXXXXXXXXXXVTX"};
