/* XPM */
static char * close_pressed_xpm[] = {
"28 36 177 2",
"  	c #323A3F",
". 	c #3F4C53",
"+ 	c #3F4C52",
"@ 	c #3E4C53",
"# 	c #3F4B53",
"$ 	c #3E4C52",
"% 	c #3E4B52",
"& 	c #3F4B52",
"* 	c #3E4B53",
"= 	c #3E4A52",
"- 	c #3D4A52",
"; 	c #3D4B51",
"> 	c #3D4B52",
", 	c #3E4B51",
"' 	c #3E4A51",
") 	c #3F4A50",
"! 	c #404950",
"~ 	c #3F4951",
"{ 	c #3D4A51",
"] 	c #3E4950",
"^ 	c #3F4D56",
"/ 	c #3F85A3",
"( 	c #40ACD6",
"_ 	c #41C1F1",
": 	c #41C8F8",
"< 	c #40ACD5",
"[ 	c #4086A3",
"} 	c #3F83A0",
"| 	c #40C1F2",
"1 	c #3EC0F1",
"2 	c #3BB5E6",
"3 	c #38ABDC",
"4 	c #38A7D7",
"5 	c #3BB6E6",
"6 	c #3EC1F1",
"7 	c #41C2F1",
"8 	c #4082A0",
"9 	c #3D4A50",
"0 	c #3C4A51",
"a 	c #3D4951",
"b 	c #3F4B51",
"c 	c #3FA0C6",
"d 	c #40C7F7",
"e 	c #3AAFE0",
"f 	c #37A4D4",
"g 	c #41C6F8",
"h 	c #40A0C5",
"i 	c #3C4951",
"j 	c #3C4950",
"k 	c #3E494F",
"l 	c #40C3F3",
"m 	c #37A7D8",
"n 	c #3FC4F4",
"o 	c #409FC4",
"p 	c #3C4A50",
"q 	c #3D4950",
"r 	c #3D484F",
"s 	c #38A8D8",
"t 	c #41C7F8",
"u 	c #3F829E",
"v 	c #3B4950",
"w 	c #3C494F",
"x 	c #39AFDF",
"y 	c #BEE1F1",
"z 	c #D8EDF7",
"A 	c #47ABD7",
"B 	c #39B0E0",
"C 	c #40C2F1",
"D 	c #3D4C54",
"E 	c #3C4850",
"F 	c #3C484F",
"G 	c #3E85A3",
"H 	c #D2EAF5",
"I 	c #FFFFFF",
"J 	c #DAEEF7",
"K 	c #D6ECF6",
"L 	c #3FC1F2",
"M 	c #3E84A1",
"N 	c #3B494F",
"O 	c #3B4850",
"P 	c #3B484F",
"Q 	c #3D474E",
"R 	c #40ADD6",
"S 	c #44AAD7",
"T 	c #D7EDF6",
"U 	c #DBEFF7",
"V 	c #3BB6E7",
"W 	c #3FACD5",
"X 	c #3C474E",
"Y 	c #3D474D",
"Z 	c #41C0F0",
"` 	c #39ACDC",
" .	c #40BFEF",
"..	c #3A484F",
"+.	c #3C464D",
"@.	c #41C9F9",
"#.	c #38A6D7",
"$.	c #41C8F9",
"%.	c #3B474F",
"&.	c #3A484E",
"*.	c #3D474C",
"=.	c #3A474E",
"-.	c #3A474F",
";.	c #3B474E",
">.	c #3C464C",
",.	c #40C0F0",
"'.	c #40C0EF",
").	c #3A474D",
"!.	c #3B464C",
"~.	c #3EACD5",
"{.	c #3FAAD3",
"].	c #39464E",
"^.	c #3B464D",
"/.	c #3E85A1",
"(.	c #D2EBF5",
"_.	c #3E83A0",
":.	c #39474E",
"<.	c #39464D",
"[.	c #3A464D",
"}.	c #39474D",
"|.	c #3B4751",
"1.	c #40C1F0",
"2.	c #BDE1F1",
"3.	c #3AB0E1",
"4.	c #3FC1F1",
"5.	c #3B4952",
"6.	c #3A454C",
"7.	c #3D819E",
"8.	c #41C5F8",
"9.	c #3FC6F7",
"0.	c #3C809C",
"a.	c #39454D",
"b.	c #3EA0C5",
"c.	c #3E9EC3",
"d.	c #38464D",
"e.	c #39454C",
"f.	c #38464C",
"g.	c #3A464C",
"h.	c #3E9FC3",
"i.	c #3AB0E0",
"j.	c #3D9DC3",
"k.	c #39464C",
"l.	c #38454C",
"m.	c #38454D",
"n.	c #39454B",
"o.	c #3C819D",
"p.	c #40C1F1",
"q.	c #3CB6E7",
"r.	c #39ABDC",
"s.	c #3EC1F0",
"t.	c #3C7F9B",
"u.	c #3A454B",
"v.	c #39444B",
"w.	c #3A4851",
"x.	c #3C84A0",
"y.	c #3FABD5",
"z.	c #3FAAD4",
"A.	c #3D82A0",
"B.	c #3A4650",
"C.	c #37454C",
"D.	c #37444B",
"E.	c #37454B",
"F.	c #38444A",
"G.	c #39434A",
"H.	c #394349",
"I.	c #39444A",
"J.	c #38454B",
"K.	c #38444C",
"L.	c #37444C",
"M.	c #38444B",
"N.	c #37444A",
"O.	c #37434B",
"P.	c #37434A",
"Q.	c #36444B",
"R.	c #36444A",
"S.	c #36434B",
"T.	c #36434A",
"                                                        ",
". . . . . . . . . . . . . . . . . . . . . . . . . . . . ",
". . . + . . . + . . . . . @ . # $ # . . + . . + . + . + ",
"# @ . . # @ . . % + & . @ & & & % $ . + # & & @ # & . . ",
"% + @ % % + @ % $ & % + & @ $ # % # . & % & @ & $ % $ + ",
"% % % % % % % % % % % % % % * % % % % % % % % % % % % % ",
"% % = = % % = = % = % - % % ; ; % = > % > = , % % % % , ",
", = ; > , = ; > ; - ' ) ! ! ! ! ~ ' - { ; - { { - % ; { ",
"- ' { { - ' { { ] ^ / ( _ : : _ < [ ^ ] - { ' { - { ; { ",
"{ { { { { { { ] } | 1 2 3 4 4 3 5 6 7 8 ] { { { { { { 9 ",
"0 a 9 9 0 a b c d e f f f f f f f f e g h , a { i { i i ",
"j { j j j k c l 4 f f f f f f f f f f m n o k p i q q i ",
"j i j j r } d m f f f f f f f f f f f f s t u r j q j j ",
"v w w w - 7 x f f y z A f f f f A z y f f B C D E E j E ",
"w F E F G 1 f f f H I J A f f A J I K f f f L M F N F O ",
"F w P Q R 2 f f f S T I U A S T I J A f f f V W X P P P ",
"P P P Y Z 3 f f f f A J I J J I J A f f f f `  .Y P P P ",
"P ....+.@.#.f f f f f S T I I J A f f f f f 4 $.+.P P P ",
"%.%.&.*.$.4 f f f f f S T I I U A f f f f f m : *.=.-.&.",
"&.;.=.>.,.3 f f f f A J I J J I J A f f f f ` '.>.=.&.;.",
"=.=.).!.~.5 f f f S T I J A S T I U A f f f 5 {.!.=.=.=.",
").=.].^./.6 f f f (.I J A f f A J I K f f f L _.!.=.:.<.",
"[.}.).}.|.1.e f f 2.K A f f f f A K 2.f f 3.4.5.].].].].",
"<.<.<.<.6.7.8.s f f f f f f f f f f f f s 9.0.6.<.<.<.<.",
"<.a.a.<.<.6.b.n s f f f f f f f f f f s n c.6.a.<.d.e.<.",
"d.d.a.f.d.f.g.h.g B f f f f f f f f i.9.j.g.k.d.l.l.d.m.",
"m.k.m.l.m.k.l.n.o.p.L q.r.m m ` 5 L s.t.u.f.l.l.f.e.m.l.",
"l.l.l.l.l.l.l.l.v.w.x.y.1.: : 1.z.A.B.v.l.l.l.l.l.l.l.l.",
"C.l.D.E.C.l.D.E.C.l.F.G.H.H.H.H.I.F.l.l.J.l.K.J.l.l.l.C.",
"L.E.C.l.L.E.C.l.C.l.J.M.l.K.E.l.C.M.E.l.L.D.l.E.D.M.D.L.",
"E.D.L.D.E.D.L.D.L.D.M.D.D.D.D.D.L.D.D.L.M.E.E.D.M.D.D.D.",
"D.D.D.D.D.D.D.D.D.D.D.D.N.D.D.O.D.N.D.D.O.P.D.N.D.D.D.O.",
"P.P.Q.N.P.P.Q.N.N.R.N.S.R.D.P.O.O.D.D.R.O.T.N.Q.T.Q.D.P.",
"Q.T.P.R.Q.T.P.R.O.O.P.S.T.Q.S.P.N.S.S.T.T.Q.R.T.P.D.T.T.",
"T.T.T.T.T.T.T.T.R.T.R.T.T.T.T.T.T.Q.T.T.T.T.T.T.R.T.S.T.",
"T.T.T.T.T.T.T.T.T.T.T.T.T.T.T.T.T.T.T.T.T.T.T.T.T.T.T.T."};
