/* XPM */
static char * close_prelight_xpm[] = {
"28 36 110 2",
"  	c #323A3F",
". 	c #414B51",
"+ 	c #414B50",
"@ 	c #414A50",
"# 	c #404A50",
"$ 	c #404950",
"% 	c #3F494F",
"& 	c #3F505C",
"* 	c #3FA4C6",
"= 	c #41C7F0",
"- 	c #41D2FC",
"; 	c #41D4FD",
"> 	c #40C7F0",
", 	c #40A5C6",
"' 	c #3FA2C3",
") 	c #40D1FC",
"! 	c #3ECBF6",
"~ 	c #3BB9E6",
"{ 	c #38ADDC",
"] 	c #38A8D7",
"^ 	c #3BBAE6",
"/ 	c #3ECCF6",
"( 	c #40A1C2",
"_ 	c #3F4D53",
": 	c #3FBEE6",
"< 	c #40D2FB",
"[ 	c #3AB2E0",
"} 	c #37A4D4",
"| 	c #41D1FC",
"1 	c #40BFE5",
"2 	c #3E494E",
"3 	c #40CEF7",
"4 	c #37A8D8",
"5 	c #3FCEF8",
"6 	c #41BEE4",
"7 	c #3E484E",
"8 	c #38A9D8",
"9 	c #41D3FC",
"0 	c #40A1C1",
"a 	c #3D484D",
"b 	c #3D5057",
"c 	c #39B1DF",
"d 	c #BEE1F1",
"e 	c #D8EDF7",
"f 	c #47ABD7",
"g 	c #39B3E0",
"h 	c #40D2FC",
"i 	c #3D505A",
"j 	c #3D474D",
"k 	c #D2EAF5",
"l 	c #FFFFFF",
"m 	c #DAEEF7",
"n 	c #D6ECF6",
"o 	c #3FCBF7",
"p 	c #3FA4C4",
"q 	c #3D474E",
"r 	c #41C8F0",
"s 	c #44AAD7",
"t 	c #D7EDF6",
"u 	c #DBEFF7",
"v 	c #3BBAE7",
"w 	c #41D1FB",
"x 	c #39AEDC",
"y 	c #40D1FA",
"z 	c #3C464D",
"A 	c #41D5FD",
"B 	c #38A7D7",
"C 	c #41D4FE",
"D 	c #3D474C",
"E 	c #3C464C",
"F 	c #40D2FA",
"G 	c #3B464B",
"H 	c #3FC7F0",
"I 	c #3BBBE6",
"J 	c #40C6EF",
"K 	c #3C454B",
"L 	c #3FA5C5",
"M 	c #D2EBF5",
"N 	c #3B454B",
"O 	c #3B4D56",
"P 	c #BDE1F1",
"Q 	c #3AB3E1",
"R 	c #3B4D59",
"S 	c #3EA0C1",
"T 	c #3FD2FB",
"U 	c #3D9FBF",
"V 	c #3FBFE5",
"W 	c #40BDE4",
"X 	c #3A444A",
"Y 	c #3A484E",
"Z 	c #40BEE4",
"` 	c #3AB3E0",
" .	c #3EBDE4",
"..	c #3A454A",
"+.	c #3EA1C0",
"@.	c #3CBAE7",
"#.	c #39ADDC",
"$.	c #3FD3FC",
"%.	c #3D9EBE",
"&.	c #3A4C58",
"*.	c #3EA4C4",
"=.	c #40C8F0",
"-.	c #41D2FB",
";.	c #40C7EF",
">.	c #3A4C55",
",.	c #394349",
"'.	c #394449",
").	c #384348",
"!.	c #394348",
"~.	c #384248",
"                                                        ",
". . . . . . . . . . . . . . . . . . . . . . . . . . . . ",
". . . . . . . . . . . . . . . . . . . . . . . . . . . . ",
"+ + + + + + + + + + + + + + + + + + + + + + + + + + + + ",
"@ @ @ @ @ @ @ @ @ @ @ @ @ @ @ @ @ @ @ @ @ @ @ @ @ @ @ @ ",
"# # # # # # # # # # # # # # # # # # # # # # # # # # # # ",
"# # # # # # # # # # # # # # # # # # # # # # # # # # # # ",
"$ $ $ $ $ $ $ $ $ $ $ $ $ $ $ $ $ $ $ $ $ $ $ $ $ $ $ $ ",
"% % % % % % % % % & * = - ; ; - > , & % % % % % % % % % ",
"% % % % % % % % ' ) ! ~ { ] ] { ^ / - ( % % % % % % % % ",
"% % % % % % _ : < [ } } } } } } } } [ | 1 _ % % % % % % ",
"2 2 2 2 2 2 : 3 ] } } } } } } } } } } 4 5 6 2 2 2 2 2 2 ",
"7 7 7 7 7 ' < 4 } } } } } } } } } } } } 8 9 0 7 7 7 7 7 ",
"a a a a b - c } } d e f } } } } f e d } } g h i a a a a ",
"j j j j * ! } } } k l m f } } f m l n } } } o p j j j j ",
"q q q q r ^ } } } s t l u f s t l m f } } } v > q q q q ",
"j j j j w { } } } } f m l m m l m f } } } } x y j j j j ",
"z z z z A B } } } } } s t l l m f } } } } } ] C z z z z ",
"D D D D C ] } } } } } s t l l u f } } } } } 4 ; D D D D ",
"E E E E w { } } } } f m l m m l m f } } } } x F E E E E ",
"G G G G H ^ } } } s t l m f s t l u f } } } I J G G G G ",
"K K K K L / } } } M l m f } } f m l n } } } o ' K K K K ",
"N N N N O 9 [ } } P n f } } } } f n P } } Q h R N N N N ",
"N N N N N S | 8 } } } } } } } } } } } } 8 T U N N N N N ",
"N N N N N N V 5 8 } } } } } } } } } } 8 5 W N N N N N N ",
"X X X X X X Y Z - g } } } } } } } } ` T  .Y X X X X X X ",
"................+.- o @.#.4 4 x ^ o $.%.................",
"X X X X X X X X X &.*.=.-.; ; -.;.' >.X X X X X X X X X ",
",.,.,.,.,.,.,.,.,.,.,.,.,.,.,.,.,.,.,.,.,.,.,.,.,.,.,.,.",
"'.'.'.'.'.'.'.'.'.'.'.'.'.'.'.'.'.'.'.'.'.'.'.'.'.'.'.'.",
",.,.,.,.,.,.,.,.,.,.,.,.,.,.,.,.,.,.,.,.,.,.,.,.,.,.,.,.",
",.,.,.,.,.,.,.,.,.,.,.,.,.,.,.,.,.,.,.,.,.,.,.,.,.,.,.,.",
").).).).).).).).).).).).).).).).).).).).).).).).).).).).",
"!.!.!.!.!.!.!.!.!.!.!.!.!.!.!.!.!.!.!.!.!.!.!.!.!.!.!.!.",
"~.~.~.~.~.~.~.~.~.~.~.~.~.~.~.~.~.~.~.~.~.~.~.~.~.~.~.~.",
"~.~.~.~.~.~.~.~.~.~.~.~.~.~.~.~.~.~.~.~.~.~.~.~.~.~.~.~."};
