/* XPM */
static char * hide_prelight_xpm[] = {
"24 24 99 2",
"  	c None",
". 	c #313133",
"+ 	c #4B5252",
"@ 	c #4B5151",
"# 	c #4A5152",
"$ 	c #4A5151",
"% 	c #4B5152",
"& 	c #4A5051",
"* 	c #495150",
"= 	c #4A5050",
"- 	c #495050",
"; 	c #49606C",
"> 	c #45A2C8",
", 	c #41BAE8",
"' 	c #41BBEA",
") 	c #41BAE7",
"! 	c #44A2C7",
"~ 	c #495F6A",
"{ 	c #494F50",
"] 	c #49504F",
"^ 	c #458AA5",
"/ 	c #40BDEB",
"( 	c #39ADDE",
"_ 	c #38A5D4",
": 	c #37A4D4",
"< 	c #39AEDF",
"[ 	c #40BEEC",
"} 	c #4688A5",
"| 	c #484F4F",
"1 	c #494F4F",
"2 	c #3FBAEA",
"3 	c #37A5D5",
"4 	c #38A5D5",
"5 	c #484F4E",
"6 	c #484E4E",
"7 	c #474F4E",
"8 	c #485F6A",
"9 	c #485D6A",
"0 	c #484E4F",
"a 	c #474D4E",
"b 	c #474E4E",
"c 	c #43A2C7",
"d 	c #39ADDF",
"e 	c #44A0C6",
"f 	c #484D4E",
"g 	c #474D4D",
"h 	c #474E4D",
"i 	c #40BAE8",
"j 	c #40BBE8",
"k 	c #464D4D",
"l 	c #41BBE9",
"m 	c #7DC4E3",
"n 	c #C3E4F2",
"o 	c #464D4C",
"p 	c #474D4C",
"q 	c #464C4C",
"r 	c #41BCEA",
"s 	c #9BD2EA",
"t 	c #FFFFFF",
"u 	c #464C4B",
"v 	c #454C4C",
"w 	c #5FB6DD",
"x 	c #87C8E5",
"y 	c #40BAE7",
"z 	c #454C4B",
"A 	c #454B4B",
"B 	c #42A1C6",
"C 	c #43A1C5",
"D 	c #444B4B",
"E 	c #444A4A",
"F 	c #444B4A",
"G 	c #444A4B",
"H 	c #445B66",
"I 	c #40BDEC",
"J 	c #435C65",
"K 	c #444A49",
"L 	c #4385A3",
"M 	c #3EBAEA",
"N 	c #4285A2",
"O 	c #434A49",
"P 	c #4286A4",
"Q 	c #3FBEEC",
"R 	c #40BDED",
"S 	c #4185A2",
"T 	c #434949",
"U 	c #434948",
"V 	c #425B67",
"W 	c #41A0C6",
"X 	c #40BBE9",
"Y 	c #40B9E7",
"Z 	c #42A0C6",
"` 	c #435A66",
" .	c #424949",
"..	c #424848",
"+.	c #424747",
"@.	c #414847",
"#.	c #414748",
"$.	c #424748",
"%.	c #414747",
". . . . . . . . . . . . . . . . . . . . . . . . ",
"+ + + + + + + + + + + + + + + + + + + + + + + + ",
"+ + + + + + + + + + + + + + + + + + + + + + + + ",
"+ + + + + + + + + + + + + + + + + + + + + + + + ",
"@ + @ @ + @ @ + @ + @ + @ + @ + @ + @ + @ + + + ",
"# $ % # $ # $ % # $ # $ % # # $ % # $ $ % # @ $ ",
"& & * & & & & * & & & & * & & & * & & & * & * $ ",
"= * - = * * - * ; > , ' ' ) ! ~ * - & * - * - & ",
"{ ] ] { ] ] ] ^ / ( _ : : _ < [ } { { ] ] - { { ",
"| | 1 | | | ^ 2 3 : : : : : : 4 2 } | | 1 1 1 | ",
"5 6 7 5 6 8 / 3 : : : : : : : : 4 [ 9 6 7 | 0 0 ",
"a b b a b c d : : : : : : : : : : d e b b b f 6 ",
"g g h g g i _ : : : : : : : : : : _ j g h h g g ",
"k k g k k l : : m n n n n n n m : : ' k g k o p ",
"q q o q q r : : s t t t t t t s : : l q o q o q ",
"u v v u v i _ : w x x x x x x w : _ y v v q z A ",
"A A A A A B d : : : : : : : : : : < C A A A A D ",
"E F G E F H [ 4 : : : : : : : : 4 I J F G D A E ",
"E E K E E E L M 4 : : : : : : 4 M N E E K E E E ",
"O O K O O O K P Q d _ : : _ d R S T E O K T T E ",
"T U T T U U T T V W i X X Y Z ` T  .T U T T  .T ",
" ..... .........................................",
"+.@.#.+.@.@.#.$.....#.$.....@.#.$.....@.#.$.....",
"%.%.%.%.%.%.%.%.%.%.%.%.%.%.%.%.%.%.%.%.%.#.+.%."};
