/* XPM */
static char * hide_active_xpm[] = {
"24 24 93 2",
"  	c None",
". 	c #313133",
"+ 	c #4B5252",
"@ 	c #4B5151",
"# 	c #4A5152",
"$ 	c #4A5151",
"% 	c #4B5152",
"& 	c #4A5051",
"* 	c #495150",
"= 	c #4A5050",
"- 	c #495050",
"; 	c #49606C",
"> 	c #45A2C8",
", 	c #41BAE8",
"' 	c #41BBEA",
") 	c #41BAE7",
"! 	c #44A2C7",
"~ 	c #495F6A",
"{ 	c #494F50",
"] 	c #49504F",
"^ 	c #458AA5",
"/ 	c #40BDEB",
"( 	c #39ADDE",
"_ 	c #38A5D4",
": 	c #37A4D4",
"< 	c #39AEDF",
"[ 	c #40BEEC",
"} 	c #4688A5",
"| 	c #484F4F",
"1 	c #494F4F",
"2 	c #3FBAEA",
"3 	c #37A5D5",
"4 	c #38A5D5",
"5 	c #484F4E",
"6 	c #484E4E",
"7 	c #474F4E",
"8 	c #485F6A",
"9 	c #485D6A",
"0 	c #484E4F",
"a 	c #474D4E",
"b 	c #474E4E",
"c 	c #43A2C7",
"d 	c #39ADDF",
"e 	c #44A0C6",
"f 	c #484D4E",
"g 	c #474D4D",
"h 	c #474E4D",
"i 	c #40BAE8",
"j 	c #40BBE8",
"k 	c #464D4D",
"l 	c #41BBE9",
"m 	c #464D4C",
"n 	c #474D4C",
"o 	c #464C4C",
"p 	c #41BCEA",
"q 	c #464C4B",
"r 	c #454C4C",
"s 	c #40BAE7",
"t 	c #454C4B",
"u 	c #454B4B",
"v 	c #42A1C6",
"w 	c #43A1C5",
"x 	c #444B4B",
"y 	c #444A4A",
"z 	c #444B4A",
"A 	c #444A4B",
"B 	c #445B66",
"C 	c #40BDEC",
"D 	c #435C65",
"E 	c #444A49",
"F 	c #4385A3",
"G 	c #3EBAEA",
"H 	c #4285A2",
"I 	c #434A49",
"J 	c #4286A4",
"K 	c #3FBEEC",
"L 	c #40BDED",
"M 	c #4185A2",
"N 	c #434949",
"O 	c #434948",
"P 	c #425B67",
"Q 	c #41A0C6",
"R 	c #40BBE9",
"S 	c #40B9E7",
"T 	c #42A0C6",
"U 	c #435A66",
"V 	c #424949",
"W 	c #424848",
"X 	c #424747",
"Y 	c #414847",
"Z 	c #414748",
"` 	c #424748",
" .	c #414747",
". . . . . . . . . . . . . . . . . . . . . . . . ",
"+ + + + + + + + + + + + + + + + + + + + + + + + ",
"+ + + + + + + + + + + + + + + + + + + + + + + + ",
"+ + + + + + + + + + + + + + + + + + + + + + + + ",
"@ + @ @ + @ @ + @ + @ + @ + @ + @ + @ + @ + + + ",
"# $ % # $ # $ % # $ # $ % # # $ % # $ $ % # @ $ ",
"& & * & & & & * & & & & * & & & * & & & * & * $ ",
"= * - = * * - * ; > , ' ' ) ! ~ * - & * - * - & ",
"{ ] ] { ] ] ] ^ / ( _ : : _ < [ } { { ] ] - { { ",
"| | 1 | | | ^ 2 3 : : : : : : 4 2 } | | 1 1 1 | ",
"5 6 7 5 6 8 / 3 : : : : : : : : 4 [ 9 6 7 | 0 0 ",
"a b b a b c d : : : : : : : : : : d e b b b f 6 ",
"g g h g g i _ : : : : : : : : : : _ j g h h g g ",
"k k g k k l : : : : : : : : : : : : ' k g k m n ",
"o o m o o p : : : : : : : : : : : : l o m o m o ",
"q r r q r i _ : : : : : : : : : : _ s r r o t u ",
"u u u u u v d : : : : : : : : : : < w u u u u x ",
"y z A y z B [ 4 : : : : : : : : 4 C D z A x u y ",
"y y E y y y F G 4 : : : : : : 4 G H y y E y y y ",
"I I E I I I E J K d _ : : _ d L M N y I E N N y ",
"N O N N O O N N P Q i R R S T U N V N O N N V N ",
"V W W V W W W W W W W W W W W W W W W W W W W W ",
"X Y Z X Y Y Z ` W W Z ` W W Y Z ` W W Y Z ` W W ",
" . . . . . . . . . . . . . . . . . . . . .Z X  ."};
