/* XPM */
static char * maximize_pressed_xpm[] = {
"24 24 109 2",
"  	c None",
". 	c #313133",
"+ 	c #4B5252",
"@ 	c #4B5151",
"# 	c #4A5152",
"$ 	c #4A5151",
"% 	c #4B5152",
"& 	c #4A5051",
"* 	c #495150",
"= 	c #4A5050",
"- 	c #495050",
"; 	c #49606C",
"> 	c #45A2C8",
", 	c #41BAE8",
"' 	c #41BBEA",
") 	c #41BAE7",
"! 	c #44A2C7",
"~ 	c #495F6A",
"{ 	c #494F50",
"] 	c #49504F",
"^ 	c #458AA5",
"/ 	c #40BDEB",
"( 	c #39ADDE",
"_ 	c #38A5D4",
": 	c #37A4D4",
"< 	c #39AEDF",
"[ 	c #40BEEC",
"} 	c #4688A5",
"| 	c #484F4F",
"1 	c #494F4F",
"2 	c #3FBAEA",
"3 	c #37A5D5",
"4 	c #38A5D5",
"5 	c #484F4E",
"6 	c #484E4E",
"7 	c #474F4E",
"8 	c #485F6A",
"9 	c #44AAD7",
"0 	c #94CEE8",
"a 	c #66B9DE",
"b 	c #485D6A",
"c 	c #484E4F",
"d 	c #474D4E",
"e 	c #474E4E",
"f 	c #43A2C7",
"g 	c #39ADDF",
"h 	c #85C7E5",
"i 	c #FDFEFF",
"j 	c #FFFFFF",
"k 	c #9BD2EA",
"l 	c #44A0C6",
"m 	c #484D4E",
"n 	c #474D4D",
"o 	c #474E4D",
"p 	c #40BAE8",
"q 	c #47ABD7",
"r 	c #40BBE8",
"s 	c #464D4D",
"t 	c #41BBE9",
"u 	c #9BD1E9",
"v 	c #8BCAE6",
"w 	c #464D4C",
"x 	c #474D4C",
"y 	c #464C4C",
"z 	c #41BCEA",
"A 	c #FEFFFF",
"B 	c #9AD1E9",
"C 	c #464C4B",
"D 	c #454C4C",
"E 	c #40BAE7",
"F 	c #454C4B",
"G 	c #454B4B",
"H 	c #42A1C6",
"I 	c #43A1C5",
"J 	c #444B4B",
"K 	c #444A4A",
"L 	c #444B4A",
"M 	c #444A4B",
"N 	c #445B66",
"O 	c #6CBCDF",
"P 	c #A2D5EB",
"Q 	c #A1D4EB",
"R 	c #4AADD8",
"S 	c #40BDEC",
"T 	c #435C65",
"U 	c #444A49",
"V 	c #4385A3",
"W 	c #3EBAEA",
"X 	c #4285A2",
"Y 	c #434A49",
"Z 	c #4286A4",
"` 	c #3FBEEC",
" .	c #40BDED",
"..	c #4185A2",
"+.	c #434949",
"@.	c #434948",
"#.	c #425B67",
"$.	c #41A0C6",
"%.	c #40BBE9",
"&.	c #40B9E7",
"*.	c #42A0C6",
"=.	c #435A66",
"-.	c #424949",
";.	c #424848",
">.	c #424747",
",.	c #414847",
"'.	c #414748",
").	c #424748",
"!.	c #414747",
". . . . . . . . . . . . . . . . . . . . . . . . ",
"+ + + + + + + + + + + + + + + + + + + + + + + + ",
"+ + + + + + + + + + + + + + + + + + + + + + + + ",
"+ + + + + + + + + + + + + + + + + + + + + + + + ",
"@ + @ @ + @ @ + @ + @ + @ + @ + @ + @ + @ + + + ",
"# $ % # $ # $ % # $ # $ % # # $ % # $ $ % # @ $ ",
"& & * & & & & * & & & & * & & & * & & & * & * $ ",
"= * - = * * - * ; > , ' ' ) ! ~ * - & * - * - & ",
"{ ] ] { ] ] ] ^ / ( _ : : _ < [ } { { ] ] - { { ",
"| | 1 | | | ^ 2 3 : : : : : : 4 2 } | | 1 1 1 | ",
"5 6 7 5 6 8 / 3 : : 9 0 0 0 0 a 4 [ b 6 7 | c c ",
"d e e d e f g : : : : h i j j k : g l e e e m 6 ",
"n n o n n p _ : q : : : h i j k : _ r n o o n n ",
"s s n s s t : : u v : : : h i k : : ' s n s w x ",
"y y w y y z : : k A v : : : h B : : t y w y w y ",
"C D D C D p _ : k j A v : : : q : _ E D D y F G ",
"G G G G G H g : k j j A v : : : : < I G G G G J ",
"K L M K L N [ 4 O P P P Q R : : 4 S T L M J G K ",
"K K U K K K V W 4 : : : : : : 4 W X K K U K K K ",
"Y Y U Y Y Y U Z ` g _ : : _ g  ...+.K Y U +.+.K ",
"+.@.+.+.@.@.+.+.#.$.p %.%.&.*.=.+.-.+.@.+.+.-.+.",
"-.;.;.-.;.;.;.;.;.;.;.;.;.;.;.;.;.;.;.;.;.;.;.;.",
">.,.'.>.,.,.'.).;.;.'.).;.;.,.'.).;.;.,.'.).;.;.",
"!.!.!.!.!.!.!.!.!.!.!.!.!.!.!.!.!.!.!.!.!.'.>.!."};
