/* XPM */
static char * maximize_inactive_xpm[] = {
"24 24 77 1",
" 	c None",
".	c #313133",
"+	c #4B5252",
"@	c #4B5151",
"#	c #4A5152",
"$	c #4A5151",
"%	c #4B5152",
"&	c #4A5051",
"*	c #495150",
"=	c #4A5050",
"-	c #495050",
";	c #505555",
">	c #6C6E6E",
",	c #787979",
"'	c #505756",
")	c #494F50",
"!	c #49504F",
"~	c #616564",
"{	c #797979",
"]	c #6E6E6E",
"^	c #676767",
"/	c #666666",
"(	c #606463",
"_	c #484F4F",
":	c #494F4F",
"<	c #616464",
"[	c #777878",
"}	c #606363",
"|	c #484F4E",
"1	c #484E4E",
"2	c #474F4E",
"3	c #4F5554",
"4	c #4F5454",
"5	c #484E4F",
"6	c #474D4E",
"7	c #474E4E",
"8	c #6C6D6E",
"9	c #484D4E",
"0	c #474D4D",
"a	c #474E4D",
"b	c #787878",
"c	c #777777",
"d	c #464D4D",
"e	c #464D4C",
"f	c #474D4C",
"g	c #464C4C",
"h	c #464C4B",
"i	c #454C4C",
"j	c #454C4B",
"k	c #454B4B",
"l	c #6B6D6D",
"m	c #6F6F6F",
"n	c #6A6C6C",
"o	c #444B4B",
"p	c #444A4A",
"q	c #444B4A",
"r	c #444A4B",
"s	c #4C5151",
"t	c #4C5251",
"u	c #444A49",
"v	c #5E6161",
"w	c #5F6262",
"x	c #434A49",
"y	c #5F6261",
"z	c #434949",
"A	c #434948",
"B	c #4B5050",
"C	c #6B6C6C",
"D	c #6A6B6B",
"E	c #4A4F4E",
"F	c #424949",
"G	c #424848",
"H	c #424747",
"I	c #414847",
"J	c #414748",
"K	c #424748",
"L	c #414747",
"........................",
"++++++++++++++++++++++++",
"++++++++++++++++++++++++",
"++++++++++++++++++++++++",
"@+@@+@@+@+@+@+@+@+@+@+++",
"#$%#$#$%#$#$%##$%#$$%#@$",
"&&*&&&&*&&&&*&&&*&&&*&*$",
"=*-=*=*-;>,,,,>'-=**-*-&",
")!!)!)!~{]^//^]{()!!!-))",
"__:___<[^//////^[}__:::_",
"|12|13{^////////^{412_55",
"677678]//////////]>77791",
"00a00b^//////////^c0aa00",
"dd0dd,////////////,d0def",
"ggegg,////////////,gegeg",
"hiihib^///////////biigjk",
"kkkkkl]//////////mnkkkko",
"pqrpqs{^////////^{tqrokp",
"ppupppvc^//////^bwppuppp",
"xxuxxxxw{]^//^m{yxxxuzzp",
"zAzzAzAzBCbbbcDEzzAAzzFz",
"FGGFGFGGFGFGGFFGGFGGGGGG",
"HIJHIHIJHIHIJHHIJHIIJKGG",
"LLLLLLLLLLLLLLLLLLLLLJHL"};
