/* XPM */
static char * stick_toggled_active_xpm[] = {
"24 36 105 2",
"  	c #323A3F",
". 	c #3F4C53",
"+ 	c #3F4C52",
"@ 	c #3E4C53",
"# 	c #3F4B53",
"$ 	c #3E4C52",
"% 	c #3E4B52",
"& 	c #3F4B52",
"* 	c #3E4B53",
"= 	c #3E4A52",
"- 	c #404A50",
"; 	c #202323",
"> 	c #0F0F0F",
", 	c #0A0A0A",
"' 	c #3D4B51",
") 	c #161818",
"! 	c #323B41",
"~ 	c #3D4A51",
"{ 	c #263036",
"] 	c #3D4A50",
"^ 	c #3C4950",
"/ 	c #263035",
"( 	c #3D4950",
"_ 	c #252F35",
": 	c #4C5050",
"< 	c #B8B8B8",
"[ 	c #E6E6E6",
"} 	c #FCFCFC",
"| 	c #3C494F",
"1 	c #242E33",
"2 	c #8C8D8D",
"3 	c #DFE0E0",
"4 	c #D2D2D2",
"5 	c #919292",
"6 	c #484B4B",
"7 	c #3C4850",
"8 	c #242D32",
"9 	c #4B4E4E",
"0 	c #DFDFDF",
"a 	c #B7B8B8",
"b 	c #3B494F",
"c 	c #3B484F",
"d 	c #232C31",
"e 	c #D1D2D2",
"f 	c #686A6A",
"g 	c #C6C7C7",
"h 	c #F4F4F4",
"i 	c #222B30",
"j 	c #909191",
"k 	c #3A484F",
"l 	c #212A2F",
"m 	c #454747",
"n 	c #3A484E",
"o 	c #20282E",
"p 	c #444646",
"q 	c #3A474E",
"r 	c #20272C",
"s 	c #8F9090",
"t 	c #C6C6C6",
"u 	c #3A474D",
"v 	c #1E262B",
"w 	c #B7B7B7",
"x 	c #D1D1D1",
"y 	c #666767",
"z 	c #39464E",
"A 	c #1E2429",
"B 	c #464848",
"C 	c #1D2428",
"D 	c #8A8B8B",
"E 	c #8F8F8F",
"F 	c #414443",
"G 	c #39464D",
"H 	c #1C2327",
"I 	c #B6B7B7",
"J 	c #E5E6E6",
"K 	c #FBFCFC",
"L 	c #39454D",
"M 	c #1C2226",
"N 	c #38464D",
"O 	c #1A2024",
"P 	c #38454C",
"Q 	c #38454D",
"R 	c #39454C",
"S 	c #37444B",
"T 	c #101212",
"U 	c #171B1B",
"V 	c #181D1D",
"W 	c #37454C",
"X 	c #394449",
"Y 	c #202424",
"Z 	c #101111",
"` 	c #0B0C0C",
" .	c #38444B",
"..	c #37444C",
"+.	c #394349",
"@.	c #555B5B",
"#.	c #5C6161",
"$.	c #5E6363",
"%.	c #37444A",
"&.	c #37434B",
"*.	c #37434A",
"=.	c #36444B",
"-.	c #36444A",
";.	c #36434B",
">.	c #36434A",
"                                                ",
". . . . . . . . . . . . . . . . . . . . . . . . ",
". + . . . + . . . . . @ . # $ # . . + . . + . + ",
". . # @ . . % + & . @ & & & % $ . + # & & @ # & ",
"@ % % + @ % $ & % + & @ $ # % # . & % & @ & $ % ",
"% % % % % % % % % % % % * % % % % % % % % % % % ",
"= - ; > , , , , , , , , , , , , , , , , > ; - % ",
"' ; ) ! ! ! ! ! ! ! ! ! ! ! ! ! ! ! ! ! ! ) ; % ",
"~ > { { { { { { { { { { { { { { { { { { { { > ~ ",
"~ , { { { { { { { { { { { { { { { { { { { { , ~ ",
"] , { { { { { { { { { { { { { { { { { { { { , ~ ",
"^ , / / / / / / / / / / / / / / / / / / / / , ( ",
"^ , _ _ _ _ _ _ : < [ } } [ < : _ _ _ _ _ _ , ( ",
"| , 1 1 1 1 1 2 3 4 5 6 6 5 4 3 2 1 1 1 1 1 , 7 ",
"7 , 8 8 8 8 9 0 a 8 8 8 8 8 8 a 0 9 8 8 8 8 , b ",
"c , d d d d a e d f g h h g f d e a d d d d , c ",
"c , i i i i [ j i g } } } } g i j [ i i i i , c ",
"k , l l l l } m l h } } } } h l m } l l l l , c ",
"n , o o o o } p o h } } } } h o p } o o o o , q ",
"q , r r r r [ s r t } } } } t r s [ r r r r , q ",
"u , v v v v w x v y t h h t y v x w v v v v , q ",
"z , A A A A B 0 w A A A A A A w 0 B A A A A , q ",
"u , C C C C C D 0 x E F F E x 0 C C C C C C , z ",
"G , H H H H H H m I J K K J I m H H H H H H , G ",
"L , M M M M M M M M M M M M M M M M M M M M , N ",
"L , O O O O O O O O O O O O O O O O O O O O , P ",
"Q , O O O O O O O O O O O O O O O O O O O O , R ",
"P > O O O O O O O O O O O O O O O O O O O O > P ",
"S ; T U V V V V V V V V V V V V V V V V U T ; P ",
"W X Y Z ` ` ` ` ` ` ` ` ` ` ` ` ` ` ` ` Z Y X  .",
"..+.+.@.#.$.$.$.$.$.$.$.$.$.$.$.$.$.$.#.@.+.+.S ",
"S S S S S S S S S S %.S S &.S %.S S &.*.S %.S S ",
"=.%.*.*.=.%.%.-.%.;.-.S *.&.&.S S -.&.>.%.=.>.=.",
"*.-.=.>.*.-.&.&.*.;.>.=.;.*.%.;.;.>.>.=.-.>.*.S ",
">.>.>.>.>.>.-.>.-.>.>.>.>.>.>.=.>.>.>.>.>.>.-.>.",
">.>.>.>.>.>.>.>.>.>.>.>.>.>.>.>.>.>.>.>.>.>.>.>."};
